%TF.GenerationSoftware,KiCad,Pcbnew,5.1.6-c6e7f7d~86~ubuntu18.04.1*%
%TF.CreationDate,2020-08-16T12:45:01-03:00*%
%TF.ProjectId,pcbproyecto,70636270-726f-4796-9563-746f2e6b6963,rev?*%
%TF.SameCoordinates,Original*%
%TF.FileFunction,Copper,L4,Bot*%
%TF.FilePolarity,Positive*%
%FSLAX46Y46*%
G04 Gerber Fmt 4.6, Leading zero omitted, Abs format (unit mm)*
G04 Created by KiCad (PCBNEW 5.1.6-c6e7f7d~86~ubuntu18.04.1) date 2020-08-16 12:45:01*
%MOMM*%
%LPD*%
G01*
G04 APERTURE LIST*
%TA.AperFunction,ComponentPad*%
%ADD10C,1.524000*%
%TD*%
%TA.AperFunction,ComponentPad*%
%ADD11R,1.524000X1.524000*%
%TD*%
%TA.AperFunction,ComponentPad*%
%ADD12C,3.500000*%
%TD*%
%TA.AperFunction,ComponentPad*%
%ADD13O,0.850000X0.850000*%
%TD*%
%TA.AperFunction,ComponentPad*%
%ADD14R,0.850000X0.850000*%
%TD*%
%TA.AperFunction,ComponentPad*%
%ADD15R,3.500000X3.500000*%
%TD*%
%TA.AperFunction,ViaPad*%
%ADD16C,0.457200*%
%TD*%
%TA.AperFunction,ViaPad*%
%ADD17C,0.609600*%
%TD*%
%TA.AperFunction,Conductor*%
%ADD18C,0.152400*%
%TD*%
%TA.AperFunction,Conductor*%
%ADD19C,0.381000*%
%TD*%
G04 APERTURE END LIST*
%TO.P,C1,2*%
%TO.N,GND*%
%TA.AperFunction,SMDPad,CuDef*%
G36*
G01*
X68776250Y-53512500D02*
X68263750Y-53512500D01*
G75*
G02*
X68045000Y-53293750I0J218750D01*
G01*
X68045000Y-52856250D01*
G75*
G02*
X68263750Y-52637500I218750J0D01*
G01*
X68776250Y-52637500D01*
G75*
G02*
X68995000Y-52856250I0J-218750D01*
G01*
X68995000Y-53293750D01*
G75*
G02*
X68776250Y-53512500I-218750J0D01*
G01*
G37*
%TD.AperFunction*%
%TO.P,C1,1*%
%TO.N,Net-(C1-Pad1)*%
%TA.AperFunction,SMDPad,CuDef*%
G36*
G01*
X68776250Y-55087500D02*
X68263750Y-55087500D01*
G75*
G02*
X68045000Y-54868750I0J218750D01*
G01*
X68045000Y-54431250D01*
G75*
G02*
X68263750Y-54212500I218750J0D01*
G01*
X68776250Y-54212500D01*
G75*
G02*
X68995000Y-54431250I0J-218750D01*
G01*
X68995000Y-54868750D01*
G75*
G02*
X68776250Y-55087500I-218750J0D01*
G01*
G37*
%TD.AperFunction*%
%TD*%
D10*
%TO.P,J3,4*%
%TO.N,GND*%
X25125000Y-44950000D03*
%TO.P,J3,3*%
%TO.N,/USB1_D+*%
X25125000Y-42450000D03*
%TO.P,J3,2*%
%TO.N,/USB1_D-*%
X25125000Y-40450000D03*
D11*
%TO.P,J3,1*%
%TO.N,/USB1_VBU*%
X25125000Y-37950000D03*
D12*
%TO.P,J3,5*%
%TO.N,CGND*%
X22415000Y-34880000D03*
X22415000Y-48020000D03*
%TD*%
%TO.P,U8,8*%
%TO.N,Net-(U8-Pad2)*%
%TA.AperFunction,SMDPad,CuDef*%
G36*
G01*
X73160000Y-53065000D02*
X73160000Y-53365000D01*
G75*
G02*
X73010000Y-53515000I-150000J0D01*
G01*
X71360000Y-53515000D01*
G75*
G02*
X71210000Y-53365000I0J150000D01*
G01*
X71210000Y-53065000D01*
G75*
G02*
X71360000Y-52915000I150000J0D01*
G01*
X73010000Y-52915000D01*
G75*
G02*
X73160000Y-53065000I0J-150000D01*
G01*
G37*
%TD.AperFunction*%
%TO.P,U8,7*%
%TO.N,Net-(C1-Pad1)*%
%TA.AperFunction,SMDPad,CuDef*%
G36*
G01*
X73160000Y-54335000D02*
X73160000Y-54635000D01*
G75*
G02*
X73010000Y-54785000I-150000J0D01*
G01*
X71360000Y-54785000D01*
G75*
G02*
X71210000Y-54635000I0J150000D01*
G01*
X71210000Y-54335000D01*
G75*
G02*
X71360000Y-54185000I150000J0D01*
G01*
X73010000Y-54185000D01*
G75*
G02*
X73160000Y-54335000I0J-150000D01*
G01*
G37*
%TD.AperFunction*%
%TO.P,U8,6*%
%TO.N,/GPIO_A4*%
%TA.AperFunction,SMDPad,CuDef*%
G36*
G01*
X73160000Y-55605000D02*
X73160000Y-55905000D01*
G75*
G02*
X73010000Y-56055000I-150000J0D01*
G01*
X71360000Y-56055000D01*
G75*
G02*
X71210000Y-55905000I0J150000D01*
G01*
X71210000Y-55605000D01*
G75*
G02*
X71360000Y-55455000I150000J0D01*
G01*
X73010000Y-55455000D01*
G75*
G02*
X73160000Y-55605000I0J-150000D01*
G01*
G37*
%TD.AperFunction*%
%TO.P,U8,5*%
%TO.N,VDD_3V3B*%
%TA.AperFunction,SMDPad,CuDef*%
G36*
G01*
X73160000Y-56875000D02*
X73160000Y-57175000D01*
G75*
G02*
X73010000Y-57325000I-150000J0D01*
G01*
X71360000Y-57325000D01*
G75*
G02*
X71210000Y-57175000I0J150000D01*
G01*
X71210000Y-56875000D01*
G75*
G02*
X71360000Y-56725000I150000J0D01*
G01*
X73010000Y-56725000D01*
G75*
G02*
X73160000Y-56875000I0J-150000D01*
G01*
G37*
%TD.AperFunction*%
%TO.P,U8,4*%
%TO.N,GND*%
%TA.AperFunction,SMDPad,CuDef*%
G36*
G01*
X78110000Y-56875000D02*
X78110000Y-57175000D01*
G75*
G02*
X77960000Y-57325000I-150000J0D01*
G01*
X76310000Y-57325000D01*
G75*
G02*
X76160000Y-57175000I0J150000D01*
G01*
X76160000Y-56875000D01*
G75*
G02*
X76310000Y-56725000I150000J0D01*
G01*
X77960000Y-56725000D01*
G75*
G02*
X78110000Y-56875000I0J-150000D01*
G01*
G37*
%TD.AperFunction*%
%TO.P,U8,3*%
%TO.N,Net-(C11-Pad1)*%
%TA.AperFunction,SMDPad,CuDef*%
G36*
G01*
X78110000Y-55605000D02*
X78110000Y-55905000D01*
G75*
G02*
X77960000Y-56055000I-150000J0D01*
G01*
X76310000Y-56055000D01*
G75*
G02*
X76160000Y-55905000I0J150000D01*
G01*
X76160000Y-55605000D01*
G75*
G02*
X76310000Y-55455000I150000J0D01*
G01*
X77960000Y-55455000D01*
G75*
G02*
X78110000Y-55605000I0J-150000D01*
G01*
G37*
%TD.AperFunction*%
%TO.P,U8,2*%
%TO.N,Net-(U8-Pad2)*%
%TA.AperFunction,SMDPad,CuDef*%
G36*
G01*
X78110000Y-54335000D02*
X78110000Y-54635000D01*
G75*
G02*
X77960000Y-54785000I-150000J0D01*
G01*
X76310000Y-54785000D01*
G75*
G02*
X76160000Y-54635000I0J150000D01*
G01*
X76160000Y-54335000D01*
G75*
G02*
X76310000Y-54185000I150000J0D01*
G01*
X77960000Y-54185000D01*
G75*
G02*
X78110000Y-54335000I0J-150000D01*
G01*
G37*
%TD.AperFunction*%
%TO.P,U8,1*%
%TO.N,Net-(J2-Pad1)*%
%TA.AperFunction,SMDPad,CuDef*%
G36*
G01*
X78110000Y-53065000D02*
X78110000Y-53365000D01*
G75*
G02*
X77960000Y-53515000I-150000J0D01*
G01*
X76310000Y-53515000D01*
G75*
G02*
X76160000Y-53365000I0J150000D01*
G01*
X76160000Y-53065000D01*
G75*
G02*
X76310000Y-52915000I150000J0D01*
G01*
X77960000Y-52915000D01*
G75*
G02*
X78110000Y-53065000I0J-150000D01*
G01*
G37*
%TD.AperFunction*%
%TD*%
%TO.P,C11,2*%
%TO.N,GND*%
%TA.AperFunction,SMDPad,CuDef*%
G36*
G01*
X80964999Y-60002500D02*
X81515001Y-60002500D01*
G75*
G02*
X81765000Y-60252499I0J-249999D01*
G01*
X81765000Y-60827501D01*
G75*
G02*
X81515001Y-61077500I-249999J0D01*
G01*
X80964999Y-61077500D01*
G75*
G02*
X80715000Y-60827501I0J249999D01*
G01*
X80715000Y-60252499D01*
G75*
G02*
X80964999Y-60002500I249999J0D01*
G01*
G37*
%TD.AperFunction*%
%TO.P,C11,1*%
%TO.N,Net-(C11-Pad1)*%
%TA.AperFunction,SMDPad,CuDef*%
G36*
G01*
X80964999Y-58577500D02*
X81515001Y-58577500D01*
G75*
G02*
X81765000Y-58827499I0J-249999D01*
G01*
X81765000Y-59402501D01*
G75*
G02*
X81515001Y-59652500I-249999J0D01*
G01*
X80964999Y-59652500D01*
G75*
G02*
X80715000Y-59402501I0J249999D01*
G01*
X80715000Y-58827499D01*
G75*
G02*
X80964999Y-58577500I249999J0D01*
G01*
G37*
%TD.AperFunction*%
%TD*%
D13*
%TO.P,J2,16*%
%TO.N,GND*%
X39750000Y-85500000D03*
%TO.P,J2,15*%
X39750000Y-86500000D03*
%TO.P,J2,14*%
%TO.N,N/C*%
X38750000Y-85500000D03*
%TO.P,J2,13*%
%TO.N,VDD_3V3B*%
X38750000Y-86500000D03*
%TO.P,J2,12*%
%TO.N,/Peripherals/UART0_TX*%
X37750000Y-85500000D03*
%TO.P,J2,11*%
%TO.N,N/C*%
X37750000Y-86500000D03*
%TO.P,J2,10*%
%TO.N,/Peripherals/UART0_RX*%
X36750000Y-85500000D03*
%TO.P,J2,9*%
%TO.N,N/C*%
X36750000Y-86500000D03*
%TO.P,J2,8*%
%TO.N,/Peripherals/SPI0_D0*%
X35750000Y-85500000D03*
%TO.P,J2,7*%
%TO.N,N/C*%
X35750000Y-86500000D03*
%TO.P,J2,6*%
%TO.N,/Peripherals/SPI0_SCLK*%
X34750000Y-85500000D03*
%TO.P,J2,5*%
%TO.N,N/C*%
X34750000Y-86500000D03*
%TO.P,J2,4*%
%TO.N,/Peripherals/SPI0_D1*%
X33750000Y-85500000D03*
%TO.P,J2,3*%
%TO.N,VDD_5V*%
X33750000Y-86500000D03*
%TO.P,J2,2*%
%TO.N,/Peripherals/SPI0_CS0*%
X32750000Y-85500000D03*
D14*
%TO.P,J2,1*%
%TO.N,Net-(J2-Pad1)*%
X32750000Y-86500000D03*
%TD*%
%TO.P,R27,2*%
%TO.N,/Sistem In Package/AIN61.8V*%
%TA.AperFunction,SMDPad,CuDef*%
G36*
G01*
X69493750Y-67600000D02*
X70006250Y-67600000D01*
G75*
G02*
X70225000Y-67818750I0J-218750D01*
G01*
X70225000Y-68256250D01*
G75*
G02*
X70006250Y-68475000I-218750J0D01*
G01*
X69493750Y-68475000D01*
G75*
G02*
X69275000Y-68256250I0J218750D01*
G01*
X69275000Y-67818750D01*
G75*
G02*
X69493750Y-67600000I218750J0D01*
G01*
G37*
%TD.AperFunction*%
%TO.P,R27,1*%
%TO.N,GND*%
%TA.AperFunction,SMDPad,CuDef*%
G36*
G01*
X69493750Y-66025000D02*
X70006250Y-66025000D01*
G75*
G02*
X70225000Y-66243750I0J-218750D01*
G01*
X70225000Y-66681250D01*
G75*
G02*
X70006250Y-66900000I-218750J0D01*
G01*
X69493750Y-66900000D01*
G75*
G02*
X69275000Y-66681250I0J218750D01*
G01*
X69275000Y-66243750D01*
G75*
G02*
X69493750Y-66025000I218750J0D01*
G01*
G37*
%TD.AperFunction*%
%TD*%
%TO.P,R26,2*%
%TO.N,/Sistem In Package/AIN61.8V*%
%TA.AperFunction,SMDPad,CuDef*%
G36*
G01*
X73756250Y-71112500D02*
X73243750Y-71112500D01*
G75*
G02*
X73025000Y-70893750I0J218750D01*
G01*
X73025000Y-70456250D01*
G75*
G02*
X73243750Y-70237500I218750J0D01*
G01*
X73756250Y-70237500D01*
G75*
G02*
X73975000Y-70456250I0J-218750D01*
G01*
X73975000Y-70893750D01*
G75*
G02*
X73756250Y-71112500I-218750J0D01*
G01*
G37*
%TD.AperFunction*%
%TO.P,R26,1*%
%TO.N,N/C*%
%TA.AperFunction,SMDPad,CuDef*%
G36*
G01*
X73756250Y-72687500D02*
X73243750Y-72687500D01*
G75*
G02*
X73025000Y-72468750I0J218750D01*
G01*
X73025000Y-72031250D01*
G75*
G02*
X73243750Y-71812500I218750J0D01*
G01*
X73756250Y-71812500D01*
G75*
G02*
X73975000Y-72031250I0J-218750D01*
G01*
X73975000Y-72468750D01*
G75*
G02*
X73756250Y-72687500I-218750J0D01*
G01*
G37*
%TD.AperFunction*%
%TD*%
%TO.P,R25,2*%
%TO.N,/Sistem In Package/AIN51.8V*%
%TA.AperFunction,SMDPad,CuDef*%
G36*
G01*
X70006250Y-71150000D02*
X69493750Y-71150000D01*
G75*
G02*
X69275000Y-70931250I0J218750D01*
G01*
X69275000Y-70493750D01*
G75*
G02*
X69493750Y-70275000I218750J0D01*
G01*
X70006250Y-70275000D01*
G75*
G02*
X70225000Y-70493750I0J-218750D01*
G01*
X70225000Y-70931250D01*
G75*
G02*
X70006250Y-71150000I-218750J0D01*
G01*
G37*
%TD.AperFunction*%
%TO.P,R25,1*%
%TO.N,N/C*%
%TA.AperFunction,SMDPad,CuDef*%
G36*
G01*
X70006250Y-72725000D02*
X69493750Y-72725000D01*
G75*
G02*
X69275000Y-72506250I0J218750D01*
G01*
X69275000Y-72068750D01*
G75*
G02*
X69493750Y-71850000I218750J0D01*
G01*
X70006250Y-71850000D01*
G75*
G02*
X70225000Y-72068750I0J-218750D01*
G01*
X70225000Y-72506250D01*
G75*
G02*
X70006250Y-72725000I-218750J0D01*
G01*
G37*
%TD.AperFunction*%
%TD*%
%TO.P,R24,2*%
%TO.N,/Sistem In Package/AIN51.8V*%
%TA.AperFunction,SMDPad,CuDef*%
G36*
G01*
X70006250Y-75362500D02*
X69493750Y-75362500D01*
G75*
G02*
X69275000Y-75143750I0J218750D01*
G01*
X69275000Y-74706250D01*
G75*
G02*
X69493750Y-74487500I218750J0D01*
G01*
X70006250Y-74487500D01*
G75*
G02*
X70225000Y-74706250I0J-218750D01*
G01*
X70225000Y-75143750D01*
G75*
G02*
X70006250Y-75362500I-218750J0D01*
G01*
G37*
%TD.AperFunction*%
%TO.P,R24,1*%
%TO.N,GND*%
%TA.AperFunction,SMDPad,CuDef*%
G36*
G01*
X70006250Y-76937500D02*
X69493750Y-76937500D01*
G75*
G02*
X69275000Y-76718750I0J218750D01*
G01*
X69275000Y-76281250D01*
G75*
G02*
X69493750Y-76062500I218750J0D01*
G01*
X70006250Y-76062500D01*
G75*
G02*
X70225000Y-76281250I0J-218750D01*
G01*
X70225000Y-76718750D01*
G75*
G02*
X70006250Y-76937500I-218750J0D01*
G01*
G37*
%TD.AperFunction*%
%TD*%
%TO.P,J6,1*%
%TO.N,Net-(J6-Pad1)*%
X78000000Y-73400000D03*
%TD*%
%TO.P,J4,1*%
%TO.N,GND*%
X78150000Y-76645000D03*
%TD*%
%TO.P,J1,3*%
%TO.N,GND*%
%TA.AperFunction,ComponentPad*%
G36*
G01*
X37845000Y-118500000D02*
X36095000Y-118500000D01*
G75*
G02*
X35220000Y-117625000I0J875000D01*
G01*
X35220000Y-115875000D01*
G75*
G02*
X36095000Y-115000000I875000J0D01*
G01*
X37845000Y-115000000D01*
G75*
G02*
X38720000Y-115875000I0J-875000D01*
G01*
X38720000Y-117625000D01*
G75*
G02*
X37845000Y-118500000I-875000J0D01*
G01*
G37*
%TD.AperFunction*%
%TO.P,J1,2*%
%TA.AperFunction,ComponentPad*%
G36*
G01*
X33270000Y-121250000D02*
X31270000Y-121250000D01*
G75*
G02*
X30520000Y-120500000I0J750000D01*
G01*
X30520000Y-119000000D01*
G75*
G02*
X31270000Y-118250000I750000J0D01*
G01*
X33270000Y-118250000D01*
G75*
G02*
X34020000Y-119000000I0J-750000D01*
G01*
X34020000Y-120500000D01*
G75*
G02*
X33270000Y-121250000I-750000J0D01*
G01*
G37*
%TD.AperFunction*%
D15*
%TO.P,J1,1*%
%TO.N,/Interfaces/IN_PWR_SUPPLY*%
X32270000Y-113750000D03*
%TD*%
D16*
%TO.N,GND*%
X44097600Y-59584800D03*
X44097600Y-60854800D03*
D17*
X53902000Y-63407500D03*
X48822000Y-58327500D03*
X48758500Y-68487500D03*
D16*
X44097600Y-65934800D03*
X44097600Y-67204800D03*
D17*
X81900000Y-110100000D03*
X43712600Y-63400000D03*
X72217600Y-31125000D03*
D16*
X45890000Y-38982000D03*
X54500000Y-78000000D03*
D17*
X34000000Y-97500000D03*
X26800000Y-98300000D03*
X53600000Y-107700000D03*
X59200000Y-106800000D03*
X54400000Y-120700000D03*
X24800000Y-58500000D03*
D16*
X32290000Y-75500000D03*
D17*
X62190000Y-78140000D03*
D16*
X77500000Y-62500000D03*
X67000000Y-64500000D03*
X71100000Y-77800000D03*
X68072000Y-43180000D03*
X66040000Y-45720000D03*
X69989700Y-52290300D03*
D17*
%TO.N,VDD_5V*%
X59794800Y-61515200D03*
X60455200Y-61515200D03*
X63100000Y-81400000D03*
X63100000Y-82100000D03*
X63100000Y-80700000D03*
X63100000Y-80000000D03*
X61115600Y-61515200D03*
%TO.N,USB_DC*%
X60455200Y-62785200D03*
X61115600Y-62785200D03*
X59794800Y-62785200D03*
X24900000Y-54100000D03*
X48800000Y-51400000D03*
%TO.N,VDD_3V3A*%
X47552000Y-63344000D03*
X50219000Y-63344000D03*
X48796600Y-64664800D03*
%TO.N,VDD_3V3B*%
X46250000Y-66000000D03*
X63400000Y-37800000D03*
X50100000Y-78800000D03*
D16*
X66548000Y-41148000D03*
D17*
X69840000Y-58290000D03*
D16*
%TO.N,VDD_3V3AUX*%
X46280000Y-60280000D03*
D17*
X62000000Y-42187511D03*
%TO.N,SYS_5V*%
X51300000Y-65900000D03*
D16*
%TO.N,VDD_RTC*%
X51340000Y-60250000D03*
D17*
X70000000Y-26500000D03*
X59500000Y-31200000D03*
D16*
X67564000Y-45720000D03*
%TO.N,Net-(TP1-Pad1)*%
X35306000Y-28956000D03*
X54700000Y-60880000D03*
%TO.N,Net-(TP2-Pad1)*%
X72415137Y-90910000D03*
X54512460Y-68487538D03*
%TO.N,Net-(TP3-Pad1)*%
X72425137Y-91960848D03*
X52614996Y-69115000D03*
%TO.N,Net-(TP4-Pad1)*%
X72425137Y-92780000D03*
X43725000Y-69275000D03*
%TO.N,Net-(TP5-Pad1)*%
X42490000Y-60870000D03*
X34036000Y-28956000D03*
%TO.N,Net-(TP6-Pad1)*%
X42477460Y-59620000D03*
X32258000Y-28956000D03*
D17*
%TO.N,Net-(TP7-Pad1)*%
X60455200Y-64004400D03*
X59794800Y-64004400D03*
X61115600Y-64004400D03*
D16*
%TO.N,/Sistem In Package/OSC_OUT*%
X47414000Y-29076000D03*
X48176000Y-32632000D03*
%TO.N,/Peripherals/SPI0_D1*%
X29200000Y-57900000D03*
%TO.N,/Peripherals/SPI0_D0*%
X30699992Y-57900000D03*
%TO.N,/Peripherals/UART0_TX*%
X34800000Y-61300000D03*
%TO.N,/Peripherals/SPI0_SCLK*%
X30022748Y-57900000D03*
%TO.N,/Peripherals/UART0_RX*%
X34100000Y-61300000D03*
%TO.N,/Peripherals/SPI0_CS0*%
X28300000Y-57900000D03*
%TO.N,/Sistem In Package/AIN51.8V*%
X41280000Y-63500000D03*
%TO.N,/Sistem In Package/AIN61.8V*%
X41250000Y-62250000D03*
%TO.N,/Interfaces/MMC0_DAT2*%
X32290000Y-79340000D03*
X41120000Y-53410000D03*
%TO.N,/Interfaces/MMC0_CD*%
X41190000Y-55810000D03*
X32290000Y-72500000D03*
%TO.N,/Interfaces/MMC0_CMD*%
X39890000Y-53360000D03*
X32290000Y-77420000D03*
%TO.N,/Interfaces/MMC0_CLK*%
X32300000Y-76390000D03*
X39910000Y-55850000D03*
%TO.N,/Interfaces/MMC0_DAT0*%
X32290000Y-74520000D03*
X38740000Y-54560000D03*
%TO.N,/Interfaces/MMC0_DAT1*%
X39940000Y-54560000D03*
X32290000Y-73609613D03*
D17*
%TO.N,/USB1_VBU*%
X53880000Y-55730000D03*
D16*
%TO.N,/Interfaces/MMC0_DAT3*%
X32290000Y-78320000D03*
X42490000Y-55810000D03*
%TO.N,Net-(J6-Pad1)*%
X71750000Y-66500000D03*
X70000000Y-62750000D03*
%TO.N,/I2C1_SDA*%
X39897460Y-60850000D03*
X68260000Y-61050000D03*
%TO.N,/I2C1_SCL*%
X41090000Y-60850000D03*
X66006721Y-62086700D03*
%TO.N,/GPIO_A8*%
X72710000Y-39380000D03*
X60710000Y-54130000D03*
%TO.N,/GPIO_A7*%
X72710000Y-41250000D03*
X60710000Y-54760000D03*
%TO.N,/GPIO_A5*%
X72710000Y-45630000D03*
X60710000Y-56290000D03*
%TO.N,Net-(TP8-Pad1)*%
X62030000Y-66950000D03*
X67930000Y-79970000D03*
%TO.N,Net-(TP9-Pad1)*%
X61120000Y-67000000D03*
X67930000Y-83410000D03*
%TO.N,/GPIO_A6*%
X72710000Y-43580000D03*
X60710000Y-55490002D03*
%TO.N,/GPIO_A4*%
X60710000Y-57220000D03*
%TD*%
D18*
%TO.N,GND*%
X69750000Y-66462500D02*
X68962500Y-66462500D01*
X68962500Y-66462500D02*
X67000000Y-64500000D01*
X71050000Y-77800000D02*
X71100000Y-77800000D01*
X69750000Y-76500000D02*
X71050000Y-77800000D01*
X77280000Y-56960000D02*
X77310000Y-56990000D01*
X68520000Y-53150000D02*
X69230000Y-53150000D01*
X69989700Y-52390300D02*
X69989700Y-52290300D01*
X69230000Y-53150000D02*
X69989700Y-52390300D01*
X77135000Y-62135000D02*
X77500000Y-62500000D01*
X77135000Y-57025000D02*
X77135000Y-62135000D01*
X79820000Y-62500000D02*
X77500000Y-62500000D01*
X81240000Y-60540000D02*
X81240000Y-61080000D01*
X81240000Y-61080000D02*
X79820000Y-62500000D01*
D19*
%TO.N,USB_DC*%
X58420000Y-61451052D02*
X59754148Y-62785200D01*
X58420000Y-54120000D02*
X58420000Y-61451052D01*
X59754148Y-62785200D02*
X61115600Y-62785200D01*
X48800000Y-51400000D02*
X55700000Y-51400000D01*
X55700000Y-51400000D02*
X58420000Y-54120000D01*
D18*
%TO.N,VDD_3V3B*%
X71990000Y-57220000D02*
X72185000Y-57025000D01*
D19*
X72185000Y-57025000D02*
X71105000Y-57025000D01*
X71105000Y-57025000D02*
X69840000Y-58290000D01*
D18*
%TO.N,Net-(TP1-Pad1)*%
X35306000Y-28956000D02*
X43556820Y-37206820D01*
X43556820Y-49736820D02*
X54700000Y-60880000D01*
X43556820Y-37206820D02*
X43556820Y-49736820D01*
%TO.N,Net-(TP2-Pad1)*%
X72405137Y-90930000D02*
X72425137Y-90910000D01*
X55003599Y-68978677D02*
X54512460Y-68487538D01*
X55003599Y-74793033D02*
X55003599Y-68978677D01*
X72415137Y-90910000D02*
X71120566Y-90910000D01*
X71120566Y-90910000D02*
X55003599Y-74793033D01*
%TO.N,Net-(TP3-Pad1)*%
X62990000Y-83420000D02*
X63030000Y-83420000D01*
X71530848Y-91960848D02*
X72425137Y-91960848D01*
X62990000Y-83420000D02*
X71530848Y-91960848D01*
X62990000Y-83420000D02*
X54694810Y-75124810D01*
X54694810Y-71194814D02*
X52614996Y-69115000D01*
X54694810Y-75124810D02*
X54694810Y-71194814D01*
%TO.N,Net-(TP4-Pad1)*%
X67230000Y-92780000D02*
X43725000Y-69275000D01*
X72425137Y-92780000D02*
X67230000Y-92780000D01*
%TO.N,Net-(TP5-Pad1)*%
X43252010Y-60107990D02*
X43252010Y-41320944D01*
X42490000Y-60870000D02*
X43252010Y-60107990D01*
X43252010Y-41320944D02*
X36104810Y-34173744D01*
X36104810Y-34173744D02*
X36104810Y-31900000D01*
X36104810Y-31900000D02*
X36104810Y-31024810D01*
X36104810Y-31024810D02*
X34036000Y-28956000D01*
%TO.N,Net-(TP6-Pad1)*%
X42947201Y-59150259D02*
X42947201Y-58752799D01*
X42477460Y-59620000D02*
X42947201Y-59150259D01*
X42947201Y-58752799D02*
X42947201Y-41447201D01*
X42947201Y-41447201D02*
X35800000Y-34300000D01*
X35800000Y-34300000D02*
X35800000Y-31900000D01*
X35800000Y-31900000D02*
X35800000Y-31482000D01*
X35800000Y-31482000D02*
X33274000Y-28956000D01*
X33274000Y-28956000D02*
X32258000Y-28956000D01*
%TO.N,/Sistem In Package/OSC_OUT*%
X48176000Y-29838000D02*
X48176000Y-32632000D01*
X47414000Y-29076000D02*
X48176000Y-29838000D01*
%TO.N,/Peripherals/SPI0_D1*%
X33700000Y-85500000D02*
X33750000Y-85500000D01*
X29200000Y-57900000D02*
X29200000Y-81000000D01*
X29200000Y-81000000D02*
X33700000Y-85500000D01*
%TO.N,/Peripherals/SPI0_D0*%
X30471393Y-58128599D02*
X30471393Y-81171393D01*
X30699992Y-57900000D02*
X30471393Y-58128599D01*
X30471393Y-81171393D02*
X32700000Y-83400000D01*
X33650000Y-83400000D02*
X35750000Y-85500000D01*
X32700000Y-83400000D02*
X33650000Y-83400000D01*
%TO.N,/Peripherals/UART0_TX*%
X34800000Y-82550000D02*
X37750000Y-85500000D01*
X34800000Y-61300000D02*
X34800000Y-82550000D01*
%TO.N,/Peripherals/SPI0_SCLK*%
X32954809Y-83704809D02*
X34750000Y-85500000D01*
X30022748Y-81322748D02*
X32404809Y-83704809D01*
X32404809Y-83704809D02*
X32954809Y-83704809D01*
X30022748Y-57900000D02*
X30022748Y-81322748D01*
%TO.N,/Peripherals/UART0_RX*%
X34100000Y-82850000D02*
X36750000Y-85500000D01*
X34100000Y-61300000D02*
X34100000Y-82850000D01*
%TO.N,/Peripherals/SPI0_CS0*%
X28300000Y-81050000D02*
X32750000Y-85500000D01*
X28300000Y-57900000D02*
X28300000Y-81050000D01*
%TO.N,/Sistem In Package/AIN51.8V*%
X41975190Y-62804810D02*
X41280000Y-63500000D01*
X69750000Y-70712500D02*
X69462500Y-70712500D01*
X58677488Y-65919620D02*
X56873744Y-64115876D01*
X56873744Y-64115876D02*
X56873744Y-62804810D01*
X64669620Y-65919620D02*
X58677488Y-65919620D01*
X56873744Y-62804810D02*
X41975190Y-62804810D01*
X67750000Y-69000000D02*
X64669620Y-65919620D01*
X69462500Y-70712500D02*
X67750000Y-69000000D01*
X67500000Y-72675000D02*
X69750000Y-74925000D01*
X67250000Y-68500000D02*
X67500000Y-68750000D01*
X67500000Y-68750000D02*
X67500000Y-72675000D01*
%TO.N,/Sistem In Package/AIN61.8V*%
X67327310Y-65614810D02*
X69750000Y-68037500D01*
X41500000Y-62500000D02*
X57000000Y-62500000D01*
X57000000Y-62500000D02*
X57395190Y-62895190D01*
X41250000Y-62250000D02*
X41500000Y-62500000D01*
X57395190Y-62895190D02*
X57395190Y-64206256D01*
X57395190Y-64206256D02*
X58803744Y-65614810D01*
X58803744Y-65614810D02*
X67327310Y-65614810D01*
X70862500Y-68037500D02*
X73500000Y-70675000D01*
X69750000Y-68037500D02*
X70862500Y-68037500D01*
%TO.N,/Interfaces/MMC0_DAT2*%
X37896802Y-52690000D02*
X40400000Y-52690000D01*
X32290000Y-79340000D02*
X30802630Y-77852630D01*
X40400000Y-52690000D02*
X41120000Y-53410000D01*
X30802630Y-59784172D02*
X37896802Y-52690000D01*
X30802630Y-77852630D02*
X30802630Y-59784172D01*
%TO.N,/Interfaces/MMC0_CD*%
X38335190Y-55334810D02*
X38395190Y-55334810D01*
X38335190Y-55334810D02*
X40725190Y-55334810D01*
X40725190Y-55334810D02*
X41190000Y-55799620D01*
X32290000Y-61380000D02*
X32290000Y-72176711D01*
X32290000Y-72176711D02*
X32290000Y-72500000D01*
X38335190Y-55334810D02*
X32290000Y-61380000D01*
%TO.N,/Interfaces/MMC0_CMD*%
X37797868Y-53220000D02*
X37800000Y-53220000D01*
X39550000Y-53010000D02*
X39640000Y-53100000D01*
X37797868Y-53220000D02*
X38007868Y-53010000D01*
X38007868Y-53010000D02*
X39550000Y-53010000D01*
X39640000Y-53110000D02*
X39890000Y-53360000D01*
X39640000Y-53100000D02*
X39640000Y-53110000D01*
X32290000Y-77420000D02*
X31107441Y-76237441D01*
X31107441Y-59910427D02*
X37797868Y-53220000D01*
X31107441Y-76237441D02*
X31107441Y-59910427D01*
%TO.N,/Interfaces/MMC0_CLK*%
X32747219Y-61362781D02*
X38260000Y-55850000D01*
X32747219Y-75942781D02*
X32747219Y-61362781D01*
X39586711Y-55850000D02*
X39910000Y-55850000D01*
X38260000Y-55850000D02*
X39586711Y-55850000D01*
X32300000Y-76390000D02*
X32747219Y-75942781D01*
%TO.N,/Interfaces/MMC0_DAT0*%
X32290000Y-74520000D02*
X31412252Y-73642252D01*
X36988934Y-54460000D02*
X38740000Y-54460000D01*
X31412252Y-60036682D02*
X36988934Y-54460000D01*
X31412252Y-73642252D02*
X31412252Y-60036682D01*
%TO.N,/Interfaces/MMC0_DAT1*%
X39470000Y-55030000D02*
X36850000Y-55030000D01*
X31717063Y-60162937D02*
X31717063Y-73036676D01*
X39940000Y-54560000D02*
X39470000Y-55030000D01*
X36850000Y-55030000D02*
X31717063Y-60162937D01*
X31717063Y-73036676D02*
X32290000Y-73609613D01*
%TO.N,/Interfaces/MMC0_DAT3*%
X41500000Y-56800000D02*
X42261401Y-56038599D01*
X42261401Y-56038599D02*
X42490000Y-55810000D01*
X33195189Y-61454810D02*
X37850000Y-56800000D01*
X32290000Y-78320000D02*
X33195189Y-77414811D01*
X33195189Y-77414811D02*
X33195189Y-61454810D01*
X37850000Y-56800000D02*
X41500000Y-56800000D01*
%TO.N,Net-(J6-Pad1)*%
X71750000Y-66500000D02*
X70000000Y-64750000D01*
X70000000Y-64750000D02*
X70000000Y-62750000D01*
%TO.N,/I2C1_SDA*%
X67690000Y-61050000D02*
X68260000Y-61050000D01*
X58930000Y-65310000D02*
X63430000Y-65310000D01*
X40354661Y-61307201D02*
X41752793Y-61307201D01*
X57700000Y-64080000D02*
X58930000Y-65310000D01*
X41752793Y-61307201D02*
X42585592Y-62140000D01*
X39897460Y-60850000D02*
X40354661Y-61307201D01*
X42585592Y-62140000D02*
X57140000Y-62140000D01*
X63430000Y-65310000D02*
X67690000Y-61050000D01*
X57140000Y-62140000D02*
X57700000Y-62700000D01*
X57700000Y-62700000D02*
X57700000Y-64080000D01*
%TO.N,/I2C1_SCL*%
X58960999Y-63470999D02*
X64622422Y-63470999D01*
X57325190Y-61835190D02*
X58960999Y-63470999D01*
X42711848Y-61835190D02*
X57325190Y-61835190D01*
X41090000Y-60850000D02*
X41726658Y-60850000D01*
X64622422Y-63470999D02*
X66006721Y-62086700D01*
X41726658Y-60850000D02*
X42711848Y-61835190D01*
%TO.N,/GPIO_A8*%
X60710000Y-54130000D02*
X68021201Y-47828799D01*
X68021201Y-47828799D02*
X68021201Y-44038799D01*
X68021201Y-44038799D02*
X72680000Y-39380000D01*
X72680000Y-39380000D02*
X72710000Y-39380000D01*
%TO.N,/GPIO_A7*%
X60730000Y-54760000D02*
X68340000Y-48340000D01*
X68340000Y-48340000D02*
X68340000Y-45620000D01*
X68340000Y-45620000D02*
X72710000Y-41250000D01*
%TO.N,/GPIO_A5*%
X72710000Y-45630000D02*
X62050000Y-56290000D01*
X62050000Y-56290000D02*
X60760000Y-56290000D01*
%TO.N,Net-(TP8-Pad1)*%
X63790000Y-68710000D02*
X62030000Y-66950000D01*
X65804810Y-70724810D02*
X63790000Y-68710000D01*
X67930000Y-79970000D02*
X65804810Y-77844810D01*
X65804810Y-77844810D02*
X65804810Y-70724810D01*
%TO.N,Net-(TP9-Pad1)*%
X67930000Y-83410000D02*
X65500000Y-80980000D01*
X65500000Y-71380000D02*
X61120000Y-67000000D01*
X65500000Y-80980000D02*
X65500000Y-71380000D01*
%TO.N,/GPIO_A6*%
X72710000Y-43580000D02*
X72710000Y-44573289D01*
X61793287Y-55490002D02*
X60800000Y-55490002D01*
X72710000Y-44573289D02*
X61793287Y-55490002D01*
%TO.N,Net-(C1-Pad1)*%
X72095000Y-54575000D02*
X72185000Y-54485000D01*
X68520000Y-54575000D02*
X72095000Y-54575000D01*
%TO.N,Net-(C11-Pad1)*%
X81240000Y-57730000D02*
X81240000Y-59115000D01*
X77135000Y-55755000D02*
X79265000Y-55755000D01*
X79265000Y-55755000D02*
X81240000Y-57730000D01*
%TO.N,Net-(J2-Pad1)*%
X32750000Y-88470000D02*
X32750000Y-86500000D01*
X76160000Y-53215000D02*
X75370000Y-54005000D01*
X77135000Y-53215000D02*
X76160000Y-53215000D01*
X75370000Y-54005000D02*
X75370000Y-93050000D01*
X75370000Y-93050000D02*
X73660000Y-94760000D01*
X73660000Y-94760000D02*
X39040000Y-94760000D01*
X39040000Y-94760000D02*
X32750000Y-88470000D01*
%TO.N,/GPIO_A4*%
X60710000Y-57220000D02*
X66350000Y-57220000D01*
X71880190Y-55881256D02*
X71969467Y-55970533D01*
X66350000Y-57220000D02*
X67688744Y-55881256D01*
X67688744Y-55881256D02*
X71880190Y-55881256D01*
X72185000Y-55755000D02*
X73160000Y-55755000D01*
%TO.N,Net-(U8-Pad2)*%
X72185000Y-53215000D02*
X72185000Y-51985000D01*
X72185000Y-51985000D02*
X73319190Y-50850810D01*
X73319190Y-50850810D02*
X78430810Y-50850810D01*
X78430810Y-50850810D02*
X79950000Y-52370000D01*
X79950000Y-52370000D02*
X79950000Y-53750000D01*
X79215000Y-54485000D02*
X77135000Y-54485000D01*
X79950000Y-53750000D02*
X79215000Y-54485000D01*
%TD*%
M02*
