M48
; DRILL file {KiCad 5.1.6-c6e7f7d~86~ubuntu18.04.1} date Sun Aug  9 14:30:49 2020
; FORMAT={-:-/ absolute / inch / decimal}
; #@! TF.CreationDate,2020-08-09T14:30:49-03:00
; #@! TF.GenerationSoftware,Kicad,Pcbnew,5.1.6-c6e7f7d~86~ubuntu18.04.1
; #@! TF.FileFunction,Plated,1,4,PTH
FMAT,2
INCH
T1C0.0100
T2C0.0120
T3C0.0197
T4C0.0362
T5C0.0394
T6C0.0906
%
G90
G05
T1
X1.1142Y-2.2795
X1.1496Y-2.2795
X1.182Y-2.2795
X1.2087Y-2.2795
X1.27Y-1.14
X1.2713Y-2.8717
X1.2713Y-2.8957
X1.2713Y-2.9339
X1.2713Y-2.9724
X1.2713Y-3.048
X1.2713Y-3.0835
X1.2713Y-3.1236
X1.2717Y-3.0075
X1.34Y-1.14
X1.3425Y-2.4134
X1.3701Y-2.4134
X1.39Y-1.14
X1.5252Y-2.148
X1.5705Y-2.1008
X1.5708Y-2.3957
X1.5713Y-2.1988
X1.5724Y-2.148
X1.6177Y-2.3957
X1.6189Y-2.1028
X1.6217Y-2.1972
X1.624Y-2.4508
X1.6252Y-2.5
X1.6723Y-2.3472
X1.6728Y-2.1972
X1.6728Y-2.3965
X1.7232Y-2.7441
X1.7361Y-2.3459
X1.7361Y-2.3959
X1.7361Y-2.5959
X1.7361Y-2.6459
X1.8067Y-1.5347
X1.822Y-2.3732
X1.8667Y-1.1447
X1.8967Y-1.2847
X2.0213Y-2.372
X2.1193Y-2.7508
X2.1457Y-3.0709
X2.1614Y-2.3969
X2.1709Y-2.7496
X2.3902Y-2.1311
X2.3902Y-2.1559
X2.3902Y-2.1846
X2.3902Y-2.2161
X2.3902Y-2.2528
X2.4063Y-2.6378
X2.4421Y-2.6358
X2.5987Y-2.4444
X2.6Y-1.8
X2.62Y-1.62
X2.6378Y-2.5394
X2.66Y-1.8
X2.6744Y-3.1484
X2.6744Y-3.2839
X2.68Y-1.7
X2.6874Y-2.4035
X2.7555Y-2.0587
X2.7559Y-2.4705
X2.7992Y-3.063
X2.8248Y-2.6181
X2.8514Y-3.5984
X2.8514Y-3.6205
X2.8514Y-3.6528
X2.8626Y-1.5504
X2.8626Y-1.624
X2.8626Y-1.7157
X2.8626Y-1.7965
X3.0512Y-2.4606
T2
X0.9764Y-2.3031
X0.9803Y-2.1299
X1.0472Y-1.1693
X1.0551Y-3.8701
X1.3386Y-3.8386
X1.721Y-2.4961
X1.8209Y-2.5984
X1.8721Y-2.4939
X1.9196Y-2.6964
X1.9211Y-2.5459
X1.9213Y-2.0236
X1.9221Y-2.2964
X1.9724Y-3.1024
X1.9771Y-2.4939
X2.0197Y-2.5945
X2.1102Y-4.2402
X2.1213Y-2.1941
X2.1221Y-2.4964
X2.1417Y-4.752
X2.3307Y-4.2047
X2.3425Y-1.2283
X2.3541Y-2.4219
X2.3541Y-2.4719
X2.3541Y-2.5199
X2.3801Y-2.4219
X2.3801Y-2.4719
X2.3801Y-2.5199
X2.4061Y-2.4219
X2.4061Y-2.4719
X2.4061Y-2.5199
X2.4409Y-1.6609
X2.4484Y-3.0764
X2.4843Y-3.1496
X2.4843Y-3.1772
X2.4843Y-3.2047
X2.4843Y-3.2323
X2.4961Y-1.4882
X2.7496Y-2.2949
X2.7559Y-1.0433
X2.8432Y-1.2254
X3.2244Y-4.3346
T3
X1.2894Y-3.3661
X1.2894Y-3.4055
X1.3287Y-3.3661
X1.3287Y-3.4055
X1.3681Y-3.3661
X1.3681Y-3.4055
X1.4075Y-3.3661
X1.4075Y-3.4055
X1.4469Y-3.3661
X1.4469Y-3.4055
X1.4862Y-3.3661
X1.4862Y-3.4055
X1.5256Y-3.3661
X1.5256Y-3.4055
X1.565Y-3.3661
X1.565Y-3.4055
X3.0768Y-3.0175
X3.0709Y-2.8898
T4
X1.1102Y-1.4961
X1.1102Y-1.5945
X1.1102Y-1.6732
X1.1102Y-1.7717
T6
X1.0035Y-1.3752
X1.0035Y-1.8925
T5
G00X1.2323Y-4.2953
M15
G01X1.311Y-4.2953
M16
G05
G00X1.2323Y-4.5315
M15
G01X1.311Y-4.5315
M16
G05
G00X1.4567Y-4.4528
M15
G01X1.4567Y-4.374
M16
G05
T0
M30
