%TF.GenerationSoftware,KiCad,Pcbnew,5.1.6-c6e7f7d~86~ubuntu18.04.1*%
%TF.CreationDate,2020-08-04T21:49:05-03:00*%
%TF.ProjectId,pcbproyecto,70636270-726f-4796-9563-746f2e6b6963,rev?*%
%TF.SameCoordinates,Original*%
%TF.FileFunction,Copper,L1,Top*%
%TF.FilePolarity,Positive*%
%FSLAX46Y46*%
G04 Gerber Fmt 4.6, Leading zero omitted, Abs format (unit mm)*
G04 Created by KiCad (PCBNEW 5.1.6-c6e7f7d~86~ubuntu18.04.1) date 2020-08-04 21:49:05*
%MOMM*%
%LPD*%
G01*
G04 APERTURE LIST*
%TA.AperFunction,SMDPad,CuDef*%
%ADD10R,1.000000X1.000000*%
%TD*%
%TA.AperFunction,SMDPad,CuDef*%
%ADD11R,0.899160X1.198880*%
%TD*%
%TA.AperFunction,SMDPad,CuDef*%
%ADD12C,0.100000*%
%TD*%
%TA.AperFunction,Conductor*%
%ADD13C,0.100000*%
%TD*%
%TA.AperFunction,SMDPad,CuDef*%
%ADD14R,0.398780X0.899160*%
%TD*%
%TA.AperFunction,SMDPad,CuDef*%
%ADD15R,1.680000X1.880000*%
%TD*%
%TA.AperFunction,ComponentPad*%
%ADD16O,0.850000X0.850000*%
%TD*%
%TA.AperFunction,ComponentPad*%
%ADD17R,0.850000X0.850000*%
%TD*%
%TA.AperFunction,SMDPad,CuDef*%
%ADD18C,1.000000*%
%TD*%
%TA.AperFunction,SMDPad,CuDef*%
%ADD19R,1.399540X1.597660*%
%TD*%
%TA.AperFunction,SMDPad,CuDef*%
%ADD20R,2.199640X1.198880*%
%TD*%
%TA.AperFunction,SMDPad,CuDef*%
%ADD21R,1.597660X1.198880*%
%TD*%
%TA.AperFunction,SMDPad,CuDef*%
%ADD22R,1.597660X0.698500*%
%TD*%
%TA.AperFunction,SMDPad,CuDef*%
%ADD23R,0.497840X0.497840*%
%TD*%
%TA.AperFunction,SMDPad,CuDef*%
%ADD24R,0.497840X0.299720*%
%TD*%
%TA.AperFunction,SMDPad,CuDef*%
%ADD25R,1.400000X0.400000*%
%TD*%
%TA.AperFunction,SMDPad,CuDef*%
%ADD26R,1.900000X2.300000*%
%TD*%
%TA.AperFunction,SMDPad,CuDef*%
%ADD27R,1.900000X1.800000*%
%TD*%
%TA.AperFunction,ComponentPad*%
%ADD28R,3.500000X3.500000*%
%TD*%
%TA.AperFunction,SMDPad,CuDef*%
%ADD29R,0.299720X0.497840*%
%TD*%
%TA.AperFunction,ComponentPad*%
%ADD30C,1.524000*%
%TD*%
%TA.AperFunction,ComponentPad*%
%ADD31R,1.524000X1.524000*%
%TD*%
%TA.AperFunction,ComponentPad*%
%ADD32C,3.500000*%
%TD*%
%TA.AperFunction,SMDPad,CuDef*%
%ADD33R,10.800000X9.400000*%
%TD*%
%TA.AperFunction,SMDPad,CuDef*%
%ADD34R,1.100000X4.600000*%
%TD*%
%TA.AperFunction,SMDPad,CuDef*%
%ADD35R,1.500000X2.000000*%
%TD*%
%TA.AperFunction,SMDPad,CuDef*%
%ADD36R,3.800000X2.000000*%
%TD*%
%TA.AperFunction,SMDPad,CuDef*%
%ADD37C,0.497840*%
%TD*%
%TA.AperFunction,SMDPad,CuDef*%
%ADD38R,0.900000X0.800000*%
%TD*%
%TA.AperFunction,SMDPad,CuDef*%
%ADD39R,1.700000X2.400000*%
%TD*%
%TA.AperFunction,SMDPad,CuDef*%
%ADD40R,3.300000X2.500000*%
%TD*%
%TA.AperFunction,SMDPad,CuDef*%
%ADD41R,3.150000X1.960000*%
%TD*%
%TA.AperFunction,SMDPad,CuDef*%
%ADD42R,5.400000X2.900000*%
%TD*%
%TA.AperFunction,ViaPad*%
%ADD43C,0.457200*%
%TD*%
%TA.AperFunction,ViaPad*%
%ADD44C,0.609600*%
%TD*%
%TA.AperFunction,Conductor*%
%ADD45C,0.381000*%
%TD*%
%TA.AperFunction,Conductor*%
%ADD46C,0.152400*%
%TD*%
%TA.AperFunction,Conductor*%
%ADD47C,0.228600*%
%TD*%
%TA.AperFunction,Conductor*%
%ADD48C,0.254000*%
%TD*%
G04 APERTURE END LIST*
D10*
%TO.P,TP9,1*%
%TO.N,Net-(TP9-Pad1)*%
X70250000Y-84000000D03*
%TD*%
%TO.P,TP8,1*%
%TO.N,Net-(TP8-Pad1)*%
X70250000Y-80750000D03*
%TD*%
D11*
%TO.P,RST1,4*%
%TO.N,Net-(IC1-Pad4)*%
X73926700Y-51528980D03*
%TO.P,RST1,3*%
X73926700Y-47531020D03*
%TO.P,RST1,2*%
%TO.N,GND*%
X75425300Y-51528980D03*
%TO.P,RST1,1*%
X75425300Y-47531020D03*
%TD*%
%TO.P,R16,2*%
%TO.N,GND*%
%TA.AperFunction,SMDPad,CuDef*%
G36*
G01*
X77845500Y-45214250D02*
X77845500Y-44701750D01*
G75*
G02*
X78064250Y-44483000I218750J0D01*
G01*
X78501750Y-44483000D01*
G75*
G02*
X78720500Y-44701750I0J-218750D01*
G01*
X78720500Y-45214250D01*
G75*
G02*
X78501750Y-45433000I-218750J0D01*
G01*
X78064250Y-45433000D01*
G75*
G02*
X77845500Y-45214250I0J218750D01*
G01*
G37*
%TD.AperFunction*%
%TO.P,R16,1*%
%TO.N,Net-(D5-Pad1)*%
%TA.AperFunction,SMDPad,CuDef*%
G36*
G01*
X76270500Y-45214250D02*
X76270500Y-44701750D01*
G75*
G02*
X76489250Y-44483000I218750J0D01*
G01*
X76926750Y-44483000D01*
G75*
G02*
X77145500Y-44701750I0J-218750D01*
G01*
X77145500Y-45214250D01*
G75*
G02*
X76926750Y-45433000I-218750J0D01*
G01*
X76489250Y-45433000D01*
G75*
G02*
X76270500Y-45214250I0J218750D01*
G01*
G37*
%TD.AperFunction*%
%TD*%
%TO.P,R15,2*%
%TO.N,GND*%
%TA.AperFunction,SMDPad,CuDef*%
G36*
G01*
X77845500Y-43182250D02*
X77845500Y-42669750D01*
G75*
G02*
X78064250Y-42451000I218750J0D01*
G01*
X78501750Y-42451000D01*
G75*
G02*
X78720500Y-42669750I0J-218750D01*
G01*
X78720500Y-43182250D01*
G75*
G02*
X78501750Y-43401000I-218750J0D01*
G01*
X78064250Y-43401000D01*
G75*
G02*
X77845500Y-43182250I0J218750D01*
G01*
G37*
%TD.AperFunction*%
%TO.P,R15,1*%
%TO.N,Net-(D4-Pad1)*%
%TA.AperFunction,SMDPad,CuDef*%
G36*
G01*
X76270500Y-43182250D02*
X76270500Y-42669750D01*
G75*
G02*
X76489250Y-42451000I218750J0D01*
G01*
X76926750Y-42451000D01*
G75*
G02*
X77145500Y-42669750I0J-218750D01*
G01*
X77145500Y-43182250D01*
G75*
G02*
X76926750Y-43401000I-218750J0D01*
G01*
X76489250Y-43401000D01*
G75*
G02*
X76270500Y-43182250I0J218750D01*
G01*
G37*
%TD.AperFunction*%
%TD*%
%TO.P,R14,2*%
%TO.N,GND*%
%TA.AperFunction,SMDPad,CuDef*%
G36*
G01*
X77820000Y-41150250D02*
X77820000Y-40637750D01*
G75*
G02*
X78038750Y-40419000I218750J0D01*
G01*
X78476250Y-40419000D01*
G75*
G02*
X78695000Y-40637750I0J-218750D01*
G01*
X78695000Y-41150250D01*
G75*
G02*
X78476250Y-41369000I-218750J0D01*
G01*
X78038750Y-41369000D01*
G75*
G02*
X77820000Y-41150250I0J218750D01*
G01*
G37*
%TD.AperFunction*%
%TO.P,R14,1*%
%TO.N,Net-(D3-Pad1)*%
%TA.AperFunction,SMDPad,CuDef*%
G36*
G01*
X76245000Y-41150250D02*
X76245000Y-40637750D01*
G75*
G02*
X76463750Y-40419000I218750J0D01*
G01*
X76901250Y-40419000D01*
G75*
G02*
X77120000Y-40637750I0J-218750D01*
G01*
X77120000Y-41150250D01*
G75*
G02*
X76901250Y-41369000I-218750J0D01*
G01*
X76463750Y-41369000D01*
G75*
G02*
X76245000Y-41150250I0J218750D01*
G01*
G37*
%TD.AperFunction*%
%TD*%
%TO.P,R13,2*%
%TO.N,GND*%
%TA.AperFunction,SMDPad,CuDef*%
G36*
G01*
X77845500Y-39118250D02*
X77845500Y-38605750D01*
G75*
G02*
X78064250Y-38387000I218750J0D01*
G01*
X78501750Y-38387000D01*
G75*
G02*
X78720500Y-38605750I0J-218750D01*
G01*
X78720500Y-39118250D01*
G75*
G02*
X78501750Y-39337000I-218750J0D01*
G01*
X78064250Y-39337000D01*
G75*
G02*
X77845500Y-39118250I0J218750D01*
G01*
G37*
%TD.AperFunction*%
%TO.P,R13,1*%
%TO.N,Net-(D2-Pad1)*%
%TA.AperFunction,SMDPad,CuDef*%
G36*
G01*
X76270500Y-39118250D02*
X76270500Y-38605750D01*
G75*
G02*
X76489250Y-38387000I218750J0D01*
G01*
X76926750Y-38387000D01*
G75*
G02*
X77145500Y-38605750I0J-218750D01*
G01*
X77145500Y-39118250D01*
G75*
G02*
X76926750Y-39337000I-218750J0D01*
G01*
X76489250Y-39337000D01*
G75*
G02*
X76270500Y-39118250I0J218750D01*
G01*
G37*
%TD.AperFunction*%
%TD*%
%TO.P,D5,2*%
%TO.N,/GPIO_A5*%
%TA.AperFunction,SMDPad,CuDef*%
G36*
G01*
X74398000Y-44858000D02*
X74398000Y-45058000D01*
G75*
G02*
X74298000Y-45158000I-100000J0D01*
G01*
X74038000Y-45158000D01*
G75*
G02*
X73938000Y-45058000I0J100000D01*
G01*
X73938000Y-44858000D01*
G75*
G02*
X74038000Y-44758000I100000J0D01*
G01*
X74298000Y-44758000D01*
G75*
G02*
X74398000Y-44858000I0J-100000D01*
G01*
G37*
%TD.AperFunction*%
%TO.P,D5,1*%
%TO.N,Net-(D5-Pad1)*%
%TA.AperFunction,SMDPad,CuDef*%
G36*
G01*
X75038000Y-44858000D02*
X75038000Y-45058000D01*
G75*
G02*
X74938000Y-45158000I-100000J0D01*
G01*
X74678000Y-45158000D01*
G75*
G02*
X74578000Y-45058000I0J100000D01*
G01*
X74578000Y-44858000D01*
G75*
G02*
X74678000Y-44758000I100000J0D01*
G01*
X74938000Y-44758000D01*
G75*
G02*
X75038000Y-44858000I0J-100000D01*
G01*
G37*
%TD.AperFunction*%
%TD*%
%TO.P,D4,2*%
%TO.N,/GPIO_A6*%
%TA.AperFunction,SMDPad,CuDef*%
G36*
G01*
X74266000Y-42826000D02*
X74266000Y-43026000D01*
G75*
G02*
X74166000Y-43126000I-100000J0D01*
G01*
X73906000Y-43126000D01*
G75*
G02*
X73806000Y-43026000I0J100000D01*
G01*
X73806000Y-42826000D01*
G75*
G02*
X73906000Y-42726000I100000J0D01*
G01*
X74166000Y-42726000D01*
G75*
G02*
X74266000Y-42826000I0J-100000D01*
G01*
G37*
%TD.AperFunction*%
%TO.P,D4,1*%
%TO.N,Net-(D4-Pad1)*%
%TA.AperFunction,SMDPad,CuDef*%
G36*
G01*
X74906000Y-42826000D02*
X74906000Y-43026000D01*
G75*
G02*
X74806000Y-43126000I-100000J0D01*
G01*
X74546000Y-43126000D01*
G75*
G02*
X74446000Y-43026000I0J100000D01*
G01*
X74446000Y-42826000D01*
G75*
G02*
X74546000Y-42726000I100000J0D01*
G01*
X74806000Y-42726000D01*
G75*
G02*
X74906000Y-42826000I0J-100000D01*
G01*
G37*
%TD.AperFunction*%
%TD*%
%TO.P,D3,2*%
%TO.N,/GPIO_A7*%
%TA.AperFunction,SMDPad,CuDef*%
G36*
G01*
X74332000Y-40540000D02*
X74332000Y-40740000D01*
G75*
G02*
X74232000Y-40840000I-100000J0D01*
G01*
X73972000Y-40840000D01*
G75*
G02*
X73872000Y-40740000I0J100000D01*
G01*
X73872000Y-40540000D01*
G75*
G02*
X73972000Y-40440000I100000J0D01*
G01*
X74232000Y-40440000D01*
G75*
G02*
X74332000Y-40540000I0J-100000D01*
G01*
G37*
%TD.AperFunction*%
%TO.P,D3,1*%
%TO.N,Net-(D3-Pad1)*%
%TA.AperFunction,SMDPad,CuDef*%
G36*
G01*
X74972000Y-40540000D02*
X74972000Y-40740000D01*
G75*
G02*
X74872000Y-40840000I-100000J0D01*
G01*
X74612000Y-40840000D01*
G75*
G02*
X74512000Y-40740000I0J100000D01*
G01*
X74512000Y-40540000D01*
G75*
G02*
X74612000Y-40440000I100000J0D01*
G01*
X74872000Y-40440000D01*
G75*
G02*
X74972000Y-40540000I0J-100000D01*
G01*
G37*
%TD.AperFunction*%
%TD*%
%TO.P,D2,2*%
%TO.N,/GPIO_A8*%
%TA.AperFunction,SMDPad,CuDef*%
G36*
G01*
X74266000Y-38762000D02*
X74266000Y-38962000D01*
G75*
G02*
X74166000Y-39062000I-100000J0D01*
G01*
X73906000Y-39062000D01*
G75*
G02*
X73806000Y-38962000I0J100000D01*
G01*
X73806000Y-38762000D01*
G75*
G02*
X73906000Y-38662000I100000J0D01*
G01*
X74166000Y-38662000D01*
G75*
G02*
X74266000Y-38762000I0J-100000D01*
G01*
G37*
%TD.AperFunction*%
%TO.P,D2,1*%
%TO.N,Net-(D2-Pad1)*%
%TA.AperFunction,SMDPad,CuDef*%
G36*
G01*
X74906000Y-38762000D02*
X74906000Y-38962000D01*
G75*
G02*
X74806000Y-39062000I-100000J0D01*
G01*
X74546000Y-39062000D01*
G75*
G02*
X74446000Y-38962000I0J100000D01*
G01*
X74446000Y-38762000D01*
G75*
G02*
X74546000Y-38662000I100000J0D01*
G01*
X74806000Y-38662000D01*
G75*
G02*
X74906000Y-38762000I0J-100000D01*
G01*
G37*
%TD.AperFunction*%
%TD*%
%TA.AperFunction,SMDPad,CuDef*%
D12*
%TO.P,U7,5*%
%TO.N,GND*%
G36*
X65962000Y-43407122D02*
G01*
X65551878Y-42997000D01*
X65962000Y-42586878D01*
X66372122Y-42997000D01*
X65962000Y-43407122D01*
G37*
%TD.AperFunction*%
%TA.AperFunction,Conductor*%
D13*
%TD*%
%TO.N,Net-(IC1-Pad4)*%
%TO.C,U7*%
G36*
X65762000Y-43376289D02*
G01*
X65762000Y-43477000D01*
X65302000Y-43477000D01*
X65302000Y-43167000D01*
X65552711Y-43167000D01*
X65762000Y-43376289D01*
G37*
%TD.AperFunction*%
%TA.AperFunction,Conductor*%
%TO.N,GND*%
%TO.C,U7*%
G36*
X66622000Y-43477000D02*
G01*
X66162000Y-43477000D01*
X66162000Y-43376289D01*
X66371289Y-43167000D01*
X66622000Y-43167000D01*
X66622000Y-43477000D01*
G37*
%TD.AperFunction*%
%TA.AperFunction,Conductor*%
%TO.N,VDD_3V3B*%
G36*
X66622000Y-42827000D02*
G01*
X66371289Y-42827000D01*
X66162000Y-42617711D01*
X66162000Y-42517000D01*
X66622000Y-42517000D01*
X66622000Y-42827000D01*
G37*
%TD.AperFunction*%
%TA.AperFunction,Conductor*%
%TO.N,Net-(R11-Pad2)*%
G36*
X65762000Y-42617711D02*
G01*
X65552711Y-42827000D01*
X65302000Y-42827000D01*
X65302000Y-42517000D01*
X65762000Y-42517000D01*
X65762000Y-42617711D01*
G37*
%TD.AperFunction*%
%TD*%
%TO.P,R12,2*%
%TO.N,GND*%
%TA.AperFunction,SMDPad,CuDef*%
G36*
G01*
X66296250Y-47376500D02*
X65783750Y-47376500D01*
G75*
G02*
X65565000Y-47157750I0J218750D01*
G01*
X65565000Y-46720250D01*
G75*
G02*
X65783750Y-46501500I218750J0D01*
G01*
X66296250Y-46501500D01*
G75*
G02*
X66515000Y-46720250I0J-218750D01*
G01*
X66515000Y-47157750D01*
G75*
G02*
X66296250Y-47376500I-218750J0D01*
G01*
G37*
%TD.AperFunction*%
%TO.P,R12,1*%
%TO.N,/WARMRST*%
%TA.AperFunction,SMDPad,CuDef*%
G36*
G01*
X66296250Y-48951500D02*
X65783750Y-48951500D01*
G75*
G02*
X65565000Y-48732750I0J218750D01*
G01*
X65565000Y-48295250D01*
G75*
G02*
X65783750Y-48076500I218750J0D01*
G01*
X66296250Y-48076500D01*
G75*
G02*
X66515000Y-48295250I0J-218750D01*
G01*
X66515000Y-48732750D01*
G75*
G02*
X66296250Y-48951500I-218750J0D01*
G01*
G37*
%TD.AperFunction*%
%TD*%
%TO.P,R11,2*%
%TO.N,Net-(R11-Pad2)*%
%TA.AperFunction,SMDPad,CuDef*%
G36*
G01*
X62994250Y-47427500D02*
X62481750Y-47427500D01*
G75*
G02*
X62263000Y-47208750I0J218750D01*
G01*
X62263000Y-46771250D01*
G75*
G02*
X62481750Y-46552500I218750J0D01*
G01*
X62994250Y-46552500D01*
G75*
G02*
X63213000Y-46771250I0J-218750D01*
G01*
X63213000Y-47208750D01*
G75*
G02*
X62994250Y-47427500I-218750J0D01*
G01*
G37*
%TD.AperFunction*%
%TO.P,R11,1*%
%TO.N,/WARMRST*%
%TA.AperFunction,SMDPad,CuDef*%
G36*
G01*
X62994250Y-49002500D02*
X62481750Y-49002500D01*
G75*
G02*
X62263000Y-48783750I0J218750D01*
G01*
X62263000Y-48346250D01*
G75*
G02*
X62481750Y-48127500I218750J0D01*
G01*
X62994250Y-48127500D01*
G75*
G02*
X63213000Y-48346250I0J-218750D01*
G01*
X63213000Y-48783750D01*
G75*
G02*
X62994250Y-49002500I-218750J0D01*
G01*
G37*
%TD.AperFunction*%
%TD*%
D14*
%TO.P,IC1,5*%
%TO.N,VDD_RTC*%
X68694300Y-46398180D03*
%TO.P,IC1,4*%
%TO.N,Net-(IC1-Pad4)*%
X69989700Y-46398180D03*
%TO.P,IC1,3*%
%TO.N,GND*%
X69989700Y-48597820D03*
%TO.P,IC1,2*%
%TO.N,/PMIC_PGOOD*%
X69342000Y-48597820D03*
%TO.P,IC1,1*%
%TO.N,N/C*%
X68694300Y-48597820D03*
%TD*%
D15*
%TO.P,U6,9*%
%TO.N,N/C*%
X73590000Y-62060000D03*
%TO.P,U6,8*%
%TO.N,VDD_3V3B*%
%TA.AperFunction,SMDPad,CuDef*%
G36*
G01*
X72165000Y-62935000D02*
X72165000Y-63135000D01*
G75*
G02*
X72065000Y-63235000I-100000J0D01*
G01*
X70815000Y-63235000D01*
G75*
G02*
X70715000Y-63135000I0J100000D01*
G01*
X70715000Y-62935000D01*
G75*
G02*
X70815000Y-62835000I100000J0D01*
G01*
X72065000Y-62835000D01*
G75*
G02*
X72165000Y-62935000I0J-100000D01*
G01*
G37*
%TD.AperFunction*%
%TO.P,U6,7*%
%TO.N,Net-(J6-Pad1)*%
%TA.AperFunction,SMDPad,CuDef*%
G36*
G01*
X72165000Y-62285000D02*
X72165000Y-62485000D01*
G75*
G02*
X72065000Y-62585000I-100000J0D01*
G01*
X70815000Y-62585000D01*
G75*
G02*
X70715000Y-62485000I0J100000D01*
G01*
X70715000Y-62285000D01*
G75*
G02*
X70815000Y-62185000I100000J0D01*
G01*
X72065000Y-62185000D01*
G75*
G02*
X72165000Y-62285000I0J-100000D01*
G01*
G37*
%TD.AperFunction*%
%TO.P,U6,6*%
%TO.N,/I2C1_SCL*%
%TA.AperFunction,SMDPad,CuDef*%
G36*
G01*
X72165000Y-61635000D02*
X72165000Y-61835000D01*
G75*
G02*
X72065000Y-61935000I-100000J0D01*
G01*
X70815000Y-61935000D01*
G75*
G02*
X70715000Y-61835000I0J100000D01*
G01*
X70715000Y-61635000D01*
G75*
G02*
X70815000Y-61535000I100000J0D01*
G01*
X72065000Y-61535000D01*
G75*
G02*
X72165000Y-61635000I0J-100000D01*
G01*
G37*
%TD.AperFunction*%
%TO.P,U6,5*%
%TO.N,/I2C1_SDA*%
%TA.AperFunction,SMDPad,CuDef*%
G36*
G01*
X72165000Y-60985000D02*
X72165000Y-61185000D01*
G75*
G02*
X72065000Y-61285000I-100000J0D01*
G01*
X70815000Y-61285000D01*
G75*
G02*
X70715000Y-61185000I0J100000D01*
G01*
X70715000Y-60985000D01*
G75*
G02*
X70815000Y-60885000I100000J0D01*
G01*
X72065000Y-60885000D01*
G75*
G02*
X72165000Y-60985000I0J-100000D01*
G01*
G37*
%TD.AperFunction*%
%TO.P,U6,4*%
%TO.N,GND*%
%TA.AperFunction,SMDPad,CuDef*%
G36*
G01*
X76465000Y-60985000D02*
X76465000Y-61185000D01*
G75*
G02*
X76365000Y-61285000I-100000J0D01*
G01*
X75115000Y-61285000D01*
G75*
G02*
X75015000Y-61185000I0J100000D01*
G01*
X75015000Y-60985000D01*
G75*
G02*
X75115000Y-60885000I100000J0D01*
G01*
X76365000Y-60885000D01*
G75*
G02*
X76465000Y-60985000I0J-100000D01*
G01*
G37*
%TD.AperFunction*%
%TO.P,U6,3*%
%TA.AperFunction,SMDPad,CuDef*%
G36*
G01*
X76465000Y-61635000D02*
X76465000Y-61835000D01*
G75*
G02*
X76365000Y-61935000I-100000J0D01*
G01*
X75115000Y-61935000D01*
G75*
G02*
X75015000Y-61835000I0J100000D01*
G01*
X75015000Y-61635000D01*
G75*
G02*
X75115000Y-61535000I100000J0D01*
G01*
X76365000Y-61535000D01*
G75*
G02*
X76465000Y-61635000I0J-100000D01*
G01*
G37*
%TD.AperFunction*%
%TO.P,U6,2*%
%TA.AperFunction,SMDPad,CuDef*%
G36*
G01*
X76465000Y-62285000D02*
X76465000Y-62485000D01*
G75*
G02*
X76365000Y-62585000I-100000J0D01*
G01*
X75115000Y-62585000D01*
G75*
G02*
X75015000Y-62485000I0J100000D01*
G01*
X75015000Y-62285000D01*
G75*
G02*
X75115000Y-62185000I100000J0D01*
G01*
X76365000Y-62185000D01*
G75*
G02*
X76465000Y-62285000I0J-100000D01*
G01*
G37*
%TD.AperFunction*%
%TO.P,U6,1*%
%TA.AperFunction,SMDPad,CuDef*%
G36*
G01*
X76465000Y-62935000D02*
X76465000Y-63135000D01*
G75*
G02*
X76365000Y-63235000I-100000J0D01*
G01*
X75115000Y-63235000D01*
G75*
G02*
X75015000Y-63135000I0J100000D01*
G01*
X75015000Y-62935000D01*
G75*
G02*
X75115000Y-62835000I100000J0D01*
G01*
X76365000Y-62835000D01*
G75*
G02*
X76465000Y-62935000I0J-100000D01*
G01*
G37*
%TD.AperFunction*%
%TD*%
D10*
%TO.P,TP7,1*%
%TO.N,Net-(TP7-Pad1)*%
X81720000Y-56900000D03*
%TD*%
%TO.P,TP6,1*%
%TO.N,Net-(TP6-Pad1)*%
X29080000Y-25908000D03*
%TD*%
%TO.P,TP5,1*%
%TO.N,Net-(TP5-Pad1)*%
X33274000Y-25908000D03*
%TD*%
%TO.P,TP4,1*%
%TO.N,Net-(TP4-Pad1)*%
X81700000Y-99500000D03*
%TD*%
%TO.P,TP3,1*%
%TO.N,Net-(TP3-Pad1)*%
X81500000Y-95200000D03*
%TD*%
%TO.P,TP2,1*%
%TO.N,Net-(TP2-Pad1)*%
X76600000Y-91250000D03*
%TD*%
%TO.P,TP1,1*%
%TO.N,Net-(TP1-Pad1)*%
X38354000Y-25908000D03*
%TD*%
D16*
%TO.P,J2,16*%
%TO.N,GND*%
X39750000Y-85500000D03*
%TO.P,J2,15*%
X39750000Y-86500000D03*
%TO.P,J2,14*%
%TO.N,N/C*%
X38750000Y-85500000D03*
%TO.P,J2,13*%
%TO.N,VDD_3V3B*%
X38750000Y-86500000D03*
%TO.P,J2,12*%
%TO.N,/Peripherals/UART0_TX*%
X37750000Y-85500000D03*
%TO.P,J2,11*%
%TO.N,N/C*%
X37750000Y-86500000D03*
%TO.P,J2,10*%
%TO.N,/Peripherals/UART0_RX*%
X36750000Y-85500000D03*
%TO.P,J2,9*%
%TO.N,N/C*%
X36750000Y-86500000D03*
%TO.P,J2,8*%
%TO.N,/Peripherals/SPI0_D0*%
X35750000Y-85500000D03*
%TO.P,J2,7*%
%TO.N,N/C*%
X35750000Y-86500000D03*
%TO.P,J2,6*%
%TO.N,/Peripherals/SPI0_SCLK*%
X34750000Y-85500000D03*
%TO.P,J2,5*%
%TO.N,N/C*%
X34750000Y-86500000D03*
%TO.P,J2,4*%
%TO.N,/Peripherals/SPI0_D1*%
X33750000Y-85500000D03*
%TO.P,J2,3*%
%TO.N,VDD_5V*%
X33750000Y-86500000D03*
%TO.P,J2,2*%
%TO.N,/Peripherals/SPI0_CS0*%
X32750000Y-85500000D03*
D17*
%TO.P,J2,1*%
%TO.N,N/C*%
X32750000Y-86500000D03*
%TD*%
%TO.P,R10,2*%
%TO.N,Net-(J6-Pad1)*%
%TA.AperFunction,SMDPad,CuDef*%
G36*
G01*
X73203750Y-67770000D02*
X73716250Y-67770000D01*
G75*
G02*
X73935000Y-67988750I0J-218750D01*
G01*
X73935000Y-68426250D01*
G75*
G02*
X73716250Y-68645000I-218750J0D01*
G01*
X73203750Y-68645000D01*
G75*
G02*
X72985000Y-68426250I0J218750D01*
G01*
X72985000Y-67988750D01*
G75*
G02*
X73203750Y-67770000I218750J0D01*
G01*
G37*
%TD.AperFunction*%
%TO.P,R10,1*%
%TO.N,VDD_3V3B*%
%TA.AperFunction,SMDPad,CuDef*%
G36*
G01*
X73203750Y-66195000D02*
X73716250Y-66195000D01*
G75*
G02*
X73935000Y-66413750I0J-218750D01*
G01*
X73935000Y-66851250D01*
G75*
G02*
X73716250Y-67070000I-218750J0D01*
G01*
X73203750Y-67070000D01*
G75*
G02*
X72985000Y-66851250I0J218750D01*
G01*
X72985000Y-66413750D01*
G75*
G02*
X73203750Y-66195000I218750J0D01*
G01*
G37*
%TD.AperFunction*%
%TD*%
%TO.P,J6,1*%
%TO.N,Net-(J6-Pad1)*%
X79000000Y-78325000D03*
%TD*%
%TO.P,J4,1*%
%TO.N,GND*%
X75950000Y-78245000D03*
%TD*%
D18*
%TO.P,FID4,*%
%TO.N,*%
X17960000Y-109820000D03*
%TD*%
%TO.P,FID3,*%
%TO.N,*%
X74620000Y-21850000D03*
%TD*%
%TO.P,FID2,*%
%TO.N,*%
X74620000Y-109820000D03*
%TD*%
%TO.P,FID1,*%
%TO.N,*%
X27220000Y-21850000D03*
%TD*%
%TO.P,C10,2*%
%TO.N,GND*%
%TA.AperFunction,SMDPad,CuDef*%
G36*
G01*
X77754999Y-67575000D02*
X78305001Y-67575000D01*
G75*
G02*
X78555000Y-67824999I0J-249999D01*
G01*
X78555000Y-68400001D01*
G75*
G02*
X78305001Y-68650000I-249999J0D01*
G01*
X77754999Y-68650000D01*
G75*
G02*
X77505000Y-68400001I0J249999D01*
G01*
X77505000Y-67824999D01*
G75*
G02*
X77754999Y-67575000I249999J0D01*
G01*
G37*
%TD.AperFunction*%
%TO.P,C10,1*%
%TO.N,VDD_3V3B*%
%TA.AperFunction,SMDPad,CuDef*%
G36*
G01*
X77754999Y-66150000D02*
X78305001Y-66150000D01*
G75*
G02*
X78555000Y-66399999I0J-249999D01*
G01*
X78555000Y-66975001D01*
G75*
G02*
X78305001Y-67225000I-249999J0D01*
G01*
X77754999Y-67225000D01*
G75*
G02*
X77505000Y-66975001I0J249999D01*
G01*
X77505000Y-66399999D01*
G75*
G02*
X77754999Y-66150000I249999J0D01*
G01*
G37*
%TD.AperFunction*%
%TD*%
D19*
%TO.P,U5,G4*%
%TO.N,CGND*%
X29168551Y-85745620D03*
D20*
%TO.P,U5,G3*%
X19567351Y-86647320D03*
%TO.P,U5,G2*%
X19567351Y-71148240D03*
D21*
%TO.P,U5,G1*%
X29066951Y-71138080D03*
D22*
%TO.P,U5,9*%
%TO.N,/Interfaces/MMC0_CD*%
X29666391Y-72298860D03*
%TO.P,U5,8*%
%TO.N,/Interfaces/MMC0_DAT1*%
X29666391Y-73398680D03*
%TO.P,U5,7*%
%TO.N,/Interfaces/MMC0_DAT0*%
X29666391Y-74498500D03*
%TO.P,U5,6*%
%TO.N,GND*%
X29666391Y-75598320D03*
%TO.P,U5,5*%
%TO.N,/Interfaces/MMC0_CLK*%
X29666391Y-76698140D03*
%TO.P,U5,4*%
%TO.N,VDD_3V3B*%
X29666391Y-77797960D03*
%TO.P,U5,3*%
%TO.N,/Interfaces/MMC0_CMD*%
X29666391Y-78897780D03*
%TO.P,U5,2*%
%TO.N,/Interfaces/MMC0_DAT3*%
X29666391Y-79997600D03*
%TO.P,U5,1*%
%TO.N,/Interfaces/MMC0_DAT2*%
X29666391Y-81097420D03*
%TD*%
D23*
%TO.P,RN2,8*%
%TO.N,N/C*%
X34000000Y-75100200D03*
D24*
%TO.P,RN2,7*%
%TO.N,/Interfaces/MMC0_DAT0*%
X34000000Y-74549020D03*
%TO.P,RN2,6*%
%TO.N,/Interfaces/MMC0_DAT1*%
X34000000Y-74051180D03*
D23*
%TO.P,RN2,5*%
%TO.N,/Interfaces/MMC0_CD*%
X34000000Y-73500000D03*
%TO.P,RN2,4*%
%TO.N,VDD_3V3B*%
X34995680Y-73500000D03*
D24*
%TO.P,RN2,3*%
X34995680Y-74051180D03*
%TO.P,RN2,2*%
X34995680Y-74549020D03*
D23*
%TO.P,RN2,1*%
X34995680Y-75100200D03*
%TD*%
%TO.P,RN1,8*%
%TO.N,/Interfaces/MMC0_DAT2*%
X34000000Y-77600200D03*
D24*
%TO.P,RN1,7*%
%TO.N,/Interfaces/MMC0_DAT3*%
X34000000Y-77049020D03*
%TO.P,RN1,6*%
%TO.N,/Interfaces/MMC0_CMD*%
X34000000Y-76551180D03*
D23*
%TO.P,RN1,5*%
%TO.N,/Interfaces/MMC0_CLK*%
X34000000Y-76000000D03*
%TO.P,RN1,4*%
%TO.N,VDD_3V3B*%
X34995680Y-76000000D03*
D24*
%TO.P,RN1,3*%
X34995680Y-76551180D03*
%TO.P,RN1,2*%
X34995680Y-77049020D03*
D23*
%TO.P,RN1,1*%
X34995680Y-77600200D03*
%TD*%
%TO.P,C9,2*%
%TO.N,GND*%
%TA.AperFunction,SMDPad,CuDef*%
G36*
G01*
X61724999Y-75765000D02*
X62275001Y-75765000D01*
G75*
G02*
X62525000Y-76014999I0J-249999D01*
G01*
X62525000Y-76590001D01*
G75*
G02*
X62275001Y-76840000I-249999J0D01*
G01*
X61724999Y-76840000D01*
G75*
G02*
X61475000Y-76590001I0J249999D01*
G01*
X61475000Y-76014999D01*
G75*
G02*
X61724999Y-75765000I249999J0D01*
G01*
G37*
%TD.AperFunction*%
%TO.P,C9,1*%
%TO.N,VDD_3V3B*%
%TA.AperFunction,SMDPad,CuDef*%
G36*
G01*
X61724999Y-74340000D02*
X62275001Y-74340000D01*
G75*
G02*
X62525000Y-74589999I0J-249999D01*
G01*
X62525000Y-75165001D01*
G75*
G02*
X62275001Y-75415000I-249999J0D01*
G01*
X61724999Y-75415000D01*
G75*
G02*
X61475000Y-75165001I0J249999D01*
G01*
X61475000Y-74589999D01*
G75*
G02*
X61724999Y-74340000I249999J0D01*
G01*
G37*
%TD.AperFunction*%
%TD*%
%TO.P,C8,2*%
%TO.N,GND*%
%TA.AperFunction,SMDPad,CuDef*%
G36*
G01*
X61724999Y-71675000D02*
X62275001Y-71675000D01*
G75*
G02*
X62525000Y-71924999I0J-249999D01*
G01*
X62525000Y-72500001D01*
G75*
G02*
X62275001Y-72750000I-249999J0D01*
G01*
X61724999Y-72750000D01*
G75*
G02*
X61475000Y-72500001I0J249999D01*
G01*
X61475000Y-71924999D01*
G75*
G02*
X61724999Y-71675000I249999J0D01*
G01*
G37*
%TD.AperFunction*%
%TO.P,C8,1*%
%TO.N,VDD_3V3B*%
%TA.AperFunction,SMDPad,CuDef*%
G36*
G01*
X61724999Y-70250000D02*
X62275001Y-70250000D01*
G75*
G02*
X62525000Y-70499999I0J-249999D01*
G01*
X62525000Y-71075001D01*
G75*
G02*
X62275001Y-71325000I-249999J0D01*
G01*
X61724999Y-71325000D01*
G75*
G02*
X61475000Y-71075001I0J249999D01*
G01*
X61475000Y-70499999D01*
G75*
G02*
X61724999Y-70250000I249999J0D01*
G01*
G37*
%TD.AperFunction*%
%TD*%
D25*
%TO.P,J5,1*%
%TO.N,USB_DC*%
X20850000Y-55200000D03*
%TO.P,J5,2*%
%TO.N,/USB0_D-*%
X20850000Y-55850000D03*
%TO.P,J5,3*%
%TO.N,/USB0_D+*%
X20850000Y-56500000D03*
%TO.P,J5,4*%
%TO.N,/USB0_ID*%
X20850000Y-57150000D03*
%TO.P,J5,5*%
%TO.N,GND*%
X20850000Y-57800000D03*
D26*
%TO.P,J5,6*%
%TO.N,CGND*%
X18000000Y-52750000D03*
X18000000Y-60250000D03*
D27*
X18000000Y-55350000D03*
X18000000Y-57650000D03*
%TD*%
%TO.P,C5,2*%
%TO.N,GND*%
%TA.AperFunction,SMDPad,CuDef*%
G36*
G01*
X30875000Y-103187501D02*
X30875000Y-102637499D01*
G75*
G02*
X31124999Y-102387500I249999J0D01*
G01*
X31700001Y-102387500D01*
G75*
G02*
X31950000Y-102637499I0J-249999D01*
G01*
X31950000Y-103187501D01*
G75*
G02*
X31700001Y-103437500I-249999J0D01*
G01*
X31124999Y-103437500D01*
G75*
G02*
X30875000Y-103187501I0J249999D01*
G01*
G37*
%TD.AperFunction*%
%TO.P,C5,1*%
%TO.N,/Interfaces/IN_PWR_SUPPLY*%
%TA.AperFunction,SMDPad,CuDef*%
G36*
G01*
X29450000Y-103187501D02*
X29450000Y-102637499D01*
G75*
G02*
X29699999Y-102387500I249999J0D01*
G01*
X30275001Y-102387500D01*
G75*
G02*
X30525000Y-102637499I0J-249999D01*
G01*
X30525000Y-103187501D01*
G75*
G02*
X30275001Y-103437500I-249999J0D01*
G01*
X29699999Y-103437500D01*
G75*
G02*
X29450000Y-103187501I0J249999D01*
G01*
G37*
%TD.AperFunction*%
%TD*%
%TO.P,C6,2*%
%TO.N,GND*%
%TA.AperFunction,SMDPad,CuDef*%
G36*
G01*
X30862500Y-100475001D02*
X30862500Y-99924999D01*
G75*
G02*
X31112499Y-99675000I249999J0D01*
G01*
X31687501Y-99675000D01*
G75*
G02*
X31937500Y-99924999I0J-249999D01*
G01*
X31937500Y-100475001D01*
G75*
G02*
X31687501Y-100725000I-249999J0D01*
G01*
X31112499Y-100725000D01*
G75*
G02*
X30862500Y-100475001I0J249999D01*
G01*
G37*
%TD.AperFunction*%
%TO.P,C6,1*%
%TO.N,+3V3*%
%TA.AperFunction,SMDPad,CuDef*%
G36*
G01*
X29437500Y-100475001D02*
X29437500Y-99924999D01*
G75*
G02*
X29687499Y-99675000I249999J0D01*
G01*
X30262501Y-99675000D01*
G75*
G02*
X30512500Y-99924999I0J-249999D01*
G01*
X30512500Y-100475001D01*
G75*
G02*
X30262501Y-100725000I-249999J0D01*
G01*
X29687499Y-100725000D01*
G75*
G02*
X29437500Y-100475001I0J249999D01*
G01*
G37*
%TD.AperFunction*%
%TD*%
%TO.P,C7,2*%
%TO.N,GND*%
%TA.AperFunction,SMDPad,CuDef*%
G36*
G01*
X30875000Y-97775001D02*
X30875000Y-97224999D01*
G75*
G02*
X31124999Y-96975000I249999J0D01*
G01*
X31700001Y-96975000D01*
G75*
G02*
X31950000Y-97224999I0J-249999D01*
G01*
X31950000Y-97775001D01*
G75*
G02*
X31700001Y-98025000I-249999J0D01*
G01*
X31124999Y-98025000D01*
G75*
G02*
X30875000Y-97775001I0J249999D01*
G01*
G37*
%TD.AperFunction*%
%TO.P,C7,1*%
%TO.N,+5V*%
%TA.AperFunction,SMDPad,CuDef*%
G36*
G01*
X29450000Y-97775001D02*
X29450000Y-97224999D01*
G75*
G02*
X29699999Y-96975000I249999J0D01*
G01*
X30275001Y-96975000D01*
G75*
G02*
X30525000Y-97224999I0J-249999D01*
G01*
X30525000Y-97775001D01*
G75*
G02*
X30275001Y-98025000I-249999J0D01*
G01*
X29699999Y-98025000D01*
G75*
G02*
X29450000Y-97775001I0J249999D01*
G01*
G37*
%TD.AperFunction*%
%TD*%
%TO.P,J1,3*%
%TO.N,GND*%
%TA.AperFunction,ComponentPad*%
G36*
G01*
X37875000Y-113850000D02*
X36125000Y-113850000D01*
G75*
G02*
X35250000Y-112975000I0J875000D01*
G01*
X35250000Y-111225000D01*
G75*
G02*
X36125000Y-110350000I875000J0D01*
G01*
X37875000Y-110350000D01*
G75*
G02*
X38750000Y-111225000I0J-875000D01*
G01*
X38750000Y-112975000D01*
G75*
G02*
X37875000Y-113850000I-875000J0D01*
G01*
G37*
%TD.AperFunction*%
%TO.P,J1,2*%
%TA.AperFunction,ComponentPad*%
G36*
G01*
X33300000Y-116600000D02*
X31300000Y-116600000D01*
G75*
G02*
X30550000Y-115850000I0J750000D01*
G01*
X30550000Y-114350000D01*
G75*
G02*
X31300000Y-113600000I750000J0D01*
G01*
X33300000Y-113600000D01*
G75*
G02*
X34050000Y-114350000I0J-750000D01*
G01*
X34050000Y-115850000D01*
G75*
G02*
X33300000Y-116600000I-750000J0D01*
G01*
G37*
%TD.AperFunction*%
D28*
%TO.P,J1,1*%
%TO.N,/Interfaces/IN_PWR_SUPPLY*%
X32300000Y-109100000D03*
%TD*%
D23*
%TO.P,R9,8*%
%TO.N,/Sistem In Package/LCD_D0_G3*%
X43799800Y-76700000D03*
D29*
%TO.P,R9,7*%
%TO.N,/Sistem In Package/LCD_D1_G2*%
X44350980Y-76700000D03*
%TO.P,R9,6*%
%TO.N,/Sistem In Package/LCD_D2_G1*%
X44848820Y-76700000D03*
D23*
%TO.P,R9,5*%
%TO.N,/Sistem In Package/LCD_D3_H3*%
X45400000Y-76700000D03*
%TO.P,R9,4*%
%TO.N,VDD_3V3B*%
X45400000Y-77695680D03*
D29*
%TO.P,R9,3*%
%TO.N,GND*%
X44848820Y-77695680D03*
%TO.P,R9,2*%
X44350980Y-77695680D03*
D23*
%TO.P,R9,1*%
X43799800Y-77695680D03*
%TD*%
%TO.P,R8,8*%
%TO.N,/Sistem In Package/LCD_D4_H2*%
X46599900Y-76700000D03*
D29*
%TO.P,R8,7*%
%TO.N,/Sistem In Package/LCD_D5_H1*%
X47151080Y-76700000D03*
%TO.P,R8,6*%
%TO.N,/Sistem In Package/LCD_D6_J3*%
X47648920Y-76700000D03*
D23*
%TO.P,R8,5*%
%TO.N,/Sistem In Package/LCD_D7_J2*%
X48200100Y-76700000D03*
%TO.P,R8,4*%
%TO.N,GND*%
X48200100Y-77695680D03*
D29*
%TO.P,R8,3*%
X47648920Y-77695680D03*
%TO.P,R8,2*%
X47151080Y-77695680D03*
D23*
%TO.P,R8,1*%
%TO.N,VDD_3V3B*%
X46599900Y-77695680D03*
%TD*%
%TO.P,R7,8*%
%TO.N,/Sistem In Package/LCD_D8_J1*%
X52199800Y-76404320D03*
D29*
%TO.P,R7,7*%
%TO.N,/Sistem In Package/LCD_D9_K3*%
X52750980Y-76404320D03*
%TO.P,R7,6*%
%TO.N,/Sistem In Package/LCD_D10_K2*%
X53248820Y-76404320D03*
D23*
%TO.P,R7,5*%
%TO.N,/Sistem In Package/LCD_D11_K1*%
X53800000Y-76404320D03*
%TO.P,R7,4*%
%TO.N,GND*%
X53800000Y-77400000D03*
D29*
%TO.P,R7,3*%
X53248820Y-77400000D03*
%TO.P,R7,2*%
X52750980Y-77400000D03*
D23*
%TO.P,R7,1*%
X52199800Y-77400000D03*
%TD*%
%TO.P,R6,8*%
%TO.N,/Sistem In Package/LCD_D12_L3*%
X55199800Y-76400000D03*
D29*
%TO.P,R6,7*%
%TO.N,/Sistem In Package/LCD_D13_L2*%
X55750980Y-76400000D03*
%TO.P,R6,6*%
%TO.N,/Sistem In Package/LCD_D14_L1*%
X56248820Y-76400000D03*
D23*
%TO.P,R6,5*%
%TO.N,/Sistem In Package/LCD_D15_M3*%
X56800000Y-76400000D03*
%TO.P,R6,4*%
%TO.N,GND*%
X56800000Y-77395680D03*
D29*
%TO.P,R6,3*%
%TO.N,VDD_3V3B*%
X56248820Y-77395680D03*
%TO.P,R6,2*%
%TO.N,GND*%
X55750980Y-77395680D03*
D23*
%TO.P,R6,1*%
X55199800Y-77395680D03*
%TD*%
%TO.P,R5,2*%
%TO.N,GND*%
%TA.AperFunction,SMDPad,CuDef*%
G36*
G01*
X47826000Y-38979750D02*
X47826000Y-39492250D01*
G75*
G02*
X47607250Y-39711000I-218750J0D01*
G01*
X47169750Y-39711000D01*
G75*
G02*
X46951000Y-39492250I0J218750D01*
G01*
X46951000Y-38979750D01*
G75*
G02*
X47169750Y-38761000I218750J0D01*
G01*
X47607250Y-38761000D01*
G75*
G02*
X47826000Y-38979750I0J-218750D01*
G01*
G37*
%TD.AperFunction*%
%TO.P,R5,1*%
%TO.N,Net-(R5-Pad1)*%
%TA.AperFunction,SMDPad,CuDef*%
G36*
G01*
X49401000Y-38979750D02*
X49401000Y-39492250D01*
G75*
G02*
X49182250Y-39711000I-218750J0D01*
G01*
X48744750Y-39711000D01*
G75*
G02*
X48526000Y-39492250I0J218750D01*
G01*
X48526000Y-38979750D01*
G75*
G02*
X48744750Y-38761000I218750J0D01*
G01*
X49182250Y-38761000D01*
G75*
G02*
X49401000Y-38979750I0J-218750D01*
G01*
G37*
%TD.AperFunction*%
%TD*%
%TO.P,C4,2*%
%TO.N,/Sistem In Package/VREF-*%
%TA.AperFunction,SMDPad,CuDef*%
G36*
G01*
X34425001Y-64312500D02*
X33874999Y-64312500D01*
G75*
G02*
X33625000Y-64062501I0J249999D01*
G01*
X33625000Y-63487499D01*
G75*
G02*
X33874999Y-63237500I249999J0D01*
G01*
X34425001Y-63237500D01*
G75*
G02*
X34675000Y-63487499I0J-249999D01*
G01*
X34675000Y-64062501D01*
G75*
G02*
X34425001Y-64312500I-249999J0D01*
G01*
G37*
%TD.AperFunction*%
%TO.P,C4,1*%
%TO.N,/Sistem In Package/VREF+*%
%TA.AperFunction,SMDPad,CuDef*%
G36*
G01*
X34425001Y-65737500D02*
X33874999Y-65737500D01*
G75*
G02*
X33625000Y-65487501I0J249999D01*
G01*
X33625000Y-64912499D01*
G75*
G02*
X33874999Y-64662500I249999J0D01*
G01*
X34425001Y-64662500D01*
G75*
G02*
X34675000Y-64912499I0J-249999D01*
G01*
X34675000Y-65487501D01*
G75*
G02*
X34425001Y-65737500I-249999J0D01*
G01*
G37*
%TD.AperFunction*%
%TD*%
D30*
%TO.P,J3,4*%
%TO.N,GND*%
X28200000Y-45000000D03*
%TO.P,J3,3*%
%TO.N,/USB1_D+*%
X28200000Y-42500000D03*
%TO.P,J3,2*%
%TO.N,/USB1_D-*%
X28200000Y-40500000D03*
D31*
%TO.P,J3,1*%
%TO.N,/USB1_VBU*%
X28200000Y-38000000D03*
D32*
%TO.P,J3,5*%
%TO.N,CGND*%
X25490000Y-34930000D03*
X25490000Y-48070000D03*
%TD*%
D33*
%TO.P,U4,3*%
%TO.N,GND*%
X52425000Y-94575000D03*
D34*
%TO.P,U4,5*%
X55825000Y-103725000D03*
%TO.P,U4,4*%
%TO.N,+5V*%
X54125000Y-103725000D03*
%TO.P,U4,3*%
%TO.N,GND*%
X52425000Y-103725000D03*
%TO.P,U4,2*%
%TO.N,Net-(D1-Pad1)*%
X50725000Y-103725000D03*
%TO.P,U4,1*%
%TO.N,/Interfaces/IN_PWR_SUPPLY*%
X49025000Y-103725000D03*
%TD*%
D35*
%TO.P,U3,1*%
%TO.N,GND*%
X37200000Y-99050000D03*
%TO.P,U3,3*%
%TO.N,+3V3*%
X41800000Y-99050000D03*
%TO.P,U3,2*%
%TO.N,+5V*%
X39500000Y-99050000D03*
D36*
X39500000Y-92750000D03*
%TD*%
D37*
%TO.P,U2,T16*%
%TO.N,N/C*%
X58322460Y-53877540D03*
%TO.P,U2,T15*%
X58322460Y-55147540D03*
%TO.P,U2,T14*%
%TO.N,/GPIO_A6*%
X58322460Y-56417540D03*
%TO.P,U2,T13*%
%TO.N,N/C*%
X58322460Y-57687540D03*
%TO.P,U2,T12*%
X58322460Y-58957540D03*
%TO.P,U2,T11*%
%TO.N,/Interfaces/PWR_ON*%
X58322460Y-60227540D03*
%TO.P,U2,T10*%
%TO.N,VDD_5V*%
X58322460Y-61497540D03*
%TO.P,U2,T9*%
%TO.N,USB_DC*%
X58322460Y-62767540D03*
%TO.P,U2,T8*%
%TO.N,Net-(TP7-Pad1)*%
X58322460Y-64035000D03*
%TO.P,U2,T7*%
%TO.N,N/C*%
X58322460Y-65305000D03*
%TO.P,U2,T6*%
X58322460Y-66575000D03*
%TO.P,U2,T5*%
X58322460Y-67845000D03*
%TO.P,U2,T4*%
X58322460Y-69115000D03*
%TO.P,U2,T3*%
X58322460Y-70385000D03*
%TO.P,U2,T2*%
X58322460Y-71655000D03*
%TO.P,U2,T1*%
X58322460Y-72925000D03*
%TO.P,U2,R16*%
X57052460Y-53877540D03*
%TO.P,U2,R15*%
X57052460Y-55147540D03*
%TO.P,U2,R14*%
%TO.N,/GPIO_A7*%
X57052460Y-56417540D03*
%TO.P,U2,R13*%
%TO.N,N/C*%
X57052460Y-57687540D03*
%TO.P,U2,R12*%
X57052460Y-58957540D03*
%TO.P,U2,R11*%
%TO.N,/PMIC_PGOOD*%
X57052460Y-60227540D03*
%TO.P,U2,R10*%
%TO.N,VDD_5V*%
X57052460Y-61497540D03*
%TO.P,U2,R9*%
%TO.N,USB_DC*%
X57052460Y-62767540D03*
%TO.P,U2,R8*%
%TO.N,Net-(TP7-Pad1)*%
X57052460Y-64035000D03*
%TO.P,U2,R7*%
%TO.N,N/C*%
X57052460Y-65305000D03*
%TO.P,U2,R6*%
X57052460Y-66575000D03*
%TO.P,U2,R5*%
X57052460Y-67845000D03*
%TO.P,U2,R4*%
X57052460Y-69115000D03*
%TO.P,U2,R3*%
X57052460Y-70385000D03*
%TO.P,U2,R2*%
X57052460Y-71655000D03*
%TO.P,U2,R1*%
X57052460Y-72925000D03*
%TO.P,U2,P16*%
%TO.N,/Sistem In Package/OSC_IN*%
X55782460Y-53877540D03*
%TO.P,U2,P15*%
%TO.N,N/C*%
X55782460Y-55147540D03*
%TO.P,U2,P14*%
%TO.N,/GPIO_A8*%
X55782460Y-56417540D03*
%TO.P,U2,P13*%
%TO.N,/GPIO_A5*%
X55782460Y-57687540D03*
%TO.P,U2,P12*%
%TO.N,N/C*%
X55782460Y-58957540D03*
%TO.P,U2,P11*%
%TO.N,/WARMRST*%
X55782460Y-60227540D03*
%TO.P,U2,P10*%
%TO.N,VDD_5V*%
X55782460Y-61497540D03*
%TO.P,U2,P9*%
%TO.N,USB_DC*%
X55782460Y-62767540D03*
%TO.P,U2,P8*%
%TO.N,Net-(TP7-Pad1)*%
X55782460Y-64035000D03*
%TO.P,U2,P7*%
%TO.N,N/C*%
X55782460Y-65305000D03*
%TO.P,U2,P6*%
X55782460Y-66575000D03*
%TO.P,U2,P5*%
X55782460Y-67845000D03*
%TO.P,U2,P4*%
X55782460Y-69115000D03*
%TO.P,U2,P3*%
X55782460Y-70385000D03*
%TO.P,U2,P2*%
X55782460Y-71655000D03*
%TO.P,U2,P1*%
X55782460Y-72925000D03*
%TO.P,U2,N16*%
%TO.N,/Sistem In Package/OSC_OUT*%
X54512460Y-53877540D03*
%TO.P,U2,N15*%
%TO.N,/Sistem In Package/OSC_GND*%
X54512460Y-55147540D03*
%TO.P,U2,N14*%
%TO.N,N/C*%
X54512460Y-56417540D03*
%TO.P,U2,N13*%
X54512460Y-57687540D03*
%TO.P,U2,N12*%
%TO.N,/WARMRST*%
X54512460Y-58957540D03*
%TO.P,U2,N11*%
%TO.N,Net-(TP1-Pad1)*%
X54512460Y-60227540D03*
%TO.P,U2,N10*%
X54512460Y-61497540D03*
%TO.P,U2,N9*%
%TO.N,GND*%
X54512460Y-62767540D03*
%TO.P,U2,N8*%
X54512460Y-64035000D03*
%TO.P,U2,N7*%
%TO.N,Net-(TP8-Pad1)*%
X54512460Y-65305000D03*
%TO.P,U2,N6*%
%TO.N,Net-(TP9-Pad1)*%
X54512460Y-66575000D03*
%TO.P,U2,N5*%
%TO.N,Net-(TP2-Pad1)*%
X54512460Y-67845000D03*
%TO.P,U2,N4*%
X54512460Y-69115000D03*
%TO.P,U2,N3*%
%TO.N,N/C*%
X54512460Y-70385000D03*
%TO.P,U2,N2*%
X54512460Y-71655000D03*
%TO.P,U2,N1*%
X54512460Y-72925000D03*
%TO.P,U2,M16*%
%TO.N,Net-(R5-Pad1)*%
X53242460Y-53877540D03*
%TO.P,U2,M15*%
%TO.N,/USB1_VBU*%
X53242460Y-55147540D03*
%TO.P,U2,M14*%
%TO.N,N/C*%
X53242460Y-56417540D03*
%TO.P,U2,M13*%
X53242460Y-57687540D03*
%TO.P,U2,M12*%
%TO.N,GND*%
X53242460Y-58957540D03*
%TO.P,U2,M11*%
X53242460Y-60227540D03*
%TO.P,U2,M10*%
X53242460Y-61497540D03*
%TO.P,U2,M9*%
X53242460Y-62767540D03*
%TO.P,U2,M8*%
X53242460Y-64035000D03*
%TO.P,U2,M7*%
X53242460Y-65305000D03*
%TO.P,U2,M6*%
X53242460Y-66575000D03*
%TO.P,U2,M5*%
X53242460Y-67845000D03*
%TO.P,U2,M4*%
%TO.N,Net-(TP3-Pad1)*%
X53242460Y-69115000D03*
%TO.P,U2,M3*%
%TO.N,/Sistem In Package/LCD_D15_M3*%
X53242460Y-70385000D03*
%TO.P,U2,M2*%
%TO.N,N/C*%
X53242460Y-71655000D03*
%TO.P,U2,M1*%
X53242460Y-72925000D03*
%TO.P,U2,L16*%
%TO.N,/USB1_D-*%
X51972460Y-53877540D03*
%TO.P,U2,L15*%
%TO.N,/USB1_D+*%
X51972460Y-55147540D03*
%TO.P,U2,L14*%
%TO.N,N/C*%
X51972460Y-56417540D03*
%TO.P,U2,L13*%
X51972460Y-57687540D03*
%TO.P,U2,L12*%
%TO.N,GND*%
X51972460Y-58957540D03*
%TO.P,U2,L11*%
%TO.N,VDD_RTC*%
X51972460Y-60227540D03*
%TO.P,U2,L10*%
%TO.N,VDD_1V8*%
X51972460Y-61497540D03*
%TO.P,U2,L9*%
%TO.N,VDD_3V3A*%
X51972460Y-62767540D03*
%TO.P,U2,L8*%
X51972460Y-64035000D03*
%TO.P,U2,L7*%
%TO.N,SYS_5V*%
X51972460Y-65305000D03*
%TO.P,U2,L6*%
X51972460Y-66575000D03*
%TO.P,U2,L5*%
%TO.N,GND*%
X51972460Y-67845000D03*
%TO.P,U2,L4*%
%TO.N,Net-(TP3-Pad1)*%
X51972460Y-69115000D03*
%TO.P,U2,L3*%
%TO.N,/Sistem In Package/LCD_D12_L3*%
X51972460Y-70385000D03*
%TO.P,U2,L2*%
%TO.N,/Sistem In Package/LCD_D13_L2*%
X51972460Y-71655000D03*
%TO.P,U2,L1*%
%TO.N,/Sistem In Package/LCD_D14_L1*%
X51972460Y-72925000D03*
%TO.P,U2,K16*%
%TO.N,/USB0_D-*%
X50702460Y-53877540D03*
%TO.P,U2,K15*%
%TO.N,/USB0_D+*%
X50702460Y-55147540D03*
%TO.P,U2,K14*%
%TO.N,/USB0_ID*%
X50702460Y-56417540D03*
%TO.P,U2,K13*%
%TO.N,N/C*%
X50702460Y-57687540D03*
%TO.P,U2,K12*%
%TO.N,GND*%
X50702460Y-58957540D03*
%TO.P,U2,K11*%
%TO.N,VDD_RTC*%
X50702460Y-60227540D03*
%TO.P,U2,K10*%
%TO.N,VDD_1V8*%
X50702460Y-61497540D03*
%TO.P,U2,K9*%
%TO.N,VDD_3V3A*%
X50702460Y-62767540D03*
%TO.P,U2,K8*%
X50702460Y-64035000D03*
%TO.P,U2,K7*%
%TO.N,SYS_5V*%
X50702460Y-65305000D03*
%TO.P,U2,K6*%
X50702460Y-66575000D03*
%TO.P,U2,K5*%
%TO.N,GND*%
X50702460Y-67845000D03*
%TO.P,U2,K4*%
%TO.N,N/C*%
X50702460Y-69115000D03*
%TO.P,U2,K3*%
%TO.N,/Sistem In Package/LCD_D9_K3*%
X50702460Y-70385000D03*
%TO.P,U2,K2*%
%TO.N,/Sistem In Package/LCD_D10_K2*%
X50702460Y-71655000D03*
%TO.P,U2,K1*%
%TO.N,/Sistem In Package/LCD_D11_K1*%
X50702460Y-72925000D03*
%TO.P,U2,J16*%
%TO.N,USB_DC*%
X49432460Y-53877540D03*
%TO.P,U2,J15*%
%TO.N,N/C*%
X49432460Y-55147540D03*
%TO.P,U2,J14*%
X49432460Y-56417540D03*
%TO.P,U2,J13*%
%TO.N,GND*%
X49432460Y-57687540D03*
%TO.P,U2,J12*%
X49432460Y-58957540D03*
%TO.P,U2,J11*%
%TO.N,VDD_1V8*%
X49432460Y-60227540D03*
%TO.P,U2,J10*%
X49432460Y-61497540D03*
%TO.P,U2,J9*%
%TO.N,VDD_3V3A*%
X49432460Y-62767540D03*
%TO.P,U2,J8*%
X49432460Y-64035000D03*
%TO.P,U2,J7*%
X49432460Y-65305000D03*
%TO.P,U2,J6*%
%TO.N,N/C*%
X49432460Y-66575000D03*
%TO.P,U2,J5*%
%TO.N,GND*%
X49432460Y-67845000D03*
%TO.P,U2,J4*%
X49432460Y-69115000D03*
%TO.P,U2,J3*%
%TO.N,/Sistem In Package/LCD_D6_J3*%
X49432460Y-70385000D03*
%TO.P,U2,J2*%
%TO.N,/Sistem In Package/LCD_D7_J2*%
X49432460Y-71655000D03*
%TO.P,U2,J1*%
%TO.N,/Sistem In Package/LCD_D8_J1*%
X49432460Y-72925000D03*
%TO.P,U2,H16*%
%TO.N,N/C*%
X48165000Y-53877540D03*
%TO.P,U2,H15*%
X48165000Y-55147540D03*
%TO.P,U2,H14*%
X48165000Y-56417540D03*
%TO.P,U2,H13*%
%TO.N,GND*%
X48165000Y-57687540D03*
%TO.P,U2,H12*%
X48165000Y-58957540D03*
%TO.P,U2,H11*%
%TO.N,VDD_1V8*%
X48165000Y-60227540D03*
%TO.P,U2,H10*%
X48165000Y-61497540D03*
%TO.P,U2,H9*%
%TO.N,VDD_3V3A*%
X48165000Y-62767540D03*
%TO.P,U2,H8*%
X48165000Y-64035000D03*
%TO.P,U2,H7*%
X48165000Y-65305000D03*
%TO.P,U2,H6*%
%TO.N,N/C*%
X48165000Y-66575000D03*
%TO.P,U2,H5*%
%TO.N,GND*%
X48165000Y-67845000D03*
%TO.P,U2,H4*%
X48165000Y-69115000D03*
%TO.P,U2,H3*%
%TO.N,/Sistem In Package/LCD_D3_H3*%
X48165000Y-70385000D03*
%TO.P,U2,H2*%
%TO.N,/Sistem In Package/LCD_D4_H2*%
X48165000Y-71655000D03*
%TO.P,U2,H1*%
%TO.N,/Sistem In Package/LCD_D5_H1*%
X48165000Y-72925000D03*
%TO.P,U2,G16*%
%TO.N,N/C*%
X46895000Y-53877540D03*
%TO.P,U2,G15*%
X46895000Y-55147540D03*
%TO.P,U2,G14*%
X46895000Y-56417540D03*
%TO.P,U2,G13*%
X46895000Y-57687540D03*
%TO.P,U2,G12*%
%TO.N,GND*%
X46895000Y-58957540D03*
%TO.P,U2,G11*%
%TO.N,VDD_3V3AUX*%
X46895000Y-60227540D03*
%TO.P,U2,G10*%
%TO.N,VDD_1V8*%
X46895000Y-61497540D03*
%TO.P,U2,G9*%
%TO.N,VDD_3V3A*%
X46895000Y-62767540D03*
%TO.P,U2,G8*%
X46895000Y-64035000D03*
%TO.P,U2,G7*%
%TO.N,VDD_3V3B*%
X46895000Y-65305000D03*
%TO.P,U2,G6*%
X46895000Y-66575000D03*
%TO.P,U2,G5*%
%TO.N,GND*%
X46895000Y-67845000D03*
%TO.P,U2,G4*%
%TO.N,N/C*%
X46895000Y-69115000D03*
%TO.P,U2,G3*%
%TO.N,/Sistem In Package/LCD_D0_G3*%
X46895000Y-70385000D03*
%TO.P,U2,G2*%
%TO.N,/Sistem In Package/LCD_D1_G2*%
X46895000Y-71655000D03*
%TO.P,U2,G1*%
%TO.N,/Sistem In Package/LCD_D2_G1*%
X46895000Y-72925000D03*
%TO.P,U2,F16*%
%TO.N,N/C*%
X45625000Y-53877540D03*
%TO.P,U2,F15*%
X45625000Y-55147540D03*
%TO.P,U2,F14*%
X45625000Y-56417540D03*
%TO.P,U2,F13*%
X45625000Y-57687540D03*
%TO.P,U2,F12*%
%TO.N,GND*%
X45625000Y-58957540D03*
%TO.P,U2,F11*%
%TO.N,VDD_3V3AUX*%
X45625000Y-60227540D03*
%TO.P,U2,F10*%
%TO.N,VDD_1V8*%
X45625000Y-61497540D03*
%TO.P,U2,F9*%
%TO.N,VDD_3V3A*%
X45625000Y-62767540D03*
%TO.P,U2,F8*%
X45625000Y-64035000D03*
%TO.P,U2,F7*%
%TO.N,VDD_3V3B*%
X45625000Y-65305000D03*
%TO.P,U2,F6*%
X45625000Y-66575000D03*
%TO.P,U2,F5*%
%TO.N,GND*%
X45625000Y-67845000D03*
%TO.P,U2,F4*%
%TO.N,N/C*%
X45625000Y-69115000D03*
%TO.P,U2,F3*%
X45625000Y-70385000D03*
%TO.P,U2,F2*%
X45625000Y-71655000D03*
%TO.P,U2,F1*%
X45625000Y-72925000D03*
%TO.P,U2,E16*%
X44355000Y-53877540D03*
%TO.P,U2,E15*%
X44355000Y-55147540D03*
%TO.P,U2,E14*%
X44355000Y-56417540D03*
%TO.P,U2,E13*%
X44355000Y-57687540D03*
%TO.P,U2,E12*%
%TO.N,GND*%
X44355000Y-58957540D03*
%TO.P,U2,E11*%
X44355000Y-60227540D03*
%TO.P,U2,E10*%
X44355000Y-61497540D03*
%TO.P,U2,E9*%
X44355000Y-62767540D03*
%TO.P,U2,E8*%
X44355000Y-64035000D03*
%TO.P,U2,E7*%
X44355000Y-65305000D03*
%TO.P,U2,E6*%
X44355000Y-66575000D03*
%TO.P,U2,E5*%
X44355000Y-67845000D03*
%TO.P,U2,E4*%
%TO.N,Net-(TP4-Pad1)*%
X44355000Y-69115000D03*
%TO.P,U2,E3*%
%TO.N,N/C*%
X44355000Y-70385000D03*
%TO.P,U2,E2*%
X44355000Y-71655000D03*
%TO.P,U2,E1*%
X44355000Y-72925000D03*
%TO.P,U2,D16*%
X43085000Y-53877540D03*
%TO.P,U2,D15*%
X43085000Y-55147540D03*
%TO.P,U2,D14*%
X43085000Y-56417540D03*
%TO.P,U2,D13*%
X43085000Y-57687540D03*
%TO.P,U2,D12*%
X43085000Y-58957540D03*
%TO.P,U2,D11*%
%TO.N,Net-(TP6-Pad1)*%
X43085000Y-60227540D03*
%TO.P,U2,D10*%
%TO.N,Net-(TP5-Pad1)*%
X43085000Y-61497540D03*
%TO.P,U2,D9*%
%TO.N,GND*%
X43085000Y-62767540D03*
%TO.P,U2,D8*%
X43085000Y-64035000D03*
%TO.P,U2,D7*%
%TO.N,Net-(U2-PadD6)*%
X43085000Y-65305000D03*
%TO.P,U2,D6*%
X43085000Y-66575000D03*
%TO.P,U2,D5*%
%TO.N,N/C*%
X43085000Y-67845000D03*
%TO.P,U2,D4*%
%TO.N,Net-(TP4-Pad1)*%
X43085000Y-69115000D03*
%TO.P,U2,D3*%
%TO.N,N/C*%
X43085000Y-70385000D03*
%TO.P,U2,D2*%
X43085000Y-71655000D03*
%TO.P,U2,D1*%
X43085000Y-72925000D03*
%TO.P,U2,C16*%
%TO.N,/Interfaces/MMC0_DAT2*%
X41815000Y-53877540D03*
%TO.P,U2,C15*%
%TO.N,/Interfaces/MMC0_DAT3*%
X41815000Y-55147540D03*
%TO.P,U2,C14*%
%TO.N,/Interfaces/MMC0_CD*%
X41815000Y-56417540D03*
%TO.P,U2,C13*%
%TO.N,N/C*%
X41815000Y-57687540D03*
%TO.P,U2,C12*%
X41815000Y-58957540D03*
%TO.P,U2,C11*%
%TO.N,Net-(TP6-Pad1)*%
X41815000Y-60227540D03*
%TO.P,U2,C10*%
%TO.N,Net-(TP5-Pad1)*%
X41815000Y-61497540D03*
%TO.P,U2,C9*%
%TO.N,/Sistem In Package/AIN61.8V*%
X41815000Y-62767540D03*
%TO.P,U2,C8*%
%TO.N,/Sistem In Package/AIN51.8V*%
X41815000Y-64035000D03*
%TO.P,U2,C7*%
%TO.N,N/C*%
X41815000Y-65305000D03*
%TO.P,U2,C6*%
X41815000Y-66575000D03*
%TO.P,U2,C5*%
X41815000Y-67845000D03*
%TO.P,U2,C4*%
X41815000Y-69115000D03*
%TO.P,U2,C3*%
X41815000Y-70385000D03*
%TO.P,U2,C2*%
X41815000Y-71655000D03*
%TO.P,U2,C1*%
X41815000Y-72925000D03*
%TO.P,U2,B16*%
%TO.N,/Interfaces/MMC0_CMD*%
X40545000Y-53877540D03*
%TO.P,U2,B15*%
%TO.N,/Interfaces/MMC0_CLK*%
X40545000Y-55147540D03*
%TO.P,U2,B14*%
%TO.N,/Peripherals/SPI0_D1*%
X40545000Y-56417540D03*
%TO.P,U2,B13*%
%TO.N,/Peripherals/SPI0_D0*%
X40545000Y-57687540D03*
%TO.P,U2,B12*%
%TO.N,/Peripherals/UART0_TX*%
X40545000Y-58957540D03*
%TO.P,U2,B11*%
%TO.N,/I2C1_SCL*%
X40545000Y-60227540D03*
%TO.P,U2,B10*%
%TO.N,N/C*%
X40545000Y-61497540D03*
%TO.P,U2,B9*%
%TO.N,/Sistem In Package/VREF-*%
X40545000Y-62767540D03*
%TO.P,U2,B8*%
%TO.N,N/C*%
X40545000Y-64035000D03*
%TO.P,U2,B7*%
%TO.N,/Sistem In Package/VREF+*%
X40545000Y-65305000D03*
%TO.P,U2,B6*%
%TO.N,N/C*%
X40545000Y-66575000D03*
%TO.P,U2,B5*%
X40545000Y-67845000D03*
%TO.P,U2,B4*%
X40545000Y-69115000D03*
%TO.P,U2,B3*%
X40545000Y-70385000D03*
%TO.P,U2,B2*%
X40545000Y-71655000D03*
%TO.P,U2,B1*%
X40545000Y-72925000D03*
%TO.P,U2,A16*%
%TO.N,/Interfaces/MMC0_DAT0*%
X39275000Y-53877540D03*
%TO.P,U2,A15*%
%TO.N,/Interfaces/MMC0_DAT1*%
X39275000Y-55147540D03*
%TO.P,U2,A14*%
%TO.N,/Peripherals/SPI0_CS0*%
X39275000Y-56417540D03*
%TO.P,U2,A13*%
%TO.N,/Peripherals/SPI0_SCLK*%
X39275000Y-57687540D03*
%TO.P,U2,A12*%
%TO.N,/Peripherals/UART0_RX*%
X39275000Y-58957540D03*
%TO.P,U2,A11*%
%TO.N,/I2C1_SDA*%
X39275000Y-60227540D03*
%TO.P,U2,A10*%
%TO.N,N/C*%
X39275000Y-61497540D03*
%TO.P,U2,A9*%
%TO.N,/Sistem In Package/VREF-*%
X39275000Y-62767540D03*
%TO.P,U2,A8*%
%TO.N,N/C*%
X39275000Y-64035000D03*
%TO.P,U2,A7*%
%TO.N,/Sistem In Package/VREF+*%
X39275000Y-65305000D03*
%TO.P,U2,A6*%
%TO.N,N/C*%
X39275000Y-66575000D03*
%TO.P,U2,A5*%
X39275000Y-67845000D03*
%TO.P,U2,A4*%
X39275000Y-69115000D03*
%TO.P,U2,A3*%
X39275000Y-70385000D03*
%TO.P,U2,A2*%
X39275000Y-71655000D03*
%TO.P,U2,A1*%
X39275000Y-72925000D03*
%TD*%
D38*
%TO.P,U1,3*%
%TO.N,VDD_RTC*%
X57200000Y-31200000D03*
%TO.P,U1,2*%
%TO.N,Net-(R2-Pad2)*%
X55200000Y-32150000D03*
%TO.P,U1,1*%
%TO.N,Net-(Q1-Pad1)*%
X55200000Y-30250000D03*
%TD*%
%TO.P,R23,2*%
%TO.N,/Sistem In Package/OSC_OUT*%
%TA.AperFunction,SMDPad,CuDef*%
G36*
G01*
X47781500Y-26743750D02*
X47781500Y-27256250D01*
G75*
G02*
X47562750Y-27475000I-218750J0D01*
G01*
X47125250Y-27475000D01*
G75*
G02*
X46906500Y-27256250I0J218750D01*
G01*
X46906500Y-26743750D01*
G75*
G02*
X47125250Y-26525000I218750J0D01*
G01*
X47562750Y-26525000D01*
G75*
G02*
X47781500Y-26743750I0J-218750D01*
G01*
G37*
%TD.AperFunction*%
%TO.P,R23,1*%
%TO.N,/Sistem In Package/OSC_IN*%
%TA.AperFunction,SMDPad,CuDef*%
G36*
G01*
X49356500Y-26743750D02*
X49356500Y-27256250D01*
G75*
G02*
X49137750Y-27475000I-218750J0D01*
G01*
X48700250Y-27475000D01*
G75*
G02*
X48481500Y-27256250I0J218750D01*
G01*
X48481500Y-26743750D01*
G75*
G02*
X48700250Y-26525000I218750J0D01*
G01*
X49137750Y-26525000D01*
G75*
G02*
X49356500Y-26743750I0J-218750D01*
G01*
G37*
%TD.AperFunction*%
%TD*%
D39*
%TO.P,Q2,2*%
%TO.N,/Sistem In Package/OSC_IN*%
X44205000Y-31530000D03*
%TO.P,Q2,1*%
%TO.N,/Sistem In Package/OSC_OUT*%
X40505000Y-31530000D03*
%TD*%
%TO.P,C3,2*%
%TO.N,/Sistem In Package/OSC_GND*%
%TA.AperFunction,SMDPad,CuDef*%
G36*
G01*
X47934000Y-30884999D02*
X47934000Y-31435001D01*
G75*
G02*
X47684001Y-31685000I-249999J0D01*
G01*
X47108999Y-31685000D01*
G75*
G02*
X46859000Y-31435001I0J249999D01*
G01*
X46859000Y-30884999D01*
G75*
G02*
X47108999Y-30635000I249999J0D01*
G01*
X47684001Y-30635000D01*
G75*
G02*
X47934000Y-30884999I0J-249999D01*
G01*
G37*
%TD.AperFunction*%
%TO.P,C3,1*%
%TO.N,/Sistem In Package/OSC_IN*%
%TA.AperFunction,SMDPad,CuDef*%
G36*
G01*
X49359000Y-30884999D02*
X49359000Y-31435001D01*
G75*
G02*
X49109001Y-31685000I-249999J0D01*
G01*
X48533999Y-31685000D01*
G75*
G02*
X48284000Y-31435001I0J249999D01*
G01*
X48284000Y-30884999D01*
G75*
G02*
X48533999Y-30635000I249999J0D01*
G01*
X49109001Y-30635000D01*
G75*
G02*
X49359000Y-30884999I0J-249999D01*
G01*
G37*
%TD.AperFunction*%
%TD*%
%TO.P,C2,2*%
%TO.N,/Sistem In Package/OSC_GND*%
%TA.AperFunction,SMDPad,CuDef*%
G36*
G01*
X47979000Y-34242999D02*
X47979000Y-34793001D01*
G75*
G02*
X47729001Y-35043000I-249999J0D01*
G01*
X47153999Y-35043000D01*
G75*
G02*
X46904000Y-34793001I0J249999D01*
G01*
X46904000Y-34242999D01*
G75*
G02*
X47153999Y-33993000I249999J0D01*
G01*
X47729001Y-33993000D01*
G75*
G02*
X47979000Y-34242999I0J-249999D01*
G01*
G37*
%TD.AperFunction*%
%TO.P,C2,1*%
%TO.N,/Sistem In Package/OSC_OUT*%
%TA.AperFunction,SMDPad,CuDef*%
G36*
G01*
X49404000Y-34242999D02*
X49404000Y-34793001D01*
G75*
G02*
X49154001Y-35043000I-249999J0D01*
G01*
X48578999Y-35043000D01*
G75*
G02*
X48329000Y-34793001I0J249999D01*
G01*
X48329000Y-34242999D01*
G75*
G02*
X48578999Y-33993000I249999J0D01*
G01*
X49154001Y-33993000D01*
G75*
G02*
X49404000Y-34242999I0J-249999D01*
G01*
G37*
%TD.AperFunction*%
%TD*%
%TO.P,R3,2*%
%TO.N,Net-(R2-Pad2)*%
%TA.AperFunction,SMDPad,CuDef*%
G36*
G01*
X63050000Y-30656250D02*
X63050000Y-30143750D01*
G75*
G02*
X63268750Y-29925000I218750J0D01*
G01*
X63706250Y-29925000D01*
G75*
G02*
X63925000Y-30143750I0J-218750D01*
G01*
X63925000Y-30656250D01*
G75*
G02*
X63706250Y-30875000I-218750J0D01*
G01*
X63268750Y-30875000D01*
G75*
G02*
X63050000Y-30656250I0J218750D01*
G01*
G37*
%TD.AperFunction*%
%TO.P,R3,1*%
%TO.N,VDD_RTC*%
%TA.AperFunction,SMDPad,CuDef*%
G36*
G01*
X61475000Y-30656250D02*
X61475000Y-30143750D01*
G75*
G02*
X61693750Y-29925000I218750J0D01*
G01*
X62131250Y-29925000D01*
G75*
G02*
X62350000Y-30143750I0J-218750D01*
G01*
X62350000Y-30656250D01*
G75*
G02*
X62131250Y-30875000I-218750J0D01*
G01*
X61693750Y-30875000D01*
G75*
G02*
X61475000Y-30656250I0J218750D01*
G01*
G37*
%TD.AperFunction*%
%TD*%
%TO.P,R4,2*%
%TO.N,VDD_3V3B*%
%TA.AperFunction,SMDPad,CuDef*%
G36*
G01*
X63030000Y-27236250D02*
X63030000Y-26723750D01*
G75*
G02*
X63248750Y-26505000I218750J0D01*
G01*
X63686250Y-26505000D01*
G75*
G02*
X63905000Y-26723750I0J-218750D01*
G01*
X63905000Y-27236250D01*
G75*
G02*
X63686250Y-27455000I-218750J0D01*
G01*
X63248750Y-27455000D01*
G75*
G02*
X63030000Y-27236250I0J218750D01*
G01*
G37*
%TD.AperFunction*%
%TO.P,R4,1*%
%TO.N,Net-(Q1-Pad1)*%
%TA.AperFunction,SMDPad,CuDef*%
G36*
G01*
X61455000Y-27236250D02*
X61455000Y-26723750D01*
G75*
G02*
X61673750Y-26505000I218750J0D01*
G01*
X62111250Y-26505000D01*
G75*
G02*
X62330000Y-26723750I0J-218750D01*
G01*
X62330000Y-27236250D01*
G75*
G02*
X62111250Y-27455000I-218750J0D01*
G01*
X61673750Y-27455000D01*
G75*
G02*
X61455000Y-27236250I0J218750D01*
G01*
G37*
%TD.AperFunction*%
%TD*%
%TO.P,R2,2*%
%TO.N,Net-(R2-Pad2)*%
%TA.AperFunction,SMDPad,CuDef*%
G36*
G01*
X62350000Y-33456250D02*
X62350000Y-33968750D01*
G75*
G02*
X62131250Y-34187500I-218750J0D01*
G01*
X61693750Y-34187500D01*
G75*
G02*
X61475000Y-33968750I0J218750D01*
G01*
X61475000Y-33456250D01*
G75*
G02*
X61693750Y-33237500I218750J0D01*
G01*
X62131250Y-33237500D01*
G75*
G02*
X62350000Y-33456250I0J-218750D01*
G01*
G37*
%TD.AperFunction*%
%TO.P,R2,1*%
%TO.N,VDD_3V3B*%
%TA.AperFunction,SMDPad,CuDef*%
G36*
G01*
X63925000Y-33456250D02*
X63925000Y-33968750D01*
G75*
G02*
X63706250Y-34187500I-218750J0D01*
G01*
X63268750Y-34187500D01*
G75*
G02*
X63050000Y-33968750I0J218750D01*
G01*
X63050000Y-33456250D01*
G75*
G02*
X63268750Y-33237500I218750J0D01*
G01*
X63706250Y-33237500D01*
G75*
G02*
X63925000Y-33456250I0J-218750D01*
G01*
G37*
%TD.AperFunction*%
%TD*%
D38*
%TO.P,Q1,3*%
%TO.N,VDD_RTC*%
X68500000Y-26100000D03*
%TO.P,Q1,2*%
%TO.N,VDD_3V3B*%
X66500000Y-27050000D03*
%TO.P,Q1,1*%
%TO.N,Net-(Q1-Pad1)*%
X66500000Y-25150000D03*
%TD*%
%TO.P,R1,2*%
%TO.N,GND*%
%TA.AperFunction,SMDPad,CuDef*%
G36*
G01*
X82171250Y-111892500D02*
X81658750Y-111892500D01*
G75*
G02*
X81440000Y-111673750I0J218750D01*
G01*
X81440000Y-111236250D01*
G75*
G02*
X81658750Y-111017500I218750J0D01*
G01*
X82171250Y-111017500D01*
G75*
G02*
X82390000Y-111236250I0J-218750D01*
G01*
X82390000Y-111673750D01*
G75*
G02*
X82171250Y-111892500I-218750J0D01*
G01*
G37*
%TD.AperFunction*%
%TO.P,R1,1*%
%TO.N,CGND*%
%TA.AperFunction,SMDPad,CuDef*%
G36*
G01*
X82171250Y-113467500D02*
X81658750Y-113467500D01*
G75*
G02*
X81440000Y-113248750I0J218750D01*
G01*
X81440000Y-112811250D01*
G75*
G02*
X81658750Y-112592500I218750J0D01*
G01*
X82171250Y-112592500D01*
G75*
G02*
X82390000Y-112811250I0J-218750D01*
G01*
X82390000Y-113248750D01*
G75*
G02*
X82171250Y-113467500I-218750J0D01*
G01*
G37*
%TD.AperFunction*%
%TD*%
%TO.P,R22,2*%
%TO.N,GND*%
%TA.AperFunction,SMDPad,CuDef*%
G36*
G01*
X70219650Y-34475700D02*
X69707150Y-34475700D01*
G75*
G02*
X69488400Y-34256950I0J218750D01*
G01*
X69488400Y-33819450D01*
G75*
G02*
X69707150Y-33600700I218750J0D01*
G01*
X70219650Y-33600700D01*
G75*
G02*
X70438400Y-33819450I0J-218750D01*
G01*
X70438400Y-34256950D01*
G75*
G02*
X70219650Y-34475700I-218750J0D01*
G01*
G37*
%TD.AperFunction*%
%TO.P,R22,1*%
%TO.N,Net-(LED1-Pad1)*%
%TA.AperFunction,SMDPad,CuDef*%
G36*
G01*
X70219650Y-36050700D02*
X69707150Y-36050700D01*
G75*
G02*
X69488400Y-35831950I0J218750D01*
G01*
X69488400Y-35394450D01*
G75*
G02*
X69707150Y-35175700I218750J0D01*
G01*
X70219650Y-35175700D01*
G75*
G02*
X70438400Y-35394450I0J-218750D01*
G01*
X70438400Y-35831950D01*
G75*
G02*
X70219650Y-36050700I-218750J0D01*
G01*
G37*
%TD.AperFunction*%
%TD*%
%TO.P,LED1,2*%
%TO.N,VDD_3V3AUX*%
%TA.AperFunction,SMDPad,CuDef*%
G36*
G01*
X69718750Y-39025000D02*
X70231250Y-39025000D01*
G75*
G02*
X70450000Y-39243750I0J-218750D01*
G01*
X70450000Y-39681250D01*
G75*
G02*
X70231250Y-39900000I-218750J0D01*
G01*
X69718750Y-39900000D01*
G75*
G02*
X69500000Y-39681250I0J218750D01*
G01*
X69500000Y-39243750D01*
G75*
G02*
X69718750Y-39025000I218750J0D01*
G01*
G37*
%TD.AperFunction*%
%TO.P,LED1,1*%
%TO.N,Net-(LED1-Pad1)*%
%TA.AperFunction,SMDPad,CuDef*%
G36*
G01*
X69718750Y-37450000D02*
X70231250Y-37450000D01*
G75*
G02*
X70450000Y-37668750I0J-218750D01*
G01*
X70450000Y-38106250D01*
G75*
G02*
X70231250Y-38325000I-218750J0D01*
G01*
X69718750Y-38325000D01*
G75*
G02*
X69500000Y-38106250I0J218750D01*
G01*
X69500000Y-37668750D01*
G75*
G02*
X69718750Y-37450000I218750J0D01*
G01*
G37*
%TD.AperFunction*%
%TD*%
D11*
%TO.P,PWR1,4*%
%TO.N,/Interfaces/PWR_ON*%
X79323280Y-32826720D03*
%TO.P,PWR1,3*%
X79323280Y-36824680D03*
%TO.P,PWR1,2*%
%TO.N,GND*%
X77824680Y-32826720D03*
%TO.P,PWR1,1*%
X77824680Y-36824680D03*
%TD*%
D40*
%TO.P,D1,2*%
%TO.N,GND*%
X53100000Y-117400000D03*
%TO.P,D1,1*%
%TO.N,Net-(D1-Pad1)*%
X53100000Y-110600000D03*
%TD*%
D41*
%TO.P,F1,2*%
%TO.N,VDD_5V*%
X63100000Y-90800000D03*
%TO.P,F1,1*%
%TO.N,+5V*%
X63100000Y-95710000D03*
%TD*%
D42*
%TO.P,L1,2*%
%TO.N,+5V*%
X64800000Y-111050000D03*
%TO.P,L1,1*%
%TO.N,Net-(D1-Pad1)*%
X64800000Y-120950000D03*
%TD*%
D43*
%TO.N,GND*%
X44097600Y-59584800D03*
X44097600Y-60854800D03*
D44*
X53902000Y-63407500D03*
X48822000Y-58327500D03*
X48758500Y-68487500D03*
D43*
X44097600Y-65934800D03*
X44097600Y-67204800D03*
D44*
X81900000Y-110100000D03*
X43712600Y-63400000D03*
X72217600Y-31125000D03*
D43*
X45890000Y-38982000D03*
X54500000Y-78000000D03*
D44*
X34000000Y-97500000D03*
X26800000Y-98300000D03*
X53600000Y-107700000D03*
X59200000Y-106800000D03*
X54400000Y-120700000D03*
X24800000Y-58500000D03*
D43*
X32290000Y-75500000D03*
D44*
X62190000Y-78140000D03*
D43*
X77500000Y-62500000D03*
X67000000Y-64500000D03*
X71100000Y-77800000D03*
X68072000Y-43180000D03*
X66040000Y-45720000D03*
X70104000Y-50546000D03*
D44*
%TO.N,VDD_5V*%
X59794800Y-61515200D03*
X60455200Y-61515200D03*
X63100000Y-81400000D03*
X63100000Y-82100000D03*
X63100000Y-80700000D03*
X63100000Y-80000000D03*
X61115600Y-61515200D03*
%TO.N,USB_DC*%
X60455200Y-62785200D03*
X61115600Y-62785200D03*
X59794800Y-62785200D03*
X24900000Y-54100000D03*
X48800000Y-51400000D03*
%TO.N,VDD_3V3A*%
X47552000Y-63344000D03*
X50219000Y-63344000D03*
X48796600Y-64664800D03*
%TO.N,VDD_3V3B*%
X46250000Y-66000000D03*
X63400000Y-37800000D03*
X50100000Y-78800000D03*
D43*
X66548000Y-41148000D03*
%TO.N,VDD_3V3AUX*%
X46280000Y-60280000D03*
D44*
X62000000Y-42187511D03*
%TO.N,SYS_5V*%
X51300000Y-65900000D03*
D43*
%TO.N,VDD_RTC*%
X51340000Y-60250000D03*
D44*
X70000000Y-26500000D03*
X59500000Y-31200000D03*
D43*
X67564000Y-45720000D03*
%TO.N,Net-(TP1-Pad1)*%
X54900000Y-60880000D03*
X35306000Y-28956000D03*
%TO.N,Net-(TP2-Pad1)*%
X55140000Y-69840000D03*
X72425137Y-91400000D03*
%TO.N,Net-(TP3-Pad1)*%
X53830000Y-69870000D03*
X72425137Y-91960848D03*
%TO.N,Net-(TP4-Pad1)*%
X43770000Y-69700000D03*
X72425137Y-92780000D03*
%TO.N,Net-(TP5-Pad1)*%
X42490000Y-60870000D03*
X34036000Y-28956000D03*
%TO.N,Net-(TP6-Pad1)*%
X42477460Y-59620000D03*
X32258000Y-28956000D03*
D44*
%TO.N,Net-(TP7-Pad1)*%
X60455200Y-64004400D03*
X59794800Y-64004400D03*
X61115600Y-64004400D03*
%TO.N,CGND*%
X26600000Y-29700000D03*
D43*
%TO.N,/Sistem In Package/OSC_OUT*%
X47414000Y-29076000D03*
X48176000Y-32632000D03*
%TO.N,/Peripherals/SPI0_D1*%
X29200000Y-57900000D03*
%TO.N,/Peripherals/SPI0_D0*%
X30699992Y-57900000D03*
%TO.N,/Peripherals/UART0_TX*%
X34800000Y-61300000D03*
%TO.N,/Peripherals/SPI0_SCLK*%
X30022748Y-57900000D03*
%TO.N,/Peripherals/UART0_RX*%
X34100000Y-61300000D03*
%TO.N,/Peripherals/SPI0_CS0*%
X28300000Y-57900000D03*
%TO.N,/Sistem In Package/AIN51.8V*%
X41280000Y-63500000D03*
%TO.N,/Sistem In Package/AIN61.8V*%
X41250000Y-62250000D03*
%TO.N,/Interfaces/MMC0_DAT2*%
X32290000Y-79340000D03*
X41120000Y-53410000D03*
%TO.N,/Interfaces/MMC0_CD*%
X32290000Y-72941470D03*
X41190000Y-55810000D03*
%TO.N,/Interfaces/MMC0_CMD*%
X39890000Y-53360000D03*
X32290000Y-77420000D03*
%TO.N,/Interfaces/MMC0_CLK*%
X32300000Y-76390000D03*
X39910000Y-55850000D03*
%TO.N,/Interfaces/MMC0_DAT0*%
X32290000Y-74520000D03*
X38740000Y-54560000D03*
%TO.N,/Interfaces/MMC0_DAT1*%
X32290000Y-73551067D03*
X39940000Y-54560000D03*
D44*
%TO.N,/USB1_VBU*%
X53880000Y-55730000D03*
D43*
%TO.N,/Interfaces/MMC0_DAT3*%
X32290000Y-78320000D03*
X42490000Y-55810000D03*
%TO.N,Net-(J6-Pad1)*%
X71750000Y-66500000D03*
X70000000Y-62750000D03*
%TO.N,/I2C1_SDA*%
X39897460Y-60850000D03*
X68260000Y-61050000D03*
%TO.N,/I2C1_SCL*%
X41090000Y-60850000D03*
X66006721Y-62086700D03*
%TO.N,/GPIO_A8*%
X60740000Y-55110000D03*
X72710000Y-39380000D03*
%TO.N,/GPIO_A7*%
X60740000Y-55940000D03*
X72710000Y-41250000D03*
%TO.N,/GPIO_A5*%
X60740000Y-57190000D03*
X72710000Y-45630000D03*
%TO.N,Net-(TP8-Pad1)*%
X62030000Y-66950000D03*
X67930000Y-79970000D03*
%TO.N,Net-(TP9-Pad1)*%
X61120000Y-67000000D03*
X67930000Y-83410000D03*
%TO.N,/GPIO_A6*%
X60740000Y-56510000D03*
X72710000Y-43580000D03*
%TD*%
D45*
%TO.N,*%
X38750000Y-85500000D02*
X38982099Y-85267901D01*
%TO.N,GND*%
X44355000Y-58957540D02*
X44355000Y-59004000D01*
X52793000Y-59407000D02*
X53242460Y-58957540D01*
X52759000Y-59407000D02*
X52793000Y-59407000D01*
X49432460Y-58937960D02*
X48822000Y-58327500D01*
X49432460Y-58957540D02*
X49432460Y-58937960D01*
X53869960Y-63407500D02*
X53242460Y-64035000D01*
X53902000Y-63407500D02*
X53869960Y-63407500D01*
X48758500Y-68438500D02*
X48165000Y-67845000D01*
X48758500Y-68487500D02*
X48758500Y-68438500D01*
X81915000Y-111455000D02*
X81915000Y-110315000D01*
X81915000Y-110315000D02*
X81915000Y-110115000D01*
X81915000Y-110115000D02*
X81900000Y-110100000D01*
X77375000Y-31075000D02*
X77824680Y-31524680D01*
X77824680Y-31524680D02*
X77824680Y-32826720D01*
X75625000Y-31125000D02*
X75675000Y-31075000D01*
X69917600Y-33425000D02*
X69963400Y-33379200D01*
X72217600Y-31125000D02*
X69917600Y-33425000D01*
X75625000Y-31125000D02*
X72217600Y-31125000D01*
X75975000Y-34975000D02*
X77824680Y-36824680D01*
X75975000Y-31075000D02*
X75975000Y-34975000D01*
X75975000Y-31075000D02*
X77375000Y-31075000D01*
X75675000Y-31075000D02*
X75975000Y-31075000D01*
X69917600Y-33992400D02*
X69963400Y-34038200D01*
X69917600Y-33425000D02*
X69917600Y-33992400D01*
D46*
X47388500Y-39236000D02*
X46144000Y-39236000D01*
X46144000Y-39236000D02*
X45890000Y-38982000D01*
X52199800Y-77400000D02*
X52199800Y-77699800D01*
X52199800Y-77699800D02*
X52500000Y-78000000D01*
X52750980Y-77850980D02*
X52900000Y-78000000D01*
X52500000Y-78000000D02*
X52900000Y-78000000D01*
X52750980Y-77400000D02*
X52750980Y-77850980D01*
X52900000Y-78000000D02*
X53200000Y-78000000D01*
X53248820Y-77400000D02*
X53248820Y-77751180D01*
X53200000Y-77800000D02*
X53200000Y-78000000D01*
X53248820Y-77751180D02*
X53200000Y-77800000D01*
X53800000Y-78000000D02*
X53800000Y-77400000D01*
X53200000Y-78000000D02*
X53800000Y-78000000D01*
X54595480Y-78000000D02*
X55199800Y-77395680D01*
X55146660Y-78000000D02*
X55750980Y-77395680D01*
X54595480Y-78000000D02*
X55146660Y-78000000D01*
X54300000Y-78000000D02*
X54595480Y-78000000D01*
X53800000Y-78000000D02*
X54300000Y-78000000D01*
X55750980Y-76994360D02*
X55750980Y-77395680D01*
X55827181Y-76918159D02*
X55750980Y-76994360D01*
X56723799Y-76918159D02*
X55827181Y-76918159D01*
X56800000Y-76994360D02*
X56723799Y-76918159D01*
X56800000Y-77395680D02*
X56800000Y-76994360D01*
X48200100Y-77695680D02*
X47151080Y-77695680D01*
X51904120Y-77695680D02*
X52199800Y-77400000D01*
X47151080Y-77695680D02*
X51904120Y-77695680D01*
X47031701Y-77218159D02*
X47151080Y-77337538D01*
X44925021Y-77218159D02*
X47031701Y-77218159D01*
X47151080Y-77337538D02*
X47151080Y-77695680D01*
X44848820Y-77294360D02*
X44925021Y-77218159D01*
X44848820Y-77695680D02*
X44848820Y-77294360D01*
X43799800Y-77695680D02*
X44848820Y-77695680D01*
D45*
X34000000Y-115100000D02*
X37000000Y-112100000D01*
X32300000Y-115100000D02*
X34000000Y-115100000D01*
X28467910Y-96632090D02*
X30544590Y-96632090D01*
X26800000Y-98300000D02*
X28467910Y-96632090D01*
X27832090Y-99332090D02*
X26800000Y-98300000D01*
X31400000Y-100200000D02*
X30532090Y-99332090D01*
X30544590Y-96632090D02*
X31412500Y-97500000D01*
X30532090Y-99332090D02*
X27832090Y-99332090D01*
X26800000Y-98300000D02*
X26800000Y-100500000D01*
X26800000Y-100500000D02*
X27900000Y-101600000D01*
X30100000Y-101600000D02*
X31412500Y-102912500D01*
X27900000Y-101600000D02*
X30100000Y-101600000D01*
X35650000Y-97500000D02*
X37200000Y-99050000D01*
X52425000Y-103725000D02*
X52425000Y-106525000D01*
X52425000Y-106525000D02*
X53600000Y-107700000D01*
X56756000Y-103725000D02*
X59200000Y-106169000D01*
X55825000Y-103725000D02*
X56756000Y-103725000D01*
X59200000Y-106169000D02*
X59200000Y-106800000D01*
X53100000Y-117400000D02*
X53100000Y-119400000D01*
X53100000Y-119400000D02*
X54400000Y-120700000D01*
X34400000Y-97500000D02*
X34000000Y-97500000D01*
X34400000Y-97500000D02*
X35650000Y-97500000D01*
X31412500Y-97500000D02*
X34400000Y-97500000D01*
X53600000Y-107800000D02*
X53600000Y-107700000D01*
X52425000Y-103725000D02*
X52425000Y-94575000D01*
X20850000Y-57800000D02*
X24100000Y-57800000D01*
X24100000Y-57800000D02*
X24800000Y-58500000D01*
D46*
X32191680Y-75598320D02*
X32290000Y-75500000D01*
X29666391Y-75598320D02*
X32191680Y-75598320D01*
D45*
X62867910Y-75434590D02*
X62000000Y-76302500D01*
X62867910Y-73080410D02*
X62867910Y-75434590D01*
X62000000Y-72212500D02*
X62867910Y-73080410D01*
X62867910Y-77462090D02*
X62190000Y-78140000D01*
X62867910Y-73080410D02*
X62867910Y-77462090D01*
D46*
X75740000Y-61085000D02*
X75740000Y-63035000D01*
X75740000Y-63035000D02*
X76215000Y-63035000D01*
X75740000Y-62385000D02*
X77385000Y-62385000D01*
X77385000Y-62385000D02*
X77500000Y-62500000D01*
X78250000Y-62500000D02*
X77500000Y-62500000D01*
X79000000Y-63250000D02*
X78250000Y-62500000D01*
X78030000Y-68112500D02*
X79000000Y-67142500D01*
X79000000Y-67142500D02*
X79000000Y-63250000D01*
X66067000Y-42997000D02*
X66392000Y-43322000D01*
X65962000Y-42997000D02*
X66067000Y-42997000D01*
X66392000Y-43322000D02*
X67930000Y-43322000D01*
X67930000Y-43322000D02*
X68072000Y-43180000D01*
X66040000Y-46939000D02*
X66040000Y-45720000D01*
X75425300Y-52565300D02*
X75425300Y-51274980D01*
X75425300Y-47002700D02*
X75946000Y-46482000D01*
X75946000Y-46482000D02*
X76454000Y-46482000D01*
X75425300Y-47277020D02*
X75425300Y-47002700D01*
X76454000Y-46482000D02*
X76708000Y-46736000D01*
X76708000Y-46736000D02*
X76708000Y-52578000D01*
X75425300Y-52565300D02*
X75692000Y-52832000D01*
X75692000Y-52832000D02*
X76454000Y-52832000D01*
X76454000Y-52832000D02*
X76708000Y-52578000D01*
X69989700Y-48597820D02*
X69989700Y-50431700D01*
X69989700Y-50431700D02*
X70104000Y-50546000D01*
X75425300Y-52590700D02*
X75425300Y-52565300D01*
X74422000Y-53594000D02*
X75425300Y-52590700D01*
X71120000Y-53594000D02*
X74422000Y-53594000D01*
X70104000Y-50546000D02*
X70104000Y-52578000D01*
X70104000Y-52578000D02*
X71120000Y-53594000D01*
X78283000Y-37283000D02*
X77824680Y-36824680D01*
X78283000Y-44958000D02*
X78283000Y-37283000D01*
D45*
%TO.N,Net-(D1-Pad1)*%
X64800000Y-120950000D02*
X58050000Y-120950000D01*
X58050000Y-120950000D02*
X57500000Y-120400000D01*
X57500000Y-115000000D02*
X53100000Y-110600000D01*
X57500000Y-120400000D02*
X57500000Y-115000000D01*
X50725000Y-108225000D02*
X50725000Y-103725000D01*
X53100000Y-110600000D02*
X50725000Y-108225000D01*
%TO.N,+5V*%
X33392901Y-100392901D02*
X31367910Y-98367910D01*
X38224321Y-100392901D02*
X33392901Y-100392901D01*
X31367910Y-98367910D02*
X30855410Y-98367910D01*
X39500000Y-99117222D02*
X38224321Y-100392901D01*
X30855410Y-98367910D02*
X29987500Y-97500000D01*
X39500000Y-99050000D02*
X39500000Y-99117222D01*
X54125000Y-105475000D02*
X56550000Y-107900000D01*
X54125000Y-103725000D02*
X54125000Y-105475000D01*
X61650000Y-107900000D02*
X64800000Y-111050000D01*
X56550000Y-107900000D02*
X61650000Y-107900000D01*
X39500000Y-92750000D02*
X39500000Y-99050000D01*
X63100000Y-109350000D02*
X64800000Y-111050000D01*
X63100000Y-95710000D02*
X63100000Y-109350000D01*
X60000000Y-94566000D02*
X60000000Y-90616389D01*
X44250000Y-88000000D02*
X39500000Y-92750000D01*
X57383611Y-88000000D02*
X44250000Y-88000000D01*
X60000000Y-90616389D02*
X57383611Y-88000000D01*
X63100000Y-95710000D02*
X61144000Y-95710000D01*
X61144000Y-95710000D02*
X60000000Y-94566000D01*
%TO.N,+3V3*%
X39782090Y-101067910D02*
X41800000Y-99050000D01*
X30842910Y-101067910D02*
X39782090Y-101067910D01*
X29975000Y-100200000D02*
X30842910Y-101067910D01*
%TO.N,VDD_5V*%
X63100000Y-82100000D02*
X63100000Y-81400000D01*
X63100000Y-90800000D02*
X63100000Y-88100000D01*
X63100000Y-81400000D02*
X63100000Y-80200000D01*
X63100000Y-80200000D02*
X63100000Y-79900008D01*
X43533410Y-87466590D02*
X59983410Y-87466590D01*
X59983410Y-87466590D02*
X63100000Y-84350000D01*
X42216590Y-88783410D02*
X43533410Y-87466590D01*
X63100000Y-84350000D02*
X63100000Y-80200000D01*
X63100000Y-88100000D02*
X63100000Y-84350000D01*
X33982099Y-86732099D02*
X33982099Y-86868593D01*
X33750000Y-86500000D02*
X33982099Y-86732099D01*
X35896916Y-88783410D02*
X42216590Y-88783410D01*
X33982099Y-86868593D02*
X35896916Y-88783410D01*
%TO.N,USB_DC*%
X20850000Y-55200000D02*
X23800000Y-55200000D01*
X23800000Y-55200000D02*
X24900000Y-54100000D01*
X49432460Y-53877540D02*
X49432460Y-52032460D01*
X49432460Y-52032460D02*
X48800000Y-51400000D01*
%TO.N,VDD_3V3A*%
X48165000Y-65305000D02*
X48165000Y-64035000D01*
%TO.N,VDD_3V3B*%
X66430000Y-26980000D02*
X66500000Y-27050000D01*
X63467500Y-26980000D02*
X66430000Y-26980000D01*
X64267910Y-32932090D02*
X63487500Y-33712500D01*
X64267910Y-27780410D02*
X64267910Y-32932090D01*
X63467500Y-26980000D02*
X64267910Y-27780410D01*
X63400000Y-33800000D02*
X63487500Y-33712500D01*
X46895000Y-65305000D02*
X46895000Y-65455000D01*
X63400000Y-37800000D02*
X63400000Y-33800000D01*
X46895000Y-65455000D02*
X46350000Y-66000000D01*
X45400000Y-77695680D02*
X45400000Y-78200000D01*
X45400000Y-78200000D02*
X46000000Y-78800000D01*
X46000000Y-78800000D02*
X46900000Y-78800000D01*
X46599900Y-78499900D02*
X46599900Y-77695680D01*
X46900000Y-78800000D02*
X46599900Y-78499900D01*
X56248820Y-78351180D02*
X56248820Y-77395680D01*
X55800000Y-78800000D02*
X56248820Y-78351180D01*
D46*
X50000000Y-78800000D02*
X50100000Y-78800000D01*
D45*
X50000000Y-78800000D02*
X55800000Y-78800000D01*
X46900000Y-78800000D02*
X50000000Y-78800000D01*
X34995680Y-73500000D02*
X34995680Y-75100200D01*
X34995680Y-76000000D02*
X34995680Y-77600200D01*
X34995680Y-75100200D02*
X34995680Y-76000000D01*
X28486561Y-77797960D02*
X27500000Y-78784521D01*
X29666391Y-77797960D02*
X28486561Y-77797960D01*
X27500000Y-78784521D02*
X27500000Y-81000000D01*
X27500000Y-81000000D02*
X29000000Y-82500000D01*
X35500000Y-82500000D02*
X36500000Y-81500000D01*
X36500000Y-79104520D02*
X34995680Y-77600200D01*
X36500000Y-81500000D02*
X36500000Y-79104520D01*
X46000000Y-78800000D02*
X46000000Y-80690000D01*
X44190000Y-82500000D02*
X35350000Y-82500000D01*
X46000000Y-80690000D02*
X44190000Y-82500000D01*
X29000000Y-82500000D02*
X35350000Y-82500000D01*
X35350000Y-82500000D02*
X35500000Y-82500000D01*
X58077500Y-78800000D02*
X55800000Y-78800000D01*
X62000000Y-74877500D02*
X58077500Y-78800000D01*
X61132090Y-74009590D02*
X62000000Y-74877500D01*
X61132090Y-71679406D02*
X61132090Y-74009590D01*
X62000000Y-70811496D02*
X61132090Y-71679406D01*
X62000000Y-70787500D02*
X62000000Y-70811496D01*
X71440000Y-64612500D02*
X73460000Y-66632500D01*
X71440000Y-63035000D02*
X71440000Y-64612500D01*
X77975000Y-66632500D02*
X78030000Y-66687500D01*
X73460000Y-66632500D02*
X77975000Y-66632500D01*
X68175000Y-64612500D02*
X62000000Y-70787500D01*
X71440000Y-64612500D02*
X68175000Y-64612500D01*
X38750000Y-86500000D02*
X38750000Y-87500000D01*
X38750000Y-87500000D02*
X39500000Y-88250000D01*
X39500000Y-88250000D02*
X41250000Y-88250000D01*
X44190000Y-85310000D02*
X44190000Y-82500000D01*
X41250000Y-88250000D02*
X44190000Y-85310000D01*
D46*
X66392000Y-42672000D02*
X67056000Y-42672000D01*
X67056000Y-42672000D02*
X67056000Y-41910000D01*
X67056000Y-41910000D02*
X67056000Y-41656000D01*
X67056000Y-41656000D02*
X66548000Y-41148000D01*
D45*
%TO.N,VDD_3V3AUX*%
X45625000Y-60227540D02*
X45727540Y-60227540D01*
X69963400Y-39450900D02*
X69975000Y-39462500D01*
X69963400Y-39145300D02*
X69963400Y-39450900D01*
X69975000Y-39462500D02*
X64725011Y-39462500D01*
X64725011Y-39462500D02*
X62000000Y-42187511D01*
%TO.N,VDD_RTC*%
X69600000Y-26100000D02*
X68500000Y-26100000D01*
X57200000Y-31200000D02*
X59500000Y-31200000D01*
X60300000Y-30400000D02*
X61912500Y-30400000D01*
X59500000Y-31200000D02*
X60300000Y-30400000D01*
X69600000Y-26100000D02*
X70000000Y-26500000D01*
X51972460Y-60227540D02*
X51972460Y-60027540D01*
X51943459Y-60198539D02*
X51972460Y-60227540D01*
X50731461Y-60198539D02*
X50702460Y-60227540D01*
X70000000Y-26500000D02*
X70000000Y-26500000D01*
X59500000Y-31200000D02*
X59500000Y-31200000D01*
X68694300Y-46398180D02*
X68242180Y-46398180D01*
X68242180Y-46398180D02*
X67564000Y-45720000D01*
D46*
%TO.N,Net-(TP1-Pad1)*%
X54512460Y-60887540D02*
X54500000Y-60900000D01*
X54512460Y-60887540D02*
X54512460Y-60227540D01*
X54812460Y-60987540D02*
X54900000Y-60900000D01*
X54512460Y-60987540D02*
X54812460Y-60987540D01*
X54512460Y-60987540D02*
X54512460Y-60887540D01*
X54512460Y-61497540D02*
X54512460Y-60987540D01*
X35306000Y-28956000D02*
X35306000Y-28448000D01*
X37846000Y-25908000D02*
X38354000Y-25908000D01*
X35306000Y-28448000D02*
X37846000Y-25908000D01*
%TO.N,Net-(TP2-Pad1)*%
X54512460Y-69115000D02*
X54512460Y-67845000D01*
X54512460Y-69115000D02*
X55140000Y-69742540D01*
X55140000Y-69742540D02*
X55140000Y-69840000D01*
X76450000Y-91400000D02*
X76600000Y-91250000D01*
X72425137Y-91400000D02*
X76450000Y-91400000D01*
%TO.N,Net-(TP3-Pad1)*%
X51972460Y-69115000D02*
X53242460Y-69115000D01*
X53242460Y-69115000D02*
X53830000Y-69702540D01*
X53830000Y-69702540D02*
X53830000Y-69870000D01*
X72425137Y-91960848D02*
X73614289Y-93150000D01*
X73614289Y-93150000D02*
X80780000Y-93150000D01*
X81500000Y-93870000D02*
X81500000Y-95200000D01*
X80780000Y-93150000D02*
X81500000Y-93870000D01*
%TO.N,Net-(TP4-Pad1)*%
X43085000Y-69115000D02*
X44355000Y-69115000D01*
X44355000Y-69115000D02*
X43770000Y-69700000D01*
X72425137Y-92780000D02*
X76755137Y-97110000D01*
X76755137Y-97110000D02*
X80960000Y-97110000D01*
X81700000Y-97850000D02*
X81700000Y-99500000D01*
X80960000Y-97110000D02*
X81700000Y-97850000D01*
%TO.N,Net-(TP5-Pad1)*%
X41815000Y-61497540D02*
X43085000Y-61497540D01*
X43085000Y-61497540D02*
X43085000Y-61465000D01*
X43085000Y-61465000D02*
X42490000Y-60870000D01*
X34036000Y-26670000D02*
X33274000Y-25908000D01*
X34036000Y-28956000D02*
X34036000Y-26670000D01*
%TO.N,Net-(TP6-Pad1)*%
X41815000Y-60227540D02*
X43085000Y-60227540D01*
X43085000Y-60227540D02*
X42477460Y-59620000D01*
X29210000Y-25908000D02*
X29080000Y-25908000D01*
X32258000Y-28956000D02*
X29210000Y-25908000D01*
D45*
%TO.N,Net-(TP7-Pad1)*%
X55782460Y-64035000D02*
X58322460Y-64035000D01*
X61085000Y-64035000D02*
X61115600Y-64004400D01*
X58322460Y-64035000D02*
X61085000Y-64035000D01*
X61115600Y-64004400D02*
X61979600Y-64004400D01*
X81462000Y-56642000D02*
X81720000Y-56900000D01*
X69342000Y-56642000D02*
X81462000Y-56642000D01*
X61979600Y-64004400D02*
X69342000Y-56642000D01*
%TO.N,Net-(LED1-Pad1)*%
X69963400Y-34954200D02*
X69963400Y-37570300D01*
%TO.N,Net-(Q1-Pad1)*%
X55200000Y-30250000D02*
X55200000Y-28300000D01*
X56520000Y-26980000D02*
X61892500Y-26980000D01*
X55200000Y-28300000D02*
X56520000Y-26980000D01*
X66450000Y-25100000D02*
X66500000Y-25150000D01*
X62200000Y-25100000D02*
X66450000Y-25100000D01*
X61892500Y-26980000D02*
X61892500Y-25407500D01*
X61892500Y-25407500D02*
X62200000Y-25100000D01*
%TO.N,CGND*%
X81915000Y-113030000D02*
X81915000Y-114300000D01*
X81915000Y-114300000D02*
X81915000Y-114935000D01*
X81915000Y-114935000D02*
X84455000Y-117475000D01*
X26600000Y-29700000D02*
X26600000Y-25800000D01*
X26600000Y-25800000D02*
X21300000Y-20500000D01*
X20810000Y-52750000D02*
X25490000Y-48070000D01*
X18000000Y-52750000D02*
X20810000Y-52750000D01*
X18000000Y-55350000D02*
X18000000Y-57650000D01*
X18000000Y-55350000D02*
X18000000Y-52750000D01*
X18000000Y-57650000D02*
X18000000Y-60250000D01*
X19567351Y-68067351D02*
X19567351Y-71148240D01*
X18000000Y-60250000D02*
X18000000Y-66500000D01*
X18000000Y-66500000D02*
X19567351Y-68067351D01*
X18000000Y-66500000D02*
X13500000Y-66500000D01*
X19567351Y-86647320D02*
X16852680Y-86647320D01*
X16852680Y-86647320D02*
X14000000Y-89500000D01*
X14000000Y-89500000D02*
X13500000Y-89500000D01*
X29168551Y-85745620D02*
X29168551Y-87331449D01*
X29168551Y-87331449D02*
X28500000Y-88000000D01*
X20920031Y-88000000D02*
X19567351Y-86647320D01*
X28500000Y-88000000D02*
X20920031Y-88000000D01*
X20215591Y-70500000D02*
X19567351Y-71148240D01*
X29066951Y-71138080D02*
X28428871Y-70500000D01*
X28428871Y-70500000D02*
X20215591Y-70500000D01*
D46*
%TO.N,Net-(IC1-Pad4)*%
X73047860Y-46398180D02*
X73926700Y-47277020D01*
X73926700Y-51274980D02*
X73926700Y-52565300D01*
X73926700Y-52565300D02*
X73660000Y-52832000D01*
X73660000Y-52832000D02*
X71628000Y-52832000D01*
X71628000Y-52832000D02*
X71374000Y-52578000D01*
X71374000Y-46482000D02*
X71457820Y-46398180D01*
X69989700Y-46398180D02*
X71457820Y-46398180D01*
X71374000Y-52578000D02*
X71374000Y-46482000D01*
X71457820Y-46398180D02*
X73047860Y-46398180D01*
X66294000Y-44450000D02*
X68041520Y-44450000D01*
X65532000Y-43322000D02*
X65532000Y-43688000D01*
X68041520Y-44450000D02*
X69989700Y-46398180D01*
X65532000Y-43688000D02*
X66294000Y-44450000D01*
%TO.N,/Sistem In Package/OSC_GND*%
X47396500Y-34473000D02*
X47441500Y-34518000D01*
X47396500Y-31160000D02*
X47396500Y-34473000D01*
X54000000Y-54635080D02*
X54512460Y-55147540D01*
X54000000Y-41100000D02*
X54000000Y-54635080D01*
X53134939Y-40234939D02*
X54000000Y-41100000D01*
X47441500Y-34518000D02*
X53134939Y-40211439D01*
X53134939Y-40211439D02*
X53134939Y-40234939D01*
%TO.N,/Sistem In Package/OSC_OUT*%
X47344000Y-27000000D02*
X47344000Y-29006000D01*
X47344000Y-29006000D02*
X47414000Y-29076000D01*
X48866500Y-33322500D02*
X48176000Y-32632000D01*
X48866500Y-34518000D02*
X48866500Y-33322500D01*
X42500000Y-27000000D02*
X47344000Y-27000000D01*
X40505000Y-31530000D02*
X40505000Y-28995000D01*
X40505000Y-28995000D02*
X42500000Y-27000000D01*
X49218000Y-34518000D02*
X48866500Y-34518000D01*
X54500000Y-39800000D02*
X49218000Y-34518000D01*
X54512460Y-53877540D02*
X54500000Y-53865080D01*
X54500000Y-53865080D02*
X54500000Y-39800000D01*
%TO.N,/Sistem In Package/OSC_IN*%
X48919000Y-31062500D02*
X48821500Y-31160000D01*
X48919000Y-27000000D02*
X48919000Y-31062500D01*
X48821500Y-30737500D02*
X48176000Y-30092000D01*
X48176000Y-30092000D02*
X45643000Y-30092000D01*
X48821500Y-31160000D02*
X48821500Y-30737500D01*
X45643000Y-30092000D02*
X44205000Y-31530000D01*
X48821500Y-31160000D02*
X48821500Y-32007500D01*
X48821500Y-32007500D02*
X55542000Y-38728000D01*
X55782460Y-38968460D02*
X55542000Y-38728000D01*
X55782460Y-53877540D02*
X55782460Y-38968460D01*
%TO.N,/Interfaces/PWR_ON*%
X80100000Y-32900000D02*
X79396560Y-32900000D01*
X79323280Y-38076720D02*
X79746560Y-38500000D01*
X79323280Y-36824680D02*
X79323280Y-38076720D01*
X79746560Y-38500000D02*
X80300000Y-38500000D01*
X80300000Y-38500000D02*
X80500000Y-38300000D01*
X79396560Y-32900000D02*
X79323280Y-32826720D01*
X80500000Y-33300000D02*
X80100000Y-32900000D01*
X80500000Y-38300000D02*
X80500000Y-33300000D01*
X59542460Y-60227540D02*
X58322460Y-60227540D01*
X63890000Y-55880000D02*
X59542460Y-60227540D01*
X78486000Y-55880000D02*
X69596000Y-55880000D01*
X69596000Y-55880000D02*
X63890000Y-55880000D01*
X83058000Y-42926000D02*
X83058000Y-51308000D01*
X80500000Y-38300000D02*
X80500000Y-40368000D01*
X69850000Y-55880000D02*
X69596000Y-55880000D01*
X80500000Y-40368000D02*
X83058000Y-42926000D01*
X83058000Y-51308000D02*
X78486000Y-55880000D01*
D45*
%TO.N,/Sistem In Package/VREF-*%
X40545000Y-62767540D02*
X39275000Y-62767540D01*
X35157460Y-62767540D02*
X34150000Y-63775000D01*
X39275000Y-62767540D02*
X35157460Y-62767540D01*
%TO.N,/Sistem In Package/VREF+*%
X40545000Y-65305000D02*
X39275000Y-65305000D01*
X39170000Y-65200000D02*
X39275000Y-65305000D01*
X34150000Y-65200000D02*
X39170000Y-65200000D01*
%TO.N,/Interfaces/IN_PWR_SUPPLY*%
X32300000Y-109100000D02*
X32300000Y-107800000D01*
X29987500Y-105487500D02*
X29987500Y-102912500D01*
X32300000Y-107800000D02*
X29987500Y-105487500D01*
X32300000Y-109100000D02*
X32300000Y-109000000D01*
X32300000Y-109000000D02*
X40800000Y-109000000D01*
X49025000Y-106775000D02*
X49025000Y-103725000D01*
X40700000Y-109000000D02*
X46800000Y-109000000D01*
X46800000Y-109000000D02*
X49025000Y-106775000D01*
D46*
%TO.N,/Peripherals/SPI0_D1*%
X40067351Y-56895189D02*
X30204813Y-56895189D01*
X30204813Y-56895189D02*
X29200000Y-57900002D01*
X40545000Y-56417540D02*
X40067351Y-56895189D01*
%TO.N,/Peripherals/SPI0_D0*%
X37700000Y-58200000D02*
X37200000Y-57700000D01*
X30899992Y-57700000D02*
X30699992Y-57900000D01*
X37200000Y-57700000D02*
X30899992Y-57700000D01*
X40545000Y-57687540D02*
X40032540Y-58200000D01*
X40032540Y-58200000D02*
X37700000Y-58200000D01*
%TO.N,/Peripherals/UART0_TX*%
X40545000Y-58957540D02*
X40067479Y-59435061D01*
X36664939Y-59435061D02*
X34800000Y-61300000D01*
X40067479Y-59435061D02*
X36664939Y-59435061D01*
%TO.N,/Peripherals/SPI0_SCLK*%
X38887460Y-57300000D02*
X30546595Y-57300000D01*
X30546595Y-57300000D02*
X30022748Y-57823847D01*
X39275000Y-57687540D02*
X38887460Y-57300000D01*
%TO.N,/Peripherals/UART0_RX*%
X39275000Y-58957540D02*
X36442460Y-58957540D01*
X36442460Y-58957540D02*
X34100000Y-61300000D01*
%TO.N,/Peripherals/SPI0_CS0*%
X29782460Y-56417540D02*
X28300000Y-57900000D01*
X39275000Y-56417540D02*
X29782460Y-56417540D01*
D45*
%TO.N,Net-(R2-Pad2)*%
X55200000Y-32150000D02*
X55200000Y-32300000D01*
X56612500Y-33712500D02*
X61912500Y-33712500D01*
X55200000Y-32300000D02*
X56612500Y-33712500D01*
X61912500Y-33712500D02*
X61912500Y-32587500D01*
X63487500Y-31012500D02*
X63487500Y-30400000D01*
X61912500Y-32587500D02*
X63487500Y-31012500D01*
D46*
%TO.N,Net-(R5-Pad1)*%
X51224000Y-39236000D02*
X48989000Y-39236000D01*
X53242460Y-53257540D02*
X53600000Y-52900000D01*
X53200000Y-50900000D02*
X53200000Y-41212000D01*
X53242460Y-53877540D02*
X53242460Y-53257540D01*
X53600000Y-52900000D02*
X53600000Y-51300000D01*
X53600000Y-51300000D02*
X53200000Y-50900000D01*
X53200000Y-41212000D02*
X51224000Y-39236000D01*
%TO.N,/Sistem In Package/LCD_D15_M3*%
X56800000Y-75118794D02*
X56800000Y-76400000D01*
X53395191Y-73995191D02*
X55676397Y-73995191D01*
X52500000Y-73100000D02*
X53395191Y-73995191D01*
X55676397Y-73995191D02*
X56800000Y-75118794D01*
X52500000Y-71127460D02*
X52500000Y-73100000D01*
X53242460Y-70385000D02*
X52500000Y-71127460D01*
%TO.N,/Sistem In Package/LCD_D14_L1*%
X56248820Y-76400000D02*
X56248820Y-75998680D01*
X56248820Y-74998680D02*
X55550142Y-74300002D01*
X53268935Y-74300002D02*
X51972460Y-73003527D01*
X51972460Y-73003527D02*
X51972460Y-72925000D01*
X55550142Y-74300002D02*
X53268935Y-74300002D01*
X56248820Y-74998680D02*
X56248820Y-75998680D01*
%TO.N,/Sistem In Package/LCD_D13_L2*%
X55750980Y-75998680D02*
X55750980Y-76400000D01*
X51494939Y-72132521D02*
X51494939Y-73154211D01*
X52945537Y-74604809D02*
X55357109Y-74604809D01*
X51972460Y-71655000D02*
X51494939Y-72132521D01*
X55750980Y-74998680D02*
X55750980Y-75998680D01*
X51494939Y-73154211D02*
X52945537Y-74604809D01*
X55357109Y-74604809D02*
X55750980Y-74998680D01*
%TO.N,/Sistem In Package/LCD_D12_L3*%
X52819280Y-74909618D02*
X51190129Y-73280467D01*
X51190129Y-71167331D02*
X51972460Y-70385000D01*
X51190129Y-73280467D02*
X51190129Y-71167331D01*
X55199800Y-74999800D02*
X55199800Y-76400000D01*
X55109618Y-74909618D02*
X55199800Y-74999800D01*
X52819280Y-74909618D02*
X55109618Y-74909618D01*
%TO.N,/Sistem In Package/LCD_D11_K1*%
X50702460Y-73277026D02*
X52639862Y-75214428D01*
X50702460Y-72925000D02*
X50702460Y-73277026D01*
X53800000Y-76003000D02*
X53800000Y-76404320D01*
X53011428Y-75214428D02*
X53800000Y-76003000D01*
X52639862Y-75214428D02*
X53011428Y-75214428D01*
%TO.N,/Sistem In Package/LCD_D10_K2*%
X50224939Y-73324939D02*
X52419238Y-75519238D01*
X50702460Y-71655000D02*
X50224939Y-72132521D01*
X50224939Y-72132521D02*
X50224939Y-73324939D01*
X53248820Y-75948820D02*
X53248820Y-76404320D01*
X52819238Y-75519238D02*
X53248820Y-75948820D01*
X52419238Y-75519238D02*
X52819238Y-75519238D01*
%TO.N,/Sistem In Package/LCD_D9_K3*%
X52750980Y-76046178D02*
X52750980Y-76404320D01*
X52631601Y-75926799D02*
X52750980Y-76046178D01*
X49920130Y-73451196D02*
X52395733Y-75926799D01*
X52395733Y-75926799D02*
X52631601Y-75926799D01*
X49920130Y-71167330D02*
X49920130Y-73451196D01*
X50702460Y-70385000D02*
X49920130Y-71167330D01*
%TO.N,/Sistem In Package/LCD_D8_J1*%
X49432460Y-73636980D02*
X52199800Y-76404320D01*
X49432460Y-72925000D02*
X49432460Y-73636980D01*
%TO.N,/Sistem In Package/LCD_D7_J2*%
X48954939Y-75945161D02*
X48200100Y-76700000D01*
X48954939Y-72132521D02*
X48954939Y-75945161D01*
X49432460Y-71655000D02*
X48954939Y-72132521D01*
%TO.N,/Sistem In Package/LCD_D6_J3*%
X47648920Y-76341858D02*
X47648920Y-76700000D01*
X48642521Y-75348257D02*
X47648920Y-76341858D01*
X48642521Y-71174939D02*
X48642521Y-75348257D01*
X49432460Y-70385000D02*
X48642521Y-71174939D01*
%TO.N,/Sistem In Package/LCD_D5_H1*%
X47151080Y-76387578D02*
X47151080Y-76700000D01*
X48165000Y-75373658D02*
X47151080Y-76387578D01*
X48165000Y-72925000D02*
X48165000Y-75373658D01*
%TO.N,/Sistem In Package/LCD_D4_H2*%
X46599900Y-76440918D02*
X46599900Y-76700000D01*
X47687479Y-75353339D02*
X46599900Y-76440918D01*
X47687479Y-72132521D02*
X47687479Y-75353339D01*
X48165000Y-71655000D02*
X47687479Y-72132521D01*
%TO.N,/Sistem In Package/LCD_D3_H3*%
X45287479Y-76587479D02*
X45400000Y-76700000D01*
X47382669Y-74717331D02*
X45400000Y-76700000D01*
X47382669Y-71167331D02*
X47382669Y-74717331D01*
X48165000Y-70385000D02*
X47382669Y-71167331D01*
%TO.N,/Sistem In Package/LCD_D2_G1*%
X46895000Y-72925000D02*
X46861000Y-72925000D01*
X46895000Y-72925000D02*
X46895000Y-74295678D01*
X44848820Y-76341858D02*
X44848820Y-76700000D01*
X46895000Y-74295678D02*
X44848820Y-76341858D01*
%TO.N,/Sistem In Package/LCD_D1_G2*%
X44350980Y-76408632D02*
X44350980Y-76700000D01*
X46417479Y-72132521D02*
X46417479Y-74342133D01*
X46417479Y-74342133D02*
X44350980Y-76408632D01*
X46895000Y-71655000D02*
X46417479Y-72132521D01*
%TO.N,/Sistem In Package/LCD_D0_G3*%
X43712669Y-76612869D02*
X43799800Y-76700000D01*
X43799800Y-76440918D02*
X43799800Y-76700000D01*
X46102521Y-74138197D02*
X43799800Y-76440918D01*
X46102521Y-71177479D02*
X46102521Y-74138197D01*
X46895000Y-70385000D02*
X46102521Y-71177479D01*
D45*
%TO.N,Net-(U2-PadD6)*%
X43085000Y-65305000D02*
X43085000Y-66575000D01*
D46*
%TO.N,/Sistem In Package/AIN51.8V*%
X41815000Y-64035000D02*
X41280000Y-63500000D01*
%TO.N,/Sistem In Package/AIN61.8V*%
X41815000Y-62767540D02*
X41297460Y-62250000D01*
X41297460Y-62250000D02*
X41250000Y-62250000D01*
%TO.N,/USB0_ID*%
X50224939Y-55940019D02*
X50702460Y-56417540D01*
X49425034Y-54355061D02*
X50224939Y-55154966D01*
X49203249Y-54355061D02*
X49425034Y-54355061D01*
X48954939Y-54106751D02*
X49203249Y-54355061D01*
X27350000Y-57150000D02*
X38500000Y-46000000D01*
X48954939Y-52454939D02*
X48954939Y-54106751D01*
X20850000Y-57150000D02*
X27350000Y-57150000D01*
X48000000Y-51500000D02*
X48954939Y-52454939D01*
X50224939Y-55154966D02*
X50224939Y-55940019D01*
X38500000Y-46000000D02*
X45500000Y-46000000D01*
X45500000Y-46000000D02*
X48000000Y-48500000D01*
X48000000Y-48500000D02*
X48000000Y-51500000D01*
D47*
%TO.N,/USB0_D-*%
X21900001Y-55850000D02*
X20850000Y-55850000D01*
X49639912Y-47095639D02*
X49610765Y-47035113D01*
X49654861Y-47161133D02*
X49639912Y-47095639D01*
X49654861Y-47228312D02*
X49654861Y-47161133D01*
X49380762Y-47687534D02*
X49395711Y-47622040D01*
X49610765Y-47354332D02*
X49639912Y-47293806D01*
X49424858Y-47561514D02*
X49466744Y-47508991D01*
X48863935Y-47170708D02*
X48796756Y-47170708D01*
X49568879Y-47406855D02*
X49610765Y-47354332D01*
X49197137Y-46940705D02*
X49144614Y-46982591D01*
X49466744Y-47508991D02*
X49568879Y-47406855D01*
X49390336Y-46896609D02*
X49323157Y-46896609D01*
X49395711Y-47622040D02*
X49424858Y-47561514D01*
X49424858Y-47880733D02*
X49395711Y-47820207D01*
X22059901Y-56009900D02*
X21900001Y-55850000D01*
X50702460Y-53877540D02*
X50702460Y-49168972D01*
X50702460Y-49168972D02*
X49466744Y-47933256D01*
X48989955Y-47126612D02*
X48929429Y-47155759D01*
X48796756Y-47170708D02*
X48731262Y-47155759D01*
X48731262Y-47155759D02*
X48670736Y-47126612D01*
X49395711Y-47820207D02*
X49380762Y-47754713D01*
X49466744Y-47933256D02*
X49424858Y-47880733D01*
X49380762Y-47754713D02*
X49380762Y-47687534D01*
X49455830Y-46911558D02*
X49390336Y-46896609D01*
X49639912Y-47293806D02*
X49654861Y-47228312D01*
X48929429Y-47155759D02*
X48863935Y-47170708D01*
X49144614Y-46982591D02*
X49042478Y-47084726D01*
X25956612Y-56009900D02*
X22059901Y-56009900D01*
X48670736Y-47126612D02*
X48618215Y-47084727D01*
X49568879Y-46982591D02*
X49516356Y-46940705D01*
X49516356Y-46940705D02*
X49455830Y-46911558D01*
X49323157Y-46896609D02*
X49257663Y-46911558D01*
X49257663Y-46911558D02*
X49197137Y-46940705D01*
X49610765Y-47035113D02*
X49568879Y-46982591D01*
X49042478Y-47084726D02*
X48989955Y-47126612D01*
X48618215Y-47084727D02*
X45968388Y-44434900D01*
X45968388Y-44434900D02*
X37531612Y-44434900D01*
X37531612Y-44434900D02*
X25956612Y-56009900D01*
%TO.N,/USB0_D+*%
X45831612Y-44765100D02*
X37668388Y-44765100D01*
X50702460Y-55147540D02*
X50372260Y-54817340D01*
X50372260Y-54817340D02*
X50372260Y-54232908D01*
X50372260Y-54232908D02*
X50239239Y-54099887D01*
X50239239Y-53655193D02*
X50372260Y-53522172D01*
X50372260Y-53522172D02*
X50372260Y-49305748D01*
X50372260Y-49305748D02*
X45831612Y-44765100D01*
X22059901Y-56340100D02*
X21900001Y-56500000D01*
X37668388Y-44765100D02*
X26093388Y-56340100D01*
X26093388Y-56340100D02*
X22059901Y-56340100D01*
X21900001Y-56500000D02*
X20850000Y-56500000D01*
X50239239Y-54099887D02*
X50239239Y-53655193D01*
%TO.N,/USB1_D+*%
X28200000Y-42830200D02*
X28200000Y-42500000D01*
X29034900Y-41665100D02*
X46331612Y-41665100D01*
X51509239Y-54490761D02*
X51972460Y-54953982D01*
X51509239Y-53655193D02*
X51509239Y-54490761D01*
X28200000Y-42500000D02*
X29034900Y-41665100D01*
X46331612Y-41665100D02*
X51642260Y-46975748D01*
X51642260Y-46975748D02*
X51642260Y-53522172D01*
X51972460Y-54953982D02*
X51972460Y-55147540D01*
X51642260Y-53522172D02*
X51509239Y-53655193D01*
%TO.N,/USB1_D-*%
X28530200Y-40830200D02*
X28200000Y-40500000D01*
X46468388Y-41334900D02*
X29034900Y-41334900D01*
X51972460Y-51727540D02*
X51972460Y-46838972D01*
X52002169Y-51857705D02*
X51979981Y-51794296D01*
X52142294Y-51997830D02*
X52085413Y-51962089D01*
X52085413Y-51962089D02*
X52037910Y-51914586D01*
X52272460Y-52027540D02*
X52205703Y-52020018D01*
X51972460Y-46838972D02*
X46468388Y-41334900D01*
X52416906Y-52027540D02*
X52272460Y-52027540D01*
X52603952Y-52092990D02*
X52547071Y-52057249D01*
X52651455Y-52140493D02*
X52603952Y-52092990D01*
X52037910Y-51914586D02*
X52002169Y-51857705D01*
X52205703Y-52020018D02*
X52142294Y-51997830D01*
X52687196Y-52197374D02*
X52651455Y-52140493D01*
X52547071Y-52057249D02*
X52483662Y-52035061D01*
X52709384Y-52260783D02*
X52687196Y-52197374D01*
X52716906Y-52327540D02*
X52709384Y-52260783D01*
X52085413Y-52692990D02*
X52142294Y-52657249D01*
X52002169Y-52797374D02*
X52037910Y-52740493D01*
X51972460Y-53877540D02*
X51972460Y-52927540D01*
X29034900Y-41334900D02*
X28200000Y-40500000D01*
X52483662Y-52035061D02*
X52416906Y-52027540D01*
X51972460Y-52927540D02*
X51979981Y-52860783D01*
X52142294Y-52657249D02*
X52205703Y-52635061D01*
X51979981Y-52860783D02*
X52002169Y-52797374D01*
X52483662Y-52620018D02*
X52547071Y-52597830D01*
X52272460Y-52627540D02*
X52416906Y-52627540D01*
X51979981Y-51794296D02*
X51972460Y-51727540D01*
X52037910Y-52740493D02*
X52085413Y-52692990D01*
X52205703Y-52635061D02*
X52272460Y-52627540D01*
X52651455Y-52514586D02*
X52687196Y-52457705D01*
X52687196Y-52457705D02*
X52709384Y-52394296D01*
X52416906Y-52627540D02*
X52483662Y-52620018D01*
X52547071Y-52597830D02*
X52603952Y-52562089D01*
X52603952Y-52562089D02*
X52651455Y-52514586D01*
X52709384Y-52394296D02*
X52716906Y-52327540D01*
D46*
%TO.N,/Interfaces/MMC0_DAT2*%
X29666391Y-81097420D02*
X30502780Y-81097420D01*
X32580100Y-79020100D02*
X34000000Y-77600200D01*
X30502780Y-81097420D02*
X32580100Y-79020100D01*
X41587540Y-53877540D02*
X41815000Y-53877540D01*
X41120000Y-53410000D02*
X41587540Y-53877540D01*
%TO.N,/Interfaces/MMC0_CD*%
X33441470Y-72941470D02*
X32057716Y-72941470D01*
X29666391Y-72298860D02*
X31415106Y-72298860D01*
X34000000Y-73500000D02*
X33441470Y-72941470D01*
X31415106Y-72298860D02*
X32057716Y-72941470D01*
X41207460Y-55810000D02*
X41815000Y-56417540D01*
X41190000Y-55810000D02*
X41207460Y-55810000D01*
%TO.N,/Interfaces/MMC0_CMD*%
X32290000Y-77420000D02*
X33158820Y-76551180D01*
X33158820Y-76551180D02*
X34000000Y-76551180D01*
X32180000Y-77420000D02*
X32290000Y-77420000D01*
X29666391Y-78897780D02*
X30702220Y-78897780D01*
X30702220Y-78897780D02*
X32180000Y-77420000D01*
X40407540Y-53877540D02*
X40545000Y-53877540D01*
X39890000Y-53360000D02*
X40407540Y-53877540D01*
%TO.N,/Interfaces/MMC0_CLK*%
X31981860Y-76698140D02*
X32020000Y-76660000D01*
X29666391Y-76698140D02*
X31981860Y-76698140D01*
X31981860Y-76698140D02*
X32680000Y-76000000D01*
X32680000Y-76000000D02*
X34000000Y-76000000D01*
X40545000Y-55215000D02*
X39910000Y-55850000D01*
X40545000Y-55147540D02*
X40545000Y-55215000D01*
%TO.N,/Interfaces/MMC0_DAT0*%
X32998500Y-74498500D02*
X33000000Y-74500000D01*
X32998500Y-74498500D02*
X33998500Y-74498500D01*
X31981500Y-74498500D02*
X31960000Y-74520000D01*
X31981500Y-74498500D02*
X32998500Y-74498500D01*
X29666391Y-74498500D02*
X31981500Y-74498500D01*
X39275000Y-54025000D02*
X38740000Y-54560000D01*
X39275000Y-53877540D02*
X39275000Y-54025000D01*
%TO.N,/Interfaces/MMC0_DAT1*%
X33926341Y-73977521D02*
X34000000Y-74051180D01*
X33522479Y-73931801D02*
X33568199Y-73977521D01*
X29666391Y-73398680D02*
X29817711Y-73550000D01*
X33498820Y-73550000D02*
X33522479Y-73573659D01*
X33522479Y-73573659D02*
X33522479Y-73931801D01*
X33568199Y-73977521D02*
X33926341Y-73977521D01*
X32090000Y-73550000D02*
X33498820Y-73550000D01*
X29817711Y-73550000D02*
X32090000Y-73550000D01*
X32090000Y-73550000D02*
X32061189Y-73550000D01*
X32061189Y-73550000D02*
X32060122Y-73551067D01*
X39352460Y-55147540D02*
X39940000Y-54560000D01*
X39275000Y-55147540D02*
X39352460Y-55147540D01*
D45*
%TO.N,/USB1_VBU*%
X53242460Y-55147540D02*
X53840000Y-55745080D01*
D46*
X53840000Y-55745080D02*
X53864920Y-55745080D01*
X53864920Y-55745080D02*
X53880000Y-55730000D01*
%TO.N,/Interfaces/MMC0_DAT3*%
X29666391Y-79997600D02*
X30693278Y-79997600D01*
X33950980Y-77000000D02*
X34000000Y-77049020D01*
X33690878Y-77000000D02*
X33950980Y-77000000D01*
X32205439Y-78485439D02*
X33690878Y-77000000D01*
X30693278Y-79997600D02*
X32205439Y-78485439D01*
X41827540Y-55147540D02*
X42490000Y-55810000D01*
X41815000Y-55147540D02*
X41827540Y-55147540D01*
%TO.N,Net-(J6-Pad1)*%
X73460000Y-68207500D02*
X73460000Y-70460000D01*
X79000000Y-76000000D02*
X79000000Y-78325000D01*
X73460000Y-70460000D02*
X79000000Y-76000000D01*
X73460000Y-68207500D02*
X72957500Y-68207500D01*
X72957500Y-68207500D02*
X71750000Y-67000000D01*
X71750000Y-67000000D02*
X71750000Y-66500000D01*
X71440000Y-62385000D02*
X70365000Y-62385000D01*
X70365000Y-62385000D02*
X70000000Y-62750000D01*
%TO.N,/I2C1_SDA*%
X39275000Y-60227540D02*
X39897460Y-60850000D01*
X71405000Y-61050000D02*
X71440000Y-61085000D01*
X68260000Y-61050000D02*
X71405000Y-61050000D01*
%TO.N,/I2C1_SCL*%
X40545000Y-60227540D02*
X41090000Y-60772540D01*
X41090000Y-60772540D02*
X41090000Y-60850000D01*
X66358421Y-61735000D02*
X71440000Y-61735000D01*
X66006721Y-62086700D02*
X66358421Y-61735000D01*
%TO.N,/PMIC_PGOOD*%
X57052460Y-60227540D02*
X57529980Y-59750020D01*
X69342000Y-49989067D02*
X69342000Y-48597820D01*
X59581047Y-59750020D02*
X69342000Y-49989067D01*
X57529980Y-59750020D02*
X59581047Y-59750020D01*
%TO.N,Net-(R11-Pad2)*%
X65302000Y-42672000D02*
X65532000Y-42672000D01*
X62738000Y-45236000D02*
X65302000Y-42672000D01*
X62738000Y-46990000D02*
X62738000Y-45236000D01*
%TO.N,/WARMRST*%
X55782460Y-60227540D02*
X54512460Y-58957540D01*
X66040000Y-52860000D02*
X66040000Y-48514000D01*
X59454791Y-59445209D02*
X66040000Y-52860000D01*
X55782460Y-60227540D02*
X56564791Y-59445209D01*
X56564791Y-59445209D02*
X59454791Y-59445209D01*
X62738000Y-48565000D02*
X64059000Y-48565000D01*
X64059000Y-48565000D02*
X66040000Y-50546000D01*
%TO.N,Net-(D2-Pad1)*%
X75114000Y-39300000D02*
X74676000Y-38862000D01*
X76708000Y-38862000D02*
X76270000Y-39300000D01*
X76270000Y-39300000D02*
X75114000Y-39300000D01*
%TO.N,/GPIO_A8*%
X74036000Y-38862000D02*
X73152000Y-38862000D01*
X73152000Y-38862000D02*
X72644000Y-39370000D01*
X60294810Y-55635190D02*
X60310000Y-55620000D01*
X55782460Y-56417540D02*
X56564810Y-55635190D01*
X56564810Y-55635190D02*
X60294810Y-55635190D01*
X60820000Y-55110000D02*
X60829998Y-55110000D01*
X60294810Y-55635190D02*
X60820000Y-55110000D01*
X72644000Y-39370000D02*
X72644000Y-39376000D01*
X72644000Y-39376000D02*
X72640000Y-39380000D01*
%TO.N,Net-(D3-Pad1)*%
X76586500Y-40990000D02*
X76682500Y-40894000D01*
X74742000Y-40640000D02*
X75092000Y-40990000D01*
X75092000Y-40990000D02*
X76586500Y-40990000D01*
%TO.N,/GPIO_A7*%
X57052460Y-56417540D02*
X57530000Y-55940000D01*
X57530000Y-55940000D02*
X59840000Y-55940000D01*
X59840000Y-55940000D02*
X60780000Y-55940000D01*
X74102000Y-40640000D02*
X73330000Y-40640000D01*
X73330000Y-40640000D02*
X72720000Y-41250000D01*
X72720000Y-41250000D02*
X72710000Y-41250000D01*
%TO.N,Net-(D4-Pad1)*%
X76414000Y-43220000D02*
X76708000Y-42926000D01*
X74676000Y-42926000D02*
X74970000Y-43220000D01*
X74970000Y-43220000D02*
X76414000Y-43220000D01*
%TO.N,/GPIO_A5*%
X60385061Y-56895061D02*
X60730000Y-57240000D01*
X55782460Y-57687540D02*
X56574939Y-56895061D01*
X56574939Y-56895061D02*
X60385061Y-56895061D01*
X60730000Y-57240000D02*
X60730000Y-57200000D01*
X60730000Y-57200000D02*
X60740000Y-57190000D01*
X74168000Y-44958000D02*
X73382000Y-44958000D01*
X73382000Y-44958000D02*
X72710000Y-45630000D01*
%TO.N,Net-(D5-Pad1)*%
X74808000Y-44958000D02*
X75240000Y-45390000D01*
X76276000Y-45390000D02*
X76708000Y-44958000D01*
X75240000Y-45390000D02*
X76276000Y-45390000D01*
%TO.N,Net-(TP8-Pad1)*%
X60870000Y-65790000D02*
X62030000Y-66950000D01*
X54512460Y-65305000D02*
X54997460Y-65790000D01*
X54997460Y-65790000D02*
X60870000Y-65790000D01*
X70250000Y-80750000D02*
X68670000Y-80750000D01*
X68670000Y-80750000D02*
X67900000Y-79980000D01*
X67900000Y-79980000D02*
X67920000Y-79980000D01*
X67920000Y-79980000D02*
X67930000Y-79970000D01*
%TO.N,Net-(TP9-Pad1)*%
X55335190Y-66094810D02*
X60190000Y-66094810D01*
X54512460Y-66575000D02*
X54992650Y-66094810D01*
X54992650Y-66094810D02*
X55335190Y-66094810D01*
X60190000Y-66094810D02*
X61112595Y-67017405D01*
X61112595Y-67017405D02*
X61112595Y-67007405D01*
X61112595Y-67007405D02*
X61120000Y-67000000D01*
X68380000Y-84000000D02*
X67790000Y-83410000D01*
X70250000Y-84000000D02*
X68380000Y-84000000D01*
%TO.N,/GPIO_A6*%
X60662503Y-56470000D02*
X60740000Y-56547497D01*
X58322460Y-56417540D02*
X58374920Y-56470000D01*
X58374920Y-56470000D02*
X60662503Y-56470000D01*
X74036000Y-42926000D02*
X73454000Y-42926000D01*
X73454000Y-42926000D02*
X72800000Y-43580000D01*
%TD*%
D48*
%TO.N,GND*%
G36*
X53437492Y-58644566D02*
G01*
X52711282Y-59280000D01*
X52325090Y-59280000D01*
X52289894Y-59261187D01*
X52134286Y-59213984D01*
X51972460Y-59198046D01*
X51810635Y-59213984D01*
X51655027Y-59261187D01*
X51619831Y-59280000D01*
X44758000Y-59280000D01*
X44733224Y-59282440D01*
X44709399Y-59289667D01*
X44687443Y-59301403D01*
X44668197Y-59317197D01*
X44652403Y-59336443D01*
X44640667Y-59358399D01*
X44633440Y-59382224D01*
X44631000Y-59407000D01*
X44631000Y-68168119D01*
X44021400Y-68159154D01*
X44021400Y-58632463D01*
X53437492Y-58644566D01*
G37*
X53437492Y-58644566D02*
X52711282Y-59280000D01*
X52325090Y-59280000D01*
X52289894Y-59261187D01*
X52134286Y-59213984D01*
X51972460Y-59198046D01*
X51810635Y-59213984D01*
X51655027Y-59261187D01*
X51619831Y-59280000D01*
X44758000Y-59280000D01*
X44733224Y-59282440D01*
X44709399Y-59289667D01*
X44687443Y-59301403D01*
X44668197Y-59317197D01*
X44652403Y-59336443D01*
X44640667Y-59358399D01*
X44633440Y-59382224D01*
X44631000Y-59407000D01*
X44631000Y-68168119D01*
X44021400Y-68159154D01*
X44021400Y-58632463D01*
X53437492Y-58644566D01*
G36*
X53521091Y-68170000D02*
G01*
X44080004Y-68170000D01*
X44805718Y-67535000D01*
X52759000Y-67535000D01*
X52783776Y-67532560D01*
X52807601Y-67525333D01*
X52829557Y-67513597D01*
X52848803Y-67497803D01*
X52864597Y-67478557D01*
X52876333Y-67456601D01*
X52883560Y-67432776D01*
X52886000Y-67408100D01*
X52892917Y-58645000D01*
X53527926Y-58645000D01*
X53521091Y-68170000D01*
G37*
X53521091Y-68170000D02*
X44080004Y-68170000D01*
X44805718Y-67535000D01*
X52759000Y-67535000D01*
X52783776Y-67532560D01*
X52807601Y-67525333D01*
X52829557Y-67513597D01*
X52848803Y-67497803D01*
X52864597Y-67478557D01*
X52876333Y-67456601D01*
X52883560Y-67432776D01*
X52886000Y-67408100D01*
X52892917Y-58645000D01*
X53527926Y-58645000D01*
X53521091Y-68170000D01*
%TO.N,VDD_5V*%
G36*
X61344200Y-61820000D02*
G01*
X55426000Y-61820000D01*
X55426000Y-61567181D01*
X55450513Y-61550802D01*
X55570802Y-61430513D01*
X55665313Y-61289068D01*
X55708419Y-61185000D01*
X61344200Y-61185000D01*
X61344200Y-61820000D01*
G37*
X61344200Y-61820000D02*
X55426000Y-61820000D01*
X55426000Y-61567181D01*
X55450513Y-61550802D01*
X55570802Y-61430513D01*
X55665313Y-61289068D01*
X55708419Y-61185000D01*
X61344200Y-61185000D01*
X61344200Y-61820000D01*
%TO.N,VDD_3V3A*%
G36*
X49744761Y-65630000D02*
G01*
X47839761Y-65630000D01*
X47839761Y-64487000D01*
X49744761Y-64487000D01*
X49744761Y-65630000D01*
G37*
X49744761Y-65630000D02*
X47839761Y-65630000D01*
X47839761Y-64487000D01*
X49744761Y-64487000D01*
X49744761Y-65630000D01*
%TO.N,GND*%
G36*
X49711000Y-69376500D02*
G01*
X47806000Y-69376500D01*
X47806000Y-68424000D01*
X49711000Y-68424000D01*
X49711000Y-69376500D01*
G37*
X49711000Y-69376500D02*
X47806000Y-69376500D01*
X47806000Y-68424000D01*
X49711000Y-68424000D01*
X49711000Y-69376500D01*
G36*
X49774500Y-58391000D02*
G01*
X47869500Y-58391000D01*
X47869500Y-57438500D01*
X49774500Y-57438500D01*
X49774500Y-58391000D01*
G37*
X49774500Y-58391000D02*
X47869500Y-58391000D01*
X47869500Y-57438500D01*
X49774500Y-57438500D01*
X49774500Y-58391000D01*
G36*
X54727500Y-64369353D02*
G01*
X53775000Y-64369353D01*
X53775000Y-62464353D01*
X54727500Y-62464353D01*
X54727500Y-64369353D01*
G37*
X54727500Y-64369353D02*
X53775000Y-64369353D01*
X53775000Y-62464353D01*
X54727500Y-62464353D01*
X54727500Y-64369353D01*
%TO.N,USB_DC*%
G36*
X61344200Y-63090000D02*
G01*
X61335856Y-63090000D01*
X61208162Y-63064600D01*
X61023038Y-63064600D01*
X60895344Y-63090000D01*
X60675456Y-63090000D01*
X60547762Y-63064600D01*
X60362638Y-63064600D01*
X60234944Y-63090000D01*
X60015056Y-63090000D01*
X59887362Y-63064600D01*
X59702238Y-63064600D01*
X59574544Y-63090000D01*
X55426000Y-63090000D01*
X55426000Y-62455000D01*
X61344200Y-62455000D01*
X61344200Y-63090000D01*
G37*
X61344200Y-63090000D02*
X61335856Y-63090000D01*
X61208162Y-63064600D01*
X61023038Y-63064600D01*
X60895344Y-63090000D01*
X60675456Y-63090000D01*
X60547762Y-63064600D01*
X60362638Y-63064600D01*
X60234944Y-63090000D01*
X60015056Y-63090000D01*
X59887362Y-63064600D01*
X59702238Y-63064600D01*
X59574544Y-63090000D01*
X55426000Y-63090000D01*
X55426000Y-62455000D01*
X61344200Y-62455000D01*
X61344200Y-63090000D01*
%TO.N,GND*%
G36*
X44623000Y-64334600D02*
G01*
X42802200Y-64334600D01*
X42802200Y-62505800D01*
X44623000Y-62505800D01*
X44623000Y-64334600D01*
G37*
X44623000Y-64334600D02*
X42802200Y-64334600D01*
X42802200Y-62505800D01*
X44623000Y-62505800D01*
X44623000Y-64334600D01*
%TO.N,CGND*%
G36*
X13843000Y-118745000D02*
G01*
X13845440Y-118769776D01*
X13852667Y-118793601D01*
X13864403Y-118815557D01*
X13877519Y-118832041D01*
X18957519Y-124229541D01*
X18976277Y-124245911D01*
X18997868Y-124258307D01*
X19021462Y-124266252D01*
X19049359Y-124269498D01*
X81914359Y-124586998D01*
X81945802Y-124583208D01*
X83657953Y-124155170D01*
X83216871Y-124461160D01*
X82374323Y-124876659D01*
X81479624Y-125163054D01*
X80542414Y-125315689D01*
X79985595Y-125340000D01*
X19211508Y-125340000D01*
X12660000Y-120660353D01*
X12660000Y-26162000D01*
X13843000Y-26162000D01*
X13843000Y-118745000D01*
G37*
X13843000Y-118745000D02*
X13845440Y-118769776D01*
X13852667Y-118793601D01*
X13864403Y-118815557D01*
X13877519Y-118832041D01*
X18957519Y-124229541D01*
X18976277Y-124245911D01*
X18997868Y-124258307D01*
X19021462Y-124266252D01*
X19049359Y-124269498D01*
X81914359Y-124586998D01*
X81945802Y-124583208D01*
X83657953Y-124155170D01*
X83216871Y-124461160D01*
X82374323Y-124876659D01*
X81479624Y-125163054D01*
X80542414Y-125315689D01*
X79985595Y-125340000D01*
X19211508Y-125340000D01*
X12660000Y-120660353D01*
X12660000Y-26162000D01*
X13843000Y-26162000D01*
X13843000Y-118745000D01*
G36*
X83544265Y-19745410D02*
G01*
X84282014Y-20327005D01*
X84925689Y-21011251D01*
X85461160Y-21783129D01*
X85876659Y-22625677D01*
X86163054Y-23520376D01*
X86315689Y-24457579D01*
X86340000Y-25014404D01*
X86340001Y-118560076D01*
X85127000Y-117514309D01*
X85127000Y-24229662D01*
X85216926Y-21594331D01*
X85215332Y-21569486D01*
X85208922Y-21545429D01*
X85197941Y-21523085D01*
X85179803Y-21500197D01*
X83274803Y-19595197D01*
X83259559Y-19582687D01*
X83544265Y-19745410D01*
G37*
X83544265Y-19745410D02*
X84282014Y-20327005D01*
X84925689Y-21011251D01*
X85461160Y-21783129D01*
X85876659Y-22625677D01*
X86163054Y-23520376D01*
X86315689Y-24457579D01*
X86340000Y-25014404D01*
X86340001Y-118560076D01*
X85127000Y-117514309D01*
X85127000Y-24229662D01*
X85216926Y-21594331D01*
X85215332Y-21569486D01*
X85208922Y-21545429D01*
X85197941Y-21523085D01*
X85179803Y-21500197D01*
X83274803Y-19595197D01*
X83259559Y-19582687D01*
X83544265Y-19745410D01*
G36*
X80936842Y-18731439D02*
G01*
X81853106Y-18938769D01*
X82728657Y-19279252D01*
X83232915Y-19567459D01*
X83209776Y-19560440D01*
X83185000Y-19558000D01*
X83164281Y-19559701D01*
X81269568Y-19873000D01*
X17790432Y-19873000D01*
X15895719Y-19559701D01*
X15870876Y-19558067D01*
X15846192Y-19561311D01*
X15822615Y-19569307D01*
X15801051Y-19581750D01*
X15785197Y-19595197D01*
X14515197Y-20865197D01*
X14499330Y-20884553D01*
X13229330Y-22789553D01*
X13217617Y-22811522D01*
X13210414Y-22835354D01*
X13208000Y-22860000D01*
X13208000Y-25908000D01*
X12660000Y-25908000D01*
X12660000Y-25024488D01*
X12731439Y-24063158D01*
X12938769Y-23146894D01*
X13279252Y-22271343D01*
X13745410Y-21455735D01*
X14327005Y-20717986D01*
X15011251Y-20074311D01*
X15783129Y-19538840D01*
X16625677Y-19123341D01*
X17520376Y-18836946D01*
X18457579Y-18684311D01*
X19014404Y-18660000D01*
X79975512Y-18660000D01*
X80936842Y-18731439D01*
G37*
X80936842Y-18731439D02*
X81853106Y-18938769D01*
X82728657Y-19279252D01*
X83232915Y-19567459D01*
X83209776Y-19560440D01*
X83185000Y-19558000D01*
X83164281Y-19559701D01*
X81269568Y-19873000D01*
X17790432Y-19873000D01*
X15895719Y-19559701D01*
X15870876Y-19558067D01*
X15846192Y-19561311D01*
X15822615Y-19569307D01*
X15801051Y-19581750D01*
X15785197Y-19595197D01*
X14515197Y-20865197D01*
X14499330Y-20884553D01*
X13229330Y-22789553D01*
X13217617Y-22811522D01*
X13210414Y-22835354D01*
X13208000Y-22860000D01*
X13208000Y-25908000D01*
X12660000Y-25908000D01*
X12660000Y-25024488D01*
X12731439Y-24063158D01*
X12938769Y-23146894D01*
X13279252Y-22271343D01*
X13745410Y-21455735D01*
X14327005Y-20717986D01*
X15011251Y-20074311D01*
X15783129Y-19538840D01*
X16625677Y-19123341D01*
X17520376Y-18836946D01*
X18457579Y-18684311D01*
X19014404Y-18660000D01*
X79975512Y-18660000D01*
X80936842Y-18731439D01*
G36*
X20328038Y-19196040D02*
G01*
X20663814Y-19252347D01*
X20991316Y-19345427D01*
X21306504Y-19474130D01*
X21605552Y-19636894D01*
X21884768Y-19831712D01*
X22140732Y-20056193D01*
X22370328Y-20307610D01*
X22570714Y-20582844D01*
X22739454Y-20878555D01*
X22874473Y-21191107D01*
X22974114Y-21516657D01*
X23037160Y-21851243D01*
X23062836Y-22190729D01*
X23050703Y-22534513D01*
X22917839Y-23996009D01*
X22861354Y-24410621D01*
X22768681Y-24815728D01*
X22640176Y-25210929D01*
X22476867Y-25593060D01*
X22280055Y-25959080D01*
X22051324Y-26306039D01*
X21792500Y-26631170D01*
X21505655Y-26931870D01*
X21190939Y-27207610D01*
X20781529Y-27535139D01*
X20451661Y-27777180D01*
X20105043Y-27989493D01*
X19741938Y-28172178D01*
X19364853Y-28323972D01*
X18976460Y-28443802D01*
X18579402Y-28530851D01*
X18173840Y-28584855D01*
X15854229Y-28795729D01*
X15521800Y-28806145D01*
X15194249Y-28777459D01*
X14872405Y-28710195D01*
X14560779Y-28605296D01*
X14263771Y-28464242D01*
X13985551Y-28289015D01*
X13730037Y-28082082D01*
X13500815Y-27846346D01*
X13301116Y-27585129D01*
X13133754Y-27302115D01*
X13001071Y-27001265D01*
X12904945Y-26686833D01*
X12846722Y-26363222D01*
X12827000Y-26031239D01*
X12827000Y-24007883D01*
X12844684Y-23647260D01*
X12858453Y-23554272D01*
X15697400Y-23554272D01*
X15697400Y-23994528D01*
X15783290Y-24426325D01*
X15951769Y-24833069D01*
X16196362Y-25199129D01*
X16507671Y-25510438D01*
X16873731Y-25755031D01*
X17280475Y-25923510D01*
X17712272Y-26009400D01*
X18152528Y-26009400D01*
X18584325Y-25923510D01*
X18991069Y-25755031D01*
X19357129Y-25510438D01*
X19668438Y-25199129D01*
X19913031Y-24833069D01*
X20081510Y-24426325D01*
X20167400Y-23994528D01*
X20167400Y-23554272D01*
X20081510Y-23122475D01*
X19913031Y-22715731D01*
X19668438Y-22349671D01*
X19357129Y-22038362D01*
X18991069Y-21793769D01*
X18584325Y-21625290D01*
X18152528Y-21539400D01*
X17712272Y-21539400D01*
X17280475Y-21625290D01*
X16873731Y-21793769D01*
X16507671Y-22038362D01*
X16196362Y-22349671D01*
X15951769Y-22715731D01*
X15783290Y-23122475D01*
X15697400Y-23554272D01*
X12858453Y-23554272D01*
X12880917Y-23402564D01*
X12938769Y-23146894D01*
X13279252Y-22271343D01*
X13484622Y-21912020D01*
X13799293Y-21440012D01*
X14087249Y-21051112D01*
X14412093Y-20692513D01*
X15009787Y-20094819D01*
X15107281Y-20007692D01*
X15783129Y-19538840D01*
X16008200Y-19427847D01*
X16189977Y-19352553D01*
X16526689Y-19255548D01*
X16872173Y-19196848D01*
X17225598Y-19177000D01*
X19984585Y-19177000D01*
X20328038Y-19196040D01*
G37*
X20328038Y-19196040D02*
X20663814Y-19252347D01*
X20991316Y-19345427D01*
X21306504Y-19474130D01*
X21605552Y-19636894D01*
X21884768Y-19831712D01*
X22140732Y-20056193D01*
X22370328Y-20307610D01*
X22570714Y-20582844D01*
X22739454Y-20878555D01*
X22874473Y-21191107D01*
X22974114Y-21516657D01*
X23037160Y-21851243D01*
X23062836Y-22190729D01*
X23050703Y-22534513D01*
X22917839Y-23996009D01*
X22861354Y-24410621D01*
X22768681Y-24815728D01*
X22640176Y-25210929D01*
X22476867Y-25593060D01*
X22280055Y-25959080D01*
X22051324Y-26306039D01*
X21792500Y-26631170D01*
X21505655Y-26931870D01*
X21190939Y-27207610D01*
X20781529Y-27535139D01*
X20451661Y-27777180D01*
X20105043Y-27989493D01*
X19741938Y-28172178D01*
X19364853Y-28323972D01*
X18976460Y-28443802D01*
X18579402Y-28530851D01*
X18173840Y-28584855D01*
X15854229Y-28795729D01*
X15521800Y-28806145D01*
X15194249Y-28777459D01*
X14872405Y-28710195D01*
X14560779Y-28605296D01*
X14263771Y-28464242D01*
X13985551Y-28289015D01*
X13730037Y-28082082D01*
X13500815Y-27846346D01*
X13301116Y-27585129D01*
X13133754Y-27302115D01*
X13001071Y-27001265D01*
X12904945Y-26686833D01*
X12846722Y-26363222D01*
X12827000Y-26031239D01*
X12827000Y-24007883D01*
X12844684Y-23647260D01*
X12858453Y-23554272D01*
X15697400Y-23554272D01*
X15697400Y-23994528D01*
X15783290Y-24426325D01*
X15951769Y-24833069D01*
X16196362Y-25199129D01*
X16507671Y-25510438D01*
X16873731Y-25755031D01*
X17280475Y-25923510D01*
X17712272Y-26009400D01*
X18152528Y-26009400D01*
X18584325Y-25923510D01*
X18991069Y-25755031D01*
X19357129Y-25510438D01*
X19668438Y-25199129D01*
X19913031Y-24833069D01*
X20081510Y-24426325D01*
X20167400Y-23994528D01*
X20167400Y-23554272D01*
X20081510Y-23122475D01*
X19913031Y-22715731D01*
X19668438Y-22349671D01*
X19357129Y-22038362D01*
X18991069Y-21793769D01*
X18584325Y-21625290D01*
X18152528Y-21539400D01*
X17712272Y-21539400D01*
X17280475Y-21625290D01*
X16873731Y-21793769D01*
X16507671Y-22038362D01*
X16196362Y-22349671D01*
X15951769Y-22715731D01*
X15783290Y-23122475D01*
X15697400Y-23554272D01*
X12858453Y-23554272D01*
X12880917Y-23402564D01*
X12938769Y-23146894D01*
X13279252Y-22271343D01*
X13484622Y-21912020D01*
X13799293Y-21440012D01*
X14087249Y-21051112D01*
X14412093Y-20692513D01*
X15009787Y-20094819D01*
X15107281Y-20007692D01*
X15783129Y-19538840D01*
X16008200Y-19427847D01*
X16189977Y-19352553D01*
X16526689Y-19255548D01*
X16872173Y-19196848D01*
X17225598Y-19177000D01*
X19984585Y-19177000D01*
X20328038Y-19196040D01*
G36*
X81390193Y-19196909D02*
G01*
X81814240Y-19256061D01*
X82231034Y-19354089D01*
X82636982Y-19490150D01*
X83028661Y-19663093D01*
X83402705Y-19871434D01*
X83755930Y-20113399D01*
X84085321Y-20386921D01*
X84388079Y-20689679D01*
X84661601Y-21019070D01*
X84903566Y-21372295D01*
X85111907Y-21746339D01*
X85284850Y-22138018D01*
X85420911Y-22543966D01*
X85518939Y-22960760D01*
X85578091Y-23384807D01*
X85598000Y-23815423D01*
X85598000Y-26330800D01*
X85577301Y-26650418D01*
X85516346Y-26960641D01*
X85415887Y-27260415D01*
X85277601Y-27544727D01*
X85103799Y-27808828D01*
X84897384Y-28048305D01*
X84661804Y-28259158D01*
X84401002Y-28437862D01*
X84119314Y-28581440D01*
X83821474Y-28687482D01*
X83512441Y-28754223D01*
X83197381Y-28780546D01*
X82877435Y-28765823D01*
X81769877Y-28642760D01*
X81361132Y-28579801D01*
X80961759Y-28483265D01*
X80571950Y-28353431D01*
X80194456Y-28191217D01*
X79831970Y-27997779D01*
X79487072Y-27774494D01*
X79162205Y-27522943D01*
X78857715Y-27243109D01*
X78188772Y-26574166D01*
X77904608Y-26264537D01*
X77649645Y-25933860D01*
X77423924Y-25582560D01*
X77229113Y-25213237D01*
X77066633Y-24828588D01*
X76937680Y-24431440D01*
X76843202Y-24024716D01*
X76790273Y-23655872D01*
X79197400Y-23655872D01*
X79197400Y-24096128D01*
X79283290Y-24527925D01*
X79451769Y-24934669D01*
X79696362Y-25300729D01*
X80007671Y-25612038D01*
X80373731Y-25856631D01*
X80780475Y-26025110D01*
X81212272Y-26111000D01*
X81652528Y-26111000D01*
X82084325Y-26025110D01*
X82491069Y-25856631D01*
X82857129Y-25612038D01*
X83168438Y-25300729D01*
X83413031Y-24934669D01*
X83581510Y-24527925D01*
X83667400Y-24096128D01*
X83667400Y-23655872D01*
X83581510Y-23224075D01*
X83413031Y-22817331D01*
X83168438Y-22451271D01*
X82857129Y-22139962D01*
X82491069Y-21895369D01*
X82084325Y-21726890D01*
X81652528Y-21641000D01*
X81212272Y-21641000D01*
X80780475Y-21726890D01*
X80373731Y-21895369D01*
X80007671Y-22139962D01*
X79696362Y-22451271D01*
X79451769Y-22817331D01*
X79283290Y-23224075D01*
X79197400Y-23655872D01*
X76790273Y-23655872D01*
X76783504Y-23608707D01*
X76644246Y-22216123D01*
X76630929Y-21883432D01*
X76657008Y-21555282D01*
X76721963Y-21232581D01*
X76824870Y-20919899D01*
X76964265Y-20621693D01*
X77138164Y-20342204D01*
X77344100Y-20085398D01*
X77579140Y-19854931D01*
X77839942Y-19654082D01*
X78122802Y-19485704D01*
X78423686Y-19352197D01*
X78738323Y-19255455D01*
X79062241Y-19196853D01*
X79394624Y-19177000D01*
X80959577Y-19177000D01*
X81390193Y-19196909D01*
G37*
X81390193Y-19196909D02*
X81814240Y-19256061D01*
X82231034Y-19354089D01*
X82636982Y-19490150D01*
X83028661Y-19663093D01*
X83402705Y-19871434D01*
X83755930Y-20113399D01*
X84085321Y-20386921D01*
X84388079Y-20689679D01*
X84661601Y-21019070D01*
X84903566Y-21372295D01*
X85111907Y-21746339D01*
X85284850Y-22138018D01*
X85420911Y-22543966D01*
X85518939Y-22960760D01*
X85578091Y-23384807D01*
X85598000Y-23815423D01*
X85598000Y-26330800D01*
X85577301Y-26650418D01*
X85516346Y-26960641D01*
X85415887Y-27260415D01*
X85277601Y-27544727D01*
X85103799Y-27808828D01*
X84897384Y-28048305D01*
X84661804Y-28259158D01*
X84401002Y-28437862D01*
X84119314Y-28581440D01*
X83821474Y-28687482D01*
X83512441Y-28754223D01*
X83197381Y-28780546D01*
X82877435Y-28765823D01*
X81769877Y-28642760D01*
X81361132Y-28579801D01*
X80961759Y-28483265D01*
X80571950Y-28353431D01*
X80194456Y-28191217D01*
X79831970Y-27997779D01*
X79487072Y-27774494D01*
X79162205Y-27522943D01*
X78857715Y-27243109D01*
X78188772Y-26574166D01*
X77904608Y-26264537D01*
X77649645Y-25933860D01*
X77423924Y-25582560D01*
X77229113Y-25213237D01*
X77066633Y-24828588D01*
X76937680Y-24431440D01*
X76843202Y-24024716D01*
X76790273Y-23655872D01*
X79197400Y-23655872D01*
X79197400Y-24096128D01*
X79283290Y-24527925D01*
X79451769Y-24934669D01*
X79696362Y-25300729D01*
X80007671Y-25612038D01*
X80373731Y-25856631D01*
X80780475Y-26025110D01*
X81212272Y-26111000D01*
X81652528Y-26111000D01*
X82084325Y-26025110D01*
X82491069Y-25856631D01*
X82857129Y-25612038D01*
X83168438Y-25300729D01*
X83413031Y-24934669D01*
X83581510Y-24527925D01*
X83667400Y-24096128D01*
X83667400Y-23655872D01*
X83581510Y-23224075D01*
X83413031Y-22817331D01*
X83168438Y-22451271D01*
X82857129Y-22139962D01*
X82491069Y-21895369D01*
X82084325Y-21726890D01*
X81652528Y-21641000D01*
X81212272Y-21641000D01*
X80780475Y-21726890D01*
X80373731Y-21895369D01*
X80007671Y-22139962D01*
X79696362Y-22451271D01*
X79451769Y-22817331D01*
X79283290Y-23224075D01*
X79197400Y-23655872D01*
X76790273Y-23655872D01*
X76783504Y-23608707D01*
X76644246Y-22216123D01*
X76630929Y-21883432D01*
X76657008Y-21555282D01*
X76721963Y-21232581D01*
X76824870Y-20919899D01*
X76964265Y-20621693D01*
X77138164Y-20342204D01*
X77344100Y-20085398D01*
X77579140Y-19854931D01*
X77839942Y-19654082D01*
X78122802Y-19485704D01*
X78423686Y-19352197D01*
X78738323Y-19255455D01*
X79062241Y-19196853D01*
X79394624Y-19177000D01*
X80959577Y-19177000D01*
X81390193Y-19196909D01*
G36*
X84204964Y-116352350D02*
G01*
X84585695Y-116412652D01*
X84958056Y-116512425D01*
X85317942Y-116650572D01*
X85661417Y-116825581D01*
X85984705Y-117035527D01*
X86284291Y-117278127D01*
X86340001Y-117333837D01*
X86340001Y-118975498D01*
X86268561Y-119936841D01*
X86061231Y-120853106D01*
X85720748Y-121728657D01*
X85254590Y-122544265D01*
X84672995Y-123282014D01*
X83988749Y-123925689D01*
X83216871Y-124461160D01*
X82374323Y-124876659D01*
X81479624Y-125163054D01*
X80542414Y-125315689D01*
X79985595Y-125340000D01*
X78042234Y-125340000D01*
X77826576Y-125124342D01*
X77604890Y-124850583D01*
X77413044Y-124555167D01*
X77253122Y-124241302D01*
X77126885Y-123912443D01*
X77035714Y-123572183D01*
X76980610Y-123224277D01*
X76962000Y-122869173D01*
X76962000Y-121453837D01*
X76980664Y-121026376D01*
X77036151Y-120604900D01*
X77128162Y-120189870D01*
X77244695Y-119820272D01*
X79045000Y-119820272D01*
X79045000Y-120260528D01*
X79130890Y-120692325D01*
X79299369Y-121099069D01*
X79543962Y-121465129D01*
X79855271Y-121776438D01*
X80221331Y-122021031D01*
X80628075Y-122189510D01*
X81059872Y-122275400D01*
X81500128Y-122275400D01*
X81931925Y-122189510D01*
X82338669Y-122021031D01*
X82704729Y-121776438D01*
X83016038Y-121465129D01*
X83260631Y-121099069D01*
X83429110Y-120692325D01*
X83515000Y-120260528D01*
X83515000Y-119820272D01*
X83429110Y-119388475D01*
X83260631Y-118981731D01*
X83016038Y-118615671D01*
X82704729Y-118304362D01*
X82338669Y-118059769D01*
X81931925Y-117891290D01*
X81500128Y-117805400D01*
X81059872Y-117805400D01*
X80628075Y-117891290D01*
X80221331Y-118059769D01*
X79855271Y-118304362D01*
X79543962Y-118615671D01*
X79299369Y-118981731D01*
X79130890Y-119388475D01*
X79045000Y-119820272D01*
X77244695Y-119820272D01*
X77255991Y-119784448D01*
X77418675Y-119391693D01*
X77614960Y-119014634D01*
X77843371Y-118656100D01*
X78102161Y-118318838D01*
X78391216Y-118003390D01*
X78633390Y-117761216D01*
X78948838Y-117472161D01*
X79286100Y-117213371D01*
X79644634Y-116984960D01*
X80021693Y-116788675D01*
X80414448Y-116625991D01*
X80819870Y-116498162D01*
X81234900Y-116406151D01*
X81656376Y-116350664D01*
X82083837Y-116332000D01*
X83816673Y-116332000D01*
X84204964Y-116352350D01*
G37*
X84204964Y-116352350D02*
X84585695Y-116412652D01*
X84958056Y-116512425D01*
X85317942Y-116650572D01*
X85661417Y-116825581D01*
X85984705Y-117035527D01*
X86284291Y-117278127D01*
X86340001Y-117333837D01*
X86340001Y-118975498D01*
X86268561Y-119936841D01*
X86061231Y-120853106D01*
X85720748Y-121728657D01*
X85254590Y-122544265D01*
X84672995Y-123282014D01*
X83988749Y-123925689D01*
X83216871Y-124461160D01*
X82374323Y-124876659D01*
X81479624Y-125163054D01*
X80542414Y-125315689D01*
X79985595Y-125340000D01*
X78042234Y-125340000D01*
X77826576Y-125124342D01*
X77604890Y-124850583D01*
X77413044Y-124555167D01*
X77253122Y-124241302D01*
X77126885Y-123912443D01*
X77035714Y-123572183D01*
X76980610Y-123224277D01*
X76962000Y-122869173D01*
X76962000Y-121453837D01*
X76980664Y-121026376D01*
X77036151Y-120604900D01*
X77128162Y-120189870D01*
X77244695Y-119820272D01*
X79045000Y-119820272D01*
X79045000Y-120260528D01*
X79130890Y-120692325D01*
X79299369Y-121099069D01*
X79543962Y-121465129D01*
X79855271Y-121776438D01*
X80221331Y-122021031D01*
X80628075Y-122189510D01*
X81059872Y-122275400D01*
X81500128Y-122275400D01*
X81931925Y-122189510D01*
X82338669Y-122021031D01*
X82704729Y-121776438D01*
X83016038Y-121465129D01*
X83260631Y-121099069D01*
X83429110Y-120692325D01*
X83515000Y-120260528D01*
X83515000Y-119820272D01*
X83429110Y-119388475D01*
X83260631Y-118981731D01*
X83016038Y-118615671D01*
X82704729Y-118304362D01*
X82338669Y-118059769D01*
X81931925Y-117891290D01*
X81500128Y-117805400D01*
X81059872Y-117805400D01*
X80628075Y-117891290D01*
X80221331Y-118059769D01*
X79855271Y-118304362D01*
X79543962Y-118615671D01*
X79299369Y-118981731D01*
X79130890Y-119388475D01*
X79045000Y-119820272D01*
X77244695Y-119820272D01*
X77255991Y-119784448D01*
X77418675Y-119391693D01*
X77614960Y-119014634D01*
X77843371Y-118656100D01*
X78102161Y-118318838D01*
X78391216Y-118003390D01*
X78633390Y-117761216D01*
X78948838Y-117472161D01*
X79286100Y-117213371D01*
X79644634Y-116984960D01*
X80021693Y-116788675D01*
X80414448Y-116625991D01*
X80819870Y-116498162D01*
X81234900Y-116406151D01*
X81656376Y-116350664D01*
X82083837Y-116332000D01*
X83816673Y-116332000D01*
X84204964Y-116352350D01*
G36*
X17604244Y-113809092D02*
G01*
X19316069Y-113958694D01*
X19730568Y-114013774D01*
X20135689Y-114105212D01*
X20530959Y-114232639D01*
X20913200Y-114395032D01*
X21279324Y-114591077D01*
X21626372Y-114819192D01*
X21951535Y-115077527D01*
X22252217Y-115364022D01*
X22527844Y-115678485D01*
X22855368Y-116087889D01*
X23097409Y-116417757D01*
X23309722Y-116764375D01*
X23492407Y-117127480D01*
X23644201Y-117504565D01*
X23764031Y-117892958D01*
X23851080Y-118290016D01*
X23905084Y-118695578D01*
X24115958Y-121015189D01*
X24126374Y-121347618D01*
X24097688Y-121675169D01*
X24030424Y-121997013D01*
X23925525Y-122308639D01*
X23784471Y-122605647D01*
X23609244Y-122883867D01*
X23402311Y-123139381D01*
X23166575Y-123368603D01*
X22905358Y-123568302D01*
X22622344Y-123735664D01*
X22321494Y-123868347D01*
X22007062Y-123964473D01*
X21683451Y-124022696D01*
X21351468Y-124042418D01*
X19328112Y-124042418D01*
X18967489Y-124024734D01*
X18613431Y-123972308D01*
X18266196Y-123885492D01*
X17929122Y-123765116D01*
X17605436Y-123612334D01*
X17295588Y-123427023D01*
X16527893Y-122915226D01*
X16183496Y-122663474D01*
X15153906Y-121840301D01*
X14894550Y-121607981D01*
X14665180Y-121350792D01*
X14466004Y-121069567D01*
X14299521Y-120767839D01*
X14167814Y-120449380D01*
X14072542Y-120118200D01*
X14014896Y-119778434D01*
X13995400Y-119430798D01*
X13995400Y-118753472D01*
X16865800Y-118753472D01*
X16865800Y-119193728D01*
X16951690Y-119625525D01*
X17120169Y-120032269D01*
X17364762Y-120398329D01*
X17676071Y-120709638D01*
X18042131Y-120954231D01*
X18448875Y-121122710D01*
X18880672Y-121208600D01*
X19320928Y-121208600D01*
X19752725Y-121122710D01*
X20159469Y-120954231D01*
X20525529Y-120709638D01*
X20836838Y-120398329D01*
X21081431Y-120032269D01*
X21249910Y-119625525D01*
X21335800Y-119193728D01*
X21335800Y-118753472D01*
X21249910Y-118321675D01*
X21081431Y-117914931D01*
X20836838Y-117548871D01*
X20525529Y-117237562D01*
X20159469Y-116992969D01*
X19752725Y-116824490D01*
X19320928Y-116738600D01*
X18880672Y-116738600D01*
X18448875Y-116824490D01*
X18042131Y-116992969D01*
X17676071Y-117237562D01*
X17364762Y-117548871D01*
X17120169Y-117914931D01*
X16951690Y-118321675D01*
X16865800Y-118753472D01*
X13995400Y-118753472D01*
X13995400Y-117116311D01*
X14015832Y-116746978D01*
X14076298Y-116385628D01*
X14176257Y-116033140D01*
X14314483Y-115693845D01*
X14489301Y-115371848D01*
X14698560Y-115071114D01*
X14939724Y-114795289D01*
X15209827Y-114547761D01*
X15505605Y-114331524D01*
X15823420Y-114149239D01*
X16159403Y-114003122D01*
X16509444Y-113894961D01*
X16869297Y-113826070D01*
X17234553Y-113797292D01*
X17604244Y-113809092D01*
G37*
X17604244Y-113809092D02*
X19316069Y-113958694D01*
X19730568Y-114013774D01*
X20135689Y-114105212D01*
X20530959Y-114232639D01*
X20913200Y-114395032D01*
X21279324Y-114591077D01*
X21626372Y-114819192D01*
X21951535Y-115077527D01*
X22252217Y-115364022D01*
X22527844Y-115678485D01*
X22855368Y-116087889D01*
X23097409Y-116417757D01*
X23309722Y-116764375D01*
X23492407Y-117127480D01*
X23644201Y-117504565D01*
X23764031Y-117892958D01*
X23851080Y-118290016D01*
X23905084Y-118695578D01*
X24115958Y-121015189D01*
X24126374Y-121347618D01*
X24097688Y-121675169D01*
X24030424Y-121997013D01*
X23925525Y-122308639D01*
X23784471Y-122605647D01*
X23609244Y-122883867D01*
X23402311Y-123139381D01*
X23166575Y-123368603D01*
X22905358Y-123568302D01*
X22622344Y-123735664D01*
X22321494Y-123868347D01*
X22007062Y-123964473D01*
X21683451Y-124022696D01*
X21351468Y-124042418D01*
X19328112Y-124042418D01*
X18967489Y-124024734D01*
X18613431Y-123972308D01*
X18266196Y-123885492D01*
X17929122Y-123765116D01*
X17605436Y-123612334D01*
X17295588Y-123427023D01*
X16527893Y-122915226D01*
X16183496Y-122663474D01*
X15153906Y-121840301D01*
X14894550Y-121607981D01*
X14665180Y-121350792D01*
X14466004Y-121069567D01*
X14299521Y-120767839D01*
X14167814Y-120449380D01*
X14072542Y-120118200D01*
X14014896Y-119778434D01*
X13995400Y-119430798D01*
X13995400Y-118753472D01*
X16865800Y-118753472D01*
X16865800Y-119193728D01*
X16951690Y-119625525D01*
X17120169Y-120032269D01*
X17364762Y-120398329D01*
X17676071Y-120709638D01*
X18042131Y-120954231D01*
X18448875Y-121122710D01*
X18880672Y-121208600D01*
X19320928Y-121208600D01*
X19752725Y-121122710D01*
X20159469Y-120954231D01*
X20525529Y-120709638D01*
X20836838Y-120398329D01*
X21081431Y-120032269D01*
X21249910Y-119625525D01*
X21335800Y-119193728D01*
X21335800Y-118753472D01*
X21249910Y-118321675D01*
X21081431Y-117914931D01*
X20836838Y-117548871D01*
X20525529Y-117237562D01*
X20159469Y-116992969D01*
X19752725Y-116824490D01*
X19320928Y-116738600D01*
X18880672Y-116738600D01*
X18448875Y-116824490D01*
X18042131Y-116992969D01*
X17676071Y-117237562D01*
X17364762Y-117548871D01*
X17120169Y-117914931D01*
X16951690Y-118321675D01*
X16865800Y-118753472D01*
X13995400Y-118753472D01*
X13995400Y-117116311D01*
X14015832Y-116746978D01*
X14076298Y-116385628D01*
X14176257Y-116033140D01*
X14314483Y-115693845D01*
X14489301Y-115371848D01*
X14698560Y-115071114D01*
X14939724Y-114795289D01*
X15209827Y-114547761D01*
X15505605Y-114331524D01*
X15823420Y-114149239D01*
X16159403Y-114003122D01*
X16509444Y-113894961D01*
X16869297Y-113826070D01*
X17234553Y-113797292D01*
X17604244Y-113809092D01*
%TO.N,VDD_RTC*%
G36*
X52172459Y-59993541D02*
G01*
X52273000Y-60076052D01*
X52273000Y-60573000D01*
X50427000Y-60573000D01*
X50427000Y-59927000D01*
X52117850Y-59927000D01*
X52172459Y-59993541D01*
G37*
X52172459Y-59993541D02*
X52273000Y-60076052D01*
X52273000Y-60573000D01*
X50427000Y-60573000D01*
X50427000Y-59927000D01*
X52117850Y-59927000D01*
X52172459Y-59993541D01*
%TO.N,SYS_5V*%
G36*
X52273000Y-66873000D02*
G01*
X50327000Y-66873000D01*
X50327000Y-64927000D01*
X52273000Y-64927000D01*
X52273000Y-66873000D01*
G37*
X52273000Y-66873000D02*
X50327000Y-66873000D01*
X50327000Y-64927000D01*
X52273000Y-64927000D01*
X52273000Y-66873000D01*
%TO.N,VDD_3V3AUX*%
G36*
X47173000Y-60573000D02*
G01*
X45327000Y-60573000D01*
X45327000Y-59927000D01*
X47173000Y-59927000D01*
X47173000Y-60573000D01*
G37*
X47173000Y-60573000D02*
X45327000Y-60573000D01*
X45327000Y-59927000D01*
X47173000Y-59927000D01*
X47173000Y-60573000D01*
%TO.N,VDD_3V3A*%
G36*
X52251000Y-64360000D02*
G01*
X45327000Y-64360000D01*
X45327000Y-62455000D01*
X52251000Y-62455000D01*
X52251000Y-64360000D01*
G37*
X52251000Y-64360000D02*
X45327000Y-64360000D01*
X45327000Y-62455000D01*
X52251000Y-62455000D01*
X52251000Y-64360000D01*
%TO.N,VDD_3V3B*%
G36*
X47173000Y-66873000D02*
G01*
X45327000Y-66873000D01*
X45327000Y-65027000D01*
X47173000Y-65027000D01*
X47173000Y-66873000D01*
G37*
X47173000Y-66873000D02*
X45327000Y-66873000D01*
X45327000Y-65027000D01*
X47173000Y-65027000D01*
X47173000Y-66873000D01*
%TO.N,VDD_1V8*%
G36*
X49823000Y-60118059D02*
G01*
X49818540Y-60140481D01*
X49818540Y-60314599D01*
X49823000Y-60337021D01*
X49823000Y-61140000D01*
X49825440Y-61164776D01*
X49832667Y-61188601D01*
X49844403Y-61210557D01*
X49860197Y-61229803D01*
X49879443Y-61245597D01*
X49901399Y-61257333D01*
X49925224Y-61264560D01*
X49949490Y-61266999D01*
X52314591Y-61276497D01*
X52321384Y-61813176D01*
X45277000Y-61822826D01*
X45277000Y-61217000D01*
X47630000Y-61217000D01*
X47654776Y-61214560D01*
X47678601Y-61207333D01*
X47700557Y-61195597D01*
X47719803Y-61179803D01*
X47735597Y-61160557D01*
X47747333Y-61138601D01*
X47754560Y-61114776D01*
X47757000Y-61090000D01*
X47757000Y-60424800D01*
X47778920Y-60314599D01*
X47778920Y-60140481D01*
X47757000Y-60030280D01*
X47757000Y-59947000D01*
X49823000Y-59947000D01*
X49823000Y-60118059D01*
G37*
X49823000Y-60118059D02*
X49818540Y-60140481D01*
X49818540Y-60314599D01*
X49823000Y-60337021D01*
X49823000Y-61140000D01*
X49825440Y-61164776D01*
X49832667Y-61188601D01*
X49844403Y-61210557D01*
X49860197Y-61229803D01*
X49879443Y-61245597D01*
X49901399Y-61257333D01*
X49925224Y-61264560D01*
X49949490Y-61266999D01*
X52314591Y-61276497D01*
X52321384Y-61813176D01*
X45277000Y-61822826D01*
X45277000Y-61217000D01*
X47630000Y-61217000D01*
X47654776Y-61214560D01*
X47678601Y-61207333D01*
X47700557Y-61195597D01*
X47719803Y-61179803D01*
X47735597Y-61160557D01*
X47747333Y-61138601D01*
X47754560Y-61114776D01*
X47757000Y-61090000D01*
X47757000Y-60424800D01*
X47778920Y-60314599D01*
X47778920Y-60140481D01*
X47757000Y-60030280D01*
X47757000Y-59947000D01*
X49823000Y-59947000D01*
X49823000Y-60118059D01*
%TO.N,Net-(TP4-Pad1)*%
G36*
X42997941Y-68728920D02*
G01*
X43172059Y-68728920D01*
X43181712Y-68727000D01*
X44258288Y-68727000D01*
X44267941Y-68728920D01*
X44442059Y-68728920D01*
X44451712Y-68727000D01*
X44673000Y-68727000D01*
X44673000Y-69473000D01*
X42727000Y-69473000D01*
X42727000Y-68727000D01*
X42988288Y-68727000D01*
X42997941Y-68728920D01*
G37*
X42997941Y-68728920D02*
X43172059Y-68728920D01*
X43181712Y-68727000D01*
X44258288Y-68727000D01*
X44267941Y-68728920D01*
X44442059Y-68728920D01*
X44451712Y-68727000D01*
X44673000Y-68727000D01*
X44673000Y-69473000D01*
X42727000Y-69473000D01*
X42727000Y-68727000D01*
X42988288Y-68727000D01*
X42997941Y-68728920D01*
%TO.N,Net-(TP3-Pad1)*%
G36*
X51885401Y-68728920D02*
G01*
X52059519Y-68728920D01*
X52069172Y-68727000D01*
X53145748Y-68727000D01*
X53155401Y-68728920D01*
X53329519Y-68728920D01*
X53339172Y-68727000D01*
X53573000Y-68727000D01*
X53573000Y-69473000D01*
X51627000Y-69473000D01*
X51627000Y-68727000D01*
X51875748Y-68727000D01*
X51885401Y-68728920D01*
G37*
X51885401Y-68728920D02*
X52059519Y-68728920D01*
X52069172Y-68727000D01*
X53145748Y-68727000D01*
X53155401Y-68728920D01*
X53329519Y-68728920D01*
X53339172Y-68727000D01*
X53573000Y-68727000D01*
X53573000Y-69473000D01*
X51627000Y-69473000D01*
X51627000Y-68727000D01*
X51875748Y-68727000D01*
X51885401Y-68728920D01*
%TO.N,Net-(TP2-Pad1)*%
G36*
X54873000Y-69473000D02*
G01*
X54600312Y-69473000D01*
X54595313Y-69460932D01*
X54500802Y-69319487D01*
X54380513Y-69199198D01*
X54239068Y-69104687D01*
X54237134Y-69103886D01*
X54127000Y-68993752D01*
X54127000Y-67527000D01*
X54873000Y-67527000D01*
X54873000Y-69473000D01*
G37*
X54873000Y-69473000D02*
X54600312Y-69473000D01*
X54595313Y-69460932D01*
X54500802Y-69319487D01*
X54380513Y-69199198D01*
X54239068Y-69104687D01*
X54237134Y-69103886D01*
X54127000Y-68993752D01*
X54127000Y-67527000D01*
X54873000Y-67527000D01*
X54873000Y-69473000D01*
%TO.N,Net-(TP7-Pad1)*%
G36*
X61375114Y-64389000D02*
G01*
X55456914Y-64389000D01*
X55456914Y-63754000D01*
X61375114Y-63754000D01*
X61375114Y-64389000D01*
G37*
X61375114Y-64389000D02*
X55456914Y-64389000D01*
X55456914Y-63754000D01*
X61375114Y-63754000D01*
X61375114Y-64389000D01*
%TD*%
M02*
