%TF.GenerationSoftware,KiCad,Pcbnew,5.1.6-c6e7f7d~86~ubuntu18.04.1*%
%TF.CreationDate,2020-08-04T21:49:05-03:00*%
%TF.ProjectId,pcbproyecto,70636270-726f-4796-9563-746f2e6b6963,rev?*%
%TF.SameCoordinates,Original*%
%TF.FileFunction,Copper,L2,Inr*%
%TF.FilePolarity,Positive*%
%FSLAX46Y46*%
G04 Gerber Fmt 4.6, Leading zero omitted, Abs format (unit mm)*
G04 Created by KiCad (PCBNEW 5.1.6-c6e7f7d~86~ubuntu18.04.1) date 2020-08-04 21:49:05*
%MOMM*%
%LPD*%
G01*
G04 APERTURE LIST*
%TA.AperFunction,ViaPad*%
%ADD10O,0.850000X0.850000*%
%TD*%
%TA.AperFunction,ViaPad*%
%ADD11R,0.850000X0.850000*%
%TD*%
%TA.AperFunction,ViaPad*%
%ADD12R,3.500000X3.500000*%
%TD*%
%TA.AperFunction,ViaPad*%
%ADD13C,1.524000*%
%TD*%
%TA.AperFunction,ViaPad*%
%ADD14R,1.524000X1.524000*%
%TD*%
%TA.AperFunction,ViaPad*%
%ADD15C,3.500000*%
%TD*%
%TA.AperFunction,ViaPad*%
%ADD16C,0.457200*%
%TD*%
%TA.AperFunction,ViaPad*%
%ADD17C,0.609600*%
%TD*%
%TA.AperFunction,Conductor*%
%ADD18C,0.381000*%
%TD*%
%TA.AperFunction,Conductor*%
%ADD19C,0.254000*%
%TD*%
G04 APERTURE END LIST*
D10*
%TO.N,GND*%
%TO.C,J2*%
X39750000Y-85500000D03*
X39750000Y-86500000D03*
%TO.N,N/C*%
X38750000Y-85500000D03*
%TO.N,VDD_3V3B*%
X38750000Y-86500000D03*
%TO.N,/Peripherals/UART0_TX*%
X37750000Y-85500000D03*
%TO.N,N/C*%
X37750000Y-86500000D03*
%TO.N,/Peripherals/UART0_RX*%
X36750000Y-85500000D03*
%TO.N,N/C*%
X36750000Y-86500000D03*
%TO.N,/Peripherals/SPI0_D0*%
X35750000Y-85500000D03*
%TO.N,N/C*%
X35750000Y-86500000D03*
%TO.N,/Peripherals/SPI0_SCLK*%
X34750000Y-85500000D03*
%TO.N,N/C*%
X34750000Y-86500000D03*
%TO.N,/Peripherals/SPI0_D1*%
X33750000Y-85500000D03*
%TO.N,VDD_5V*%
X33750000Y-86500000D03*
%TO.N,/Peripherals/SPI0_CS0*%
X32750000Y-85500000D03*
D11*
%TO.N,N/C*%
X32750000Y-86500000D03*
%TD*%
%TO.N,Net-(J6-Pad1)*%
%TO.C,J6*%
X79000000Y-78325000D03*
%TD*%
%TO.N,GND*%
%TO.C,J4*%
X75950000Y-78245000D03*
%TD*%
%TO.N,GND*%
%TO.C,J1*%
%TA.AperFunction,ViaPad*%
G36*
G01*
X37875000Y-113850000D02*
X36125000Y-113850000D01*
G75*
G02*
X35250000Y-112975000I0J875000D01*
G01*
X35250000Y-111225000D01*
G75*
G02*
X36125000Y-110350000I875000J0D01*
G01*
X37875000Y-110350000D01*
G75*
G02*
X38750000Y-111225000I0J-875000D01*
G01*
X38750000Y-112975000D01*
G75*
G02*
X37875000Y-113850000I-875000J0D01*
G01*
G37*
%TD.AperFunction*%
%TA.AperFunction,ViaPad*%
G36*
G01*
X33300000Y-116600000D02*
X31300000Y-116600000D01*
G75*
G02*
X30550000Y-115850000I0J750000D01*
G01*
X30550000Y-114350000D01*
G75*
G02*
X31300000Y-113600000I750000J0D01*
G01*
X33300000Y-113600000D01*
G75*
G02*
X34050000Y-114350000I0J-750000D01*
G01*
X34050000Y-115850000D01*
G75*
G02*
X33300000Y-116600000I-750000J0D01*
G01*
G37*
%TD.AperFunction*%
D12*
%TO.N,/Interfaces/IN_PWR_SUPPLY*%
X32300000Y-109100000D03*
%TD*%
D13*
%TO.N,GND*%
%TO.C,J3*%
X28200000Y-45000000D03*
%TO.N,/USB1_D+*%
X28200000Y-42500000D03*
%TO.N,/USB1_D-*%
X28200000Y-40500000D03*
D14*
%TO.N,/USB1_VBU*%
X28200000Y-38000000D03*
D15*
%TO.N,CGND*%
X25490000Y-34930000D03*
X25490000Y-48070000D03*
%TD*%
D16*
%TO.N,GND*%
X44097600Y-59584800D03*
X44097600Y-60854800D03*
D17*
X53902000Y-63407500D03*
X48822000Y-58327500D03*
X48758500Y-68487500D03*
D16*
X44097600Y-65934800D03*
X44097600Y-67204800D03*
D17*
X81900000Y-110100000D03*
X43712600Y-63400000D03*
X72217600Y-31125000D03*
D16*
X45890000Y-38982000D03*
X54500000Y-78000000D03*
D17*
X34000000Y-97500000D03*
X26800000Y-98300000D03*
X53600000Y-107700000D03*
X59200000Y-106800000D03*
X54400000Y-120700000D03*
X24800000Y-58500000D03*
D16*
X32290000Y-75500000D03*
D17*
X62190000Y-78140000D03*
D16*
X77500000Y-62500000D03*
X67000000Y-64500000D03*
X71100000Y-77800000D03*
X68072000Y-43180000D03*
X66040000Y-45720000D03*
X70104000Y-50546000D03*
D17*
%TO.N,VDD_5V*%
X59794800Y-61515200D03*
X60455200Y-61515200D03*
X63100000Y-81400000D03*
X63100000Y-82100000D03*
X63100000Y-80700000D03*
X63100000Y-80000000D03*
X61115600Y-61515200D03*
%TO.N,USB_DC*%
X60455200Y-62785200D03*
X61115600Y-62785200D03*
X59794800Y-62785200D03*
X24900000Y-54100000D03*
X48800000Y-51400000D03*
%TO.N,VDD_3V3A*%
X47552000Y-63344000D03*
X50219000Y-63344000D03*
X48796600Y-64664800D03*
%TO.N,VDD_3V3B*%
X46250000Y-66000000D03*
X63400000Y-37800000D03*
X50100000Y-78800000D03*
D16*
X66548000Y-41148000D03*
%TO.N,VDD_3V3AUX*%
X46280000Y-60280000D03*
D17*
X62000000Y-42187511D03*
%TO.N,SYS_5V*%
X51300000Y-65900000D03*
D16*
%TO.N,VDD_RTC*%
X51340000Y-60250000D03*
D17*
X70000000Y-26500000D03*
X59500000Y-31200000D03*
D16*
X67564000Y-45720000D03*
%TO.N,Net-(TP1-Pad1)*%
X54900000Y-60880000D03*
X35306000Y-28956000D03*
%TO.N,Net-(TP2-Pad1)*%
X55140000Y-69840000D03*
X72425137Y-91400000D03*
%TO.N,Net-(TP3-Pad1)*%
X53830000Y-69870000D03*
X72425137Y-91960848D03*
%TO.N,Net-(TP4-Pad1)*%
X43770000Y-69700000D03*
X72425137Y-92780000D03*
%TO.N,Net-(TP5-Pad1)*%
X42490000Y-60870000D03*
X34036000Y-28956000D03*
%TO.N,Net-(TP6-Pad1)*%
X42477460Y-59620000D03*
X32258000Y-28956000D03*
D17*
%TO.N,Net-(TP7-Pad1)*%
X60455200Y-64004400D03*
X59794800Y-64004400D03*
X61115600Y-64004400D03*
%TO.N,CGND*%
X26600000Y-29700000D03*
D16*
%TO.N,/Sistem In Package/OSC_OUT*%
X47414000Y-29076000D03*
X48176000Y-32632000D03*
%TO.N,/Peripherals/SPI0_D1*%
X29200000Y-57900000D03*
%TO.N,/Peripherals/SPI0_D0*%
X30699992Y-57900000D03*
%TO.N,/Peripherals/UART0_TX*%
X34800000Y-61300000D03*
%TO.N,/Peripherals/SPI0_SCLK*%
X30022748Y-57900000D03*
%TO.N,/Peripherals/UART0_RX*%
X34100000Y-61300000D03*
%TO.N,/Peripherals/SPI0_CS0*%
X28300000Y-57900000D03*
%TO.N,/Sistem In Package/AIN51.8V*%
X41280000Y-63500000D03*
%TO.N,/Sistem In Package/AIN61.8V*%
X41250000Y-62250000D03*
%TO.N,/Interfaces/MMC0_DAT2*%
X32290000Y-79340000D03*
X41120000Y-53410000D03*
%TO.N,/Interfaces/MMC0_CD*%
X32290000Y-72941470D03*
X41190000Y-55810000D03*
%TO.N,/Interfaces/MMC0_CMD*%
X39890000Y-53360000D03*
X32290000Y-77420000D03*
%TO.N,/Interfaces/MMC0_CLK*%
X32300000Y-76390000D03*
X39910000Y-55850000D03*
%TO.N,/Interfaces/MMC0_DAT0*%
X32290000Y-74520000D03*
X38740000Y-54560000D03*
%TO.N,/Interfaces/MMC0_DAT1*%
X32290000Y-73551067D03*
X39940000Y-54560000D03*
D17*
%TO.N,/USB1_VBU*%
X53880000Y-55730000D03*
D16*
%TO.N,/Interfaces/MMC0_DAT3*%
X32290000Y-78320000D03*
X42490000Y-55810000D03*
%TO.N,Net-(J6-Pad1)*%
X71750000Y-66500000D03*
X70000000Y-62750000D03*
%TO.N,/I2C1_SDA*%
X39897460Y-60850000D03*
X68260000Y-61050000D03*
%TO.N,/I2C1_SCL*%
X41090000Y-60850000D03*
X66006721Y-62086700D03*
%TO.N,/GPIO_A8*%
X60740000Y-55110000D03*
X72710000Y-39380000D03*
%TO.N,/GPIO_A7*%
X60740000Y-55940000D03*
X72710000Y-41250000D03*
%TO.N,/GPIO_A5*%
X60740000Y-57190000D03*
X72710000Y-45630000D03*
%TO.N,Net-(TP8-Pad1)*%
X62030000Y-66950000D03*
X67930000Y-79970000D03*
%TO.N,Net-(TP9-Pad1)*%
X61120000Y-67000000D03*
X67930000Y-83410000D03*
%TO.N,/GPIO_A6*%
X60740000Y-56510000D03*
X72710000Y-43580000D03*
%TD*%
D18*
%TO.N,VDD_5V*%
X63100000Y-82100000D02*
X63100000Y-79100000D01*
X63100000Y-78900000D02*
X63100000Y-82100000D01*
X67137511Y-61515200D02*
X68233910Y-62611599D01*
X68233910Y-62611599D02*
X68233910Y-73766090D01*
X68233910Y-73766090D02*
X63100000Y-78900000D01*
X67137511Y-61515200D02*
X61115600Y-61515200D01*
%TO.N,USB_DC*%
X27600000Y-51400000D02*
X24900000Y-54100000D01*
X48800000Y-51400000D02*
X27600000Y-51400000D01*
%TO.N,VDD_3V3B*%
X50462299Y-62696299D02*
X49553701Y-62696299D01*
X49553701Y-62696299D02*
X46250000Y-66000000D01*
X63400000Y-49758598D02*
X50462299Y-62696299D01*
X63400000Y-37800000D02*
X63400000Y-49758598D01*
X46250000Y-74750000D02*
X46250000Y-66000000D01*
X50100000Y-78800000D02*
X50100000Y-78600000D01*
X50100000Y-78600000D02*
X46250000Y-74750000D01*
X66548000Y-40948000D02*
X66548000Y-41148000D01*
X63400000Y-37800000D02*
X66548000Y-40948000D01*
%TO.N,VDD_3V3AUX*%
X53025000Y-58500000D02*
X62000000Y-49525000D01*
X62000000Y-49525000D02*
X62000000Y-42187511D01*
X50360000Y-58500000D02*
X53025000Y-58500000D01*
X46280000Y-60280000D02*
X48580000Y-60280000D01*
X48580000Y-60280000D02*
X50360000Y-58500000D01*
%TO.N,VDD_RTC*%
X67450000Y-33100000D02*
X70000000Y-30550000D01*
X70000000Y-30550000D02*
X70000000Y-26500000D01*
X67400000Y-33150000D02*
X67450000Y-33100000D01*
X67450000Y-39850000D02*
X67500000Y-39900000D01*
X62752299Y-49651945D02*
X62752299Y-37489103D01*
X67091402Y-33150000D02*
X67400000Y-33150000D01*
X51340000Y-60250000D02*
X52154244Y-60250000D01*
X62752299Y-37489103D02*
X67091402Y-33150000D01*
X52154244Y-60250000D02*
X62752299Y-49651945D01*
X66480000Y-32130000D02*
X67450000Y-33100000D01*
X59500000Y-31200000D02*
X59500000Y-32130000D01*
X59500000Y-32130000D02*
X66480000Y-32130000D01*
X67400000Y-39800000D02*
X67400000Y-33150000D01*
X69850000Y-42250000D02*
X67400000Y-39800000D01*
X69850000Y-43434000D02*
X67564000Y-45720000D01*
X69850000Y-42250000D02*
X69850000Y-43434000D01*
%TO.N,/USB1_VBU*%
X53880000Y-55298948D02*
X49171052Y-50590000D01*
X53880000Y-55730000D02*
X53880000Y-55298948D01*
X49171052Y-50590000D02*
X46180000Y-50590000D01*
X33590000Y-38000000D02*
X28200000Y-38000000D01*
X46180000Y-50590000D02*
X33590000Y-38000000D01*
%TD*%
D19*
%TO.N,VDD_3V3B*%
G36*
X80936842Y-18731439D02*
G01*
X81853106Y-18938769D01*
X82728657Y-19279252D01*
X83544265Y-19745410D01*
X84282014Y-20327005D01*
X84925689Y-21011251D01*
X85461160Y-21783129D01*
X85876659Y-22625677D01*
X86163054Y-23520376D01*
X86315689Y-24457579D01*
X86340000Y-25014404D01*
X86340001Y-118975498D01*
X86268561Y-119936841D01*
X86061231Y-120853106D01*
X85720748Y-121728657D01*
X85254590Y-122544265D01*
X84672995Y-123282014D01*
X83988749Y-123925689D01*
X83216871Y-124461160D01*
X82374323Y-124876659D01*
X81479624Y-125163054D01*
X80542414Y-125315689D01*
X79985595Y-125340000D01*
X19211508Y-125340000D01*
X12660000Y-120660353D01*
X12660000Y-118753472D01*
X16865800Y-118753472D01*
X16865800Y-119193728D01*
X16951690Y-119625525D01*
X17120169Y-120032269D01*
X17364762Y-120398329D01*
X17676071Y-120709638D01*
X18042131Y-120954231D01*
X18448875Y-121122710D01*
X18880672Y-121208600D01*
X19320928Y-121208600D01*
X19752725Y-121122710D01*
X20159469Y-120954231D01*
X20525529Y-120709638D01*
X20627729Y-120607438D01*
X53460200Y-120607438D01*
X53460200Y-120792562D01*
X53496316Y-120974129D01*
X53567160Y-121145162D01*
X53670010Y-121299087D01*
X53800913Y-121429990D01*
X53954838Y-121532840D01*
X54125871Y-121603684D01*
X54307438Y-121639800D01*
X54492562Y-121639800D01*
X54674129Y-121603684D01*
X54845162Y-121532840D01*
X54999087Y-121429990D01*
X55129990Y-121299087D01*
X55232840Y-121145162D01*
X55303684Y-120974129D01*
X55339800Y-120792562D01*
X55339800Y-120607438D01*
X55303684Y-120425871D01*
X55232840Y-120254838D01*
X55129990Y-120100913D01*
X54999087Y-119970010D01*
X54845162Y-119867160D01*
X54731965Y-119820272D01*
X79045000Y-119820272D01*
X79045000Y-120260528D01*
X79130890Y-120692325D01*
X79299369Y-121099069D01*
X79543962Y-121465129D01*
X79855271Y-121776438D01*
X80221331Y-122021031D01*
X80628075Y-122189510D01*
X81059872Y-122275400D01*
X81500128Y-122275400D01*
X81931925Y-122189510D01*
X82338669Y-122021031D01*
X82704729Y-121776438D01*
X83016038Y-121465129D01*
X83260631Y-121099069D01*
X83429110Y-120692325D01*
X83515000Y-120260528D01*
X83515000Y-119820272D01*
X83429110Y-119388475D01*
X83260631Y-118981731D01*
X83016038Y-118615671D01*
X82704729Y-118304362D01*
X82338669Y-118059769D01*
X81931925Y-117891290D01*
X81500128Y-117805400D01*
X81059872Y-117805400D01*
X80628075Y-117891290D01*
X80221331Y-118059769D01*
X79855271Y-118304362D01*
X79543962Y-118615671D01*
X79299369Y-118981731D01*
X79130890Y-119388475D01*
X79045000Y-119820272D01*
X54731965Y-119820272D01*
X54674129Y-119796316D01*
X54492562Y-119760200D01*
X54307438Y-119760200D01*
X54125871Y-119796316D01*
X53954838Y-119867160D01*
X53800913Y-119970010D01*
X53670010Y-120100913D01*
X53567160Y-120254838D01*
X53496316Y-120425871D01*
X53460200Y-120607438D01*
X20627729Y-120607438D01*
X20836838Y-120398329D01*
X21081431Y-120032269D01*
X21249910Y-119625525D01*
X21335800Y-119193728D01*
X21335800Y-118753472D01*
X21249910Y-118321675D01*
X21081431Y-117914931D01*
X20836838Y-117548871D01*
X20525529Y-117237562D01*
X20159469Y-116992969D01*
X19752725Y-116824490D01*
X19320928Y-116738600D01*
X18880672Y-116738600D01*
X18448875Y-116824490D01*
X18042131Y-116992969D01*
X17676071Y-117237562D01*
X17364762Y-117548871D01*
X17120169Y-117914931D01*
X16951690Y-118321675D01*
X16865800Y-118753472D01*
X12660000Y-118753472D01*
X12660000Y-114350000D01*
X29911928Y-114350000D01*
X29911928Y-115850000D01*
X29938599Y-116120799D01*
X30017589Y-116381192D01*
X30145860Y-116621171D01*
X30318485Y-116831515D01*
X30528829Y-117004140D01*
X30768808Y-117132411D01*
X31029201Y-117211401D01*
X31300000Y-117238072D01*
X33300000Y-117238072D01*
X33570799Y-117211401D01*
X33831192Y-117132411D01*
X34071171Y-117004140D01*
X34281515Y-116831515D01*
X34454140Y-116621171D01*
X34582411Y-116381192D01*
X34661401Y-116120799D01*
X34688072Y-115850000D01*
X34688072Y-114350000D01*
X34661401Y-114079201D01*
X34582411Y-113818808D01*
X34454140Y-113578829D01*
X34281515Y-113368485D01*
X34071171Y-113195860D01*
X33831192Y-113067589D01*
X33570799Y-112988599D01*
X33300000Y-112961928D01*
X31300000Y-112961928D01*
X31029201Y-112988599D01*
X30768808Y-113067589D01*
X30528829Y-113195860D01*
X30318485Y-113368485D01*
X30145860Y-113578829D01*
X30017589Y-113818808D01*
X29938599Y-114079201D01*
X29911928Y-114350000D01*
X12660000Y-114350000D01*
X12660000Y-107350000D01*
X29911928Y-107350000D01*
X29911928Y-110850000D01*
X29924188Y-110974482D01*
X29960498Y-111094180D01*
X30019463Y-111204494D01*
X30098815Y-111301185D01*
X30195506Y-111380537D01*
X30305820Y-111439502D01*
X30425518Y-111475812D01*
X30550000Y-111488072D01*
X34050000Y-111488072D01*
X34174482Y-111475812D01*
X34294180Y-111439502D01*
X34404494Y-111380537D01*
X34501185Y-111301185D01*
X34580537Y-111204494D01*
X34621494Y-111127869D01*
X34611928Y-111225000D01*
X34611928Y-112975000D01*
X34641001Y-113270186D01*
X34727104Y-113554028D01*
X34866927Y-113815618D01*
X35055097Y-114044903D01*
X35284382Y-114233073D01*
X35545972Y-114372896D01*
X35829814Y-114458999D01*
X36125000Y-114488072D01*
X37875000Y-114488072D01*
X38170186Y-114458999D01*
X38454028Y-114372896D01*
X38715618Y-114233073D01*
X38944903Y-114044903D01*
X39133073Y-113815618D01*
X39272896Y-113554028D01*
X39358999Y-113270186D01*
X39388072Y-112975000D01*
X39388072Y-111225000D01*
X39358999Y-110929814D01*
X39272896Y-110645972D01*
X39133073Y-110384382D01*
X38944903Y-110155097D01*
X38764981Y-110007438D01*
X80960200Y-110007438D01*
X80960200Y-110192562D01*
X80996316Y-110374129D01*
X81067160Y-110545162D01*
X81170010Y-110699087D01*
X81300913Y-110829990D01*
X81454838Y-110932840D01*
X81625871Y-111003684D01*
X81807438Y-111039800D01*
X81992562Y-111039800D01*
X82174129Y-111003684D01*
X82345162Y-110932840D01*
X82499087Y-110829990D01*
X82629990Y-110699087D01*
X82732840Y-110545162D01*
X82803684Y-110374129D01*
X82839800Y-110192562D01*
X82839800Y-110007438D01*
X82803684Y-109825871D01*
X82732840Y-109654838D01*
X82629990Y-109500913D01*
X82499087Y-109370010D01*
X82345162Y-109267160D01*
X82174129Y-109196316D01*
X81992562Y-109160200D01*
X81807438Y-109160200D01*
X81625871Y-109196316D01*
X81454838Y-109267160D01*
X81300913Y-109370010D01*
X81170010Y-109500913D01*
X81067160Y-109654838D01*
X80996316Y-109825871D01*
X80960200Y-110007438D01*
X38764981Y-110007438D01*
X38715618Y-109966927D01*
X38454028Y-109827104D01*
X38170186Y-109741001D01*
X37875000Y-109711928D01*
X36125000Y-109711928D01*
X35829814Y-109741001D01*
X35545972Y-109827104D01*
X35284382Y-109966927D01*
X35055097Y-110155097D01*
X34866927Y-110384382D01*
X34727104Y-110645972D01*
X34688072Y-110774643D01*
X34688072Y-107607438D01*
X52660200Y-107607438D01*
X52660200Y-107792562D01*
X52696316Y-107974129D01*
X52767160Y-108145162D01*
X52870010Y-108299087D01*
X53000913Y-108429990D01*
X53154838Y-108532840D01*
X53325871Y-108603684D01*
X53507438Y-108639800D01*
X53692562Y-108639800D01*
X53874129Y-108603684D01*
X54045162Y-108532840D01*
X54199087Y-108429990D01*
X54329990Y-108299087D01*
X54432840Y-108145162D01*
X54503684Y-107974129D01*
X54539800Y-107792562D01*
X54539800Y-107607438D01*
X54503684Y-107425871D01*
X54432840Y-107254838D01*
X54329990Y-107100913D01*
X54199087Y-106970010D01*
X54045162Y-106867160D01*
X53874129Y-106796316D01*
X53692562Y-106760200D01*
X53507438Y-106760200D01*
X53325871Y-106796316D01*
X53154838Y-106867160D01*
X53000913Y-106970010D01*
X52870010Y-107100913D01*
X52767160Y-107254838D01*
X52696316Y-107425871D01*
X52660200Y-107607438D01*
X34688072Y-107607438D01*
X34688072Y-107350000D01*
X34675812Y-107225518D01*
X34639502Y-107105820D01*
X34580537Y-106995506D01*
X34501185Y-106898815D01*
X34404494Y-106819463D01*
X34294180Y-106760498D01*
X34174482Y-106724188D01*
X34050000Y-106711928D01*
X30550000Y-106711928D01*
X30425518Y-106724188D01*
X30305820Y-106760498D01*
X30195506Y-106819463D01*
X30098815Y-106898815D01*
X30019463Y-106995506D01*
X29960498Y-107105820D01*
X29924188Y-107225518D01*
X29911928Y-107350000D01*
X12660000Y-107350000D01*
X12660000Y-106707438D01*
X58260200Y-106707438D01*
X58260200Y-106892562D01*
X58296316Y-107074129D01*
X58367160Y-107245162D01*
X58470010Y-107399087D01*
X58600913Y-107529990D01*
X58754838Y-107632840D01*
X58925871Y-107703684D01*
X59107438Y-107739800D01*
X59292562Y-107739800D01*
X59474129Y-107703684D01*
X59645162Y-107632840D01*
X59799087Y-107529990D01*
X59929990Y-107399087D01*
X60032840Y-107245162D01*
X60103684Y-107074129D01*
X60139800Y-106892562D01*
X60139800Y-106707438D01*
X60103684Y-106525871D01*
X60032840Y-106354838D01*
X59929990Y-106200913D01*
X59799087Y-106070010D01*
X59645162Y-105967160D01*
X59474129Y-105896316D01*
X59292562Y-105860200D01*
X59107438Y-105860200D01*
X58925871Y-105896316D01*
X58754838Y-105967160D01*
X58600913Y-106070010D01*
X58470010Y-106200913D01*
X58367160Y-106354838D01*
X58296316Y-106525871D01*
X58260200Y-106707438D01*
X12660000Y-106707438D01*
X12660000Y-98207438D01*
X25860200Y-98207438D01*
X25860200Y-98392562D01*
X25896316Y-98574129D01*
X25967160Y-98745162D01*
X26070010Y-98899087D01*
X26200913Y-99029990D01*
X26354838Y-99132840D01*
X26525871Y-99203684D01*
X26707438Y-99239800D01*
X26892562Y-99239800D01*
X27074129Y-99203684D01*
X27245162Y-99132840D01*
X27399087Y-99029990D01*
X27529990Y-98899087D01*
X27632840Y-98745162D01*
X27703684Y-98574129D01*
X27739800Y-98392562D01*
X27739800Y-98207438D01*
X27703684Y-98025871D01*
X27632840Y-97854838D01*
X27529990Y-97700913D01*
X27399087Y-97570010D01*
X27245162Y-97467160D01*
X27100980Y-97407438D01*
X33060200Y-97407438D01*
X33060200Y-97592562D01*
X33096316Y-97774129D01*
X33167160Y-97945162D01*
X33270010Y-98099087D01*
X33400913Y-98229990D01*
X33554838Y-98332840D01*
X33725871Y-98403684D01*
X33907438Y-98439800D01*
X34092562Y-98439800D01*
X34274129Y-98403684D01*
X34445162Y-98332840D01*
X34599087Y-98229990D01*
X34729990Y-98099087D01*
X34832840Y-97945162D01*
X34903684Y-97774129D01*
X34939800Y-97592562D01*
X34939800Y-97407438D01*
X34903684Y-97225871D01*
X34832840Y-97054838D01*
X34729990Y-96900913D01*
X34599087Y-96770010D01*
X34445162Y-96667160D01*
X34274129Y-96596316D01*
X34092562Y-96560200D01*
X33907438Y-96560200D01*
X33725871Y-96596316D01*
X33554838Y-96667160D01*
X33400913Y-96770010D01*
X33270010Y-96900913D01*
X33167160Y-97054838D01*
X33096316Y-97225871D01*
X33060200Y-97407438D01*
X27100980Y-97407438D01*
X27074129Y-97396316D01*
X26892562Y-97360200D01*
X26707438Y-97360200D01*
X26525871Y-97396316D01*
X26354838Y-97467160D01*
X26200913Y-97570010D01*
X26070010Y-97700913D01*
X25967160Y-97854838D01*
X25896316Y-98025871D01*
X25860200Y-98207438D01*
X12660000Y-98207438D01*
X12660000Y-91314943D01*
X71561537Y-91314943D01*
X71561537Y-91485057D01*
X71594724Y-91651903D01*
X71606538Y-91680424D01*
X71594724Y-91708945D01*
X71561537Y-91875791D01*
X71561537Y-92045905D01*
X71594724Y-92212751D01*
X71659824Y-92369916D01*
X71660163Y-92370424D01*
X71659824Y-92370932D01*
X71594724Y-92528097D01*
X71561537Y-92694943D01*
X71561537Y-92865057D01*
X71594724Y-93031903D01*
X71659824Y-93189068D01*
X71754335Y-93330513D01*
X71874624Y-93450802D01*
X72016069Y-93545313D01*
X72173234Y-93610413D01*
X72340080Y-93643600D01*
X72510194Y-93643600D01*
X72677040Y-93610413D01*
X72834205Y-93545313D01*
X72975650Y-93450802D01*
X73095939Y-93330513D01*
X73190450Y-93189068D01*
X73255550Y-93031903D01*
X73288737Y-92865057D01*
X73288737Y-92694943D01*
X73255550Y-92528097D01*
X73190450Y-92370932D01*
X73190111Y-92370424D01*
X73190450Y-92369916D01*
X73255550Y-92212751D01*
X73288737Y-92045905D01*
X73288737Y-91875791D01*
X73255550Y-91708945D01*
X73243736Y-91680424D01*
X73255550Y-91651903D01*
X73288737Y-91485057D01*
X73288737Y-91314943D01*
X73255550Y-91148097D01*
X73190450Y-90990932D01*
X73095939Y-90849487D01*
X72975650Y-90729198D01*
X72834205Y-90634687D01*
X72677040Y-90569587D01*
X72510194Y-90536400D01*
X72340080Y-90536400D01*
X72173234Y-90569587D01*
X72016069Y-90634687D01*
X71874624Y-90729198D01*
X71754335Y-90849487D01*
X71659824Y-90990932D01*
X71594724Y-91148097D01*
X71561537Y-91314943D01*
X12660000Y-91314943D01*
X12660000Y-86075000D01*
X31686928Y-86075000D01*
X31686928Y-86925000D01*
X31699188Y-87049482D01*
X31735498Y-87169180D01*
X31794463Y-87279494D01*
X31873815Y-87376185D01*
X31970506Y-87455537D01*
X32080820Y-87514502D01*
X32200518Y-87550812D01*
X32325000Y-87563072D01*
X33175000Y-87563072D01*
X33299482Y-87550812D01*
X33419180Y-87514502D01*
X33423603Y-87512138D01*
X33440809Y-87519265D01*
X33645599Y-87560000D01*
X33854401Y-87560000D01*
X34059191Y-87519265D01*
X34250000Y-87440229D01*
X34440809Y-87519265D01*
X34645599Y-87560000D01*
X34854401Y-87560000D01*
X35059191Y-87519265D01*
X35250000Y-87440229D01*
X35440809Y-87519265D01*
X35645599Y-87560000D01*
X35854401Y-87560000D01*
X36059191Y-87519265D01*
X36250000Y-87440229D01*
X36440809Y-87519265D01*
X36645599Y-87560000D01*
X36854401Y-87560000D01*
X37059191Y-87519265D01*
X37250000Y-87440229D01*
X37440809Y-87519265D01*
X37645599Y-87560000D01*
X37854401Y-87560000D01*
X38059191Y-87519265D01*
X38252098Y-87439360D01*
X38257118Y-87436006D01*
X38424750Y-87508872D01*
X38459938Y-87519540D01*
X38623000Y-87392257D01*
X38623000Y-87101413D01*
X38689360Y-87002098D01*
X38750000Y-86855701D01*
X38810640Y-87002098D01*
X38877000Y-87101413D01*
X38877000Y-87392257D01*
X39040062Y-87519540D01*
X39075250Y-87508872D01*
X39242882Y-87436006D01*
X39247902Y-87439360D01*
X39440809Y-87519265D01*
X39645599Y-87560000D01*
X39854401Y-87560000D01*
X40059191Y-87519265D01*
X40252098Y-87439360D01*
X40425711Y-87323356D01*
X40573356Y-87175711D01*
X40689360Y-87002098D01*
X40769265Y-86809191D01*
X40810000Y-86604401D01*
X40810000Y-86395599D01*
X40769265Y-86190809D01*
X40690229Y-86000000D01*
X40769265Y-85809191D01*
X40810000Y-85604401D01*
X40810000Y-85395599D01*
X40769265Y-85190809D01*
X40689360Y-84997902D01*
X40573356Y-84824289D01*
X40425711Y-84676644D01*
X40252098Y-84560640D01*
X40059191Y-84480735D01*
X39854401Y-84440000D01*
X39645599Y-84440000D01*
X39440809Y-84480735D01*
X39250000Y-84559771D01*
X39059191Y-84480735D01*
X38854401Y-84440000D01*
X38645599Y-84440000D01*
X38440809Y-84480735D01*
X38250000Y-84559771D01*
X38059191Y-84480735D01*
X37854401Y-84440000D01*
X37645599Y-84440000D01*
X37440809Y-84480735D01*
X37250000Y-84559771D01*
X37059191Y-84480735D01*
X36854401Y-84440000D01*
X36645599Y-84440000D01*
X36440809Y-84480735D01*
X36250000Y-84559771D01*
X36059191Y-84480735D01*
X35854401Y-84440000D01*
X35645599Y-84440000D01*
X35440809Y-84480735D01*
X35250000Y-84559771D01*
X35059191Y-84480735D01*
X34854401Y-84440000D01*
X34645599Y-84440000D01*
X34440809Y-84480735D01*
X34250000Y-84559771D01*
X34059191Y-84480735D01*
X33854401Y-84440000D01*
X33645599Y-84440000D01*
X33440809Y-84480735D01*
X33250000Y-84559771D01*
X33059191Y-84480735D01*
X32854401Y-84440000D01*
X32645599Y-84440000D01*
X32440809Y-84480735D01*
X32247902Y-84560640D01*
X32074289Y-84676644D01*
X31926644Y-84824289D01*
X31810640Y-84997902D01*
X31730735Y-85190809D01*
X31690000Y-85395599D01*
X31690000Y-85604401D01*
X31730735Y-85809191D01*
X31737862Y-85826397D01*
X31735498Y-85830820D01*
X31699188Y-85950518D01*
X31686928Y-86075000D01*
X12660000Y-86075000D01*
X12660000Y-83324943D01*
X67066400Y-83324943D01*
X67066400Y-83495057D01*
X67099587Y-83661903D01*
X67164687Y-83819068D01*
X67259198Y-83960513D01*
X67379487Y-84080802D01*
X67520932Y-84175313D01*
X67678097Y-84240413D01*
X67844943Y-84273600D01*
X68015057Y-84273600D01*
X68181903Y-84240413D01*
X68339068Y-84175313D01*
X68480513Y-84080802D01*
X68600802Y-83960513D01*
X68695313Y-83819068D01*
X68760413Y-83661903D01*
X68793600Y-83495057D01*
X68793600Y-83324943D01*
X68760413Y-83158097D01*
X68695313Y-83000932D01*
X68600802Y-82859487D01*
X68480513Y-82739198D01*
X68339068Y-82644687D01*
X68181903Y-82579587D01*
X68015057Y-82546400D01*
X67844943Y-82546400D01*
X67678097Y-82579587D01*
X67520932Y-82644687D01*
X67379487Y-82739198D01*
X67259198Y-82859487D01*
X67164687Y-83000932D01*
X67099587Y-83158097D01*
X67066400Y-83324943D01*
X12660000Y-83324943D01*
X12660000Y-81834080D01*
X18034461Y-81834080D01*
X18034461Y-82057480D01*
X18078045Y-82276588D01*
X18163536Y-82482982D01*
X18287651Y-82668733D01*
X18445618Y-82826700D01*
X18631369Y-82950815D01*
X18837763Y-83036306D01*
X19056871Y-83079890D01*
X19280271Y-83079890D01*
X19499379Y-83036306D01*
X19705773Y-82950815D01*
X19891524Y-82826700D01*
X20049491Y-82668733D01*
X20173606Y-82482982D01*
X20259097Y-82276588D01*
X20302681Y-82057480D01*
X20302681Y-81834080D01*
X20259097Y-81614972D01*
X20173606Y-81408578D01*
X20049491Y-81222827D01*
X19891524Y-81064860D01*
X19705773Y-80940745D01*
X19499379Y-80855254D01*
X19280271Y-80811670D01*
X19056871Y-80811670D01*
X18837763Y-80855254D01*
X18631369Y-80940745D01*
X18445618Y-81064860D01*
X18287651Y-81222827D01*
X18163536Y-81408578D01*
X18078045Y-81614972D01*
X18034461Y-81834080D01*
X12660000Y-81834080D01*
X12660000Y-73838160D01*
X18034461Y-73838160D01*
X18034461Y-74061560D01*
X18078045Y-74280668D01*
X18163536Y-74487062D01*
X18287651Y-74672813D01*
X18445618Y-74830780D01*
X18631369Y-74954895D01*
X18837763Y-75040386D01*
X19056871Y-75083970D01*
X19280271Y-75083970D01*
X19499379Y-75040386D01*
X19705773Y-74954895D01*
X19891524Y-74830780D01*
X20049491Y-74672813D01*
X20173606Y-74487062D01*
X20259097Y-74280668D01*
X20302681Y-74061560D01*
X20302681Y-73838160D01*
X20259097Y-73619052D01*
X20173606Y-73412658D01*
X20049491Y-73226907D01*
X19891524Y-73068940D01*
X19705773Y-72944825D01*
X19499379Y-72859334D01*
X19484695Y-72856413D01*
X31426400Y-72856413D01*
X31426400Y-73026527D01*
X31459587Y-73193373D01*
X31481497Y-73246269D01*
X31459587Y-73299164D01*
X31426400Y-73466010D01*
X31426400Y-73636124D01*
X31459587Y-73802970D01*
X31524687Y-73960135D01*
X31575067Y-74035533D01*
X31524687Y-74110932D01*
X31459587Y-74268097D01*
X31426400Y-74434943D01*
X31426400Y-74605057D01*
X31459587Y-74771903D01*
X31524687Y-74929068D01*
X31578764Y-75010000D01*
X31524687Y-75090932D01*
X31459587Y-75248097D01*
X31426400Y-75414943D01*
X31426400Y-75585057D01*
X31459587Y-75751903D01*
X31524687Y-75909068D01*
X31553696Y-75952483D01*
X31534687Y-75980932D01*
X31469587Y-76138097D01*
X31436400Y-76304943D01*
X31436400Y-76475057D01*
X31469587Y-76641903D01*
X31534687Y-76799068D01*
X31600469Y-76897517D01*
X31524687Y-77010932D01*
X31459587Y-77168097D01*
X31426400Y-77334943D01*
X31426400Y-77505057D01*
X31459587Y-77671903D01*
X31524687Y-77829068D01*
X31552037Y-77870000D01*
X31524687Y-77910932D01*
X31459587Y-78068097D01*
X31426400Y-78234943D01*
X31426400Y-78405057D01*
X31459587Y-78571903D01*
X31524687Y-78729068D01*
X31592128Y-78830000D01*
X31524687Y-78930932D01*
X31459587Y-79088097D01*
X31426400Y-79254943D01*
X31426400Y-79425057D01*
X31459587Y-79591903D01*
X31524687Y-79749068D01*
X31619198Y-79890513D01*
X31739487Y-80010802D01*
X31880932Y-80105313D01*
X32038097Y-80170413D01*
X32204943Y-80203600D01*
X32375057Y-80203600D01*
X32541903Y-80170413D01*
X32699068Y-80105313D01*
X32840513Y-80010802D01*
X32960802Y-79890513D01*
X33055313Y-79749068D01*
X33120413Y-79591903D01*
X33153600Y-79425057D01*
X33153600Y-79254943D01*
X33120413Y-79088097D01*
X33055313Y-78930932D01*
X32987872Y-78830000D01*
X33055313Y-78729068D01*
X33120413Y-78571903D01*
X33153600Y-78405057D01*
X33153600Y-78234943D01*
X33120413Y-78068097D01*
X33056975Y-77914943D01*
X53636400Y-77914943D01*
X53636400Y-78085057D01*
X53669587Y-78251903D01*
X53734687Y-78409068D01*
X53829198Y-78550513D01*
X53949487Y-78670802D01*
X54090932Y-78765313D01*
X54248097Y-78830413D01*
X54414943Y-78863600D01*
X54585057Y-78863600D01*
X54751903Y-78830413D01*
X54909068Y-78765313D01*
X55050513Y-78670802D01*
X55170802Y-78550513D01*
X55265313Y-78409068D01*
X55330413Y-78251903D01*
X55363600Y-78085057D01*
X55363600Y-77914943D01*
X55330413Y-77748097D01*
X55265313Y-77590932D01*
X55170802Y-77449487D01*
X55050513Y-77329198D01*
X54909068Y-77234687D01*
X54751903Y-77169587D01*
X54585057Y-77136400D01*
X54414943Y-77136400D01*
X54248097Y-77169587D01*
X54090932Y-77234687D01*
X53949487Y-77329198D01*
X53829198Y-77449487D01*
X53734687Y-77590932D01*
X53669587Y-77748097D01*
X53636400Y-77914943D01*
X33056975Y-77914943D01*
X33055313Y-77910932D01*
X33027963Y-77870000D01*
X33055313Y-77829068D01*
X33120413Y-77671903D01*
X33153600Y-77505057D01*
X33153600Y-77334943D01*
X33120413Y-77168097D01*
X33055313Y-77010932D01*
X32989531Y-76912483D01*
X33065313Y-76799068D01*
X33130413Y-76641903D01*
X33163600Y-76475057D01*
X33163600Y-76304943D01*
X33130413Y-76138097D01*
X33065313Y-75980932D01*
X33036304Y-75937517D01*
X33055313Y-75909068D01*
X33120413Y-75751903D01*
X33153600Y-75585057D01*
X33153600Y-75414943D01*
X33120413Y-75248097D01*
X33055313Y-75090932D01*
X33001236Y-75010000D01*
X33055313Y-74929068D01*
X33120413Y-74771903D01*
X33153600Y-74605057D01*
X33153600Y-74434943D01*
X33120413Y-74268097D01*
X33055313Y-74110932D01*
X33004933Y-74035533D01*
X33055313Y-73960135D01*
X33120413Y-73802970D01*
X33153600Y-73636124D01*
X33153600Y-73466010D01*
X33120413Y-73299164D01*
X33098503Y-73246269D01*
X33120413Y-73193373D01*
X33153600Y-73026527D01*
X33153600Y-72856413D01*
X33120413Y-72689567D01*
X33055313Y-72532402D01*
X32960802Y-72390957D01*
X32840513Y-72270668D01*
X32699068Y-72176157D01*
X32541903Y-72111057D01*
X32375057Y-72077870D01*
X32204943Y-72077870D01*
X32038097Y-72111057D01*
X31880932Y-72176157D01*
X31739487Y-72270668D01*
X31619198Y-72390957D01*
X31524687Y-72532402D01*
X31459587Y-72689567D01*
X31426400Y-72856413D01*
X19484695Y-72856413D01*
X19280271Y-72815750D01*
X19056871Y-72815750D01*
X18837763Y-72859334D01*
X18631369Y-72944825D01*
X18445618Y-73068940D01*
X18287651Y-73226907D01*
X18163536Y-73412658D01*
X18078045Y-73619052D01*
X18034461Y-73838160D01*
X12660000Y-73838160D01*
X12660000Y-69614943D01*
X42906400Y-69614943D01*
X42906400Y-69785057D01*
X42939587Y-69951903D01*
X43004687Y-70109068D01*
X43099198Y-70250513D01*
X43219487Y-70370802D01*
X43360932Y-70465313D01*
X43518097Y-70530413D01*
X43684943Y-70563600D01*
X43855057Y-70563600D01*
X44021903Y-70530413D01*
X44179068Y-70465313D01*
X44320513Y-70370802D01*
X44440802Y-70250513D01*
X44535313Y-70109068D01*
X44600413Y-69951903D01*
X44633600Y-69785057D01*
X44633600Y-69784943D01*
X52966400Y-69784943D01*
X52966400Y-69955057D01*
X52999587Y-70121903D01*
X53064687Y-70279068D01*
X53159198Y-70420513D01*
X53279487Y-70540802D01*
X53420932Y-70635313D01*
X53578097Y-70700413D01*
X53744943Y-70733600D01*
X53915057Y-70733600D01*
X54081903Y-70700413D01*
X54239068Y-70635313D01*
X54380513Y-70540802D01*
X54500000Y-70421315D01*
X54589487Y-70510802D01*
X54730932Y-70605313D01*
X54888097Y-70670413D01*
X55054943Y-70703600D01*
X55225057Y-70703600D01*
X55391903Y-70670413D01*
X55549068Y-70605313D01*
X55690513Y-70510802D01*
X55810802Y-70390513D01*
X55905313Y-70249068D01*
X55970413Y-70091903D01*
X56003600Y-69925057D01*
X56003600Y-69754943D01*
X55970413Y-69588097D01*
X55905313Y-69430932D01*
X55810802Y-69289487D01*
X55690513Y-69169198D01*
X55549068Y-69074687D01*
X55391903Y-69009587D01*
X55225057Y-68976400D01*
X55054943Y-68976400D01*
X54888097Y-69009587D01*
X54730932Y-69074687D01*
X54589487Y-69169198D01*
X54470000Y-69288685D01*
X54380513Y-69199198D01*
X54239068Y-69104687D01*
X54081903Y-69039587D01*
X53915057Y-69006400D01*
X53744943Y-69006400D01*
X53578097Y-69039587D01*
X53420932Y-69104687D01*
X53279487Y-69199198D01*
X53159198Y-69319487D01*
X53064687Y-69460932D01*
X52999587Y-69618097D01*
X52966400Y-69784943D01*
X44633600Y-69784943D01*
X44633600Y-69614943D01*
X44600413Y-69448097D01*
X44535313Y-69290932D01*
X44440802Y-69149487D01*
X44320513Y-69029198D01*
X44179068Y-68934687D01*
X44021903Y-68869587D01*
X43855057Y-68836400D01*
X43684943Y-68836400D01*
X43518097Y-68869587D01*
X43360932Y-68934687D01*
X43219487Y-69029198D01*
X43099198Y-69149487D01*
X43004687Y-69290932D01*
X42939587Y-69448097D01*
X42906400Y-69614943D01*
X12660000Y-69614943D01*
X12660000Y-68394938D01*
X47818700Y-68394938D01*
X47818700Y-68580062D01*
X47854816Y-68761629D01*
X47925660Y-68932662D01*
X48028510Y-69086587D01*
X48159413Y-69217490D01*
X48313338Y-69320340D01*
X48484371Y-69391184D01*
X48665938Y-69427300D01*
X48851062Y-69427300D01*
X49032629Y-69391184D01*
X49203662Y-69320340D01*
X49357587Y-69217490D01*
X49488490Y-69086587D01*
X49591340Y-68932662D01*
X49662184Y-68761629D01*
X49698300Y-68580062D01*
X49698300Y-68394938D01*
X49662184Y-68213371D01*
X49591340Y-68042338D01*
X49488490Y-67888413D01*
X49357587Y-67757510D01*
X49203662Y-67654660D01*
X49032629Y-67583816D01*
X48851062Y-67547700D01*
X48665938Y-67547700D01*
X48484371Y-67583816D01*
X48313338Y-67654660D01*
X48159413Y-67757510D01*
X48028510Y-67888413D01*
X47925660Y-68042338D01*
X47854816Y-68213371D01*
X47818700Y-68394938D01*
X12660000Y-68394938D01*
X12660000Y-65849743D01*
X43234000Y-65849743D01*
X43234000Y-66019857D01*
X43267187Y-66186703D01*
X43332287Y-66343868D01*
X43426798Y-66485313D01*
X43511285Y-66569800D01*
X43426798Y-66654287D01*
X43332287Y-66795732D01*
X43267187Y-66952897D01*
X43234000Y-67119743D01*
X43234000Y-67289857D01*
X43267187Y-67456703D01*
X43332287Y-67613868D01*
X43426798Y-67755313D01*
X43547087Y-67875602D01*
X43688532Y-67970113D01*
X43845697Y-68035213D01*
X44012543Y-68068400D01*
X44182657Y-68068400D01*
X44349503Y-68035213D01*
X44506668Y-67970113D01*
X44648113Y-67875602D01*
X44768402Y-67755313D01*
X44862913Y-67613868D01*
X44928013Y-67456703D01*
X44961200Y-67289857D01*
X44961200Y-67119743D01*
X44928013Y-66952897D01*
X44912292Y-66914943D01*
X60256400Y-66914943D01*
X60256400Y-67085057D01*
X60289587Y-67251903D01*
X60354687Y-67409068D01*
X60449198Y-67550513D01*
X60569487Y-67670802D01*
X60710932Y-67765313D01*
X60868097Y-67830413D01*
X61034943Y-67863600D01*
X61205057Y-67863600D01*
X61371903Y-67830413D01*
X61529068Y-67765313D01*
X61612415Y-67709622D01*
X61620932Y-67715313D01*
X61778097Y-67780413D01*
X61944943Y-67813600D01*
X62115057Y-67813600D01*
X62281903Y-67780413D01*
X62439068Y-67715313D01*
X62580513Y-67620802D01*
X62700802Y-67500513D01*
X62795313Y-67359068D01*
X62860413Y-67201903D01*
X62893600Y-67035057D01*
X62893600Y-66864943D01*
X62860413Y-66698097D01*
X62795313Y-66540932D01*
X62700802Y-66399487D01*
X62580513Y-66279198D01*
X62439068Y-66184687D01*
X62281903Y-66119587D01*
X62115057Y-66086400D01*
X61944943Y-66086400D01*
X61778097Y-66119587D01*
X61620932Y-66184687D01*
X61537585Y-66240378D01*
X61529068Y-66234687D01*
X61371903Y-66169587D01*
X61205057Y-66136400D01*
X61034943Y-66136400D01*
X60868097Y-66169587D01*
X60710932Y-66234687D01*
X60569487Y-66329198D01*
X60449198Y-66449487D01*
X60354687Y-66590932D01*
X60289587Y-66748097D01*
X60256400Y-66914943D01*
X44912292Y-66914943D01*
X44862913Y-66795732D01*
X44768402Y-66654287D01*
X44683915Y-66569800D01*
X44768402Y-66485313D01*
X44862913Y-66343868D01*
X44928013Y-66186703D01*
X44961200Y-66019857D01*
X44961200Y-65849743D01*
X44952786Y-65807438D01*
X50360200Y-65807438D01*
X50360200Y-65992562D01*
X50396316Y-66174129D01*
X50467160Y-66345162D01*
X50570010Y-66499087D01*
X50700913Y-66629990D01*
X50854838Y-66732840D01*
X51025871Y-66803684D01*
X51207438Y-66839800D01*
X51392562Y-66839800D01*
X51574129Y-66803684D01*
X51745162Y-66732840D01*
X51899087Y-66629990D01*
X52029990Y-66499087D01*
X52132840Y-66345162D01*
X52203684Y-66174129D01*
X52239800Y-65992562D01*
X52239800Y-65807438D01*
X52203684Y-65625871D01*
X52132840Y-65454838D01*
X52029990Y-65300913D01*
X51899087Y-65170010D01*
X51745162Y-65067160D01*
X51574129Y-64996316D01*
X51392562Y-64960200D01*
X51207438Y-64960200D01*
X51025871Y-64996316D01*
X50854838Y-65067160D01*
X50700913Y-65170010D01*
X50570010Y-65300913D01*
X50467160Y-65454838D01*
X50396316Y-65625871D01*
X50360200Y-65807438D01*
X44952786Y-65807438D01*
X44928013Y-65682897D01*
X44862913Y-65525732D01*
X44768402Y-65384287D01*
X44648113Y-65263998D01*
X44506668Y-65169487D01*
X44349503Y-65104387D01*
X44182657Y-65071200D01*
X44012543Y-65071200D01*
X43845697Y-65104387D01*
X43688532Y-65169487D01*
X43547087Y-65263998D01*
X43426798Y-65384287D01*
X43332287Y-65525732D01*
X43267187Y-65682897D01*
X43234000Y-65849743D01*
X12660000Y-65849743D01*
X12660000Y-61214943D01*
X33236400Y-61214943D01*
X33236400Y-61385057D01*
X33269587Y-61551903D01*
X33334687Y-61709068D01*
X33429198Y-61850513D01*
X33549487Y-61970802D01*
X33690932Y-62065313D01*
X33848097Y-62130413D01*
X34014943Y-62163600D01*
X34185057Y-62163600D01*
X34351903Y-62130413D01*
X34450000Y-62089780D01*
X34548097Y-62130413D01*
X34714943Y-62163600D01*
X34885057Y-62163600D01*
X35051903Y-62130413D01*
X35209068Y-62065313D01*
X35350513Y-61970802D01*
X35470802Y-61850513D01*
X35565313Y-61709068D01*
X35630413Y-61551903D01*
X35663600Y-61385057D01*
X35663600Y-61214943D01*
X35630413Y-61048097D01*
X35565313Y-60890932D01*
X35481130Y-60764943D01*
X39033860Y-60764943D01*
X39033860Y-60935057D01*
X39067047Y-61101903D01*
X39132147Y-61259068D01*
X39226658Y-61400513D01*
X39346947Y-61520802D01*
X39488392Y-61615313D01*
X39645557Y-61680413D01*
X39812403Y-61713600D01*
X39982517Y-61713600D01*
X40149363Y-61680413D01*
X40306528Y-61615313D01*
X40447973Y-61520802D01*
X40493730Y-61475045D01*
X40539487Y-61520802D01*
X40670406Y-61608279D01*
X40579198Y-61699487D01*
X40484687Y-61840932D01*
X40419587Y-61998097D01*
X40386400Y-62164943D01*
X40386400Y-62335057D01*
X40419587Y-62501903D01*
X40484687Y-62659068D01*
X40579198Y-62800513D01*
X40668685Y-62890000D01*
X40609198Y-62949487D01*
X40514687Y-63090932D01*
X40449587Y-63248097D01*
X40416400Y-63414943D01*
X40416400Y-63585057D01*
X40449587Y-63751903D01*
X40514687Y-63909068D01*
X40609198Y-64050513D01*
X40729487Y-64170802D01*
X40870932Y-64265313D01*
X41028097Y-64330413D01*
X41194943Y-64363600D01*
X41365057Y-64363600D01*
X41531903Y-64330413D01*
X41689068Y-64265313D01*
X41830513Y-64170802D01*
X41950802Y-64050513D01*
X42045313Y-63909068D01*
X42110413Y-63751903D01*
X42143600Y-63585057D01*
X42143600Y-63414943D01*
X42122217Y-63307438D01*
X42772800Y-63307438D01*
X42772800Y-63492562D01*
X42808916Y-63674129D01*
X42879760Y-63845162D01*
X42982610Y-63999087D01*
X43113513Y-64129990D01*
X43267438Y-64232840D01*
X43438471Y-64303684D01*
X43620038Y-64339800D01*
X43805162Y-64339800D01*
X43986729Y-64303684D01*
X44157762Y-64232840D01*
X44311687Y-64129990D01*
X44442590Y-63999087D01*
X44545440Y-63845162D01*
X44616284Y-63674129D01*
X44652400Y-63492562D01*
X44652400Y-63307438D01*
X44641261Y-63251438D01*
X46612200Y-63251438D01*
X46612200Y-63436562D01*
X46648316Y-63618129D01*
X46719160Y-63789162D01*
X46822010Y-63943087D01*
X46952913Y-64073990D01*
X47106838Y-64176840D01*
X47277871Y-64247684D01*
X47459438Y-64283800D01*
X47644562Y-64283800D01*
X47826129Y-64247684D01*
X47990518Y-64179592D01*
X47963760Y-64219638D01*
X47892916Y-64390671D01*
X47856800Y-64572238D01*
X47856800Y-64757362D01*
X47892916Y-64938929D01*
X47963760Y-65109962D01*
X48066610Y-65263887D01*
X48197513Y-65394790D01*
X48351438Y-65497640D01*
X48522471Y-65568484D01*
X48704038Y-65604600D01*
X48889162Y-65604600D01*
X49070729Y-65568484D01*
X49241762Y-65497640D01*
X49395687Y-65394790D01*
X49526590Y-65263887D01*
X49629440Y-65109962D01*
X49700284Y-64938929D01*
X49736400Y-64757362D01*
X49736400Y-64572238D01*
X49700284Y-64390671D01*
X49629440Y-64219638D01*
X49526590Y-64065713D01*
X49395687Y-63934810D01*
X49241762Y-63831960D01*
X49070729Y-63761116D01*
X48889162Y-63725000D01*
X48704038Y-63725000D01*
X48522471Y-63761116D01*
X48358082Y-63829208D01*
X48384840Y-63789162D01*
X48455684Y-63618129D01*
X48491800Y-63436562D01*
X48491800Y-63251438D01*
X49279200Y-63251438D01*
X49279200Y-63436562D01*
X49315316Y-63618129D01*
X49386160Y-63789162D01*
X49489010Y-63943087D01*
X49619913Y-64073990D01*
X49773838Y-64176840D01*
X49944871Y-64247684D01*
X50126438Y-64283800D01*
X50311562Y-64283800D01*
X50493129Y-64247684D01*
X50664162Y-64176840D01*
X50818087Y-64073990D01*
X50948990Y-63943087D01*
X51051840Y-63789162D01*
X51122684Y-63618129D01*
X51158800Y-63436562D01*
X51158800Y-63314938D01*
X52962200Y-63314938D01*
X52962200Y-63500062D01*
X52998316Y-63681629D01*
X53069160Y-63852662D01*
X53172010Y-64006587D01*
X53302913Y-64137490D01*
X53456838Y-64240340D01*
X53627871Y-64311184D01*
X53809438Y-64347300D01*
X53994562Y-64347300D01*
X54176129Y-64311184D01*
X54347162Y-64240340D01*
X54501087Y-64137490D01*
X54631990Y-64006587D01*
X54734840Y-63852662D01*
X54805684Y-63681629D01*
X54841800Y-63500062D01*
X54841800Y-63314938D01*
X54805684Y-63133371D01*
X54734840Y-62962338D01*
X54631990Y-62808413D01*
X54501087Y-62677510D01*
X54347162Y-62574660D01*
X54176129Y-62503816D01*
X53994562Y-62467700D01*
X53809438Y-62467700D01*
X53627871Y-62503816D01*
X53456838Y-62574660D01*
X53302913Y-62677510D01*
X53172010Y-62808413D01*
X53069160Y-62962338D01*
X52998316Y-63133371D01*
X52962200Y-63314938D01*
X51158800Y-63314938D01*
X51158800Y-63251438D01*
X51122684Y-63069871D01*
X51051840Y-62898838D01*
X50948990Y-62744913D01*
X50818087Y-62614010D01*
X50664162Y-62511160D01*
X50493129Y-62440316D01*
X50311562Y-62404200D01*
X50126438Y-62404200D01*
X49944871Y-62440316D01*
X49773838Y-62511160D01*
X49619913Y-62614010D01*
X49489010Y-62744913D01*
X49386160Y-62898838D01*
X49315316Y-63069871D01*
X49279200Y-63251438D01*
X48491800Y-63251438D01*
X48455684Y-63069871D01*
X48384840Y-62898838D01*
X48281990Y-62744913D01*
X48151087Y-62614010D01*
X47997162Y-62511160D01*
X47826129Y-62440316D01*
X47644562Y-62404200D01*
X47459438Y-62404200D01*
X47277871Y-62440316D01*
X47106838Y-62511160D01*
X46952913Y-62614010D01*
X46822010Y-62744913D01*
X46719160Y-62898838D01*
X46648316Y-63069871D01*
X46612200Y-63251438D01*
X44641261Y-63251438D01*
X44616284Y-63125871D01*
X44545440Y-62954838D01*
X44442590Y-62800913D01*
X44311687Y-62670010D01*
X44157762Y-62567160D01*
X43986729Y-62496316D01*
X43805162Y-62460200D01*
X43620038Y-62460200D01*
X43438471Y-62496316D01*
X43267438Y-62567160D01*
X43113513Y-62670010D01*
X42982610Y-62800913D01*
X42879760Y-62954838D01*
X42808916Y-63125871D01*
X42772800Y-63307438D01*
X42122217Y-63307438D01*
X42110413Y-63248097D01*
X42045313Y-63090932D01*
X41950802Y-62949487D01*
X41861315Y-62860000D01*
X41920802Y-62800513D01*
X42015313Y-62659068D01*
X42080413Y-62501903D01*
X42113600Y-62335057D01*
X42113600Y-62164943D01*
X42080413Y-61998097D01*
X42015313Y-61840932D01*
X41920802Y-61699487D01*
X41800513Y-61579198D01*
X41669594Y-61491721D01*
X41760802Y-61400513D01*
X41783318Y-61366815D01*
X41819198Y-61420513D01*
X41939487Y-61540802D01*
X42080932Y-61635313D01*
X42238097Y-61700413D01*
X42404943Y-61733600D01*
X42575057Y-61733600D01*
X42741903Y-61700413D01*
X42899068Y-61635313D01*
X43040513Y-61540802D01*
X43160802Y-61420513D01*
X43255313Y-61279068D01*
X43296948Y-61178552D01*
X43332287Y-61263868D01*
X43426798Y-61405313D01*
X43547087Y-61525602D01*
X43688532Y-61620113D01*
X43845697Y-61685213D01*
X44012543Y-61718400D01*
X44182657Y-61718400D01*
X44349503Y-61685213D01*
X44506668Y-61620113D01*
X44648113Y-61525602D01*
X44768402Y-61405313D01*
X44862913Y-61263868D01*
X44928013Y-61106703D01*
X44961200Y-60939857D01*
X44961200Y-60769743D01*
X44928013Y-60602897D01*
X44862913Y-60445732D01*
X44768402Y-60304287D01*
X44683915Y-60219800D01*
X44768402Y-60135313D01*
X44862913Y-59993868D01*
X44928013Y-59836703D01*
X44961200Y-59669857D01*
X44961200Y-59499743D01*
X44928013Y-59332897D01*
X44862913Y-59175732D01*
X44768402Y-59034287D01*
X44648113Y-58913998D01*
X44506668Y-58819487D01*
X44349503Y-58754387D01*
X44182657Y-58721200D01*
X44012543Y-58721200D01*
X43845697Y-58754387D01*
X43688532Y-58819487D01*
X43547087Y-58913998D01*
X43426798Y-59034287D01*
X43332287Y-59175732D01*
X43280240Y-59301385D01*
X43242773Y-59210932D01*
X43148262Y-59069487D01*
X43027973Y-58949198D01*
X42886528Y-58854687D01*
X42729363Y-58789587D01*
X42562517Y-58756400D01*
X42392403Y-58756400D01*
X42225557Y-58789587D01*
X42068392Y-58854687D01*
X41926947Y-58949198D01*
X41806658Y-59069487D01*
X41712147Y-59210932D01*
X41647047Y-59368097D01*
X41613860Y-59534943D01*
X41613860Y-59705057D01*
X41647047Y-59871903D01*
X41712147Y-60029068D01*
X41806658Y-60170513D01*
X41887415Y-60251270D01*
X41819198Y-60319487D01*
X41796682Y-60353185D01*
X41760802Y-60299487D01*
X41640513Y-60179198D01*
X41499068Y-60084687D01*
X41341903Y-60019587D01*
X41175057Y-59986400D01*
X41004943Y-59986400D01*
X40838097Y-60019587D01*
X40680932Y-60084687D01*
X40539487Y-60179198D01*
X40493730Y-60224955D01*
X40447973Y-60179198D01*
X40306528Y-60084687D01*
X40149363Y-60019587D01*
X39982517Y-59986400D01*
X39812403Y-59986400D01*
X39645557Y-60019587D01*
X39488392Y-60084687D01*
X39346947Y-60179198D01*
X39226658Y-60299487D01*
X39132147Y-60440932D01*
X39067047Y-60598097D01*
X39033860Y-60764943D01*
X35481130Y-60764943D01*
X35470802Y-60749487D01*
X35350513Y-60629198D01*
X35209068Y-60534687D01*
X35051903Y-60469587D01*
X34885057Y-60436400D01*
X34714943Y-60436400D01*
X34548097Y-60469587D01*
X34450000Y-60510220D01*
X34351903Y-60469587D01*
X34185057Y-60436400D01*
X34014943Y-60436400D01*
X33848097Y-60469587D01*
X33690932Y-60534687D01*
X33549487Y-60629198D01*
X33429198Y-60749487D01*
X33334687Y-60890932D01*
X33269587Y-61048097D01*
X33236400Y-61214943D01*
X12660000Y-61214943D01*
X12660000Y-58407438D01*
X23860200Y-58407438D01*
X23860200Y-58592562D01*
X23896316Y-58774129D01*
X23967160Y-58945162D01*
X24070010Y-59099087D01*
X24200913Y-59229990D01*
X24354838Y-59332840D01*
X24525871Y-59403684D01*
X24707438Y-59439800D01*
X24892562Y-59439800D01*
X25074129Y-59403684D01*
X25245162Y-59332840D01*
X25399087Y-59229990D01*
X25529990Y-59099087D01*
X25632840Y-58945162D01*
X25703684Y-58774129D01*
X25739800Y-58592562D01*
X25739800Y-58407438D01*
X25703684Y-58225871D01*
X25632840Y-58054838D01*
X25529990Y-57900913D01*
X25444020Y-57814943D01*
X27436400Y-57814943D01*
X27436400Y-57985057D01*
X27469587Y-58151903D01*
X27534687Y-58309068D01*
X27629198Y-58450513D01*
X27749487Y-58570802D01*
X27890932Y-58665313D01*
X28048097Y-58730413D01*
X28214943Y-58763600D01*
X28385057Y-58763600D01*
X28551903Y-58730413D01*
X28709068Y-58665313D01*
X28750000Y-58637963D01*
X28790932Y-58665313D01*
X28948097Y-58730413D01*
X29114943Y-58763600D01*
X29285057Y-58763600D01*
X29451903Y-58730413D01*
X29609068Y-58665313D01*
X29611374Y-58663772D01*
X29613680Y-58665313D01*
X29770845Y-58730413D01*
X29937691Y-58763600D01*
X30107805Y-58763600D01*
X30274651Y-58730413D01*
X30361370Y-58694493D01*
X30448089Y-58730413D01*
X30614935Y-58763600D01*
X30785049Y-58763600D01*
X30951895Y-58730413D01*
X31109060Y-58665313D01*
X31250505Y-58570802D01*
X31370794Y-58450513D01*
X31465305Y-58309068D01*
X31530405Y-58151903D01*
X31563592Y-57985057D01*
X31563592Y-57814943D01*
X31530405Y-57648097D01*
X31465305Y-57490932D01*
X31370794Y-57349487D01*
X31250505Y-57229198D01*
X31109060Y-57134687D01*
X30951895Y-57069587D01*
X30785049Y-57036400D01*
X30614935Y-57036400D01*
X30448089Y-57069587D01*
X30361370Y-57105507D01*
X30274651Y-57069587D01*
X30107805Y-57036400D01*
X29937691Y-57036400D01*
X29770845Y-57069587D01*
X29613680Y-57134687D01*
X29611374Y-57136228D01*
X29609068Y-57134687D01*
X29451903Y-57069587D01*
X29285057Y-57036400D01*
X29114943Y-57036400D01*
X28948097Y-57069587D01*
X28790932Y-57134687D01*
X28750000Y-57162037D01*
X28709068Y-57134687D01*
X28551903Y-57069587D01*
X28385057Y-57036400D01*
X28214943Y-57036400D01*
X28048097Y-57069587D01*
X27890932Y-57134687D01*
X27749487Y-57229198D01*
X27629198Y-57349487D01*
X27534687Y-57490932D01*
X27469587Y-57648097D01*
X27436400Y-57814943D01*
X25444020Y-57814943D01*
X25399087Y-57770010D01*
X25245162Y-57667160D01*
X25074129Y-57596316D01*
X24892562Y-57560200D01*
X24707438Y-57560200D01*
X24525871Y-57596316D01*
X24354838Y-57667160D01*
X24200913Y-57770010D01*
X24070010Y-57900913D01*
X23967160Y-58054838D01*
X23896316Y-58225871D01*
X23860200Y-58407438D01*
X12660000Y-58407438D01*
X12660000Y-47835098D01*
X23105000Y-47835098D01*
X23105000Y-48304902D01*
X23196654Y-48765679D01*
X23376440Y-49199721D01*
X23637450Y-49590349D01*
X23969651Y-49922550D01*
X24360279Y-50183560D01*
X24794321Y-50363346D01*
X25255098Y-50455000D01*
X25724902Y-50455000D01*
X26185679Y-50363346D01*
X26619721Y-50183560D01*
X27010349Y-49922550D01*
X27342550Y-49590349D01*
X27603560Y-49199721D01*
X27783346Y-48765679D01*
X27875000Y-48304902D01*
X27875000Y-47835098D01*
X27783346Y-47374321D01*
X27603560Y-46940279D01*
X27342550Y-46549651D01*
X27010349Y-46217450D01*
X26619721Y-45956440D01*
X26185679Y-45776654D01*
X25724902Y-45685000D01*
X25255098Y-45685000D01*
X24794321Y-45776654D01*
X24360279Y-45956440D01*
X23969651Y-46217450D01*
X23637450Y-46549651D01*
X23376440Y-46940279D01*
X23196654Y-47374321D01*
X23105000Y-47835098D01*
X12660000Y-47835098D01*
X12660000Y-34695098D01*
X23105000Y-34695098D01*
X23105000Y-35164902D01*
X23196654Y-35625679D01*
X23376440Y-36059721D01*
X23637450Y-36450349D01*
X23969651Y-36782550D01*
X24360279Y-37043560D01*
X24794321Y-37223346D01*
X25255098Y-37315000D01*
X25724902Y-37315000D01*
X26185679Y-37223346D01*
X26619721Y-37043560D01*
X26965991Y-36812189D01*
X26907463Y-36883506D01*
X26848498Y-36993820D01*
X26812188Y-37113518D01*
X26799928Y-37238000D01*
X26799928Y-38762000D01*
X26812188Y-38886482D01*
X26848498Y-39006180D01*
X26907463Y-39116494D01*
X26986815Y-39213185D01*
X27083506Y-39292537D01*
X27193820Y-39351502D01*
X27313518Y-39387812D01*
X27345292Y-39390941D01*
X27309465Y-39414880D01*
X27114880Y-39609465D01*
X26961995Y-39838273D01*
X26856686Y-40092510D01*
X26803000Y-40362408D01*
X26803000Y-40637592D01*
X26856686Y-40907490D01*
X26961995Y-41161727D01*
X27114880Y-41390535D01*
X27224345Y-41500000D01*
X27114880Y-41609465D01*
X26961995Y-41838273D01*
X26856686Y-42092510D01*
X26803000Y-42362408D01*
X26803000Y-42637592D01*
X26856686Y-42907490D01*
X26961995Y-43161727D01*
X27114880Y-43390535D01*
X27309465Y-43585120D01*
X27538273Y-43738005D01*
X27567231Y-43750000D01*
X27538273Y-43761995D01*
X27309465Y-43914880D01*
X27114880Y-44109465D01*
X26961995Y-44338273D01*
X26856686Y-44592510D01*
X26803000Y-44862408D01*
X26803000Y-45137592D01*
X26856686Y-45407490D01*
X26961995Y-45661727D01*
X27114880Y-45890535D01*
X27309465Y-46085120D01*
X27538273Y-46238005D01*
X27792510Y-46343314D01*
X28062408Y-46397000D01*
X28337592Y-46397000D01*
X28607490Y-46343314D01*
X28861727Y-46238005D01*
X29090535Y-46085120D01*
X29285120Y-45890535D01*
X29438005Y-45661727D01*
X29543314Y-45407490D01*
X29597000Y-45137592D01*
X29597000Y-44862408D01*
X29543314Y-44592510D01*
X29438005Y-44338273D01*
X29285120Y-44109465D01*
X29090535Y-43914880D01*
X28861727Y-43761995D01*
X28832769Y-43750000D01*
X28861727Y-43738005D01*
X29090535Y-43585120D01*
X29285120Y-43390535D01*
X29438005Y-43161727D01*
X29543314Y-42907490D01*
X29597000Y-42637592D01*
X29597000Y-42362408D01*
X29543314Y-42092510D01*
X29438005Y-41838273D01*
X29285120Y-41609465D01*
X29175655Y-41500000D01*
X29285120Y-41390535D01*
X29438005Y-41161727D01*
X29543314Y-40907490D01*
X29597000Y-40637592D01*
X29597000Y-40362408D01*
X29543314Y-40092510D01*
X29438005Y-39838273D01*
X29285120Y-39609465D01*
X29090535Y-39414880D01*
X29054708Y-39390941D01*
X29086482Y-39387812D01*
X29206180Y-39351502D01*
X29316494Y-39292537D01*
X29413185Y-39213185D01*
X29492537Y-39116494D01*
X29551502Y-39006180D01*
X29587812Y-38886482D01*
X29593818Y-38825500D01*
X33248068Y-38825500D01*
X44997066Y-50574500D01*
X27640550Y-50574500D01*
X27600000Y-50570506D01*
X27559449Y-50574500D01*
X27559447Y-50574500D01*
X27438174Y-50586444D01*
X27291104Y-50631057D01*
X27282566Y-50633647D01*
X27139157Y-50710301D01*
X27044958Y-50787608D01*
X27044955Y-50787611D01*
X27013459Y-50813459D01*
X26987611Y-50844955D01*
X24638829Y-53193738D01*
X24625871Y-53196316D01*
X24454838Y-53267160D01*
X24300913Y-53370010D01*
X24170010Y-53500913D01*
X24067160Y-53654838D01*
X23996316Y-53825871D01*
X23960200Y-54007438D01*
X23960200Y-54192562D01*
X23996316Y-54374129D01*
X24067160Y-54545162D01*
X24170010Y-54699087D01*
X24300913Y-54829990D01*
X24454838Y-54932840D01*
X24625871Y-55003684D01*
X24807438Y-55039800D01*
X24992562Y-55039800D01*
X25174129Y-55003684D01*
X25345162Y-54932840D01*
X25499087Y-54829990D01*
X25629990Y-54699087D01*
X25732840Y-54545162D01*
X25761925Y-54474943D01*
X37876400Y-54474943D01*
X37876400Y-54645057D01*
X37909587Y-54811903D01*
X37974687Y-54969068D01*
X38069198Y-55110513D01*
X38189487Y-55230802D01*
X38330932Y-55325313D01*
X38488097Y-55390413D01*
X38654943Y-55423600D01*
X38825057Y-55423600D01*
X38991903Y-55390413D01*
X39149068Y-55325313D01*
X39290513Y-55230802D01*
X39340000Y-55181315D01*
X39348685Y-55190000D01*
X39239198Y-55299487D01*
X39144687Y-55440932D01*
X39079587Y-55598097D01*
X39046400Y-55764943D01*
X39046400Y-55935057D01*
X39079587Y-56101903D01*
X39144687Y-56259068D01*
X39239198Y-56400513D01*
X39359487Y-56520802D01*
X39500932Y-56615313D01*
X39658097Y-56680413D01*
X39824943Y-56713600D01*
X39995057Y-56713600D01*
X40161903Y-56680413D01*
X40319068Y-56615313D01*
X40460513Y-56520802D01*
X40570000Y-56411315D01*
X40639487Y-56480802D01*
X40780932Y-56575313D01*
X40938097Y-56640413D01*
X41104943Y-56673600D01*
X41275057Y-56673600D01*
X41441903Y-56640413D01*
X41599068Y-56575313D01*
X41740513Y-56480802D01*
X41840000Y-56381315D01*
X41939487Y-56480802D01*
X42080932Y-56575313D01*
X42238097Y-56640413D01*
X42404943Y-56673600D01*
X42575057Y-56673600D01*
X42741903Y-56640413D01*
X42899068Y-56575313D01*
X43040513Y-56480802D01*
X43160802Y-56360513D01*
X43255313Y-56219068D01*
X43320413Y-56061903D01*
X43353600Y-55895057D01*
X43353600Y-55724943D01*
X43320413Y-55558097D01*
X43255313Y-55400932D01*
X43160802Y-55259487D01*
X43040513Y-55139198D01*
X42899068Y-55044687D01*
X42741903Y-54979587D01*
X42575057Y-54946400D01*
X42404943Y-54946400D01*
X42238097Y-54979587D01*
X42080932Y-55044687D01*
X41939487Y-55139198D01*
X41840000Y-55238685D01*
X41740513Y-55139198D01*
X41599068Y-55044687D01*
X41441903Y-54979587D01*
X41275057Y-54946400D01*
X41104943Y-54946400D01*
X40938097Y-54979587D01*
X40780932Y-55044687D01*
X40639487Y-55139198D01*
X40530000Y-55248685D01*
X40501315Y-55220000D01*
X40610802Y-55110513D01*
X40705313Y-54969068D01*
X40770413Y-54811903D01*
X40803600Y-54645057D01*
X40803600Y-54474943D01*
X40770413Y-54308097D01*
X40716340Y-54177553D01*
X40868097Y-54240413D01*
X41034943Y-54273600D01*
X41205057Y-54273600D01*
X41371903Y-54240413D01*
X41529068Y-54175313D01*
X41670513Y-54080802D01*
X41790802Y-53960513D01*
X41885313Y-53819068D01*
X41950413Y-53661903D01*
X41983600Y-53495057D01*
X41983600Y-53324943D01*
X41950413Y-53158097D01*
X41885313Y-53000932D01*
X41790802Y-52859487D01*
X41670513Y-52739198D01*
X41529068Y-52644687D01*
X41371903Y-52579587D01*
X41205057Y-52546400D01*
X41034943Y-52546400D01*
X40868097Y-52579587D01*
X40710932Y-52644687D01*
X40569487Y-52739198D01*
X40530000Y-52778685D01*
X40440513Y-52689198D01*
X40299068Y-52594687D01*
X40141903Y-52529587D01*
X39975057Y-52496400D01*
X39804943Y-52496400D01*
X39638097Y-52529587D01*
X39480932Y-52594687D01*
X39339487Y-52689198D01*
X39219198Y-52809487D01*
X39124687Y-52950932D01*
X39059587Y-53108097D01*
X39026400Y-53274943D01*
X39026400Y-53445057D01*
X39059587Y-53611903D01*
X39124687Y-53769068D01*
X39139026Y-53790527D01*
X38991903Y-53729587D01*
X38825057Y-53696400D01*
X38654943Y-53696400D01*
X38488097Y-53729587D01*
X38330932Y-53794687D01*
X38189487Y-53889198D01*
X38069198Y-54009487D01*
X37974687Y-54150932D01*
X37909587Y-54308097D01*
X37876400Y-54474943D01*
X25761925Y-54474943D01*
X25803684Y-54374129D01*
X25806262Y-54361171D01*
X27941934Y-52225500D01*
X48343853Y-52225500D01*
X48354838Y-52232840D01*
X48525871Y-52303684D01*
X48707438Y-52339800D01*
X48892562Y-52339800D01*
X49074129Y-52303684D01*
X49245162Y-52232840D01*
X49399087Y-52129990D01*
X49471348Y-52057729D01*
X52958592Y-55544973D01*
X52940200Y-55637438D01*
X52940200Y-55822562D01*
X52976316Y-56004129D01*
X53047160Y-56175162D01*
X53150010Y-56329087D01*
X53280913Y-56459990D01*
X53434838Y-56562840D01*
X53605871Y-56633684D01*
X53704304Y-56653264D01*
X52683068Y-57674500D01*
X50400550Y-57674500D01*
X50359999Y-57670506D01*
X50319449Y-57674500D01*
X50319447Y-57674500D01*
X50198174Y-57686444D01*
X50042566Y-57733647D01*
X49899157Y-57810301D01*
X49837622Y-57860802D01*
X49773459Y-57913459D01*
X49747608Y-57944959D01*
X49700352Y-57992215D01*
X49654840Y-57882338D01*
X49551990Y-57728413D01*
X49421087Y-57597510D01*
X49267162Y-57494660D01*
X49096129Y-57423816D01*
X48914562Y-57387700D01*
X48729438Y-57387700D01*
X48547871Y-57423816D01*
X48376838Y-57494660D01*
X48222913Y-57597510D01*
X48092010Y-57728413D01*
X47989160Y-57882338D01*
X47918316Y-58053371D01*
X47882200Y-58234938D01*
X47882200Y-58420062D01*
X47918316Y-58601629D01*
X47989160Y-58772662D01*
X48092010Y-58926587D01*
X48222913Y-59057490D01*
X48376838Y-59160340D01*
X48486715Y-59205853D01*
X48238068Y-59454500D01*
X46543764Y-59454500D01*
X46531903Y-59449587D01*
X46365057Y-59416400D01*
X46194943Y-59416400D01*
X46028097Y-59449587D01*
X45870932Y-59514687D01*
X45729487Y-59609198D01*
X45609198Y-59729487D01*
X45514687Y-59870932D01*
X45449587Y-60028097D01*
X45416400Y-60194943D01*
X45416400Y-60365057D01*
X45449587Y-60531903D01*
X45514687Y-60689068D01*
X45609198Y-60830513D01*
X45729487Y-60950802D01*
X45870932Y-61045313D01*
X46028097Y-61110413D01*
X46194943Y-61143600D01*
X46365057Y-61143600D01*
X46531903Y-61110413D01*
X46543764Y-61105500D01*
X48539450Y-61105500D01*
X48580000Y-61109494D01*
X48620550Y-61105500D01*
X48620553Y-61105500D01*
X48741826Y-61093556D01*
X48897434Y-61046353D01*
X49040842Y-60969699D01*
X49166541Y-60866541D01*
X49192398Y-60835034D01*
X50701933Y-59325500D01*
X51911312Y-59325500D01*
X51812312Y-59424500D01*
X51603764Y-59424500D01*
X51591903Y-59419587D01*
X51425057Y-59386400D01*
X51254943Y-59386400D01*
X51088097Y-59419587D01*
X50930932Y-59484687D01*
X50789487Y-59579198D01*
X50669198Y-59699487D01*
X50574687Y-59840932D01*
X50509587Y-59998097D01*
X50476400Y-60164943D01*
X50476400Y-60335057D01*
X50509587Y-60501903D01*
X50574687Y-60659068D01*
X50669198Y-60800513D01*
X50789487Y-60920802D01*
X50930932Y-61015313D01*
X51088097Y-61080413D01*
X51254943Y-61113600D01*
X51425057Y-61113600D01*
X51591903Y-61080413D01*
X51603764Y-61075500D01*
X52113694Y-61075500D01*
X52154244Y-61079494D01*
X52194794Y-61075500D01*
X52194797Y-61075500D01*
X52316070Y-61063556D01*
X52471678Y-61016353D01*
X52615086Y-60939699D01*
X52740785Y-60836541D01*
X52766642Y-60805034D01*
X52776733Y-60794943D01*
X54036400Y-60794943D01*
X54036400Y-60965057D01*
X54069587Y-61131903D01*
X54134687Y-61289068D01*
X54229198Y-61430513D01*
X54349487Y-61550802D01*
X54490932Y-61645313D01*
X54648097Y-61710413D01*
X54814943Y-61743600D01*
X54985057Y-61743600D01*
X55151903Y-61710413D01*
X55309068Y-61645313D01*
X55450513Y-61550802D01*
X55570802Y-61430513D01*
X55576063Y-61422638D01*
X58855000Y-61422638D01*
X58855000Y-61607762D01*
X58891116Y-61789329D01*
X58961960Y-61960362D01*
X59064810Y-62114287D01*
X59100723Y-62150200D01*
X59064810Y-62186113D01*
X58961960Y-62340038D01*
X58891116Y-62511071D01*
X58855000Y-62692638D01*
X58855000Y-62877762D01*
X58891116Y-63059329D01*
X58961960Y-63230362D01*
X59064810Y-63384287D01*
X59075323Y-63394800D01*
X59064810Y-63405313D01*
X58961960Y-63559238D01*
X58891116Y-63730271D01*
X58855000Y-63911838D01*
X58855000Y-64096962D01*
X58891116Y-64278529D01*
X58961960Y-64449562D01*
X59064810Y-64603487D01*
X59195713Y-64734390D01*
X59349638Y-64837240D01*
X59520671Y-64908084D01*
X59702238Y-64944200D01*
X59887362Y-64944200D01*
X60068929Y-64908084D01*
X60125000Y-64884859D01*
X60181071Y-64908084D01*
X60362638Y-64944200D01*
X60547762Y-64944200D01*
X60729329Y-64908084D01*
X60785400Y-64884859D01*
X60841471Y-64908084D01*
X61023038Y-64944200D01*
X61208162Y-64944200D01*
X61389729Y-64908084D01*
X61560762Y-64837240D01*
X61714687Y-64734390D01*
X61845590Y-64603487D01*
X61948440Y-64449562D01*
X62019284Y-64278529D01*
X62055400Y-64096962D01*
X62055400Y-63911838D01*
X62019284Y-63730271D01*
X61948440Y-63559238D01*
X61845590Y-63405313D01*
X61835077Y-63394800D01*
X61845590Y-63384287D01*
X61948440Y-63230362D01*
X62019284Y-63059329D01*
X62055400Y-62877762D01*
X62055400Y-62692638D01*
X62019284Y-62511071D01*
X61948714Y-62340700D01*
X65177177Y-62340700D01*
X65241408Y-62495768D01*
X65335919Y-62637213D01*
X65456208Y-62757502D01*
X65597653Y-62852013D01*
X65754818Y-62917113D01*
X65921664Y-62950300D01*
X66091778Y-62950300D01*
X66258624Y-62917113D01*
X66415789Y-62852013D01*
X66557234Y-62757502D01*
X66677523Y-62637213D01*
X66772034Y-62495768D01*
X66824349Y-62369470D01*
X67408410Y-62953532D01*
X67408410Y-63734414D01*
X67251903Y-63669587D01*
X67085057Y-63636400D01*
X66914943Y-63636400D01*
X66748097Y-63669587D01*
X66590932Y-63734687D01*
X66449487Y-63829198D01*
X66329198Y-63949487D01*
X66234687Y-64090932D01*
X66169587Y-64248097D01*
X66136400Y-64414943D01*
X66136400Y-64585057D01*
X66169587Y-64751903D01*
X66234687Y-64909068D01*
X66329198Y-65050513D01*
X66449487Y-65170802D01*
X66590932Y-65265313D01*
X66748097Y-65330413D01*
X66914943Y-65363600D01*
X67085057Y-65363600D01*
X67251903Y-65330413D01*
X67408410Y-65265585D01*
X67408411Y-73424156D01*
X63056490Y-77776077D01*
X63022840Y-77694838D01*
X62919990Y-77540913D01*
X62789087Y-77410010D01*
X62635162Y-77307160D01*
X62464129Y-77236316D01*
X62282562Y-77200200D01*
X62097438Y-77200200D01*
X61915871Y-77236316D01*
X61744838Y-77307160D01*
X61590913Y-77410010D01*
X61460010Y-77540913D01*
X61357160Y-77694838D01*
X61286316Y-77865871D01*
X61250200Y-78047438D01*
X61250200Y-78232562D01*
X61286316Y-78414129D01*
X61357160Y-78585162D01*
X61460010Y-78739087D01*
X61590913Y-78869990D01*
X61744838Y-78972840D01*
X61915871Y-79043684D01*
X62097438Y-79079800D01*
X62274500Y-79079800D01*
X62274500Y-79543853D01*
X62267160Y-79554838D01*
X62196316Y-79725871D01*
X62160200Y-79907438D01*
X62160200Y-80092562D01*
X62196316Y-80274129D01*
X62227743Y-80350000D01*
X62196316Y-80425871D01*
X62160200Y-80607438D01*
X62160200Y-80792562D01*
X62196316Y-80974129D01*
X62227743Y-81050000D01*
X62196316Y-81125871D01*
X62160200Y-81307438D01*
X62160200Y-81492562D01*
X62196316Y-81674129D01*
X62227743Y-81750000D01*
X62196316Y-81825871D01*
X62160200Y-82007438D01*
X62160200Y-82192562D01*
X62196316Y-82374129D01*
X62267160Y-82545162D01*
X62370010Y-82699087D01*
X62500913Y-82829990D01*
X62654838Y-82932840D01*
X62825871Y-83003684D01*
X63007438Y-83039800D01*
X63192562Y-83039800D01*
X63374129Y-83003684D01*
X63545162Y-82932840D01*
X63699087Y-82829990D01*
X63829990Y-82699087D01*
X63932840Y-82545162D01*
X64003684Y-82374129D01*
X64039800Y-82192562D01*
X64039800Y-82007438D01*
X64003684Y-81825871D01*
X63972257Y-81750000D01*
X64003684Y-81674129D01*
X64039800Y-81492562D01*
X64039800Y-81307438D01*
X64003684Y-81125871D01*
X63972257Y-81050000D01*
X64003684Y-80974129D01*
X64039800Y-80792562D01*
X64039800Y-80607438D01*
X64003684Y-80425871D01*
X63972257Y-80350000D01*
X64003684Y-80274129D01*
X64039800Y-80092562D01*
X64039800Y-79907438D01*
X64035326Y-79884943D01*
X67066400Y-79884943D01*
X67066400Y-80055057D01*
X67099587Y-80221903D01*
X67164687Y-80379068D01*
X67259198Y-80520513D01*
X67379487Y-80640802D01*
X67520932Y-80735313D01*
X67678097Y-80800413D01*
X67844943Y-80833600D01*
X68015057Y-80833600D01*
X68181903Y-80800413D01*
X68339068Y-80735313D01*
X68480513Y-80640802D01*
X68600802Y-80520513D01*
X68695313Y-80379068D01*
X68760413Y-80221903D01*
X68793600Y-80055057D01*
X68793600Y-79884943D01*
X68760413Y-79718097D01*
X68695313Y-79560932D01*
X68600802Y-79419487D01*
X68480513Y-79299198D01*
X68339068Y-79204687D01*
X68181903Y-79139587D01*
X68015057Y-79106400D01*
X67844943Y-79106400D01*
X67678097Y-79139587D01*
X67520932Y-79204687D01*
X67379487Y-79299198D01*
X67259198Y-79419487D01*
X67164687Y-79560932D01*
X67099587Y-79718097D01*
X67066400Y-79884943D01*
X64035326Y-79884943D01*
X64003684Y-79725871D01*
X63932840Y-79554838D01*
X63925500Y-79543853D01*
X63925500Y-79241932D01*
X65452489Y-77714943D01*
X70236400Y-77714943D01*
X70236400Y-77885057D01*
X70269587Y-78051903D01*
X70334687Y-78209068D01*
X70429198Y-78350513D01*
X70549487Y-78470802D01*
X70690932Y-78565313D01*
X70848097Y-78630413D01*
X71014943Y-78663600D01*
X71185057Y-78663600D01*
X71351903Y-78630413D01*
X71509068Y-78565313D01*
X71650513Y-78470802D01*
X71770802Y-78350513D01*
X71865313Y-78209068D01*
X71930413Y-78051903D01*
X71963600Y-77885057D01*
X71963600Y-77820000D01*
X74886928Y-77820000D01*
X74886928Y-78670000D01*
X74899188Y-78794482D01*
X74935498Y-78914180D01*
X74994463Y-79024494D01*
X75073815Y-79121185D01*
X75170506Y-79200537D01*
X75280820Y-79259502D01*
X75400518Y-79295812D01*
X75525000Y-79308072D01*
X76375000Y-79308072D01*
X76499482Y-79295812D01*
X76619180Y-79259502D01*
X76729494Y-79200537D01*
X76826185Y-79121185D01*
X76905537Y-79024494D01*
X76964502Y-78914180D01*
X77000812Y-78794482D01*
X77013072Y-78670000D01*
X77013072Y-77900000D01*
X77936928Y-77900000D01*
X77936928Y-78750000D01*
X77949188Y-78874482D01*
X77985498Y-78994180D01*
X78044463Y-79104494D01*
X78123815Y-79201185D01*
X78220506Y-79280537D01*
X78330820Y-79339502D01*
X78450518Y-79375812D01*
X78575000Y-79388072D01*
X79425000Y-79388072D01*
X79549482Y-79375812D01*
X79669180Y-79339502D01*
X79779494Y-79280537D01*
X79876185Y-79201185D01*
X79955537Y-79104494D01*
X80014502Y-78994180D01*
X80050812Y-78874482D01*
X80063072Y-78750000D01*
X80063072Y-77900000D01*
X80050812Y-77775518D01*
X80014502Y-77655820D01*
X79955537Y-77545506D01*
X79876185Y-77448815D01*
X79779494Y-77369463D01*
X79669180Y-77310498D01*
X79549482Y-77274188D01*
X79425000Y-77261928D01*
X78575000Y-77261928D01*
X78450518Y-77274188D01*
X78330820Y-77310498D01*
X78220506Y-77369463D01*
X78123815Y-77448815D01*
X78044463Y-77545506D01*
X77985498Y-77655820D01*
X77949188Y-77775518D01*
X77936928Y-77900000D01*
X77013072Y-77900000D01*
X77013072Y-77820000D01*
X77000812Y-77695518D01*
X76964502Y-77575820D01*
X76905537Y-77465506D01*
X76826185Y-77368815D01*
X76729494Y-77289463D01*
X76619180Y-77230498D01*
X76499482Y-77194188D01*
X76375000Y-77181928D01*
X75525000Y-77181928D01*
X75400518Y-77194188D01*
X75280820Y-77230498D01*
X75170506Y-77289463D01*
X75073815Y-77368815D01*
X74994463Y-77465506D01*
X74935498Y-77575820D01*
X74899188Y-77695518D01*
X74886928Y-77820000D01*
X71963600Y-77820000D01*
X71963600Y-77714943D01*
X71930413Y-77548097D01*
X71865313Y-77390932D01*
X71770802Y-77249487D01*
X71650513Y-77129198D01*
X71509068Y-77034687D01*
X71351903Y-76969587D01*
X71185057Y-76936400D01*
X71014943Y-76936400D01*
X70848097Y-76969587D01*
X70690932Y-77034687D01*
X70549487Y-77129198D01*
X70429198Y-77249487D01*
X70334687Y-77390932D01*
X70269587Y-77548097D01*
X70236400Y-77714943D01*
X65452489Y-77714943D01*
X68788950Y-74378483D01*
X68820451Y-74352631D01*
X68889826Y-74268097D01*
X68923609Y-74226933D01*
X69000263Y-74083524D01*
X69006926Y-74061560D01*
X69047466Y-73927916D01*
X69059410Y-73806643D01*
X69059410Y-73806641D01*
X69063404Y-73766091D01*
X69059410Y-73725540D01*
X69059410Y-66414943D01*
X70886400Y-66414943D01*
X70886400Y-66585057D01*
X70919587Y-66751903D01*
X70984687Y-66909068D01*
X71079198Y-67050513D01*
X71199487Y-67170802D01*
X71340932Y-67265313D01*
X71498097Y-67330413D01*
X71664943Y-67363600D01*
X71835057Y-67363600D01*
X72001903Y-67330413D01*
X72159068Y-67265313D01*
X72300513Y-67170802D01*
X72420802Y-67050513D01*
X72515313Y-66909068D01*
X72580413Y-66751903D01*
X72613600Y-66585057D01*
X72613600Y-66414943D01*
X72580413Y-66248097D01*
X72515313Y-66090932D01*
X72420802Y-65949487D01*
X72300513Y-65829198D01*
X72159068Y-65734687D01*
X72001903Y-65669587D01*
X71835057Y-65636400D01*
X71664943Y-65636400D01*
X71498097Y-65669587D01*
X71340932Y-65734687D01*
X71199487Y-65829198D01*
X71079198Y-65949487D01*
X70984687Y-66090932D01*
X70919587Y-66248097D01*
X70886400Y-66414943D01*
X69059410Y-66414943D01*
X69059410Y-62664943D01*
X69136400Y-62664943D01*
X69136400Y-62835057D01*
X69169587Y-63001903D01*
X69234687Y-63159068D01*
X69329198Y-63300513D01*
X69449487Y-63420802D01*
X69590932Y-63515313D01*
X69748097Y-63580413D01*
X69914943Y-63613600D01*
X70085057Y-63613600D01*
X70251903Y-63580413D01*
X70409068Y-63515313D01*
X70550513Y-63420802D01*
X70670802Y-63300513D01*
X70765313Y-63159068D01*
X70830413Y-63001903D01*
X70863600Y-62835057D01*
X70863600Y-62664943D01*
X70830413Y-62498097D01*
X70795970Y-62414943D01*
X76636400Y-62414943D01*
X76636400Y-62585057D01*
X76669587Y-62751903D01*
X76734687Y-62909068D01*
X76829198Y-63050513D01*
X76949487Y-63170802D01*
X77090932Y-63265313D01*
X77248097Y-63330413D01*
X77414943Y-63363600D01*
X77585057Y-63363600D01*
X77751903Y-63330413D01*
X77909068Y-63265313D01*
X78050513Y-63170802D01*
X78170802Y-63050513D01*
X78265313Y-62909068D01*
X78330413Y-62751903D01*
X78363600Y-62585057D01*
X78363600Y-62414943D01*
X78330413Y-62248097D01*
X78265313Y-62090932D01*
X78170802Y-61949487D01*
X78050513Y-61829198D01*
X77909068Y-61734687D01*
X77751903Y-61669587D01*
X77585057Y-61636400D01*
X77414943Y-61636400D01*
X77248097Y-61669587D01*
X77090932Y-61734687D01*
X76949487Y-61829198D01*
X76829198Y-61949487D01*
X76734687Y-62090932D01*
X76669587Y-62248097D01*
X76636400Y-62414943D01*
X70795970Y-62414943D01*
X70765313Y-62340932D01*
X70670802Y-62199487D01*
X70550513Y-62079198D01*
X70409068Y-61984687D01*
X70251903Y-61919587D01*
X70085057Y-61886400D01*
X69914943Y-61886400D01*
X69748097Y-61919587D01*
X69590932Y-61984687D01*
X69449487Y-62079198D01*
X69329198Y-62199487D01*
X69234687Y-62340932D01*
X69169587Y-62498097D01*
X69136400Y-62664943D01*
X69059410Y-62664943D01*
X69059410Y-62652141D01*
X69063403Y-62611598D01*
X69059410Y-62571055D01*
X69059410Y-62571046D01*
X69047466Y-62449773D01*
X69000263Y-62294165D01*
X68923609Y-62150757D01*
X68820451Y-62025058D01*
X68788950Y-61999206D01*
X68623805Y-61834061D01*
X68669068Y-61815313D01*
X68810513Y-61720802D01*
X68930802Y-61600513D01*
X69025313Y-61459068D01*
X69090413Y-61301903D01*
X69123600Y-61135057D01*
X69123600Y-60964943D01*
X69090413Y-60798097D01*
X69025313Y-60640932D01*
X68930802Y-60499487D01*
X68810513Y-60379198D01*
X68669068Y-60284687D01*
X68511903Y-60219587D01*
X68345057Y-60186400D01*
X68174943Y-60186400D01*
X68008097Y-60219587D01*
X67850932Y-60284687D01*
X67709487Y-60379198D01*
X67589198Y-60499487D01*
X67494687Y-60640932D01*
X67450540Y-60747511D01*
X67299337Y-60701644D01*
X67178064Y-60689700D01*
X67178061Y-60689700D01*
X67137511Y-60685706D01*
X67096961Y-60689700D01*
X61571747Y-60689700D01*
X61560762Y-60682360D01*
X61389729Y-60611516D01*
X61208162Y-60575400D01*
X61023038Y-60575400D01*
X60841471Y-60611516D01*
X60785400Y-60634741D01*
X60729329Y-60611516D01*
X60547762Y-60575400D01*
X60362638Y-60575400D01*
X60181071Y-60611516D01*
X60125000Y-60634741D01*
X60068929Y-60611516D01*
X59887362Y-60575400D01*
X59702238Y-60575400D01*
X59520671Y-60611516D01*
X59349638Y-60682360D01*
X59195713Y-60785210D01*
X59064810Y-60916113D01*
X58961960Y-61070038D01*
X58891116Y-61241071D01*
X58855000Y-61422638D01*
X55576063Y-61422638D01*
X55665313Y-61289068D01*
X55730413Y-61131903D01*
X55763600Y-60965057D01*
X55763600Y-60794943D01*
X55730413Y-60628097D01*
X55665313Y-60470932D01*
X55570802Y-60329487D01*
X55450513Y-60209198D01*
X55309068Y-60114687D01*
X55151903Y-60049587D01*
X54985057Y-60016400D01*
X54814943Y-60016400D01*
X54648097Y-60049587D01*
X54490932Y-60114687D01*
X54349487Y-60209198D01*
X54229198Y-60329487D01*
X54134687Y-60470932D01*
X54069587Y-60628097D01*
X54036400Y-60794943D01*
X52776733Y-60794943D01*
X58546733Y-55024943D01*
X59876400Y-55024943D01*
X59876400Y-55195057D01*
X59909587Y-55361903D01*
X59974687Y-55519068D01*
X59978651Y-55525000D01*
X59974687Y-55530932D01*
X59909587Y-55688097D01*
X59876400Y-55854943D01*
X59876400Y-56025057D01*
X59909587Y-56191903D01*
X59923296Y-56225000D01*
X59909587Y-56258097D01*
X59876400Y-56424943D01*
X59876400Y-56595057D01*
X59909587Y-56761903D01*
X59946078Y-56850000D01*
X59909587Y-56938097D01*
X59876400Y-57104943D01*
X59876400Y-57275057D01*
X59909587Y-57441903D01*
X59974687Y-57599068D01*
X60069198Y-57740513D01*
X60189487Y-57860802D01*
X60330932Y-57955313D01*
X60488097Y-58020413D01*
X60654943Y-58053600D01*
X60825057Y-58053600D01*
X60991903Y-58020413D01*
X61149068Y-57955313D01*
X61290513Y-57860802D01*
X61410802Y-57740513D01*
X61505313Y-57599068D01*
X61570413Y-57441903D01*
X61603600Y-57275057D01*
X61603600Y-57104943D01*
X61570413Y-56938097D01*
X61533922Y-56850000D01*
X61570413Y-56761903D01*
X61603600Y-56595057D01*
X61603600Y-56424943D01*
X61570413Y-56258097D01*
X61556704Y-56225000D01*
X61570413Y-56191903D01*
X61603600Y-56025057D01*
X61603600Y-55854943D01*
X61570413Y-55688097D01*
X61505313Y-55530932D01*
X61501349Y-55525000D01*
X61505313Y-55519068D01*
X61570413Y-55361903D01*
X61603600Y-55195057D01*
X61603600Y-55024943D01*
X61570413Y-54858097D01*
X61505313Y-54700932D01*
X61410802Y-54559487D01*
X61290513Y-54439198D01*
X61149068Y-54344687D01*
X60991903Y-54279587D01*
X60825057Y-54246400D01*
X60654943Y-54246400D01*
X60488097Y-54279587D01*
X60330932Y-54344687D01*
X60189487Y-54439198D01*
X60069198Y-54559487D01*
X59974687Y-54700932D01*
X59909587Y-54858097D01*
X59876400Y-55024943D01*
X58546733Y-55024943D01*
X63110733Y-50460943D01*
X69240400Y-50460943D01*
X69240400Y-50631057D01*
X69273587Y-50797903D01*
X69338687Y-50955068D01*
X69433198Y-51096513D01*
X69553487Y-51216802D01*
X69694932Y-51311313D01*
X69852097Y-51376413D01*
X70018943Y-51409600D01*
X70189057Y-51409600D01*
X70355903Y-51376413D01*
X70513068Y-51311313D01*
X70654513Y-51216802D01*
X70774802Y-51096513D01*
X70869313Y-50955068D01*
X70934413Y-50797903D01*
X70967600Y-50631057D01*
X70967600Y-50460943D01*
X70934413Y-50294097D01*
X70869313Y-50136932D01*
X70774802Y-49995487D01*
X70654513Y-49875198D01*
X70513068Y-49780687D01*
X70355903Y-49715587D01*
X70189057Y-49682400D01*
X70018943Y-49682400D01*
X69852097Y-49715587D01*
X69694932Y-49780687D01*
X69553487Y-49875198D01*
X69433198Y-49995487D01*
X69338687Y-50136932D01*
X69273587Y-50294097D01*
X69240400Y-50460943D01*
X63110733Y-50460943D01*
X63307340Y-50264337D01*
X63338840Y-50238486D01*
X63428564Y-50129157D01*
X63441998Y-50112788D01*
X63518652Y-49969379D01*
X63532857Y-49922550D01*
X63565855Y-49813771D01*
X63577799Y-49692498D01*
X63577799Y-49692496D01*
X63581793Y-49651946D01*
X63577799Y-49611395D01*
X63577799Y-37831035D01*
X66574501Y-34834334D01*
X66574500Y-39759449D01*
X66570506Y-39800000D01*
X66574500Y-39840550D01*
X66574500Y-39840552D01*
X66586444Y-39961825D01*
X66601612Y-40011826D01*
X66633647Y-40117433D01*
X66710301Y-40260842D01*
X66744214Y-40302165D01*
X66813459Y-40386541D01*
X66844966Y-40412398D01*
X66944959Y-40512392D01*
X66944964Y-40512396D01*
X69024500Y-42591933D01*
X69024501Y-43092066D01*
X68935600Y-43180967D01*
X68935600Y-43094943D01*
X68902413Y-42928097D01*
X68837313Y-42770932D01*
X68742802Y-42629487D01*
X68622513Y-42509198D01*
X68481068Y-42414687D01*
X68323903Y-42349587D01*
X68157057Y-42316400D01*
X67986943Y-42316400D01*
X67820097Y-42349587D01*
X67662932Y-42414687D01*
X67521487Y-42509198D01*
X67401198Y-42629487D01*
X67306687Y-42770932D01*
X67241587Y-42928097D01*
X67208400Y-43094943D01*
X67208400Y-43265057D01*
X67241587Y-43431903D01*
X67306687Y-43589068D01*
X67401198Y-43730513D01*
X67521487Y-43850802D01*
X67662932Y-43945313D01*
X67820097Y-44010413D01*
X67986943Y-44043600D01*
X68072968Y-44043600D01*
X67166795Y-44949773D01*
X67154932Y-44954687D01*
X67013487Y-45049198D01*
X66893198Y-45169487D01*
X66802000Y-45305974D01*
X66710802Y-45169487D01*
X66590513Y-45049198D01*
X66449068Y-44954687D01*
X66291903Y-44889587D01*
X66125057Y-44856400D01*
X65954943Y-44856400D01*
X65788097Y-44889587D01*
X65630932Y-44954687D01*
X65489487Y-45049198D01*
X65369198Y-45169487D01*
X65274687Y-45310932D01*
X65209587Y-45468097D01*
X65176400Y-45634943D01*
X65176400Y-45805057D01*
X65209587Y-45971903D01*
X65274687Y-46129068D01*
X65369198Y-46270513D01*
X65489487Y-46390802D01*
X65630932Y-46485313D01*
X65788097Y-46550413D01*
X65954943Y-46583600D01*
X66125057Y-46583600D01*
X66291903Y-46550413D01*
X66449068Y-46485313D01*
X66590513Y-46390802D01*
X66710802Y-46270513D01*
X66802000Y-46134026D01*
X66893198Y-46270513D01*
X67013487Y-46390802D01*
X67154932Y-46485313D01*
X67312097Y-46550413D01*
X67478943Y-46583600D01*
X67649057Y-46583600D01*
X67815903Y-46550413D01*
X67973068Y-46485313D01*
X68114513Y-46390802D01*
X68234802Y-46270513D01*
X68329313Y-46129068D01*
X68334227Y-46117205D01*
X68906489Y-45544943D01*
X71846400Y-45544943D01*
X71846400Y-45715057D01*
X71879587Y-45881903D01*
X71944687Y-46039068D01*
X72039198Y-46180513D01*
X72159487Y-46300802D01*
X72300932Y-46395313D01*
X72458097Y-46460413D01*
X72624943Y-46493600D01*
X72795057Y-46493600D01*
X72961903Y-46460413D01*
X73119068Y-46395313D01*
X73260513Y-46300802D01*
X73380802Y-46180513D01*
X73475313Y-46039068D01*
X73540413Y-45881903D01*
X73573600Y-45715057D01*
X73573600Y-45544943D01*
X73540413Y-45378097D01*
X73475313Y-45220932D01*
X73380802Y-45079487D01*
X73260513Y-44959198D01*
X73119068Y-44864687D01*
X72961903Y-44799587D01*
X72795057Y-44766400D01*
X72624943Y-44766400D01*
X72458097Y-44799587D01*
X72300932Y-44864687D01*
X72159487Y-44959198D01*
X72039198Y-45079487D01*
X71944687Y-45220932D01*
X71879587Y-45378097D01*
X71846400Y-45544943D01*
X68906489Y-45544943D01*
X70405039Y-44046394D01*
X70436541Y-44020541D01*
X70498279Y-43945313D01*
X70539699Y-43894843D01*
X70573341Y-43831903D01*
X70616353Y-43751434D01*
X70663556Y-43595826D01*
X70673491Y-43494943D01*
X71846400Y-43494943D01*
X71846400Y-43665057D01*
X71879587Y-43831903D01*
X71944687Y-43989068D01*
X72039198Y-44130513D01*
X72159487Y-44250802D01*
X72300932Y-44345313D01*
X72458097Y-44410413D01*
X72624943Y-44443600D01*
X72795057Y-44443600D01*
X72961903Y-44410413D01*
X73119068Y-44345313D01*
X73260513Y-44250802D01*
X73380802Y-44130513D01*
X73475313Y-43989068D01*
X73540413Y-43831903D01*
X73573600Y-43665057D01*
X73573600Y-43494943D01*
X73540413Y-43328097D01*
X73475313Y-43170932D01*
X73380802Y-43029487D01*
X73260513Y-42909198D01*
X73119068Y-42814687D01*
X72961903Y-42749587D01*
X72795057Y-42716400D01*
X72624943Y-42716400D01*
X72458097Y-42749587D01*
X72300932Y-42814687D01*
X72159487Y-42909198D01*
X72039198Y-43029487D01*
X71944687Y-43170932D01*
X71879587Y-43328097D01*
X71846400Y-43494943D01*
X70673491Y-43494943D01*
X70675500Y-43474553D01*
X70675500Y-43474551D01*
X70679494Y-43434001D01*
X70675500Y-43393450D01*
X70675500Y-42290550D01*
X70679494Y-42249999D01*
X70675500Y-42209447D01*
X70663556Y-42088174D01*
X70616353Y-41932566D01*
X70565952Y-41838273D01*
X70539699Y-41789157D01*
X70462391Y-41694958D01*
X70436541Y-41663459D01*
X70405041Y-41637608D01*
X69932376Y-41164943D01*
X71846400Y-41164943D01*
X71846400Y-41335057D01*
X71879587Y-41501903D01*
X71944687Y-41659068D01*
X72039198Y-41800513D01*
X72159487Y-41920802D01*
X72300932Y-42015313D01*
X72458097Y-42080413D01*
X72624943Y-42113600D01*
X72795057Y-42113600D01*
X72961903Y-42080413D01*
X73119068Y-42015313D01*
X73260513Y-41920802D01*
X73380802Y-41800513D01*
X73475313Y-41659068D01*
X73540413Y-41501903D01*
X73573600Y-41335057D01*
X73573600Y-41164943D01*
X73540413Y-40998097D01*
X73475313Y-40840932D01*
X73380802Y-40699487D01*
X73260513Y-40579198D01*
X73119068Y-40484687D01*
X72961903Y-40419587D01*
X72795057Y-40386400D01*
X72624943Y-40386400D01*
X72458097Y-40419587D01*
X72300932Y-40484687D01*
X72159487Y-40579198D01*
X72039198Y-40699487D01*
X71944687Y-40840932D01*
X71879587Y-40998097D01*
X71846400Y-41164943D01*
X69932376Y-41164943D01*
X68225500Y-39458068D01*
X68225500Y-39294943D01*
X71846400Y-39294943D01*
X71846400Y-39465057D01*
X71879587Y-39631903D01*
X71944687Y-39789068D01*
X72039198Y-39930513D01*
X72159487Y-40050802D01*
X72300932Y-40145313D01*
X72458097Y-40210413D01*
X72624943Y-40243600D01*
X72795057Y-40243600D01*
X72961903Y-40210413D01*
X73119068Y-40145313D01*
X73260513Y-40050802D01*
X73380802Y-39930513D01*
X73475313Y-39789068D01*
X73540413Y-39631903D01*
X73573600Y-39465057D01*
X73573600Y-39294943D01*
X73540413Y-39128097D01*
X73475313Y-38970932D01*
X73380802Y-38829487D01*
X73260513Y-38709198D01*
X73119068Y-38614687D01*
X72961903Y-38549587D01*
X72795057Y-38516400D01*
X72624943Y-38516400D01*
X72458097Y-38549587D01*
X72300932Y-38614687D01*
X72159487Y-38709198D01*
X72039198Y-38829487D01*
X71944687Y-38970932D01*
X71879587Y-39128097D01*
X71846400Y-39294943D01*
X68225500Y-39294943D01*
X68225500Y-33491932D01*
X70555046Y-31162388D01*
X70586541Y-31136541D01*
X70612389Y-31105045D01*
X70612392Y-31105042D01*
X70671976Y-31032438D01*
X71277800Y-31032438D01*
X71277800Y-31217562D01*
X71313916Y-31399129D01*
X71384760Y-31570162D01*
X71487610Y-31724087D01*
X71618513Y-31854990D01*
X71772438Y-31957840D01*
X71943471Y-32028684D01*
X72125038Y-32064800D01*
X72310162Y-32064800D01*
X72491729Y-32028684D01*
X72662762Y-31957840D01*
X72816687Y-31854990D01*
X72947590Y-31724087D01*
X73050440Y-31570162D01*
X73121284Y-31399129D01*
X73157400Y-31217562D01*
X73157400Y-31032438D01*
X73121284Y-30850871D01*
X73050440Y-30679838D01*
X72947590Y-30525913D01*
X72816687Y-30395010D01*
X72662762Y-30292160D01*
X72491729Y-30221316D01*
X72310162Y-30185200D01*
X72125038Y-30185200D01*
X71943471Y-30221316D01*
X71772438Y-30292160D01*
X71618513Y-30395010D01*
X71487610Y-30525913D01*
X71384760Y-30679838D01*
X71313916Y-30850871D01*
X71277800Y-31032438D01*
X70671976Y-31032438D01*
X70689699Y-31010843D01*
X70766353Y-30867434D01*
X70800508Y-30754838D01*
X70813556Y-30711826D01*
X70825500Y-30590553D01*
X70825500Y-30590551D01*
X70829494Y-30550000D01*
X70825500Y-30509450D01*
X70825500Y-26956147D01*
X70832840Y-26945162D01*
X70903684Y-26774129D01*
X70939800Y-26592562D01*
X70939800Y-26407438D01*
X70903684Y-26225871D01*
X70832840Y-26054838D01*
X70729990Y-25900913D01*
X70599087Y-25770010D01*
X70445162Y-25667160D01*
X70274129Y-25596316D01*
X70092562Y-25560200D01*
X69907438Y-25560200D01*
X69725871Y-25596316D01*
X69554838Y-25667160D01*
X69400913Y-25770010D01*
X69270010Y-25900913D01*
X69167160Y-26054838D01*
X69096316Y-26225871D01*
X69060200Y-26407438D01*
X69060200Y-26592562D01*
X69096316Y-26774129D01*
X69167160Y-26945162D01*
X69174501Y-26956148D01*
X69174500Y-30208066D01*
X67450000Y-31932568D01*
X67092398Y-31574966D01*
X67066541Y-31543459D01*
X66940842Y-31440301D01*
X66797434Y-31363647D01*
X66641826Y-31316444D01*
X66520553Y-31304500D01*
X66520550Y-31304500D01*
X66480000Y-31300506D01*
X66439450Y-31304500D01*
X60437425Y-31304500D01*
X60439800Y-31292562D01*
X60439800Y-31107438D01*
X60403684Y-30925871D01*
X60332840Y-30754838D01*
X60229990Y-30600913D01*
X60099087Y-30470010D01*
X59945162Y-30367160D01*
X59774129Y-30296316D01*
X59592562Y-30260200D01*
X59407438Y-30260200D01*
X59225871Y-30296316D01*
X59054838Y-30367160D01*
X58900913Y-30470010D01*
X58770010Y-30600913D01*
X58667160Y-30754838D01*
X58596316Y-30925871D01*
X58560200Y-31107438D01*
X58560200Y-31292562D01*
X58596316Y-31474129D01*
X58667160Y-31645162D01*
X58674500Y-31656148D01*
X58674501Y-32089438D01*
X58670506Y-32130000D01*
X58686444Y-32291826D01*
X58733647Y-32447434D01*
X58810301Y-32590842D01*
X58913459Y-32716541D01*
X59039158Y-32819699D01*
X59182566Y-32896353D01*
X59338174Y-32943556D01*
X59459447Y-32955500D01*
X59500000Y-32959494D01*
X59540553Y-32955500D01*
X66118469Y-32955500D01*
X62197260Y-36876710D01*
X62165759Y-36902562D01*
X62139908Y-36934062D01*
X62062600Y-37028261D01*
X61985946Y-37171670D01*
X61938744Y-37327277D01*
X61922805Y-37489103D01*
X61926800Y-37529663D01*
X61926800Y-41247711D01*
X61907438Y-41247711D01*
X61725871Y-41283827D01*
X61554838Y-41354671D01*
X61400913Y-41457521D01*
X61270010Y-41588424D01*
X61167160Y-41742349D01*
X61096316Y-41913382D01*
X61060200Y-42094949D01*
X61060200Y-42280073D01*
X61096316Y-42461640D01*
X61167160Y-42632673D01*
X61174501Y-42643659D01*
X61174500Y-49183066D01*
X54803264Y-55554304D01*
X54783684Y-55455871D01*
X54712840Y-55284838D01*
X54707286Y-55276525D01*
X54702782Y-55230802D01*
X54693556Y-55137122D01*
X54646353Y-54981514D01*
X54620336Y-54932840D01*
X54569699Y-54838105D01*
X54492391Y-54743906D01*
X54466541Y-54712407D01*
X54435040Y-54686555D01*
X49783450Y-50034966D01*
X49757593Y-50003459D01*
X49631894Y-49900301D01*
X49488486Y-49823647D01*
X49332878Y-49776444D01*
X49211605Y-49764500D01*
X49211602Y-49764500D01*
X49171052Y-49760506D01*
X49130502Y-49764500D01*
X46521934Y-49764500D01*
X35654376Y-38896943D01*
X45026400Y-38896943D01*
X45026400Y-39067057D01*
X45059587Y-39233903D01*
X45124687Y-39391068D01*
X45219198Y-39532513D01*
X45339487Y-39652802D01*
X45480932Y-39747313D01*
X45638097Y-39812413D01*
X45804943Y-39845600D01*
X45975057Y-39845600D01*
X46141903Y-39812413D01*
X46299068Y-39747313D01*
X46440513Y-39652802D01*
X46560802Y-39532513D01*
X46655313Y-39391068D01*
X46720413Y-39233903D01*
X46753600Y-39067057D01*
X46753600Y-38896943D01*
X46720413Y-38730097D01*
X46655313Y-38572932D01*
X46560802Y-38431487D01*
X46440513Y-38311198D01*
X46299068Y-38216687D01*
X46141903Y-38151587D01*
X45975057Y-38118400D01*
X45804943Y-38118400D01*
X45638097Y-38151587D01*
X45480932Y-38216687D01*
X45339487Y-38311198D01*
X45219198Y-38431487D01*
X45124687Y-38572932D01*
X45059587Y-38730097D01*
X45026400Y-38896943D01*
X35654376Y-38896943D01*
X34202398Y-37444966D01*
X34176541Y-37413459D01*
X34050842Y-37310301D01*
X33907434Y-37233647D01*
X33751826Y-37186444D01*
X33630553Y-37174500D01*
X33630550Y-37174500D01*
X33590000Y-37170506D01*
X33549450Y-37174500D01*
X29593818Y-37174500D01*
X29587812Y-37113518D01*
X29551502Y-36993820D01*
X29492537Y-36883506D01*
X29413185Y-36786815D01*
X29316494Y-36707463D01*
X29206180Y-36648498D01*
X29086482Y-36612188D01*
X28962000Y-36599928D01*
X27438000Y-36599928D01*
X27313518Y-36612188D01*
X27193820Y-36648498D01*
X27087652Y-36705247D01*
X27342550Y-36450349D01*
X27603560Y-36059721D01*
X27783346Y-35625679D01*
X27875000Y-35164902D01*
X27875000Y-34695098D01*
X27783346Y-34234321D01*
X27603560Y-33800279D01*
X27342550Y-33409651D01*
X27010349Y-33077450D01*
X26619721Y-32816440D01*
X26185679Y-32636654D01*
X25734671Y-32546943D01*
X47312400Y-32546943D01*
X47312400Y-32717057D01*
X47345587Y-32883903D01*
X47410687Y-33041068D01*
X47505198Y-33182513D01*
X47625487Y-33302802D01*
X47766932Y-33397313D01*
X47924097Y-33462413D01*
X48090943Y-33495600D01*
X48261057Y-33495600D01*
X48427903Y-33462413D01*
X48585068Y-33397313D01*
X48726513Y-33302802D01*
X48846802Y-33182513D01*
X48941313Y-33041068D01*
X49006413Y-32883903D01*
X49039600Y-32717057D01*
X49039600Y-32546943D01*
X49006413Y-32380097D01*
X48941313Y-32222932D01*
X48846802Y-32081487D01*
X48726513Y-31961198D01*
X48585068Y-31866687D01*
X48427903Y-31801587D01*
X48261057Y-31768400D01*
X48090943Y-31768400D01*
X47924097Y-31801587D01*
X47766932Y-31866687D01*
X47625487Y-31961198D01*
X47505198Y-32081487D01*
X47410687Y-32222932D01*
X47345587Y-32380097D01*
X47312400Y-32546943D01*
X25734671Y-32546943D01*
X25724902Y-32545000D01*
X25255098Y-32545000D01*
X24794321Y-32636654D01*
X24360279Y-32816440D01*
X23969651Y-33077450D01*
X23637450Y-33409651D01*
X23376440Y-33800279D01*
X23196654Y-34234321D01*
X23105000Y-34695098D01*
X12660000Y-34695098D01*
X12660000Y-29607438D01*
X25660200Y-29607438D01*
X25660200Y-29792562D01*
X25696316Y-29974129D01*
X25767160Y-30145162D01*
X25870010Y-30299087D01*
X26000913Y-30429990D01*
X26154838Y-30532840D01*
X26325871Y-30603684D01*
X26507438Y-30639800D01*
X26692562Y-30639800D01*
X26874129Y-30603684D01*
X27045162Y-30532840D01*
X27199087Y-30429990D01*
X27329990Y-30299087D01*
X27432840Y-30145162D01*
X27503684Y-29974129D01*
X27539800Y-29792562D01*
X27539800Y-29607438D01*
X27503684Y-29425871D01*
X27432840Y-29254838D01*
X27329990Y-29100913D01*
X27199087Y-28970010D01*
X27050824Y-28870943D01*
X31394400Y-28870943D01*
X31394400Y-29041057D01*
X31427587Y-29207903D01*
X31492687Y-29365068D01*
X31587198Y-29506513D01*
X31707487Y-29626802D01*
X31848932Y-29721313D01*
X32006097Y-29786413D01*
X32172943Y-29819600D01*
X32343057Y-29819600D01*
X32509903Y-29786413D01*
X32667068Y-29721313D01*
X32808513Y-29626802D01*
X32928802Y-29506513D01*
X33023313Y-29365068D01*
X33088413Y-29207903D01*
X33121600Y-29041057D01*
X33121600Y-28870943D01*
X33172400Y-28870943D01*
X33172400Y-29041057D01*
X33205587Y-29207903D01*
X33270687Y-29365068D01*
X33365198Y-29506513D01*
X33485487Y-29626802D01*
X33626932Y-29721313D01*
X33784097Y-29786413D01*
X33950943Y-29819600D01*
X34121057Y-29819600D01*
X34287903Y-29786413D01*
X34445068Y-29721313D01*
X34586513Y-29626802D01*
X34671000Y-29542315D01*
X34755487Y-29626802D01*
X34896932Y-29721313D01*
X35054097Y-29786413D01*
X35220943Y-29819600D01*
X35391057Y-29819600D01*
X35557903Y-29786413D01*
X35715068Y-29721313D01*
X35856513Y-29626802D01*
X35976802Y-29506513D01*
X36071313Y-29365068D01*
X36136413Y-29207903D01*
X36169600Y-29041057D01*
X36169600Y-28990943D01*
X46550400Y-28990943D01*
X46550400Y-29161057D01*
X46583587Y-29327903D01*
X46648687Y-29485068D01*
X46743198Y-29626513D01*
X46863487Y-29746802D01*
X47004932Y-29841313D01*
X47162097Y-29906413D01*
X47328943Y-29939600D01*
X47499057Y-29939600D01*
X47665903Y-29906413D01*
X47823068Y-29841313D01*
X47964513Y-29746802D01*
X48084802Y-29626513D01*
X48179313Y-29485068D01*
X48244413Y-29327903D01*
X48277600Y-29161057D01*
X48277600Y-28990943D01*
X48244413Y-28824097D01*
X48179313Y-28666932D01*
X48084802Y-28525487D01*
X47964513Y-28405198D01*
X47823068Y-28310687D01*
X47665903Y-28245587D01*
X47499057Y-28212400D01*
X47328943Y-28212400D01*
X47162097Y-28245587D01*
X47004932Y-28310687D01*
X46863487Y-28405198D01*
X46743198Y-28525487D01*
X46648687Y-28666932D01*
X46583587Y-28824097D01*
X46550400Y-28990943D01*
X36169600Y-28990943D01*
X36169600Y-28870943D01*
X36136413Y-28704097D01*
X36071313Y-28546932D01*
X35976802Y-28405487D01*
X35856513Y-28285198D01*
X35715068Y-28190687D01*
X35557903Y-28125587D01*
X35391057Y-28092400D01*
X35220943Y-28092400D01*
X35054097Y-28125587D01*
X34896932Y-28190687D01*
X34755487Y-28285198D01*
X34671000Y-28369685D01*
X34586513Y-28285198D01*
X34445068Y-28190687D01*
X34287903Y-28125587D01*
X34121057Y-28092400D01*
X33950943Y-28092400D01*
X33784097Y-28125587D01*
X33626932Y-28190687D01*
X33485487Y-28285198D01*
X33365198Y-28405487D01*
X33270687Y-28546932D01*
X33205587Y-28704097D01*
X33172400Y-28870943D01*
X33121600Y-28870943D01*
X33088413Y-28704097D01*
X33023313Y-28546932D01*
X32928802Y-28405487D01*
X32808513Y-28285198D01*
X32667068Y-28190687D01*
X32509903Y-28125587D01*
X32343057Y-28092400D01*
X32172943Y-28092400D01*
X32006097Y-28125587D01*
X31848932Y-28190687D01*
X31707487Y-28285198D01*
X31587198Y-28405487D01*
X31492687Y-28546932D01*
X31427587Y-28704097D01*
X31394400Y-28870943D01*
X27050824Y-28870943D01*
X27045162Y-28867160D01*
X26874129Y-28796316D01*
X26692562Y-28760200D01*
X26507438Y-28760200D01*
X26325871Y-28796316D01*
X26154838Y-28867160D01*
X26000913Y-28970010D01*
X25870010Y-29100913D01*
X25767160Y-29254838D01*
X25696316Y-29425871D01*
X25660200Y-29607438D01*
X12660000Y-29607438D01*
X12660000Y-25024488D01*
X12731439Y-24063158D01*
X12846588Y-23554272D01*
X15697400Y-23554272D01*
X15697400Y-23994528D01*
X15783290Y-24426325D01*
X15951769Y-24833069D01*
X16196362Y-25199129D01*
X16507671Y-25510438D01*
X16873731Y-25755031D01*
X17280475Y-25923510D01*
X17712272Y-26009400D01*
X18152528Y-26009400D01*
X18584325Y-25923510D01*
X18991069Y-25755031D01*
X19357129Y-25510438D01*
X19668438Y-25199129D01*
X19913031Y-24833069D01*
X20081510Y-24426325D01*
X20167400Y-23994528D01*
X20167400Y-23655872D01*
X79197400Y-23655872D01*
X79197400Y-24096128D01*
X79283290Y-24527925D01*
X79451769Y-24934669D01*
X79696362Y-25300729D01*
X80007671Y-25612038D01*
X80373731Y-25856631D01*
X80780475Y-26025110D01*
X81212272Y-26111000D01*
X81652528Y-26111000D01*
X82084325Y-26025110D01*
X82491069Y-25856631D01*
X82857129Y-25612038D01*
X83168438Y-25300729D01*
X83413031Y-24934669D01*
X83581510Y-24527925D01*
X83667400Y-24096128D01*
X83667400Y-23655872D01*
X83581510Y-23224075D01*
X83413031Y-22817331D01*
X83168438Y-22451271D01*
X82857129Y-22139962D01*
X82491069Y-21895369D01*
X82084325Y-21726890D01*
X81652528Y-21641000D01*
X81212272Y-21641000D01*
X80780475Y-21726890D01*
X80373731Y-21895369D01*
X80007671Y-22139962D01*
X79696362Y-22451271D01*
X79451769Y-22817331D01*
X79283290Y-23224075D01*
X79197400Y-23655872D01*
X20167400Y-23655872D01*
X20167400Y-23554272D01*
X20081510Y-23122475D01*
X19913031Y-22715731D01*
X19668438Y-22349671D01*
X19357129Y-22038362D01*
X18991069Y-21793769D01*
X18584325Y-21625290D01*
X18152528Y-21539400D01*
X17712272Y-21539400D01*
X17280475Y-21625290D01*
X16873731Y-21793769D01*
X16507671Y-22038362D01*
X16196362Y-22349671D01*
X15951769Y-22715731D01*
X15783290Y-23122475D01*
X15697400Y-23554272D01*
X12846588Y-23554272D01*
X12938769Y-23146894D01*
X13279252Y-22271343D01*
X13745410Y-21455735D01*
X14327005Y-20717986D01*
X15011251Y-20074311D01*
X15783129Y-19538840D01*
X16625677Y-19123341D01*
X17520376Y-18836946D01*
X18457579Y-18684311D01*
X19014404Y-18660000D01*
X79975512Y-18660000D01*
X80936842Y-18731439D01*
G37*
X80936842Y-18731439D02*
X81853106Y-18938769D01*
X82728657Y-19279252D01*
X83544265Y-19745410D01*
X84282014Y-20327005D01*
X84925689Y-21011251D01*
X85461160Y-21783129D01*
X85876659Y-22625677D01*
X86163054Y-23520376D01*
X86315689Y-24457579D01*
X86340000Y-25014404D01*
X86340001Y-118975498D01*
X86268561Y-119936841D01*
X86061231Y-120853106D01*
X85720748Y-121728657D01*
X85254590Y-122544265D01*
X84672995Y-123282014D01*
X83988749Y-123925689D01*
X83216871Y-124461160D01*
X82374323Y-124876659D01*
X81479624Y-125163054D01*
X80542414Y-125315689D01*
X79985595Y-125340000D01*
X19211508Y-125340000D01*
X12660000Y-120660353D01*
X12660000Y-118753472D01*
X16865800Y-118753472D01*
X16865800Y-119193728D01*
X16951690Y-119625525D01*
X17120169Y-120032269D01*
X17364762Y-120398329D01*
X17676071Y-120709638D01*
X18042131Y-120954231D01*
X18448875Y-121122710D01*
X18880672Y-121208600D01*
X19320928Y-121208600D01*
X19752725Y-121122710D01*
X20159469Y-120954231D01*
X20525529Y-120709638D01*
X20627729Y-120607438D01*
X53460200Y-120607438D01*
X53460200Y-120792562D01*
X53496316Y-120974129D01*
X53567160Y-121145162D01*
X53670010Y-121299087D01*
X53800913Y-121429990D01*
X53954838Y-121532840D01*
X54125871Y-121603684D01*
X54307438Y-121639800D01*
X54492562Y-121639800D01*
X54674129Y-121603684D01*
X54845162Y-121532840D01*
X54999087Y-121429990D01*
X55129990Y-121299087D01*
X55232840Y-121145162D01*
X55303684Y-120974129D01*
X55339800Y-120792562D01*
X55339800Y-120607438D01*
X55303684Y-120425871D01*
X55232840Y-120254838D01*
X55129990Y-120100913D01*
X54999087Y-119970010D01*
X54845162Y-119867160D01*
X54731965Y-119820272D01*
X79045000Y-119820272D01*
X79045000Y-120260528D01*
X79130890Y-120692325D01*
X79299369Y-121099069D01*
X79543962Y-121465129D01*
X79855271Y-121776438D01*
X80221331Y-122021031D01*
X80628075Y-122189510D01*
X81059872Y-122275400D01*
X81500128Y-122275400D01*
X81931925Y-122189510D01*
X82338669Y-122021031D01*
X82704729Y-121776438D01*
X83016038Y-121465129D01*
X83260631Y-121099069D01*
X83429110Y-120692325D01*
X83515000Y-120260528D01*
X83515000Y-119820272D01*
X83429110Y-119388475D01*
X83260631Y-118981731D01*
X83016038Y-118615671D01*
X82704729Y-118304362D01*
X82338669Y-118059769D01*
X81931925Y-117891290D01*
X81500128Y-117805400D01*
X81059872Y-117805400D01*
X80628075Y-117891290D01*
X80221331Y-118059769D01*
X79855271Y-118304362D01*
X79543962Y-118615671D01*
X79299369Y-118981731D01*
X79130890Y-119388475D01*
X79045000Y-119820272D01*
X54731965Y-119820272D01*
X54674129Y-119796316D01*
X54492562Y-119760200D01*
X54307438Y-119760200D01*
X54125871Y-119796316D01*
X53954838Y-119867160D01*
X53800913Y-119970010D01*
X53670010Y-120100913D01*
X53567160Y-120254838D01*
X53496316Y-120425871D01*
X53460200Y-120607438D01*
X20627729Y-120607438D01*
X20836838Y-120398329D01*
X21081431Y-120032269D01*
X21249910Y-119625525D01*
X21335800Y-119193728D01*
X21335800Y-118753472D01*
X21249910Y-118321675D01*
X21081431Y-117914931D01*
X20836838Y-117548871D01*
X20525529Y-117237562D01*
X20159469Y-116992969D01*
X19752725Y-116824490D01*
X19320928Y-116738600D01*
X18880672Y-116738600D01*
X18448875Y-116824490D01*
X18042131Y-116992969D01*
X17676071Y-117237562D01*
X17364762Y-117548871D01*
X17120169Y-117914931D01*
X16951690Y-118321675D01*
X16865800Y-118753472D01*
X12660000Y-118753472D01*
X12660000Y-114350000D01*
X29911928Y-114350000D01*
X29911928Y-115850000D01*
X29938599Y-116120799D01*
X30017589Y-116381192D01*
X30145860Y-116621171D01*
X30318485Y-116831515D01*
X30528829Y-117004140D01*
X30768808Y-117132411D01*
X31029201Y-117211401D01*
X31300000Y-117238072D01*
X33300000Y-117238072D01*
X33570799Y-117211401D01*
X33831192Y-117132411D01*
X34071171Y-117004140D01*
X34281515Y-116831515D01*
X34454140Y-116621171D01*
X34582411Y-116381192D01*
X34661401Y-116120799D01*
X34688072Y-115850000D01*
X34688072Y-114350000D01*
X34661401Y-114079201D01*
X34582411Y-113818808D01*
X34454140Y-113578829D01*
X34281515Y-113368485D01*
X34071171Y-113195860D01*
X33831192Y-113067589D01*
X33570799Y-112988599D01*
X33300000Y-112961928D01*
X31300000Y-112961928D01*
X31029201Y-112988599D01*
X30768808Y-113067589D01*
X30528829Y-113195860D01*
X30318485Y-113368485D01*
X30145860Y-113578829D01*
X30017589Y-113818808D01*
X29938599Y-114079201D01*
X29911928Y-114350000D01*
X12660000Y-114350000D01*
X12660000Y-107350000D01*
X29911928Y-107350000D01*
X29911928Y-110850000D01*
X29924188Y-110974482D01*
X29960498Y-111094180D01*
X30019463Y-111204494D01*
X30098815Y-111301185D01*
X30195506Y-111380537D01*
X30305820Y-111439502D01*
X30425518Y-111475812D01*
X30550000Y-111488072D01*
X34050000Y-111488072D01*
X34174482Y-111475812D01*
X34294180Y-111439502D01*
X34404494Y-111380537D01*
X34501185Y-111301185D01*
X34580537Y-111204494D01*
X34621494Y-111127869D01*
X34611928Y-111225000D01*
X34611928Y-112975000D01*
X34641001Y-113270186D01*
X34727104Y-113554028D01*
X34866927Y-113815618D01*
X35055097Y-114044903D01*
X35284382Y-114233073D01*
X35545972Y-114372896D01*
X35829814Y-114458999D01*
X36125000Y-114488072D01*
X37875000Y-114488072D01*
X38170186Y-114458999D01*
X38454028Y-114372896D01*
X38715618Y-114233073D01*
X38944903Y-114044903D01*
X39133073Y-113815618D01*
X39272896Y-113554028D01*
X39358999Y-113270186D01*
X39388072Y-112975000D01*
X39388072Y-111225000D01*
X39358999Y-110929814D01*
X39272896Y-110645972D01*
X39133073Y-110384382D01*
X38944903Y-110155097D01*
X38764981Y-110007438D01*
X80960200Y-110007438D01*
X80960200Y-110192562D01*
X80996316Y-110374129D01*
X81067160Y-110545162D01*
X81170010Y-110699087D01*
X81300913Y-110829990D01*
X81454838Y-110932840D01*
X81625871Y-111003684D01*
X81807438Y-111039800D01*
X81992562Y-111039800D01*
X82174129Y-111003684D01*
X82345162Y-110932840D01*
X82499087Y-110829990D01*
X82629990Y-110699087D01*
X82732840Y-110545162D01*
X82803684Y-110374129D01*
X82839800Y-110192562D01*
X82839800Y-110007438D01*
X82803684Y-109825871D01*
X82732840Y-109654838D01*
X82629990Y-109500913D01*
X82499087Y-109370010D01*
X82345162Y-109267160D01*
X82174129Y-109196316D01*
X81992562Y-109160200D01*
X81807438Y-109160200D01*
X81625871Y-109196316D01*
X81454838Y-109267160D01*
X81300913Y-109370010D01*
X81170010Y-109500913D01*
X81067160Y-109654838D01*
X80996316Y-109825871D01*
X80960200Y-110007438D01*
X38764981Y-110007438D01*
X38715618Y-109966927D01*
X38454028Y-109827104D01*
X38170186Y-109741001D01*
X37875000Y-109711928D01*
X36125000Y-109711928D01*
X35829814Y-109741001D01*
X35545972Y-109827104D01*
X35284382Y-109966927D01*
X35055097Y-110155097D01*
X34866927Y-110384382D01*
X34727104Y-110645972D01*
X34688072Y-110774643D01*
X34688072Y-107607438D01*
X52660200Y-107607438D01*
X52660200Y-107792562D01*
X52696316Y-107974129D01*
X52767160Y-108145162D01*
X52870010Y-108299087D01*
X53000913Y-108429990D01*
X53154838Y-108532840D01*
X53325871Y-108603684D01*
X53507438Y-108639800D01*
X53692562Y-108639800D01*
X53874129Y-108603684D01*
X54045162Y-108532840D01*
X54199087Y-108429990D01*
X54329990Y-108299087D01*
X54432840Y-108145162D01*
X54503684Y-107974129D01*
X54539800Y-107792562D01*
X54539800Y-107607438D01*
X54503684Y-107425871D01*
X54432840Y-107254838D01*
X54329990Y-107100913D01*
X54199087Y-106970010D01*
X54045162Y-106867160D01*
X53874129Y-106796316D01*
X53692562Y-106760200D01*
X53507438Y-106760200D01*
X53325871Y-106796316D01*
X53154838Y-106867160D01*
X53000913Y-106970010D01*
X52870010Y-107100913D01*
X52767160Y-107254838D01*
X52696316Y-107425871D01*
X52660200Y-107607438D01*
X34688072Y-107607438D01*
X34688072Y-107350000D01*
X34675812Y-107225518D01*
X34639502Y-107105820D01*
X34580537Y-106995506D01*
X34501185Y-106898815D01*
X34404494Y-106819463D01*
X34294180Y-106760498D01*
X34174482Y-106724188D01*
X34050000Y-106711928D01*
X30550000Y-106711928D01*
X30425518Y-106724188D01*
X30305820Y-106760498D01*
X30195506Y-106819463D01*
X30098815Y-106898815D01*
X30019463Y-106995506D01*
X29960498Y-107105820D01*
X29924188Y-107225518D01*
X29911928Y-107350000D01*
X12660000Y-107350000D01*
X12660000Y-106707438D01*
X58260200Y-106707438D01*
X58260200Y-106892562D01*
X58296316Y-107074129D01*
X58367160Y-107245162D01*
X58470010Y-107399087D01*
X58600913Y-107529990D01*
X58754838Y-107632840D01*
X58925871Y-107703684D01*
X59107438Y-107739800D01*
X59292562Y-107739800D01*
X59474129Y-107703684D01*
X59645162Y-107632840D01*
X59799087Y-107529990D01*
X59929990Y-107399087D01*
X60032840Y-107245162D01*
X60103684Y-107074129D01*
X60139800Y-106892562D01*
X60139800Y-106707438D01*
X60103684Y-106525871D01*
X60032840Y-106354838D01*
X59929990Y-106200913D01*
X59799087Y-106070010D01*
X59645162Y-105967160D01*
X59474129Y-105896316D01*
X59292562Y-105860200D01*
X59107438Y-105860200D01*
X58925871Y-105896316D01*
X58754838Y-105967160D01*
X58600913Y-106070010D01*
X58470010Y-106200913D01*
X58367160Y-106354838D01*
X58296316Y-106525871D01*
X58260200Y-106707438D01*
X12660000Y-106707438D01*
X12660000Y-98207438D01*
X25860200Y-98207438D01*
X25860200Y-98392562D01*
X25896316Y-98574129D01*
X25967160Y-98745162D01*
X26070010Y-98899087D01*
X26200913Y-99029990D01*
X26354838Y-99132840D01*
X26525871Y-99203684D01*
X26707438Y-99239800D01*
X26892562Y-99239800D01*
X27074129Y-99203684D01*
X27245162Y-99132840D01*
X27399087Y-99029990D01*
X27529990Y-98899087D01*
X27632840Y-98745162D01*
X27703684Y-98574129D01*
X27739800Y-98392562D01*
X27739800Y-98207438D01*
X27703684Y-98025871D01*
X27632840Y-97854838D01*
X27529990Y-97700913D01*
X27399087Y-97570010D01*
X27245162Y-97467160D01*
X27100980Y-97407438D01*
X33060200Y-97407438D01*
X33060200Y-97592562D01*
X33096316Y-97774129D01*
X33167160Y-97945162D01*
X33270010Y-98099087D01*
X33400913Y-98229990D01*
X33554838Y-98332840D01*
X33725871Y-98403684D01*
X33907438Y-98439800D01*
X34092562Y-98439800D01*
X34274129Y-98403684D01*
X34445162Y-98332840D01*
X34599087Y-98229990D01*
X34729990Y-98099087D01*
X34832840Y-97945162D01*
X34903684Y-97774129D01*
X34939800Y-97592562D01*
X34939800Y-97407438D01*
X34903684Y-97225871D01*
X34832840Y-97054838D01*
X34729990Y-96900913D01*
X34599087Y-96770010D01*
X34445162Y-96667160D01*
X34274129Y-96596316D01*
X34092562Y-96560200D01*
X33907438Y-96560200D01*
X33725871Y-96596316D01*
X33554838Y-96667160D01*
X33400913Y-96770010D01*
X33270010Y-96900913D01*
X33167160Y-97054838D01*
X33096316Y-97225871D01*
X33060200Y-97407438D01*
X27100980Y-97407438D01*
X27074129Y-97396316D01*
X26892562Y-97360200D01*
X26707438Y-97360200D01*
X26525871Y-97396316D01*
X26354838Y-97467160D01*
X26200913Y-97570010D01*
X26070010Y-97700913D01*
X25967160Y-97854838D01*
X25896316Y-98025871D01*
X25860200Y-98207438D01*
X12660000Y-98207438D01*
X12660000Y-91314943D01*
X71561537Y-91314943D01*
X71561537Y-91485057D01*
X71594724Y-91651903D01*
X71606538Y-91680424D01*
X71594724Y-91708945D01*
X71561537Y-91875791D01*
X71561537Y-92045905D01*
X71594724Y-92212751D01*
X71659824Y-92369916D01*
X71660163Y-92370424D01*
X71659824Y-92370932D01*
X71594724Y-92528097D01*
X71561537Y-92694943D01*
X71561537Y-92865057D01*
X71594724Y-93031903D01*
X71659824Y-93189068D01*
X71754335Y-93330513D01*
X71874624Y-93450802D01*
X72016069Y-93545313D01*
X72173234Y-93610413D01*
X72340080Y-93643600D01*
X72510194Y-93643600D01*
X72677040Y-93610413D01*
X72834205Y-93545313D01*
X72975650Y-93450802D01*
X73095939Y-93330513D01*
X73190450Y-93189068D01*
X73255550Y-93031903D01*
X73288737Y-92865057D01*
X73288737Y-92694943D01*
X73255550Y-92528097D01*
X73190450Y-92370932D01*
X73190111Y-92370424D01*
X73190450Y-92369916D01*
X73255550Y-92212751D01*
X73288737Y-92045905D01*
X73288737Y-91875791D01*
X73255550Y-91708945D01*
X73243736Y-91680424D01*
X73255550Y-91651903D01*
X73288737Y-91485057D01*
X73288737Y-91314943D01*
X73255550Y-91148097D01*
X73190450Y-90990932D01*
X73095939Y-90849487D01*
X72975650Y-90729198D01*
X72834205Y-90634687D01*
X72677040Y-90569587D01*
X72510194Y-90536400D01*
X72340080Y-90536400D01*
X72173234Y-90569587D01*
X72016069Y-90634687D01*
X71874624Y-90729198D01*
X71754335Y-90849487D01*
X71659824Y-90990932D01*
X71594724Y-91148097D01*
X71561537Y-91314943D01*
X12660000Y-91314943D01*
X12660000Y-86075000D01*
X31686928Y-86075000D01*
X31686928Y-86925000D01*
X31699188Y-87049482D01*
X31735498Y-87169180D01*
X31794463Y-87279494D01*
X31873815Y-87376185D01*
X31970506Y-87455537D01*
X32080820Y-87514502D01*
X32200518Y-87550812D01*
X32325000Y-87563072D01*
X33175000Y-87563072D01*
X33299482Y-87550812D01*
X33419180Y-87514502D01*
X33423603Y-87512138D01*
X33440809Y-87519265D01*
X33645599Y-87560000D01*
X33854401Y-87560000D01*
X34059191Y-87519265D01*
X34250000Y-87440229D01*
X34440809Y-87519265D01*
X34645599Y-87560000D01*
X34854401Y-87560000D01*
X35059191Y-87519265D01*
X35250000Y-87440229D01*
X35440809Y-87519265D01*
X35645599Y-87560000D01*
X35854401Y-87560000D01*
X36059191Y-87519265D01*
X36250000Y-87440229D01*
X36440809Y-87519265D01*
X36645599Y-87560000D01*
X36854401Y-87560000D01*
X37059191Y-87519265D01*
X37250000Y-87440229D01*
X37440809Y-87519265D01*
X37645599Y-87560000D01*
X37854401Y-87560000D01*
X38059191Y-87519265D01*
X38252098Y-87439360D01*
X38257118Y-87436006D01*
X38424750Y-87508872D01*
X38459938Y-87519540D01*
X38623000Y-87392257D01*
X38623000Y-87101413D01*
X38689360Y-87002098D01*
X38750000Y-86855701D01*
X38810640Y-87002098D01*
X38877000Y-87101413D01*
X38877000Y-87392257D01*
X39040062Y-87519540D01*
X39075250Y-87508872D01*
X39242882Y-87436006D01*
X39247902Y-87439360D01*
X39440809Y-87519265D01*
X39645599Y-87560000D01*
X39854401Y-87560000D01*
X40059191Y-87519265D01*
X40252098Y-87439360D01*
X40425711Y-87323356D01*
X40573356Y-87175711D01*
X40689360Y-87002098D01*
X40769265Y-86809191D01*
X40810000Y-86604401D01*
X40810000Y-86395599D01*
X40769265Y-86190809D01*
X40690229Y-86000000D01*
X40769265Y-85809191D01*
X40810000Y-85604401D01*
X40810000Y-85395599D01*
X40769265Y-85190809D01*
X40689360Y-84997902D01*
X40573356Y-84824289D01*
X40425711Y-84676644D01*
X40252098Y-84560640D01*
X40059191Y-84480735D01*
X39854401Y-84440000D01*
X39645599Y-84440000D01*
X39440809Y-84480735D01*
X39250000Y-84559771D01*
X39059191Y-84480735D01*
X38854401Y-84440000D01*
X38645599Y-84440000D01*
X38440809Y-84480735D01*
X38250000Y-84559771D01*
X38059191Y-84480735D01*
X37854401Y-84440000D01*
X37645599Y-84440000D01*
X37440809Y-84480735D01*
X37250000Y-84559771D01*
X37059191Y-84480735D01*
X36854401Y-84440000D01*
X36645599Y-84440000D01*
X36440809Y-84480735D01*
X36250000Y-84559771D01*
X36059191Y-84480735D01*
X35854401Y-84440000D01*
X35645599Y-84440000D01*
X35440809Y-84480735D01*
X35250000Y-84559771D01*
X35059191Y-84480735D01*
X34854401Y-84440000D01*
X34645599Y-84440000D01*
X34440809Y-84480735D01*
X34250000Y-84559771D01*
X34059191Y-84480735D01*
X33854401Y-84440000D01*
X33645599Y-84440000D01*
X33440809Y-84480735D01*
X33250000Y-84559771D01*
X33059191Y-84480735D01*
X32854401Y-84440000D01*
X32645599Y-84440000D01*
X32440809Y-84480735D01*
X32247902Y-84560640D01*
X32074289Y-84676644D01*
X31926644Y-84824289D01*
X31810640Y-84997902D01*
X31730735Y-85190809D01*
X31690000Y-85395599D01*
X31690000Y-85604401D01*
X31730735Y-85809191D01*
X31737862Y-85826397D01*
X31735498Y-85830820D01*
X31699188Y-85950518D01*
X31686928Y-86075000D01*
X12660000Y-86075000D01*
X12660000Y-83324943D01*
X67066400Y-83324943D01*
X67066400Y-83495057D01*
X67099587Y-83661903D01*
X67164687Y-83819068D01*
X67259198Y-83960513D01*
X67379487Y-84080802D01*
X67520932Y-84175313D01*
X67678097Y-84240413D01*
X67844943Y-84273600D01*
X68015057Y-84273600D01*
X68181903Y-84240413D01*
X68339068Y-84175313D01*
X68480513Y-84080802D01*
X68600802Y-83960513D01*
X68695313Y-83819068D01*
X68760413Y-83661903D01*
X68793600Y-83495057D01*
X68793600Y-83324943D01*
X68760413Y-83158097D01*
X68695313Y-83000932D01*
X68600802Y-82859487D01*
X68480513Y-82739198D01*
X68339068Y-82644687D01*
X68181903Y-82579587D01*
X68015057Y-82546400D01*
X67844943Y-82546400D01*
X67678097Y-82579587D01*
X67520932Y-82644687D01*
X67379487Y-82739198D01*
X67259198Y-82859487D01*
X67164687Y-83000932D01*
X67099587Y-83158097D01*
X67066400Y-83324943D01*
X12660000Y-83324943D01*
X12660000Y-81834080D01*
X18034461Y-81834080D01*
X18034461Y-82057480D01*
X18078045Y-82276588D01*
X18163536Y-82482982D01*
X18287651Y-82668733D01*
X18445618Y-82826700D01*
X18631369Y-82950815D01*
X18837763Y-83036306D01*
X19056871Y-83079890D01*
X19280271Y-83079890D01*
X19499379Y-83036306D01*
X19705773Y-82950815D01*
X19891524Y-82826700D01*
X20049491Y-82668733D01*
X20173606Y-82482982D01*
X20259097Y-82276588D01*
X20302681Y-82057480D01*
X20302681Y-81834080D01*
X20259097Y-81614972D01*
X20173606Y-81408578D01*
X20049491Y-81222827D01*
X19891524Y-81064860D01*
X19705773Y-80940745D01*
X19499379Y-80855254D01*
X19280271Y-80811670D01*
X19056871Y-80811670D01*
X18837763Y-80855254D01*
X18631369Y-80940745D01*
X18445618Y-81064860D01*
X18287651Y-81222827D01*
X18163536Y-81408578D01*
X18078045Y-81614972D01*
X18034461Y-81834080D01*
X12660000Y-81834080D01*
X12660000Y-73838160D01*
X18034461Y-73838160D01*
X18034461Y-74061560D01*
X18078045Y-74280668D01*
X18163536Y-74487062D01*
X18287651Y-74672813D01*
X18445618Y-74830780D01*
X18631369Y-74954895D01*
X18837763Y-75040386D01*
X19056871Y-75083970D01*
X19280271Y-75083970D01*
X19499379Y-75040386D01*
X19705773Y-74954895D01*
X19891524Y-74830780D01*
X20049491Y-74672813D01*
X20173606Y-74487062D01*
X20259097Y-74280668D01*
X20302681Y-74061560D01*
X20302681Y-73838160D01*
X20259097Y-73619052D01*
X20173606Y-73412658D01*
X20049491Y-73226907D01*
X19891524Y-73068940D01*
X19705773Y-72944825D01*
X19499379Y-72859334D01*
X19484695Y-72856413D01*
X31426400Y-72856413D01*
X31426400Y-73026527D01*
X31459587Y-73193373D01*
X31481497Y-73246269D01*
X31459587Y-73299164D01*
X31426400Y-73466010D01*
X31426400Y-73636124D01*
X31459587Y-73802970D01*
X31524687Y-73960135D01*
X31575067Y-74035533D01*
X31524687Y-74110932D01*
X31459587Y-74268097D01*
X31426400Y-74434943D01*
X31426400Y-74605057D01*
X31459587Y-74771903D01*
X31524687Y-74929068D01*
X31578764Y-75010000D01*
X31524687Y-75090932D01*
X31459587Y-75248097D01*
X31426400Y-75414943D01*
X31426400Y-75585057D01*
X31459587Y-75751903D01*
X31524687Y-75909068D01*
X31553696Y-75952483D01*
X31534687Y-75980932D01*
X31469587Y-76138097D01*
X31436400Y-76304943D01*
X31436400Y-76475057D01*
X31469587Y-76641903D01*
X31534687Y-76799068D01*
X31600469Y-76897517D01*
X31524687Y-77010932D01*
X31459587Y-77168097D01*
X31426400Y-77334943D01*
X31426400Y-77505057D01*
X31459587Y-77671903D01*
X31524687Y-77829068D01*
X31552037Y-77870000D01*
X31524687Y-77910932D01*
X31459587Y-78068097D01*
X31426400Y-78234943D01*
X31426400Y-78405057D01*
X31459587Y-78571903D01*
X31524687Y-78729068D01*
X31592128Y-78830000D01*
X31524687Y-78930932D01*
X31459587Y-79088097D01*
X31426400Y-79254943D01*
X31426400Y-79425057D01*
X31459587Y-79591903D01*
X31524687Y-79749068D01*
X31619198Y-79890513D01*
X31739487Y-80010802D01*
X31880932Y-80105313D01*
X32038097Y-80170413D01*
X32204943Y-80203600D01*
X32375057Y-80203600D01*
X32541903Y-80170413D01*
X32699068Y-80105313D01*
X32840513Y-80010802D01*
X32960802Y-79890513D01*
X33055313Y-79749068D01*
X33120413Y-79591903D01*
X33153600Y-79425057D01*
X33153600Y-79254943D01*
X33120413Y-79088097D01*
X33055313Y-78930932D01*
X32987872Y-78830000D01*
X33055313Y-78729068D01*
X33120413Y-78571903D01*
X33153600Y-78405057D01*
X33153600Y-78234943D01*
X33120413Y-78068097D01*
X33056975Y-77914943D01*
X53636400Y-77914943D01*
X53636400Y-78085057D01*
X53669587Y-78251903D01*
X53734687Y-78409068D01*
X53829198Y-78550513D01*
X53949487Y-78670802D01*
X54090932Y-78765313D01*
X54248097Y-78830413D01*
X54414943Y-78863600D01*
X54585057Y-78863600D01*
X54751903Y-78830413D01*
X54909068Y-78765313D01*
X55050513Y-78670802D01*
X55170802Y-78550513D01*
X55265313Y-78409068D01*
X55330413Y-78251903D01*
X55363600Y-78085057D01*
X55363600Y-77914943D01*
X55330413Y-77748097D01*
X55265313Y-77590932D01*
X55170802Y-77449487D01*
X55050513Y-77329198D01*
X54909068Y-77234687D01*
X54751903Y-77169587D01*
X54585057Y-77136400D01*
X54414943Y-77136400D01*
X54248097Y-77169587D01*
X54090932Y-77234687D01*
X53949487Y-77329198D01*
X53829198Y-77449487D01*
X53734687Y-77590932D01*
X53669587Y-77748097D01*
X53636400Y-77914943D01*
X33056975Y-77914943D01*
X33055313Y-77910932D01*
X33027963Y-77870000D01*
X33055313Y-77829068D01*
X33120413Y-77671903D01*
X33153600Y-77505057D01*
X33153600Y-77334943D01*
X33120413Y-77168097D01*
X33055313Y-77010932D01*
X32989531Y-76912483D01*
X33065313Y-76799068D01*
X33130413Y-76641903D01*
X33163600Y-76475057D01*
X33163600Y-76304943D01*
X33130413Y-76138097D01*
X33065313Y-75980932D01*
X33036304Y-75937517D01*
X33055313Y-75909068D01*
X33120413Y-75751903D01*
X33153600Y-75585057D01*
X33153600Y-75414943D01*
X33120413Y-75248097D01*
X33055313Y-75090932D01*
X33001236Y-75010000D01*
X33055313Y-74929068D01*
X33120413Y-74771903D01*
X33153600Y-74605057D01*
X33153600Y-74434943D01*
X33120413Y-74268097D01*
X33055313Y-74110932D01*
X33004933Y-74035533D01*
X33055313Y-73960135D01*
X33120413Y-73802970D01*
X33153600Y-73636124D01*
X33153600Y-73466010D01*
X33120413Y-73299164D01*
X33098503Y-73246269D01*
X33120413Y-73193373D01*
X33153600Y-73026527D01*
X33153600Y-72856413D01*
X33120413Y-72689567D01*
X33055313Y-72532402D01*
X32960802Y-72390957D01*
X32840513Y-72270668D01*
X32699068Y-72176157D01*
X32541903Y-72111057D01*
X32375057Y-72077870D01*
X32204943Y-72077870D01*
X32038097Y-72111057D01*
X31880932Y-72176157D01*
X31739487Y-72270668D01*
X31619198Y-72390957D01*
X31524687Y-72532402D01*
X31459587Y-72689567D01*
X31426400Y-72856413D01*
X19484695Y-72856413D01*
X19280271Y-72815750D01*
X19056871Y-72815750D01*
X18837763Y-72859334D01*
X18631369Y-72944825D01*
X18445618Y-73068940D01*
X18287651Y-73226907D01*
X18163536Y-73412658D01*
X18078045Y-73619052D01*
X18034461Y-73838160D01*
X12660000Y-73838160D01*
X12660000Y-69614943D01*
X42906400Y-69614943D01*
X42906400Y-69785057D01*
X42939587Y-69951903D01*
X43004687Y-70109068D01*
X43099198Y-70250513D01*
X43219487Y-70370802D01*
X43360932Y-70465313D01*
X43518097Y-70530413D01*
X43684943Y-70563600D01*
X43855057Y-70563600D01*
X44021903Y-70530413D01*
X44179068Y-70465313D01*
X44320513Y-70370802D01*
X44440802Y-70250513D01*
X44535313Y-70109068D01*
X44600413Y-69951903D01*
X44633600Y-69785057D01*
X44633600Y-69784943D01*
X52966400Y-69784943D01*
X52966400Y-69955057D01*
X52999587Y-70121903D01*
X53064687Y-70279068D01*
X53159198Y-70420513D01*
X53279487Y-70540802D01*
X53420932Y-70635313D01*
X53578097Y-70700413D01*
X53744943Y-70733600D01*
X53915057Y-70733600D01*
X54081903Y-70700413D01*
X54239068Y-70635313D01*
X54380513Y-70540802D01*
X54500000Y-70421315D01*
X54589487Y-70510802D01*
X54730932Y-70605313D01*
X54888097Y-70670413D01*
X55054943Y-70703600D01*
X55225057Y-70703600D01*
X55391903Y-70670413D01*
X55549068Y-70605313D01*
X55690513Y-70510802D01*
X55810802Y-70390513D01*
X55905313Y-70249068D01*
X55970413Y-70091903D01*
X56003600Y-69925057D01*
X56003600Y-69754943D01*
X55970413Y-69588097D01*
X55905313Y-69430932D01*
X55810802Y-69289487D01*
X55690513Y-69169198D01*
X55549068Y-69074687D01*
X55391903Y-69009587D01*
X55225057Y-68976400D01*
X55054943Y-68976400D01*
X54888097Y-69009587D01*
X54730932Y-69074687D01*
X54589487Y-69169198D01*
X54470000Y-69288685D01*
X54380513Y-69199198D01*
X54239068Y-69104687D01*
X54081903Y-69039587D01*
X53915057Y-69006400D01*
X53744943Y-69006400D01*
X53578097Y-69039587D01*
X53420932Y-69104687D01*
X53279487Y-69199198D01*
X53159198Y-69319487D01*
X53064687Y-69460932D01*
X52999587Y-69618097D01*
X52966400Y-69784943D01*
X44633600Y-69784943D01*
X44633600Y-69614943D01*
X44600413Y-69448097D01*
X44535313Y-69290932D01*
X44440802Y-69149487D01*
X44320513Y-69029198D01*
X44179068Y-68934687D01*
X44021903Y-68869587D01*
X43855057Y-68836400D01*
X43684943Y-68836400D01*
X43518097Y-68869587D01*
X43360932Y-68934687D01*
X43219487Y-69029198D01*
X43099198Y-69149487D01*
X43004687Y-69290932D01*
X42939587Y-69448097D01*
X42906400Y-69614943D01*
X12660000Y-69614943D01*
X12660000Y-68394938D01*
X47818700Y-68394938D01*
X47818700Y-68580062D01*
X47854816Y-68761629D01*
X47925660Y-68932662D01*
X48028510Y-69086587D01*
X48159413Y-69217490D01*
X48313338Y-69320340D01*
X48484371Y-69391184D01*
X48665938Y-69427300D01*
X48851062Y-69427300D01*
X49032629Y-69391184D01*
X49203662Y-69320340D01*
X49357587Y-69217490D01*
X49488490Y-69086587D01*
X49591340Y-68932662D01*
X49662184Y-68761629D01*
X49698300Y-68580062D01*
X49698300Y-68394938D01*
X49662184Y-68213371D01*
X49591340Y-68042338D01*
X49488490Y-67888413D01*
X49357587Y-67757510D01*
X49203662Y-67654660D01*
X49032629Y-67583816D01*
X48851062Y-67547700D01*
X48665938Y-67547700D01*
X48484371Y-67583816D01*
X48313338Y-67654660D01*
X48159413Y-67757510D01*
X48028510Y-67888413D01*
X47925660Y-68042338D01*
X47854816Y-68213371D01*
X47818700Y-68394938D01*
X12660000Y-68394938D01*
X12660000Y-65849743D01*
X43234000Y-65849743D01*
X43234000Y-66019857D01*
X43267187Y-66186703D01*
X43332287Y-66343868D01*
X43426798Y-66485313D01*
X43511285Y-66569800D01*
X43426798Y-66654287D01*
X43332287Y-66795732D01*
X43267187Y-66952897D01*
X43234000Y-67119743D01*
X43234000Y-67289857D01*
X43267187Y-67456703D01*
X43332287Y-67613868D01*
X43426798Y-67755313D01*
X43547087Y-67875602D01*
X43688532Y-67970113D01*
X43845697Y-68035213D01*
X44012543Y-68068400D01*
X44182657Y-68068400D01*
X44349503Y-68035213D01*
X44506668Y-67970113D01*
X44648113Y-67875602D01*
X44768402Y-67755313D01*
X44862913Y-67613868D01*
X44928013Y-67456703D01*
X44961200Y-67289857D01*
X44961200Y-67119743D01*
X44928013Y-66952897D01*
X44912292Y-66914943D01*
X60256400Y-66914943D01*
X60256400Y-67085057D01*
X60289587Y-67251903D01*
X60354687Y-67409068D01*
X60449198Y-67550513D01*
X60569487Y-67670802D01*
X60710932Y-67765313D01*
X60868097Y-67830413D01*
X61034943Y-67863600D01*
X61205057Y-67863600D01*
X61371903Y-67830413D01*
X61529068Y-67765313D01*
X61612415Y-67709622D01*
X61620932Y-67715313D01*
X61778097Y-67780413D01*
X61944943Y-67813600D01*
X62115057Y-67813600D01*
X62281903Y-67780413D01*
X62439068Y-67715313D01*
X62580513Y-67620802D01*
X62700802Y-67500513D01*
X62795313Y-67359068D01*
X62860413Y-67201903D01*
X62893600Y-67035057D01*
X62893600Y-66864943D01*
X62860413Y-66698097D01*
X62795313Y-66540932D01*
X62700802Y-66399487D01*
X62580513Y-66279198D01*
X62439068Y-66184687D01*
X62281903Y-66119587D01*
X62115057Y-66086400D01*
X61944943Y-66086400D01*
X61778097Y-66119587D01*
X61620932Y-66184687D01*
X61537585Y-66240378D01*
X61529068Y-66234687D01*
X61371903Y-66169587D01*
X61205057Y-66136400D01*
X61034943Y-66136400D01*
X60868097Y-66169587D01*
X60710932Y-66234687D01*
X60569487Y-66329198D01*
X60449198Y-66449487D01*
X60354687Y-66590932D01*
X60289587Y-66748097D01*
X60256400Y-66914943D01*
X44912292Y-66914943D01*
X44862913Y-66795732D01*
X44768402Y-66654287D01*
X44683915Y-66569800D01*
X44768402Y-66485313D01*
X44862913Y-66343868D01*
X44928013Y-66186703D01*
X44961200Y-66019857D01*
X44961200Y-65849743D01*
X44952786Y-65807438D01*
X50360200Y-65807438D01*
X50360200Y-65992562D01*
X50396316Y-66174129D01*
X50467160Y-66345162D01*
X50570010Y-66499087D01*
X50700913Y-66629990D01*
X50854838Y-66732840D01*
X51025871Y-66803684D01*
X51207438Y-66839800D01*
X51392562Y-66839800D01*
X51574129Y-66803684D01*
X51745162Y-66732840D01*
X51899087Y-66629990D01*
X52029990Y-66499087D01*
X52132840Y-66345162D01*
X52203684Y-66174129D01*
X52239800Y-65992562D01*
X52239800Y-65807438D01*
X52203684Y-65625871D01*
X52132840Y-65454838D01*
X52029990Y-65300913D01*
X51899087Y-65170010D01*
X51745162Y-65067160D01*
X51574129Y-64996316D01*
X51392562Y-64960200D01*
X51207438Y-64960200D01*
X51025871Y-64996316D01*
X50854838Y-65067160D01*
X50700913Y-65170010D01*
X50570010Y-65300913D01*
X50467160Y-65454838D01*
X50396316Y-65625871D01*
X50360200Y-65807438D01*
X44952786Y-65807438D01*
X44928013Y-65682897D01*
X44862913Y-65525732D01*
X44768402Y-65384287D01*
X44648113Y-65263998D01*
X44506668Y-65169487D01*
X44349503Y-65104387D01*
X44182657Y-65071200D01*
X44012543Y-65071200D01*
X43845697Y-65104387D01*
X43688532Y-65169487D01*
X43547087Y-65263998D01*
X43426798Y-65384287D01*
X43332287Y-65525732D01*
X43267187Y-65682897D01*
X43234000Y-65849743D01*
X12660000Y-65849743D01*
X12660000Y-61214943D01*
X33236400Y-61214943D01*
X33236400Y-61385057D01*
X33269587Y-61551903D01*
X33334687Y-61709068D01*
X33429198Y-61850513D01*
X33549487Y-61970802D01*
X33690932Y-62065313D01*
X33848097Y-62130413D01*
X34014943Y-62163600D01*
X34185057Y-62163600D01*
X34351903Y-62130413D01*
X34450000Y-62089780D01*
X34548097Y-62130413D01*
X34714943Y-62163600D01*
X34885057Y-62163600D01*
X35051903Y-62130413D01*
X35209068Y-62065313D01*
X35350513Y-61970802D01*
X35470802Y-61850513D01*
X35565313Y-61709068D01*
X35630413Y-61551903D01*
X35663600Y-61385057D01*
X35663600Y-61214943D01*
X35630413Y-61048097D01*
X35565313Y-60890932D01*
X35481130Y-60764943D01*
X39033860Y-60764943D01*
X39033860Y-60935057D01*
X39067047Y-61101903D01*
X39132147Y-61259068D01*
X39226658Y-61400513D01*
X39346947Y-61520802D01*
X39488392Y-61615313D01*
X39645557Y-61680413D01*
X39812403Y-61713600D01*
X39982517Y-61713600D01*
X40149363Y-61680413D01*
X40306528Y-61615313D01*
X40447973Y-61520802D01*
X40493730Y-61475045D01*
X40539487Y-61520802D01*
X40670406Y-61608279D01*
X40579198Y-61699487D01*
X40484687Y-61840932D01*
X40419587Y-61998097D01*
X40386400Y-62164943D01*
X40386400Y-62335057D01*
X40419587Y-62501903D01*
X40484687Y-62659068D01*
X40579198Y-62800513D01*
X40668685Y-62890000D01*
X40609198Y-62949487D01*
X40514687Y-63090932D01*
X40449587Y-63248097D01*
X40416400Y-63414943D01*
X40416400Y-63585057D01*
X40449587Y-63751903D01*
X40514687Y-63909068D01*
X40609198Y-64050513D01*
X40729487Y-64170802D01*
X40870932Y-64265313D01*
X41028097Y-64330413D01*
X41194943Y-64363600D01*
X41365057Y-64363600D01*
X41531903Y-64330413D01*
X41689068Y-64265313D01*
X41830513Y-64170802D01*
X41950802Y-64050513D01*
X42045313Y-63909068D01*
X42110413Y-63751903D01*
X42143600Y-63585057D01*
X42143600Y-63414943D01*
X42122217Y-63307438D01*
X42772800Y-63307438D01*
X42772800Y-63492562D01*
X42808916Y-63674129D01*
X42879760Y-63845162D01*
X42982610Y-63999087D01*
X43113513Y-64129990D01*
X43267438Y-64232840D01*
X43438471Y-64303684D01*
X43620038Y-64339800D01*
X43805162Y-64339800D01*
X43986729Y-64303684D01*
X44157762Y-64232840D01*
X44311687Y-64129990D01*
X44442590Y-63999087D01*
X44545440Y-63845162D01*
X44616284Y-63674129D01*
X44652400Y-63492562D01*
X44652400Y-63307438D01*
X44641261Y-63251438D01*
X46612200Y-63251438D01*
X46612200Y-63436562D01*
X46648316Y-63618129D01*
X46719160Y-63789162D01*
X46822010Y-63943087D01*
X46952913Y-64073990D01*
X47106838Y-64176840D01*
X47277871Y-64247684D01*
X47459438Y-64283800D01*
X47644562Y-64283800D01*
X47826129Y-64247684D01*
X47990518Y-64179592D01*
X47963760Y-64219638D01*
X47892916Y-64390671D01*
X47856800Y-64572238D01*
X47856800Y-64757362D01*
X47892916Y-64938929D01*
X47963760Y-65109962D01*
X48066610Y-65263887D01*
X48197513Y-65394790D01*
X48351438Y-65497640D01*
X48522471Y-65568484D01*
X48704038Y-65604600D01*
X48889162Y-65604600D01*
X49070729Y-65568484D01*
X49241762Y-65497640D01*
X49395687Y-65394790D01*
X49526590Y-65263887D01*
X49629440Y-65109962D01*
X49700284Y-64938929D01*
X49736400Y-64757362D01*
X49736400Y-64572238D01*
X49700284Y-64390671D01*
X49629440Y-64219638D01*
X49526590Y-64065713D01*
X49395687Y-63934810D01*
X49241762Y-63831960D01*
X49070729Y-63761116D01*
X48889162Y-63725000D01*
X48704038Y-63725000D01*
X48522471Y-63761116D01*
X48358082Y-63829208D01*
X48384840Y-63789162D01*
X48455684Y-63618129D01*
X48491800Y-63436562D01*
X48491800Y-63251438D01*
X49279200Y-63251438D01*
X49279200Y-63436562D01*
X49315316Y-63618129D01*
X49386160Y-63789162D01*
X49489010Y-63943087D01*
X49619913Y-64073990D01*
X49773838Y-64176840D01*
X49944871Y-64247684D01*
X50126438Y-64283800D01*
X50311562Y-64283800D01*
X50493129Y-64247684D01*
X50664162Y-64176840D01*
X50818087Y-64073990D01*
X50948990Y-63943087D01*
X51051840Y-63789162D01*
X51122684Y-63618129D01*
X51158800Y-63436562D01*
X51158800Y-63314938D01*
X52962200Y-63314938D01*
X52962200Y-63500062D01*
X52998316Y-63681629D01*
X53069160Y-63852662D01*
X53172010Y-64006587D01*
X53302913Y-64137490D01*
X53456838Y-64240340D01*
X53627871Y-64311184D01*
X53809438Y-64347300D01*
X53994562Y-64347300D01*
X54176129Y-64311184D01*
X54347162Y-64240340D01*
X54501087Y-64137490D01*
X54631990Y-64006587D01*
X54734840Y-63852662D01*
X54805684Y-63681629D01*
X54841800Y-63500062D01*
X54841800Y-63314938D01*
X54805684Y-63133371D01*
X54734840Y-62962338D01*
X54631990Y-62808413D01*
X54501087Y-62677510D01*
X54347162Y-62574660D01*
X54176129Y-62503816D01*
X53994562Y-62467700D01*
X53809438Y-62467700D01*
X53627871Y-62503816D01*
X53456838Y-62574660D01*
X53302913Y-62677510D01*
X53172010Y-62808413D01*
X53069160Y-62962338D01*
X52998316Y-63133371D01*
X52962200Y-63314938D01*
X51158800Y-63314938D01*
X51158800Y-63251438D01*
X51122684Y-63069871D01*
X51051840Y-62898838D01*
X50948990Y-62744913D01*
X50818087Y-62614010D01*
X50664162Y-62511160D01*
X50493129Y-62440316D01*
X50311562Y-62404200D01*
X50126438Y-62404200D01*
X49944871Y-62440316D01*
X49773838Y-62511160D01*
X49619913Y-62614010D01*
X49489010Y-62744913D01*
X49386160Y-62898838D01*
X49315316Y-63069871D01*
X49279200Y-63251438D01*
X48491800Y-63251438D01*
X48455684Y-63069871D01*
X48384840Y-62898838D01*
X48281990Y-62744913D01*
X48151087Y-62614010D01*
X47997162Y-62511160D01*
X47826129Y-62440316D01*
X47644562Y-62404200D01*
X47459438Y-62404200D01*
X47277871Y-62440316D01*
X47106838Y-62511160D01*
X46952913Y-62614010D01*
X46822010Y-62744913D01*
X46719160Y-62898838D01*
X46648316Y-63069871D01*
X46612200Y-63251438D01*
X44641261Y-63251438D01*
X44616284Y-63125871D01*
X44545440Y-62954838D01*
X44442590Y-62800913D01*
X44311687Y-62670010D01*
X44157762Y-62567160D01*
X43986729Y-62496316D01*
X43805162Y-62460200D01*
X43620038Y-62460200D01*
X43438471Y-62496316D01*
X43267438Y-62567160D01*
X43113513Y-62670010D01*
X42982610Y-62800913D01*
X42879760Y-62954838D01*
X42808916Y-63125871D01*
X42772800Y-63307438D01*
X42122217Y-63307438D01*
X42110413Y-63248097D01*
X42045313Y-63090932D01*
X41950802Y-62949487D01*
X41861315Y-62860000D01*
X41920802Y-62800513D01*
X42015313Y-62659068D01*
X42080413Y-62501903D01*
X42113600Y-62335057D01*
X42113600Y-62164943D01*
X42080413Y-61998097D01*
X42015313Y-61840932D01*
X41920802Y-61699487D01*
X41800513Y-61579198D01*
X41669594Y-61491721D01*
X41760802Y-61400513D01*
X41783318Y-61366815D01*
X41819198Y-61420513D01*
X41939487Y-61540802D01*
X42080932Y-61635313D01*
X42238097Y-61700413D01*
X42404943Y-61733600D01*
X42575057Y-61733600D01*
X42741903Y-61700413D01*
X42899068Y-61635313D01*
X43040513Y-61540802D01*
X43160802Y-61420513D01*
X43255313Y-61279068D01*
X43296948Y-61178552D01*
X43332287Y-61263868D01*
X43426798Y-61405313D01*
X43547087Y-61525602D01*
X43688532Y-61620113D01*
X43845697Y-61685213D01*
X44012543Y-61718400D01*
X44182657Y-61718400D01*
X44349503Y-61685213D01*
X44506668Y-61620113D01*
X44648113Y-61525602D01*
X44768402Y-61405313D01*
X44862913Y-61263868D01*
X44928013Y-61106703D01*
X44961200Y-60939857D01*
X44961200Y-60769743D01*
X44928013Y-60602897D01*
X44862913Y-60445732D01*
X44768402Y-60304287D01*
X44683915Y-60219800D01*
X44768402Y-60135313D01*
X44862913Y-59993868D01*
X44928013Y-59836703D01*
X44961200Y-59669857D01*
X44961200Y-59499743D01*
X44928013Y-59332897D01*
X44862913Y-59175732D01*
X44768402Y-59034287D01*
X44648113Y-58913998D01*
X44506668Y-58819487D01*
X44349503Y-58754387D01*
X44182657Y-58721200D01*
X44012543Y-58721200D01*
X43845697Y-58754387D01*
X43688532Y-58819487D01*
X43547087Y-58913998D01*
X43426798Y-59034287D01*
X43332287Y-59175732D01*
X43280240Y-59301385D01*
X43242773Y-59210932D01*
X43148262Y-59069487D01*
X43027973Y-58949198D01*
X42886528Y-58854687D01*
X42729363Y-58789587D01*
X42562517Y-58756400D01*
X42392403Y-58756400D01*
X42225557Y-58789587D01*
X42068392Y-58854687D01*
X41926947Y-58949198D01*
X41806658Y-59069487D01*
X41712147Y-59210932D01*
X41647047Y-59368097D01*
X41613860Y-59534943D01*
X41613860Y-59705057D01*
X41647047Y-59871903D01*
X41712147Y-60029068D01*
X41806658Y-60170513D01*
X41887415Y-60251270D01*
X41819198Y-60319487D01*
X41796682Y-60353185D01*
X41760802Y-60299487D01*
X41640513Y-60179198D01*
X41499068Y-60084687D01*
X41341903Y-60019587D01*
X41175057Y-59986400D01*
X41004943Y-59986400D01*
X40838097Y-60019587D01*
X40680932Y-60084687D01*
X40539487Y-60179198D01*
X40493730Y-60224955D01*
X40447973Y-60179198D01*
X40306528Y-60084687D01*
X40149363Y-60019587D01*
X39982517Y-59986400D01*
X39812403Y-59986400D01*
X39645557Y-60019587D01*
X39488392Y-60084687D01*
X39346947Y-60179198D01*
X39226658Y-60299487D01*
X39132147Y-60440932D01*
X39067047Y-60598097D01*
X39033860Y-60764943D01*
X35481130Y-60764943D01*
X35470802Y-60749487D01*
X35350513Y-60629198D01*
X35209068Y-60534687D01*
X35051903Y-60469587D01*
X34885057Y-60436400D01*
X34714943Y-60436400D01*
X34548097Y-60469587D01*
X34450000Y-60510220D01*
X34351903Y-60469587D01*
X34185057Y-60436400D01*
X34014943Y-60436400D01*
X33848097Y-60469587D01*
X33690932Y-60534687D01*
X33549487Y-60629198D01*
X33429198Y-60749487D01*
X33334687Y-60890932D01*
X33269587Y-61048097D01*
X33236400Y-61214943D01*
X12660000Y-61214943D01*
X12660000Y-58407438D01*
X23860200Y-58407438D01*
X23860200Y-58592562D01*
X23896316Y-58774129D01*
X23967160Y-58945162D01*
X24070010Y-59099087D01*
X24200913Y-59229990D01*
X24354838Y-59332840D01*
X24525871Y-59403684D01*
X24707438Y-59439800D01*
X24892562Y-59439800D01*
X25074129Y-59403684D01*
X25245162Y-59332840D01*
X25399087Y-59229990D01*
X25529990Y-59099087D01*
X25632840Y-58945162D01*
X25703684Y-58774129D01*
X25739800Y-58592562D01*
X25739800Y-58407438D01*
X25703684Y-58225871D01*
X25632840Y-58054838D01*
X25529990Y-57900913D01*
X25444020Y-57814943D01*
X27436400Y-57814943D01*
X27436400Y-57985057D01*
X27469587Y-58151903D01*
X27534687Y-58309068D01*
X27629198Y-58450513D01*
X27749487Y-58570802D01*
X27890932Y-58665313D01*
X28048097Y-58730413D01*
X28214943Y-58763600D01*
X28385057Y-58763600D01*
X28551903Y-58730413D01*
X28709068Y-58665313D01*
X28750000Y-58637963D01*
X28790932Y-58665313D01*
X28948097Y-58730413D01*
X29114943Y-58763600D01*
X29285057Y-58763600D01*
X29451903Y-58730413D01*
X29609068Y-58665313D01*
X29611374Y-58663772D01*
X29613680Y-58665313D01*
X29770845Y-58730413D01*
X29937691Y-58763600D01*
X30107805Y-58763600D01*
X30274651Y-58730413D01*
X30361370Y-58694493D01*
X30448089Y-58730413D01*
X30614935Y-58763600D01*
X30785049Y-58763600D01*
X30951895Y-58730413D01*
X31109060Y-58665313D01*
X31250505Y-58570802D01*
X31370794Y-58450513D01*
X31465305Y-58309068D01*
X31530405Y-58151903D01*
X31563592Y-57985057D01*
X31563592Y-57814943D01*
X31530405Y-57648097D01*
X31465305Y-57490932D01*
X31370794Y-57349487D01*
X31250505Y-57229198D01*
X31109060Y-57134687D01*
X30951895Y-57069587D01*
X30785049Y-57036400D01*
X30614935Y-57036400D01*
X30448089Y-57069587D01*
X30361370Y-57105507D01*
X30274651Y-57069587D01*
X30107805Y-57036400D01*
X29937691Y-57036400D01*
X29770845Y-57069587D01*
X29613680Y-57134687D01*
X29611374Y-57136228D01*
X29609068Y-57134687D01*
X29451903Y-57069587D01*
X29285057Y-57036400D01*
X29114943Y-57036400D01*
X28948097Y-57069587D01*
X28790932Y-57134687D01*
X28750000Y-57162037D01*
X28709068Y-57134687D01*
X28551903Y-57069587D01*
X28385057Y-57036400D01*
X28214943Y-57036400D01*
X28048097Y-57069587D01*
X27890932Y-57134687D01*
X27749487Y-57229198D01*
X27629198Y-57349487D01*
X27534687Y-57490932D01*
X27469587Y-57648097D01*
X27436400Y-57814943D01*
X25444020Y-57814943D01*
X25399087Y-57770010D01*
X25245162Y-57667160D01*
X25074129Y-57596316D01*
X24892562Y-57560200D01*
X24707438Y-57560200D01*
X24525871Y-57596316D01*
X24354838Y-57667160D01*
X24200913Y-57770010D01*
X24070010Y-57900913D01*
X23967160Y-58054838D01*
X23896316Y-58225871D01*
X23860200Y-58407438D01*
X12660000Y-58407438D01*
X12660000Y-47835098D01*
X23105000Y-47835098D01*
X23105000Y-48304902D01*
X23196654Y-48765679D01*
X23376440Y-49199721D01*
X23637450Y-49590349D01*
X23969651Y-49922550D01*
X24360279Y-50183560D01*
X24794321Y-50363346D01*
X25255098Y-50455000D01*
X25724902Y-50455000D01*
X26185679Y-50363346D01*
X26619721Y-50183560D01*
X27010349Y-49922550D01*
X27342550Y-49590349D01*
X27603560Y-49199721D01*
X27783346Y-48765679D01*
X27875000Y-48304902D01*
X27875000Y-47835098D01*
X27783346Y-47374321D01*
X27603560Y-46940279D01*
X27342550Y-46549651D01*
X27010349Y-46217450D01*
X26619721Y-45956440D01*
X26185679Y-45776654D01*
X25724902Y-45685000D01*
X25255098Y-45685000D01*
X24794321Y-45776654D01*
X24360279Y-45956440D01*
X23969651Y-46217450D01*
X23637450Y-46549651D01*
X23376440Y-46940279D01*
X23196654Y-47374321D01*
X23105000Y-47835098D01*
X12660000Y-47835098D01*
X12660000Y-34695098D01*
X23105000Y-34695098D01*
X23105000Y-35164902D01*
X23196654Y-35625679D01*
X23376440Y-36059721D01*
X23637450Y-36450349D01*
X23969651Y-36782550D01*
X24360279Y-37043560D01*
X24794321Y-37223346D01*
X25255098Y-37315000D01*
X25724902Y-37315000D01*
X26185679Y-37223346D01*
X26619721Y-37043560D01*
X26965991Y-36812189D01*
X26907463Y-36883506D01*
X26848498Y-36993820D01*
X26812188Y-37113518D01*
X26799928Y-37238000D01*
X26799928Y-38762000D01*
X26812188Y-38886482D01*
X26848498Y-39006180D01*
X26907463Y-39116494D01*
X26986815Y-39213185D01*
X27083506Y-39292537D01*
X27193820Y-39351502D01*
X27313518Y-39387812D01*
X27345292Y-39390941D01*
X27309465Y-39414880D01*
X27114880Y-39609465D01*
X26961995Y-39838273D01*
X26856686Y-40092510D01*
X26803000Y-40362408D01*
X26803000Y-40637592D01*
X26856686Y-40907490D01*
X26961995Y-41161727D01*
X27114880Y-41390535D01*
X27224345Y-41500000D01*
X27114880Y-41609465D01*
X26961995Y-41838273D01*
X26856686Y-42092510D01*
X26803000Y-42362408D01*
X26803000Y-42637592D01*
X26856686Y-42907490D01*
X26961995Y-43161727D01*
X27114880Y-43390535D01*
X27309465Y-43585120D01*
X27538273Y-43738005D01*
X27567231Y-43750000D01*
X27538273Y-43761995D01*
X27309465Y-43914880D01*
X27114880Y-44109465D01*
X26961995Y-44338273D01*
X26856686Y-44592510D01*
X26803000Y-44862408D01*
X26803000Y-45137592D01*
X26856686Y-45407490D01*
X26961995Y-45661727D01*
X27114880Y-45890535D01*
X27309465Y-46085120D01*
X27538273Y-46238005D01*
X27792510Y-46343314D01*
X28062408Y-46397000D01*
X28337592Y-46397000D01*
X28607490Y-46343314D01*
X28861727Y-46238005D01*
X29090535Y-46085120D01*
X29285120Y-45890535D01*
X29438005Y-45661727D01*
X29543314Y-45407490D01*
X29597000Y-45137592D01*
X29597000Y-44862408D01*
X29543314Y-44592510D01*
X29438005Y-44338273D01*
X29285120Y-44109465D01*
X29090535Y-43914880D01*
X28861727Y-43761995D01*
X28832769Y-43750000D01*
X28861727Y-43738005D01*
X29090535Y-43585120D01*
X29285120Y-43390535D01*
X29438005Y-43161727D01*
X29543314Y-42907490D01*
X29597000Y-42637592D01*
X29597000Y-42362408D01*
X29543314Y-42092510D01*
X29438005Y-41838273D01*
X29285120Y-41609465D01*
X29175655Y-41500000D01*
X29285120Y-41390535D01*
X29438005Y-41161727D01*
X29543314Y-40907490D01*
X29597000Y-40637592D01*
X29597000Y-40362408D01*
X29543314Y-40092510D01*
X29438005Y-39838273D01*
X29285120Y-39609465D01*
X29090535Y-39414880D01*
X29054708Y-39390941D01*
X29086482Y-39387812D01*
X29206180Y-39351502D01*
X29316494Y-39292537D01*
X29413185Y-39213185D01*
X29492537Y-39116494D01*
X29551502Y-39006180D01*
X29587812Y-38886482D01*
X29593818Y-38825500D01*
X33248068Y-38825500D01*
X44997066Y-50574500D01*
X27640550Y-50574500D01*
X27600000Y-50570506D01*
X27559449Y-50574500D01*
X27559447Y-50574500D01*
X27438174Y-50586444D01*
X27291104Y-50631057D01*
X27282566Y-50633647D01*
X27139157Y-50710301D01*
X27044958Y-50787608D01*
X27044955Y-50787611D01*
X27013459Y-50813459D01*
X26987611Y-50844955D01*
X24638829Y-53193738D01*
X24625871Y-53196316D01*
X24454838Y-53267160D01*
X24300913Y-53370010D01*
X24170010Y-53500913D01*
X24067160Y-53654838D01*
X23996316Y-53825871D01*
X23960200Y-54007438D01*
X23960200Y-54192562D01*
X23996316Y-54374129D01*
X24067160Y-54545162D01*
X24170010Y-54699087D01*
X24300913Y-54829990D01*
X24454838Y-54932840D01*
X24625871Y-55003684D01*
X24807438Y-55039800D01*
X24992562Y-55039800D01*
X25174129Y-55003684D01*
X25345162Y-54932840D01*
X25499087Y-54829990D01*
X25629990Y-54699087D01*
X25732840Y-54545162D01*
X25761925Y-54474943D01*
X37876400Y-54474943D01*
X37876400Y-54645057D01*
X37909587Y-54811903D01*
X37974687Y-54969068D01*
X38069198Y-55110513D01*
X38189487Y-55230802D01*
X38330932Y-55325313D01*
X38488097Y-55390413D01*
X38654943Y-55423600D01*
X38825057Y-55423600D01*
X38991903Y-55390413D01*
X39149068Y-55325313D01*
X39290513Y-55230802D01*
X39340000Y-55181315D01*
X39348685Y-55190000D01*
X39239198Y-55299487D01*
X39144687Y-55440932D01*
X39079587Y-55598097D01*
X39046400Y-55764943D01*
X39046400Y-55935057D01*
X39079587Y-56101903D01*
X39144687Y-56259068D01*
X39239198Y-56400513D01*
X39359487Y-56520802D01*
X39500932Y-56615313D01*
X39658097Y-56680413D01*
X39824943Y-56713600D01*
X39995057Y-56713600D01*
X40161903Y-56680413D01*
X40319068Y-56615313D01*
X40460513Y-56520802D01*
X40570000Y-56411315D01*
X40639487Y-56480802D01*
X40780932Y-56575313D01*
X40938097Y-56640413D01*
X41104943Y-56673600D01*
X41275057Y-56673600D01*
X41441903Y-56640413D01*
X41599068Y-56575313D01*
X41740513Y-56480802D01*
X41840000Y-56381315D01*
X41939487Y-56480802D01*
X42080932Y-56575313D01*
X42238097Y-56640413D01*
X42404943Y-56673600D01*
X42575057Y-56673600D01*
X42741903Y-56640413D01*
X42899068Y-56575313D01*
X43040513Y-56480802D01*
X43160802Y-56360513D01*
X43255313Y-56219068D01*
X43320413Y-56061903D01*
X43353600Y-55895057D01*
X43353600Y-55724943D01*
X43320413Y-55558097D01*
X43255313Y-55400932D01*
X43160802Y-55259487D01*
X43040513Y-55139198D01*
X42899068Y-55044687D01*
X42741903Y-54979587D01*
X42575057Y-54946400D01*
X42404943Y-54946400D01*
X42238097Y-54979587D01*
X42080932Y-55044687D01*
X41939487Y-55139198D01*
X41840000Y-55238685D01*
X41740513Y-55139198D01*
X41599068Y-55044687D01*
X41441903Y-54979587D01*
X41275057Y-54946400D01*
X41104943Y-54946400D01*
X40938097Y-54979587D01*
X40780932Y-55044687D01*
X40639487Y-55139198D01*
X40530000Y-55248685D01*
X40501315Y-55220000D01*
X40610802Y-55110513D01*
X40705313Y-54969068D01*
X40770413Y-54811903D01*
X40803600Y-54645057D01*
X40803600Y-54474943D01*
X40770413Y-54308097D01*
X40716340Y-54177553D01*
X40868097Y-54240413D01*
X41034943Y-54273600D01*
X41205057Y-54273600D01*
X41371903Y-54240413D01*
X41529068Y-54175313D01*
X41670513Y-54080802D01*
X41790802Y-53960513D01*
X41885313Y-53819068D01*
X41950413Y-53661903D01*
X41983600Y-53495057D01*
X41983600Y-53324943D01*
X41950413Y-53158097D01*
X41885313Y-53000932D01*
X41790802Y-52859487D01*
X41670513Y-52739198D01*
X41529068Y-52644687D01*
X41371903Y-52579587D01*
X41205057Y-52546400D01*
X41034943Y-52546400D01*
X40868097Y-52579587D01*
X40710932Y-52644687D01*
X40569487Y-52739198D01*
X40530000Y-52778685D01*
X40440513Y-52689198D01*
X40299068Y-52594687D01*
X40141903Y-52529587D01*
X39975057Y-52496400D01*
X39804943Y-52496400D01*
X39638097Y-52529587D01*
X39480932Y-52594687D01*
X39339487Y-52689198D01*
X39219198Y-52809487D01*
X39124687Y-52950932D01*
X39059587Y-53108097D01*
X39026400Y-53274943D01*
X39026400Y-53445057D01*
X39059587Y-53611903D01*
X39124687Y-53769068D01*
X39139026Y-53790527D01*
X38991903Y-53729587D01*
X38825057Y-53696400D01*
X38654943Y-53696400D01*
X38488097Y-53729587D01*
X38330932Y-53794687D01*
X38189487Y-53889198D01*
X38069198Y-54009487D01*
X37974687Y-54150932D01*
X37909587Y-54308097D01*
X37876400Y-54474943D01*
X25761925Y-54474943D01*
X25803684Y-54374129D01*
X25806262Y-54361171D01*
X27941934Y-52225500D01*
X48343853Y-52225500D01*
X48354838Y-52232840D01*
X48525871Y-52303684D01*
X48707438Y-52339800D01*
X48892562Y-52339800D01*
X49074129Y-52303684D01*
X49245162Y-52232840D01*
X49399087Y-52129990D01*
X49471348Y-52057729D01*
X52958592Y-55544973D01*
X52940200Y-55637438D01*
X52940200Y-55822562D01*
X52976316Y-56004129D01*
X53047160Y-56175162D01*
X53150010Y-56329087D01*
X53280913Y-56459990D01*
X53434838Y-56562840D01*
X53605871Y-56633684D01*
X53704304Y-56653264D01*
X52683068Y-57674500D01*
X50400550Y-57674500D01*
X50359999Y-57670506D01*
X50319449Y-57674500D01*
X50319447Y-57674500D01*
X50198174Y-57686444D01*
X50042566Y-57733647D01*
X49899157Y-57810301D01*
X49837622Y-57860802D01*
X49773459Y-57913459D01*
X49747608Y-57944959D01*
X49700352Y-57992215D01*
X49654840Y-57882338D01*
X49551990Y-57728413D01*
X49421087Y-57597510D01*
X49267162Y-57494660D01*
X49096129Y-57423816D01*
X48914562Y-57387700D01*
X48729438Y-57387700D01*
X48547871Y-57423816D01*
X48376838Y-57494660D01*
X48222913Y-57597510D01*
X48092010Y-57728413D01*
X47989160Y-57882338D01*
X47918316Y-58053371D01*
X47882200Y-58234938D01*
X47882200Y-58420062D01*
X47918316Y-58601629D01*
X47989160Y-58772662D01*
X48092010Y-58926587D01*
X48222913Y-59057490D01*
X48376838Y-59160340D01*
X48486715Y-59205853D01*
X48238068Y-59454500D01*
X46543764Y-59454500D01*
X46531903Y-59449587D01*
X46365057Y-59416400D01*
X46194943Y-59416400D01*
X46028097Y-59449587D01*
X45870932Y-59514687D01*
X45729487Y-59609198D01*
X45609198Y-59729487D01*
X45514687Y-59870932D01*
X45449587Y-60028097D01*
X45416400Y-60194943D01*
X45416400Y-60365057D01*
X45449587Y-60531903D01*
X45514687Y-60689068D01*
X45609198Y-60830513D01*
X45729487Y-60950802D01*
X45870932Y-61045313D01*
X46028097Y-61110413D01*
X46194943Y-61143600D01*
X46365057Y-61143600D01*
X46531903Y-61110413D01*
X46543764Y-61105500D01*
X48539450Y-61105500D01*
X48580000Y-61109494D01*
X48620550Y-61105500D01*
X48620553Y-61105500D01*
X48741826Y-61093556D01*
X48897434Y-61046353D01*
X49040842Y-60969699D01*
X49166541Y-60866541D01*
X49192398Y-60835034D01*
X50701933Y-59325500D01*
X51911312Y-59325500D01*
X51812312Y-59424500D01*
X51603764Y-59424500D01*
X51591903Y-59419587D01*
X51425057Y-59386400D01*
X51254943Y-59386400D01*
X51088097Y-59419587D01*
X50930932Y-59484687D01*
X50789487Y-59579198D01*
X50669198Y-59699487D01*
X50574687Y-59840932D01*
X50509587Y-59998097D01*
X50476400Y-60164943D01*
X50476400Y-60335057D01*
X50509587Y-60501903D01*
X50574687Y-60659068D01*
X50669198Y-60800513D01*
X50789487Y-60920802D01*
X50930932Y-61015313D01*
X51088097Y-61080413D01*
X51254943Y-61113600D01*
X51425057Y-61113600D01*
X51591903Y-61080413D01*
X51603764Y-61075500D01*
X52113694Y-61075500D01*
X52154244Y-61079494D01*
X52194794Y-61075500D01*
X52194797Y-61075500D01*
X52316070Y-61063556D01*
X52471678Y-61016353D01*
X52615086Y-60939699D01*
X52740785Y-60836541D01*
X52766642Y-60805034D01*
X52776733Y-60794943D01*
X54036400Y-60794943D01*
X54036400Y-60965057D01*
X54069587Y-61131903D01*
X54134687Y-61289068D01*
X54229198Y-61430513D01*
X54349487Y-61550802D01*
X54490932Y-61645313D01*
X54648097Y-61710413D01*
X54814943Y-61743600D01*
X54985057Y-61743600D01*
X55151903Y-61710413D01*
X55309068Y-61645313D01*
X55450513Y-61550802D01*
X55570802Y-61430513D01*
X55576063Y-61422638D01*
X58855000Y-61422638D01*
X58855000Y-61607762D01*
X58891116Y-61789329D01*
X58961960Y-61960362D01*
X59064810Y-62114287D01*
X59100723Y-62150200D01*
X59064810Y-62186113D01*
X58961960Y-62340038D01*
X58891116Y-62511071D01*
X58855000Y-62692638D01*
X58855000Y-62877762D01*
X58891116Y-63059329D01*
X58961960Y-63230362D01*
X59064810Y-63384287D01*
X59075323Y-63394800D01*
X59064810Y-63405313D01*
X58961960Y-63559238D01*
X58891116Y-63730271D01*
X58855000Y-63911838D01*
X58855000Y-64096962D01*
X58891116Y-64278529D01*
X58961960Y-64449562D01*
X59064810Y-64603487D01*
X59195713Y-64734390D01*
X59349638Y-64837240D01*
X59520671Y-64908084D01*
X59702238Y-64944200D01*
X59887362Y-64944200D01*
X60068929Y-64908084D01*
X60125000Y-64884859D01*
X60181071Y-64908084D01*
X60362638Y-64944200D01*
X60547762Y-64944200D01*
X60729329Y-64908084D01*
X60785400Y-64884859D01*
X60841471Y-64908084D01*
X61023038Y-64944200D01*
X61208162Y-64944200D01*
X61389729Y-64908084D01*
X61560762Y-64837240D01*
X61714687Y-64734390D01*
X61845590Y-64603487D01*
X61948440Y-64449562D01*
X62019284Y-64278529D01*
X62055400Y-64096962D01*
X62055400Y-63911838D01*
X62019284Y-63730271D01*
X61948440Y-63559238D01*
X61845590Y-63405313D01*
X61835077Y-63394800D01*
X61845590Y-63384287D01*
X61948440Y-63230362D01*
X62019284Y-63059329D01*
X62055400Y-62877762D01*
X62055400Y-62692638D01*
X62019284Y-62511071D01*
X61948714Y-62340700D01*
X65177177Y-62340700D01*
X65241408Y-62495768D01*
X65335919Y-62637213D01*
X65456208Y-62757502D01*
X65597653Y-62852013D01*
X65754818Y-62917113D01*
X65921664Y-62950300D01*
X66091778Y-62950300D01*
X66258624Y-62917113D01*
X66415789Y-62852013D01*
X66557234Y-62757502D01*
X66677523Y-62637213D01*
X66772034Y-62495768D01*
X66824349Y-62369470D01*
X67408410Y-62953532D01*
X67408410Y-63734414D01*
X67251903Y-63669587D01*
X67085057Y-63636400D01*
X66914943Y-63636400D01*
X66748097Y-63669587D01*
X66590932Y-63734687D01*
X66449487Y-63829198D01*
X66329198Y-63949487D01*
X66234687Y-64090932D01*
X66169587Y-64248097D01*
X66136400Y-64414943D01*
X66136400Y-64585057D01*
X66169587Y-64751903D01*
X66234687Y-64909068D01*
X66329198Y-65050513D01*
X66449487Y-65170802D01*
X66590932Y-65265313D01*
X66748097Y-65330413D01*
X66914943Y-65363600D01*
X67085057Y-65363600D01*
X67251903Y-65330413D01*
X67408410Y-65265585D01*
X67408411Y-73424156D01*
X63056490Y-77776077D01*
X63022840Y-77694838D01*
X62919990Y-77540913D01*
X62789087Y-77410010D01*
X62635162Y-77307160D01*
X62464129Y-77236316D01*
X62282562Y-77200200D01*
X62097438Y-77200200D01*
X61915871Y-77236316D01*
X61744838Y-77307160D01*
X61590913Y-77410010D01*
X61460010Y-77540913D01*
X61357160Y-77694838D01*
X61286316Y-77865871D01*
X61250200Y-78047438D01*
X61250200Y-78232562D01*
X61286316Y-78414129D01*
X61357160Y-78585162D01*
X61460010Y-78739087D01*
X61590913Y-78869990D01*
X61744838Y-78972840D01*
X61915871Y-79043684D01*
X62097438Y-79079800D01*
X62274500Y-79079800D01*
X62274500Y-79543853D01*
X62267160Y-79554838D01*
X62196316Y-79725871D01*
X62160200Y-79907438D01*
X62160200Y-80092562D01*
X62196316Y-80274129D01*
X62227743Y-80350000D01*
X62196316Y-80425871D01*
X62160200Y-80607438D01*
X62160200Y-80792562D01*
X62196316Y-80974129D01*
X62227743Y-81050000D01*
X62196316Y-81125871D01*
X62160200Y-81307438D01*
X62160200Y-81492562D01*
X62196316Y-81674129D01*
X62227743Y-81750000D01*
X62196316Y-81825871D01*
X62160200Y-82007438D01*
X62160200Y-82192562D01*
X62196316Y-82374129D01*
X62267160Y-82545162D01*
X62370010Y-82699087D01*
X62500913Y-82829990D01*
X62654838Y-82932840D01*
X62825871Y-83003684D01*
X63007438Y-83039800D01*
X63192562Y-83039800D01*
X63374129Y-83003684D01*
X63545162Y-82932840D01*
X63699087Y-82829990D01*
X63829990Y-82699087D01*
X63932840Y-82545162D01*
X64003684Y-82374129D01*
X64039800Y-82192562D01*
X64039800Y-82007438D01*
X64003684Y-81825871D01*
X63972257Y-81750000D01*
X64003684Y-81674129D01*
X64039800Y-81492562D01*
X64039800Y-81307438D01*
X64003684Y-81125871D01*
X63972257Y-81050000D01*
X64003684Y-80974129D01*
X64039800Y-80792562D01*
X64039800Y-80607438D01*
X64003684Y-80425871D01*
X63972257Y-80350000D01*
X64003684Y-80274129D01*
X64039800Y-80092562D01*
X64039800Y-79907438D01*
X64035326Y-79884943D01*
X67066400Y-79884943D01*
X67066400Y-80055057D01*
X67099587Y-80221903D01*
X67164687Y-80379068D01*
X67259198Y-80520513D01*
X67379487Y-80640802D01*
X67520932Y-80735313D01*
X67678097Y-80800413D01*
X67844943Y-80833600D01*
X68015057Y-80833600D01*
X68181903Y-80800413D01*
X68339068Y-80735313D01*
X68480513Y-80640802D01*
X68600802Y-80520513D01*
X68695313Y-80379068D01*
X68760413Y-80221903D01*
X68793600Y-80055057D01*
X68793600Y-79884943D01*
X68760413Y-79718097D01*
X68695313Y-79560932D01*
X68600802Y-79419487D01*
X68480513Y-79299198D01*
X68339068Y-79204687D01*
X68181903Y-79139587D01*
X68015057Y-79106400D01*
X67844943Y-79106400D01*
X67678097Y-79139587D01*
X67520932Y-79204687D01*
X67379487Y-79299198D01*
X67259198Y-79419487D01*
X67164687Y-79560932D01*
X67099587Y-79718097D01*
X67066400Y-79884943D01*
X64035326Y-79884943D01*
X64003684Y-79725871D01*
X63932840Y-79554838D01*
X63925500Y-79543853D01*
X63925500Y-79241932D01*
X65452489Y-77714943D01*
X70236400Y-77714943D01*
X70236400Y-77885057D01*
X70269587Y-78051903D01*
X70334687Y-78209068D01*
X70429198Y-78350513D01*
X70549487Y-78470802D01*
X70690932Y-78565313D01*
X70848097Y-78630413D01*
X71014943Y-78663600D01*
X71185057Y-78663600D01*
X71351903Y-78630413D01*
X71509068Y-78565313D01*
X71650513Y-78470802D01*
X71770802Y-78350513D01*
X71865313Y-78209068D01*
X71930413Y-78051903D01*
X71963600Y-77885057D01*
X71963600Y-77820000D01*
X74886928Y-77820000D01*
X74886928Y-78670000D01*
X74899188Y-78794482D01*
X74935498Y-78914180D01*
X74994463Y-79024494D01*
X75073815Y-79121185D01*
X75170506Y-79200537D01*
X75280820Y-79259502D01*
X75400518Y-79295812D01*
X75525000Y-79308072D01*
X76375000Y-79308072D01*
X76499482Y-79295812D01*
X76619180Y-79259502D01*
X76729494Y-79200537D01*
X76826185Y-79121185D01*
X76905537Y-79024494D01*
X76964502Y-78914180D01*
X77000812Y-78794482D01*
X77013072Y-78670000D01*
X77013072Y-77900000D01*
X77936928Y-77900000D01*
X77936928Y-78750000D01*
X77949188Y-78874482D01*
X77985498Y-78994180D01*
X78044463Y-79104494D01*
X78123815Y-79201185D01*
X78220506Y-79280537D01*
X78330820Y-79339502D01*
X78450518Y-79375812D01*
X78575000Y-79388072D01*
X79425000Y-79388072D01*
X79549482Y-79375812D01*
X79669180Y-79339502D01*
X79779494Y-79280537D01*
X79876185Y-79201185D01*
X79955537Y-79104494D01*
X80014502Y-78994180D01*
X80050812Y-78874482D01*
X80063072Y-78750000D01*
X80063072Y-77900000D01*
X80050812Y-77775518D01*
X80014502Y-77655820D01*
X79955537Y-77545506D01*
X79876185Y-77448815D01*
X79779494Y-77369463D01*
X79669180Y-77310498D01*
X79549482Y-77274188D01*
X79425000Y-77261928D01*
X78575000Y-77261928D01*
X78450518Y-77274188D01*
X78330820Y-77310498D01*
X78220506Y-77369463D01*
X78123815Y-77448815D01*
X78044463Y-77545506D01*
X77985498Y-77655820D01*
X77949188Y-77775518D01*
X77936928Y-77900000D01*
X77013072Y-77900000D01*
X77013072Y-77820000D01*
X77000812Y-77695518D01*
X76964502Y-77575820D01*
X76905537Y-77465506D01*
X76826185Y-77368815D01*
X76729494Y-77289463D01*
X76619180Y-77230498D01*
X76499482Y-77194188D01*
X76375000Y-77181928D01*
X75525000Y-77181928D01*
X75400518Y-77194188D01*
X75280820Y-77230498D01*
X75170506Y-77289463D01*
X75073815Y-77368815D01*
X74994463Y-77465506D01*
X74935498Y-77575820D01*
X74899188Y-77695518D01*
X74886928Y-77820000D01*
X71963600Y-77820000D01*
X71963600Y-77714943D01*
X71930413Y-77548097D01*
X71865313Y-77390932D01*
X71770802Y-77249487D01*
X71650513Y-77129198D01*
X71509068Y-77034687D01*
X71351903Y-76969587D01*
X71185057Y-76936400D01*
X71014943Y-76936400D01*
X70848097Y-76969587D01*
X70690932Y-77034687D01*
X70549487Y-77129198D01*
X70429198Y-77249487D01*
X70334687Y-77390932D01*
X70269587Y-77548097D01*
X70236400Y-77714943D01*
X65452489Y-77714943D01*
X68788950Y-74378483D01*
X68820451Y-74352631D01*
X68889826Y-74268097D01*
X68923609Y-74226933D01*
X69000263Y-74083524D01*
X69006926Y-74061560D01*
X69047466Y-73927916D01*
X69059410Y-73806643D01*
X69059410Y-73806641D01*
X69063404Y-73766091D01*
X69059410Y-73725540D01*
X69059410Y-66414943D01*
X70886400Y-66414943D01*
X70886400Y-66585057D01*
X70919587Y-66751903D01*
X70984687Y-66909068D01*
X71079198Y-67050513D01*
X71199487Y-67170802D01*
X71340932Y-67265313D01*
X71498097Y-67330413D01*
X71664943Y-67363600D01*
X71835057Y-67363600D01*
X72001903Y-67330413D01*
X72159068Y-67265313D01*
X72300513Y-67170802D01*
X72420802Y-67050513D01*
X72515313Y-66909068D01*
X72580413Y-66751903D01*
X72613600Y-66585057D01*
X72613600Y-66414943D01*
X72580413Y-66248097D01*
X72515313Y-66090932D01*
X72420802Y-65949487D01*
X72300513Y-65829198D01*
X72159068Y-65734687D01*
X72001903Y-65669587D01*
X71835057Y-65636400D01*
X71664943Y-65636400D01*
X71498097Y-65669587D01*
X71340932Y-65734687D01*
X71199487Y-65829198D01*
X71079198Y-65949487D01*
X70984687Y-66090932D01*
X70919587Y-66248097D01*
X70886400Y-66414943D01*
X69059410Y-66414943D01*
X69059410Y-62664943D01*
X69136400Y-62664943D01*
X69136400Y-62835057D01*
X69169587Y-63001903D01*
X69234687Y-63159068D01*
X69329198Y-63300513D01*
X69449487Y-63420802D01*
X69590932Y-63515313D01*
X69748097Y-63580413D01*
X69914943Y-63613600D01*
X70085057Y-63613600D01*
X70251903Y-63580413D01*
X70409068Y-63515313D01*
X70550513Y-63420802D01*
X70670802Y-63300513D01*
X70765313Y-63159068D01*
X70830413Y-63001903D01*
X70863600Y-62835057D01*
X70863600Y-62664943D01*
X70830413Y-62498097D01*
X70795970Y-62414943D01*
X76636400Y-62414943D01*
X76636400Y-62585057D01*
X76669587Y-62751903D01*
X76734687Y-62909068D01*
X76829198Y-63050513D01*
X76949487Y-63170802D01*
X77090932Y-63265313D01*
X77248097Y-63330413D01*
X77414943Y-63363600D01*
X77585057Y-63363600D01*
X77751903Y-63330413D01*
X77909068Y-63265313D01*
X78050513Y-63170802D01*
X78170802Y-63050513D01*
X78265313Y-62909068D01*
X78330413Y-62751903D01*
X78363600Y-62585057D01*
X78363600Y-62414943D01*
X78330413Y-62248097D01*
X78265313Y-62090932D01*
X78170802Y-61949487D01*
X78050513Y-61829198D01*
X77909068Y-61734687D01*
X77751903Y-61669587D01*
X77585057Y-61636400D01*
X77414943Y-61636400D01*
X77248097Y-61669587D01*
X77090932Y-61734687D01*
X76949487Y-61829198D01*
X76829198Y-61949487D01*
X76734687Y-62090932D01*
X76669587Y-62248097D01*
X76636400Y-62414943D01*
X70795970Y-62414943D01*
X70765313Y-62340932D01*
X70670802Y-62199487D01*
X70550513Y-62079198D01*
X70409068Y-61984687D01*
X70251903Y-61919587D01*
X70085057Y-61886400D01*
X69914943Y-61886400D01*
X69748097Y-61919587D01*
X69590932Y-61984687D01*
X69449487Y-62079198D01*
X69329198Y-62199487D01*
X69234687Y-62340932D01*
X69169587Y-62498097D01*
X69136400Y-62664943D01*
X69059410Y-62664943D01*
X69059410Y-62652141D01*
X69063403Y-62611598D01*
X69059410Y-62571055D01*
X69059410Y-62571046D01*
X69047466Y-62449773D01*
X69000263Y-62294165D01*
X68923609Y-62150757D01*
X68820451Y-62025058D01*
X68788950Y-61999206D01*
X68623805Y-61834061D01*
X68669068Y-61815313D01*
X68810513Y-61720802D01*
X68930802Y-61600513D01*
X69025313Y-61459068D01*
X69090413Y-61301903D01*
X69123600Y-61135057D01*
X69123600Y-60964943D01*
X69090413Y-60798097D01*
X69025313Y-60640932D01*
X68930802Y-60499487D01*
X68810513Y-60379198D01*
X68669068Y-60284687D01*
X68511903Y-60219587D01*
X68345057Y-60186400D01*
X68174943Y-60186400D01*
X68008097Y-60219587D01*
X67850932Y-60284687D01*
X67709487Y-60379198D01*
X67589198Y-60499487D01*
X67494687Y-60640932D01*
X67450540Y-60747511D01*
X67299337Y-60701644D01*
X67178064Y-60689700D01*
X67178061Y-60689700D01*
X67137511Y-60685706D01*
X67096961Y-60689700D01*
X61571747Y-60689700D01*
X61560762Y-60682360D01*
X61389729Y-60611516D01*
X61208162Y-60575400D01*
X61023038Y-60575400D01*
X60841471Y-60611516D01*
X60785400Y-60634741D01*
X60729329Y-60611516D01*
X60547762Y-60575400D01*
X60362638Y-60575400D01*
X60181071Y-60611516D01*
X60125000Y-60634741D01*
X60068929Y-60611516D01*
X59887362Y-60575400D01*
X59702238Y-60575400D01*
X59520671Y-60611516D01*
X59349638Y-60682360D01*
X59195713Y-60785210D01*
X59064810Y-60916113D01*
X58961960Y-61070038D01*
X58891116Y-61241071D01*
X58855000Y-61422638D01*
X55576063Y-61422638D01*
X55665313Y-61289068D01*
X55730413Y-61131903D01*
X55763600Y-60965057D01*
X55763600Y-60794943D01*
X55730413Y-60628097D01*
X55665313Y-60470932D01*
X55570802Y-60329487D01*
X55450513Y-60209198D01*
X55309068Y-60114687D01*
X55151903Y-60049587D01*
X54985057Y-60016400D01*
X54814943Y-60016400D01*
X54648097Y-60049587D01*
X54490932Y-60114687D01*
X54349487Y-60209198D01*
X54229198Y-60329487D01*
X54134687Y-60470932D01*
X54069587Y-60628097D01*
X54036400Y-60794943D01*
X52776733Y-60794943D01*
X58546733Y-55024943D01*
X59876400Y-55024943D01*
X59876400Y-55195057D01*
X59909587Y-55361903D01*
X59974687Y-55519068D01*
X59978651Y-55525000D01*
X59974687Y-55530932D01*
X59909587Y-55688097D01*
X59876400Y-55854943D01*
X59876400Y-56025057D01*
X59909587Y-56191903D01*
X59923296Y-56225000D01*
X59909587Y-56258097D01*
X59876400Y-56424943D01*
X59876400Y-56595057D01*
X59909587Y-56761903D01*
X59946078Y-56850000D01*
X59909587Y-56938097D01*
X59876400Y-57104943D01*
X59876400Y-57275057D01*
X59909587Y-57441903D01*
X59974687Y-57599068D01*
X60069198Y-57740513D01*
X60189487Y-57860802D01*
X60330932Y-57955313D01*
X60488097Y-58020413D01*
X60654943Y-58053600D01*
X60825057Y-58053600D01*
X60991903Y-58020413D01*
X61149068Y-57955313D01*
X61290513Y-57860802D01*
X61410802Y-57740513D01*
X61505313Y-57599068D01*
X61570413Y-57441903D01*
X61603600Y-57275057D01*
X61603600Y-57104943D01*
X61570413Y-56938097D01*
X61533922Y-56850000D01*
X61570413Y-56761903D01*
X61603600Y-56595057D01*
X61603600Y-56424943D01*
X61570413Y-56258097D01*
X61556704Y-56225000D01*
X61570413Y-56191903D01*
X61603600Y-56025057D01*
X61603600Y-55854943D01*
X61570413Y-55688097D01*
X61505313Y-55530932D01*
X61501349Y-55525000D01*
X61505313Y-55519068D01*
X61570413Y-55361903D01*
X61603600Y-55195057D01*
X61603600Y-55024943D01*
X61570413Y-54858097D01*
X61505313Y-54700932D01*
X61410802Y-54559487D01*
X61290513Y-54439198D01*
X61149068Y-54344687D01*
X60991903Y-54279587D01*
X60825057Y-54246400D01*
X60654943Y-54246400D01*
X60488097Y-54279587D01*
X60330932Y-54344687D01*
X60189487Y-54439198D01*
X60069198Y-54559487D01*
X59974687Y-54700932D01*
X59909587Y-54858097D01*
X59876400Y-55024943D01*
X58546733Y-55024943D01*
X63110733Y-50460943D01*
X69240400Y-50460943D01*
X69240400Y-50631057D01*
X69273587Y-50797903D01*
X69338687Y-50955068D01*
X69433198Y-51096513D01*
X69553487Y-51216802D01*
X69694932Y-51311313D01*
X69852097Y-51376413D01*
X70018943Y-51409600D01*
X70189057Y-51409600D01*
X70355903Y-51376413D01*
X70513068Y-51311313D01*
X70654513Y-51216802D01*
X70774802Y-51096513D01*
X70869313Y-50955068D01*
X70934413Y-50797903D01*
X70967600Y-50631057D01*
X70967600Y-50460943D01*
X70934413Y-50294097D01*
X70869313Y-50136932D01*
X70774802Y-49995487D01*
X70654513Y-49875198D01*
X70513068Y-49780687D01*
X70355903Y-49715587D01*
X70189057Y-49682400D01*
X70018943Y-49682400D01*
X69852097Y-49715587D01*
X69694932Y-49780687D01*
X69553487Y-49875198D01*
X69433198Y-49995487D01*
X69338687Y-50136932D01*
X69273587Y-50294097D01*
X69240400Y-50460943D01*
X63110733Y-50460943D01*
X63307340Y-50264337D01*
X63338840Y-50238486D01*
X63428564Y-50129157D01*
X63441998Y-50112788D01*
X63518652Y-49969379D01*
X63532857Y-49922550D01*
X63565855Y-49813771D01*
X63577799Y-49692498D01*
X63577799Y-49692496D01*
X63581793Y-49651946D01*
X63577799Y-49611395D01*
X63577799Y-37831035D01*
X66574501Y-34834334D01*
X66574500Y-39759449D01*
X66570506Y-39800000D01*
X66574500Y-39840550D01*
X66574500Y-39840552D01*
X66586444Y-39961825D01*
X66601612Y-40011826D01*
X66633647Y-40117433D01*
X66710301Y-40260842D01*
X66744214Y-40302165D01*
X66813459Y-40386541D01*
X66844966Y-40412398D01*
X66944959Y-40512392D01*
X66944964Y-40512396D01*
X69024500Y-42591933D01*
X69024501Y-43092066D01*
X68935600Y-43180967D01*
X68935600Y-43094943D01*
X68902413Y-42928097D01*
X68837313Y-42770932D01*
X68742802Y-42629487D01*
X68622513Y-42509198D01*
X68481068Y-42414687D01*
X68323903Y-42349587D01*
X68157057Y-42316400D01*
X67986943Y-42316400D01*
X67820097Y-42349587D01*
X67662932Y-42414687D01*
X67521487Y-42509198D01*
X67401198Y-42629487D01*
X67306687Y-42770932D01*
X67241587Y-42928097D01*
X67208400Y-43094943D01*
X67208400Y-43265057D01*
X67241587Y-43431903D01*
X67306687Y-43589068D01*
X67401198Y-43730513D01*
X67521487Y-43850802D01*
X67662932Y-43945313D01*
X67820097Y-44010413D01*
X67986943Y-44043600D01*
X68072968Y-44043600D01*
X67166795Y-44949773D01*
X67154932Y-44954687D01*
X67013487Y-45049198D01*
X66893198Y-45169487D01*
X66802000Y-45305974D01*
X66710802Y-45169487D01*
X66590513Y-45049198D01*
X66449068Y-44954687D01*
X66291903Y-44889587D01*
X66125057Y-44856400D01*
X65954943Y-44856400D01*
X65788097Y-44889587D01*
X65630932Y-44954687D01*
X65489487Y-45049198D01*
X65369198Y-45169487D01*
X65274687Y-45310932D01*
X65209587Y-45468097D01*
X65176400Y-45634943D01*
X65176400Y-45805057D01*
X65209587Y-45971903D01*
X65274687Y-46129068D01*
X65369198Y-46270513D01*
X65489487Y-46390802D01*
X65630932Y-46485313D01*
X65788097Y-46550413D01*
X65954943Y-46583600D01*
X66125057Y-46583600D01*
X66291903Y-46550413D01*
X66449068Y-46485313D01*
X66590513Y-46390802D01*
X66710802Y-46270513D01*
X66802000Y-46134026D01*
X66893198Y-46270513D01*
X67013487Y-46390802D01*
X67154932Y-46485313D01*
X67312097Y-46550413D01*
X67478943Y-46583600D01*
X67649057Y-46583600D01*
X67815903Y-46550413D01*
X67973068Y-46485313D01*
X68114513Y-46390802D01*
X68234802Y-46270513D01*
X68329313Y-46129068D01*
X68334227Y-46117205D01*
X68906489Y-45544943D01*
X71846400Y-45544943D01*
X71846400Y-45715057D01*
X71879587Y-45881903D01*
X71944687Y-46039068D01*
X72039198Y-46180513D01*
X72159487Y-46300802D01*
X72300932Y-46395313D01*
X72458097Y-46460413D01*
X72624943Y-46493600D01*
X72795057Y-46493600D01*
X72961903Y-46460413D01*
X73119068Y-46395313D01*
X73260513Y-46300802D01*
X73380802Y-46180513D01*
X73475313Y-46039068D01*
X73540413Y-45881903D01*
X73573600Y-45715057D01*
X73573600Y-45544943D01*
X73540413Y-45378097D01*
X73475313Y-45220932D01*
X73380802Y-45079487D01*
X73260513Y-44959198D01*
X73119068Y-44864687D01*
X72961903Y-44799587D01*
X72795057Y-44766400D01*
X72624943Y-44766400D01*
X72458097Y-44799587D01*
X72300932Y-44864687D01*
X72159487Y-44959198D01*
X72039198Y-45079487D01*
X71944687Y-45220932D01*
X71879587Y-45378097D01*
X71846400Y-45544943D01*
X68906489Y-45544943D01*
X70405039Y-44046394D01*
X70436541Y-44020541D01*
X70498279Y-43945313D01*
X70539699Y-43894843D01*
X70573341Y-43831903D01*
X70616353Y-43751434D01*
X70663556Y-43595826D01*
X70673491Y-43494943D01*
X71846400Y-43494943D01*
X71846400Y-43665057D01*
X71879587Y-43831903D01*
X71944687Y-43989068D01*
X72039198Y-44130513D01*
X72159487Y-44250802D01*
X72300932Y-44345313D01*
X72458097Y-44410413D01*
X72624943Y-44443600D01*
X72795057Y-44443600D01*
X72961903Y-44410413D01*
X73119068Y-44345313D01*
X73260513Y-44250802D01*
X73380802Y-44130513D01*
X73475313Y-43989068D01*
X73540413Y-43831903D01*
X73573600Y-43665057D01*
X73573600Y-43494943D01*
X73540413Y-43328097D01*
X73475313Y-43170932D01*
X73380802Y-43029487D01*
X73260513Y-42909198D01*
X73119068Y-42814687D01*
X72961903Y-42749587D01*
X72795057Y-42716400D01*
X72624943Y-42716400D01*
X72458097Y-42749587D01*
X72300932Y-42814687D01*
X72159487Y-42909198D01*
X72039198Y-43029487D01*
X71944687Y-43170932D01*
X71879587Y-43328097D01*
X71846400Y-43494943D01*
X70673491Y-43494943D01*
X70675500Y-43474553D01*
X70675500Y-43474551D01*
X70679494Y-43434001D01*
X70675500Y-43393450D01*
X70675500Y-42290550D01*
X70679494Y-42249999D01*
X70675500Y-42209447D01*
X70663556Y-42088174D01*
X70616353Y-41932566D01*
X70565952Y-41838273D01*
X70539699Y-41789157D01*
X70462391Y-41694958D01*
X70436541Y-41663459D01*
X70405041Y-41637608D01*
X69932376Y-41164943D01*
X71846400Y-41164943D01*
X71846400Y-41335057D01*
X71879587Y-41501903D01*
X71944687Y-41659068D01*
X72039198Y-41800513D01*
X72159487Y-41920802D01*
X72300932Y-42015313D01*
X72458097Y-42080413D01*
X72624943Y-42113600D01*
X72795057Y-42113600D01*
X72961903Y-42080413D01*
X73119068Y-42015313D01*
X73260513Y-41920802D01*
X73380802Y-41800513D01*
X73475313Y-41659068D01*
X73540413Y-41501903D01*
X73573600Y-41335057D01*
X73573600Y-41164943D01*
X73540413Y-40998097D01*
X73475313Y-40840932D01*
X73380802Y-40699487D01*
X73260513Y-40579198D01*
X73119068Y-40484687D01*
X72961903Y-40419587D01*
X72795057Y-40386400D01*
X72624943Y-40386400D01*
X72458097Y-40419587D01*
X72300932Y-40484687D01*
X72159487Y-40579198D01*
X72039198Y-40699487D01*
X71944687Y-40840932D01*
X71879587Y-40998097D01*
X71846400Y-41164943D01*
X69932376Y-41164943D01*
X68225500Y-39458068D01*
X68225500Y-39294943D01*
X71846400Y-39294943D01*
X71846400Y-39465057D01*
X71879587Y-39631903D01*
X71944687Y-39789068D01*
X72039198Y-39930513D01*
X72159487Y-40050802D01*
X72300932Y-40145313D01*
X72458097Y-40210413D01*
X72624943Y-40243600D01*
X72795057Y-40243600D01*
X72961903Y-40210413D01*
X73119068Y-40145313D01*
X73260513Y-40050802D01*
X73380802Y-39930513D01*
X73475313Y-39789068D01*
X73540413Y-39631903D01*
X73573600Y-39465057D01*
X73573600Y-39294943D01*
X73540413Y-39128097D01*
X73475313Y-38970932D01*
X73380802Y-38829487D01*
X73260513Y-38709198D01*
X73119068Y-38614687D01*
X72961903Y-38549587D01*
X72795057Y-38516400D01*
X72624943Y-38516400D01*
X72458097Y-38549587D01*
X72300932Y-38614687D01*
X72159487Y-38709198D01*
X72039198Y-38829487D01*
X71944687Y-38970932D01*
X71879587Y-39128097D01*
X71846400Y-39294943D01*
X68225500Y-39294943D01*
X68225500Y-33491932D01*
X70555046Y-31162388D01*
X70586541Y-31136541D01*
X70612389Y-31105045D01*
X70612392Y-31105042D01*
X70671976Y-31032438D01*
X71277800Y-31032438D01*
X71277800Y-31217562D01*
X71313916Y-31399129D01*
X71384760Y-31570162D01*
X71487610Y-31724087D01*
X71618513Y-31854990D01*
X71772438Y-31957840D01*
X71943471Y-32028684D01*
X72125038Y-32064800D01*
X72310162Y-32064800D01*
X72491729Y-32028684D01*
X72662762Y-31957840D01*
X72816687Y-31854990D01*
X72947590Y-31724087D01*
X73050440Y-31570162D01*
X73121284Y-31399129D01*
X73157400Y-31217562D01*
X73157400Y-31032438D01*
X73121284Y-30850871D01*
X73050440Y-30679838D01*
X72947590Y-30525913D01*
X72816687Y-30395010D01*
X72662762Y-30292160D01*
X72491729Y-30221316D01*
X72310162Y-30185200D01*
X72125038Y-30185200D01*
X71943471Y-30221316D01*
X71772438Y-30292160D01*
X71618513Y-30395010D01*
X71487610Y-30525913D01*
X71384760Y-30679838D01*
X71313916Y-30850871D01*
X71277800Y-31032438D01*
X70671976Y-31032438D01*
X70689699Y-31010843D01*
X70766353Y-30867434D01*
X70800508Y-30754838D01*
X70813556Y-30711826D01*
X70825500Y-30590553D01*
X70825500Y-30590551D01*
X70829494Y-30550000D01*
X70825500Y-30509450D01*
X70825500Y-26956147D01*
X70832840Y-26945162D01*
X70903684Y-26774129D01*
X70939800Y-26592562D01*
X70939800Y-26407438D01*
X70903684Y-26225871D01*
X70832840Y-26054838D01*
X70729990Y-25900913D01*
X70599087Y-25770010D01*
X70445162Y-25667160D01*
X70274129Y-25596316D01*
X70092562Y-25560200D01*
X69907438Y-25560200D01*
X69725871Y-25596316D01*
X69554838Y-25667160D01*
X69400913Y-25770010D01*
X69270010Y-25900913D01*
X69167160Y-26054838D01*
X69096316Y-26225871D01*
X69060200Y-26407438D01*
X69060200Y-26592562D01*
X69096316Y-26774129D01*
X69167160Y-26945162D01*
X69174501Y-26956148D01*
X69174500Y-30208066D01*
X67450000Y-31932568D01*
X67092398Y-31574966D01*
X67066541Y-31543459D01*
X66940842Y-31440301D01*
X66797434Y-31363647D01*
X66641826Y-31316444D01*
X66520553Y-31304500D01*
X66520550Y-31304500D01*
X66480000Y-31300506D01*
X66439450Y-31304500D01*
X60437425Y-31304500D01*
X60439800Y-31292562D01*
X60439800Y-31107438D01*
X60403684Y-30925871D01*
X60332840Y-30754838D01*
X60229990Y-30600913D01*
X60099087Y-30470010D01*
X59945162Y-30367160D01*
X59774129Y-30296316D01*
X59592562Y-30260200D01*
X59407438Y-30260200D01*
X59225871Y-30296316D01*
X59054838Y-30367160D01*
X58900913Y-30470010D01*
X58770010Y-30600913D01*
X58667160Y-30754838D01*
X58596316Y-30925871D01*
X58560200Y-31107438D01*
X58560200Y-31292562D01*
X58596316Y-31474129D01*
X58667160Y-31645162D01*
X58674500Y-31656148D01*
X58674501Y-32089438D01*
X58670506Y-32130000D01*
X58686444Y-32291826D01*
X58733647Y-32447434D01*
X58810301Y-32590842D01*
X58913459Y-32716541D01*
X59039158Y-32819699D01*
X59182566Y-32896353D01*
X59338174Y-32943556D01*
X59459447Y-32955500D01*
X59500000Y-32959494D01*
X59540553Y-32955500D01*
X66118469Y-32955500D01*
X62197260Y-36876710D01*
X62165759Y-36902562D01*
X62139908Y-36934062D01*
X62062600Y-37028261D01*
X61985946Y-37171670D01*
X61938744Y-37327277D01*
X61922805Y-37489103D01*
X61926800Y-37529663D01*
X61926800Y-41247711D01*
X61907438Y-41247711D01*
X61725871Y-41283827D01*
X61554838Y-41354671D01*
X61400913Y-41457521D01*
X61270010Y-41588424D01*
X61167160Y-41742349D01*
X61096316Y-41913382D01*
X61060200Y-42094949D01*
X61060200Y-42280073D01*
X61096316Y-42461640D01*
X61167160Y-42632673D01*
X61174501Y-42643659D01*
X61174500Y-49183066D01*
X54803264Y-55554304D01*
X54783684Y-55455871D01*
X54712840Y-55284838D01*
X54707286Y-55276525D01*
X54702782Y-55230802D01*
X54693556Y-55137122D01*
X54646353Y-54981514D01*
X54620336Y-54932840D01*
X54569699Y-54838105D01*
X54492391Y-54743906D01*
X54466541Y-54712407D01*
X54435040Y-54686555D01*
X49783450Y-50034966D01*
X49757593Y-50003459D01*
X49631894Y-49900301D01*
X49488486Y-49823647D01*
X49332878Y-49776444D01*
X49211605Y-49764500D01*
X49211602Y-49764500D01*
X49171052Y-49760506D01*
X49130502Y-49764500D01*
X46521934Y-49764500D01*
X35654376Y-38896943D01*
X45026400Y-38896943D01*
X45026400Y-39067057D01*
X45059587Y-39233903D01*
X45124687Y-39391068D01*
X45219198Y-39532513D01*
X45339487Y-39652802D01*
X45480932Y-39747313D01*
X45638097Y-39812413D01*
X45804943Y-39845600D01*
X45975057Y-39845600D01*
X46141903Y-39812413D01*
X46299068Y-39747313D01*
X46440513Y-39652802D01*
X46560802Y-39532513D01*
X46655313Y-39391068D01*
X46720413Y-39233903D01*
X46753600Y-39067057D01*
X46753600Y-38896943D01*
X46720413Y-38730097D01*
X46655313Y-38572932D01*
X46560802Y-38431487D01*
X46440513Y-38311198D01*
X46299068Y-38216687D01*
X46141903Y-38151587D01*
X45975057Y-38118400D01*
X45804943Y-38118400D01*
X45638097Y-38151587D01*
X45480932Y-38216687D01*
X45339487Y-38311198D01*
X45219198Y-38431487D01*
X45124687Y-38572932D01*
X45059587Y-38730097D01*
X45026400Y-38896943D01*
X35654376Y-38896943D01*
X34202398Y-37444966D01*
X34176541Y-37413459D01*
X34050842Y-37310301D01*
X33907434Y-37233647D01*
X33751826Y-37186444D01*
X33630553Y-37174500D01*
X33630550Y-37174500D01*
X33590000Y-37170506D01*
X33549450Y-37174500D01*
X29593818Y-37174500D01*
X29587812Y-37113518D01*
X29551502Y-36993820D01*
X29492537Y-36883506D01*
X29413185Y-36786815D01*
X29316494Y-36707463D01*
X29206180Y-36648498D01*
X29086482Y-36612188D01*
X28962000Y-36599928D01*
X27438000Y-36599928D01*
X27313518Y-36612188D01*
X27193820Y-36648498D01*
X27087652Y-36705247D01*
X27342550Y-36450349D01*
X27603560Y-36059721D01*
X27783346Y-35625679D01*
X27875000Y-35164902D01*
X27875000Y-34695098D01*
X27783346Y-34234321D01*
X27603560Y-33800279D01*
X27342550Y-33409651D01*
X27010349Y-33077450D01*
X26619721Y-32816440D01*
X26185679Y-32636654D01*
X25734671Y-32546943D01*
X47312400Y-32546943D01*
X47312400Y-32717057D01*
X47345587Y-32883903D01*
X47410687Y-33041068D01*
X47505198Y-33182513D01*
X47625487Y-33302802D01*
X47766932Y-33397313D01*
X47924097Y-33462413D01*
X48090943Y-33495600D01*
X48261057Y-33495600D01*
X48427903Y-33462413D01*
X48585068Y-33397313D01*
X48726513Y-33302802D01*
X48846802Y-33182513D01*
X48941313Y-33041068D01*
X49006413Y-32883903D01*
X49039600Y-32717057D01*
X49039600Y-32546943D01*
X49006413Y-32380097D01*
X48941313Y-32222932D01*
X48846802Y-32081487D01*
X48726513Y-31961198D01*
X48585068Y-31866687D01*
X48427903Y-31801587D01*
X48261057Y-31768400D01*
X48090943Y-31768400D01*
X47924097Y-31801587D01*
X47766932Y-31866687D01*
X47625487Y-31961198D01*
X47505198Y-32081487D01*
X47410687Y-32222932D01*
X47345587Y-32380097D01*
X47312400Y-32546943D01*
X25734671Y-32546943D01*
X25724902Y-32545000D01*
X25255098Y-32545000D01*
X24794321Y-32636654D01*
X24360279Y-32816440D01*
X23969651Y-33077450D01*
X23637450Y-33409651D01*
X23376440Y-33800279D01*
X23196654Y-34234321D01*
X23105000Y-34695098D01*
X12660000Y-34695098D01*
X12660000Y-29607438D01*
X25660200Y-29607438D01*
X25660200Y-29792562D01*
X25696316Y-29974129D01*
X25767160Y-30145162D01*
X25870010Y-30299087D01*
X26000913Y-30429990D01*
X26154838Y-30532840D01*
X26325871Y-30603684D01*
X26507438Y-30639800D01*
X26692562Y-30639800D01*
X26874129Y-30603684D01*
X27045162Y-30532840D01*
X27199087Y-30429990D01*
X27329990Y-30299087D01*
X27432840Y-30145162D01*
X27503684Y-29974129D01*
X27539800Y-29792562D01*
X27539800Y-29607438D01*
X27503684Y-29425871D01*
X27432840Y-29254838D01*
X27329990Y-29100913D01*
X27199087Y-28970010D01*
X27050824Y-28870943D01*
X31394400Y-28870943D01*
X31394400Y-29041057D01*
X31427587Y-29207903D01*
X31492687Y-29365068D01*
X31587198Y-29506513D01*
X31707487Y-29626802D01*
X31848932Y-29721313D01*
X32006097Y-29786413D01*
X32172943Y-29819600D01*
X32343057Y-29819600D01*
X32509903Y-29786413D01*
X32667068Y-29721313D01*
X32808513Y-29626802D01*
X32928802Y-29506513D01*
X33023313Y-29365068D01*
X33088413Y-29207903D01*
X33121600Y-29041057D01*
X33121600Y-28870943D01*
X33172400Y-28870943D01*
X33172400Y-29041057D01*
X33205587Y-29207903D01*
X33270687Y-29365068D01*
X33365198Y-29506513D01*
X33485487Y-29626802D01*
X33626932Y-29721313D01*
X33784097Y-29786413D01*
X33950943Y-29819600D01*
X34121057Y-29819600D01*
X34287903Y-29786413D01*
X34445068Y-29721313D01*
X34586513Y-29626802D01*
X34671000Y-29542315D01*
X34755487Y-29626802D01*
X34896932Y-29721313D01*
X35054097Y-29786413D01*
X35220943Y-29819600D01*
X35391057Y-29819600D01*
X35557903Y-29786413D01*
X35715068Y-29721313D01*
X35856513Y-29626802D01*
X35976802Y-29506513D01*
X36071313Y-29365068D01*
X36136413Y-29207903D01*
X36169600Y-29041057D01*
X36169600Y-28990943D01*
X46550400Y-28990943D01*
X46550400Y-29161057D01*
X46583587Y-29327903D01*
X46648687Y-29485068D01*
X46743198Y-29626513D01*
X46863487Y-29746802D01*
X47004932Y-29841313D01*
X47162097Y-29906413D01*
X47328943Y-29939600D01*
X47499057Y-29939600D01*
X47665903Y-29906413D01*
X47823068Y-29841313D01*
X47964513Y-29746802D01*
X48084802Y-29626513D01*
X48179313Y-29485068D01*
X48244413Y-29327903D01*
X48277600Y-29161057D01*
X48277600Y-28990943D01*
X48244413Y-28824097D01*
X48179313Y-28666932D01*
X48084802Y-28525487D01*
X47964513Y-28405198D01*
X47823068Y-28310687D01*
X47665903Y-28245587D01*
X47499057Y-28212400D01*
X47328943Y-28212400D01*
X47162097Y-28245587D01*
X47004932Y-28310687D01*
X46863487Y-28405198D01*
X46743198Y-28525487D01*
X46648687Y-28666932D01*
X46583587Y-28824097D01*
X46550400Y-28990943D01*
X36169600Y-28990943D01*
X36169600Y-28870943D01*
X36136413Y-28704097D01*
X36071313Y-28546932D01*
X35976802Y-28405487D01*
X35856513Y-28285198D01*
X35715068Y-28190687D01*
X35557903Y-28125587D01*
X35391057Y-28092400D01*
X35220943Y-28092400D01*
X35054097Y-28125587D01*
X34896932Y-28190687D01*
X34755487Y-28285198D01*
X34671000Y-28369685D01*
X34586513Y-28285198D01*
X34445068Y-28190687D01*
X34287903Y-28125587D01*
X34121057Y-28092400D01*
X33950943Y-28092400D01*
X33784097Y-28125587D01*
X33626932Y-28190687D01*
X33485487Y-28285198D01*
X33365198Y-28405487D01*
X33270687Y-28546932D01*
X33205587Y-28704097D01*
X33172400Y-28870943D01*
X33121600Y-28870943D01*
X33088413Y-28704097D01*
X33023313Y-28546932D01*
X32928802Y-28405487D01*
X32808513Y-28285198D01*
X32667068Y-28190687D01*
X32509903Y-28125587D01*
X32343057Y-28092400D01*
X32172943Y-28092400D01*
X32006097Y-28125587D01*
X31848932Y-28190687D01*
X31707487Y-28285198D01*
X31587198Y-28405487D01*
X31492687Y-28546932D01*
X31427587Y-28704097D01*
X31394400Y-28870943D01*
X27050824Y-28870943D01*
X27045162Y-28867160D01*
X26874129Y-28796316D01*
X26692562Y-28760200D01*
X26507438Y-28760200D01*
X26325871Y-28796316D01*
X26154838Y-28867160D01*
X26000913Y-28970010D01*
X25870010Y-29100913D01*
X25767160Y-29254838D01*
X25696316Y-29425871D01*
X25660200Y-29607438D01*
X12660000Y-29607438D01*
X12660000Y-25024488D01*
X12731439Y-24063158D01*
X12846588Y-23554272D01*
X15697400Y-23554272D01*
X15697400Y-23994528D01*
X15783290Y-24426325D01*
X15951769Y-24833069D01*
X16196362Y-25199129D01*
X16507671Y-25510438D01*
X16873731Y-25755031D01*
X17280475Y-25923510D01*
X17712272Y-26009400D01*
X18152528Y-26009400D01*
X18584325Y-25923510D01*
X18991069Y-25755031D01*
X19357129Y-25510438D01*
X19668438Y-25199129D01*
X19913031Y-24833069D01*
X20081510Y-24426325D01*
X20167400Y-23994528D01*
X20167400Y-23655872D01*
X79197400Y-23655872D01*
X79197400Y-24096128D01*
X79283290Y-24527925D01*
X79451769Y-24934669D01*
X79696362Y-25300729D01*
X80007671Y-25612038D01*
X80373731Y-25856631D01*
X80780475Y-26025110D01*
X81212272Y-26111000D01*
X81652528Y-26111000D01*
X82084325Y-26025110D01*
X82491069Y-25856631D01*
X82857129Y-25612038D01*
X83168438Y-25300729D01*
X83413031Y-24934669D01*
X83581510Y-24527925D01*
X83667400Y-24096128D01*
X83667400Y-23655872D01*
X83581510Y-23224075D01*
X83413031Y-22817331D01*
X83168438Y-22451271D01*
X82857129Y-22139962D01*
X82491069Y-21895369D01*
X82084325Y-21726890D01*
X81652528Y-21641000D01*
X81212272Y-21641000D01*
X80780475Y-21726890D01*
X80373731Y-21895369D01*
X80007671Y-22139962D01*
X79696362Y-22451271D01*
X79451769Y-22817331D01*
X79283290Y-23224075D01*
X79197400Y-23655872D01*
X20167400Y-23655872D01*
X20167400Y-23554272D01*
X20081510Y-23122475D01*
X19913031Y-22715731D01*
X19668438Y-22349671D01*
X19357129Y-22038362D01*
X18991069Y-21793769D01*
X18584325Y-21625290D01*
X18152528Y-21539400D01*
X17712272Y-21539400D01*
X17280475Y-21625290D01*
X16873731Y-21793769D01*
X16507671Y-22038362D01*
X16196362Y-22349671D01*
X15951769Y-22715731D01*
X15783290Y-23122475D01*
X15697400Y-23554272D01*
X12846588Y-23554272D01*
X12938769Y-23146894D01*
X13279252Y-22271343D01*
X13745410Y-21455735D01*
X14327005Y-20717986D01*
X15011251Y-20074311D01*
X15783129Y-19538840D01*
X16625677Y-19123341D01*
X17520376Y-18836946D01*
X18457579Y-18684311D01*
X19014404Y-18660000D01*
X79975512Y-18660000D01*
X80936842Y-18731439D01*
%TD*%
M02*
