%TF.GenerationSoftware,KiCad,Pcbnew,5.1.6-c6e7f7d~86~ubuntu18.04.1*%
%TF.CreationDate,2020-08-04T21:49:05-03:00*%
%TF.ProjectId,pcbproyecto,70636270-726f-4796-9563-746f2e6b6963,rev?*%
%TF.SameCoordinates,Original*%
%TF.FileFunction,Paste,Bot*%
%TF.FilePolarity,Positive*%
%FSLAX46Y46*%
G04 Gerber Fmt 4.6, Leading zero omitted, Abs format (unit mm)*
G04 Created by KiCad (PCBNEW 5.1.6-c6e7f7d~86~ubuntu18.04.1) date 2020-08-04 21:49:05*
%MOMM*%
%LPD*%
G01*
G04 APERTURE LIST*
G04 APERTURE END LIST*
%TO.C,R27*%
G36*
G01*
X69493750Y-67600000D02*
X70006250Y-67600000D01*
G75*
G02*
X70225000Y-67818750I0J-218750D01*
G01*
X70225000Y-68256250D01*
G75*
G02*
X70006250Y-68475000I-218750J0D01*
G01*
X69493750Y-68475000D01*
G75*
G02*
X69275000Y-68256250I0J218750D01*
G01*
X69275000Y-67818750D01*
G75*
G02*
X69493750Y-67600000I218750J0D01*
G01*
G37*
G36*
G01*
X69493750Y-66025000D02*
X70006250Y-66025000D01*
G75*
G02*
X70225000Y-66243750I0J-218750D01*
G01*
X70225000Y-66681250D01*
G75*
G02*
X70006250Y-66900000I-218750J0D01*
G01*
X69493750Y-66900000D01*
G75*
G02*
X69275000Y-66681250I0J218750D01*
G01*
X69275000Y-66243750D01*
G75*
G02*
X69493750Y-66025000I218750J0D01*
G01*
G37*
%TD*%
%TO.C,R26*%
G36*
G01*
X73756250Y-71112500D02*
X73243750Y-71112500D01*
G75*
G02*
X73025000Y-70893750I0J218750D01*
G01*
X73025000Y-70456250D01*
G75*
G02*
X73243750Y-70237500I218750J0D01*
G01*
X73756250Y-70237500D01*
G75*
G02*
X73975000Y-70456250I0J-218750D01*
G01*
X73975000Y-70893750D01*
G75*
G02*
X73756250Y-71112500I-218750J0D01*
G01*
G37*
G36*
G01*
X73756250Y-72687500D02*
X73243750Y-72687500D01*
G75*
G02*
X73025000Y-72468750I0J218750D01*
G01*
X73025000Y-72031250D01*
G75*
G02*
X73243750Y-71812500I218750J0D01*
G01*
X73756250Y-71812500D01*
G75*
G02*
X73975000Y-72031250I0J-218750D01*
G01*
X73975000Y-72468750D01*
G75*
G02*
X73756250Y-72687500I-218750J0D01*
G01*
G37*
%TD*%
%TO.C,R25*%
G36*
G01*
X70006250Y-71150000D02*
X69493750Y-71150000D01*
G75*
G02*
X69275000Y-70931250I0J218750D01*
G01*
X69275000Y-70493750D01*
G75*
G02*
X69493750Y-70275000I218750J0D01*
G01*
X70006250Y-70275000D01*
G75*
G02*
X70225000Y-70493750I0J-218750D01*
G01*
X70225000Y-70931250D01*
G75*
G02*
X70006250Y-71150000I-218750J0D01*
G01*
G37*
G36*
G01*
X70006250Y-72725000D02*
X69493750Y-72725000D01*
G75*
G02*
X69275000Y-72506250I0J218750D01*
G01*
X69275000Y-72068750D01*
G75*
G02*
X69493750Y-71850000I218750J0D01*
G01*
X70006250Y-71850000D01*
G75*
G02*
X70225000Y-72068750I0J-218750D01*
G01*
X70225000Y-72506250D01*
G75*
G02*
X70006250Y-72725000I-218750J0D01*
G01*
G37*
%TD*%
%TO.C,R24*%
G36*
G01*
X70006250Y-75362500D02*
X69493750Y-75362500D01*
G75*
G02*
X69275000Y-75143750I0J218750D01*
G01*
X69275000Y-74706250D01*
G75*
G02*
X69493750Y-74487500I218750J0D01*
G01*
X70006250Y-74487500D01*
G75*
G02*
X70225000Y-74706250I0J-218750D01*
G01*
X70225000Y-75143750D01*
G75*
G02*
X70006250Y-75362500I-218750J0D01*
G01*
G37*
G36*
G01*
X70006250Y-76937500D02*
X69493750Y-76937500D01*
G75*
G02*
X69275000Y-76718750I0J218750D01*
G01*
X69275000Y-76281250D01*
G75*
G02*
X69493750Y-76062500I218750J0D01*
G01*
X70006250Y-76062500D01*
G75*
G02*
X70225000Y-76281250I0J-218750D01*
G01*
X70225000Y-76718750D01*
G75*
G02*
X70006250Y-76937500I-218750J0D01*
G01*
G37*
%TD*%
M02*
