%TF.GenerationSoftware,KiCad,Pcbnew,5.1.6-c6e7f7d~86~ubuntu18.04.1*%
%TF.CreationDate,2020-08-09T14:30:42-03:00*%
%TF.ProjectId,pcbproyecto,70636270-726f-4796-9563-746f2e6b6963,rev?*%
%TF.SameCoordinates,Original*%
%TF.FileFunction,Copper,L3,Inr*%
%TF.FilePolarity,Positive*%
%FSLAX46Y46*%
G04 Gerber Fmt 4.6, Leading zero omitted, Abs format (unit mm)*
G04 Created by KiCad (PCBNEW 5.1.6-c6e7f7d~86~ubuntu18.04.1) date 2020-08-09 14:30:42*
%MOMM*%
%LPD*%
G01*
G04 APERTURE LIST*
%TA.AperFunction,ViaPad*%
%ADD10O,0.850000X0.850000*%
%TD*%
%TA.AperFunction,ViaPad*%
%ADD11R,0.850000X0.850000*%
%TD*%
%TA.AperFunction,ViaPad*%
%ADD12R,3.500000X3.500000*%
%TD*%
%TA.AperFunction,ViaPad*%
%ADD13C,1.524000*%
%TD*%
%TA.AperFunction,ViaPad*%
%ADD14R,1.524000X1.524000*%
%TD*%
%TA.AperFunction,ViaPad*%
%ADD15C,3.500000*%
%TD*%
%TA.AperFunction,ViaPad*%
%ADD16C,0.457200*%
%TD*%
%TA.AperFunction,ViaPad*%
%ADD17C,0.609600*%
%TD*%
%TA.AperFunction,Conductor*%
%ADD18C,0.381000*%
%TD*%
%TA.AperFunction,Conductor*%
%ADD19C,0.254000*%
%TD*%
G04 APERTURE END LIST*
D10*
%TO.N,GND*%
%TO.C,J2*%
X39750000Y-85500000D03*
X39750000Y-86500000D03*
%TO.N,N/C*%
X38750000Y-85500000D03*
%TO.N,VDD_3V3B*%
X38750000Y-86500000D03*
%TO.N,/Peripherals/UART0_TX*%
X37750000Y-85500000D03*
%TO.N,N/C*%
X37750000Y-86500000D03*
%TO.N,/Peripherals/UART0_RX*%
X36750000Y-85500000D03*
%TO.N,N/C*%
X36750000Y-86500000D03*
%TO.N,/Peripherals/SPI0_D0*%
X35750000Y-85500000D03*
%TO.N,N/C*%
X35750000Y-86500000D03*
%TO.N,/Peripherals/SPI0_SCLK*%
X34750000Y-85500000D03*
%TO.N,N/C*%
X34750000Y-86500000D03*
%TO.N,/Peripherals/SPI0_D1*%
X33750000Y-85500000D03*
%TO.N,VDD_5V*%
X33750000Y-86500000D03*
%TO.N,/Peripherals/SPI0_CS0*%
X32750000Y-85500000D03*
D11*
%TO.N,Net-(J2-Pad1)*%
X32750000Y-86500000D03*
%TD*%
%TO.N,Net-(J6-Pad1)*%
%TO.C,J6*%
X78000000Y-73400000D03*
%TD*%
%TO.N,GND*%
%TO.C,J4*%
X78150000Y-76645000D03*
%TD*%
%TO.N,GND*%
%TO.C,J1*%
%TA.AperFunction,ViaPad*%
G36*
G01*
X37875000Y-113850000D02*
X36125000Y-113850000D01*
G75*
G02*
X35250000Y-112975000I0J875000D01*
G01*
X35250000Y-111225000D01*
G75*
G02*
X36125000Y-110350000I875000J0D01*
G01*
X37875000Y-110350000D01*
G75*
G02*
X38750000Y-111225000I0J-875000D01*
G01*
X38750000Y-112975000D01*
G75*
G02*
X37875000Y-113850000I-875000J0D01*
G01*
G37*
%TD.AperFunction*%
%TA.AperFunction,ViaPad*%
G36*
G01*
X33300000Y-116600000D02*
X31300000Y-116600000D01*
G75*
G02*
X30550000Y-115850000I0J750000D01*
G01*
X30550000Y-114350000D01*
G75*
G02*
X31300000Y-113600000I750000J0D01*
G01*
X33300000Y-113600000D01*
G75*
G02*
X34050000Y-114350000I0J-750000D01*
G01*
X34050000Y-115850000D01*
G75*
G02*
X33300000Y-116600000I-750000J0D01*
G01*
G37*
%TD.AperFunction*%
D12*
%TO.N,/Interfaces/IN_PWR_SUPPLY*%
X32300000Y-109100000D03*
%TD*%
D13*
%TO.N,GND*%
%TO.C,J3*%
X28200000Y-45000000D03*
%TO.N,/USB1_D+*%
X28200000Y-42500000D03*
%TO.N,/USB1_D-*%
X28200000Y-40500000D03*
D14*
%TO.N,/USB1_VBU*%
X28200000Y-38000000D03*
D15*
%TO.N,CGND*%
X25490000Y-34930000D03*
X25490000Y-48070000D03*
%TD*%
D16*
%TO.N,GND*%
X44097600Y-59584800D03*
X44097600Y-60854800D03*
D17*
X53902000Y-63407500D03*
X48822000Y-58327500D03*
X48758500Y-68487500D03*
D16*
X44097600Y-65934800D03*
X44097600Y-67204800D03*
D17*
X81900000Y-110100000D03*
X43712600Y-63400000D03*
X72217600Y-31125000D03*
D16*
X45890000Y-38982000D03*
X54500000Y-78000000D03*
D17*
X34000000Y-97500000D03*
X26800000Y-98300000D03*
X53600000Y-107700000D03*
X59200000Y-106800000D03*
X54400000Y-120700000D03*
X24800000Y-58500000D03*
D16*
X32290000Y-75500000D03*
D17*
X62190000Y-78140000D03*
D16*
X77500000Y-62500000D03*
X67000000Y-64500000D03*
X71100000Y-77800000D03*
X68072000Y-43180000D03*
X66040000Y-45720000D03*
X69989700Y-52290300D03*
D17*
%TO.N,VDD_5V*%
X59794800Y-61515200D03*
X60455200Y-61515200D03*
X63100000Y-81400000D03*
X63100000Y-82100000D03*
X63100000Y-80700000D03*
X63100000Y-80000000D03*
X61115600Y-61515200D03*
%TO.N,USB_DC*%
X60455200Y-62785200D03*
X61115600Y-62785200D03*
X59794800Y-62785200D03*
X24900000Y-54100000D03*
X48800000Y-51400000D03*
%TO.N,VDD_3V3A*%
X47552000Y-63344000D03*
X50219000Y-63344000D03*
X48796600Y-64664800D03*
%TO.N,VDD_3V3B*%
X46250000Y-66000000D03*
X63400000Y-37800000D03*
X50100000Y-78800000D03*
D16*
X66548000Y-41148000D03*
D17*
X69840000Y-58290000D03*
D16*
%TO.N,VDD_3V3AUX*%
X46280000Y-60280000D03*
D17*
X62000000Y-42187511D03*
%TO.N,SYS_5V*%
X51300000Y-65900000D03*
D16*
%TO.N,VDD_RTC*%
X51340000Y-60250000D03*
D17*
X70000000Y-26500000D03*
X59500000Y-31200000D03*
D16*
X67564000Y-45720000D03*
%TO.N,Net-(TP1-Pad1)*%
X54900000Y-60880000D03*
X35306000Y-28956000D03*
%TO.N,Net-(TP2-Pad1)*%
X55140000Y-69840000D03*
X72425137Y-91400000D03*
%TO.N,Net-(TP3-Pad1)*%
X53830000Y-69870000D03*
X72425137Y-91960848D03*
%TO.N,Net-(TP4-Pad1)*%
X43770000Y-69700000D03*
X72425137Y-92780000D03*
%TO.N,Net-(TP5-Pad1)*%
X42490000Y-60870000D03*
X34036000Y-28956000D03*
%TO.N,Net-(TP6-Pad1)*%
X42477460Y-59620000D03*
X32258000Y-28956000D03*
D17*
%TO.N,Net-(TP7-Pad1)*%
X60455200Y-64004400D03*
X59794800Y-64004400D03*
X61115600Y-64004400D03*
%TO.N,CGND*%
X26600000Y-29700000D03*
D16*
%TO.N,/Sistem In Package/OSC_OUT*%
X47414000Y-29076000D03*
X48176000Y-32632000D03*
%TO.N,/Peripherals/SPI0_D1*%
X29200000Y-57900000D03*
%TO.N,/Peripherals/SPI0_D0*%
X30699992Y-57900000D03*
%TO.N,/Peripherals/UART0_TX*%
X34800000Y-61300000D03*
%TO.N,/Peripherals/SPI0_SCLK*%
X30022748Y-57900000D03*
%TO.N,/Peripherals/UART0_RX*%
X34100000Y-61300000D03*
%TO.N,/Peripherals/SPI0_CS0*%
X28300000Y-57900000D03*
%TO.N,/Sistem In Package/AIN51.8V*%
X41280000Y-63500000D03*
%TO.N,/Sistem In Package/AIN61.8V*%
X41250000Y-62250000D03*
%TO.N,/Interfaces/MMC0_DAT2*%
X32290000Y-79340000D03*
X41120000Y-53410000D03*
%TO.N,/Interfaces/MMC0_CD*%
X32290000Y-72941470D03*
X41190000Y-55810000D03*
%TO.N,/Interfaces/MMC0_CMD*%
X39890000Y-53360000D03*
X32290000Y-77420000D03*
%TO.N,/Interfaces/MMC0_CLK*%
X32300000Y-76390000D03*
X39910000Y-55850000D03*
%TO.N,/Interfaces/MMC0_DAT0*%
X32290000Y-74520000D03*
X38740000Y-54560000D03*
%TO.N,/Interfaces/MMC0_DAT1*%
X32290000Y-73551067D03*
X39940000Y-54560000D03*
D17*
%TO.N,/USB1_VBU*%
X53880000Y-55730000D03*
D16*
%TO.N,/Interfaces/MMC0_DAT3*%
X32290000Y-78320000D03*
X42490000Y-55810000D03*
%TO.N,Net-(J6-Pad1)*%
X71750000Y-66500000D03*
X70000000Y-62750000D03*
%TO.N,/I2C1_SDA*%
X39897460Y-60850000D03*
X68260000Y-61050000D03*
%TO.N,/I2C1_SCL*%
X41090000Y-60850000D03*
X66006721Y-62086700D03*
%TO.N,/GPIO_A8*%
X72710000Y-39380000D03*
X60710000Y-54130000D03*
%TO.N,/GPIO_A7*%
X72710000Y-41250000D03*
X60710000Y-54760000D03*
%TO.N,/GPIO_A5*%
X72710000Y-45630000D03*
X60710000Y-56290000D03*
%TO.N,Net-(TP8-Pad1)*%
X62030000Y-66950000D03*
X67930000Y-79970000D03*
%TO.N,Net-(TP9-Pad1)*%
X61120000Y-67000000D03*
X67930000Y-83410000D03*
%TO.N,/GPIO_A6*%
X72710000Y-43580000D03*
X60710000Y-55490002D03*
%TO.N,/GPIO_A4*%
X60710000Y-57220000D03*
%TD*%
D18*
%TO.N,CGND*%
X25490000Y-34930000D02*
X25490000Y-48070000D01*
X25490000Y-34930000D02*
X25490000Y-30910000D01*
X25490000Y-30910000D02*
X26600000Y-29800000D01*
X26600000Y-29800000D02*
X26600000Y-29700000D01*
%TD*%
D19*
%TO.N,GND*%
G36*
X45583500Y-68170000D02*
G01*
X43996000Y-68170000D01*
X43996000Y-67217500D01*
X45583500Y-67217500D01*
X45583500Y-68170000D01*
G37*
X45583500Y-68170000D02*
X43996000Y-68170000D01*
X43996000Y-67217500D01*
X45583500Y-67217500D01*
X45583500Y-68170000D01*
G36*
X80936842Y-18731439D02*
G01*
X81853106Y-18938769D01*
X82728657Y-19279252D01*
X83544265Y-19745410D01*
X84282014Y-20327005D01*
X84925689Y-21011251D01*
X85461160Y-21783129D01*
X85876659Y-22625677D01*
X86163054Y-23520376D01*
X86315689Y-24457579D01*
X86340000Y-25014404D01*
X86340001Y-118975498D01*
X86268561Y-119936841D01*
X86061231Y-120853106D01*
X85720748Y-121728657D01*
X85254590Y-122544265D01*
X84672995Y-123282014D01*
X83988749Y-123925689D01*
X83216871Y-124461160D01*
X82374323Y-124876659D01*
X81479624Y-125163054D01*
X80542414Y-125315689D01*
X79985595Y-125340000D01*
X19211508Y-125340000D01*
X12660000Y-120660353D01*
X12660000Y-118753472D01*
X16865800Y-118753472D01*
X16865800Y-119193728D01*
X16951690Y-119625525D01*
X17120169Y-120032269D01*
X17364762Y-120398329D01*
X17676071Y-120709638D01*
X18042131Y-120954231D01*
X18448875Y-121122710D01*
X18880672Y-121208600D01*
X19320928Y-121208600D01*
X19752725Y-121122710D01*
X20159469Y-120954231D01*
X20525529Y-120709638D01*
X20836838Y-120398329D01*
X21081431Y-120032269D01*
X21169243Y-119820272D01*
X79045000Y-119820272D01*
X79045000Y-120260528D01*
X79130890Y-120692325D01*
X79299369Y-121099069D01*
X79543962Y-121465129D01*
X79855271Y-121776438D01*
X80221331Y-122021031D01*
X80628075Y-122189510D01*
X81059872Y-122275400D01*
X81500128Y-122275400D01*
X81931925Y-122189510D01*
X82338669Y-122021031D01*
X82704729Y-121776438D01*
X83016038Y-121465129D01*
X83260631Y-121099069D01*
X83429110Y-120692325D01*
X83515000Y-120260528D01*
X83515000Y-119820272D01*
X83429110Y-119388475D01*
X83260631Y-118981731D01*
X83016038Y-118615671D01*
X82704729Y-118304362D01*
X82338669Y-118059769D01*
X81931925Y-117891290D01*
X81500128Y-117805400D01*
X81059872Y-117805400D01*
X80628075Y-117891290D01*
X80221331Y-118059769D01*
X79855271Y-118304362D01*
X79543962Y-118615671D01*
X79299369Y-118981731D01*
X79130890Y-119388475D01*
X79045000Y-119820272D01*
X21169243Y-119820272D01*
X21249910Y-119625525D01*
X21335800Y-119193728D01*
X21335800Y-118753472D01*
X21249910Y-118321675D01*
X21081431Y-117914931D01*
X20836838Y-117548871D01*
X20525529Y-117237562D01*
X20159469Y-116992969D01*
X19752725Y-116824490D01*
X19320928Y-116738600D01*
X18880672Y-116738600D01*
X18448875Y-116824490D01*
X18042131Y-116992969D01*
X17676071Y-117237562D01*
X17364762Y-117548871D01*
X17120169Y-117914931D01*
X16951690Y-118321675D01*
X16865800Y-118753472D01*
X12660000Y-118753472D01*
X12660000Y-116600000D01*
X29911928Y-116600000D01*
X29924188Y-116724482D01*
X29960498Y-116844180D01*
X30019463Y-116954494D01*
X30098815Y-117051185D01*
X30195506Y-117130537D01*
X30305820Y-117189502D01*
X30425518Y-117225812D01*
X30550000Y-117238072D01*
X32014250Y-117235000D01*
X32173000Y-117076250D01*
X32173000Y-115227000D01*
X32427000Y-115227000D01*
X32427000Y-117076250D01*
X32585750Y-117235000D01*
X34050000Y-117238072D01*
X34174482Y-117225812D01*
X34294180Y-117189502D01*
X34404494Y-117130537D01*
X34501185Y-117051185D01*
X34580537Y-116954494D01*
X34639502Y-116844180D01*
X34675812Y-116724482D01*
X34688072Y-116600000D01*
X34685000Y-115385750D01*
X34526250Y-115227000D01*
X32427000Y-115227000D01*
X32173000Y-115227000D01*
X30073750Y-115227000D01*
X29915000Y-115385750D01*
X29911928Y-116600000D01*
X12660000Y-116600000D01*
X12660000Y-113600000D01*
X29911928Y-113600000D01*
X29915000Y-114814250D01*
X30073750Y-114973000D01*
X32173000Y-114973000D01*
X32173000Y-113123750D01*
X32427000Y-113123750D01*
X32427000Y-114973000D01*
X34526250Y-114973000D01*
X34685000Y-114814250D01*
X34686698Y-114143195D01*
X34719463Y-114204494D01*
X34798815Y-114301185D01*
X34895506Y-114380537D01*
X35005820Y-114439502D01*
X35125518Y-114475812D01*
X35250000Y-114488072D01*
X36714250Y-114485000D01*
X36873000Y-114326250D01*
X36873000Y-112227000D01*
X37127000Y-112227000D01*
X37127000Y-114326250D01*
X37285750Y-114485000D01*
X38750000Y-114488072D01*
X38874482Y-114475812D01*
X38994180Y-114439502D01*
X39104494Y-114380537D01*
X39201185Y-114301185D01*
X39280537Y-114204494D01*
X39339502Y-114094180D01*
X39375812Y-113974482D01*
X39388072Y-113850000D01*
X39385000Y-112385750D01*
X39226250Y-112227000D01*
X37127000Y-112227000D01*
X36873000Y-112227000D01*
X34773750Y-112227000D01*
X34615000Y-112385750D01*
X34613069Y-113306367D01*
X34580537Y-113245506D01*
X34501185Y-113148815D01*
X34404494Y-113069463D01*
X34294180Y-113010498D01*
X34174482Y-112974188D01*
X34050000Y-112961928D01*
X32585750Y-112965000D01*
X32427000Y-113123750D01*
X32173000Y-113123750D01*
X32014250Y-112965000D01*
X30550000Y-112961928D01*
X30425518Y-112974188D01*
X30305820Y-113010498D01*
X30195506Y-113069463D01*
X30098815Y-113148815D01*
X30019463Y-113245506D01*
X29960498Y-113355820D01*
X29924188Y-113475518D01*
X29911928Y-113600000D01*
X12660000Y-113600000D01*
X12660000Y-107350000D01*
X29911928Y-107350000D01*
X29911928Y-110850000D01*
X29924188Y-110974482D01*
X29960498Y-111094180D01*
X30019463Y-111204494D01*
X30098815Y-111301185D01*
X30195506Y-111380537D01*
X30305820Y-111439502D01*
X30425518Y-111475812D01*
X30550000Y-111488072D01*
X34050000Y-111488072D01*
X34174482Y-111475812D01*
X34294180Y-111439502D01*
X34404494Y-111380537D01*
X34501185Y-111301185D01*
X34580537Y-111204494D01*
X34613591Y-111142655D01*
X34615000Y-111814250D01*
X34773750Y-111973000D01*
X36873000Y-111973000D01*
X36873000Y-109873750D01*
X37127000Y-109873750D01*
X37127000Y-111973000D01*
X39226250Y-111973000D01*
X39385000Y-111814250D01*
X39388072Y-110350000D01*
X39375812Y-110225518D01*
X39339502Y-110105820D01*
X39280537Y-109995506D01*
X39201185Y-109898815D01*
X39104494Y-109819463D01*
X38994180Y-109760498D01*
X38874482Y-109724188D01*
X38750000Y-109711928D01*
X37285750Y-109715000D01*
X37127000Y-109873750D01*
X36873000Y-109873750D01*
X36714250Y-109715000D01*
X35250000Y-109711928D01*
X35125518Y-109724188D01*
X35005820Y-109760498D01*
X34895506Y-109819463D01*
X34798815Y-109898815D01*
X34719463Y-109995506D01*
X34688072Y-110054233D01*
X34688072Y-107350000D01*
X34675812Y-107225518D01*
X34639502Y-107105820D01*
X34580537Y-106995506D01*
X34501185Y-106898815D01*
X34404494Y-106819463D01*
X34294180Y-106760498D01*
X34174482Y-106724188D01*
X34050000Y-106711928D01*
X30550000Y-106711928D01*
X30425518Y-106724188D01*
X30305820Y-106760498D01*
X30195506Y-106819463D01*
X30098815Y-106898815D01*
X30019463Y-106995506D01*
X29960498Y-107105820D01*
X29924188Y-107225518D01*
X29911928Y-107350000D01*
X12660000Y-107350000D01*
X12660000Y-91314943D01*
X71561537Y-91314943D01*
X71561537Y-91485057D01*
X71594724Y-91651903D01*
X71606538Y-91680424D01*
X71594724Y-91708945D01*
X71561537Y-91875791D01*
X71561537Y-92045905D01*
X71594724Y-92212751D01*
X71659824Y-92369916D01*
X71660163Y-92370424D01*
X71659824Y-92370932D01*
X71594724Y-92528097D01*
X71561537Y-92694943D01*
X71561537Y-92865057D01*
X71594724Y-93031903D01*
X71659824Y-93189068D01*
X71754335Y-93330513D01*
X71874624Y-93450802D01*
X72016069Y-93545313D01*
X72173234Y-93610413D01*
X72340080Y-93643600D01*
X72510194Y-93643600D01*
X72677040Y-93610413D01*
X72834205Y-93545313D01*
X72975650Y-93450802D01*
X73095939Y-93330513D01*
X73190450Y-93189068D01*
X73255550Y-93031903D01*
X73288737Y-92865057D01*
X73288737Y-92694943D01*
X73255550Y-92528097D01*
X73190450Y-92370932D01*
X73190111Y-92370424D01*
X73190450Y-92369916D01*
X73255550Y-92212751D01*
X73288737Y-92045905D01*
X73288737Y-91875791D01*
X73255550Y-91708945D01*
X73243736Y-91680424D01*
X73255550Y-91651903D01*
X73288737Y-91485057D01*
X73288737Y-91314943D01*
X73255550Y-91148097D01*
X73190450Y-90990932D01*
X73095939Y-90849487D01*
X72975650Y-90729198D01*
X72834205Y-90634687D01*
X72677040Y-90569587D01*
X72510194Y-90536400D01*
X72340080Y-90536400D01*
X72173234Y-90569587D01*
X72016069Y-90634687D01*
X71874624Y-90729198D01*
X71754335Y-90849487D01*
X71659824Y-90990932D01*
X71594724Y-91148097D01*
X71561537Y-91314943D01*
X12660000Y-91314943D01*
X12660000Y-86075000D01*
X31686928Y-86075000D01*
X31686928Y-86925000D01*
X31699188Y-87049482D01*
X31735498Y-87169180D01*
X31794463Y-87279494D01*
X31873815Y-87376185D01*
X31970506Y-87455537D01*
X32080820Y-87514502D01*
X32200518Y-87550812D01*
X32325000Y-87563072D01*
X33175000Y-87563072D01*
X33299482Y-87550812D01*
X33419180Y-87514502D01*
X33423603Y-87512138D01*
X33440809Y-87519265D01*
X33645599Y-87560000D01*
X33854401Y-87560000D01*
X34059191Y-87519265D01*
X34250000Y-87440229D01*
X34440809Y-87519265D01*
X34645599Y-87560000D01*
X34854401Y-87560000D01*
X35059191Y-87519265D01*
X35250000Y-87440229D01*
X35440809Y-87519265D01*
X35645599Y-87560000D01*
X35854401Y-87560000D01*
X36059191Y-87519265D01*
X36250000Y-87440229D01*
X36440809Y-87519265D01*
X36645599Y-87560000D01*
X36854401Y-87560000D01*
X37059191Y-87519265D01*
X37250000Y-87440229D01*
X37440809Y-87519265D01*
X37645599Y-87560000D01*
X37854401Y-87560000D01*
X38059191Y-87519265D01*
X38250000Y-87440229D01*
X38440809Y-87519265D01*
X38645599Y-87560000D01*
X38854401Y-87560000D01*
X39059191Y-87519265D01*
X39252098Y-87439360D01*
X39257118Y-87436006D01*
X39424750Y-87508872D01*
X39459938Y-87519540D01*
X39623000Y-87392257D01*
X39623000Y-87101413D01*
X39689360Y-87002098D01*
X39769265Y-86809191D01*
X39805504Y-86627000D01*
X39877000Y-86627000D01*
X39877000Y-87392257D01*
X40040062Y-87519540D01*
X40075250Y-87508872D01*
X40265822Y-87426034D01*
X40436571Y-87307609D01*
X40580936Y-87158148D01*
X40693368Y-86983394D01*
X40769547Y-86790064D01*
X40643621Y-86627000D01*
X39877000Y-86627000D01*
X39805504Y-86627000D01*
X39810000Y-86604401D01*
X39810000Y-86560000D01*
X39877002Y-86560000D01*
X39877002Y-86392259D01*
X40040062Y-86519540D01*
X40075250Y-86508872D01*
X40265822Y-86426034D01*
X40342288Y-86373000D01*
X40643621Y-86373000D01*
X40769547Y-86209936D01*
X40693368Y-86016606D01*
X40682684Y-86000000D01*
X40693368Y-85983394D01*
X40769547Y-85790064D01*
X40643621Y-85627000D01*
X40342288Y-85627000D01*
X40265822Y-85573966D01*
X40075250Y-85491128D01*
X40040062Y-85480460D01*
X39877002Y-85607741D01*
X39877002Y-85440000D01*
X39810000Y-85440000D01*
X39810000Y-85395599D01*
X39769265Y-85190809D01*
X39689360Y-84997902D01*
X39623000Y-84898587D01*
X39623000Y-84607743D01*
X39877000Y-84607743D01*
X39877000Y-85373000D01*
X40643621Y-85373000D01*
X40769547Y-85209936D01*
X40693368Y-85016606D01*
X40580936Y-84841852D01*
X40436571Y-84692391D01*
X40265822Y-84573966D01*
X40075250Y-84491128D01*
X40040062Y-84480460D01*
X39877000Y-84607743D01*
X39623000Y-84607743D01*
X39459938Y-84480460D01*
X39424750Y-84491128D01*
X39257118Y-84563994D01*
X39252098Y-84560640D01*
X39059191Y-84480735D01*
X38854401Y-84440000D01*
X38645599Y-84440000D01*
X38440809Y-84480735D01*
X38250000Y-84559771D01*
X38059191Y-84480735D01*
X37854401Y-84440000D01*
X37645599Y-84440000D01*
X37440809Y-84480735D01*
X37250000Y-84559771D01*
X37059191Y-84480735D01*
X36854401Y-84440000D01*
X36645599Y-84440000D01*
X36440809Y-84480735D01*
X36250000Y-84559771D01*
X36059191Y-84480735D01*
X35854401Y-84440000D01*
X35645599Y-84440000D01*
X35440809Y-84480735D01*
X35250000Y-84559771D01*
X35059191Y-84480735D01*
X34854401Y-84440000D01*
X34645599Y-84440000D01*
X34440809Y-84480735D01*
X34250000Y-84559771D01*
X34059191Y-84480735D01*
X33854401Y-84440000D01*
X33645599Y-84440000D01*
X33440809Y-84480735D01*
X33250000Y-84559771D01*
X33059191Y-84480735D01*
X32854401Y-84440000D01*
X32645599Y-84440000D01*
X32440809Y-84480735D01*
X32247902Y-84560640D01*
X32074289Y-84676644D01*
X31926644Y-84824289D01*
X31810640Y-84997902D01*
X31730735Y-85190809D01*
X31690000Y-85395599D01*
X31690000Y-85604401D01*
X31730735Y-85809191D01*
X31737862Y-85826397D01*
X31735498Y-85830820D01*
X31699188Y-85950518D01*
X31686928Y-86075000D01*
X12660000Y-86075000D01*
X12660000Y-83324943D01*
X67066400Y-83324943D01*
X67066400Y-83495057D01*
X67099587Y-83661903D01*
X67164687Y-83819068D01*
X67259198Y-83960513D01*
X67379487Y-84080802D01*
X67520932Y-84175313D01*
X67678097Y-84240413D01*
X67844943Y-84273600D01*
X68015057Y-84273600D01*
X68181903Y-84240413D01*
X68339068Y-84175313D01*
X68480513Y-84080802D01*
X68600802Y-83960513D01*
X68695313Y-83819068D01*
X68760413Y-83661903D01*
X68793600Y-83495057D01*
X68793600Y-83324943D01*
X68760413Y-83158097D01*
X68695313Y-83000932D01*
X68600802Y-82859487D01*
X68480513Y-82739198D01*
X68339068Y-82644687D01*
X68181903Y-82579587D01*
X68015057Y-82546400D01*
X67844943Y-82546400D01*
X67678097Y-82579587D01*
X67520932Y-82644687D01*
X67379487Y-82739198D01*
X67259198Y-82859487D01*
X67164687Y-83000932D01*
X67099587Y-83158097D01*
X67066400Y-83324943D01*
X12660000Y-83324943D01*
X12660000Y-81834080D01*
X18034461Y-81834080D01*
X18034461Y-82057480D01*
X18078045Y-82276588D01*
X18163536Y-82482982D01*
X18287651Y-82668733D01*
X18445618Y-82826700D01*
X18631369Y-82950815D01*
X18837763Y-83036306D01*
X19056871Y-83079890D01*
X19280271Y-83079890D01*
X19499379Y-83036306D01*
X19705773Y-82950815D01*
X19891524Y-82826700D01*
X20049491Y-82668733D01*
X20173606Y-82482982D01*
X20259097Y-82276588D01*
X20302681Y-82057480D01*
X20302681Y-81834080D01*
X20259097Y-81614972D01*
X20173606Y-81408578D01*
X20049491Y-81222827D01*
X19891524Y-81064860D01*
X19705773Y-80940745D01*
X19499379Y-80855254D01*
X19280271Y-80811670D01*
X19056871Y-80811670D01*
X18837763Y-80855254D01*
X18631369Y-80940745D01*
X18445618Y-81064860D01*
X18287651Y-81222827D01*
X18163536Y-81408578D01*
X18078045Y-81614972D01*
X18034461Y-81834080D01*
X12660000Y-81834080D01*
X12660000Y-77334943D01*
X31426400Y-77334943D01*
X31426400Y-77505057D01*
X31459587Y-77671903D01*
X31524687Y-77829068D01*
X31552037Y-77870000D01*
X31524687Y-77910932D01*
X31459587Y-78068097D01*
X31426400Y-78234943D01*
X31426400Y-78405057D01*
X31459587Y-78571903D01*
X31524687Y-78729068D01*
X31592128Y-78830000D01*
X31524687Y-78930932D01*
X31459587Y-79088097D01*
X31426400Y-79254943D01*
X31426400Y-79425057D01*
X31459587Y-79591903D01*
X31524687Y-79749068D01*
X31619198Y-79890513D01*
X31739487Y-80010802D01*
X31880932Y-80105313D01*
X32038097Y-80170413D01*
X32204943Y-80203600D01*
X32375057Y-80203600D01*
X32541903Y-80170413D01*
X32699068Y-80105313D01*
X32840513Y-80010802D01*
X32943877Y-79907438D01*
X62160200Y-79907438D01*
X62160200Y-80092562D01*
X62196316Y-80274129D01*
X62227743Y-80350000D01*
X62196316Y-80425871D01*
X62160200Y-80607438D01*
X62160200Y-80792562D01*
X62196316Y-80974129D01*
X62227743Y-81050000D01*
X62196316Y-81125871D01*
X62160200Y-81307438D01*
X62160200Y-81492562D01*
X62196316Y-81674129D01*
X62227743Y-81750000D01*
X62196316Y-81825871D01*
X62160200Y-82007438D01*
X62160200Y-82192562D01*
X62196316Y-82374129D01*
X62267160Y-82545162D01*
X62370010Y-82699087D01*
X62500913Y-82829990D01*
X62654838Y-82932840D01*
X62825871Y-83003684D01*
X63007438Y-83039800D01*
X63192562Y-83039800D01*
X63374129Y-83003684D01*
X63545162Y-82932840D01*
X63699087Y-82829990D01*
X63829990Y-82699087D01*
X63932840Y-82545162D01*
X64003684Y-82374129D01*
X64039800Y-82192562D01*
X64039800Y-82007438D01*
X64003684Y-81825871D01*
X63972257Y-81750000D01*
X64003684Y-81674129D01*
X64039800Y-81492562D01*
X64039800Y-81307438D01*
X64003684Y-81125871D01*
X63972257Y-81050000D01*
X64003684Y-80974129D01*
X64039800Y-80792562D01*
X64039800Y-80607438D01*
X64003684Y-80425871D01*
X63972257Y-80350000D01*
X64003684Y-80274129D01*
X64039800Y-80092562D01*
X64039800Y-79907438D01*
X64035326Y-79884943D01*
X67066400Y-79884943D01*
X67066400Y-80055057D01*
X67099587Y-80221903D01*
X67164687Y-80379068D01*
X67259198Y-80520513D01*
X67379487Y-80640802D01*
X67520932Y-80735313D01*
X67678097Y-80800413D01*
X67844943Y-80833600D01*
X68015057Y-80833600D01*
X68181903Y-80800413D01*
X68339068Y-80735313D01*
X68480513Y-80640802D01*
X68600802Y-80520513D01*
X68695313Y-80379068D01*
X68760413Y-80221903D01*
X68793600Y-80055057D01*
X68793600Y-79884943D01*
X68760413Y-79718097D01*
X68695313Y-79560932D01*
X68600802Y-79419487D01*
X68480513Y-79299198D01*
X68339068Y-79204687D01*
X68181903Y-79139587D01*
X68015057Y-79106400D01*
X67844943Y-79106400D01*
X67678097Y-79139587D01*
X67520932Y-79204687D01*
X67379487Y-79299198D01*
X67259198Y-79419487D01*
X67164687Y-79560932D01*
X67099587Y-79718097D01*
X67066400Y-79884943D01*
X64035326Y-79884943D01*
X64003684Y-79725871D01*
X63932840Y-79554838D01*
X63829990Y-79400913D01*
X63699087Y-79270010D01*
X63545162Y-79167160D01*
X63374129Y-79096316D01*
X63192562Y-79060200D01*
X63007438Y-79060200D01*
X62825871Y-79096316D01*
X62654838Y-79167160D01*
X62500913Y-79270010D01*
X62370010Y-79400913D01*
X62267160Y-79554838D01*
X62196316Y-79725871D01*
X62160200Y-79907438D01*
X32943877Y-79907438D01*
X32960802Y-79890513D01*
X33055313Y-79749068D01*
X33120413Y-79591903D01*
X33153600Y-79425057D01*
X33153600Y-79254943D01*
X33120413Y-79088097D01*
X33055313Y-78930932D01*
X32987872Y-78830000D01*
X33055313Y-78729068D01*
X33064272Y-78707438D01*
X49160200Y-78707438D01*
X49160200Y-78892562D01*
X49196316Y-79074129D01*
X49267160Y-79245162D01*
X49370010Y-79399087D01*
X49500913Y-79529990D01*
X49654838Y-79632840D01*
X49825871Y-79703684D01*
X50007438Y-79739800D01*
X50192562Y-79739800D01*
X50374129Y-79703684D01*
X50545162Y-79632840D01*
X50699087Y-79529990D01*
X50829990Y-79399087D01*
X50932840Y-79245162D01*
X51003684Y-79074129D01*
X51039800Y-78892562D01*
X51039800Y-78707438D01*
X51003684Y-78525871D01*
X50932840Y-78354838D01*
X50829990Y-78200913D01*
X50699087Y-78070010D01*
X50545162Y-77967160D01*
X50374129Y-77896316D01*
X50192562Y-77860200D01*
X50007438Y-77860200D01*
X49825871Y-77896316D01*
X49654838Y-77967160D01*
X49500913Y-78070010D01*
X49370010Y-78200913D01*
X49267160Y-78354838D01*
X49196316Y-78525871D01*
X49160200Y-78707438D01*
X33064272Y-78707438D01*
X33120413Y-78571903D01*
X33153600Y-78405057D01*
X33153600Y-78234943D01*
X33120413Y-78068097D01*
X33055313Y-77910932D01*
X33027963Y-77870000D01*
X33055313Y-77829068D01*
X33120413Y-77671903D01*
X33153600Y-77505057D01*
X33153600Y-77334943D01*
X33120413Y-77168097D01*
X33079780Y-77070000D01*
X77086928Y-77070000D01*
X77099188Y-77194482D01*
X77135498Y-77314180D01*
X77194463Y-77424494D01*
X77273815Y-77521185D01*
X77370506Y-77600537D01*
X77480820Y-77659502D01*
X77600518Y-77695812D01*
X77725000Y-77708072D01*
X77864250Y-77705000D01*
X78023000Y-77546250D01*
X78023000Y-76772000D01*
X78277000Y-76772000D01*
X78277000Y-77546250D01*
X78435750Y-77705000D01*
X78575000Y-77708072D01*
X78699482Y-77695812D01*
X78819180Y-77659502D01*
X78929494Y-77600537D01*
X79026185Y-77521185D01*
X79105537Y-77424494D01*
X79164502Y-77314180D01*
X79200812Y-77194482D01*
X79213072Y-77070000D01*
X79210000Y-76930750D01*
X79051250Y-76772000D01*
X78277000Y-76772000D01*
X78023000Y-76772000D01*
X77248750Y-76772000D01*
X77090000Y-76930750D01*
X77086928Y-77070000D01*
X33079780Y-77070000D01*
X33055313Y-77010932D01*
X32989531Y-76912483D01*
X33065313Y-76799068D01*
X33130413Y-76641903D01*
X33163600Y-76475057D01*
X33163600Y-76304943D01*
X33146705Y-76220000D01*
X77086928Y-76220000D01*
X77090000Y-76359250D01*
X77248750Y-76518000D01*
X78023000Y-76518000D01*
X78023000Y-75743750D01*
X78277000Y-75743750D01*
X78277000Y-76518000D01*
X79051250Y-76518000D01*
X79210000Y-76359250D01*
X79213072Y-76220000D01*
X79200812Y-76095518D01*
X79164502Y-75975820D01*
X79105537Y-75865506D01*
X79026185Y-75768815D01*
X78929494Y-75689463D01*
X78819180Y-75630498D01*
X78699482Y-75594188D01*
X78575000Y-75581928D01*
X78435750Y-75585000D01*
X78277000Y-75743750D01*
X78023000Y-75743750D01*
X77864250Y-75585000D01*
X77725000Y-75581928D01*
X77600518Y-75594188D01*
X77480820Y-75630498D01*
X77370506Y-75689463D01*
X77273815Y-75768815D01*
X77194463Y-75865506D01*
X77135498Y-75975820D01*
X77099188Y-76095518D01*
X77086928Y-76220000D01*
X33146705Y-76220000D01*
X33130413Y-76138097D01*
X33065313Y-75980932D01*
X32970802Y-75839487D01*
X32850513Y-75719198D01*
X32709068Y-75624687D01*
X32551903Y-75559587D01*
X32385057Y-75526400D01*
X32214943Y-75526400D01*
X32048097Y-75559587D01*
X31890932Y-75624687D01*
X31749487Y-75719198D01*
X31629198Y-75839487D01*
X31534687Y-75980932D01*
X31469587Y-76138097D01*
X31436400Y-76304943D01*
X31436400Y-76475057D01*
X31469587Y-76641903D01*
X31534687Y-76799068D01*
X31600469Y-76897517D01*
X31524687Y-77010932D01*
X31459587Y-77168097D01*
X31426400Y-77334943D01*
X12660000Y-77334943D01*
X12660000Y-73838160D01*
X18034461Y-73838160D01*
X18034461Y-74061560D01*
X18078045Y-74280668D01*
X18163536Y-74487062D01*
X18287651Y-74672813D01*
X18445618Y-74830780D01*
X18631369Y-74954895D01*
X18837763Y-75040386D01*
X19056871Y-75083970D01*
X19280271Y-75083970D01*
X19499379Y-75040386D01*
X19705773Y-74954895D01*
X19891524Y-74830780D01*
X20049491Y-74672813D01*
X20173606Y-74487062D01*
X20259097Y-74280668D01*
X20302681Y-74061560D01*
X20302681Y-73838160D01*
X20259097Y-73619052D01*
X20173606Y-73412658D01*
X20049491Y-73226907D01*
X19891524Y-73068940D01*
X19705773Y-72944825D01*
X19499379Y-72859334D01*
X19484695Y-72856413D01*
X31426400Y-72856413D01*
X31426400Y-73026527D01*
X31459587Y-73193373D01*
X31481497Y-73246269D01*
X31459587Y-73299164D01*
X31426400Y-73466010D01*
X31426400Y-73636124D01*
X31459587Y-73802970D01*
X31524687Y-73960135D01*
X31575067Y-74035533D01*
X31524687Y-74110932D01*
X31459587Y-74268097D01*
X31426400Y-74434943D01*
X31426400Y-74605057D01*
X31459587Y-74771903D01*
X31524687Y-74929068D01*
X31619198Y-75070513D01*
X31739487Y-75190802D01*
X31880932Y-75285313D01*
X32038097Y-75350413D01*
X32204943Y-75383600D01*
X32375057Y-75383600D01*
X32541903Y-75350413D01*
X32699068Y-75285313D01*
X32840513Y-75190802D01*
X32960802Y-75070513D01*
X33055313Y-74929068D01*
X33120413Y-74771903D01*
X33153600Y-74605057D01*
X33153600Y-74434943D01*
X33120413Y-74268097D01*
X33055313Y-74110932D01*
X33004933Y-74035533D01*
X33055313Y-73960135D01*
X33120413Y-73802970D01*
X33153600Y-73636124D01*
X33153600Y-73466010D01*
X33120413Y-73299164D01*
X33098503Y-73246269D01*
X33120413Y-73193373D01*
X33153600Y-73026527D01*
X33153600Y-72975000D01*
X76936928Y-72975000D01*
X76936928Y-73825000D01*
X76949188Y-73949482D01*
X76985498Y-74069180D01*
X77044463Y-74179494D01*
X77123815Y-74276185D01*
X77220506Y-74355537D01*
X77330820Y-74414502D01*
X77450518Y-74450812D01*
X77575000Y-74463072D01*
X78425000Y-74463072D01*
X78549482Y-74450812D01*
X78669180Y-74414502D01*
X78779494Y-74355537D01*
X78876185Y-74276185D01*
X78955537Y-74179494D01*
X79014502Y-74069180D01*
X79050812Y-73949482D01*
X79063072Y-73825000D01*
X79063072Y-72975000D01*
X79050812Y-72850518D01*
X79014502Y-72730820D01*
X78955537Y-72620506D01*
X78876185Y-72523815D01*
X78779494Y-72444463D01*
X78669180Y-72385498D01*
X78549482Y-72349188D01*
X78425000Y-72336928D01*
X77575000Y-72336928D01*
X77450518Y-72349188D01*
X77330820Y-72385498D01*
X77220506Y-72444463D01*
X77123815Y-72523815D01*
X77044463Y-72620506D01*
X76985498Y-72730820D01*
X76949188Y-72850518D01*
X76936928Y-72975000D01*
X33153600Y-72975000D01*
X33153600Y-72856413D01*
X33120413Y-72689567D01*
X33055313Y-72532402D01*
X32960802Y-72390957D01*
X32840513Y-72270668D01*
X32699068Y-72176157D01*
X32541903Y-72111057D01*
X32375057Y-72077870D01*
X32204943Y-72077870D01*
X32038097Y-72111057D01*
X31880932Y-72176157D01*
X31739487Y-72270668D01*
X31619198Y-72390957D01*
X31524687Y-72532402D01*
X31459587Y-72689567D01*
X31426400Y-72856413D01*
X19484695Y-72856413D01*
X19280271Y-72815750D01*
X19056871Y-72815750D01*
X18837763Y-72859334D01*
X18631369Y-72944825D01*
X18445618Y-73068940D01*
X18287651Y-73226907D01*
X18163536Y-73412658D01*
X18078045Y-73619052D01*
X18034461Y-73838160D01*
X12660000Y-73838160D01*
X12660000Y-69614943D01*
X42906400Y-69614943D01*
X42906400Y-69785057D01*
X42939587Y-69951903D01*
X43004687Y-70109068D01*
X43099198Y-70250513D01*
X43219487Y-70370802D01*
X43360932Y-70465313D01*
X43518097Y-70530413D01*
X43684943Y-70563600D01*
X43855057Y-70563600D01*
X44021903Y-70530413D01*
X44179068Y-70465313D01*
X44320513Y-70370802D01*
X44440802Y-70250513D01*
X44535313Y-70109068D01*
X44600413Y-69951903D01*
X44633600Y-69785057D01*
X44633600Y-69784943D01*
X52966400Y-69784943D01*
X52966400Y-69955057D01*
X52999587Y-70121903D01*
X53064687Y-70279068D01*
X53159198Y-70420513D01*
X53279487Y-70540802D01*
X53420932Y-70635313D01*
X53578097Y-70700413D01*
X53744943Y-70733600D01*
X53915057Y-70733600D01*
X54081903Y-70700413D01*
X54239068Y-70635313D01*
X54380513Y-70540802D01*
X54500000Y-70421315D01*
X54589487Y-70510802D01*
X54730932Y-70605313D01*
X54888097Y-70670413D01*
X55054943Y-70703600D01*
X55225057Y-70703600D01*
X55391903Y-70670413D01*
X55549068Y-70605313D01*
X55690513Y-70510802D01*
X55810802Y-70390513D01*
X55905313Y-70249068D01*
X55970413Y-70091903D01*
X56003600Y-69925057D01*
X56003600Y-69754943D01*
X55970413Y-69588097D01*
X55905313Y-69430932D01*
X55810802Y-69289487D01*
X55690513Y-69169198D01*
X55549068Y-69074687D01*
X55391903Y-69009587D01*
X55225057Y-68976400D01*
X55054943Y-68976400D01*
X54888097Y-69009587D01*
X54730932Y-69074687D01*
X54589487Y-69169198D01*
X54470000Y-69288685D01*
X54380513Y-69199198D01*
X54239068Y-69104687D01*
X54081903Y-69039587D01*
X53915057Y-69006400D01*
X53744943Y-69006400D01*
X53578097Y-69039587D01*
X53420932Y-69104687D01*
X53279487Y-69199198D01*
X53159198Y-69319487D01*
X53064687Y-69460932D01*
X52999587Y-69618097D01*
X52966400Y-69784943D01*
X44633600Y-69784943D01*
X44633600Y-69614943D01*
X44600413Y-69448097D01*
X44535313Y-69290932D01*
X44440802Y-69149487D01*
X44320513Y-69029198D01*
X44179068Y-68934687D01*
X44021903Y-68869587D01*
X43855057Y-68836400D01*
X43684943Y-68836400D01*
X43518097Y-68869587D01*
X43360932Y-68934687D01*
X43219487Y-69029198D01*
X43099198Y-69149487D01*
X43004687Y-69290932D01*
X42939587Y-69448097D01*
X42906400Y-69614943D01*
X12660000Y-69614943D01*
X12660000Y-65907438D01*
X45310200Y-65907438D01*
X45310200Y-66092562D01*
X45346316Y-66274129D01*
X45417160Y-66445162D01*
X45520010Y-66599087D01*
X45650913Y-66729990D01*
X45804838Y-66832840D01*
X45975871Y-66903684D01*
X46157438Y-66939800D01*
X46342562Y-66939800D01*
X46467526Y-66914943D01*
X60256400Y-66914943D01*
X60256400Y-67085057D01*
X60289587Y-67251903D01*
X60354687Y-67409068D01*
X60449198Y-67550513D01*
X60569487Y-67670802D01*
X60710932Y-67765313D01*
X60868097Y-67830413D01*
X61034943Y-67863600D01*
X61205057Y-67863600D01*
X61371903Y-67830413D01*
X61529068Y-67765313D01*
X61612415Y-67709622D01*
X61620932Y-67715313D01*
X61778097Y-67780413D01*
X61944943Y-67813600D01*
X62115057Y-67813600D01*
X62281903Y-67780413D01*
X62439068Y-67715313D01*
X62580513Y-67620802D01*
X62700802Y-67500513D01*
X62795313Y-67359068D01*
X62860413Y-67201903D01*
X62893600Y-67035057D01*
X62893600Y-66864943D01*
X62860413Y-66698097D01*
X62795313Y-66540932D01*
X62711130Y-66414943D01*
X70886400Y-66414943D01*
X70886400Y-66585057D01*
X70919587Y-66751903D01*
X70984687Y-66909068D01*
X71079198Y-67050513D01*
X71199487Y-67170802D01*
X71340932Y-67265313D01*
X71498097Y-67330413D01*
X71664943Y-67363600D01*
X71835057Y-67363600D01*
X72001903Y-67330413D01*
X72159068Y-67265313D01*
X72300513Y-67170802D01*
X72420802Y-67050513D01*
X72515313Y-66909068D01*
X72580413Y-66751903D01*
X72613600Y-66585057D01*
X72613600Y-66414943D01*
X72580413Y-66248097D01*
X72515313Y-66090932D01*
X72420802Y-65949487D01*
X72300513Y-65829198D01*
X72159068Y-65734687D01*
X72001903Y-65669587D01*
X71835057Y-65636400D01*
X71664943Y-65636400D01*
X71498097Y-65669587D01*
X71340932Y-65734687D01*
X71199487Y-65829198D01*
X71079198Y-65949487D01*
X70984687Y-66090932D01*
X70919587Y-66248097D01*
X70886400Y-66414943D01*
X62711130Y-66414943D01*
X62700802Y-66399487D01*
X62580513Y-66279198D01*
X62439068Y-66184687D01*
X62281903Y-66119587D01*
X62115057Y-66086400D01*
X61944943Y-66086400D01*
X61778097Y-66119587D01*
X61620932Y-66184687D01*
X61537585Y-66240378D01*
X61529068Y-66234687D01*
X61371903Y-66169587D01*
X61205057Y-66136400D01*
X61034943Y-66136400D01*
X60868097Y-66169587D01*
X60710932Y-66234687D01*
X60569487Y-66329198D01*
X60449198Y-66449487D01*
X60354687Y-66590932D01*
X60289587Y-66748097D01*
X60256400Y-66914943D01*
X46467526Y-66914943D01*
X46524129Y-66903684D01*
X46695162Y-66832840D01*
X46849087Y-66729990D01*
X46979990Y-66599087D01*
X47082840Y-66445162D01*
X47153684Y-66274129D01*
X47189800Y-66092562D01*
X47189800Y-65907438D01*
X47169909Y-65807438D01*
X50360200Y-65807438D01*
X50360200Y-65992562D01*
X50396316Y-66174129D01*
X50467160Y-66345162D01*
X50570010Y-66499087D01*
X50700913Y-66629990D01*
X50854838Y-66732840D01*
X51025871Y-66803684D01*
X51207438Y-66839800D01*
X51392562Y-66839800D01*
X51574129Y-66803684D01*
X51745162Y-66732840D01*
X51899087Y-66629990D01*
X52029990Y-66499087D01*
X52132840Y-66345162D01*
X52203684Y-66174129D01*
X52239800Y-65992562D01*
X52239800Y-65807438D01*
X52203684Y-65625871D01*
X52132840Y-65454838D01*
X52029990Y-65300913D01*
X51899087Y-65170010D01*
X51745162Y-65067160D01*
X51574129Y-64996316D01*
X51392562Y-64960200D01*
X51207438Y-64960200D01*
X51025871Y-64996316D01*
X50854838Y-65067160D01*
X50700913Y-65170010D01*
X50570010Y-65300913D01*
X50467160Y-65454838D01*
X50396316Y-65625871D01*
X50360200Y-65807438D01*
X47169909Y-65807438D01*
X47153684Y-65725871D01*
X47082840Y-65554838D01*
X46979990Y-65400913D01*
X46849087Y-65270010D01*
X46695162Y-65167160D01*
X46524129Y-65096316D01*
X46342562Y-65060200D01*
X46157438Y-65060200D01*
X45975871Y-65096316D01*
X45804838Y-65167160D01*
X45650913Y-65270010D01*
X45520010Y-65400913D01*
X45417160Y-65554838D01*
X45346316Y-65725871D01*
X45310200Y-65907438D01*
X12660000Y-65907438D01*
X12660000Y-61214943D01*
X33236400Y-61214943D01*
X33236400Y-61385057D01*
X33269587Y-61551903D01*
X33334687Y-61709068D01*
X33429198Y-61850513D01*
X33549487Y-61970802D01*
X33690932Y-62065313D01*
X33848097Y-62130413D01*
X34014943Y-62163600D01*
X34185057Y-62163600D01*
X34351903Y-62130413D01*
X34450000Y-62089780D01*
X34548097Y-62130413D01*
X34714943Y-62163600D01*
X34885057Y-62163600D01*
X35051903Y-62130413D01*
X35209068Y-62065313D01*
X35350513Y-61970802D01*
X35470802Y-61850513D01*
X35565313Y-61709068D01*
X35630413Y-61551903D01*
X35663600Y-61385057D01*
X35663600Y-61214943D01*
X35630413Y-61048097D01*
X35565313Y-60890932D01*
X35481130Y-60764943D01*
X39033860Y-60764943D01*
X39033860Y-60935057D01*
X39067047Y-61101903D01*
X39132147Y-61259068D01*
X39226658Y-61400513D01*
X39346947Y-61520802D01*
X39488392Y-61615313D01*
X39645557Y-61680413D01*
X39812403Y-61713600D01*
X39982517Y-61713600D01*
X40149363Y-61680413D01*
X40306528Y-61615313D01*
X40447973Y-61520802D01*
X40493730Y-61475045D01*
X40539487Y-61520802D01*
X40670406Y-61608279D01*
X40579198Y-61699487D01*
X40484687Y-61840932D01*
X40419587Y-61998097D01*
X40386400Y-62164943D01*
X40386400Y-62335057D01*
X40419587Y-62501903D01*
X40484687Y-62659068D01*
X40579198Y-62800513D01*
X40668685Y-62890000D01*
X40609198Y-62949487D01*
X40514687Y-63090932D01*
X40449587Y-63248097D01*
X40416400Y-63414943D01*
X40416400Y-63585057D01*
X40449587Y-63751903D01*
X40514687Y-63909068D01*
X40609198Y-64050513D01*
X40729487Y-64170802D01*
X40870932Y-64265313D01*
X41028097Y-64330413D01*
X41194943Y-64363600D01*
X41365057Y-64363600D01*
X41531903Y-64330413D01*
X41689068Y-64265313D01*
X41830513Y-64170802D01*
X41950802Y-64050513D01*
X42045313Y-63909068D01*
X42110413Y-63751903D01*
X42143600Y-63585057D01*
X42143600Y-63414943D01*
X42111078Y-63251438D01*
X46612200Y-63251438D01*
X46612200Y-63436562D01*
X46648316Y-63618129D01*
X46719160Y-63789162D01*
X46822010Y-63943087D01*
X46952913Y-64073990D01*
X47106838Y-64176840D01*
X47277871Y-64247684D01*
X47459438Y-64283800D01*
X47644562Y-64283800D01*
X47826129Y-64247684D01*
X47990518Y-64179592D01*
X47963760Y-64219638D01*
X47892916Y-64390671D01*
X47856800Y-64572238D01*
X47856800Y-64757362D01*
X47892916Y-64938929D01*
X47963760Y-65109962D01*
X48066610Y-65263887D01*
X48197513Y-65394790D01*
X48351438Y-65497640D01*
X48522471Y-65568484D01*
X48704038Y-65604600D01*
X48889162Y-65604600D01*
X49070729Y-65568484D01*
X49241762Y-65497640D01*
X49395687Y-65394790D01*
X49526590Y-65263887D01*
X49629440Y-65109962D01*
X49700284Y-64938929D01*
X49736400Y-64757362D01*
X49736400Y-64572238D01*
X49700284Y-64390671D01*
X49629440Y-64219638D01*
X49526590Y-64065713D01*
X49395687Y-63934810D01*
X49241762Y-63831960D01*
X49070729Y-63761116D01*
X48889162Y-63725000D01*
X48704038Y-63725000D01*
X48522471Y-63761116D01*
X48358082Y-63829208D01*
X48384840Y-63789162D01*
X48455684Y-63618129D01*
X48491800Y-63436562D01*
X48491800Y-63251438D01*
X49279200Y-63251438D01*
X49279200Y-63436562D01*
X49315316Y-63618129D01*
X49386160Y-63789162D01*
X49489010Y-63943087D01*
X49619913Y-64073990D01*
X49773838Y-64176840D01*
X49944871Y-64247684D01*
X50126438Y-64283800D01*
X50311562Y-64283800D01*
X50493129Y-64247684D01*
X50664162Y-64176840D01*
X50818087Y-64073990D01*
X50948990Y-63943087D01*
X51051840Y-63789162D01*
X51122684Y-63618129D01*
X51158800Y-63436562D01*
X51158800Y-63251438D01*
X51122684Y-63069871D01*
X51051840Y-62898838D01*
X50948990Y-62744913D01*
X50818087Y-62614010D01*
X50664162Y-62511160D01*
X50493129Y-62440316D01*
X50311562Y-62404200D01*
X50126438Y-62404200D01*
X49944871Y-62440316D01*
X49773838Y-62511160D01*
X49619913Y-62614010D01*
X49489010Y-62744913D01*
X49386160Y-62898838D01*
X49315316Y-63069871D01*
X49279200Y-63251438D01*
X48491800Y-63251438D01*
X48455684Y-63069871D01*
X48384840Y-62898838D01*
X48281990Y-62744913D01*
X48151087Y-62614010D01*
X47997162Y-62511160D01*
X47826129Y-62440316D01*
X47644562Y-62404200D01*
X47459438Y-62404200D01*
X47277871Y-62440316D01*
X47106838Y-62511160D01*
X46952913Y-62614010D01*
X46822010Y-62744913D01*
X46719160Y-62898838D01*
X46648316Y-63069871D01*
X46612200Y-63251438D01*
X42111078Y-63251438D01*
X42110413Y-63248097D01*
X42045313Y-63090932D01*
X41950802Y-62949487D01*
X41861315Y-62860000D01*
X41920802Y-62800513D01*
X42015313Y-62659068D01*
X42080413Y-62501903D01*
X42113600Y-62335057D01*
X42113600Y-62164943D01*
X42080413Y-61998097D01*
X42015313Y-61840932D01*
X41920802Y-61699487D01*
X41800513Y-61579198D01*
X41669594Y-61491721D01*
X41760802Y-61400513D01*
X41783318Y-61366815D01*
X41819198Y-61420513D01*
X41939487Y-61540802D01*
X42080932Y-61635313D01*
X42238097Y-61700413D01*
X42404943Y-61733600D01*
X42575057Y-61733600D01*
X42741903Y-61700413D01*
X42899068Y-61635313D01*
X43040513Y-61540802D01*
X43160802Y-61420513D01*
X43255313Y-61279068D01*
X43320413Y-61121903D01*
X43353600Y-60955057D01*
X43353600Y-60784943D01*
X43320413Y-60618097D01*
X43255313Y-60460932D01*
X43160802Y-60319487D01*
X43080045Y-60238730D01*
X43123832Y-60194943D01*
X45416400Y-60194943D01*
X45416400Y-60365057D01*
X45449587Y-60531903D01*
X45514687Y-60689068D01*
X45609198Y-60830513D01*
X45729487Y-60950802D01*
X45870932Y-61045313D01*
X46028097Y-61110413D01*
X46194943Y-61143600D01*
X46365057Y-61143600D01*
X46531903Y-61110413D01*
X46689068Y-61045313D01*
X46830513Y-60950802D01*
X46950802Y-60830513D01*
X47045313Y-60689068D01*
X47110413Y-60531903D01*
X47143600Y-60365057D01*
X47143600Y-60194943D01*
X47137633Y-60164943D01*
X50476400Y-60164943D01*
X50476400Y-60335057D01*
X50509587Y-60501903D01*
X50574687Y-60659068D01*
X50669198Y-60800513D01*
X50789487Y-60920802D01*
X50930932Y-61015313D01*
X51088097Y-61080413D01*
X51254943Y-61113600D01*
X51425057Y-61113600D01*
X51591903Y-61080413D01*
X51749068Y-61015313D01*
X51890513Y-60920802D01*
X52010802Y-60800513D01*
X52014523Y-60794943D01*
X54036400Y-60794943D01*
X54036400Y-60965057D01*
X54069587Y-61131903D01*
X54134687Y-61289068D01*
X54229198Y-61430513D01*
X54349487Y-61550802D01*
X54490932Y-61645313D01*
X54648097Y-61710413D01*
X54814943Y-61743600D01*
X54985057Y-61743600D01*
X55151903Y-61710413D01*
X55309068Y-61645313D01*
X55450513Y-61550802D01*
X55570802Y-61430513D01*
X55576063Y-61422638D01*
X58855000Y-61422638D01*
X58855000Y-61607762D01*
X58891116Y-61789329D01*
X58961960Y-61960362D01*
X59064810Y-62114287D01*
X59100723Y-62150200D01*
X59064810Y-62186113D01*
X58961960Y-62340038D01*
X58891116Y-62511071D01*
X58855000Y-62692638D01*
X58855000Y-62877762D01*
X58891116Y-63059329D01*
X58961960Y-63230362D01*
X59064810Y-63384287D01*
X59075323Y-63394800D01*
X59064810Y-63405313D01*
X58961960Y-63559238D01*
X58891116Y-63730271D01*
X58855000Y-63911838D01*
X58855000Y-64096962D01*
X58891116Y-64278529D01*
X58961960Y-64449562D01*
X59064810Y-64603487D01*
X59195713Y-64734390D01*
X59349638Y-64837240D01*
X59520671Y-64908084D01*
X59702238Y-64944200D01*
X59887362Y-64944200D01*
X60068929Y-64908084D01*
X60125000Y-64884859D01*
X60181071Y-64908084D01*
X60362638Y-64944200D01*
X60547762Y-64944200D01*
X60729329Y-64908084D01*
X60785400Y-64884859D01*
X60841471Y-64908084D01*
X61023038Y-64944200D01*
X61208162Y-64944200D01*
X61389729Y-64908084D01*
X61560762Y-64837240D01*
X61714687Y-64734390D01*
X61845590Y-64603487D01*
X61948440Y-64449562D01*
X62019284Y-64278529D01*
X62055400Y-64096962D01*
X62055400Y-63911838D01*
X62019284Y-63730271D01*
X61948440Y-63559238D01*
X61845590Y-63405313D01*
X61835077Y-63394800D01*
X61845590Y-63384287D01*
X61948440Y-63230362D01*
X62019284Y-63059329D01*
X62055400Y-62877762D01*
X62055400Y-62692638D01*
X62019284Y-62511071D01*
X61948440Y-62340038D01*
X61845590Y-62186113D01*
X61809677Y-62150200D01*
X61845590Y-62114287D01*
X61920856Y-62001643D01*
X65143121Y-62001643D01*
X65143121Y-62171757D01*
X65176308Y-62338603D01*
X65241408Y-62495768D01*
X65335919Y-62637213D01*
X65456208Y-62757502D01*
X65597653Y-62852013D01*
X65754818Y-62917113D01*
X65921664Y-62950300D01*
X66091778Y-62950300D01*
X66258624Y-62917113D01*
X66415789Y-62852013D01*
X66557234Y-62757502D01*
X66649793Y-62664943D01*
X69136400Y-62664943D01*
X69136400Y-62835057D01*
X69169587Y-63001903D01*
X69234687Y-63159068D01*
X69329198Y-63300513D01*
X69449487Y-63420802D01*
X69590932Y-63515313D01*
X69748097Y-63580413D01*
X69914943Y-63613600D01*
X70085057Y-63613600D01*
X70251903Y-63580413D01*
X70409068Y-63515313D01*
X70550513Y-63420802D01*
X70670802Y-63300513D01*
X70765313Y-63159068D01*
X70830413Y-63001903D01*
X70863600Y-62835057D01*
X70863600Y-62664943D01*
X70830413Y-62498097D01*
X70765313Y-62340932D01*
X70670802Y-62199487D01*
X70550513Y-62079198D01*
X70409068Y-61984687D01*
X70251903Y-61919587D01*
X70085057Y-61886400D01*
X69914943Y-61886400D01*
X69748097Y-61919587D01*
X69590932Y-61984687D01*
X69449487Y-62079198D01*
X69329198Y-62199487D01*
X69234687Y-62340932D01*
X69169587Y-62498097D01*
X69136400Y-62664943D01*
X66649793Y-62664943D01*
X66677523Y-62637213D01*
X66772034Y-62495768D01*
X66837134Y-62338603D01*
X66870321Y-62171757D01*
X66870321Y-62001643D01*
X66837134Y-61834797D01*
X66772034Y-61677632D01*
X66677523Y-61536187D01*
X66557234Y-61415898D01*
X66415789Y-61321387D01*
X66258624Y-61256287D01*
X66091778Y-61223100D01*
X65921664Y-61223100D01*
X65754818Y-61256287D01*
X65597653Y-61321387D01*
X65456208Y-61415898D01*
X65335919Y-61536187D01*
X65241408Y-61677632D01*
X65176308Y-61834797D01*
X65143121Y-62001643D01*
X61920856Y-62001643D01*
X61948440Y-61960362D01*
X62019284Y-61789329D01*
X62055400Y-61607762D01*
X62055400Y-61422638D01*
X62019284Y-61241071D01*
X61948440Y-61070038D01*
X61878218Y-60964943D01*
X67396400Y-60964943D01*
X67396400Y-61135057D01*
X67429587Y-61301903D01*
X67494687Y-61459068D01*
X67589198Y-61600513D01*
X67709487Y-61720802D01*
X67850932Y-61815313D01*
X68008097Y-61880413D01*
X68174943Y-61913600D01*
X68345057Y-61913600D01*
X68511903Y-61880413D01*
X68669068Y-61815313D01*
X68810513Y-61720802D01*
X68930802Y-61600513D01*
X69025313Y-61459068D01*
X69090413Y-61301903D01*
X69123600Y-61135057D01*
X69123600Y-60964943D01*
X69090413Y-60798097D01*
X69025313Y-60640932D01*
X68930802Y-60499487D01*
X68810513Y-60379198D01*
X68669068Y-60284687D01*
X68511903Y-60219587D01*
X68345057Y-60186400D01*
X68174943Y-60186400D01*
X68008097Y-60219587D01*
X67850932Y-60284687D01*
X67709487Y-60379198D01*
X67589198Y-60499487D01*
X67494687Y-60640932D01*
X67429587Y-60798097D01*
X67396400Y-60964943D01*
X61878218Y-60964943D01*
X61845590Y-60916113D01*
X61714687Y-60785210D01*
X61560762Y-60682360D01*
X61389729Y-60611516D01*
X61208162Y-60575400D01*
X61023038Y-60575400D01*
X60841471Y-60611516D01*
X60785400Y-60634741D01*
X60729329Y-60611516D01*
X60547762Y-60575400D01*
X60362638Y-60575400D01*
X60181071Y-60611516D01*
X60125000Y-60634741D01*
X60068929Y-60611516D01*
X59887362Y-60575400D01*
X59702238Y-60575400D01*
X59520671Y-60611516D01*
X59349638Y-60682360D01*
X59195713Y-60785210D01*
X59064810Y-60916113D01*
X58961960Y-61070038D01*
X58891116Y-61241071D01*
X58855000Y-61422638D01*
X55576063Y-61422638D01*
X55665313Y-61289068D01*
X55730413Y-61131903D01*
X55763600Y-60965057D01*
X55763600Y-60794943D01*
X55730413Y-60628097D01*
X55665313Y-60470932D01*
X55570802Y-60329487D01*
X55450513Y-60209198D01*
X55309068Y-60114687D01*
X55151903Y-60049587D01*
X54985057Y-60016400D01*
X54814943Y-60016400D01*
X54648097Y-60049587D01*
X54490932Y-60114687D01*
X54349487Y-60209198D01*
X54229198Y-60329487D01*
X54134687Y-60470932D01*
X54069587Y-60628097D01*
X54036400Y-60794943D01*
X52014523Y-60794943D01*
X52105313Y-60659068D01*
X52170413Y-60501903D01*
X52203600Y-60335057D01*
X52203600Y-60164943D01*
X52170413Y-59998097D01*
X52105313Y-59840932D01*
X52010802Y-59699487D01*
X51890513Y-59579198D01*
X51749068Y-59484687D01*
X51591903Y-59419587D01*
X51425057Y-59386400D01*
X51254943Y-59386400D01*
X51088097Y-59419587D01*
X50930932Y-59484687D01*
X50789487Y-59579198D01*
X50669198Y-59699487D01*
X50574687Y-59840932D01*
X50509587Y-59998097D01*
X50476400Y-60164943D01*
X47137633Y-60164943D01*
X47110413Y-60028097D01*
X47045313Y-59870932D01*
X46950802Y-59729487D01*
X46830513Y-59609198D01*
X46689068Y-59514687D01*
X46531903Y-59449587D01*
X46365057Y-59416400D01*
X46194943Y-59416400D01*
X46028097Y-59449587D01*
X45870932Y-59514687D01*
X45729487Y-59609198D01*
X45609198Y-59729487D01*
X45514687Y-59870932D01*
X45449587Y-60028097D01*
X45416400Y-60194943D01*
X43123832Y-60194943D01*
X43148262Y-60170513D01*
X43242773Y-60029068D01*
X43307873Y-59871903D01*
X43341060Y-59705057D01*
X43341060Y-59534943D01*
X43307873Y-59368097D01*
X43242773Y-59210932D01*
X43148262Y-59069487D01*
X43027973Y-58949198D01*
X42886528Y-58854687D01*
X42729363Y-58789587D01*
X42562517Y-58756400D01*
X42392403Y-58756400D01*
X42225557Y-58789587D01*
X42068392Y-58854687D01*
X41926947Y-58949198D01*
X41806658Y-59069487D01*
X41712147Y-59210932D01*
X41647047Y-59368097D01*
X41613860Y-59534943D01*
X41613860Y-59705057D01*
X41647047Y-59871903D01*
X41712147Y-60029068D01*
X41806658Y-60170513D01*
X41887415Y-60251270D01*
X41819198Y-60319487D01*
X41796682Y-60353185D01*
X41760802Y-60299487D01*
X41640513Y-60179198D01*
X41499068Y-60084687D01*
X41341903Y-60019587D01*
X41175057Y-59986400D01*
X41004943Y-59986400D01*
X40838097Y-60019587D01*
X40680932Y-60084687D01*
X40539487Y-60179198D01*
X40493730Y-60224955D01*
X40447973Y-60179198D01*
X40306528Y-60084687D01*
X40149363Y-60019587D01*
X39982517Y-59986400D01*
X39812403Y-59986400D01*
X39645557Y-60019587D01*
X39488392Y-60084687D01*
X39346947Y-60179198D01*
X39226658Y-60299487D01*
X39132147Y-60440932D01*
X39067047Y-60598097D01*
X39033860Y-60764943D01*
X35481130Y-60764943D01*
X35470802Y-60749487D01*
X35350513Y-60629198D01*
X35209068Y-60534687D01*
X35051903Y-60469587D01*
X34885057Y-60436400D01*
X34714943Y-60436400D01*
X34548097Y-60469587D01*
X34450000Y-60510220D01*
X34351903Y-60469587D01*
X34185057Y-60436400D01*
X34014943Y-60436400D01*
X33848097Y-60469587D01*
X33690932Y-60534687D01*
X33549487Y-60629198D01*
X33429198Y-60749487D01*
X33334687Y-60890932D01*
X33269587Y-61048097D01*
X33236400Y-61214943D01*
X12660000Y-61214943D01*
X12660000Y-57814943D01*
X27436400Y-57814943D01*
X27436400Y-57985057D01*
X27469587Y-58151903D01*
X27534687Y-58309068D01*
X27629198Y-58450513D01*
X27749487Y-58570802D01*
X27890932Y-58665313D01*
X28048097Y-58730413D01*
X28214943Y-58763600D01*
X28385057Y-58763600D01*
X28551903Y-58730413D01*
X28709068Y-58665313D01*
X28750000Y-58637963D01*
X28790932Y-58665313D01*
X28948097Y-58730413D01*
X29114943Y-58763600D01*
X29285057Y-58763600D01*
X29451903Y-58730413D01*
X29609068Y-58665313D01*
X29611374Y-58663772D01*
X29613680Y-58665313D01*
X29770845Y-58730413D01*
X29937691Y-58763600D01*
X30107805Y-58763600D01*
X30274651Y-58730413D01*
X30361370Y-58694493D01*
X30448089Y-58730413D01*
X30614935Y-58763600D01*
X30785049Y-58763600D01*
X30951895Y-58730413D01*
X31109060Y-58665313D01*
X31250505Y-58570802D01*
X31370794Y-58450513D01*
X31465305Y-58309068D01*
X31511543Y-58197438D01*
X68900200Y-58197438D01*
X68900200Y-58382562D01*
X68936316Y-58564129D01*
X69007160Y-58735162D01*
X69110010Y-58889087D01*
X69240913Y-59019990D01*
X69394838Y-59122840D01*
X69565871Y-59193684D01*
X69747438Y-59229800D01*
X69932562Y-59229800D01*
X70114129Y-59193684D01*
X70285162Y-59122840D01*
X70439087Y-59019990D01*
X70569990Y-58889087D01*
X70672840Y-58735162D01*
X70743684Y-58564129D01*
X70779800Y-58382562D01*
X70779800Y-58197438D01*
X70743684Y-58015871D01*
X70672840Y-57844838D01*
X70569990Y-57690913D01*
X70439087Y-57560010D01*
X70285162Y-57457160D01*
X70114129Y-57386316D01*
X69932562Y-57350200D01*
X69747438Y-57350200D01*
X69565871Y-57386316D01*
X69394838Y-57457160D01*
X69240913Y-57560010D01*
X69110010Y-57690913D01*
X69007160Y-57844838D01*
X68936316Y-58015871D01*
X68900200Y-58197438D01*
X31511543Y-58197438D01*
X31530405Y-58151903D01*
X31563592Y-57985057D01*
X31563592Y-57814943D01*
X31530405Y-57648097D01*
X31465305Y-57490932D01*
X31370794Y-57349487D01*
X31250505Y-57229198D01*
X31109060Y-57134687D01*
X30951895Y-57069587D01*
X30785049Y-57036400D01*
X30614935Y-57036400D01*
X30448089Y-57069587D01*
X30361370Y-57105507D01*
X30274651Y-57069587D01*
X30107805Y-57036400D01*
X29937691Y-57036400D01*
X29770845Y-57069587D01*
X29613680Y-57134687D01*
X29611374Y-57136228D01*
X29609068Y-57134687D01*
X29451903Y-57069587D01*
X29285057Y-57036400D01*
X29114943Y-57036400D01*
X28948097Y-57069587D01*
X28790932Y-57134687D01*
X28750000Y-57162037D01*
X28709068Y-57134687D01*
X28551903Y-57069587D01*
X28385057Y-57036400D01*
X28214943Y-57036400D01*
X28048097Y-57069587D01*
X27890932Y-57134687D01*
X27749487Y-57229198D01*
X27629198Y-57349487D01*
X27534687Y-57490932D01*
X27469587Y-57648097D01*
X27436400Y-57814943D01*
X12660000Y-57814943D01*
X12660000Y-54007438D01*
X23960200Y-54007438D01*
X23960200Y-54192562D01*
X23996316Y-54374129D01*
X24067160Y-54545162D01*
X24170010Y-54699087D01*
X24300913Y-54829990D01*
X24454838Y-54932840D01*
X24625871Y-55003684D01*
X24807438Y-55039800D01*
X24992562Y-55039800D01*
X25174129Y-55003684D01*
X25345162Y-54932840D01*
X25499087Y-54829990D01*
X25629990Y-54699087D01*
X25732840Y-54545162D01*
X25761925Y-54474943D01*
X37876400Y-54474943D01*
X37876400Y-54645057D01*
X37909587Y-54811903D01*
X37974687Y-54969068D01*
X38069198Y-55110513D01*
X38189487Y-55230802D01*
X38330932Y-55325313D01*
X38488097Y-55390413D01*
X38654943Y-55423600D01*
X38825057Y-55423600D01*
X38991903Y-55390413D01*
X39149068Y-55325313D01*
X39290513Y-55230802D01*
X39340000Y-55181315D01*
X39348685Y-55190000D01*
X39239198Y-55299487D01*
X39144687Y-55440932D01*
X39079587Y-55598097D01*
X39046400Y-55764943D01*
X39046400Y-55935057D01*
X39079587Y-56101903D01*
X39144687Y-56259068D01*
X39239198Y-56400513D01*
X39359487Y-56520802D01*
X39500932Y-56615313D01*
X39658097Y-56680413D01*
X39824943Y-56713600D01*
X39995057Y-56713600D01*
X40161903Y-56680413D01*
X40319068Y-56615313D01*
X40460513Y-56520802D01*
X40570000Y-56411315D01*
X40639487Y-56480802D01*
X40780932Y-56575313D01*
X40938097Y-56640413D01*
X41104943Y-56673600D01*
X41275057Y-56673600D01*
X41441903Y-56640413D01*
X41599068Y-56575313D01*
X41740513Y-56480802D01*
X41840000Y-56381315D01*
X41939487Y-56480802D01*
X42080932Y-56575313D01*
X42238097Y-56640413D01*
X42404943Y-56673600D01*
X42575057Y-56673600D01*
X42741903Y-56640413D01*
X42899068Y-56575313D01*
X43040513Y-56480802D01*
X43160802Y-56360513D01*
X43255313Y-56219068D01*
X43320413Y-56061903D01*
X43353600Y-55895057D01*
X43353600Y-55724943D01*
X43336195Y-55637438D01*
X52940200Y-55637438D01*
X52940200Y-55822562D01*
X52976316Y-56004129D01*
X53047160Y-56175162D01*
X53150010Y-56329087D01*
X53280913Y-56459990D01*
X53434838Y-56562840D01*
X53605871Y-56633684D01*
X53787438Y-56669800D01*
X53972562Y-56669800D01*
X54154129Y-56633684D01*
X54325162Y-56562840D01*
X54479087Y-56459990D01*
X54609990Y-56329087D01*
X54712840Y-56175162D01*
X54783684Y-56004129D01*
X54819800Y-55822562D01*
X54819800Y-55637438D01*
X54783684Y-55455871D01*
X54712840Y-55284838D01*
X54609990Y-55130913D01*
X54479087Y-55000010D01*
X54325162Y-54897160D01*
X54154129Y-54826316D01*
X53972562Y-54790200D01*
X53787438Y-54790200D01*
X53605871Y-54826316D01*
X53434838Y-54897160D01*
X53280913Y-55000010D01*
X53150010Y-55130913D01*
X53047160Y-55284838D01*
X52976316Y-55455871D01*
X52940200Y-55637438D01*
X43336195Y-55637438D01*
X43320413Y-55558097D01*
X43255313Y-55400932D01*
X43160802Y-55259487D01*
X43040513Y-55139198D01*
X42899068Y-55044687D01*
X42741903Y-54979587D01*
X42575057Y-54946400D01*
X42404943Y-54946400D01*
X42238097Y-54979587D01*
X42080932Y-55044687D01*
X41939487Y-55139198D01*
X41840000Y-55238685D01*
X41740513Y-55139198D01*
X41599068Y-55044687D01*
X41441903Y-54979587D01*
X41275057Y-54946400D01*
X41104943Y-54946400D01*
X40938097Y-54979587D01*
X40780932Y-55044687D01*
X40639487Y-55139198D01*
X40530000Y-55248685D01*
X40501315Y-55220000D01*
X40610802Y-55110513D01*
X40705313Y-54969068D01*
X40770413Y-54811903D01*
X40803600Y-54645057D01*
X40803600Y-54474943D01*
X40770413Y-54308097D01*
X40716340Y-54177553D01*
X40868097Y-54240413D01*
X41034943Y-54273600D01*
X41205057Y-54273600D01*
X41371903Y-54240413D01*
X41529068Y-54175313D01*
X41670513Y-54080802D01*
X41706372Y-54044943D01*
X59846400Y-54044943D01*
X59846400Y-54215057D01*
X59879587Y-54381903D01*
X59905723Y-54445000D01*
X59879587Y-54508097D01*
X59846400Y-54674943D01*
X59846400Y-54845057D01*
X59879587Y-55011903D01*
X59926434Y-55125001D01*
X59879587Y-55238099D01*
X59846400Y-55404945D01*
X59846400Y-55575059D01*
X59879587Y-55741905D01*
X59940930Y-55890001D01*
X59879587Y-56038097D01*
X59846400Y-56204943D01*
X59846400Y-56375057D01*
X59879587Y-56541903D01*
X59944687Y-56699068D01*
X59982060Y-56755000D01*
X59944687Y-56810932D01*
X59879587Y-56968097D01*
X59846400Y-57134943D01*
X59846400Y-57305057D01*
X59879587Y-57471903D01*
X59944687Y-57629068D01*
X60039198Y-57770513D01*
X60159487Y-57890802D01*
X60300932Y-57985313D01*
X60458097Y-58050413D01*
X60624943Y-58083600D01*
X60795057Y-58083600D01*
X60961903Y-58050413D01*
X61119068Y-57985313D01*
X61260513Y-57890802D01*
X61380802Y-57770513D01*
X61475313Y-57629068D01*
X61540413Y-57471903D01*
X61573600Y-57305057D01*
X61573600Y-57134943D01*
X61540413Y-56968097D01*
X61475313Y-56810932D01*
X61437940Y-56755000D01*
X61475313Y-56699068D01*
X61540413Y-56541903D01*
X61573600Y-56375057D01*
X61573600Y-56204943D01*
X61540413Y-56038097D01*
X61479070Y-55890001D01*
X61540413Y-55741905D01*
X61573600Y-55575059D01*
X61573600Y-55404945D01*
X61540413Y-55238099D01*
X61493566Y-55125001D01*
X61540413Y-55011903D01*
X61573600Y-54845057D01*
X61573600Y-54674943D01*
X61540413Y-54508097D01*
X61514277Y-54445000D01*
X61540413Y-54381903D01*
X61573600Y-54215057D01*
X61573600Y-54044943D01*
X61540413Y-53878097D01*
X61475313Y-53720932D01*
X61380802Y-53579487D01*
X61260513Y-53459198D01*
X61119068Y-53364687D01*
X60961903Y-53299587D01*
X60795057Y-53266400D01*
X60624943Y-53266400D01*
X60458097Y-53299587D01*
X60300932Y-53364687D01*
X60159487Y-53459198D01*
X60039198Y-53579487D01*
X59944687Y-53720932D01*
X59879587Y-53878097D01*
X59846400Y-54044943D01*
X41706372Y-54044943D01*
X41790802Y-53960513D01*
X41885313Y-53819068D01*
X41950413Y-53661903D01*
X41983600Y-53495057D01*
X41983600Y-53324943D01*
X41950413Y-53158097D01*
X41885313Y-53000932D01*
X41790802Y-52859487D01*
X41670513Y-52739198D01*
X41529068Y-52644687D01*
X41371903Y-52579587D01*
X41205057Y-52546400D01*
X41034943Y-52546400D01*
X40868097Y-52579587D01*
X40710932Y-52644687D01*
X40569487Y-52739198D01*
X40530000Y-52778685D01*
X40440513Y-52689198D01*
X40299068Y-52594687D01*
X40141903Y-52529587D01*
X39975057Y-52496400D01*
X39804943Y-52496400D01*
X39638097Y-52529587D01*
X39480932Y-52594687D01*
X39339487Y-52689198D01*
X39219198Y-52809487D01*
X39124687Y-52950932D01*
X39059587Y-53108097D01*
X39026400Y-53274943D01*
X39026400Y-53445057D01*
X39059587Y-53611903D01*
X39124687Y-53769068D01*
X39139026Y-53790527D01*
X38991903Y-53729587D01*
X38825057Y-53696400D01*
X38654943Y-53696400D01*
X38488097Y-53729587D01*
X38330932Y-53794687D01*
X38189487Y-53889198D01*
X38069198Y-54009487D01*
X37974687Y-54150932D01*
X37909587Y-54308097D01*
X37876400Y-54474943D01*
X25761925Y-54474943D01*
X25803684Y-54374129D01*
X25839800Y-54192562D01*
X25839800Y-54007438D01*
X25803684Y-53825871D01*
X25732840Y-53654838D01*
X25629990Y-53500913D01*
X25499087Y-53370010D01*
X25345162Y-53267160D01*
X25174129Y-53196316D01*
X24992562Y-53160200D01*
X24807438Y-53160200D01*
X24625871Y-53196316D01*
X24454838Y-53267160D01*
X24300913Y-53370010D01*
X24170010Y-53500913D01*
X24067160Y-53654838D01*
X23996316Y-53825871D01*
X23960200Y-54007438D01*
X12660000Y-54007438D01*
X12660000Y-51307438D01*
X47860200Y-51307438D01*
X47860200Y-51492562D01*
X47896316Y-51674129D01*
X47967160Y-51845162D01*
X48070010Y-51999087D01*
X48200913Y-52129990D01*
X48354838Y-52232840D01*
X48525871Y-52303684D01*
X48707438Y-52339800D01*
X48892562Y-52339800D01*
X49074129Y-52303684D01*
X49245162Y-52232840D01*
X49399087Y-52129990D01*
X49529990Y-51999087D01*
X49632840Y-51845162D01*
X49703684Y-51674129D01*
X49739800Y-51492562D01*
X49739800Y-51307438D01*
X49703684Y-51125871D01*
X49632840Y-50954838D01*
X49529990Y-50800913D01*
X49399087Y-50670010D01*
X49245162Y-50567160D01*
X49074129Y-50496316D01*
X48892562Y-50460200D01*
X48707438Y-50460200D01*
X48525871Y-50496316D01*
X48354838Y-50567160D01*
X48200913Y-50670010D01*
X48070010Y-50800913D01*
X47967160Y-50954838D01*
X47896316Y-51125871D01*
X47860200Y-51307438D01*
X12660000Y-51307438D01*
X12660000Y-34695098D01*
X23105000Y-34695098D01*
X23105000Y-35164902D01*
X23196654Y-35625679D01*
X23376440Y-36059721D01*
X23637450Y-36450349D01*
X23969651Y-36782550D01*
X24360279Y-37043560D01*
X24664500Y-37169572D01*
X24664501Y-45830427D01*
X24360279Y-45956440D01*
X23969651Y-46217450D01*
X23637450Y-46549651D01*
X23376440Y-46940279D01*
X23196654Y-47374321D01*
X23105000Y-47835098D01*
X23105000Y-48304902D01*
X23196654Y-48765679D01*
X23376440Y-49199721D01*
X23637450Y-49590349D01*
X23969651Y-49922550D01*
X24360279Y-50183560D01*
X24794321Y-50363346D01*
X25255098Y-50455000D01*
X25724902Y-50455000D01*
X26185679Y-50363346D01*
X26619721Y-50183560D01*
X27010349Y-49922550D01*
X27342550Y-49590349D01*
X27603560Y-49199721D01*
X27783346Y-48765679D01*
X27875000Y-48304902D01*
X27875000Y-47835098D01*
X27783346Y-47374321D01*
X27603560Y-46940279D01*
X27342550Y-46549651D01*
X27010349Y-46217450D01*
X26633378Y-45965565D01*
X27414040Y-45965565D01*
X27481020Y-46205656D01*
X27730048Y-46322756D01*
X27997135Y-46389023D01*
X28272017Y-46401910D01*
X28544133Y-46360922D01*
X28803023Y-46267636D01*
X28918980Y-46205656D01*
X28985960Y-45965565D01*
X28200000Y-45179605D01*
X27414040Y-45965565D01*
X26633378Y-45965565D01*
X26619721Y-45956440D01*
X26315500Y-45830428D01*
X26315500Y-45072017D01*
X26798090Y-45072017D01*
X26839078Y-45344133D01*
X26932364Y-45603023D01*
X26994344Y-45718980D01*
X27234435Y-45785960D01*
X28020395Y-45000000D01*
X28379605Y-45000000D01*
X29165565Y-45785960D01*
X29405656Y-45718980D01*
X29445172Y-45634943D01*
X66700400Y-45634943D01*
X66700400Y-45805057D01*
X66733587Y-45971903D01*
X66798687Y-46129068D01*
X66893198Y-46270513D01*
X67013487Y-46390802D01*
X67154932Y-46485313D01*
X67312097Y-46550413D01*
X67478943Y-46583600D01*
X67649057Y-46583600D01*
X67815903Y-46550413D01*
X67973068Y-46485313D01*
X68114513Y-46390802D01*
X68234802Y-46270513D01*
X68329313Y-46129068D01*
X68394413Y-45971903D01*
X68427600Y-45805057D01*
X68427600Y-45634943D01*
X68409699Y-45544943D01*
X71846400Y-45544943D01*
X71846400Y-45715057D01*
X71879587Y-45881903D01*
X71944687Y-46039068D01*
X72039198Y-46180513D01*
X72159487Y-46300802D01*
X72300932Y-46395313D01*
X72458097Y-46460413D01*
X72624943Y-46493600D01*
X72795057Y-46493600D01*
X72961903Y-46460413D01*
X73119068Y-46395313D01*
X73260513Y-46300802D01*
X73380802Y-46180513D01*
X73475313Y-46039068D01*
X73540413Y-45881903D01*
X73573600Y-45715057D01*
X73573600Y-45544943D01*
X73540413Y-45378097D01*
X73475313Y-45220932D01*
X73380802Y-45079487D01*
X73260513Y-44959198D01*
X73119068Y-44864687D01*
X72961903Y-44799587D01*
X72795057Y-44766400D01*
X72624943Y-44766400D01*
X72458097Y-44799587D01*
X72300932Y-44864687D01*
X72159487Y-44959198D01*
X72039198Y-45079487D01*
X71944687Y-45220932D01*
X71879587Y-45378097D01*
X71846400Y-45544943D01*
X68409699Y-45544943D01*
X68394413Y-45468097D01*
X68329313Y-45310932D01*
X68234802Y-45169487D01*
X68114513Y-45049198D01*
X67973068Y-44954687D01*
X67815903Y-44889587D01*
X67649057Y-44856400D01*
X67478943Y-44856400D01*
X67312097Y-44889587D01*
X67154932Y-44954687D01*
X67013487Y-45049198D01*
X66893198Y-45169487D01*
X66798687Y-45310932D01*
X66733587Y-45468097D01*
X66700400Y-45634943D01*
X29445172Y-45634943D01*
X29522756Y-45469952D01*
X29589023Y-45202865D01*
X29601910Y-44927983D01*
X29560922Y-44655867D01*
X29467636Y-44396977D01*
X29405656Y-44281020D01*
X29165565Y-44214040D01*
X28379605Y-45000000D01*
X28020395Y-45000000D01*
X27234435Y-44214040D01*
X26994344Y-44281020D01*
X26877244Y-44530048D01*
X26810977Y-44797135D01*
X26798090Y-45072017D01*
X26315500Y-45072017D01*
X26315500Y-37169572D01*
X26619721Y-37043560D01*
X26965991Y-36812189D01*
X26907463Y-36883506D01*
X26848498Y-36993820D01*
X26812188Y-37113518D01*
X26799928Y-37238000D01*
X26799928Y-38762000D01*
X26812188Y-38886482D01*
X26848498Y-39006180D01*
X26907463Y-39116494D01*
X26986815Y-39213185D01*
X27083506Y-39292537D01*
X27193820Y-39351502D01*
X27313518Y-39387812D01*
X27345292Y-39390941D01*
X27309465Y-39414880D01*
X27114880Y-39609465D01*
X26961995Y-39838273D01*
X26856686Y-40092510D01*
X26803000Y-40362408D01*
X26803000Y-40637592D01*
X26856686Y-40907490D01*
X26961995Y-41161727D01*
X27114880Y-41390535D01*
X27224345Y-41500000D01*
X27114880Y-41609465D01*
X26961995Y-41838273D01*
X26856686Y-42092510D01*
X26803000Y-42362408D01*
X26803000Y-42637592D01*
X26856686Y-42907490D01*
X26961995Y-43161727D01*
X27114880Y-43390535D01*
X27309465Y-43585120D01*
X27538273Y-43738005D01*
X27565401Y-43749242D01*
X27481020Y-43794344D01*
X27414040Y-44034435D01*
X28200000Y-44820395D01*
X28985960Y-44034435D01*
X28918980Y-43794344D01*
X28828467Y-43751782D01*
X28861727Y-43738005D01*
X29090535Y-43585120D01*
X29180712Y-43494943D01*
X71846400Y-43494943D01*
X71846400Y-43665057D01*
X71879587Y-43831903D01*
X71944687Y-43989068D01*
X72039198Y-44130513D01*
X72159487Y-44250802D01*
X72300932Y-44345313D01*
X72458097Y-44410413D01*
X72624943Y-44443600D01*
X72795057Y-44443600D01*
X72961903Y-44410413D01*
X73119068Y-44345313D01*
X73260513Y-44250802D01*
X73380802Y-44130513D01*
X73475313Y-43989068D01*
X73540413Y-43831903D01*
X73573600Y-43665057D01*
X73573600Y-43494943D01*
X73540413Y-43328097D01*
X73475313Y-43170932D01*
X73380802Y-43029487D01*
X73260513Y-42909198D01*
X73119068Y-42814687D01*
X72961903Y-42749587D01*
X72795057Y-42716400D01*
X72624943Y-42716400D01*
X72458097Y-42749587D01*
X72300932Y-42814687D01*
X72159487Y-42909198D01*
X72039198Y-43029487D01*
X71944687Y-43170932D01*
X71879587Y-43328097D01*
X71846400Y-43494943D01*
X29180712Y-43494943D01*
X29285120Y-43390535D01*
X29438005Y-43161727D01*
X29543314Y-42907490D01*
X29597000Y-42637592D01*
X29597000Y-42362408D01*
X29543800Y-42094949D01*
X61060200Y-42094949D01*
X61060200Y-42280073D01*
X61096316Y-42461640D01*
X61167160Y-42632673D01*
X61270010Y-42786598D01*
X61400913Y-42917501D01*
X61554838Y-43020351D01*
X61725871Y-43091195D01*
X61907438Y-43127311D01*
X62092562Y-43127311D01*
X62274129Y-43091195D01*
X62445162Y-43020351D01*
X62599087Y-42917501D01*
X62729990Y-42786598D01*
X62832840Y-42632673D01*
X62903684Y-42461640D01*
X62939800Y-42280073D01*
X62939800Y-42094949D01*
X62903684Y-41913382D01*
X62832840Y-41742349D01*
X62729990Y-41588424D01*
X62599087Y-41457521D01*
X62445162Y-41354671D01*
X62274129Y-41283827D01*
X62092562Y-41247711D01*
X61907438Y-41247711D01*
X61725871Y-41283827D01*
X61554838Y-41354671D01*
X61400913Y-41457521D01*
X61270010Y-41588424D01*
X61167160Y-41742349D01*
X61096316Y-41913382D01*
X61060200Y-42094949D01*
X29543800Y-42094949D01*
X29543314Y-42092510D01*
X29438005Y-41838273D01*
X29285120Y-41609465D01*
X29175655Y-41500000D01*
X29285120Y-41390535D01*
X29438005Y-41161727D01*
X29478922Y-41062943D01*
X65684400Y-41062943D01*
X65684400Y-41233057D01*
X65717587Y-41399903D01*
X65782687Y-41557068D01*
X65877198Y-41698513D01*
X65997487Y-41818802D01*
X66138932Y-41913313D01*
X66296097Y-41978413D01*
X66462943Y-42011600D01*
X66633057Y-42011600D01*
X66799903Y-41978413D01*
X66957068Y-41913313D01*
X67098513Y-41818802D01*
X67218802Y-41698513D01*
X67313313Y-41557068D01*
X67378413Y-41399903D01*
X67411600Y-41233057D01*
X67411600Y-41164943D01*
X71846400Y-41164943D01*
X71846400Y-41335057D01*
X71879587Y-41501903D01*
X71944687Y-41659068D01*
X72039198Y-41800513D01*
X72159487Y-41920802D01*
X72300932Y-42015313D01*
X72458097Y-42080413D01*
X72624943Y-42113600D01*
X72795057Y-42113600D01*
X72961903Y-42080413D01*
X73119068Y-42015313D01*
X73260513Y-41920802D01*
X73380802Y-41800513D01*
X73475313Y-41659068D01*
X73540413Y-41501903D01*
X73573600Y-41335057D01*
X73573600Y-41164943D01*
X73540413Y-40998097D01*
X73475313Y-40840932D01*
X73380802Y-40699487D01*
X73260513Y-40579198D01*
X73119068Y-40484687D01*
X72961903Y-40419587D01*
X72795057Y-40386400D01*
X72624943Y-40386400D01*
X72458097Y-40419587D01*
X72300932Y-40484687D01*
X72159487Y-40579198D01*
X72039198Y-40699487D01*
X71944687Y-40840932D01*
X71879587Y-40998097D01*
X71846400Y-41164943D01*
X67411600Y-41164943D01*
X67411600Y-41062943D01*
X67378413Y-40896097D01*
X67313313Y-40738932D01*
X67218802Y-40597487D01*
X67098513Y-40477198D01*
X66957068Y-40382687D01*
X66799903Y-40317587D01*
X66633057Y-40284400D01*
X66462943Y-40284400D01*
X66296097Y-40317587D01*
X66138932Y-40382687D01*
X65997487Y-40477198D01*
X65877198Y-40597487D01*
X65782687Y-40738932D01*
X65717587Y-40896097D01*
X65684400Y-41062943D01*
X29478922Y-41062943D01*
X29543314Y-40907490D01*
X29597000Y-40637592D01*
X29597000Y-40362408D01*
X29543314Y-40092510D01*
X29438005Y-39838273D01*
X29285120Y-39609465D01*
X29090535Y-39414880D01*
X29054708Y-39390941D01*
X29086482Y-39387812D01*
X29206180Y-39351502D01*
X29311992Y-39294943D01*
X71846400Y-39294943D01*
X71846400Y-39465057D01*
X71879587Y-39631903D01*
X71944687Y-39789068D01*
X72039198Y-39930513D01*
X72159487Y-40050802D01*
X72300932Y-40145313D01*
X72458097Y-40210413D01*
X72624943Y-40243600D01*
X72795057Y-40243600D01*
X72961903Y-40210413D01*
X73119068Y-40145313D01*
X73260513Y-40050802D01*
X73380802Y-39930513D01*
X73475313Y-39789068D01*
X73540413Y-39631903D01*
X73573600Y-39465057D01*
X73573600Y-39294943D01*
X73540413Y-39128097D01*
X73475313Y-38970932D01*
X73380802Y-38829487D01*
X73260513Y-38709198D01*
X73119068Y-38614687D01*
X72961903Y-38549587D01*
X72795057Y-38516400D01*
X72624943Y-38516400D01*
X72458097Y-38549587D01*
X72300932Y-38614687D01*
X72159487Y-38709198D01*
X72039198Y-38829487D01*
X71944687Y-38970932D01*
X71879587Y-39128097D01*
X71846400Y-39294943D01*
X29311992Y-39294943D01*
X29316494Y-39292537D01*
X29413185Y-39213185D01*
X29492537Y-39116494D01*
X29551502Y-39006180D01*
X29587812Y-38886482D01*
X29600072Y-38762000D01*
X29600072Y-37707438D01*
X62460200Y-37707438D01*
X62460200Y-37892562D01*
X62496316Y-38074129D01*
X62567160Y-38245162D01*
X62670010Y-38399087D01*
X62800913Y-38529990D01*
X62954838Y-38632840D01*
X63125871Y-38703684D01*
X63307438Y-38739800D01*
X63492562Y-38739800D01*
X63674129Y-38703684D01*
X63845162Y-38632840D01*
X63999087Y-38529990D01*
X64129990Y-38399087D01*
X64232840Y-38245162D01*
X64303684Y-38074129D01*
X64339800Y-37892562D01*
X64339800Y-37707438D01*
X64303684Y-37525871D01*
X64232840Y-37354838D01*
X64129990Y-37200913D01*
X63999087Y-37070010D01*
X63845162Y-36967160D01*
X63674129Y-36896316D01*
X63492562Y-36860200D01*
X63307438Y-36860200D01*
X63125871Y-36896316D01*
X62954838Y-36967160D01*
X62800913Y-37070010D01*
X62670010Y-37200913D01*
X62567160Y-37354838D01*
X62496316Y-37525871D01*
X62460200Y-37707438D01*
X29600072Y-37707438D01*
X29600072Y-37238000D01*
X29587812Y-37113518D01*
X29551502Y-36993820D01*
X29492537Y-36883506D01*
X29413185Y-36786815D01*
X29316494Y-36707463D01*
X29206180Y-36648498D01*
X29086482Y-36612188D01*
X28962000Y-36599928D01*
X27438000Y-36599928D01*
X27313518Y-36612188D01*
X27193820Y-36648498D01*
X27087652Y-36705247D01*
X27342550Y-36450349D01*
X27603560Y-36059721D01*
X27783346Y-35625679D01*
X27875000Y-35164902D01*
X27875000Y-34695098D01*
X27783346Y-34234321D01*
X27603560Y-33800279D01*
X27342550Y-33409651D01*
X27010349Y-33077450D01*
X26619721Y-32816440D01*
X26315500Y-32690428D01*
X26315500Y-32546943D01*
X47312400Y-32546943D01*
X47312400Y-32717057D01*
X47345587Y-32883903D01*
X47410687Y-33041068D01*
X47505198Y-33182513D01*
X47625487Y-33302802D01*
X47766932Y-33397313D01*
X47924097Y-33462413D01*
X48090943Y-33495600D01*
X48261057Y-33495600D01*
X48427903Y-33462413D01*
X48585068Y-33397313D01*
X48726513Y-33302802D01*
X48846802Y-33182513D01*
X48941313Y-33041068D01*
X49006413Y-32883903D01*
X49039600Y-32717057D01*
X49039600Y-32546943D01*
X49006413Y-32380097D01*
X48941313Y-32222932D01*
X48846802Y-32081487D01*
X48726513Y-31961198D01*
X48585068Y-31866687D01*
X48427903Y-31801587D01*
X48261057Y-31768400D01*
X48090943Y-31768400D01*
X47924097Y-31801587D01*
X47766932Y-31866687D01*
X47625487Y-31961198D01*
X47505198Y-32081487D01*
X47410687Y-32222932D01*
X47345587Y-32380097D01*
X47312400Y-32546943D01*
X26315500Y-32546943D01*
X26315500Y-31251932D01*
X26459994Y-31107438D01*
X58560200Y-31107438D01*
X58560200Y-31292562D01*
X58596316Y-31474129D01*
X58667160Y-31645162D01*
X58770010Y-31799087D01*
X58900913Y-31929990D01*
X59054838Y-32032840D01*
X59225871Y-32103684D01*
X59407438Y-32139800D01*
X59592562Y-32139800D01*
X59774129Y-32103684D01*
X59945162Y-32032840D01*
X60099087Y-31929990D01*
X60229990Y-31799087D01*
X60332840Y-31645162D01*
X60403684Y-31474129D01*
X60439800Y-31292562D01*
X60439800Y-31107438D01*
X60403684Y-30925871D01*
X60332840Y-30754838D01*
X60229990Y-30600913D01*
X60099087Y-30470010D01*
X59945162Y-30367160D01*
X59774129Y-30296316D01*
X59592562Y-30260200D01*
X59407438Y-30260200D01*
X59225871Y-30296316D01*
X59054838Y-30367160D01*
X58900913Y-30470010D01*
X58770010Y-30600913D01*
X58667160Y-30754838D01*
X58596316Y-30925871D01*
X58560200Y-31107438D01*
X26459994Y-31107438D01*
X27027119Y-30540313D01*
X27045162Y-30532840D01*
X27199087Y-30429990D01*
X27329990Y-30299087D01*
X27432840Y-30145162D01*
X27503684Y-29974129D01*
X27539800Y-29792562D01*
X27539800Y-29607438D01*
X27503684Y-29425871D01*
X27432840Y-29254838D01*
X27329990Y-29100913D01*
X27199087Y-28970010D01*
X27050824Y-28870943D01*
X31394400Y-28870943D01*
X31394400Y-29041057D01*
X31427587Y-29207903D01*
X31492687Y-29365068D01*
X31587198Y-29506513D01*
X31707487Y-29626802D01*
X31848932Y-29721313D01*
X32006097Y-29786413D01*
X32172943Y-29819600D01*
X32343057Y-29819600D01*
X32509903Y-29786413D01*
X32667068Y-29721313D01*
X32808513Y-29626802D01*
X32928802Y-29506513D01*
X33023313Y-29365068D01*
X33088413Y-29207903D01*
X33121600Y-29041057D01*
X33121600Y-28870943D01*
X33172400Y-28870943D01*
X33172400Y-29041057D01*
X33205587Y-29207903D01*
X33270687Y-29365068D01*
X33365198Y-29506513D01*
X33485487Y-29626802D01*
X33626932Y-29721313D01*
X33784097Y-29786413D01*
X33950943Y-29819600D01*
X34121057Y-29819600D01*
X34287903Y-29786413D01*
X34445068Y-29721313D01*
X34586513Y-29626802D01*
X34671000Y-29542315D01*
X34755487Y-29626802D01*
X34896932Y-29721313D01*
X35054097Y-29786413D01*
X35220943Y-29819600D01*
X35391057Y-29819600D01*
X35557903Y-29786413D01*
X35715068Y-29721313D01*
X35856513Y-29626802D01*
X35976802Y-29506513D01*
X36071313Y-29365068D01*
X36136413Y-29207903D01*
X36169600Y-29041057D01*
X36169600Y-28990943D01*
X46550400Y-28990943D01*
X46550400Y-29161057D01*
X46583587Y-29327903D01*
X46648687Y-29485068D01*
X46743198Y-29626513D01*
X46863487Y-29746802D01*
X47004932Y-29841313D01*
X47162097Y-29906413D01*
X47328943Y-29939600D01*
X47499057Y-29939600D01*
X47665903Y-29906413D01*
X47823068Y-29841313D01*
X47964513Y-29746802D01*
X48084802Y-29626513D01*
X48179313Y-29485068D01*
X48244413Y-29327903D01*
X48277600Y-29161057D01*
X48277600Y-28990943D01*
X48244413Y-28824097D01*
X48179313Y-28666932D01*
X48084802Y-28525487D01*
X47964513Y-28405198D01*
X47823068Y-28310687D01*
X47665903Y-28245587D01*
X47499057Y-28212400D01*
X47328943Y-28212400D01*
X47162097Y-28245587D01*
X47004932Y-28310687D01*
X46863487Y-28405198D01*
X46743198Y-28525487D01*
X46648687Y-28666932D01*
X46583587Y-28824097D01*
X46550400Y-28990943D01*
X36169600Y-28990943D01*
X36169600Y-28870943D01*
X36136413Y-28704097D01*
X36071313Y-28546932D01*
X35976802Y-28405487D01*
X35856513Y-28285198D01*
X35715068Y-28190687D01*
X35557903Y-28125587D01*
X35391057Y-28092400D01*
X35220943Y-28092400D01*
X35054097Y-28125587D01*
X34896932Y-28190687D01*
X34755487Y-28285198D01*
X34671000Y-28369685D01*
X34586513Y-28285198D01*
X34445068Y-28190687D01*
X34287903Y-28125587D01*
X34121057Y-28092400D01*
X33950943Y-28092400D01*
X33784097Y-28125587D01*
X33626932Y-28190687D01*
X33485487Y-28285198D01*
X33365198Y-28405487D01*
X33270687Y-28546932D01*
X33205587Y-28704097D01*
X33172400Y-28870943D01*
X33121600Y-28870943D01*
X33088413Y-28704097D01*
X33023313Y-28546932D01*
X32928802Y-28405487D01*
X32808513Y-28285198D01*
X32667068Y-28190687D01*
X32509903Y-28125587D01*
X32343057Y-28092400D01*
X32172943Y-28092400D01*
X32006097Y-28125587D01*
X31848932Y-28190687D01*
X31707487Y-28285198D01*
X31587198Y-28405487D01*
X31492687Y-28546932D01*
X31427587Y-28704097D01*
X31394400Y-28870943D01*
X27050824Y-28870943D01*
X27045162Y-28867160D01*
X26874129Y-28796316D01*
X26692562Y-28760200D01*
X26507438Y-28760200D01*
X26325871Y-28796316D01*
X26154838Y-28867160D01*
X26000913Y-28970010D01*
X25870010Y-29100913D01*
X25767160Y-29254838D01*
X25696316Y-29425871D01*
X25668908Y-29563659D01*
X24934961Y-30297607D01*
X24903460Y-30323459D01*
X24877609Y-30354959D01*
X24800301Y-30449158D01*
X24723647Y-30592567D01*
X24676445Y-30748174D01*
X24660506Y-30910000D01*
X24664501Y-30950560D01*
X24664501Y-32690427D01*
X24360279Y-32816440D01*
X23969651Y-33077450D01*
X23637450Y-33409651D01*
X23376440Y-33800279D01*
X23196654Y-34234321D01*
X23105000Y-34695098D01*
X12660000Y-34695098D01*
X12660000Y-26407438D01*
X69060200Y-26407438D01*
X69060200Y-26592562D01*
X69096316Y-26774129D01*
X69167160Y-26945162D01*
X69270010Y-27099087D01*
X69400913Y-27229990D01*
X69554838Y-27332840D01*
X69725871Y-27403684D01*
X69907438Y-27439800D01*
X70092562Y-27439800D01*
X70274129Y-27403684D01*
X70445162Y-27332840D01*
X70599087Y-27229990D01*
X70729990Y-27099087D01*
X70832840Y-26945162D01*
X70903684Y-26774129D01*
X70939800Y-26592562D01*
X70939800Y-26407438D01*
X70903684Y-26225871D01*
X70832840Y-26054838D01*
X70729990Y-25900913D01*
X70599087Y-25770010D01*
X70445162Y-25667160D01*
X70274129Y-25596316D01*
X70092562Y-25560200D01*
X69907438Y-25560200D01*
X69725871Y-25596316D01*
X69554838Y-25667160D01*
X69400913Y-25770010D01*
X69270010Y-25900913D01*
X69167160Y-26054838D01*
X69096316Y-26225871D01*
X69060200Y-26407438D01*
X12660000Y-26407438D01*
X12660000Y-25024488D01*
X12731439Y-24063158D01*
X12846588Y-23554272D01*
X15697400Y-23554272D01*
X15697400Y-23994528D01*
X15783290Y-24426325D01*
X15951769Y-24833069D01*
X16196362Y-25199129D01*
X16507671Y-25510438D01*
X16873731Y-25755031D01*
X17280475Y-25923510D01*
X17712272Y-26009400D01*
X18152528Y-26009400D01*
X18584325Y-25923510D01*
X18991069Y-25755031D01*
X19357129Y-25510438D01*
X19668438Y-25199129D01*
X19913031Y-24833069D01*
X20081510Y-24426325D01*
X20167400Y-23994528D01*
X20167400Y-23655872D01*
X79197400Y-23655872D01*
X79197400Y-24096128D01*
X79283290Y-24527925D01*
X79451769Y-24934669D01*
X79696362Y-25300729D01*
X80007671Y-25612038D01*
X80373731Y-25856631D01*
X80780475Y-26025110D01*
X81212272Y-26111000D01*
X81652528Y-26111000D01*
X82084325Y-26025110D01*
X82491069Y-25856631D01*
X82857129Y-25612038D01*
X83168438Y-25300729D01*
X83413031Y-24934669D01*
X83581510Y-24527925D01*
X83667400Y-24096128D01*
X83667400Y-23655872D01*
X83581510Y-23224075D01*
X83413031Y-22817331D01*
X83168438Y-22451271D01*
X82857129Y-22139962D01*
X82491069Y-21895369D01*
X82084325Y-21726890D01*
X81652528Y-21641000D01*
X81212272Y-21641000D01*
X80780475Y-21726890D01*
X80373731Y-21895369D01*
X80007671Y-22139962D01*
X79696362Y-22451271D01*
X79451769Y-22817331D01*
X79283290Y-23224075D01*
X79197400Y-23655872D01*
X20167400Y-23655872D01*
X20167400Y-23554272D01*
X20081510Y-23122475D01*
X19913031Y-22715731D01*
X19668438Y-22349671D01*
X19357129Y-22038362D01*
X18991069Y-21793769D01*
X18584325Y-21625290D01*
X18152528Y-21539400D01*
X17712272Y-21539400D01*
X17280475Y-21625290D01*
X16873731Y-21793769D01*
X16507671Y-22038362D01*
X16196362Y-22349671D01*
X15951769Y-22715731D01*
X15783290Y-23122475D01*
X15697400Y-23554272D01*
X12846588Y-23554272D01*
X12938769Y-23146894D01*
X13279252Y-22271343D01*
X13745410Y-21455735D01*
X14327005Y-20717986D01*
X15011251Y-20074311D01*
X15783129Y-19538840D01*
X16625677Y-19123341D01*
X17520376Y-18836946D01*
X18457579Y-18684311D01*
X19014404Y-18660000D01*
X79975512Y-18660000D01*
X80936842Y-18731439D01*
G37*
X80936842Y-18731439D02*
X81853106Y-18938769D01*
X82728657Y-19279252D01*
X83544265Y-19745410D01*
X84282014Y-20327005D01*
X84925689Y-21011251D01*
X85461160Y-21783129D01*
X85876659Y-22625677D01*
X86163054Y-23520376D01*
X86315689Y-24457579D01*
X86340000Y-25014404D01*
X86340001Y-118975498D01*
X86268561Y-119936841D01*
X86061231Y-120853106D01*
X85720748Y-121728657D01*
X85254590Y-122544265D01*
X84672995Y-123282014D01*
X83988749Y-123925689D01*
X83216871Y-124461160D01*
X82374323Y-124876659D01*
X81479624Y-125163054D01*
X80542414Y-125315689D01*
X79985595Y-125340000D01*
X19211508Y-125340000D01*
X12660000Y-120660353D01*
X12660000Y-118753472D01*
X16865800Y-118753472D01*
X16865800Y-119193728D01*
X16951690Y-119625525D01*
X17120169Y-120032269D01*
X17364762Y-120398329D01*
X17676071Y-120709638D01*
X18042131Y-120954231D01*
X18448875Y-121122710D01*
X18880672Y-121208600D01*
X19320928Y-121208600D01*
X19752725Y-121122710D01*
X20159469Y-120954231D01*
X20525529Y-120709638D01*
X20836838Y-120398329D01*
X21081431Y-120032269D01*
X21169243Y-119820272D01*
X79045000Y-119820272D01*
X79045000Y-120260528D01*
X79130890Y-120692325D01*
X79299369Y-121099069D01*
X79543962Y-121465129D01*
X79855271Y-121776438D01*
X80221331Y-122021031D01*
X80628075Y-122189510D01*
X81059872Y-122275400D01*
X81500128Y-122275400D01*
X81931925Y-122189510D01*
X82338669Y-122021031D01*
X82704729Y-121776438D01*
X83016038Y-121465129D01*
X83260631Y-121099069D01*
X83429110Y-120692325D01*
X83515000Y-120260528D01*
X83515000Y-119820272D01*
X83429110Y-119388475D01*
X83260631Y-118981731D01*
X83016038Y-118615671D01*
X82704729Y-118304362D01*
X82338669Y-118059769D01*
X81931925Y-117891290D01*
X81500128Y-117805400D01*
X81059872Y-117805400D01*
X80628075Y-117891290D01*
X80221331Y-118059769D01*
X79855271Y-118304362D01*
X79543962Y-118615671D01*
X79299369Y-118981731D01*
X79130890Y-119388475D01*
X79045000Y-119820272D01*
X21169243Y-119820272D01*
X21249910Y-119625525D01*
X21335800Y-119193728D01*
X21335800Y-118753472D01*
X21249910Y-118321675D01*
X21081431Y-117914931D01*
X20836838Y-117548871D01*
X20525529Y-117237562D01*
X20159469Y-116992969D01*
X19752725Y-116824490D01*
X19320928Y-116738600D01*
X18880672Y-116738600D01*
X18448875Y-116824490D01*
X18042131Y-116992969D01*
X17676071Y-117237562D01*
X17364762Y-117548871D01*
X17120169Y-117914931D01*
X16951690Y-118321675D01*
X16865800Y-118753472D01*
X12660000Y-118753472D01*
X12660000Y-116600000D01*
X29911928Y-116600000D01*
X29924188Y-116724482D01*
X29960498Y-116844180D01*
X30019463Y-116954494D01*
X30098815Y-117051185D01*
X30195506Y-117130537D01*
X30305820Y-117189502D01*
X30425518Y-117225812D01*
X30550000Y-117238072D01*
X32014250Y-117235000D01*
X32173000Y-117076250D01*
X32173000Y-115227000D01*
X32427000Y-115227000D01*
X32427000Y-117076250D01*
X32585750Y-117235000D01*
X34050000Y-117238072D01*
X34174482Y-117225812D01*
X34294180Y-117189502D01*
X34404494Y-117130537D01*
X34501185Y-117051185D01*
X34580537Y-116954494D01*
X34639502Y-116844180D01*
X34675812Y-116724482D01*
X34688072Y-116600000D01*
X34685000Y-115385750D01*
X34526250Y-115227000D01*
X32427000Y-115227000D01*
X32173000Y-115227000D01*
X30073750Y-115227000D01*
X29915000Y-115385750D01*
X29911928Y-116600000D01*
X12660000Y-116600000D01*
X12660000Y-113600000D01*
X29911928Y-113600000D01*
X29915000Y-114814250D01*
X30073750Y-114973000D01*
X32173000Y-114973000D01*
X32173000Y-113123750D01*
X32427000Y-113123750D01*
X32427000Y-114973000D01*
X34526250Y-114973000D01*
X34685000Y-114814250D01*
X34686698Y-114143195D01*
X34719463Y-114204494D01*
X34798815Y-114301185D01*
X34895506Y-114380537D01*
X35005820Y-114439502D01*
X35125518Y-114475812D01*
X35250000Y-114488072D01*
X36714250Y-114485000D01*
X36873000Y-114326250D01*
X36873000Y-112227000D01*
X37127000Y-112227000D01*
X37127000Y-114326250D01*
X37285750Y-114485000D01*
X38750000Y-114488072D01*
X38874482Y-114475812D01*
X38994180Y-114439502D01*
X39104494Y-114380537D01*
X39201185Y-114301185D01*
X39280537Y-114204494D01*
X39339502Y-114094180D01*
X39375812Y-113974482D01*
X39388072Y-113850000D01*
X39385000Y-112385750D01*
X39226250Y-112227000D01*
X37127000Y-112227000D01*
X36873000Y-112227000D01*
X34773750Y-112227000D01*
X34615000Y-112385750D01*
X34613069Y-113306367D01*
X34580537Y-113245506D01*
X34501185Y-113148815D01*
X34404494Y-113069463D01*
X34294180Y-113010498D01*
X34174482Y-112974188D01*
X34050000Y-112961928D01*
X32585750Y-112965000D01*
X32427000Y-113123750D01*
X32173000Y-113123750D01*
X32014250Y-112965000D01*
X30550000Y-112961928D01*
X30425518Y-112974188D01*
X30305820Y-113010498D01*
X30195506Y-113069463D01*
X30098815Y-113148815D01*
X30019463Y-113245506D01*
X29960498Y-113355820D01*
X29924188Y-113475518D01*
X29911928Y-113600000D01*
X12660000Y-113600000D01*
X12660000Y-107350000D01*
X29911928Y-107350000D01*
X29911928Y-110850000D01*
X29924188Y-110974482D01*
X29960498Y-111094180D01*
X30019463Y-111204494D01*
X30098815Y-111301185D01*
X30195506Y-111380537D01*
X30305820Y-111439502D01*
X30425518Y-111475812D01*
X30550000Y-111488072D01*
X34050000Y-111488072D01*
X34174482Y-111475812D01*
X34294180Y-111439502D01*
X34404494Y-111380537D01*
X34501185Y-111301185D01*
X34580537Y-111204494D01*
X34613591Y-111142655D01*
X34615000Y-111814250D01*
X34773750Y-111973000D01*
X36873000Y-111973000D01*
X36873000Y-109873750D01*
X37127000Y-109873750D01*
X37127000Y-111973000D01*
X39226250Y-111973000D01*
X39385000Y-111814250D01*
X39388072Y-110350000D01*
X39375812Y-110225518D01*
X39339502Y-110105820D01*
X39280537Y-109995506D01*
X39201185Y-109898815D01*
X39104494Y-109819463D01*
X38994180Y-109760498D01*
X38874482Y-109724188D01*
X38750000Y-109711928D01*
X37285750Y-109715000D01*
X37127000Y-109873750D01*
X36873000Y-109873750D01*
X36714250Y-109715000D01*
X35250000Y-109711928D01*
X35125518Y-109724188D01*
X35005820Y-109760498D01*
X34895506Y-109819463D01*
X34798815Y-109898815D01*
X34719463Y-109995506D01*
X34688072Y-110054233D01*
X34688072Y-107350000D01*
X34675812Y-107225518D01*
X34639502Y-107105820D01*
X34580537Y-106995506D01*
X34501185Y-106898815D01*
X34404494Y-106819463D01*
X34294180Y-106760498D01*
X34174482Y-106724188D01*
X34050000Y-106711928D01*
X30550000Y-106711928D01*
X30425518Y-106724188D01*
X30305820Y-106760498D01*
X30195506Y-106819463D01*
X30098815Y-106898815D01*
X30019463Y-106995506D01*
X29960498Y-107105820D01*
X29924188Y-107225518D01*
X29911928Y-107350000D01*
X12660000Y-107350000D01*
X12660000Y-91314943D01*
X71561537Y-91314943D01*
X71561537Y-91485057D01*
X71594724Y-91651903D01*
X71606538Y-91680424D01*
X71594724Y-91708945D01*
X71561537Y-91875791D01*
X71561537Y-92045905D01*
X71594724Y-92212751D01*
X71659824Y-92369916D01*
X71660163Y-92370424D01*
X71659824Y-92370932D01*
X71594724Y-92528097D01*
X71561537Y-92694943D01*
X71561537Y-92865057D01*
X71594724Y-93031903D01*
X71659824Y-93189068D01*
X71754335Y-93330513D01*
X71874624Y-93450802D01*
X72016069Y-93545313D01*
X72173234Y-93610413D01*
X72340080Y-93643600D01*
X72510194Y-93643600D01*
X72677040Y-93610413D01*
X72834205Y-93545313D01*
X72975650Y-93450802D01*
X73095939Y-93330513D01*
X73190450Y-93189068D01*
X73255550Y-93031903D01*
X73288737Y-92865057D01*
X73288737Y-92694943D01*
X73255550Y-92528097D01*
X73190450Y-92370932D01*
X73190111Y-92370424D01*
X73190450Y-92369916D01*
X73255550Y-92212751D01*
X73288737Y-92045905D01*
X73288737Y-91875791D01*
X73255550Y-91708945D01*
X73243736Y-91680424D01*
X73255550Y-91651903D01*
X73288737Y-91485057D01*
X73288737Y-91314943D01*
X73255550Y-91148097D01*
X73190450Y-90990932D01*
X73095939Y-90849487D01*
X72975650Y-90729198D01*
X72834205Y-90634687D01*
X72677040Y-90569587D01*
X72510194Y-90536400D01*
X72340080Y-90536400D01*
X72173234Y-90569587D01*
X72016069Y-90634687D01*
X71874624Y-90729198D01*
X71754335Y-90849487D01*
X71659824Y-90990932D01*
X71594724Y-91148097D01*
X71561537Y-91314943D01*
X12660000Y-91314943D01*
X12660000Y-86075000D01*
X31686928Y-86075000D01*
X31686928Y-86925000D01*
X31699188Y-87049482D01*
X31735498Y-87169180D01*
X31794463Y-87279494D01*
X31873815Y-87376185D01*
X31970506Y-87455537D01*
X32080820Y-87514502D01*
X32200518Y-87550812D01*
X32325000Y-87563072D01*
X33175000Y-87563072D01*
X33299482Y-87550812D01*
X33419180Y-87514502D01*
X33423603Y-87512138D01*
X33440809Y-87519265D01*
X33645599Y-87560000D01*
X33854401Y-87560000D01*
X34059191Y-87519265D01*
X34250000Y-87440229D01*
X34440809Y-87519265D01*
X34645599Y-87560000D01*
X34854401Y-87560000D01*
X35059191Y-87519265D01*
X35250000Y-87440229D01*
X35440809Y-87519265D01*
X35645599Y-87560000D01*
X35854401Y-87560000D01*
X36059191Y-87519265D01*
X36250000Y-87440229D01*
X36440809Y-87519265D01*
X36645599Y-87560000D01*
X36854401Y-87560000D01*
X37059191Y-87519265D01*
X37250000Y-87440229D01*
X37440809Y-87519265D01*
X37645599Y-87560000D01*
X37854401Y-87560000D01*
X38059191Y-87519265D01*
X38250000Y-87440229D01*
X38440809Y-87519265D01*
X38645599Y-87560000D01*
X38854401Y-87560000D01*
X39059191Y-87519265D01*
X39252098Y-87439360D01*
X39257118Y-87436006D01*
X39424750Y-87508872D01*
X39459938Y-87519540D01*
X39623000Y-87392257D01*
X39623000Y-87101413D01*
X39689360Y-87002098D01*
X39769265Y-86809191D01*
X39805504Y-86627000D01*
X39877000Y-86627000D01*
X39877000Y-87392257D01*
X40040062Y-87519540D01*
X40075250Y-87508872D01*
X40265822Y-87426034D01*
X40436571Y-87307609D01*
X40580936Y-87158148D01*
X40693368Y-86983394D01*
X40769547Y-86790064D01*
X40643621Y-86627000D01*
X39877000Y-86627000D01*
X39805504Y-86627000D01*
X39810000Y-86604401D01*
X39810000Y-86560000D01*
X39877002Y-86560000D01*
X39877002Y-86392259D01*
X40040062Y-86519540D01*
X40075250Y-86508872D01*
X40265822Y-86426034D01*
X40342288Y-86373000D01*
X40643621Y-86373000D01*
X40769547Y-86209936D01*
X40693368Y-86016606D01*
X40682684Y-86000000D01*
X40693368Y-85983394D01*
X40769547Y-85790064D01*
X40643621Y-85627000D01*
X40342288Y-85627000D01*
X40265822Y-85573966D01*
X40075250Y-85491128D01*
X40040062Y-85480460D01*
X39877002Y-85607741D01*
X39877002Y-85440000D01*
X39810000Y-85440000D01*
X39810000Y-85395599D01*
X39769265Y-85190809D01*
X39689360Y-84997902D01*
X39623000Y-84898587D01*
X39623000Y-84607743D01*
X39877000Y-84607743D01*
X39877000Y-85373000D01*
X40643621Y-85373000D01*
X40769547Y-85209936D01*
X40693368Y-85016606D01*
X40580936Y-84841852D01*
X40436571Y-84692391D01*
X40265822Y-84573966D01*
X40075250Y-84491128D01*
X40040062Y-84480460D01*
X39877000Y-84607743D01*
X39623000Y-84607743D01*
X39459938Y-84480460D01*
X39424750Y-84491128D01*
X39257118Y-84563994D01*
X39252098Y-84560640D01*
X39059191Y-84480735D01*
X38854401Y-84440000D01*
X38645599Y-84440000D01*
X38440809Y-84480735D01*
X38250000Y-84559771D01*
X38059191Y-84480735D01*
X37854401Y-84440000D01*
X37645599Y-84440000D01*
X37440809Y-84480735D01*
X37250000Y-84559771D01*
X37059191Y-84480735D01*
X36854401Y-84440000D01*
X36645599Y-84440000D01*
X36440809Y-84480735D01*
X36250000Y-84559771D01*
X36059191Y-84480735D01*
X35854401Y-84440000D01*
X35645599Y-84440000D01*
X35440809Y-84480735D01*
X35250000Y-84559771D01*
X35059191Y-84480735D01*
X34854401Y-84440000D01*
X34645599Y-84440000D01*
X34440809Y-84480735D01*
X34250000Y-84559771D01*
X34059191Y-84480735D01*
X33854401Y-84440000D01*
X33645599Y-84440000D01*
X33440809Y-84480735D01*
X33250000Y-84559771D01*
X33059191Y-84480735D01*
X32854401Y-84440000D01*
X32645599Y-84440000D01*
X32440809Y-84480735D01*
X32247902Y-84560640D01*
X32074289Y-84676644D01*
X31926644Y-84824289D01*
X31810640Y-84997902D01*
X31730735Y-85190809D01*
X31690000Y-85395599D01*
X31690000Y-85604401D01*
X31730735Y-85809191D01*
X31737862Y-85826397D01*
X31735498Y-85830820D01*
X31699188Y-85950518D01*
X31686928Y-86075000D01*
X12660000Y-86075000D01*
X12660000Y-83324943D01*
X67066400Y-83324943D01*
X67066400Y-83495057D01*
X67099587Y-83661903D01*
X67164687Y-83819068D01*
X67259198Y-83960513D01*
X67379487Y-84080802D01*
X67520932Y-84175313D01*
X67678097Y-84240413D01*
X67844943Y-84273600D01*
X68015057Y-84273600D01*
X68181903Y-84240413D01*
X68339068Y-84175313D01*
X68480513Y-84080802D01*
X68600802Y-83960513D01*
X68695313Y-83819068D01*
X68760413Y-83661903D01*
X68793600Y-83495057D01*
X68793600Y-83324943D01*
X68760413Y-83158097D01*
X68695313Y-83000932D01*
X68600802Y-82859487D01*
X68480513Y-82739198D01*
X68339068Y-82644687D01*
X68181903Y-82579587D01*
X68015057Y-82546400D01*
X67844943Y-82546400D01*
X67678097Y-82579587D01*
X67520932Y-82644687D01*
X67379487Y-82739198D01*
X67259198Y-82859487D01*
X67164687Y-83000932D01*
X67099587Y-83158097D01*
X67066400Y-83324943D01*
X12660000Y-83324943D01*
X12660000Y-81834080D01*
X18034461Y-81834080D01*
X18034461Y-82057480D01*
X18078045Y-82276588D01*
X18163536Y-82482982D01*
X18287651Y-82668733D01*
X18445618Y-82826700D01*
X18631369Y-82950815D01*
X18837763Y-83036306D01*
X19056871Y-83079890D01*
X19280271Y-83079890D01*
X19499379Y-83036306D01*
X19705773Y-82950815D01*
X19891524Y-82826700D01*
X20049491Y-82668733D01*
X20173606Y-82482982D01*
X20259097Y-82276588D01*
X20302681Y-82057480D01*
X20302681Y-81834080D01*
X20259097Y-81614972D01*
X20173606Y-81408578D01*
X20049491Y-81222827D01*
X19891524Y-81064860D01*
X19705773Y-80940745D01*
X19499379Y-80855254D01*
X19280271Y-80811670D01*
X19056871Y-80811670D01*
X18837763Y-80855254D01*
X18631369Y-80940745D01*
X18445618Y-81064860D01*
X18287651Y-81222827D01*
X18163536Y-81408578D01*
X18078045Y-81614972D01*
X18034461Y-81834080D01*
X12660000Y-81834080D01*
X12660000Y-77334943D01*
X31426400Y-77334943D01*
X31426400Y-77505057D01*
X31459587Y-77671903D01*
X31524687Y-77829068D01*
X31552037Y-77870000D01*
X31524687Y-77910932D01*
X31459587Y-78068097D01*
X31426400Y-78234943D01*
X31426400Y-78405057D01*
X31459587Y-78571903D01*
X31524687Y-78729068D01*
X31592128Y-78830000D01*
X31524687Y-78930932D01*
X31459587Y-79088097D01*
X31426400Y-79254943D01*
X31426400Y-79425057D01*
X31459587Y-79591903D01*
X31524687Y-79749068D01*
X31619198Y-79890513D01*
X31739487Y-80010802D01*
X31880932Y-80105313D01*
X32038097Y-80170413D01*
X32204943Y-80203600D01*
X32375057Y-80203600D01*
X32541903Y-80170413D01*
X32699068Y-80105313D01*
X32840513Y-80010802D01*
X32943877Y-79907438D01*
X62160200Y-79907438D01*
X62160200Y-80092562D01*
X62196316Y-80274129D01*
X62227743Y-80350000D01*
X62196316Y-80425871D01*
X62160200Y-80607438D01*
X62160200Y-80792562D01*
X62196316Y-80974129D01*
X62227743Y-81050000D01*
X62196316Y-81125871D01*
X62160200Y-81307438D01*
X62160200Y-81492562D01*
X62196316Y-81674129D01*
X62227743Y-81750000D01*
X62196316Y-81825871D01*
X62160200Y-82007438D01*
X62160200Y-82192562D01*
X62196316Y-82374129D01*
X62267160Y-82545162D01*
X62370010Y-82699087D01*
X62500913Y-82829990D01*
X62654838Y-82932840D01*
X62825871Y-83003684D01*
X63007438Y-83039800D01*
X63192562Y-83039800D01*
X63374129Y-83003684D01*
X63545162Y-82932840D01*
X63699087Y-82829990D01*
X63829990Y-82699087D01*
X63932840Y-82545162D01*
X64003684Y-82374129D01*
X64039800Y-82192562D01*
X64039800Y-82007438D01*
X64003684Y-81825871D01*
X63972257Y-81750000D01*
X64003684Y-81674129D01*
X64039800Y-81492562D01*
X64039800Y-81307438D01*
X64003684Y-81125871D01*
X63972257Y-81050000D01*
X64003684Y-80974129D01*
X64039800Y-80792562D01*
X64039800Y-80607438D01*
X64003684Y-80425871D01*
X63972257Y-80350000D01*
X64003684Y-80274129D01*
X64039800Y-80092562D01*
X64039800Y-79907438D01*
X64035326Y-79884943D01*
X67066400Y-79884943D01*
X67066400Y-80055057D01*
X67099587Y-80221903D01*
X67164687Y-80379068D01*
X67259198Y-80520513D01*
X67379487Y-80640802D01*
X67520932Y-80735313D01*
X67678097Y-80800413D01*
X67844943Y-80833600D01*
X68015057Y-80833600D01*
X68181903Y-80800413D01*
X68339068Y-80735313D01*
X68480513Y-80640802D01*
X68600802Y-80520513D01*
X68695313Y-80379068D01*
X68760413Y-80221903D01*
X68793600Y-80055057D01*
X68793600Y-79884943D01*
X68760413Y-79718097D01*
X68695313Y-79560932D01*
X68600802Y-79419487D01*
X68480513Y-79299198D01*
X68339068Y-79204687D01*
X68181903Y-79139587D01*
X68015057Y-79106400D01*
X67844943Y-79106400D01*
X67678097Y-79139587D01*
X67520932Y-79204687D01*
X67379487Y-79299198D01*
X67259198Y-79419487D01*
X67164687Y-79560932D01*
X67099587Y-79718097D01*
X67066400Y-79884943D01*
X64035326Y-79884943D01*
X64003684Y-79725871D01*
X63932840Y-79554838D01*
X63829990Y-79400913D01*
X63699087Y-79270010D01*
X63545162Y-79167160D01*
X63374129Y-79096316D01*
X63192562Y-79060200D01*
X63007438Y-79060200D01*
X62825871Y-79096316D01*
X62654838Y-79167160D01*
X62500913Y-79270010D01*
X62370010Y-79400913D01*
X62267160Y-79554838D01*
X62196316Y-79725871D01*
X62160200Y-79907438D01*
X32943877Y-79907438D01*
X32960802Y-79890513D01*
X33055313Y-79749068D01*
X33120413Y-79591903D01*
X33153600Y-79425057D01*
X33153600Y-79254943D01*
X33120413Y-79088097D01*
X33055313Y-78930932D01*
X32987872Y-78830000D01*
X33055313Y-78729068D01*
X33064272Y-78707438D01*
X49160200Y-78707438D01*
X49160200Y-78892562D01*
X49196316Y-79074129D01*
X49267160Y-79245162D01*
X49370010Y-79399087D01*
X49500913Y-79529990D01*
X49654838Y-79632840D01*
X49825871Y-79703684D01*
X50007438Y-79739800D01*
X50192562Y-79739800D01*
X50374129Y-79703684D01*
X50545162Y-79632840D01*
X50699087Y-79529990D01*
X50829990Y-79399087D01*
X50932840Y-79245162D01*
X51003684Y-79074129D01*
X51039800Y-78892562D01*
X51039800Y-78707438D01*
X51003684Y-78525871D01*
X50932840Y-78354838D01*
X50829990Y-78200913D01*
X50699087Y-78070010D01*
X50545162Y-77967160D01*
X50374129Y-77896316D01*
X50192562Y-77860200D01*
X50007438Y-77860200D01*
X49825871Y-77896316D01*
X49654838Y-77967160D01*
X49500913Y-78070010D01*
X49370010Y-78200913D01*
X49267160Y-78354838D01*
X49196316Y-78525871D01*
X49160200Y-78707438D01*
X33064272Y-78707438D01*
X33120413Y-78571903D01*
X33153600Y-78405057D01*
X33153600Y-78234943D01*
X33120413Y-78068097D01*
X33055313Y-77910932D01*
X33027963Y-77870000D01*
X33055313Y-77829068D01*
X33120413Y-77671903D01*
X33153600Y-77505057D01*
X33153600Y-77334943D01*
X33120413Y-77168097D01*
X33079780Y-77070000D01*
X77086928Y-77070000D01*
X77099188Y-77194482D01*
X77135498Y-77314180D01*
X77194463Y-77424494D01*
X77273815Y-77521185D01*
X77370506Y-77600537D01*
X77480820Y-77659502D01*
X77600518Y-77695812D01*
X77725000Y-77708072D01*
X77864250Y-77705000D01*
X78023000Y-77546250D01*
X78023000Y-76772000D01*
X78277000Y-76772000D01*
X78277000Y-77546250D01*
X78435750Y-77705000D01*
X78575000Y-77708072D01*
X78699482Y-77695812D01*
X78819180Y-77659502D01*
X78929494Y-77600537D01*
X79026185Y-77521185D01*
X79105537Y-77424494D01*
X79164502Y-77314180D01*
X79200812Y-77194482D01*
X79213072Y-77070000D01*
X79210000Y-76930750D01*
X79051250Y-76772000D01*
X78277000Y-76772000D01*
X78023000Y-76772000D01*
X77248750Y-76772000D01*
X77090000Y-76930750D01*
X77086928Y-77070000D01*
X33079780Y-77070000D01*
X33055313Y-77010932D01*
X32989531Y-76912483D01*
X33065313Y-76799068D01*
X33130413Y-76641903D01*
X33163600Y-76475057D01*
X33163600Y-76304943D01*
X33146705Y-76220000D01*
X77086928Y-76220000D01*
X77090000Y-76359250D01*
X77248750Y-76518000D01*
X78023000Y-76518000D01*
X78023000Y-75743750D01*
X78277000Y-75743750D01*
X78277000Y-76518000D01*
X79051250Y-76518000D01*
X79210000Y-76359250D01*
X79213072Y-76220000D01*
X79200812Y-76095518D01*
X79164502Y-75975820D01*
X79105537Y-75865506D01*
X79026185Y-75768815D01*
X78929494Y-75689463D01*
X78819180Y-75630498D01*
X78699482Y-75594188D01*
X78575000Y-75581928D01*
X78435750Y-75585000D01*
X78277000Y-75743750D01*
X78023000Y-75743750D01*
X77864250Y-75585000D01*
X77725000Y-75581928D01*
X77600518Y-75594188D01*
X77480820Y-75630498D01*
X77370506Y-75689463D01*
X77273815Y-75768815D01*
X77194463Y-75865506D01*
X77135498Y-75975820D01*
X77099188Y-76095518D01*
X77086928Y-76220000D01*
X33146705Y-76220000D01*
X33130413Y-76138097D01*
X33065313Y-75980932D01*
X32970802Y-75839487D01*
X32850513Y-75719198D01*
X32709068Y-75624687D01*
X32551903Y-75559587D01*
X32385057Y-75526400D01*
X32214943Y-75526400D01*
X32048097Y-75559587D01*
X31890932Y-75624687D01*
X31749487Y-75719198D01*
X31629198Y-75839487D01*
X31534687Y-75980932D01*
X31469587Y-76138097D01*
X31436400Y-76304943D01*
X31436400Y-76475057D01*
X31469587Y-76641903D01*
X31534687Y-76799068D01*
X31600469Y-76897517D01*
X31524687Y-77010932D01*
X31459587Y-77168097D01*
X31426400Y-77334943D01*
X12660000Y-77334943D01*
X12660000Y-73838160D01*
X18034461Y-73838160D01*
X18034461Y-74061560D01*
X18078045Y-74280668D01*
X18163536Y-74487062D01*
X18287651Y-74672813D01*
X18445618Y-74830780D01*
X18631369Y-74954895D01*
X18837763Y-75040386D01*
X19056871Y-75083970D01*
X19280271Y-75083970D01*
X19499379Y-75040386D01*
X19705773Y-74954895D01*
X19891524Y-74830780D01*
X20049491Y-74672813D01*
X20173606Y-74487062D01*
X20259097Y-74280668D01*
X20302681Y-74061560D01*
X20302681Y-73838160D01*
X20259097Y-73619052D01*
X20173606Y-73412658D01*
X20049491Y-73226907D01*
X19891524Y-73068940D01*
X19705773Y-72944825D01*
X19499379Y-72859334D01*
X19484695Y-72856413D01*
X31426400Y-72856413D01*
X31426400Y-73026527D01*
X31459587Y-73193373D01*
X31481497Y-73246269D01*
X31459587Y-73299164D01*
X31426400Y-73466010D01*
X31426400Y-73636124D01*
X31459587Y-73802970D01*
X31524687Y-73960135D01*
X31575067Y-74035533D01*
X31524687Y-74110932D01*
X31459587Y-74268097D01*
X31426400Y-74434943D01*
X31426400Y-74605057D01*
X31459587Y-74771903D01*
X31524687Y-74929068D01*
X31619198Y-75070513D01*
X31739487Y-75190802D01*
X31880932Y-75285313D01*
X32038097Y-75350413D01*
X32204943Y-75383600D01*
X32375057Y-75383600D01*
X32541903Y-75350413D01*
X32699068Y-75285313D01*
X32840513Y-75190802D01*
X32960802Y-75070513D01*
X33055313Y-74929068D01*
X33120413Y-74771903D01*
X33153600Y-74605057D01*
X33153600Y-74434943D01*
X33120413Y-74268097D01*
X33055313Y-74110932D01*
X33004933Y-74035533D01*
X33055313Y-73960135D01*
X33120413Y-73802970D01*
X33153600Y-73636124D01*
X33153600Y-73466010D01*
X33120413Y-73299164D01*
X33098503Y-73246269D01*
X33120413Y-73193373D01*
X33153600Y-73026527D01*
X33153600Y-72975000D01*
X76936928Y-72975000D01*
X76936928Y-73825000D01*
X76949188Y-73949482D01*
X76985498Y-74069180D01*
X77044463Y-74179494D01*
X77123815Y-74276185D01*
X77220506Y-74355537D01*
X77330820Y-74414502D01*
X77450518Y-74450812D01*
X77575000Y-74463072D01*
X78425000Y-74463072D01*
X78549482Y-74450812D01*
X78669180Y-74414502D01*
X78779494Y-74355537D01*
X78876185Y-74276185D01*
X78955537Y-74179494D01*
X79014502Y-74069180D01*
X79050812Y-73949482D01*
X79063072Y-73825000D01*
X79063072Y-72975000D01*
X79050812Y-72850518D01*
X79014502Y-72730820D01*
X78955537Y-72620506D01*
X78876185Y-72523815D01*
X78779494Y-72444463D01*
X78669180Y-72385498D01*
X78549482Y-72349188D01*
X78425000Y-72336928D01*
X77575000Y-72336928D01*
X77450518Y-72349188D01*
X77330820Y-72385498D01*
X77220506Y-72444463D01*
X77123815Y-72523815D01*
X77044463Y-72620506D01*
X76985498Y-72730820D01*
X76949188Y-72850518D01*
X76936928Y-72975000D01*
X33153600Y-72975000D01*
X33153600Y-72856413D01*
X33120413Y-72689567D01*
X33055313Y-72532402D01*
X32960802Y-72390957D01*
X32840513Y-72270668D01*
X32699068Y-72176157D01*
X32541903Y-72111057D01*
X32375057Y-72077870D01*
X32204943Y-72077870D01*
X32038097Y-72111057D01*
X31880932Y-72176157D01*
X31739487Y-72270668D01*
X31619198Y-72390957D01*
X31524687Y-72532402D01*
X31459587Y-72689567D01*
X31426400Y-72856413D01*
X19484695Y-72856413D01*
X19280271Y-72815750D01*
X19056871Y-72815750D01*
X18837763Y-72859334D01*
X18631369Y-72944825D01*
X18445618Y-73068940D01*
X18287651Y-73226907D01*
X18163536Y-73412658D01*
X18078045Y-73619052D01*
X18034461Y-73838160D01*
X12660000Y-73838160D01*
X12660000Y-69614943D01*
X42906400Y-69614943D01*
X42906400Y-69785057D01*
X42939587Y-69951903D01*
X43004687Y-70109068D01*
X43099198Y-70250513D01*
X43219487Y-70370802D01*
X43360932Y-70465313D01*
X43518097Y-70530413D01*
X43684943Y-70563600D01*
X43855057Y-70563600D01*
X44021903Y-70530413D01*
X44179068Y-70465313D01*
X44320513Y-70370802D01*
X44440802Y-70250513D01*
X44535313Y-70109068D01*
X44600413Y-69951903D01*
X44633600Y-69785057D01*
X44633600Y-69784943D01*
X52966400Y-69784943D01*
X52966400Y-69955057D01*
X52999587Y-70121903D01*
X53064687Y-70279068D01*
X53159198Y-70420513D01*
X53279487Y-70540802D01*
X53420932Y-70635313D01*
X53578097Y-70700413D01*
X53744943Y-70733600D01*
X53915057Y-70733600D01*
X54081903Y-70700413D01*
X54239068Y-70635313D01*
X54380513Y-70540802D01*
X54500000Y-70421315D01*
X54589487Y-70510802D01*
X54730932Y-70605313D01*
X54888097Y-70670413D01*
X55054943Y-70703600D01*
X55225057Y-70703600D01*
X55391903Y-70670413D01*
X55549068Y-70605313D01*
X55690513Y-70510802D01*
X55810802Y-70390513D01*
X55905313Y-70249068D01*
X55970413Y-70091903D01*
X56003600Y-69925057D01*
X56003600Y-69754943D01*
X55970413Y-69588097D01*
X55905313Y-69430932D01*
X55810802Y-69289487D01*
X55690513Y-69169198D01*
X55549068Y-69074687D01*
X55391903Y-69009587D01*
X55225057Y-68976400D01*
X55054943Y-68976400D01*
X54888097Y-69009587D01*
X54730932Y-69074687D01*
X54589487Y-69169198D01*
X54470000Y-69288685D01*
X54380513Y-69199198D01*
X54239068Y-69104687D01*
X54081903Y-69039587D01*
X53915057Y-69006400D01*
X53744943Y-69006400D01*
X53578097Y-69039587D01*
X53420932Y-69104687D01*
X53279487Y-69199198D01*
X53159198Y-69319487D01*
X53064687Y-69460932D01*
X52999587Y-69618097D01*
X52966400Y-69784943D01*
X44633600Y-69784943D01*
X44633600Y-69614943D01*
X44600413Y-69448097D01*
X44535313Y-69290932D01*
X44440802Y-69149487D01*
X44320513Y-69029198D01*
X44179068Y-68934687D01*
X44021903Y-68869587D01*
X43855057Y-68836400D01*
X43684943Y-68836400D01*
X43518097Y-68869587D01*
X43360932Y-68934687D01*
X43219487Y-69029198D01*
X43099198Y-69149487D01*
X43004687Y-69290932D01*
X42939587Y-69448097D01*
X42906400Y-69614943D01*
X12660000Y-69614943D01*
X12660000Y-65907438D01*
X45310200Y-65907438D01*
X45310200Y-66092562D01*
X45346316Y-66274129D01*
X45417160Y-66445162D01*
X45520010Y-66599087D01*
X45650913Y-66729990D01*
X45804838Y-66832840D01*
X45975871Y-66903684D01*
X46157438Y-66939800D01*
X46342562Y-66939800D01*
X46467526Y-66914943D01*
X60256400Y-66914943D01*
X60256400Y-67085057D01*
X60289587Y-67251903D01*
X60354687Y-67409068D01*
X60449198Y-67550513D01*
X60569487Y-67670802D01*
X60710932Y-67765313D01*
X60868097Y-67830413D01*
X61034943Y-67863600D01*
X61205057Y-67863600D01*
X61371903Y-67830413D01*
X61529068Y-67765313D01*
X61612415Y-67709622D01*
X61620932Y-67715313D01*
X61778097Y-67780413D01*
X61944943Y-67813600D01*
X62115057Y-67813600D01*
X62281903Y-67780413D01*
X62439068Y-67715313D01*
X62580513Y-67620802D01*
X62700802Y-67500513D01*
X62795313Y-67359068D01*
X62860413Y-67201903D01*
X62893600Y-67035057D01*
X62893600Y-66864943D01*
X62860413Y-66698097D01*
X62795313Y-66540932D01*
X62711130Y-66414943D01*
X70886400Y-66414943D01*
X70886400Y-66585057D01*
X70919587Y-66751903D01*
X70984687Y-66909068D01*
X71079198Y-67050513D01*
X71199487Y-67170802D01*
X71340932Y-67265313D01*
X71498097Y-67330413D01*
X71664943Y-67363600D01*
X71835057Y-67363600D01*
X72001903Y-67330413D01*
X72159068Y-67265313D01*
X72300513Y-67170802D01*
X72420802Y-67050513D01*
X72515313Y-66909068D01*
X72580413Y-66751903D01*
X72613600Y-66585057D01*
X72613600Y-66414943D01*
X72580413Y-66248097D01*
X72515313Y-66090932D01*
X72420802Y-65949487D01*
X72300513Y-65829198D01*
X72159068Y-65734687D01*
X72001903Y-65669587D01*
X71835057Y-65636400D01*
X71664943Y-65636400D01*
X71498097Y-65669587D01*
X71340932Y-65734687D01*
X71199487Y-65829198D01*
X71079198Y-65949487D01*
X70984687Y-66090932D01*
X70919587Y-66248097D01*
X70886400Y-66414943D01*
X62711130Y-66414943D01*
X62700802Y-66399487D01*
X62580513Y-66279198D01*
X62439068Y-66184687D01*
X62281903Y-66119587D01*
X62115057Y-66086400D01*
X61944943Y-66086400D01*
X61778097Y-66119587D01*
X61620932Y-66184687D01*
X61537585Y-66240378D01*
X61529068Y-66234687D01*
X61371903Y-66169587D01*
X61205057Y-66136400D01*
X61034943Y-66136400D01*
X60868097Y-66169587D01*
X60710932Y-66234687D01*
X60569487Y-66329198D01*
X60449198Y-66449487D01*
X60354687Y-66590932D01*
X60289587Y-66748097D01*
X60256400Y-66914943D01*
X46467526Y-66914943D01*
X46524129Y-66903684D01*
X46695162Y-66832840D01*
X46849087Y-66729990D01*
X46979990Y-66599087D01*
X47082840Y-66445162D01*
X47153684Y-66274129D01*
X47189800Y-66092562D01*
X47189800Y-65907438D01*
X47169909Y-65807438D01*
X50360200Y-65807438D01*
X50360200Y-65992562D01*
X50396316Y-66174129D01*
X50467160Y-66345162D01*
X50570010Y-66499087D01*
X50700913Y-66629990D01*
X50854838Y-66732840D01*
X51025871Y-66803684D01*
X51207438Y-66839800D01*
X51392562Y-66839800D01*
X51574129Y-66803684D01*
X51745162Y-66732840D01*
X51899087Y-66629990D01*
X52029990Y-66499087D01*
X52132840Y-66345162D01*
X52203684Y-66174129D01*
X52239800Y-65992562D01*
X52239800Y-65807438D01*
X52203684Y-65625871D01*
X52132840Y-65454838D01*
X52029990Y-65300913D01*
X51899087Y-65170010D01*
X51745162Y-65067160D01*
X51574129Y-64996316D01*
X51392562Y-64960200D01*
X51207438Y-64960200D01*
X51025871Y-64996316D01*
X50854838Y-65067160D01*
X50700913Y-65170010D01*
X50570010Y-65300913D01*
X50467160Y-65454838D01*
X50396316Y-65625871D01*
X50360200Y-65807438D01*
X47169909Y-65807438D01*
X47153684Y-65725871D01*
X47082840Y-65554838D01*
X46979990Y-65400913D01*
X46849087Y-65270010D01*
X46695162Y-65167160D01*
X46524129Y-65096316D01*
X46342562Y-65060200D01*
X46157438Y-65060200D01*
X45975871Y-65096316D01*
X45804838Y-65167160D01*
X45650913Y-65270010D01*
X45520010Y-65400913D01*
X45417160Y-65554838D01*
X45346316Y-65725871D01*
X45310200Y-65907438D01*
X12660000Y-65907438D01*
X12660000Y-61214943D01*
X33236400Y-61214943D01*
X33236400Y-61385057D01*
X33269587Y-61551903D01*
X33334687Y-61709068D01*
X33429198Y-61850513D01*
X33549487Y-61970802D01*
X33690932Y-62065313D01*
X33848097Y-62130413D01*
X34014943Y-62163600D01*
X34185057Y-62163600D01*
X34351903Y-62130413D01*
X34450000Y-62089780D01*
X34548097Y-62130413D01*
X34714943Y-62163600D01*
X34885057Y-62163600D01*
X35051903Y-62130413D01*
X35209068Y-62065313D01*
X35350513Y-61970802D01*
X35470802Y-61850513D01*
X35565313Y-61709068D01*
X35630413Y-61551903D01*
X35663600Y-61385057D01*
X35663600Y-61214943D01*
X35630413Y-61048097D01*
X35565313Y-60890932D01*
X35481130Y-60764943D01*
X39033860Y-60764943D01*
X39033860Y-60935057D01*
X39067047Y-61101903D01*
X39132147Y-61259068D01*
X39226658Y-61400513D01*
X39346947Y-61520802D01*
X39488392Y-61615313D01*
X39645557Y-61680413D01*
X39812403Y-61713600D01*
X39982517Y-61713600D01*
X40149363Y-61680413D01*
X40306528Y-61615313D01*
X40447973Y-61520802D01*
X40493730Y-61475045D01*
X40539487Y-61520802D01*
X40670406Y-61608279D01*
X40579198Y-61699487D01*
X40484687Y-61840932D01*
X40419587Y-61998097D01*
X40386400Y-62164943D01*
X40386400Y-62335057D01*
X40419587Y-62501903D01*
X40484687Y-62659068D01*
X40579198Y-62800513D01*
X40668685Y-62890000D01*
X40609198Y-62949487D01*
X40514687Y-63090932D01*
X40449587Y-63248097D01*
X40416400Y-63414943D01*
X40416400Y-63585057D01*
X40449587Y-63751903D01*
X40514687Y-63909068D01*
X40609198Y-64050513D01*
X40729487Y-64170802D01*
X40870932Y-64265313D01*
X41028097Y-64330413D01*
X41194943Y-64363600D01*
X41365057Y-64363600D01*
X41531903Y-64330413D01*
X41689068Y-64265313D01*
X41830513Y-64170802D01*
X41950802Y-64050513D01*
X42045313Y-63909068D01*
X42110413Y-63751903D01*
X42143600Y-63585057D01*
X42143600Y-63414943D01*
X42111078Y-63251438D01*
X46612200Y-63251438D01*
X46612200Y-63436562D01*
X46648316Y-63618129D01*
X46719160Y-63789162D01*
X46822010Y-63943087D01*
X46952913Y-64073990D01*
X47106838Y-64176840D01*
X47277871Y-64247684D01*
X47459438Y-64283800D01*
X47644562Y-64283800D01*
X47826129Y-64247684D01*
X47990518Y-64179592D01*
X47963760Y-64219638D01*
X47892916Y-64390671D01*
X47856800Y-64572238D01*
X47856800Y-64757362D01*
X47892916Y-64938929D01*
X47963760Y-65109962D01*
X48066610Y-65263887D01*
X48197513Y-65394790D01*
X48351438Y-65497640D01*
X48522471Y-65568484D01*
X48704038Y-65604600D01*
X48889162Y-65604600D01*
X49070729Y-65568484D01*
X49241762Y-65497640D01*
X49395687Y-65394790D01*
X49526590Y-65263887D01*
X49629440Y-65109962D01*
X49700284Y-64938929D01*
X49736400Y-64757362D01*
X49736400Y-64572238D01*
X49700284Y-64390671D01*
X49629440Y-64219638D01*
X49526590Y-64065713D01*
X49395687Y-63934810D01*
X49241762Y-63831960D01*
X49070729Y-63761116D01*
X48889162Y-63725000D01*
X48704038Y-63725000D01*
X48522471Y-63761116D01*
X48358082Y-63829208D01*
X48384840Y-63789162D01*
X48455684Y-63618129D01*
X48491800Y-63436562D01*
X48491800Y-63251438D01*
X49279200Y-63251438D01*
X49279200Y-63436562D01*
X49315316Y-63618129D01*
X49386160Y-63789162D01*
X49489010Y-63943087D01*
X49619913Y-64073990D01*
X49773838Y-64176840D01*
X49944871Y-64247684D01*
X50126438Y-64283800D01*
X50311562Y-64283800D01*
X50493129Y-64247684D01*
X50664162Y-64176840D01*
X50818087Y-64073990D01*
X50948990Y-63943087D01*
X51051840Y-63789162D01*
X51122684Y-63618129D01*
X51158800Y-63436562D01*
X51158800Y-63251438D01*
X51122684Y-63069871D01*
X51051840Y-62898838D01*
X50948990Y-62744913D01*
X50818087Y-62614010D01*
X50664162Y-62511160D01*
X50493129Y-62440316D01*
X50311562Y-62404200D01*
X50126438Y-62404200D01*
X49944871Y-62440316D01*
X49773838Y-62511160D01*
X49619913Y-62614010D01*
X49489010Y-62744913D01*
X49386160Y-62898838D01*
X49315316Y-63069871D01*
X49279200Y-63251438D01*
X48491800Y-63251438D01*
X48455684Y-63069871D01*
X48384840Y-62898838D01*
X48281990Y-62744913D01*
X48151087Y-62614010D01*
X47997162Y-62511160D01*
X47826129Y-62440316D01*
X47644562Y-62404200D01*
X47459438Y-62404200D01*
X47277871Y-62440316D01*
X47106838Y-62511160D01*
X46952913Y-62614010D01*
X46822010Y-62744913D01*
X46719160Y-62898838D01*
X46648316Y-63069871D01*
X46612200Y-63251438D01*
X42111078Y-63251438D01*
X42110413Y-63248097D01*
X42045313Y-63090932D01*
X41950802Y-62949487D01*
X41861315Y-62860000D01*
X41920802Y-62800513D01*
X42015313Y-62659068D01*
X42080413Y-62501903D01*
X42113600Y-62335057D01*
X42113600Y-62164943D01*
X42080413Y-61998097D01*
X42015313Y-61840932D01*
X41920802Y-61699487D01*
X41800513Y-61579198D01*
X41669594Y-61491721D01*
X41760802Y-61400513D01*
X41783318Y-61366815D01*
X41819198Y-61420513D01*
X41939487Y-61540802D01*
X42080932Y-61635313D01*
X42238097Y-61700413D01*
X42404943Y-61733600D01*
X42575057Y-61733600D01*
X42741903Y-61700413D01*
X42899068Y-61635313D01*
X43040513Y-61540802D01*
X43160802Y-61420513D01*
X43255313Y-61279068D01*
X43320413Y-61121903D01*
X43353600Y-60955057D01*
X43353600Y-60784943D01*
X43320413Y-60618097D01*
X43255313Y-60460932D01*
X43160802Y-60319487D01*
X43080045Y-60238730D01*
X43123832Y-60194943D01*
X45416400Y-60194943D01*
X45416400Y-60365057D01*
X45449587Y-60531903D01*
X45514687Y-60689068D01*
X45609198Y-60830513D01*
X45729487Y-60950802D01*
X45870932Y-61045313D01*
X46028097Y-61110413D01*
X46194943Y-61143600D01*
X46365057Y-61143600D01*
X46531903Y-61110413D01*
X46689068Y-61045313D01*
X46830513Y-60950802D01*
X46950802Y-60830513D01*
X47045313Y-60689068D01*
X47110413Y-60531903D01*
X47143600Y-60365057D01*
X47143600Y-60194943D01*
X47137633Y-60164943D01*
X50476400Y-60164943D01*
X50476400Y-60335057D01*
X50509587Y-60501903D01*
X50574687Y-60659068D01*
X50669198Y-60800513D01*
X50789487Y-60920802D01*
X50930932Y-61015313D01*
X51088097Y-61080413D01*
X51254943Y-61113600D01*
X51425057Y-61113600D01*
X51591903Y-61080413D01*
X51749068Y-61015313D01*
X51890513Y-60920802D01*
X52010802Y-60800513D01*
X52014523Y-60794943D01*
X54036400Y-60794943D01*
X54036400Y-60965057D01*
X54069587Y-61131903D01*
X54134687Y-61289068D01*
X54229198Y-61430513D01*
X54349487Y-61550802D01*
X54490932Y-61645313D01*
X54648097Y-61710413D01*
X54814943Y-61743600D01*
X54985057Y-61743600D01*
X55151903Y-61710413D01*
X55309068Y-61645313D01*
X55450513Y-61550802D01*
X55570802Y-61430513D01*
X55576063Y-61422638D01*
X58855000Y-61422638D01*
X58855000Y-61607762D01*
X58891116Y-61789329D01*
X58961960Y-61960362D01*
X59064810Y-62114287D01*
X59100723Y-62150200D01*
X59064810Y-62186113D01*
X58961960Y-62340038D01*
X58891116Y-62511071D01*
X58855000Y-62692638D01*
X58855000Y-62877762D01*
X58891116Y-63059329D01*
X58961960Y-63230362D01*
X59064810Y-63384287D01*
X59075323Y-63394800D01*
X59064810Y-63405313D01*
X58961960Y-63559238D01*
X58891116Y-63730271D01*
X58855000Y-63911838D01*
X58855000Y-64096962D01*
X58891116Y-64278529D01*
X58961960Y-64449562D01*
X59064810Y-64603487D01*
X59195713Y-64734390D01*
X59349638Y-64837240D01*
X59520671Y-64908084D01*
X59702238Y-64944200D01*
X59887362Y-64944200D01*
X60068929Y-64908084D01*
X60125000Y-64884859D01*
X60181071Y-64908084D01*
X60362638Y-64944200D01*
X60547762Y-64944200D01*
X60729329Y-64908084D01*
X60785400Y-64884859D01*
X60841471Y-64908084D01*
X61023038Y-64944200D01*
X61208162Y-64944200D01*
X61389729Y-64908084D01*
X61560762Y-64837240D01*
X61714687Y-64734390D01*
X61845590Y-64603487D01*
X61948440Y-64449562D01*
X62019284Y-64278529D01*
X62055400Y-64096962D01*
X62055400Y-63911838D01*
X62019284Y-63730271D01*
X61948440Y-63559238D01*
X61845590Y-63405313D01*
X61835077Y-63394800D01*
X61845590Y-63384287D01*
X61948440Y-63230362D01*
X62019284Y-63059329D01*
X62055400Y-62877762D01*
X62055400Y-62692638D01*
X62019284Y-62511071D01*
X61948440Y-62340038D01*
X61845590Y-62186113D01*
X61809677Y-62150200D01*
X61845590Y-62114287D01*
X61920856Y-62001643D01*
X65143121Y-62001643D01*
X65143121Y-62171757D01*
X65176308Y-62338603D01*
X65241408Y-62495768D01*
X65335919Y-62637213D01*
X65456208Y-62757502D01*
X65597653Y-62852013D01*
X65754818Y-62917113D01*
X65921664Y-62950300D01*
X66091778Y-62950300D01*
X66258624Y-62917113D01*
X66415789Y-62852013D01*
X66557234Y-62757502D01*
X66649793Y-62664943D01*
X69136400Y-62664943D01*
X69136400Y-62835057D01*
X69169587Y-63001903D01*
X69234687Y-63159068D01*
X69329198Y-63300513D01*
X69449487Y-63420802D01*
X69590932Y-63515313D01*
X69748097Y-63580413D01*
X69914943Y-63613600D01*
X70085057Y-63613600D01*
X70251903Y-63580413D01*
X70409068Y-63515313D01*
X70550513Y-63420802D01*
X70670802Y-63300513D01*
X70765313Y-63159068D01*
X70830413Y-63001903D01*
X70863600Y-62835057D01*
X70863600Y-62664943D01*
X70830413Y-62498097D01*
X70765313Y-62340932D01*
X70670802Y-62199487D01*
X70550513Y-62079198D01*
X70409068Y-61984687D01*
X70251903Y-61919587D01*
X70085057Y-61886400D01*
X69914943Y-61886400D01*
X69748097Y-61919587D01*
X69590932Y-61984687D01*
X69449487Y-62079198D01*
X69329198Y-62199487D01*
X69234687Y-62340932D01*
X69169587Y-62498097D01*
X69136400Y-62664943D01*
X66649793Y-62664943D01*
X66677523Y-62637213D01*
X66772034Y-62495768D01*
X66837134Y-62338603D01*
X66870321Y-62171757D01*
X66870321Y-62001643D01*
X66837134Y-61834797D01*
X66772034Y-61677632D01*
X66677523Y-61536187D01*
X66557234Y-61415898D01*
X66415789Y-61321387D01*
X66258624Y-61256287D01*
X66091778Y-61223100D01*
X65921664Y-61223100D01*
X65754818Y-61256287D01*
X65597653Y-61321387D01*
X65456208Y-61415898D01*
X65335919Y-61536187D01*
X65241408Y-61677632D01*
X65176308Y-61834797D01*
X65143121Y-62001643D01*
X61920856Y-62001643D01*
X61948440Y-61960362D01*
X62019284Y-61789329D01*
X62055400Y-61607762D01*
X62055400Y-61422638D01*
X62019284Y-61241071D01*
X61948440Y-61070038D01*
X61878218Y-60964943D01*
X67396400Y-60964943D01*
X67396400Y-61135057D01*
X67429587Y-61301903D01*
X67494687Y-61459068D01*
X67589198Y-61600513D01*
X67709487Y-61720802D01*
X67850932Y-61815313D01*
X68008097Y-61880413D01*
X68174943Y-61913600D01*
X68345057Y-61913600D01*
X68511903Y-61880413D01*
X68669068Y-61815313D01*
X68810513Y-61720802D01*
X68930802Y-61600513D01*
X69025313Y-61459068D01*
X69090413Y-61301903D01*
X69123600Y-61135057D01*
X69123600Y-60964943D01*
X69090413Y-60798097D01*
X69025313Y-60640932D01*
X68930802Y-60499487D01*
X68810513Y-60379198D01*
X68669068Y-60284687D01*
X68511903Y-60219587D01*
X68345057Y-60186400D01*
X68174943Y-60186400D01*
X68008097Y-60219587D01*
X67850932Y-60284687D01*
X67709487Y-60379198D01*
X67589198Y-60499487D01*
X67494687Y-60640932D01*
X67429587Y-60798097D01*
X67396400Y-60964943D01*
X61878218Y-60964943D01*
X61845590Y-60916113D01*
X61714687Y-60785210D01*
X61560762Y-60682360D01*
X61389729Y-60611516D01*
X61208162Y-60575400D01*
X61023038Y-60575400D01*
X60841471Y-60611516D01*
X60785400Y-60634741D01*
X60729329Y-60611516D01*
X60547762Y-60575400D01*
X60362638Y-60575400D01*
X60181071Y-60611516D01*
X60125000Y-60634741D01*
X60068929Y-60611516D01*
X59887362Y-60575400D01*
X59702238Y-60575400D01*
X59520671Y-60611516D01*
X59349638Y-60682360D01*
X59195713Y-60785210D01*
X59064810Y-60916113D01*
X58961960Y-61070038D01*
X58891116Y-61241071D01*
X58855000Y-61422638D01*
X55576063Y-61422638D01*
X55665313Y-61289068D01*
X55730413Y-61131903D01*
X55763600Y-60965057D01*
X55763600Y-60794943D01*
X55730413Y-60628097D01*
X55665313Y-60470932D01*
X55570802Y-60329487D01*
X55450513Y-60209198D01*
X55309068Y-60114687D01*
X55151903Y-60049587D01*
X54985057Y-60016400D01*
X54814943Y-60016400D01*
X54648097Y-60049587D01*
X54490932Y-60114687D01*
X54349487Y-60209198D01*
X54229198Y-60329487D01*
X54134687Y-60470932D01*
X54069587Y-60628097D01*
X54036400Y-60794943D01*
X52014523Y-60794943D01*
X52105313Y-60659068D01*
X52170413Y-60501903D01*
X52203600Y-60335057D01*
X52203600Y-60164943D01*
X52170413Y-59998097D01*
X52105313Y-59840932D01*
X52010802Y-59699487D01*
X51890513Y-59579198D01*
X51749068Y-59484687D01*
X51591903Y-59419587D01*
X51425057Y-59386400D01*
X51254943Y-59386400D01*
X51088097Y-59419587D01*
X50930932Y-59484687D01*
X50789487Y-59579198D01*
X50669198Y-59699487D01*
X50574687Y-59840932D01*
X50509587Y-59998097D01*
X50476400Y-60164943D01*
X47137633Y-60164943D01*
X47110413Y-60028097D01*
X47045313Y-59870932D01*
X46950802Y-59729487D01*
X46830513Y-59609198D01*
X46689068Y-59514687D01*
X46531903Y-59449587D01*
X46365057Y-59416400D01*
X46194943Y-59416400D01*
X46028097Y-59449587D01*
X45870932Y-59514687D01*
X45729487Y-59609198D01*
X45609198Y-59729487D01*
X45514687Y-59870932D01*
X45449587Y-60028097D01*
X45416400Y-60194943D01*
X43123832Y-60194943D01*
X43148262Y-60170513D01*
X43242773Y-60029068D01*
X43307873Y-59871903D01*
X43341060Y-59705057D01*
X43341060Y-59534943D01*
X43307873Y-59368097D01*
X43242773Y-59210932D01*
X43148262Y-59069487D01*
X43027973Y-58949198D01*
X42886528Y-58854687D01*
X42729363Y-58789587D01*
X42562517Y-58756400D01*
X42392403Y-58756400D01*
X42225557Y-58789587D01*
X42068392Y-58854687D01*
X41926947Y-58949198D01*
X41806658Y-59069487D01*
X41712147Y-59210932D01*
X41647047Y-59368097D01*
X41613860Y-59534943D01*
X41613860Y-59705057D01*
X41647047Y-59871903D01*
X41712147Y-60029068D01*
X41806658Y-60170513D01*
X41887415Y-60251270D01*
X41819198Y-60319487D01*
X41796682Y-60353185D01*
X41760802Y-60299487D01*
X41640513Y-60179198D01*
X41499068Y-60084687D01*
X41341903Y-60019587D01*
X41175057Y-59986400D01*
X41004943Y-59986400D01*
X40838097Y-60019587D01*
X40680932Y-60084687D01*
X40539487Y-60179198D01*
X40493730Y-60224955D01*
X40447973Y-60179198D01*
X40306528Y-60084687D01*
X40149363Y-60019587D01*
X39982517Y-59986400D01*
X39812403Y-59986400D01*
X39645557Y-60019587D01*
X39488392Y-60084687D01*
X39346947Y-60179198D01*
X39226658Y-60299487D01*
X39132147Y-60440932D01*
X39067047Y-60598097D01*
X39033860Y-60764943D01*
X35481130Y-60764943D01*
X35470802Y-60749487D01*
X35350513Y-60629198D01*
X35209068Y-60534687D01*
X35051903Y-60469587D01*
X34885057Y-60436400D01*
X34714943Y-60436400D01*
X34548097Y-60469587D01*
X34450000Y-60510220D01*
X34351903Y-60469587D01*
X34185057Y-60436400D01*
X34014943Y-60436400D01*
X33848097Y-60469587D01*
X33690932Y-60534687D01*
X33549487Y-60629198D01*
X33429198Y-60749487D01*
X33334687Y-60890932D01*
X33269587Y-61048097D01*
X33236400Y-61214943D01*
X12660000Y-61214943D01*
X12660000Y-57814943D01*
X27436400Y-57814943D01*
X27436400Y-57985057D01*
X27469587Y-58151903D01*
X27534687Y-58309068D01*
X27629198Y-58450513D01*
X27749487Y-58570802D01*
X27890932Y-58665313D01*
X28048097Y-58730413D01*
X28214943Y-58763600D01*
X28385057Y-58763600D01*
X28551903Y-58730413D01*
X28709068Y-58665313D01*
X28750000Y-58637963D01*
X28790932Y-58665313D01*
X28948097Y-58730413D01*
X29114943Y-58763600D01*
X29285057Y-58763600D01*
X29451903Y-58730413D01*
X29609068Y-58665313D01*
X29611374Y-58663772D01*
X29613680Y-58665313D01*
X29770845Y-58730413D01*
X29937691Y-58763600D01*
X30107805Y-58763600D01*
X30274651Y-58730413D01*
X30361370Y-58694493D01*
X30448089Y-58730413D01*
X30614935Y-58763600D01*
X30785049Y-58763600D01*
X30951895Y-58730413D01*
X31109060Y-58665313D01*
X31250505Y-58570802D01*
X31370794Y-58450513D01*
X31465305Y-58309068D01*
X31511543Y-58197438D01*
X68900200Y-58197438D01*
X68900200Y-58382562D01*
X68936316Y-58564129D01*
X69007160Y-58735162D01*
X69110010Y-58889087D01*
X69240913Y-59019990D01*
X69394838Y-59122840D01*
X69565871Y-59193684D01*
X69747438Y-59229800D01*
X69932562Y-59229800D01*
X70114129Y-59193684D01*
X70285162Y-59122840D01*
X70439087Y-59019990D01*
X70569990Y-58889087D01*
X70672840Y-58735162D01*
X70743684Y-58564129D01*
X70779800Y-58382562D01*
X70779800Y-58197438D01*
X70743684Y-58015871D01*
X70672840Y-57844838D01*
X70569990Y-57690913D01*
X70439087Y-57560010D01*
X70285162Y-57457160D01*
X70114129Y-57386316D01*
X69932562Y-57350200D01*
X69747438Y-57350200D01*
X69565871Y-57386316D01*
X69394838Y-57457160D01*
X69240913Y-57560010D01*
X69110010Y-57690913D01*
X69007160Y-57844838D01*
X68936316Y-58015871D01*
X68900200Y-58197438D01*
X31511543Y-58197438D01*
X31530405Y-58151903D01*
X31563592Y-57985057D01*
X31563592Y-57814943D01*
X31530405Y-57648097D01*
X31465305Y-57490932D01*
X31370794Y-57349487D01*
X31250505Y-57229198D01*
X31109060Y-57134687D01*
X30951895Y-57069587D01*
X30785049Y-57036400D01*
X30614935Y-57036400D01*
X30448089Y-57069587D01*
X30361370Y-57105507D01*
X30274651Y-57069587D01*
X30107805Y-57036400D01*
X29937691Y-57036400D01*
X29770845Y-57069587D01*
X29613680Y-57134687D01*
X29611374Y-57136228D01*
X29609068Y-57134687D01*
X29451903Y-57069587D01*
X29285057Y-57036400D01*
X29114943Y-57036400D01*
X28948097Y-57069587D01*
X28790932Y-57134687D01*
X28750000Y-57162037D01*
X28709068Y-57134687D01*
X28551903Y-57069587D01*
X28385057Y-57036400D01*
X28214943Y-57036400D01*
X28048097Y-57069587D01*
X27890932Y-57134687D01*
X27749487Y-57229198D01*
X27629198Y-57349487D01*
X27534687Y-57490932D01*
X27469587Y-57648097D01*
X27436400Y-57814943D01*
X12660000Y-57814943D01*
X12660000Y-54007438D01*
X23960200Y-54007438D01*
X23960200Y-54192562D01*
X23996316Y-54374129D01*
X24067160Y-54545162D01*
X24170010Y-54699087D01*
X24300913Y-54829990D01*
X24454838Y-54932840D01*
X24625871Y-55003684D01*
X24807438Y-55039800D01*
X24992562Y-55039800D01*
X25174129Y-55003684D01*
X25345162Y-54932840D01*
X25499087Y-54829990D01*
X25629990Y-54699087D01*
X25732840Y-54545162D01*
X25761925Y-54474943D01*
X37876400Y-54474943D01*
X37876400Y-54645057D01*
X37909587Y-54811903D01*
X37974687Y-54969068D01*
X38069198Y-55110513D01*
X38189487Y-55230802D01*
X38330932Y-55325313D01*
X38488097Y-55390413D01*
X38654943Y-55423600D01*
X38825057Y-55423600D01*
X38991903Y-55390413D01*
X39149068Y-55325313D01*
X39290513Y-55230802D01*
X39340000Y-55181315D01*
X39348685Y-55190000D01*
X39239198Y-55299487D01*
X39144687Y-55440932D01*
X39079587Y-55598097D01*
X39046400Y-55764943D01*
X39046400Y-55935057D01*
X39079587Y-56101903D01*
X39144687Y-56259068D01*
X39239198Y-56400513D01*
X39359487Y-56520802D01*
X39500932Y-56615313D01*
X39658097Y-56680413D01*
X39824943Y-56713600D01*
X39995057Y-56713600D01*
X40161903Y-56680413D01*
X40319068Y-56615313D01*
X40460513Y-56520802D01*
X40570000Y-56411315D01*
X40639487Y-56480802D01*
X40780932Y-56575313D01*
X40938097Y-56640413D01*
X41104943Y-56673600D01*
X41275057Y-56673600D01*
X41441903Y-56640413D01*
X41599068Y-56575313D01*
X41740513Y-56480802D01*
X41840000Y-56381315D01*
X41939487Y-56480802D01*
X42080932Y-56575313D01*
X42238097Y-56640413D01*
X42404943Y-56673600D01*
X42575057Y-56673600D01*
X42741903Y-56640413D01*
X42899068Y-56575313D01*
X43040513Y-56480802D01*
X43160802Y-56360513D01*
X43255313Y-56219068D01*
X43320413Y-56061903D01*
X43353600Y-55895057D01*
X43353600Y-55724943D01*
X43336195Y-55637438D01*
X52940200Y-55637438D01*
X52940200Y-55822562D01*
X52976316Y-56004129D01*
X53047160Y-56175162D01*
X53150010Y-56329087D01*
X53280913Y-56459990D01*
X53434838Y-56562840D01*
X53605871Y-56633684D01*
X53787438Y-56669800D01*
X53972562Y-56669800D01*
X54154129Y-56633684D01*
X54325162Y-56562840D01*
X54479087Y-56459990D01*
X54609990Y-56329087D01*
X54712840Y-56175162D01*
X54783684Y-56004129D01*
X54819800Y-55822562D01*
X54819800Y-55637438D01*
X54783684Y-55455871D01*
X54712840Y-55284838D01*
X54609990Y-55130913D01*
X54479087Y-55000010D01*
X54325162Y-54897160D01*
X54154129Y-54826316D01*
X53972562Y-54790200D01*
X53787438Y-54790200D01*
X53605871Y-54826316D01*
X53434838Y-54897160D01*
X53280913Y-55000010D01*
X53150010Y-55130913D01*
X53047160Y-55284838D01*
X52976316Y-55455871D01*
X52940200Y-55637438D01*
X43336195Y-55637438D01*
X43320413Y-55558097D01*
X43255313Y-55400932D01*
X43160802Y-55259487D01*
X43040513Y-55139198D01*
X42899068Y-55044687D01*
X42741903Y-54979587D01*
X42575057Y-54946400D01*
X42404943Y-54946400D01*
X42238097Y-54979587D01*
X42080932Y-55044687D01*
X41939487Y-55139198D01*
X41840000Y-55238685D01*
X41740513Y-55139198D01*
X41599068Y-55044687D01*
X41441903Y-54979587D01*
X41275057Y-54946400D01*
X41104943Y-54946400D01*
X40938097Y-54979587D01*
X40780932Y-55044687D01*
X40639487Y-55139198D01*
X40530000Y-55248685D01*
X40501315Y-55220000D01*
X40610802Y-55110513D01*
X40705313Y-54969068D01*
X40770413Y-54811903D01*
X40803600Y-54645057D01*
X40803600Y-54474943D01*
X40770413Y-54308097D01*
X40716340Y-54177553D01*
X40868097Y-54240413D01*
X41034943Y-54273600D01*
X41205057Y-54273600D01*
X41371903Y-54240413D01*
X41529068Y-54175313D01*
X41670513Y-54080802D01*
X41706372Y-54044943D01*
X59846400Y-54044943D01*
X59846400Y-54215057D01*
X59879587Y-54381903D01*
X59905723Y-54445000D01*
X59879587Y-54508097D01*
X59846400Y-54674943D01*
X59846400Y-54845057D01*
X59879587Y-55011903D01*
X59926434Y-55125001D01*
X59879587Y-55238099D01*
X59846400Y-55404945D01*
X59846400Y-55575059D01*
X59879587Y-55741905D01*
X59940930Y-55890001D01*
X59879587Y-56038097D01*
X59846400Y-56204943D01*
X59846400Y-56375057D01*
X59879587Y-56541903D01*
X59944687Y-56699068D01*
X59982060Y-56755000D01*
X59944687Y-56810932D01*
X59879587Y-56968097D01*
X59846400Y-57134943D01*
X59846400Y-57305057D01*
X59879587Y-57471903D01*
X59944687Y-57629068D01*
X60039198Y-57770513D01*
X60159487Y-57890802D01*
X60300932Y-57985313D01*
X60458097Y-58050413D01*
X60624943Y-58083600D01*
X60795057Y-58083600D01*
X60961903Y-58050413D01*
X61119068Y-57985313D01*
X61260513Y-57890802D01*
X61380802Y-57770513D01*
X61475313Y-57629068D01*
X61540413Y-57471903D01*
X61573600Y-57305057D01*
X61573600Y-57134943D01*
X61540413Y-56968097D01*
X61475313Y-56810932D01*
X61437940Y-56755000D01*
X61475313Y-56699068D01*
X61540413Y-56541903D01*
X61573600Y-56375057D01*
X61573600Y-56204943D01*
X61540413Y-56038097D01*
X61479070Y-55890001D01*
X61540413Y-55741905D01*
X61573600Y-55575059D01*
X61573600Y-55404945D01*
X61540413Y-55238099D01*
X61493566Y-55125001D01*
X61540413Y-55011903D01*
X61573600Y-54845057D01*
X61573600Y-54674943D01*
X61540413Y-54508097D01*
X61514277Y-54445000D01*
X61540413Y-54381903D01*
X61573600Y-54215057D01*
X61573600Y-54044943D01*
X61540413Y-53878097D01*
X61475313Y-53720932D01*
X61380802Y-53579487D01*
X61260513Y-53459198D01*
X61119068Y-53364687D01*
X60961903Y-53299587D01*
X60795057Y-53266400D01*
X60624943Y-53266400D01*
X60458097Y-53299587D01*
X60300932Y-53364687D01*
X60159487Y-53459198D01*
X60039198Y-53579487D01*
X59944687Y-53720932D01*
X59879587Y-53878097D01*
X59846400Y-54044943D01*
X41706372Y-54044943D01*
X41790802Y-53960513D01*
X41885313Y-53819068D01*
X41950413Y-53661903D01*
X41983600Y-53495057D01*
X41983600Y-53324943D01*
X41950413Y-53158097D01*
X41885313Y-53000932D01*
X41790802Y-52859487D01*
X41670513Y-52739198D01*
X41529068Y-52644687D01*
X41371903Y-52579587D01*
X41205057Y-52546400D01*
X41034943Y-52546400D01*
X40868097Y-52579587D01*
X40710932Y-52644687D01*
X40569487Y-52739198D01*
X40530000Y-52778685D01*
X40440513Y-52689198D01*
X40299068Y-52594687D01*
X40141903Y-52529587D01*
X39975057Y-52496400D01*
X39804943Y-52496400D01*
X39638097Y-52529587D01*
X39480932Y-52594687D01*
X39339487Y-52689198D01*
X39219198Y-52809487D01*
X39124687Y-52950932D01*
X39059587Y-53108097D01*
X39026400Y-53274943D01*
X39026400Y-53445057D01*
X39059587Y-53611903D01*
X39124687Y-53769068D01*
X39139026Y-53790527D01*
X38991903Y-53729587D01*
X38825057Y-53696400D01*
X38654943Y-53696400D01*
X38488097Y-53729587D01*
X38330932Y-53794687D01*
X38189487Y-53889198D01*
X38069198Y-54009487D01*
X37974687Y-54150932D01*
X37909587Y-54308097D01*
X37876400Y-54474943D01*
X25761925Y-54474943D01*
X25803684Y-54374129D01*
X25839800Y-54192562D01*
X25839800Y-54007438D01*
X25803684Y-53825871D01*
X25732840Y-53654838D01*
X25629990Y-53500913D01*
X25499087Y-53370010D01*
X25345162Y-53267160D01*
X25174129Y-53196316D01*
X24992562Y-53160200D01*
X24807438Y-53160200D01*
X24625871Y-53196316D01*
X24454838Y-53267160D01*
X24300913Y-53370010D01*
X24170010Y-53500913D01*
X24067160Y-53654838D01*
X23996316Y-53825871D01*
X23960200Y-54007438D01*
X12660000Y-54007438D01*
X12660000Y-51307438D01*
X47860200Y-51307438D01*
X47860200Y-51492562D01*
X47896316Y-51674129D01*
X47967160Y-51845162D01*
X48070010Y-51999087D01*
X48200913Y-52129990D01*
X48354838Y-52232840D01*
X48525871Y-52303684D01*
X48707438Y-52339800D01*
X48892562Y-52339800D01*
X49074129Y-52303684D01*
X49245162Y-52232840D01*
X49399087Y-52129990D01*
X49529990Y-51999087D01*
X49632840Y-51845162D01*
X49703684Y-51674129D01*
X49739800Y-51492562D01*
X49739800Y-51307438D01*
X49703684Y-51125871D01*
X49632840Y-50954838D01*
X49529990Y-50800913D01*
X49399087Y-50670010D01*
X49245162Y-50567160D01*
X49074129Y-50496316D01*
X48892562Y-50460200D01*
X48707438Y-50460200D01*
X48525871Y-50496316D01*
X48354838Y-50567160D01*
X48200913Y-50670010D01*
X48070010Y-50800913D01*
X47967160Y-50954838D01*
X47896316Y-51125871D01*
X47860200Y-51307438D01*
X12660000Y-51307438D01*
X12660000Y-34695098D01*
X23105000Y-34695098D01*
X23105000Y-35164902D01*
X23196654Y-35625679D01*
X23376440Y-36059721D01*
X23637450Y-36450349D01*
X23969651Y-36782550D01*
X24360279Y-37043560D01*
X24664500Y-37169572D01*
X24664501Y-45830427D01*
X24360279Y-45956440D01*
X23969651Y-46217450D01*
X23637450Y-46549651D01*
X23376440Y-46940279D01*
X23196654Y-47374321D01*
X23105000Y-47835098D01*
X23105000Y-48304902D01*
X23196654Y-48765679D01*
X23376440Y-49199721D01*
X23637450Y-49590349D01*
X23969651Y-49922550D01*
X24360279Y-50183560D01*
X24794321Y-50363346D01*
X25255098Y-50455000D01*
X25724902Y-50455000D01*
X26185679Y-50363346D01*
X26619721Y-50183560D01*
X27010349Y-49922550D01*
X27342550Y-49590349D01*
X27603560Y-49199721D01*
X27783346Y-48765679D01*
X27875000Y-48304902D01*
X27875000Y-47835098D01*
X27783346Y-47374321D01*
X27603560Y-46940279D01*
X27342550Y-46549651D01*
X27010349Y-46217450D01*
X26633378Y-45965565D01*
X27414040Y-45965565D01*
X27481020Y-46205656D01*
X27730048Y-46322756D01*
X27997135Y-46389023D01*
X28272017Y-46401910D01*
X28544133Y-46360922D01*
X28803023Y-46267636D01*
X28918980Y-46205656D01*
X28985960Y-45965565D01*
X28200000Y-45179605D01*
X27414040Y-45965565D01*
X26633378Y-45965565D01*
X26619721Y-45956440D01*
X26315500Y-45830428D01*
X26315500Y-45072017D01*
X26798090Y-45072017D01*
X26839078Y-45344133D01*
X26932364Y-45603023D01*
X26994344Y-45718980D01*
X27234435Y-45785960D01*
X28020395Y-45000000D01*
X28379605Y-45000000D01*
X29165565Y-45785960D01*
X29405656Y-45718980D01*
X29445172Y-45634943D01*
X66700400Y-45634943D01*
X66700400Y-45805057D01*
X66733587Y-45971903D01*
X66798687Y-46129068D01*
X66893198Y-46270513D01*
X67013487Y-46390802D01*
X67154932Y-46485313D01*
X67312097Y-46550413D01*
X67478943Y-46583600D01*
X67649057Y-46583600D01*
X67815903Y-46550413D01*
X67973068Y-46485313D01*
X68114513Y-46390802D01*
X68234802Y-46270513D01*
X68329313Y-46129068D01*
X68394413Y-45971903D01*
X68427600Y-45805057D01*
X68427600Y-45634943D01*
X68409699Y-45544943D01*
X71846400Y-45544943D01*
X71846400Y-45715057D01*
X71879587Y-45881903D01*
X71944687Y-46039068D01*
X72039198Y-46180513D01*
X72159487Y-46300802D01*
X72300932Y-46395313D01*
X72458097Y-46460413D01*
X72624943Y-46493600D01*
X72795057Y-46493600D01*
X72961903Y-46460413D01*
X73119068Y-46395313D01*
X73260513Y-46300802D01*
X73380802Y-46180513D01*
X73475313Y-46039068D01*
X73540413Y-45881903D01*
X73573600Y-45715057D01*
X73573600Y-45544943D01*
X73540413Y-45378097D01*
X73475313Y-45220932D01*
X73380802Y-45079487D01*
X73260513Y-44959198D01*
X73119068Y-44864687D01*
X72961903Y-44799587D01*
X72795057Y-44766400D01*
X72624943Y-44766400D01*
X72458097Y-44799587D01*
X72300932Y-44864687D01*
X72159487Y-44959198D01*
X72039198Y-45079487D01*
X71944687Y-45220932D01*
X71879587Y-45378097D01*
X71846400Y-45544943D01*
X68409699Y-45544943D01*
X68394413Y-45468097D01*
X68329313Y-45310932D01*
X68234802Y-45169487D01*
X68114513Y-45049198D01*
X67973068Y-44954687D01*
X67815903Y-44889587D01*
X67649057Y-44856400D01*
X67478943Y-44856400D01*
X67312097Y-44889587D01*
X67154932Y-44954687D01*
X67013487Y-45049198D01*
X66893198Y-45169487D01*
X66798687Y-45310932D01*
X66733587Y-45468097D01*
X66700400Y-45634943D01*
X29445172Y-45634943D01*
X29522756Y-45469952D01*
X29589023Y-45202865D01*
X29601910Y-44927983D01*
X29560922Y-44655867D01*
X29467636Y-44396977D01*
X29405656Y-44281020D01*
X29165565Y-44214040D01*
X28379605Y-45000000D01*
X28020395Y-45000000D01*
X27234435Y-44214040D01*
X26994344Y-44281020D01*
X26877244Y-44530048D01*
X26810977Y-44797135D01*
X26798090Y-45072017D01*
X26315500Y-45072017D01*
X26315500Y-37169572D01*
X26619721Y-37043560D01*
X26965991Y-36812189D01*
X26907463Y-36883506D01*
X26848498Y-36993820D01*
X26812188Y-37113518D01*
X26799928Y-37238000D01*
X26799928Y-38762000D01*
X26812188Y-38886482D01*
X26848498Y-39006180D01*
X26907463Y-39116494D01*
X26986815Y-39213185D01*
X27083506Y-39292537D01*
X27193820Y-39351502D01*
X27313518Y-39387812D01*
X27345292Y-39390941D01*
X27309465Y-39414880D01*
X27114880Y-39609465D01*
X26961995Y-39838273D01*
X26856686Y-40092510D01*
X26803000Y-40362408D01*
X26803000Y-40637592D01*
X26856686Y-40907490D01*
X26961995Y-41161727D01*
X27114880Y-41390535D01*
X27224345Y-41500000D01*
X27114880Y-41609465D01*
X26961995Y-41838273D01*
X26856686Y-42092510D01*
X26803000Y-42362408D01*
X26803000Y-42637592D01*
X26856686Y-42907490D01*
X26961995Y-43161727D01*
X27114880Y-43390535D01*
X27309465Y-43585120D01*
X27538273Y-43738005D01*
X27565401Y-43749242D01*
X27481020Y-43794344D01*
X27414040Y-44034435D01*
X28200000Y-44820395D01*
X28985960Y-44034435D01*
X28918980Y-43794344D01*
X28828467Y-43751782D01*
X28861727Y-43738005D01*
X29090535Y-43585120D01*
X29180712Y-43494943D01*
X71846400Y-43494943D01*
X71846400Y-43665057D01*
X71879587Y-43831903D01*
X71944687Y-43989068D01*
X72039198Y-44130513D01*
X72159487Y-44250802D01*
X72300932Y-44345313D01*
X72458097Y-44410413D01*
X72624943Y-44443600D01*
X72795057Y-44443600D01*
X72961903Y-44410413D01*
X73119068Y-44345313D01*
X73260513Y-44250802D01*
X73380802Y-44130513D01*
X73475313Y-43989068D01*
X73540413Y-43831903D01*
X73573600Y-43665057D01*
X73573600Y-43494943D01*
X73540413Y-43328097D01*
X73475313Y-43170932D01*
X73380802Y-43029487D01*
X73260513Y-42909198D01*
X73119068Y-42814687D01*
X72961903Y-42749587D01*
X72795057Y-42716400D01*
X72624943Y-42716400D01*
X72458097Y-42749587D01*
X72300932Y-42814687D01*
X72159487Y-42909198D01*
X72039198Y-43029487D01*
X71944687Y-43170932D01*
X71879587Y-43328097D01*
X71846400Y-43494943D01*
X29180712Y-43494943D01*
X29285120Y-43390535D01*
X29438005Y-43161727D01*
X29543314Y-42907490D01*
X29597000Y-42637592D01*
X29597000Y-42362408D01*
X29543800Y-42094949D01*
X61060200Y-42094949D01*
X61060200Y-42280073D01*
X61096316Y-42461640D01*
X61167160Y-42632673D01*
X61270010Y-42786598D01*
X61400913Y-42917501D01*
X61554838Y-43020351D01*
X61725871Y-43091195D01*
X61907438Y-43127311D01*
X62092562Y-43127311D01*
X62274129Y-43091195D01*
X62445162Y-43020351D01*
X62599087Y-42917501D01*
X62729990Y-42786598D01*
X62832840Y-42632673D01*
X62903684Y-42461640D01*
X62939800Y-42280073D01*
X62939800Y-42094949D01*
X62903684Y-41913382D01*
X62832840Y-41742349D01*
X62729990Y-41588424D01*
X62599087Y-41457521D01*
X62445162Y-41354671D01*
X62274129Y-41283827D01*
X62092562Y-41247711D01*
X61907438Y-41247711D01*
X61725871Y-41283827D01*
X61554838Y-41354671D01*
X61400913Y-41457521D01*
X61270010Y-41588424D01*
X61167160Y-41742349D01*
X61096316Y-41913382D01*
X61060200Y-42094949D01*
X29543800Y-42094949D01*
X29543314Y-42092510D01*
X29438005Y-41838273D01*
X29285120Y-41609465D01*
X29175655Y-41500000D01*
X29285120Y-41390535D01*
X29438005Y-41161727D01*
X29478922Y-41062943D01*
X65684400Y-41062943D01*
X65684400Y-41233057D01*
X65717587Y-41399903D01*
X65782687Y-41557068D01*
X65877198Y-41698513D01*
X65997487Y-41818802D01*
X66138932Y-41913313D01*
X66296097Y-41978413D01*
X66462943Y-42011600D01*
X66633057Y-42011600D01*
X66799903Y-41978413D01*
X66957068Y-41913313D01*
X67098513Y-41818802D01*
X67218802Y-41698513D01*
X67313313Y-41557068D01*
X67378413Y-41399903D01*
X67411600Y-41233057D01*
X67411600Y-41164943D01*
X71846400Y-41164943D01*
X71846400Y-41335057D01*
X71879587Y-41501903D01*
X71944687Y-41659068D01*
X72039198Y-41800513D01*
X72159487Y-41920802D01*
X72300932Y-42015313D01*
X72458097Y-42080413D01*
X72624943Y-42113600D01*
X72795057Y-42113600D01*
X72961903Y-42080413D01*
X73119068Y-42015313D01*
X73260513Y-41920802D01*
X73380802Y-41800513D01*
X73475313Y-41659068D01*
X73540413Y-41501903D01*
X73573600Y-41335057D01*
X73573600Y-41164943D01*
X73540413Y-40998097D01*
X73475313Y-40840932D01*
X73380802Y-40699487D01*
X73260513Y-40579198D01*
X73119068Y-40484687D01*
X72961903Y-40419587D01*
X72795057Y-40386400D01*
X72624943Y-40386400D01*
X72458097Y-40419587D01*
X72300932Y-40484687D01*
X72159487Y-40579198D01*
X72039198Y-40699487D01*
X71944687Y-40840932D01*
X71879587Y-40998097D01*
X71846400Y-41164943D01*
X67411600Y-41164943D01*
X67411600Y-41062943D01*
X67378413Y-40896097D01*
X67313313Y-40738932D01*
X67218802Y-40597487D01*
X67098513Y-40477198D01*
X66957068Y-40382687D01*
X66799903Y-40317587D01*
X66633057Y-40284400D01*
X66462943Y-40284400D01*
X66296097Y-40317587D01*
X66138932Y-40382687D01*
X65997487Y-40477198D01*
X65877198Y-40597487D01*
X65782687Y-40738932D01*
X65717587Y-40896097D01*
X65684400Y-41062943D01*
X29478922Y-41062943D01*
X29543314Y-40907490D01*
X29597000Y-40637592D01*
X29597000Y-40362408D01*
X29543314Y-40092510D01*
X29438005Y-39838273D01*
X29285120Y-39609465D01*
X29090535Y-39414880D01*
X29054708Y-39390941D01*
X29086482Y-39387812D01*
X29206180Y-39351502D01*
X29311992Y-39294943D01*
X71846400Y-39294943D01*
X71846400Y-39465057D01*
X71879587Y-39631903D01*
X71944687Y-39789068D01*
X72039198Y-39930513D01*
X72159487Y-40050802D01*
X72300932Y-40145313D01*
X72458097Y-40210413D01*
X72624943Y-40243600D01*
X72795057Y-40243600D01*
X72961903Y-40210413D01*
X73119068Y-40145313D01*
X73260513Y-40050802D01*
X73380802Y-39930513D01*
X73475313Y-39789068D01*
X73540413Y-39631903D01*
X73573600Y-39465057D01*
X73573600Y-39294943D01*
X73540413Y-39128097D01*
X73475313Y-38970932D01*
X73380802Y-38829487D01*
X73260513Y-38709198D01*
X73119068Y-38614687D01*
X72961903Y-38549587D01*
X72795057Y-38516400D01*
X72624943Y-38516400D01*
X72458097Y-38549587D01*
X72300932Y-38614687D01*
X72159487Y-38709198D01*
X72039198Y-38829487D01*
X71944687Y-38970932D01*
X71879587Y-39128097D01*
X71846400Y-39294943D01*
X29311992Y-39294943D01*
X29316494Y-39292537D01*
X29413185Y-39213185D01*
X29492537Y-39116494D01*
X29551502Y-39006180D01*
X29587812Y-38886482D01*
X29600072Y-38762000D01*
X29600072Y-37707438D01*
X62460200Y-37707438D01*
X62460200Y-37892562D01*
X62496316Y-38074129D01*
X62567160Y-38245162D01*
X62670010Y-38399087D01*
X62800913Y-38529990D01*
X62954838Y-38632840D01*
X63125871Y-38703684D01*
X63307438Y-38739800D01*
X63492562Y-38739800D01*
X63674129Y-38703684D01*
X63845162Y-38632840D01*
X63999087Y-38529990D01*
X64129990Y-38399087D01*
X64232840Y-38245162D01*
X64303684Y-38074129D01*
X64339800Y-37892562D01*
X64339800Y-37707438D01*
X64303684Y-37525871D01*
X64232840Y-37354838D01*
X64129990Y-37200913D01*
X63999087Y-37070010D01*
X63845162Y-36967160D01*
X63674129Y-36896316D01*
X63492562Y-36860200D01*
X63307438Y-36860200D01*
X63125871Y-36896316D01*
X62954838Y-36967160D01*
X62800913Y-37070010D01*
X62670010Y-37200913D01*
X62567160Y-37354838D01*
X62496316Y-37525871D01*
X62460200Y-37707438D01*
X29600072Y-37707438D01*
X29600072Y-37238000D01*
X29587812Y-37113518D01*
X29551502Y-36993820D01*
X29492537Y-36883506D01*
X29413185Y-36786815D01*
X29316494Y-36707463D01*
X29206180Y-36648498D01*
X29086482Y-36612188D01*
X28962000Y-36599928D01*
X27438000Y-36599928D01*
X27313518Y-36612188D01*
X27193820Y-36648498D01*
X27087652Y-36705247D01*
X27342550Y-36450349D01*
X27603560Y-36059721D01*
X27783346Y-35625679D01*
X27875000Y-35164902D01*
X27875000Y-34695098D01*
X27783346Y-34234321D01*
X27603560Y-33800279D01*
X27342550Y-33409651D01*
X27010349Y-33077450D01*
X26619721Y-32816440D01*
X26315500Y-32690428D01*
X26315500Y-32546943D01*
X47312400Y-32546943D01*
X47312400Y-32717057D01*
X47345587Y-32883903D01*
X47410687Y-33041068D01*
X47505198Y-33182513D01*
X47625487Y-33302802D01*
X47766932Y-33397313D01*
X47924097Y-33462413D01*
X48090943Y-33495600D01*
X48261057Y-33495600D01*
X48427903Y-33462413D01*
X48585068Y-33397313D01*
X48726513Y-33302802D01*
X48846802Y-33182513D01*
X48941313Y-33041068D01*
X49006413Y-32883903D01*
X49039600Y-32717057D01*
X49039600Y-32546943D01*
X49006413Y-32380097D01*
X48941313Y-32222932D01*
X48846802Y-32081487D01*
X48726513Y-31961198D01*
X48585068Y-31866687D01*
X48427903Y-31801587D01*
X48261057Y-31768400D01*
X48090943Y-31768400D01*
X47924097Y-31801587D01*
X47766932Y-31866687D01*
X47625487Y-31961198D01*
X47505198Y-32081487D01*
X47410687Y-32222932D01*
X47345587Y-32380097D01*
X47312400Y-32546943D01*
X26315500Y-32546943D01*
X26315500Y-31251932D01*
X26459994Y-31107438D01*
X58560200Y-31107438D01*
X58560200Y-31292562D01*
X58596316Y-31474129D01*
X58667160Y-31645162D01*
X58770010Y-31799087D01*
X58900913Y-31929990D01*
X59054838Y-32032840D01*
X59225871Y-32103684D01*
X59407438Y-32139800D01*
X59592562Y-32139800D01*
X59774129Y-32103684D01*
X59945162Y-32032840D01*
X60099087Y-31929990D01*
X60229990Y-31799087D01*
X60332840Y-31645162D01*
X60403684Y-31474129D01*
X60439800Y-31292562D01*
X60439800Y-31107438D01*
X60403684Y-30925871D01*
X60332840Y-30754838D01*
X60229990Y-30600913D01*
X60099087Y-30470010D01*
X59945162Y-30367160D01*
X59774129Y-30296316D01*
X59592562Y-30260200D01*
X59407438Y-30260200D01*
X59225871Y-30296316D01*
X59054838Y-30367160D01*
X58900913Y-30470010D01*
X58770010Y-30600913D01*
X58667160Y-30754838D01*
X58596316Y-30925871D01*
X58560200Y-31107438D01*
X26459994Y-31107438D01*
X27027119Y-30540313D01*
X27045162Y-30532840D01*
X27199087Y-30429990D01*
X27329990Y-30299087D01*
X27432840Y-30145162D01*
X27503684Y-29974129D01*
X27539800Y-29792562D01*
X27539800Y-29607438D01*
X27503684Y-29425871D01*
X27432840Y-29254838D01*
X27329990Y-29100913D01*
X27199087Y-28970010D01*
X27050824Y-28870943D01*
X31394400Y-28870943D01*
X31394400Y-29041057D01*
X31427587Y-29207903D01*
X31492687Y-29365068D01*
X31587198Y-29506513D01*
X31707487Y-29626802D01*
X31848932Y-29721313D01*
X32006097Y-29786413D01*
X32172943Y-29819600D01*
X32343057Y-29819600D01*
X32509903Y-29786413D01*
X32667068Y-29721313D01*
X32808513Y-29626802D01*
X32928802Y-29506513D01*
X33023313Y-29365068D01*
X33088413Y-29207903D01*
X33121600Y-29041057D01*
X33121600Y-28870943D01*
X33172400Y-28870943D01*
X33172400Y-29041057D01*
X33205587Y-29207903D01*
X33270687Y-29365068D01*
X33365198Y-29506513D01*
X33485487Y-29626802D01*
X33626932Y-29721313D01*
X33784097Y-29786413D01*
X33950943Y-29819600D01*
X34121057Y-29819600D01*
X34287903Y-29786413D01*
X34445068Y-29721313D01*
X34586513Y-29626802D01*
X34671000Y-29542315D01*
X34755487Y-29626802D01*
X34896932Y-29721313D01*
X35054097Y-29786413D01*
X35220943Y-29819600D01*
X35391057Y-29819600D01*
X35557903Y-29786413D01*
X35715068Y-29721313D01*
X35856513Y-29626802D01*
X35976802Y-29506513D01*
X36071313Y-29365068D01*
X36136413Y-29207903D01*
X36169600Y-29041057D01*
X36169600Y-28990943D01*
X46550400Y-28990943D01*
X46550400Y-29161057D01*
X46583587Y-29327903D01*
X46648687Y-29485068D01*
X46743198Y-29626513D01*
X46863487Y-29746802D01*
X47004932Y-29841313D01*
X47162097Y-29906413D01*
X47328943Y-29939600D01*
X47499057Y-29939600D01*
X47665903Y-29906413D01*
X47823068Y-29841313D01*
X47964513Y-29746802D01*
X48084802Y-29626513D01*
X48179313Y-29485068D01*
X48244413Y-29327903D01*
X48277600Y-29161057D01*
X48277600Y-28990943D01*
X48244413Y-28824097D01*
X48179313Y-28666932D01*
X48084802Y-28525487D01*
X47964513Y-28405198D01*
X47823068Y-28310687D01*
X47665903Y-28245587D01*
X47499057Y-28212400D01*
X47328943Y-28212400D01*
X47162097Y-28245587D01*
X47004932Y-28310687D01*
X46863487Y-28405198D01*
X46743198Y-28525487D01*
X46648687Y-28666932D01*
X46583587Y-28824097D01*
X46550400Y-28990943D01*
X36169600Y-28990943D01*
X36169600Y-28870943D01*
X36136413Y-28704097D01*
X36071313Y-28546932D01*
X35976802Y-28405487D01*
X35856513Y-28285198D01*
X35715068Y-28190687D01*
X35557903Y-28125587D01*
X35391057Y-28092400D01*
X35220943Y-28092400D01*
X35054097Y-28125587D01*
X34896932Y-28190687D01*
X34755487Y-28285198D01*
X34671000Y-28369685D01*
X34586513Y-28285198D01*
X34445068Y-28190687D01*
X34287903Y-28125587D01*
X34121057Y-28092400D01*
X33950943Y-28092400D01*
X33784097Y-28125587D01*
X33626932Y-28190687D01*
X33485487Y-28285198D01*
X33365198Y-28405487D01*
X33270687Y-28546932D01*
X33205587Y-28704097D01*
X33172400Y-28870943D01*
X33121600Y-28870943D01*
X33088413Y-28704097D01*
X33023313Y-28546932D01*
X32928802Y-28405487D01*
X32808513Y-28285198D01*
X32667068Y-28190687D01*
X32509903Y-28125587D01*
X32343057Y-28092400D01*
X32172943Y-28092400D01*
X32006097Y-28125587D01*
X31848932Y-28190687D01*
X31707487Y-28285198D01*
X31587198Y-28405487D01*
X31492687Y-28546932D01*
X31427587Y-28704097D01*
X31394400Y-28870943D01*
X27050824Y-28870943D01*
X27045162Y-28867160D01*
X26874129Y-28796316D01*
X26692562Y-28760200D01*
X26507438Y-28760200D01*
X26325871Y-28796316D01*
X26154838Y-28867160D01*
X26000913Y-28970010D01*
X25870010Y-29100913D01*
X25767160Y-29254838D01*
X25696316Y-29425871D01*
X25668908Y-29563659D01*
X24934961Y-30297607D01*
X24903460Y-30323459D01*
X24877609Y-30354959D01*
X24800301Y-30449158D01*
X24723647Y-30592567D01*
X24676445Y-30748174D01*
X24660506Y-30910000D01*
X24664501Y-30950560D01*
X24664501Y-32690427D01*
X24360279Y-32816440D01*
X23969651Y-33077450D01*
X23637450Y-33409651D01*
X23376440Y-33800279D01*
X23196654Y-34234321D01*
X23105000Y-34695098D01*
X12660000Y-34695098D01*
X12660000Y-26407438D01*
X69060200Y-26407438D01*
X69060200Y-26592562D01*
X69096316Y-26774129D01*
X69167160Y-26945162D01*
X69270010Y-27099087D01*
X69400913Y-27229990D01*
X69554838Y-27332840D01*
X69725871Y-27403684D01*
X69907438Y-27439800D01*
X70092562Y-27439800D01*
X70274129Y-27403684D01*
X70445162Y-27332840D01*
X70599087Y-27229990D01*
X70729990Y-27099087D01*
X70832840Y-26945162D01*
X70903684Y-26774129D01*
X70939800Y-26592562D01*
X70939800Y-26407438D01*
X70903684Y-26225871D01*
X70832840Y-26054838D01*
X70729990Y-25900913D01*
X70599087Y-25770010D01*
X70445162Y-25667160D01*
X70274129Y-25596316D01*
X70092562Y-25560200D01*
X69907438Y-25560200D01*
X69725871Y-25596316D01*
X69554838Y-25667160D01*
X69400913Y-25770010D01*
X69270010Y-25900913D01*
X69167160Y-26054838D01*
X69096316Y-26225871D01*
X69060200Y-26407438D01*
X12660000Y-26407438D01*
X12660000Y-25024488D01*
X12731439Y-24063158D01*
X12846588Y-23554272D01*
X15697400Y-23554272D01*
X15697400Y-23994528D01*
X15783290Y-24426325D01*
X15951769Y-24833069D01*
X16196362Y-25199129D01*
X16507671Y-25510438D01*
X16873731Y-25755031D01*
X17280475Y-25923510D01*
X17712272Y-26009400D01*
X18152528Y-26009400D01*
X18584325Y-25923510D01*
X18991069Y-25755031D01*
X19357129Y-25510438D01*
X19668438Y-25199129D01*
X19913031Y-24833069D01*
X20081510Y-24426325D01*
X20167400Y-23994528D01*
X20167400Y-23655872D01*
X79197400Y-23655872D01*
X79197400Y-24096128D01*
X79283290Y-24527925D01*
X79451769Y-24934669D01*
X79696362Y-25300729D01*
X80007671Y-25612038D01*
X80373731Y-25856631D01*
X80780475Y-26025110D01*
X81212272Y-26111000D01*
X81652528Y-26111000D01*
X82084325Y-26025110D01*
X82491069Y-25856631D01*
X82857129Y-25612038D01*
X83168438Y-25300729D01*
X83413031Y-24934669D01*
X83581510Y-24527925D01*
X83667400Y-24096128D01*
X83667400Y-23655872D01*
X83581510Y-23224075D01*
X83413031Y-22817331D01*
X83168438Y-22451271D01*
X82857129Y-22139962D01*
X82491069Y-21895369D01*
X82084325Y-21726890D01*
X81652528Y-21641000D01*
X81212272Y-21641000D01*
X80780475Y-21726890D01*
X80373731Y-21895369D01*
X80007671Y-22139962D01*
X79696362Y-22451271D01*
X79451769Y-22817331D01*
X79283290Y-23224075D01*
X79197400Y-23655872D01*
X20167400Y-23655872D01*
X20167400Y-23554272D01*
X20081510Y-23122475D01*
X19913031Y-22715731D01*
X19668438Y-22349671D01*
X19357129Y-22038362D01*
X18991069Y-21793769D01*
X18584325Y-21625290D01*
X18152528Y-21539400D01*
X17712272Y-21539400D01*
X17280475Y-21625290D01*
X16873731Y-21793769D01*
X16507671Y-22038362D01*
X16196362Y-22349671D01*
X15951769Y-22715731D01*
X15783290Y-23122475D01*
X15697400Y-23554272D01*
X12846588Y-23554272D01*
X12938769Y-23146894D01*
X13279252Y-22271343D01*
X13745410Y-21455735D01*
X14327005Y-20717986D01*
X15011251Y-20074311D01*
X15783129Y-19538840D01*
X16625677Y-19123341D01*
X17520376Y-18836946D01*
X18457579Y-18684311D01*
X19014404Y-18660000D01*
X79975512Y-18660000D01*
X80936842Y-18731439D01*
%TD*%
M02*
