%TF.GenerationSoftware,KiCad,Pcbnew,5.1.6-c6e7f7d~86~ubuntu18.04.1*%
%TF.CreationDate,2020-08-16T12:45:01-03:00*%
%TF.ProjectId,pcbproyecto,70636270-726f-4796-9563-746f2e6b6963,rev?*%
%TF.SameCoordinates,Original*%
%TF.FileFunction,Soldermask,Top*%
%TF.FilePolarity,Negative*%
%FSLAX46Y46*%
G04 Gerber Fmt 4.6, Leading zero omitted, Abs format (unit mm)*
G04 Created by KiCad (PCBNEW 5.1.6-c6e7f7d~86~ubuntu18.04.1) date 2020-08-16 12:45:01*
%MOMM*%
%LPD*%
G01*
G04 APERTURE LIST*
%ADD10R,2.900000X2.250000*%
%ADD11C,1.624000*%
%ADD12R,1.624000X1.624000*%
%ADD13C,3.600000*%
%ADD14R,1.100000X1.100000*%
%ADD15R,0.999160X1.298880*%
%ADD16C,0.100000*%
%ADD17R,0.498780X0.999160*%
%ADD18R,1.780000X1.980000*%
%ADD19O,0.950000X0.950000*%
%ADD20R,0.950000X0.950000*%
%ADD21C,2.000000*%
%ADD22C,1.098220*%
%ADD23R,1.499540X1.697660*%
%ADD24R,2.299640X1.298880*%
%ADD25R,1.697660X1.298880*%
%ADD26R,1.697660X0.798500*%
%ADD27R,0.597840X0.597840*%
%ADD28R,0.597840X0.399720*%
%ADD29R,1.500000X0.500000*%
%ADD30R,2.000000X2.400000*%
%ADD31R,2.000000X1.900000*%
%ADD32R,3.600000X3.600000*%
%ADD33R,0.399720X0.597840*%
%ADD34R,10.900000X9.500000*%
%ADD35R,1.200000X4.700000*%
%ADD36R,1.600000X2.100000*%
%ADD37R,3.900000X2.100000*%
%ADD38C,0.597840*%
%ADD39R,1.000000X0.900000*%
%ADD40R,1.800000X2.500000*%
%ADD41C,3.300000*%
%ADD42R,3.400000X2.600000*%
%ADD43R,5.500000X3.000000*%
G04 APERTURE END LIST*
D10*
%TO.C,F1*%
X63100000Y-90800000D03*
X63100000Y-95710000D03*
%TD*%
%TO.C,C10*%
G36*
G01*
X77748750Y-67700000D02*
X78311250Y-67700000D01*
G75*
G02*
X78555000Y-67943750I0J-243750D01*
G01*
X78555000Y-68431250D01*
G75*
G02*
X78311250Y-68675000I-243750J0D01*
G01*
X77748750Y-68675000D01*
G75*
G02*
X77505000Y-68431250I0J243750D01*
G01*
X77505000Y-67943750D01*
G75*
G02*
X77748750Y-67700000I243750J0D01*
G01*
G37*
G36*
G01*
X77748750Y-66125000D02*
X78311250Y-66125000D01*
G75*
G02*
X78555000Y-66368750I0J-243750D01*
G01*
X78555000Y-66856250D01*
G75*
G02*
X78311250Y-67100000I-243750J0D01*
G01*
X77748750Y-67100000D01*
G75*
G02*
X77505000Y-66856250I0J243750D01*
G01*
X77505000Y-66368750D01*
G75*
G02*
X77748750Y-66125000I243750J0D01*
G01*
G37*
%TD*%
%TO.C,C9*%
G36*
G01*
X61718750Y-75890000D02*
X62281250Y-75890000D01*
G75*
G02*
X62525000Y-76133750I0J-243750D01*
G01*
X62525000Y-76621250D01*
G75*
G02*
X62281250Y-76865000I-243750J0D01*
G01*
X61718750Y-76865000D01*
G75*
G02*
X61475000Y-76621250I0J243750D01*
G01*
X61475000Y-76133750D01*
G75*
G02*
X61718750Y-75890000I243750J0D01*
G01*
G37*
G36*
G01*
X61718750Y-74315000D02*
X62281250Y-74315000D01*
G75*
G02*
X62525000Y-74558750I0J-243750D01*
G01*
X62525000Y-75046250D01*
G75*
G02*
X62281250Y-75290000I-243750J0D01*
G01*
X61718750Y-75290000D01*
G75*
G02*
X61475000Y-75046250I0J243750D01*
G01*
X61475000Y-74558750D01*
G75*
G02*
X61718750Y-74315000I243750J0D01*
G01*
G37*
%TD*%
%TO.C,C8*%
G36*
G01*
X61718750Y-71800000D02*
X62281250Y-71800000D01*
G75*
G02*
X62525000Y-72043750I0J-243750D01*
G01*
X62525000Y-72531250D01*
G75*
G02*
X62281250Y-72775000I-243750J0D01*
G01*
X61718750Y-72775000D01*
G75*
G02*
X61475000Y-72531250I0J243750D01*
G01*
X61475000Y-72043750D01*
G75*
G02*
X61718750Y-71800000I243750J0D01*
G01*
G37*
G36*
G01*
X61718750Y-70225000D02*
X62281250Y-70225000D01*
G75*
G02*
X62525000Y-70468750I0J-243750D01*
G01*
X62525000Y-70956250D01*
G75*
G02*
X62281250Y-71200000I-243750J0D01*
G01*
X61718750Y-71200000D01*
G75*
G02*
X61475000Y-70956250I0J243750D01*
G01*
X61475000Y-70468750D01*
G75*
G02*
X61718750Y-70225000I243750J0D01*
G01*
G37*
%TD*%
%TO.C,C4*%
G36*
G01*
X34431250Y-64187500D02*
X33868750Y-64187500D01*
G75*
G02*
X33625000Y-63943750I0J243750D01*
G01*
X33625000Y-63456250D01*
G75*
G02*
X33868750Y-63212500I243750J0D01*
G01*
X34431250Y-63212500D01*
G75*
G02*
X34675000Y-63456250I0J-243750D01*
G01*
X34675000Y-63943750D01*
G75*
G02*
X34431250Y-64187500I-243750J0D01*
G01*
G37*
G36*
G01*
X34431250Y-65762500D02*
X33868750Y-65762500D01*
G75*
G02*
X33625000Y-65518750I0J243750D01*
G01*
X33625000Y-65031250D01*
G75*
G02*
X33868750Y-64787500I243750J0D01*
G01*
X34431250Y-64787500D01*
G75*
G02*
X34675000Y-65031250I0J-243750D01*
G01*
X34675000Y-65518750D01*
G75*
G02*
X34431250Y-65762500I-243750J0D01*
G01*
G37*
%TD*%
%TO.C,C3*%
G36*
G01*
X47809000Y-30878750D02*
X47809000Y-31441250D01*
G75*
G02*
X47565250Y-31685000I-243750J0D01*
G01*
X47077750Y-31685000D01*
G75*
G02*
X46834000Y-31441250I0J243750D01*
G01*
X46834000Y-30878750D01*
G75*
G02*
X47077750Y-30635000I243750J0D01*
G01*
X47565250Y-30635000D01*
G75*
G02*
X47809000Y-30878750I0J-243750D01*
G01*
G37*
G36*
G01*
X49384000Y-30878750D02*
X49384000Y-31441250D01*
G75*
G02*
X49140250Y-31685000I-243750J0D01*
G01*
X48652750Y-31685000D01*
G75*
G02*
X48409000Y-31441250I0J243750D01*
G01*
X48409000Y-30878750D01*
G75*
G02*
X48652750Y-30635000I243750J0D01*
G01*
X49140250Y-30635000D01*
G75*
G02*
X49384000Y-30878750I0J-243750D01*
G01*
G37*
%TD*%
%TO.C,C2*%
G36*
G01*
X47854000Y-34236750D02*
X47854000Y-34799250D01*
G75*
G02*
X47610250Y-35043000I-243750J0D01*
G01*
X47122750Y-35043000D01*
G75*
G02*
X46879000Y-34799250I0J243750D01*
G01*
X46879000Y-34236750D01*
G75*
G02*
X47122750Y-33993000I243750J0D01*
G01*
X47610250Y-33993000D01*
G75*
G02*
X47854000Y-34236750I0J-243750D01*
G01*
G37*
G36*
G01*
X49429000Y-34236750D02*
X49429000Y-34799250D01*
G75*
G02*
X49185250Y-35043000I-243750J0D01*
G01*
X48697750Y-35043000D01*
G75*
G02*
X48454000Y-34799250I0J243750D01*
G01*
X48454000Y-34236750D01*
G75*
G02*
X48697750Y-33993000I243750J0D01*
G01*
X49185250Y-33993000D01*
G75*
G02*
X49429000Y-34236750I0J-243750D01*
G01*
G37*
%TD*%
D11*
%TO.C,J3*%
X25125000Y-44950000D03*
X25125000Y-42450000D03*
X25125000Y-40450000D03*
D12*
X25125000Y-37950000D03*
D13*
X22415000Y-34880000D03*
X22415000Y-48020000D03*
%TD*%
D14*
%TO.C,TP9*%
X70250000Y-84000000D03*
%TD*%
%TO.C,TP8*%
X70250000Y-80750000D03*
%TD*%
D15*
%TO.C,RST1*%
X73926700Y-51528980D03*
X73926700Y-47531020D03*
X75425300Y-51528980D03*
X75425300Y-47531020D03*
%TD*%
%TO.C,R16*%
G36*
G01*
X77795500Y-45239250D02*
X77795500Y-44676750D01*
G75*
G02*
X78039250Y-44433000I243750J0D01*
G01*
X78526750Y-44433000D01*
G75*
G02*
X78770500Y-44676750I0J-243750D01*
G01*
X78770500Y-45239250D01*
G75*
G02*
X78526750Y-45483000I-243750J0D01*
G01*
X78039250Y-45483000D01*
G75*
G02*
X77795500Y-45239250I0J243750D01*
G01*
G37*
G36*
G01*
X76220500Y-45239250D02*
X76220500Y-44676750D01*
G75*
G02*
X76464250Y-44433000I243750J0D01*
G01*
X76951750Y-44433000D01*
G75*
G02*
X77195500Y-44676750I0J-243750D01*
G01*
X77195500Y-45239250D01*
G75*
G02*
X76951750Y-45483000I-243750J0D01*
G01*
X76464250Y-45483000D01*
G75*
G02*
X76220500Y-45239250I0J243750D01*
G01*
G37*
%TD*%
%TO.C,R15*%
G36*
G01*
X77795500Y-43207250D02*
X77795500Y-42644750D01*
G75*
G02*
X78039250Y-42401000I243750J0D01*
G01*
X78526750Y-42401000D01*
G75*
G02*
X78770500Y-42644750I0J-243750D01*
G01*
X78770500Y-43207250D01*
G75*
G02*
X78526750Y-43451000I-243750J0D01*
G01*
X78039250Y-43451000D01*
G75*
G02*
X77795500Y-43207250I0J243750D01*
G01*
G37*
G36*
G01*
X76220500Y-43207250D02*
X76220500Y-42644750D01*
G75*
G02*
X76464250Y-42401000I243750J0D01*
G01*
X76951750Y-42401000D01*
G75*
G02*
X77195500Y-42644750I0J-243750D01*
G01*
X77195500Y-43207250D01*
G75*
G02*
X76951750Y-43451000I-243750J0D01*
G01*
X76464250Y-43451000D01*
G75*
G02*
X76220500Y-43207250I0J243750D01*
G01*
G37*
%TD*%
%TO.C,R14*%
G36*
G01*
X77770000Y-41175250D02*
X77770000Y-40612750D01*
G75*
G02*
X78013750Y-40369000I243750J0D01*
G01*
X78501250Y-40369000D01*
G75*
G02*
X78745000Y-40612750I0J-243750D01*
G01*
X78745000Y-41175250D01*
G75*
G02*
X78501250Y-41419000I-243750J0D01*
G01*
X78013750Y-41419000D01*
G75*
G02*
X77770000Y-41175250I0J243750D01*
G01*
G37*
G36*
G01*
X76195000Y-41175250D02*
X76195000Y-40612750D01*
G75*
G02*
X76438750Y-40369000I243750J0D01*
G01*
X76926250Y-40369000D01*
G75*
G02*
X77170000Y-40612750I0J-243750D01*
G01*
X77170000Y-41175250D01*
G75*
G02*
X76926250Y-41419000I-243750J0D01*
G01*
X76438750Y-41419000D01*
G75*
G02*
X76195000Y-41175250I0J243750D01*
G01*
G37*
%TD*%
%TO.C,R13*%
G36*
G01*
X77795500Y-39143250D02*
X77795500Y-38580750D01*
G75*
G02*
X78039250Y-38337000I243750J0D01*
G01*
X78526750Y-38337000D01*
G75*
G02*
X78770500Y-38580750I0J-243750D01*
G01*
X78770500Y-39143250D01*
G75*
G02*
X78526750Y-39387000I-243750J0D01*
G01*
X78039250Y-39387000D01*
G75*
G02*
X77795500Y-39143250I0J243750D01*
G01*
G37*
G36*
G01*
X76220500Y-39143250D02*
X76220500Y-38580750D01*
G75*
G02*
X76464250Y-38337000I243750J0D01*
G01*
X76951750Y-38337000D01*
G75*
G02*
X77195500Y-38580750I0J-243750D01*
G01*
X77195500Y-39143250D01*
G75*
G02*
X76951750Y-39387000I-243750J0D01*
G01*
X76464250Y-39387000D01*
G75*
G02*
X76220500Y-39143250I0J243750D01*
G01*
G37*
%TD*%
%TO.C,D5*%
G36*
G01*
X74448000Y-44833000D02*
X74448000Y-45083000D01*
G75*
G02*
X74323000Y-45208000I-125000J0D01*
G01*
X74013000Y-45208000D01*
G75*
G02*
X73888000Y-45083000I0J125000D01*
G01*
X73888000Y-44833000D01*
G75*
G02*
X74013000Y-44708000I125000J0D01*
G01*
X74323000Y-44708000D01*
G75*
G02*
X74448000Y-44833000I0J-125000D01*
G01*
G37*
G36*
G01*
X75088000Y-44833000D02*
X75088000Y-45083000D01*
G75*
G02*
X74963000Y-45208000I-125000J0D01*
G01*
X74653000Y-45208000D01*
G75*
G02*
X74528000Y-45083000I0J125000D01*
G01*
X74528000Y-44833000D01*
G75*
G02*
X74653000Y-44708000I125000J0D01*
G01*
X74963000Y-44708000D01*
G75*
G02*
X75088000Y-44833000I0J-125000D01*
G01*
G37*
%TD*%
%TO.C,D4*%
G36*
G01*
X74316000Y-42801000D02*
X74316000Y-43051000D01*
G75*
G02*
X74191000Y-43176000I-125000J0D01*
G01*
X73881000Y-43176000D01*
G75*
G02*
X73756000Y-43051000I0J125000D01*
G01*
X73756000Y-42801000D01*
G75*
G02*
X73881000Y-42676000I125000J0D01*
G01*
X74191000Y-42676000D01*
G75*
G02*
X74316000Y-42801000I0J-125000D01*
G01*
G37*
G36*
G01*
X74956000Y-42801000D02*
X74956000Y-43051000D01*
G75*
G02*
X74831000Y-43176000I-125000J0D01*
G01*
X74521000Y-43176000D01*
G75*
G02*
X74396000Y-43051000I0J125000D01*
G01*
X74396000Y-42801000D01*
G75*
G02*
X74521000Y-42676000I125000J0D01*
G01*
X74831000Y-42676000D01*
G75*
G02*
X74956000Y-42801000I0J-125000D01*
G01*
G37*
%TD*%
%TO.C,D3*%
G36*
G01*
X74382000Y-40515000D02*
X74382000Y-40765000D01*
G75*
G02*
X74257000Y-40890000I-125000J0D01*
G01*
X73947000Y-40890000D01*
G75*
G02*
X73822000Y-40765000I0J125000D01*
G01*
X73822000Y-40515000D01*
G75*
G02*
X73947000Y-40390000I125000J0D01*
G01*
X74257000Y-40390000D01*
G75*
G02*
X74382000Y-40515000I0J-125000D01*
G01*
G37*
G36*
G01*
X75022000Y-40515000D02*
X75022000Y-40765000D01*
G75*
G02*
X74897000Y-40890000I-125000J0D01*
G01*
X74587000Y-40890000D01*
G75*
G02*
X74462000Y-40765000I0J125000D01*
G01*
X74462000Y-40515000D01*
G75*
G02*
X74587000Y-40390000I125000J0D01*
G01*
X74897000Y-40390000D01*
G75*
G02*
X75022000Y-40515000I0J-125000D01*
G01*
G37*
%TD*%
%TO.C,D2*%
G36*
G01*
X74316000Y-38737000D02*
X74316000Y-38987000D01*
G75*
G02*
X74191000Y-39112000I-125000J0D01*
G01*
X73881000Y-39112000D01*
G75*
G02*
X73756000Y-38987000I0J125000D01*
G01*
X73756000Y-38737000D01*
G75*
G02*
X73881000Y-38612000I125000J0D01*
G01*
X74191000Y-38612000D01*
G75*
G02*
X74316000Y-38737000I0J-125000D01*
G01*
G37*
G36*
G01*
X74956000Y-38737000D02*
X74956000Y-38987000D01*
G75*
G02*
X74831000Y-39112000I-125000J0D01*
G01*
X74521000Y-39112000D01*
G75*
G02*
X74396000Y-38987000I0J125000D01*
G01*
X74396000Y-38737000D01*
G75*
G02*
X74521000Y-38612000I125000J0D01*
G01*
X74831000Y-38612000D01*
G75*
G02*
X74956000Y-38737000I0J-125000D01*
G01*
G37*
%TD*%
D16*
%TO.C,U7*%
G36*
X65962000Y-43336411D02*
G01*
X65622589Y-42997000D01*
X65962000Y-42657589D01*
X66301411Y-42997000D01*
X65962000Y-43336411D01*
G37*
G36*
X65712000Y-43397000D02*
G01*
X65712000Y-43427000D01*
X65352000Y-43427000D01*
X65352000Y-43217000D01*
X65532000Y-43217000D01*
X65712000Y-43397000D01*
G37*
G36*
X66572000Y-43427000D02*
G01*
X66212000Y-43427000D01*
X66212000Y-43397000D01*
X66392000Y-43217000D01*
X66572000Y-43217000D01*
X66572000Y-43427000D01*
G37*
G36*
X66572000Y-42777000D02*
G01*
X66392000Y-42777000D01*
X66212000Y-42597000D01*
X66212000Y-42567000D01*
X66572000Y-42567000D01*
X66572000Y-42777000D01*
G37*
G36*
X65712000Y-42597000D02*
G01*
X65532000Y-42777000D01*
X65352000Y-42777000D01*
X65352000Y-42567000D01*
X65712000Y-42567000D01*
X65712000Y-42597000D01*
G37*
%TD*%
%TO.C,R12*%
G36*
G01*
X65740000Y-47470750D02*
X65740000Y-48033250D01*
G75*
G02*
X65496250Y-48277000I-243750J0D01*
G01*
X65008750Y-48277000D01*
G75*
G02*
X64765000Y-48033250I0J243750D01*
G01*
X64765000Y-47470750D01*
G75*
G02*
X65008750Y-47227000I243750J0D01*
G01*
X65496250Y-47227000D01*
G75*
G02*
X65740000Y-47470750I0J-243750D01*
G01*
G37*
G36*
G01*
X67315000Y-47470750D02*
X67315000Y-48033250D01*
G75*
G02*
X67071250Y-48277000I-243750J0D01*
G01*
X66583750Y-48277000D01*
G75*
G02*
X66340000Y-48033250I0J243750D01*
G01*
X66340000Y-47470750D01*
G75*
G02*
X66583750Y-47227000I243750J0D01*
G01*
X67071250Y-47227000D01*
G75*
G02*
X67315000Y-47470750I0J-243750D01*
G01*
G37*
%TD*%
%TO.C,R11*%
G36*
G01*
X62438000Y-47470750D02*
X62438000Y-48033250D01*
G75*
G02*
X62194250Y-48277000I-243750J0D01*
G01*
X61706750Y-48277000D01*
G75*
G02*
X61463000Y-48033250I0J243750D01*
G01*
X61463000Y-47470750D01*
G75*
G02*
X61706750Y-47227000I243750J0D01*
G01*
X62194250Y-47227000D01*
G75*
G02*
X62438000Y-47470750I0J-243750D01*
G01*
G37*
G36*
G01*
X64013000Y-47470750D02*
X64013000Y-48033250D01*
G75*
G02*
X63769250Y-48277000I-243750J0D01*
G01*
X63281750Y-48277000D01*
G75*
G02*
X63038000Y-48033250I0J243750D01*
G01*
X63038000Y-47470750D01*
G75*
G02*
X63281750Y-47227000I243750J0D01*
G01*
X63769250Y-47227000D01*
G75*
G02*
X64013000Y-47470750I0J-243750D01*
G01*
G37*
%TD*%
D17*
%TO.C,IC1*%
X68694300Y-46398180D03*
X69989700Y-46398180D03*
X69989700Y-48597820D03*
X69342000Y-48597820D03*
X68694300Y-48597820D03*
%TD*%
D18*
%TO.C,U6*%
X73590000Y-62060000D03*
G36*
G01*
X72215000Y-62910000D02*
X72215000Y-63160000D01*
G75*
G02*
X72090000Y-63285000I-125000J0D01*
G01*
X70790000Y-63285000D01*
G75*
G02*
X70665000Y-63160000I0J125000D01*
G01*
X70665000Y-62910000D01*
G75*
G02*
X70790000Y-62785000I125000J0D01*
G01*
X72090000Y-62785000D01*
G75*
G02*
X72215000Y-62910000I0J-125000D01*
G01*
G37*
G36*
G01*
X72215000Y-62260000D02*
X72215000Y-62510000D01*
G75*
G02*
X72090000Y-62635000I-125000J0D01*
G01*
X70790000Y-62635000D01*
G75*
G02*
X70665000Y-62510000I0J125000D01*
G01*
X70665000Y-62260000D01*
G75*
G02*
X70790000Y-62135000I125000J0D01*
G01*
X72090000Y-62135000D01*
G75*
G02*
X72215000Y-62260000I0J-125000D01*
G01*
G37*
G36*
G01*
X72215000Y-61610000D02*
X72215000Y-61860000D01*
G75*
G02*
X72090000Y-61985000I-125000J0D01*
G01*
X70790000Y-61985000D01*
G75*
G02*
X70665000Y-61860000I0J125000D01*
G01*
X70665000Y-61610000D01*
G75*
G02*
X70790000Y-61485000I125000J0D01*
G01*
X72090000Y-61485000D01*
G75*
G02*
X72215000Y-61610000I0J-125000D01*
G01*
G37*
G36*
G01*
X72215000Y-60960000D02*
X72215000Y-61210000D01*
G75*
G02*
X72090000Y-61335000I-125000J0D01*
G01*
X70790000Y-61335000D01*
G75*
G02*
X70665000Y-61210000I0J125000D01*
G01*
X70665000Y-60960000D01*
G75*
G02*
X70790000Y-60835000I125000J0D01*
G01*
X72090000Y-60835000D01*
G75*
G02*
X72215000Y-60960000I0J-125000D01*
G01*
G37*
G36*
G01*
X76515000Y-60960000D02*
X76515000Y-61210000D01*
G75*
G02*
X76390000Y-61335000I-125000J0D01*
G01*
X75090000Y-61335000D01*
G75*
G02*
X74965000Y-61210000I0J125000D01*
G01*
X74965000Y-60960000D01*
G75*
G02*
X75090000Y-60835000I125000J0D01*
G01*
X76390000Y-60835000D01*
G75*
G02*
X76515000Y-60960000I0J-125000D01*
G01*
G37*
G36*
G01*
X76515000Y-61610000D02*
X76515000Y-61860000D01*
G75*
G02*
X76390000Y-61985000I-125000J0D01*
G01*
X75090000Y-61985000D01*
G75*
G02*
X74965000Y-61860000I0J125000D01*
G01*
X74965000Y-61610000D01*
G75*
G02*
X75090000Y-61485000I125000J0D01*
G01*
X76390000Y-61485000D01*
G75*
G02*
X76515000Y-61610000I0J-125000D01*
G01*
G37*
G36*
G01*
X76515000Y-62260000D02*
X76515000Y-62510000D01*
G75*
G02*
X76390000Y-62635000I-125000J0D01*
G01*
X75090000Y-62635000D01*
G75*
G02*
X74965000Y-62510000I0J125000D01*
G01*
X74965000Y-62260000D01*
G75*
G02*
X75090000Y-62135000I125000J0D01*
G01*
X76390000Y-62135000D01*
G75*
G02*
X76515000Y-62260000I0J-125000D01*
G01*
G37*
G36*
G01*
X76515000Y-62910000D02*
X76515000Y-63160000D01*
G75*
G02*
X76390000Y-63285000I-125000J0D01*
G01*
X75090000Y-63285000D01*
G75*
G02*
X74965000Y-63160000I0J125000D01*
G01*
X74965000Y-62910000D01*
G75*
G02*
X75090000Y-62785000I125000J0D01*
G01*
X76390000Y-62785000D01*
G75*
G02*
X76515000Y-62910000I0J-125000D01*
G01*
G37*
%TD*%
D14*
%TO.C,TP7*%
X80600000Y-56900000D03*
%TD*%
%TO.C,TP6*%
X29080000Y-25908000D03*
%TD*%
%TO.C,TP5*%
X33274000Y-25908000D03*
%TD*%
%TO.C,TP4*%
X80000000Y-99500000D03*
%TD*%
%TO.C,TP3*%
X80000000Y-95200000D03*
%TD*%
%TO.C,TP2*%
X80000000Y-91250000D03*
%TD*%
%TO.C,TP1*%
X38354000Y-25908000D03*
%TD*%
D19*
%TO.C,J2*%
X39750000Y-85500000D03*
X39750000Y-86500000D03*
X38750000Y-85500000D03*
X38750000Y-86500000D03*
X37750000Y-85500000D03*
X37750000Y-86500000D03*
X36750000Y-85500000D03*
X36750000Y-86500000D03*
X35750000Y-85500000D03*
X35750000Y-86500000D03*
X34750000Y-85500000D03*
X34750000Y-86500000D03*
X33750000Y-85500000D03*
X33750000Y-86500000D03*
X32750000Y-85500000D03*
D20*
X32750000Y-86500000D03*
%TD*%
%TO.C,R10*%
G36*
G01*
X73178750Y-67720000D02*
X73741250Y-67720000D01*
G75*
G02*
X73985000Y-67963750I0J-243750D01*
G01*
X73985000Y-68451250D01*
G75*
G02*
X73741250Y-68695000I-243750J0D01*
G01*
X73178750Y-68695000D01*
G75*
G02*
X72935000Y-68451250I0J243750D01*
G01*
X72935000Y-67963750D01*
G75*
G02*
X73178750Y-67720000I243750J0D01*
G01*
G37*
G36*
G01*
X73178750Y-66145000D02*
X73741250Y-66145000D01*
G75*
G02*
X73985000Y-66388750I0J-243750D01*
G01*
X73985000Y-66876250D01*
G75*
G02*
X73741250Y-67120000I-243750J0D01*
G01*
X73178750Y-67120000D01*
G75*
G02*
X72935000Y-66876250I0J243750D01*
G01*
X72935000Y-66388750D01*
G75*
G02*
X73178750Y-66145000I243750J0D01*
G01*
G37*
%TD*%
%TO.C,J6*%
X78000000Y-73400000D03*
%TD*%
%TO.C,J4*%
X78150000Y-76645000D03*
%TD*%
D21*
%TO.C,FID4*%
X17960000Y-109820000D03*
%TD*%
%TO.C,FID3*%
X74620000Y-21850000D03*
%TD*%
%TO.C,FID2*%
X74620000Y-109820000D03*
%TD*%
%TO.C,FID1*%
X27220000Y-21850000D03*
%TD*%
D22*
%TO.C,U5*%
X19168571Y-81945780D03*
X19168571Y-73949860D03*
D23*
X29168551Y-85745620D03*
D24*
X19567351Y-86647320D03*
X19567351Y-71148240D03*
D25*
X29066951Y-71138080D03*
D26*
X29666391Y-72298860D03*
X29666391Y-73398680D03*
X29666391Y-74498500D03*
X29666391Y-75598320D03*
X29666391Y-76698140D03*
X29666391Y-77797960D03*
X29666391Y-78897780D03*
X29666391Y-79997600D03*
X29666391Y-81097420D03*
%TD*%
D27*
%TO.C,RN2*%
X34000000Y-75100200D03*
D28*
X34000000Y-74549020D03*
X34000000Y-74051180D03*
D27*
X34000000Y-73500000D03*
X34995680Y-73500000D03*
D28*
X34995680Y-74051180D03*
X34995680Y-74549020D03*
D27*
X34995680Y-75100200D03*
%TD*%
%TO.C,RN1*%
X34000000Y-77600200D03*
D28*
X34000000Y-77049020D03*
X34000000Y-76551180D03*
D27*
X34000000Y-76000000D03*
X34995680Y-76000000D03*
D28*
X34995680Y-76551180D03*
X34995680Y-77049020D03*
D27*
X34995680Y-77600200D03*
%TD*%
D29*
%TO.C,J5*%
X17850000Y-55150000D03*
X17850000Y-55800000D03*
X17850000Y-56450000D03*
X17850000Y-57100000D03*
X17850000Y-57750000D03*
D30*
X15000000Y-52700000D03*
X15000000Y-60200000D03*
D31*
X15000000Y-55300000D03*
X15000000Y-57600000D03*
%TD*%
%TO.C,C5*%
G36*
G01*
X30825000Y-103213691D02*
X30825000Y-102611309D01*
G75*
G02*
X31098809Y-102337500I273809J0D01*
G01*
X31726191Y-102337500D01*
G75*
G02*
X32000000Y-102611309I0J-273809D01*
G01*
X32000000Y-103213691D01*
G75*
G02*
X31726191Y-103487500I-273809J0D01*
G01*
X31098809Y-103487500D01*
G75*
G02*
X30825000Y-103213691I0J273809D01*
G01*
G37*
G36*
G01*
X29400000Y-103213691D02*
X29400000Y-102611309D01*
G75*
G02*
X29673809Y-102337500I273809J0D01*
G01*
X30301191Y-102337500D01*
G75*
G02*
X30575000Y-102611309I0J-273809D01*
G01*
X30575000Y-103213691D01*
G75*
G02*
X30301191Y-103487500I-273809J0D01*
G01*
X29673809Y-103487500D01*
G75*
G02*
X29400000Y-103213691I0J273809D01*
G01*
G37*
%TD*%
%TO.C,C6*%
G36*
G01*
X30812500Y-100501191D02*
X30812500Y-99898809D01*
G75*
G02*
X31086309Y-99625000I273809J0D01*
G01*
X31713691Y-99625000D01*
G75*
G02*
X31987500Y-99898809I0J-273809D01*
G01*
X31987500Y-100501191D01*
G75*
G02*
X31713691Y-100775000I-273809J0D01*
G01*
X31086309Y-100775000D01*
G75*
G02*
X30812500Y-100501191I0J273809D01*
G01*
G37*
G36*
G01*
X29387500Y-100501191D02*
X29387500Y-99898809D01*
G75*
G02*
X29661309Y-99625000I273809J0D01*
G01*
X30288691Y-99625000D01*
G75*
G02*
X30562500Y-99898809I0J-273809D01*
G01*
X30562500Y-100501191D01*
G75*
G02*
X30288691Y-100775000I-273809J0D01*
G01*
X29661309Y-100775000D01*
G75*
G02*
X29387500Y-100501191I0J273809D01*
G01*
G37*
%TD*%
%TO.C,C7*%
G36*
G01*
X30825000Y-97801191D02*
X30825000Y-97198809D01*
G75*
G02*
X31098809Y-96925000I273809J0D01*
G01*
X31726191Y-96925000D01*
G75*
G02*
X32000000Y-97198809I0J-273809D01*
G01*
X32000000Y-97801191D01*
G75*
G02*
X31726191Y-98075000I-273809J0D01*
G01*
X31098809Y-98075000D01*
G75*
G02*
X30825000Y-97801191I0J273809D01*
G01*
G37*
G36*
G01*
X29400000Y-97801191D02*
X29400000Y-97198809D01*
G75*
G02*
X29673809Y-96925000I273809J0D01*
G01*
X30301191Y-96925000D01*
G75*
G02*
X30575000Y-97198809I0J-273809D01*
G01*
X30575000Y-97801191D01*
G75*
G02*
X30301191Y-98075000I-273809J0D01*
G01*
X29673809Y-98075000D01*
G75*
G02*
X29400000Y-97801191I0J273809D01*
G01*
G37*
%TD*%
%TO.C,J1*%
G36*
G01*
X37870000Y-118550000D02*
X36070000Y-118550000D01*
G75*
G02*
X35170000Y-117650000I0J900000D01*
G01*
X35170000Y-115850000D01*
G75*
G02*
X36070000Y-114950000I900000J0D01*
G01*
X37870000Y-114950000D01*
G75*
G02*
X38770000Y-115850000I0J-900000D01*
G01*
X38770000Y-117650000D01*
G75*
G02*
X37870000Y-118550000I-900000J0D01*
G01*
G37*
G36*
G01*
X33295000Y-121300000D02*
X31245000Y-121300000D01*
G75*
G02*
X30470000Y-120525000I0J775000D01*
G01*
X30470000Y-118975000D01*
G75*
G02*
X31245000Y-118200000I775000J0D01*
G01*
X33295000Y-118200000D01*
G75*
G02*
X34070000Y-118975000I0J-775000D01*
G01*
X34070000Y-120525000D01*
G75*
G02*
X33295000Y-121300000I-775000J0D01*
G01*
G37*
D32*
X32270000Y-113750000D03*
%TD*%
D27*
%TO.C,R9*%
X43799800Y-76700000D03*
D33*
X44350980Y-76700000D03*
X44848820Y-76700000D03*
D27*
X45400000Y-76700000D03*
X45400000Y-77695680D03*
D33*
X44848820Y-77695680D03*
X44350980Y-77695680D03*
D27*
X43799800Y-77695680D03*
%TD*%
%TO.C,R8*%
X46599900Y-76700000D03*
D33*
X47151080Y-76700000D03*
X47648920Y-76700000D03*
D27*
X48200100Y-76700000D03*
X48200100Y-77695680D03*
D33*
X47648920Y-77695680D03*
X47151080Y-77695680D03*
D27*
X46599900Y-77695680D03*
%TD*%
%TO.C,R7*%
X52199800Y-76404320D03*
D33*
X52750980Y-76404320D03*
X53248820Y-76404320D03*
D27*
X53800000Y-76404320D03*
X53800000Y-77400000D03*
D33*
X53248820Y-77400000D03*
X52750980Y-77400000D03*
D27*
X52199800Y-77400000D03*
%TD*%
%TO.C,R6*%
X55199800Y-76400000D03*
D33*
X55750980Y-76400000D03*
X56248820Y-76400000D03*
D27*
X56800000Y-76400000D03*
X56800000Y-77395680D03*
D33*
X56248820Y-77395680D03*
X55750980Y-77395680D03*
D27*
X55199800Y-77395680D03*
%TD*%
%TO.C,R5*%
G36*
G01*
X47876000Y-38954750D02*
X47876000Y-39517250D01*
G75*
G02*
X47632250Y-39761000I-243750J0D01*
G01*
X47144750Y-39761000D01*
G75*
G02*
X46901000Y-39517250I0J243750D01*
G01*
X46901000Y-38954750D01*
G75*
G02*
X47144750Y-38711000I243750J0D01*
G01*
X47632250Y-38711000D01*
G75*
G02*
X47876000Y-38954750I0J-243750D01*
G01*
G37*
G36*
G01*
X49451000Y-38954750D02*
X49451000Y-39517250D01*
G75*
G02*
X49207250Y-39761000I-243750J0D01*
G01*
X48719750Y-39761000D01*
G75*
G02*
X48476000Y-39517250I0J243750D01*
G01*
X48476000Y-38954750D01*
G75*
G02*
X48719750Y-38711000I243750J0D01*
G01*
X49207250Y-38711000D01*
G75*
G02*
X49451000Y-38954750I0J-243750D01*
G01*
G37*
%TD*%
D34*
%TO.C,U4*%
X52425000Y-94575000D03*
D35*
X55825000Y-103725000D03*
X54125000Y-103725000D03*
X52425000Y-103725000D03*
X50725000Y-103725000D03*
X49025000Y-103725000D03*
%TD*%
D36*
%TO.C,U3*%
X37200000Y-99050000D03*
X41800000Y-99050000D03*
X39500000Y-99050000D03*
D37*
X39500000Y-92750000D03*
%TD*%
D38*
%TO.C,U2*%
X58322460Y-53877540D03*
X58322460Y-55147540D03*
X58322460Y-56417540D03*
X58322460Y-57687540D03*
X58322460Y-58957540D03*
X58322460Y-60227540D03*
X58322460Y-61497540D03*
X58322460Y-62767540D03*
X58322460Y-64035000D03*
X58322460Y-65305000D03*
X58322460Y-66575000D03*
X58322460Y-67845000D03*
X58322460Y-69115000D03*
X58322460Y-70385000D03*
X58322460Y-71655000D03*
X58322460Y-72925000D03*
X57052460Y-53877540D03*
X57052460Y-55147540D03*
X57052460Y-56417540D03*
X57052460Y-57687540D03*
X57052460Y-58957540D03*
X57052460Y-60227540D03*
X57052460Y-61497540D03*
X57052460Y-62767540D03*
X57052460Y-64035000D03*
X57052460Y-65305000D03*
X57052460Y-66575000D03*
X57052460Y-67845000D03*
X57052460Y-69115000D03*
X57052460Y-70385000D03*
X57052460Y-71655000D03*
X57052460Y-72925000D03*
X55782460Y-53877540D03*
X55782460Y-55147540D03*
X55782460Y-56417540D03*
X55782460Y-57687540D03*
X55782460Y-58957540D03*
X55782460Y-60227540D03*
X55782460Y-61497540D03*
X55782460Y-62767540D03*
X55782460Y-64035000D03*
X55782460Y-65305000D03*
X55782460Y-66575000D03*
X55782460Y-67845000D03*
X55782460Y-69115000D03*
X55782460Y-70385000D03*
X55782460Y-71655000D03*
X55782460Y-72925000D03*
X54512460Y-53877540D03*
X54512460Y-55147540D03*
X54512460Y-56417540D03*
X54512460Y-57687540D03*
X54512460Y-58957540D03*
X54512460Y-60227540D03*
X54512460Y-61497540D03*
X54512460Y-62767540D03*
X54512460Y-64035000D03*
X54512460Y-65305000D03*
X54512460Y-66575000D03*
X54512460Y-67845000D03*
X54512460Y-69115000D03*
X54512460Y-70385000D03*
X54512460Y-71655000D03*
X54512460Y-72925000D03*
X53242460Y-53877540D03*
X53242460Y-55147540D03*
X53242460Y-56417540D03*
X53242460Y-57687540D03*
X53242460Y-58957540D03*
X53242460Y-60227540D03*
X53242460Y-61497540D03*
X53242460Y-62767540D03*
X53242460Y-64035000D03*
X53242460Y-65305000D03*
X53242460Y-66575000D03*
X53242460Y-67845000D03*
X53242460Y-69115000D03*
X53242460Y-70385000D03*
X53242460Y-71655000D03*
X53242460Y-72925000D03*
X51972460Y-53877540D03*
X51972460Y-55147540D03*
X51972460Y-56417540D03*
X51972460Y-57687540D03*
X51972460Y-58957540D03*
X51972460Y-60227540D03*
X51972460Y-61497540D03*
X51972460Y-62767540D03*
X51972460Y-64035000D03*
X51972460Y-65305000D03*
X51972460Y-66575000D03*
X51972460Y-67845000D03*
X51972460Y-69115000D03*
X51972460Y-70385000D03*
X51972460Y-71655000D03*
X51972460Y-72925000D03*
X50702460Y-53877540D03*
X50702460Y-55147540D03*
X50702460Y-56417540D03*
X50702460Y-57687540D03*
X50702460Y-58957540D03*
X50702460Y-60227540D03*
X50702460Y-61497540D03*
X50702460Y-62767540D03*
X50702460Y-64035000D03*
X50702460Y-65305000D03*
X50702460Y-66575000D03*
X50702460Y-67845000D03*
X50702460Y-69115000D03*
X50702460Y-70385000D03*
X50702460Y-71655000D03*
X50702460Y-72925000D03*
X49432460Y-53877540D03*
X49432460Y-55147540D03*
X49432460Y-56417540D03*
X49432460Y-57687540D03*
X49432460Y-58957540D03*
X49432460Y-60227540D03*
X49432460Y-61497540D03*
X49432460Y-62767540D03*
X49432460Y-64035000D03*
X49432460Y-65305000D03*
X49432460Y-66575000D03*
X49432460Y-67845000D03*
X49432460Y-69115000D03*
X49432460Y-70385000D03*
X49432460Y-71655000D03*
X49432460Y-72925000D03*
X48165000Y-53877540D03*
X48165000Y-55147540D03*
X48165000Y-56417540D03*
X48165000Y-57687540D03*
X48165000Y-58957540D03*
X48165000Y-60227540D03*
X48165000Y-61497540D03*
X48165000Y-62767540D03*
X48165000Y-64035000D03*
X48165000Y-65305000D03*
X48165000Y-66575000D03*
X48165000Y-67845000D03*
X48165000Y-69115000D03*
X48165000Y-70385000D03*
X48165000Y-71655000D03*
X48165000Y-72925000D03*
X46895000Y-53877540D03*
X46895000Y-55147540D03*
X46895000Y-56417540D03*
X46895000Y-57687540D03*
X46895000Y-58957540D03*
X46895000Y-60227540D03*
X46895000Y-61497540D03*
X46895000Y-62767540D03*
X46895000Y-64035000D03*
X46895000Y-65305000D03*
X46895000Y-66575000D03*
X46895000Y-67845000D03*
X46895000Y-69115000D03*
X46895000Y-70385000D03*
X46895000Y-71655000D03*
X46895000Y-72925000D03*
X45625000Y-53877540D03*
X45625000Y-55147540D03*
X45625000Y-56417540D03*
X45625000Y-57687540D03*
X45625000Y-58957540D03*
X45625000Y-60227540D03*
X45625000Y-61497540D03*
X45625000Y-62767540D03*
X45625000Y-64035000D03*
X45625000Y-65305000D03*
X45625000Y-66575000D03*
X45625000Y-67845000D03*
X45625000Y-69115000D03*
X45625000Y-70385000D03*
X45625000Y-71655000D03*
X45625000Y-72925000D03*
X44355000Y-53877540D03*
X44355000Y-55147540D03*
X44355000Y-56417540D03*
X44355000Y-57687540D03*
X44355000Y-58957540D03*
X44355000Y-60227540D03*
X44355000Y-61497540D03*
X44355000Y-62767540D03*
X44355000Y-64035000D03*
X44355000Y-65305000D03*
X44355000Y-66575000D03*
X44355000Y-67845000D03*
X44355000Y-69115000D03*
X44355000Y-70385000D03*
X44355000Y-71655000D03*
X44355000Y-72925000D03*
X43085000Y-53877540D03*
X43085000Y-55147540D03*
X43085000Y-56417540D03*
X43085000Y-57687540D03*
X43085000Y-58957540D03*
X43085000Y-60227540D03*
X43085000Y-61497540D03*
X43085000Y-62767540D03*
X43085000Y-64035000D03*
X43085000Y-65305000D03*
X43085000Y-66575000D03*
X43085000Y-67845000D03*
X43085000Y-69115000D03*
X43085000Y-70385000D03*
X43085000Y-71655000D03*
X43085000Y-72925000D03*
X41815000Y-53877540D03*
X41815000Y-55147540D03*
X41815000Y-56417540D03*
X41815000Y-57687540D03*
X41815000Y-58957540D03*
X41815000Y-60227540D03*
X41815000Y-61497540D03*
X41815000Y-62767540D03*
X41815000Y-64035000D03*
X41815000Y-65305000D03*
X41815000Y-66575000D03*
X41815000Y-67845000D03*
X41815000Y-69115000D03*
X41815000Y-70385000D03*
X41815000Y-71655000D03*
X41815000Y-72925000D03*
X40545000Y-53877540D03*
X40545000Y-55147540D03*
X40545000Y-56417540D03*
X40545000Y-57687540D03*
X40545000Y-58957540D03*
X40545000Y-60227540D03*
X40545000Y-61497540D03*
X40545000Y-62767540D03*
X40545000Y-64035000D03*
X40545000Y-65305000D03*
X40545000Y-66575000D03*
X40545000Y-67845000D03*
X40545000Y-69115000D03*
X40545000Y-70385000D03*
X40545000Y-71655000D03*
X40545000Y-72925000D03*
X39275000Y-53877540D03*
X39275000Y-55147540D03*
X39275000Y-56417540D03*
X39275000Y-57687540D03*
X39275000Y-58957540D03*
X39275000Y-60227540D03*
X39275000Y-61497540D03*
X39275000Y-62767540D03*
X39275000Y-64035000D03*
X39275000Y-65305000D03*
X39275000Y-66575000D03*
X39275000Y-67845000D03*
X39275000Y-69115000D03*
X39275000Y-70385000D03*
X39275000Y-71655000D03*
X39275000Y-72925000D03*
%TD*%
D39*
%TO.C,U1*%
X57200000Y-31200000D03*
X55200000Y-32150000D03*
X55200000Y-30250000D03*
%TD*%
%TO.C,R23*%
G36*
G01*
X47831500Y-26718750D02*
X47831500Y-27281250D01*
G75*
G02*
X47587750Y-27525000I-243750J0D01*
G01*
X47100250Y-27525000D01*
G75*
G02*
X46856500Y-27281250I0J243750D01*
G01*
X46856500Y-26718750D01*
G75*
G02*
X47100250Y-26475000I243750J0D01*
G01*
X47587750Y-26475000D01*
G75*
G02*
X47831500Y-26718750I0J-243750D01*
G01*
G37*
G36*
G01*
X49406500Y-26718750D02*
X49406500Y-27281250D01*
G75*
G02*
X49162750Y-27525000I-243750J0D01*
G01*
X48675250Y-27525000D01*
G75*
G02*
X48431500Y-27281250I0J243750D01*
G01*
X48431500Y-26718750D01*
G75*
G02*
X48675250Y-26475000I243750J0D01*
G01*
X49162750Y-26475000D01*
G75*
G02*
X49406500Y-26718750I0J-243750D01*
G01*
G37*
%TD*%
D40*
%TO.C,Q2*%
X44205000Y-31530000D03*
X40505000Y-31530000D03*
%TD*%
%TO.C,R3*%
G36*
G01*
X63000000Y-30681250D02*
X63000000Y-30118750D01*
G75*
G02*
X63243750Y-29875000I243750J0D01*
G01*
X63731250Y-29875000D01*
G75*
G02*
X63975000Y-30118750I0J-243750D01*
G01*
X63975000Y-30681250D01*
G75*
G02*
X63731250Y-30925000I-243750J0D01*
G01*
X63243750Y-30925000D01*
G75*
G02*
X63000000Y-30681250I0J243750D01*
G01*
G37*
G36*
G01*
X61425000Y-30681250D02*
X61425000Y-30118750D01*
G75*
G02*
X61668750Y-29875000I243750J0D01*
G01*
X62156250Y-29875000D01*
G75*
G02*
X62400000Y-30118750I0J-243750D01*
G01*
X62400000Y-30681250D01*
G75*
G02*
X62156250Y-30925000I-243750J0D01*
G01*
X61668750Y-30925000D01*
G75*
G02*
X61425000Y-30681250I0J243750D01*
G01*
G37*
%TD*%
%TO.C,R4*%
G36*
G01*
X62980000Y-27261250D02*
X62980000Y-26698750D01*
G75*
G02*
X63223750Y-26455000I243750J0D01*
G01*
X63711250Y-26455000D01*
G75*
G02*
X63955000Y-26698750I0J-243750D01*
G01*
X63955000Y-27261250D01*
G75*
G02*
X63711250Y-27505000I-243750J0D01*
G01*
X63223750Y-27505000D01*
G75*
G02*
X62980000Y-27261250I0J243750D01*
G01*
G37*
G36*
G01*
X61405000Y-27261250D02*
X61405000Y-26698750D01*
G75*
G02*
X61648750Y-26455000I243750J0D01*
G01*
X62136250Y-26455000D01*
G75*
G02*
X62380000Y-26698750I0J-243750D01*
G01*
X62380000Y-27261250D01*
G75*
G02*
X62136250Y-27505000I-243750J0D01*
G01*
X61648750Y-27505000D01*
G75*
G02*
X61405000Y-27261250I0J243750D01*
G01*
G37*
%TD*%
%TO.C,R2*%
G36*
G01*
X62400000Y-33431250D02*
X62400000Y-33993750D01*
G75*
G02*
X62156250Y-34237500I-243750J0D01*
G01*
X61668750Y-34237500D01*
G75*
G02*
X61425000Y-33993750I0J243750D01*
G01*
X61425000Y-33431250D01*
G75*
G02*
X61668750Y-33187500I243750J0D01*
G01*
X62156250Y-33187500D01*
G75*
G02*
X62400000Y-33431250I0J-243750D01*
G01*
G37*
G36*
G01*
X63975000Y-33431250D02*
X63975000Y-33993750D01*
G75*
G02*
X63731250Y-34237500I-243750J0D01*
G01*
X63243750Y-34237500D01*
G75*
G02*
X63000000Y-33993750I0J243750D01*
G01*
X63000000Y-33431250D01*
G75*
G02*
X63243750Y-33187500I243750J0D01*
G01*
X63731250Y-33187500D01*
G75*
G02*
X63975000Y-33431250I0J-243750D01*
G01*
G37*
%TD*%
D39*
%TO.C,Q1*%
X68500000Y-26100000D03*
X66500000Y-27050000D03*
X66500000Y-25150000D03*
%TD*%
%TO.C,R1*%
G36*
G01*
X81615000Y-111961250D02*
X81615000Y-112523750D01*
G75*
G02*
X81371250Y-112767500I-243750J0D01*
G01*
X80883750Y-112767500D01*
G75*
G02*
X80640000Y-112523750I0J243750D01*
G01*
X80640000Y-111961250D01*
G75*
G02*
X80883750Y-111717500I243750J0D01*
G01*
X81371250Y-111717500D01*
G75*
G02*
X81615000Y-111961250I0J-243750D01*
G01*
G37*
G36*
G01*
X83190000Y-111961250D02*
X83190000Y-112523750D01*
G75*
G02*
X82946250Y-112767500I-243750J0D01*
G01*
X82458750Y-112767500D01*
G75*
G02*
X82215000Y-112523750I0J243750D01*
G01*
X82215000Y-111961250D01*
G75*
G02*
X82458750Y-111717500I243750J0D01*
G01*
X82946250Y-111717500D01*
G75*
G02*
X83190000Y-111961250I0J-243750D01*
G01*
G37*
%TD*%
D41*
%TO.C,H4*%
X81432400Y-23876000D03*
%TD*%
%TO.C,H3*%
X17932400Y-23774400D03*
%TD*%
%TO.C,H2*%
X19100800Y-118973600D03*
%TD*%
%TO.C,H1*%
X81280000Y-120040400D03*
%TD*%
%TO.C,R22*%
G36*
G01*
X73382500Y-34381250D02*
X73382500Y-33818750D01*
G75*
G02*
X73626250Y-33575000I243750J0D01*
G01*
X74113750Y-33575000D01*
G75*
G02*
X74357500Y-33818750I0J-243750D01*
G01*
X74357500Y-34381250D01*
G75*
G02*
X74113750Y-34625000I-243750J0D01*
G01*
X73626250Y-34625000D01*
G75*
G02*
X73382500Y-34381250I0J243750D01*
G01*
G37*
G36*
G01*
X71807500Y-34381250D02*
X71807500Y-33818750D01*
G75*
G02*
X72051250Y-33575000I243750J0D01*
G01*
X72538750Y-33575000D01*
G75*
G02*
X72782500Y-33818750I0J-243750D01*
G01*
X72782500Y-34381250D01*
G75*
G02*
X72538750Y-34625000I-243750J0D01*
G01*
X72051250Y-34625000D01*
G75*
G02*
X71807500Y-34381250I0J243750D01*
G01*
G37*
%TD*%
%TO.C,LED1*%
G36*
G01*
X70040000Y-37478750D02*
X70040000Y-38041250D01*
G75*
G02*
X69796250Y-38285000I-243750J0D01*
G01*
X69308750Y-38285000D01*
G75*
G02*
X69065000Y-38041250I0J243750D01*
G01*
X69065000Y-37478750D01*
G75*
G02*
X69308750Y-37235000I243750J0D01*
G01*
X69796250Y-37235000D01*
G75*
G02*
X70040000Y-37478750I0J-243750D01*
G01*
G37*
G36*
G01*
X71615000Y-37478750D02*
X71615000Y-38041250D01*
G75*
G02*
X71371250Y-38285000I-243750J0D01*
G01*
X70883750Y-38285000D01*
G75*
G02*
X70640000Y-38041250I0J243750D01*
G01*
X70640000Y-37478750D01*
G75*
G02*
X70883750Y-37235000I243750J0D01*
G01*
X71371250Y-37235000D01*
G75*
G02*
X71615000Y-37478750I0J-243750D01*
G01*
G37*
%TD*%
D15*
%TO.C,PWR1*%
X79323280Y-32826720D03*
X79323280Y-36824680D03*
X77824680Y-32826720D03*
X77824680Y-36824680D03*
%TD*%
D42*
%TO.C,D1*%
X53100000Y-117400000D03*
X53100000Y-110600000D03*
%TD*%
D43*
%TO.C,L1*%
X64800000Y-111050000D03*
X64800000Y-120950000D03*
%TD*%
M02*
