%TF.GenerationSoftware,KiCad,Pcbnew,5.1.6-c6e7f7d~86~ubuntu18.04.1*%
%TF.CreationDate,2020-08-05T21:26:21-03:00*%
%TF.ProjectId,pcbproyecto,70636270-726f-4796-9563-746f2e6b6963,rev?*%
%TF.SameCoordinates,Original*%
%TF.FileFunction,Legend,Bot*%
%TF.FilePolarity,Positive*%
%FSLAX46Y46*%
G04 Gerber Fmt 4.6, Leading zero omitted, Abs format (unit mm)*
G04 Created by KiCad (PCBNEW 5.1.6-c6e7f7d~86~ubuntu18.04.1) date 2020-08-05 21:26:21*
%MOMM*%
%LPD*%
G01*
G04 APERTURE LIST*
%ADD10C,0.120000*%
%ADD11C,0.150000*%
G04 APERTURE END LIST*
D10*
%TO.C,U8*%
X74660000Y-57680000D02*
X72710000Y-57680000D01*
X74660000Y-57680000D02*
X76610000Y-57680000D01*
X74660000Y-52560000D02*
X72710000Y-52560000D01*
X74660000Y-52560000D02*
X78110000Y-52560000D01*
%TO.C,C11*%
X80455000Y-60627500D02*
X80455000Y-58317500D01*
X80455000Y-58317500D02*
X82025000Y-58317500D01*
X82025000Y-58317500D02*
X82025000Y-60627500D01*
%TO.C,C1*%
X67735000Y-55372500D02*
X67735000Y-53062500D01*
X69305000Y-55372500D02*
X67735000Y-55372500D01*
X69305000Y-53062500D02*
X69305000Y-55372500D01*
%TO.C,R27*%
X70260000Y-67087221D02*
X70260000Y-67412779D01*
X69240000Y-67087221D02*
X69240000Y-67412779D01*
%TO.C,R26*%
X72990000Y-71625279D02*
X72990000Y-71299721D01*
X74010000Y-71625279D02*
X74010000Y-71299721D01*
%TO.C,R25*%
X69240000Y-71662779D02*
X69240000Y-71337221D01*
X70260000Y-71662779D02*
X70260000Y-71337221D01*
%TO.C,R24*%
X69240000Y-75875279D02*
X69240000Y-75549721D01*
X70260000Y-75875279D02*
X70260000Y-75549721D01*
%TO.C,U8*%
D11*
X75421904Y-51172380D02*
X75421904Y-51981904D01*
X75374285Y-52077142D01*
X75326666Y-52124761D01*
X75231428Y-52172380D01*
X75040952Y-52172380D01*
X74945714Y-52124761D01*
X74898095Y-52077142D01*
X74850476Y-51981904D01*
X74850476Y-51172380D01*
X74231428Y-51600952D02*
X74326666Y-51553333D01*
X74374285Y-51505714D01*
X74421904Y-51410476D01*
X74421904Y-51362857D01*
X74374285Y-51267619D01*
X74326666Y-51220000D01*
X74231428Y-51172380D01*
X74040952Y-51172380D01*
X73945714Y-51220000D01*
X73898095Y-51267619D01*
X73850476Y-51362857D01*
X73850476Y-51410476D01*
X73898095Y-51505714D01*
X73945714Y-51553333D01*
X74040952Y-51600952D01*
X74231428Y-51600952D01*
X74326666Y-51648571D01*
X74374285Y-51696190D01*
X74421904Y-51791428D01*
X74421904Y-51981904D01*
X74374285Y-52077142D01*
X74326666Y-52124761D01*
X74231428Y-52172380D01*
X74040952Y-52172380D01*
X73945714Y-52124761D01*
X73898095Y-52077142D01*
X73850476Y-51981904D01*
X73850476Y-51791428D01*
X73898095Y-51696190D01*
X73945714Y-51648571D01*
X74040952Y-51600952D01*
%TO.C,C11*%
X80117142Y-59184642D02*
X80164761Y-59137023D01*
X80212380Y-58994166D01*
X80212380Y-58898928D01*
X80164761Y-58756071D01*
X80069523Y-58660833D01*
X79974285Y-58613214D01*
X79783809Y-58565595D01*
X79640952Y-58565595D01*
X79450476Y-58613214D01*
X79355238Y-58660833D01*
X79260000Y-58756071D01*
X79212380Y-58898928D01*
X79212380Y-58994166D01*
X79260000Y-59137023D01*
X79307619Y-59184642D01*
X80212380Y-60137023D02*
X80212380Y-59565595D01*
X80212380Y-59851309D02*
X79212380Y-59851309D01*
X79355238Y-59756071D01*
X79450476Y-59660833D01*
X79498095Y-59565595D01*
X80212380Y-61089404D02*
X80212380Y-60517976D01*
X80212380Y-60803690D02*
X79212380Y-60803690D01*
X79355238Y-60708452D01*
X79450476Y-60613214D01*
X79498095Y-60517976D01*
%TO.C,C1*%
X70357142Y-53695833D02*
X70404761Y-53648214D01*
X70452380Y-53505357D01*
X70452380Y-53410119D01*
X70404761Y-53267261D01*
X70309523Y-53172023D01*
X70214285Y-53124404D01*
X70023809Y-53076785D01*
X69880952Y-53076785D01*
X69690476Y-53124404D01*
X69595238Y-53172023D01*
X69500000Y-53267261D01*
X69452380Y-53410119D01*
X69452380Y-53505357D01*
X69500000Y-53648214D01*
X69547619Y-53695833D01*
X70452380Y-54648214D02*
X70452380Y-54076785D01*
X70452380Y-54362500D02*
X69452380Y-54362500D01*
X69595238Y-54267261D01*
X69690476Y-54172023D01*
X69738095Y-54076785D01*
%TO.C,R27*%
X70322380Y-63527142D02*
X69846190Y-63193809D01*
X70322380Y-62955714D02*
X69322380Y-62955714D01*
X69322380Y-63336666D01*
X69370000Y-63431904D01*
X69417619Y-63479523D01*
X69512857Y-63527142D01*
X69655714Y-63527142D01*
X69750952Y-63479523D01*
X69798571Y-63431904D01*
X69846190Y-63336666D01*
X69846190Y-62955714D01*
X69417619Y-63908095D02*
X69370000Y-63955714D01*
X69322380Y-64050952D01*
X69322380Y-64289047D01*
X69370000Y-64384285D01*
X69417619Y-64431904D01*
X69512857Y-64479523D01*
X69608095Y-64479523D01*
X69750952Y-64431904D01*
X70322380Y-63860476D01*
X70322380Y-64479523D01*
X69322380Y-64812857D02*
X69322380Y-65479523D01*
X70322380Y-65050952D01*
%TO.C,R26*%
X75382380Y-70819642D02*
X74906190Y-70486309D01*
X75382380Y-70248214D02*
X74382380Y-70248214D01*
X74382380Y-70629166D01*
X74430000Y-70724404D01*
X74477619Y-70772023D01*
X74572857Y-70819642D01*
X74715714Y-70819642D01*
X74810952Y-70772023D01*
X74858571Y-70724404D01*
X74906190Y-70629166D01*
X74906190Y-70248214D01*
X74477619Y-71200595D02*
X74430000Y-71248214D01*
X74382380Y-71343452D01*
X74382380Y-71581547D01*
X74430000Y-71676785D01*
X74477619Y-71724404D01*
X74572857Y-71772023D01*
X74668095Y-71772023D01*
X74810952Y-71724404D01*
X75382380Y-71152976D01*
X75382380Y-71772023D01*
X74382380Y-72629166D02*
X74382380Y-72438690D01*
X74430000Y-72343452D01*
X74477619Y-72295833D01*
X74620476Y-72200595D01*
X74810952Y-72152976D01*
X75191904Y-72152976D01*
X75287142Y-72200595D01*
X75334761Y-72248214D01*
X75382380Y-72343452D01*
X75382380Y-72533928D01*
X75334761Y-72629166D01*
X75287142Y-72676785D01*
X75191904Y-72724404D01*
X74953809Y-72724404D01*
X74858571Y-72676785D01*
X74810952Y-72629166D01*
X74763333Y-72533928D01*
X74763333Y-72343452D01*
X74810952Y-72248214D01*
X74858571Y-72200595D01*
X74953809Y-72152976D01*
%TO.C,R25*%
X71632380Y-70857142D02*
X71156190Y-70523809D01*
X71632380Y-70285714D02*
X70632380Y-70285714D01*
X70632380Y-70666666D01*
X70680000Y-70761904D01*
X70727619Y-70809523D01*
X70822857Y-70857142D01*
X70965714Y-70857142D01*
X71060952Y-70809523D01*
X71108571Y-70761904D01*
X71156190Y-70666666D01*
X71156190Y-70285714D01*
X70727619Y-71238095D02*
X70680000Y-71285714D01*
X70632380Y-71380952D01*
X70632380Y-71619047D01*
X70680000Y-71714285D01*
X70727619Y-71761904D01*
X70822857Y-71809523D01*
X70918095Y-71809523D01*
X71060952Y-71761904D01*
X71632380Y-71190476D01*
X71632380Y-71809523D01*
X70632380Y-72714285D02*
X70632380Y-72238095D01*
X71108571Y-72190476D01*
X71060952Y-72238095D01*
X71013333Y-72333333D01*
X71013333Y-72571428D01*
X71060952Y-72666666D01*
X71108571Y-72714285D01*
X71203809Y-72761904D01*
X71441904Y-72761904D01*
X71537142Y-72714285D01*
X71584761Y-72666666D01*
X71632380Y-72571428D01*
X71632380Y-72333333D01*
X71584761Y-72238095D01*
X71537142Y-72190476D01*
%TO.C,R24*%
X71632380Y-75069642D02*
X71156190Y-74736309D01*
X71632380Y-74498214D02*
X70632380Y-74498214D01*
X70632380Y-74879166D01*
X70680000Y-74974404D01*
X70727619Y-75022023D01*
X70822857Y-75069642D01*
X70965714Y-75069642D01*
X71060952Y-75022023D01*
X71108571Y-74974404D01*
X71156190Y-74879166D01*
X71156190Y-74498214D01*
X70727619Y-75450595D02*
X70680000Y-75498214D01*
X70632380Y-75593452D01*
X70632380Y-75831547D01*
X70680000Y-75926785D01*
X70727619Y-75974404D01*
X70822857Y-76022023D01*
X70918095Y-76022023D01*
X71060952Y-75974404D01*
X71632380Y-75402976D01*
X71632380Y-76022023D01*
X70965714Y-76879166D02*
X71632380Y-76879166D01*
X70584761Y-76641071D02*
X71299047Y-76402976D01*
X71299047Y-77022023D01*
%TD*%
M02*
