%TF.GenerationSoftware,KiCad,Pcbnew,5.1.6-c6e7f7d~86~ubuntu18.04.1*%
%TF.CreationDate,2020-08-04T21:49:05-03:00*%
%TF.ProjectId,pcbproyecto,70636270-726f-4796-9563-746f2e6b6963,rev?*%
%TF.SameCoordinates,Original*%
%TF.FileFunction,Paste,Top*%
%TF.FilePolarity,Positive*%
%FSLAX46Y46*%
G04 Gerber Fmt 4.6, Leading zero omitted, Abs format (unit mm)*
G04 Created by KiCad (PCBNEW 5.1.6-c6e7f7d~86~ubuntu18.04.1) date 2020-08-04 21:49:05*
%MOMM*%
%LPD*%
G01*
G04 APERTURE LIST*
%ADD10R,0.899160X1.198880*%
%ADD11C,0.100000*%
%ADD12R,0.398780X0.899160*%
%ADD13R,1.399540X1.597660*%
%ADD14R,2.199640X1.198880*%
%ADD15R,1.597660X1.198880*%
%ADD16R,1.597660X0.698500*%
%ADD17R,0.497840X0.497840*%
%ADD18R,0.497840X0.299720*%
%ADD19R,1.400000X0.400000*%
%ADD20R,1.900000X2.300000*%
%ADD21R,1.900000X1.800000*%
%ADD22R,0.299720X0.497840*%
%ADD23R,5.250000X4.550000*%
%ADD24R,1.100000X4.600000*%
%ADD25R,1.500000X2.000000*%
%ADD26R,3.800000X2.000000*%
%ADD27C,0.497840*%
%ADD28R,0.900000X0.800000*%
%ADD29R,1.700000X2.400000*%
%ADD30R,3.300000X2.500000*%
%ADD31R,3.150000X1.960000*%
%ADD32R,5.400000X2.900000*%
G04 APERTURE END LIST*
D10*
%TO.C,RST1*%
X73926700Y-51528980D03*
X73926700Y-47531020D03*
X75425300Y-51528980D03*
X75425300Y-47531020D03*
%TD*%
%TO.C,R16*%
G36*
G01*
X77845500Y-45214250D02*
X77845500Y-44701750D01*
G75*
G02*
X78064250Y-44483000I218750J0D01*
G01*
X78501750Y-44483000D01*
G75*
G02*
X78720500Y-44701750I0J-218750D01*
G01*
X78720500Y-45214250D01*
G75*
G02*
X78501750Y-45433000I-218750J0D01*
G01*
X78064250Y-45433000D01*
G75*
G02*
X77845500Y-45214250I0J218750D01*
G01*
G37*
G36*
G01*
X76270500Y-45214250D02*
X76270500Y-44701750D01*
G75*
G02*
X76489250Y-44483000I218750J0D01*
G01*
X76926750Y-44483000D01*
G75*
G02*
X77145500Y-44701750I0J-218750D01*
G01*
X77145500Y-45214250D01*
G75*
G02*
X76926750Y-45433000I-218750J0D01*
G01*
X76489250Y-45433000D01*
G75*
G02*
X76270500Y-45214250I0J218750D01*
G01*
G37*
%TD*%
%TO.C,R15*%
G36*
G01*
X77845500Y-43182250D02*
X77845500Y-42669750D01*
G75*
G02*
X78064250Y-42451000I218750J0D01*
G01*
X78501750Y-42451000D01*
G75*
G02*
X78720500Y-42669750I0J-218750D01*
G01*
X78720500Y-43182250D01*
G75*
G02*
X78501750Y-43401000I-218750J0D01*
G01*
X78064250Y-43401000D01*
G75*
G02*
X77845500Y-43182250I0J218750D01*
G01*
G37*
G36*
G01*
X76270500Y-43182250D02*
X76270500Y-42669750D01*
G75*
G02*
X76489250Y-42451000I218750J0D01*
G01*
X76926750Y-42451000D01*
G75*
G02*
X77145500Y-42669750I0J-218750D01*
G01*
X77145500Y-43182250D01*
G75*
G02*
X76926750Y-43401000I-218750J0D01*
G01*
X76489250Y-43401000D01*
G75*
G02*
X76270500Y-43182250I0J218750D01*
G01*
G37*
%TD*%
%TO.C,R14*%
G36*
G01*
X77820000Y-41150250D02*
X77820000Y-40637750D01*
G75*
G02*
X78038750Y-40419000I218750J0D01*
G01*
X78476250Y-40419000D01*
G75*
G02*
X78695000Y-40637750I0J-218750D01*
G01*
X78695000Y-41150250D01*
G75*
G02*
X78476250Y-41369000I-218750J0D01*
G01*
X78038750Y-41369000D01*
G75*
G02*
X77820000Y-41150250I0J218750D01*
G01*
G37*
G36*
G01*
X76245000Y-41150250D02*
X76245000Y-40637750D01*
G75*
G02*
X76463750Y-40419000I218750J0D01*
G01*
X76901250Y-40419000D01*
G75*
G02*
X77120000Y-40637750I0J-218750D01*
G01*
X77120000Y-41150250D01*
G75*
G02*
X76901250Y-41369000I-218750J0D01*
G01*
X76463750Y-41369000D01*
G75*
G02*
X76245000Y-41150250I0J218750D01*
G01*
G37*
%TD*%
%TO.C,R13*%
G36*
G01*
X77845500Y-39118250D02*
X77845500Y-38605750D01*
G75*
G02*
X78064250Y-38387000I218750J0D01*
G01*
X78501750Y-38387000D01*
G75*
G02*
X78720500Y-38605750I0J-218750D01*
G01*
X78720500Y-39118250D01*
G75*
G02*
X78501750Y-39337000I-218750J0D01*
G01*
X78064250Y-39337000D01*
G75*
G02*
X77845500Y-39118250I0J218750D01*
G01*
G37*
G36*
G01*
X76270500Y-39118250D02*
X76270500Y-38605750D01*
G75*
G02*
X76489250Y-38387000I218750J0D01*
G01*
X76926750Y-38387000D01*
G75*
G02*
X77145500Y-38605750I0J-218750D01*
G01*
X77145500Y-39118250D01*
G75*
G02*
X76926750Y-39337000I-218750J0D01*
G01*
X76489250Y-39337000D01*
G75*
G02*
X76270500Y-39118250I0J218750D01*
G01*
G37*
%TD*%
%TO.C,D5*%
G36*
G01*
X74302000Y-44857500D02*
X74302000Y-45058500D01*
G75*
G02*
X74222500Y-45138000I-79500J0D01*
G01*
X74063500Y-45138000D01*
G75*
G02*
X73984000Y-45058500I0J79500D01*
G01*
X73984000Y-44857500D01*
G75*
G02*
X74063500Y-44778000I79500J0D01*
G01*
X74222500Y-44778000D01*
G75*
G02*
X74302000Y-44857500I0J-79500D01*
G01*
G37*
G36*
G01*
X74992000Y-44857500D02*
X74992000Y-45058500D01*
G75*
G02*
X74912500Y-45138000I-79500J0D01*
G01*
X74753500Y-45138000D01*
G75*
G02*
X74674000Y-45058500I0J79500D01*
G01*
X74674000Y-44857500D01*
G75*
G02*
X74753500Y-44778000I79500J0D01*
G01*
X74912500Y-44778000D01*
G75*
G02*
X74992000Y-44857500I0J-79500D01*
G01*
G37*
%TD*%
%TO.C,D4*%
G36*
G01*
X74170000Y-42825500D02*
X74170000Y-43026500D01*
G75*
G02*
X74090500Y-43106000I-79500J0D01*
G01*
X73931500Y-43106000D01*
G75*
G02*
X73852000Y-43026500I0J79500D01*
G01*
X73852000Y-42825500D01*
G75*
G02*
X73931500Y-42746000I79500J0D01*
G01*
X74090500Y-42746000D01*
G75*
G02*
X74170000Y-42825500I0J-79500D01*
G01*
G37*
G36*
G01*
X74860000Y-42825500D02*
X74860000Y-43026500D01*
G75*
G02*
X74780500Y-43106000I-79500J0D01*
G01*
X74621500Y-43106000D01*
G75*
G02*
X74542000Y-43026500I0J79500D01*
G01*
X74542000Y-42825500D01*
G75*
G02*
X74621500Y-42746000I79500J0D01*
G01*
X74780500Y-42746000D01*
G75*
G02*
X74860000Y-42825500I0J-79500D01*
G01*
G37*
%TD*%
%TO.C,D3*%
G36*
G01*
X74236000Y-40539500D02*
X74236000Y-40740500D01*
G75*
G02*
X74156500Y-40820000I-79500J0D01*
G01*
X73997500Y-40820000D01*
G75*
G02*
X73918000Y-40740500I0J79500D01*
G01*
X73918000Y-40539500D01*
G75*
G02*
X73997500Y-40460000I79500J0D01*
G01*
X74156500Y-40460000D01*
G75*
G02*
X74236000Y-40539500I0J-79500D01*
G01*
G37*
G36*
G01*
X74926000Y-40539500D02*
X74926000Y-40740500D01*
G75*
G02*
X74846500Y-40820000I-79500J0D01*
G01*
X74687500Y-40820000D01*
G75*
G02*
X74608000Y-40740500I0J79500D01*
G01*
X74608000Y-40539500D01*
G75*
G02*
X74687500Y-40460000I79500J0D01*
G01*
X74846500Y-40460000D01*
G75*
G02*
X74926000Y-40539500I0J-79500D01*
G01*
G37*
%TD*%
%TO.C,D2*%
G36*
G01*
X74170000Y-38761500D02*
X74170000Y-38962500D01*
G75*
G02*
X74090500Y-39042000I-79500J0D01*
G01*
X73931500Y-39042000D01*
G75*
G02*
X73852000Y-38962500I0J79500D01*
G01*
X73852000Y-38761500D01*
G75*
G02*
X73931500Y-38682000I79500J0D01*
G01*
X74090500Y-38682000D01*
G75*
G02*
X74170000Y-38761500I0J-79500D01*
G01*
G37*
G36*
G01*
X74860000Y-38761500D02*
X74860000Y-38962500D01*
G75*
G02*
X74780500Y-39042000I-79500J0D01*
G01*
X74621500Y-39042000D01*
G75*
G02*
X74542000Y-38962500I0J79500D01*
G01*
X74542000Y-38761500D01*
G75*
G02*
X74621500Y-38682000I79500J0D01*
G01*
X74780500Y-38682000D01*
G75*
G02*
X74860000Y-38761500I0J-79500D01*
G01*
G37*
%TD*%
D11*
%TO.C,U7*%
G36*
X65962000Y-43315198D02*
G01*
X65643802Y-42997000D01*
X65962000Y-42678802D01*
X66280198Y-42997000D01*
X65962000Y-43315198D01*
G37*
G36*
X65712000Y-43397000D02*
G01*
X65712000Y-43427000D01*
X65312000Y-43427000D01*
X65312000Y-43217000D01*
X65532000Y-43217000D01*
X65712000Y-43397000D01*
G37*
G36*
X66612000Y-43427000D02*
G01*
X66212000Y-43427000D01*
X66212000Y-43397000D01*
X66392000Y-43217000D01*
X66612000Y-43217000D01*
X66612000Y-43427000D01*
G37*
G36*
X66612000Y-42777000D02*
G01*
X66392000Y-42777000D01*
X66212000Y-42597000D01*
X66212000Y-42567000D01*
X66612000Y-42567000D01*
X66612000Y-42777000D01*
G37*
G36*
X65712000Y-42597000D02*
G01*
X65532000Y-42777000D01*
X65312000Y-42777000D01*
X65312000Y-42567000D01*
X65712000Y-42567000D01*
X65712000Y-42597000D01*
G37*
%TD*%
%TO.C,R12*%
G36*
G01*
X66296250Y-47376500D02*
X65783750Y-47376500D01*
G75*
G02*
X65565000Y-47157750I0J218750D01*
G01*
X65565000Y-46720250D01*
G75*
G02*
X65783750Y-46501500I218750J0D01*
G01*
X66296250Y-46501500D01*
G75*
G02*
X66515000Y-46720250I0J-218750D01*
G01*
X66515000Y-47157750D01*
G75*
G02*
X66296250Y-47376500I-218750J0D01*
G01*
G37*
G36*
G01*
X66296250Y-48951500D02*
X65783750Y-48951500D01*
G75*
G02*
X65565000Y-48732750I0J218750D01*
G01*
X65565000Y-48295250D01*
G75*
G02*
X65783750Y-48076500I218750J0D01*
G01*
X66296250Y-48076500D01*
G75*
G02*
X66515000Y-48295250I0J-218750D01*
G01*
X66515000Y-48732750D01*
G75*
G02*
X66296250Y-48951500I-218750J0D01*
G01*
G37*
%TD*%
%TO.C,R11*%
G36*
G01*
X62994250Y-47427500D02*
X62481750Y-47427500D01*
G75*
G02*
X62263000Y-47208750I0J218750D01*
G01*
X62263000Y-46771250D01*
G75*
G02*
X62481750Y-46552500I218750J0D01*
G01*
X62994250Y-46552500D01*
G75*
G02*
X63213000Y-46771250I0J-218750D01*
G01*
X63213000Y-47208750D01*
G75*
G02*
X62994250Y-47427500I-218750J0D01*
G01*
G37*
G36*
G01*
X62994250Y-49002500D02*
X62481750Y-49002500D01*
G75*
G02*
X62263000Y-48783750I0J218750D01*
G01*
X62263000Y-48346250D01*
G75*
G02*
X62481750Y-48127500I218750J0D01*
G01*
X62994250Y-48127500D01*
G75*
G02*
X63213000Y-48346250I0J-218750D01*
G01*
X63213000Y-48783750D01*
G75*
G02*
X62994250Y-49002500I-218750J0D01*
G01*
G37*
%TD*%
D12*
%TO.C,IC1*%
X68694300Y-46398180D03*
X69989700Y-46398180D03*
X69989700Y-48597820D03*
X69342000Y-48597820D03*
X68694300Y-48597820D03*
%TD*%
%TO.C,U6*%
G36*
G01*
X73510000Y-61380000D02*
X73510000Y-61800000D01*
G75*
G02*
X73340000Y-61970000I-170000J0D01*
G01*
X73000000Y-61970000D01*
G75*
G02*
X72830000Y-61800000I0J170000D01*
G01*
X72830000Y-61380000D01*
G75*
G02*
X73000000Y-61210000I170000J0D01*
G01*
X73340000Y-61210000D01*
G75*
G02*
X73510000Y-61380000I0J-170000D01*
G01*
G37*
G36*
G01*
X73510000Y-62320000D02*
X73510000Y-62740000D01*
G75*
G02*
X73340000Y-62910000I-170000J0D01*
G01*
X73000000Y-62910000D01*
G75*
G02*
X72830000Y-62740000I0J170000D01*
G01*
X72830000Y-62320000D01*
G75*
G02*
X73000000Y-62150000I170000J0D01*
G01*
X73340000Y-62150000D01*
G75*
G02*
X73510000Y-62320000I0J-170000D01*
G01*
G37*
G36*
G01*
X74350000Y-61380000D02*
X74350000Y-61800000D01*
G75*
G02*
X74180000Y-61970000I-170000J0D01*
G01*
X73840000Y-61970000D01*
G75*
G02*
X73670000Y-61800000I0J170000D01*
G01*
X73670000Y-61380000D01*
G75*
G02*
X73840000Y-61210000I170000J0D01*
G01*
X74180000Y-61210000D01*
G75*
G02*
X74350000Y-61380000I0J-170000D01*
G01*
G37*
G36*
G01*
X74350000Y-62320000D02*
X74350000Y-62740000D01*
G75*
G02*
X74180000Y-62910000I-170000J0D01*
G01*
X73840000Y-62910000D01*
G75*
G02*
X73670000Y-62740000I0J170000D01*
G01*
X73670000Y-62320000D01*
G75*
G02*
X73840000Y-62150000I170000J0D01*
G01*
X74180000Y-62150000D01*
G75*
G02*
X74350000Y-62320000I0J-170000D01*
G01*
G37*
G36*
G01*
X72165000Y-62935000D02*
X72165000Y-63135000D01*
G75*
G02*
X72065000Y-63235000I-100000J0D01*
G01*
X70815000Y-63235000D01*
G75*
G02*
X70715000Y-63135000I0J100000D01*
G01*
X70715000Y-62935000D01*
G75*
G02*
X70815000Y-62835000I100000J0D01*
G01*
X72065000Y-62835000D01*
G75*
G02*
X72165000Y-62935000I0J-100000D01*
G01*
G37*
G36*
G01*
X72165000Y-62285000D02*
X72165000Y-62485000D01*
G75*
G02*
X72065000Y-62585000I-100000J0D01*
G01*
X70815000Y-62585000D01*
G75*
G02*
X70715000Y-62485000I0J100000D01*
G01*
X70715000Y-62285000D01*
G75*
G02*
X70815000Y-62185000I100000J0D01*
G01*
X72065000Y-62185000D01*
G75*
G02*
X72165000Y-62285000I0J-100000D01*
G01*
G37*
G36*
G01*
X72165000Y-61635000D02*
X72165000Y-61835000D01*
G75*
G02*
X72065000Y-61935000I-100000J0D01*
G01*
X70815000Y-61935000D01*
G75*
G02*
X70715000Y-61835000I0J100000D01*
G01*
X70715000Y-61635000D01*
G75*
G02*
X70815000Y-61535000I100000J0D01*
G01*
X72065000Y-61535000D01*
G75*
G02*
X72165000Y-61635000I0J-100000D01*
G01*
G37*
G36*
G01*
X72165000Y-60985000D02*
X72165000Y-61185000D01*
G75*
G02*
X72065000Y-61285000I-100000J0D01*
G01*
X70815000Y-61285000D01*
G75*
G02*
X70715000Y-61185000I0J100000D01*
G01*
X70715000Y-60985000D01*
G75*
G02*
X70815000Y-60885000I100000J0D01*
G01*
X72065000Y-60885000D01*
G75*
G02*
X72165000Y-60985000I0J-100000D01*
G01*
G37*
G36*
G01*
X76465000Y-60985000D02*
X76465000Y-61185000D01*
G75*
G02*
X76365000Y-61285000I-100000J0D01*
G01*
X75115000Y-61285000D01*
G75*
G02*
X75015000Y-61185000I0J100000D01*
G01*
X75015000Y-60985000D01*
G75*
G02*
X75115000Y-60885000I100000J0D01*
G01*
X76365000Y-60885000D01*
G75*
G02*
X76465000Y-60985000I0J-100000D01*
G01*
G37*
G36*
G01*
X76465000Y-61635000D02*
X76465000Y-61835000D01*
G75*
G02*
X76365000Y-61935000I-100000J0D01*
G01*
X75115000Y-61935000D01*
G75*
G02*
X75015000Y-61835000I0J100000D01*
G01*
X75015000Y-61635000D01*
G75*
G02*
X75115000Y-61535000I100000J0D01*
G01*
X76365000Y-61535000D01*
G75*
G02*
X76465000Y-61635000I0J-100000D01*
G01*
G37*
G36*
G01*
X76465000Y-62285000D02*
X76465000Y-62485000D01*
G75*
G02*
X76365000Y-62585000I-100000J0D01*
G01*
X75115000Y-62585000D01*
G75*
G02*
X75015000Y-62485000I0J100000D01*
G01*
X75015000Y-62285000D01*
G75*
G02*
X75115000Y-62185000I100000J0D01*
G01*
X76365000Y-62185000D01*
G75*
G02*
X76465000Y-62285000I0J-100000D01*
G01*
G37*
G36*
G01*
X76465000Y-62935000D02*
X76465000Y-63135000D01*
G75*
G02*
X76365000Y-63235000I-100000J0D01*
G01*
X75115000Y-63235000D01*
G75*
G02*
X75015000Y-63135000I0J100000D01*
G01*
X75015000Y-62935000D01*
G75*
G02*
X75115000Y-62835000I100000J0D01*
G01*
X76365000Y-62835000D01*
G75*
G02*
X76465000Y-62935000I0J-100000D01*
G01*
G37*
%TD*%
%TO.C,R10*%
G36*
G01*
X73203750Y-67770000D02*
X73716250Y-67770000D01*
G75*
G02*
X73935000Y-67988750I0J-218750D01*
G01*
X73935000Y-68426250D01*
G75*
G02*
X73716250Y-68645000I-218750J0D01*
G01*
X73203750Y-68645000D01*
G75*
G02*
X72985000Y-68426250I0J218750D01*
G01*
X72985000Y-67988750D01*
G75*
G02*
X73203750Y-67770000I218750J0D01*
G01*
G37*
G36*
G01*
X73203750Y-66195000D02*
X73716250Y-66195000D01*
G75*
G02*
X73935000Y-66413750I0J-218750D01*
G01*
X73935000Y-66851250D01*
G75*
G02*
X73716250Y-67070000I-218750J0D01*
G01*
X73203750Y-67070000D01*
G75*
G02*
X72985000Y-66851250I0J218750D01*
G01*
X72985000Y-66413750D01*
G75*
G02*
X73203750Y-66195000I218750J0D01*
G01*
G37*
%TD*%
%TO.C,C10*%
G36*
G01*
X77754999Y-67575000D02*
X78305001Y-67575000D01*
G75*
G02*
X78555000Y-67824999I0J-249999D01*
G01*
X78555000Y-68400001D01*
G75*
G02*
X78305001Y-68650000I-249999J0D01*
G01*
X77754999Y-68650000D01*
G75*
G02*
X77505000Y-68400001I0J249999D01*
G01*
X77505000Y-67824999D01*
G75*
G02*
X77754999Y-67575000I249999J0D01*
G01*
G37*
G36*
G01*
X77754999Y-66150000D02*
X78305001Y-66150000D01*
G75*
G02*
X78555000Y-66399999I0J-249999D01*
G01*
X78555000Y-66975001D01*
G75*
G02*
X78305001Y-67225000I-249999J0D01*
G01*
X77754999Y-67225000D01*
G75*
G02*
X77505000Y-66975001I0J249999D01*
G01*
X77505000Y-66399999D01*
G75*
G02*
X77754999Y-66150000I249999J0D01*
G01*
G37*
%TD*%
D13*
%TO.C,U5*%
X29168551Y-85745620D03*
D14*
X19567351Y-86647320D03*
X19567351Y-71148240D03*
D15*
X29066951Y-71138080D03*
D16*
X29666391Y-72298860D03*
X29666391Y-73398680D03*
X29666391Y-74498500D03*
X29666391Y-75598320D03*
X29666391Y-76698140D03*
X29666391Y-77797960D03*
X29666391Y-78897780D03*
X29666391Y-79997600D03*
X29666391Y-81097420D03*
%TD*%
D17*
%TO.C,RN2*%
X34000000Y-75100200D03*
D18*
X34000000Y-74549020D03*
X34000000Y-74051180D03*
D17*
X34000000Y-73500000D03*
X34995680Y-73500000D03*
D18*
X34995680Y-74051180D03*
X34995680Y-74549020D03*
D17*
X34995680Y-75100200D03*
%TD*%
%TO.C,RN1*%
X34000000Y-77600200D03*
D18*
X34000000Y-77049020D03*
X34000000Y-76551180D03*
D17*
X34000000Y-76000000D03*
X34995680Y-76000000D03*
D18*
X34995680Y-76551180D03*
X34995680Y-77049020D03*
D17*
X34995680Y-77600200D03*
%TD*%
%TO.C,C9*%
G36*
G01*
X61724999Y-75765000D02*
X62275001Y-75765000D01*
G75*
G02*
X62525000Y-76014999I0J-249999D01*
G01*
X62525000Y-76590001D01*
G75*
G02*
X62275001Y-76840000I-249999J0D01*
G01*
X61724999Y-76840000D01*
G75*
G02*
X61475000Y-76590001I0J249999D01*
G01*
X61475000Y-76014999D01*
G75*
G02*
X61724999Y-75765000I249999J0D01*
G01*
G37*
G36*
G01*
X61724999Y-74340000D02*
X62275001Y-74340000D01*
G75*
G02*
X62525000Y-74589999I0J-249999D01*
G01*
X62525000Y-75165001D01*
G75*
G02*
X62275001Y-75415000I-249999J0D01*
G01*
X61724999Y-75415000D01*
G75*
G02*
X61475000Y-75165001I0J249999D01*
G01*
X61475000Y-74589999D01*
G75*
G02*
X61724999Y-74340000I249999J0D01*
G01*
G37*
%TD*%
%TO.C,C8*%
G36*
G01*
X61724999Y-71675000D02*
X62275001Y-71675000D01*
G75*
G02*
X62525000Y-71924999I0J-249999D01*
G01*
X62525000Y-72500001D01*
G75*
G02*
X62275001Y-72750000I-249999J0D01*
G01*
X61724999Y-72750000D01*
G75*
G02*
X61475000Y-72500001I0J249999D01*
G01*
X61475000Y-71924999D01*
G75*
G02*
X61724999Y-71675000I249999J0D01*
G01*
G37*
G36*
G01*
X61724999Y-70250000D02*
X62275001Y-70250000D01*
G75*
G02*
X62525000Y-70499999I0J-249999D01*
G01*
X62525000Y-71075001D01*
G75*
G02*
X62275001Y-71325000I-249999J0D01*
G01*
X61724999Y-71325000D01*
G75*
G02*
X61475000Y-71075001I0J249999D01*
G01*
X61475000Y-70499999D01*
G75*
G02*
X61724999Y-70250000I249999J0D01*
G01*
G37*
%TD*%
D19*
%TO.C,J5*%
X20850000Y-55200000D03*
X20850000Y-55850000D03*
X20850000Y-56500000D03*
X20850000Y-57150000D03*
X20850000Y-57800000D03*
D20*
X18000000Y-52750000D03*
X18000000Y-60250000D03*
D21*
X18000000Y-55350000D03*
X18000000Y-57650000D03*
%TD*%
%TO.C,C5*%
G36*
G01*
X30875000Y-103187501D02*
X30875000Y-102637499D01*
G75*
G02*
X31124999Y-102387500I249999J0D01*
G01*
X31700001Y-102387500D01*
G75*
G02*
X31950000Y-102637499I0J-249999D01*
G01*
X31950000Y-103187501D01*
G75*
G02*
X31700001Y-103437500I-249999J0D01*
G01*
X31124999Y-103437500D01*
G75*
G02*
X30875000Y-103187501I0J249999D01*
G01*
G37*
G36*
G01*
X29450000Y-103187501D02*
X29450000Y-102637499D01*
G75*
G02*
X29699999Y-102387500I249999J0D01*
G01*
X30275001Y-102387500D01*
G75*
G02*
X30525000Y-102637499I0J-249999D01*
G01*
X30525000Y-103187501D01*
G75*
G02*
X30275001Y-103437500I-249999J0D01*
G01*
X29699999Y-103437500D01*
G75*
G02*
X29450000Y-103187501I0J249999D01*
G01*
G37*
%TD*%
%TO.C,C6*%
G36*
G01*
X30862500Y-100475001D02*
X30862500Y-99924999D01*
G75*
G02*
X31112499Y-99675000I249999J0D01*
G01*
X31687501Y-99675000D01*
G75*
G02*
X31937500Y-99924999I0J-249999D01*
G01*
X31937500Y-100475001D01*
G75*
G02*
X31687501Y-100725000I-249999J0D01*
G01*
X31112499Y-100725000D01*
G75*
G02*
X30862500Y-100475001I0J249999D01*
G01*
G37*
G36*
G01*
X29437500Y-100475001D02*
X29437500Y-99924999D01*
G75*
G02*
X29687499Y-99675000I249999J0D01*
G01*
X30262501Y-99675000D01*
G75*
G02*
X30512500Y-99924999I0J-249999D01*
G01*
X30512500Y-100475001D01*
G75*
G02*
X30262501Y-100725000I-249999J0D01*
G01*
X29687499Y-100725000D01*
G75*
G02*
X29437500Y-100475001I0J249999D01*
G01*
G37*
%TD*%
%TO.C,C7*%
G36*
G01*
X30875000Y-97775001D02*
X30875000Y-97224999D01*
G75*
G02*
X31124999Y-96975000I249999J0D01*
G01*
X31700001Y-96975000D01*
G75*
G02*
X31950000Y-97224999I0J-249999D01*
G01*
X31950000Y-97775001D01*
G75*
G02*
X31700001Y-98025000I-249999J0D01*
G01*
X31124999Y-98025000D01*
G75*
G02*
X30875000Y-97775001I0J249999D01*
G01*
G37*
G36*
G01*
X29450000Y-97775001D02*
X29450000Y-97224999D01*
G75*
G02*
X29699999Y-96975000I249999J0D01*
G01*
X30275001Y-96975000D01*
G75*
G02*
X30525000Y-97224999I0J-249999D01*
G01*
X30525000Y-97775001D01*
G75*
G02*
X30275001Y-98025000I-249999J0D01*
G01*
X29699999Y-98025000D01*
G75*
G02*
X29450000Y-97775001I0J249999D01*
G01*
G37*
%TD*%
D17*
%TO.C,R9*%
X43799800Y-76700000D03*
D22*
X44350980Y-76700000D03*
X44848820Y-76700000D03*
D17*
X45400000Y-76700000D03*
X45400000Y-77695680D03*
D22*
X44848820Y-77695680D03*
X44350980Y-77695680D03*
D17*
X43799800Y-77695680D03*
%TD*%
%TO.C,R8*%
X46599900Y-76700000D03*
D22*
X47151080Y-76700000D03*
X47648920Y-76700000D03*
D17*
X48200100Y-76700000D03*
X48200100Y-77695680D03*
D22*
X47648920Y-77695680D03*
X47151080Y-77695680D03*
D17*
X46599900Y-77695680D03*
%TD*%
%TO.C,R7*%
X52199800Y-76404320D03*
D22*
X52750980Y-76404320D03*
X53248820Y-76404320D03*
D17*
X53800000Y-76404320D03*
X53800000Y-77400000D03*
D22*
X53248820Y-77400000D03*
X52750980Y-77400000D03*
D17*
X52199800Y-77400000D03*
%TD*%
%TO.C,R6*%
X55199800Y-76400000D03*
D22*
X55750980Y-76400000D03*
X56248820Y-76400000D03*
D17*
X56800000Y-76400000D03*
X56800000Y-77395680D03*
D22*
X56248820Y-77395680D03*
X55750980Y-77395680D03*
D17*
X55199800Y-77395680D03*
%TD*%
%TO.C,R5*%
G36*
G01*
X47826000Y-38979750D02*
X47826000Y-39492250D01*
G75*
G02*
X47607250Y-39711000I-218750J0D01*
G01*
X47169750Y-39711000D01*
G75*
G02*
X46951000Y-39492250I0J218750D01*
G01*
X46951000Y-38979750D01*
G75*
G02*
X47169750Y-38761000I218750J0D01*
G01*
X47607250Y-38761000D01*
G75*
G02*
X47826000Y-38979750I0J-218750D01*
G01*
G37*
G36*
G01*
X49401000Y-38979750D02*
X49401000Y-39492250D01*
G75*
G02*
X49182250Y-39711000I-218750J0D01*
G01*
X48744750Y-39711000D01*
G75*
G02*
X48526000Y-39492250I0J218750D01*
G01*
X48526000Y-38979750D01*
G75*
G02*
X48744750Y-38761000I218750J0D01*
G01*
X49182250Y-38761000D01*
G75*
G02*
X49401000Y-38979750I0J-218750D01*
G01*
G37*
%TD*%
%TO.C,C4*%
G36*
G01*
X34425001Y-64312500D02*
X33874999Y-64312500D01*
G75*
G02*
X33625000Y-64062501I0J249999D01*
G01*
X33625000Y-63487499D01*
G75*
G02*
X33874999Y-63237500I249999J0D01*
G01*
X34425001Y-63237500D01*
G75*
G02*
X34675000Y-63487499I0J-249999D01*
G01*
X34675000Y-64062501D01*
G75*
G02*
X34425001Y-64312500I-249999J0D01*
G01*
G37*
G36*
G01*
X34425001Y-65737500D02*
X33874999Y-65737500D01*
G75*
G02*
X33625000Y-65487501I0J249999D01*
G01*
X33625000Y-64912499D01*
G75*
G02*
X33874999Y-64662500I249999J0D01*
G01*
X34425001Y-64662500D01*
G75*
G02*
X34675000Y-64912499I0J-249999D01*
G01*
X34675000Y-65487501D01*
G75*
G02*
X34425001Y-65737500I-249999J0D01*
G01*
G37*
%TD*%
D23*
%TO.C,U4*%
X55200000Y-97000000D03*
X49650000Y-92150000D03*
X49650000Y-97000000D03*
X55200000Y-92150000D03*
D24*
X55825000Y-103725000D03*
X54125000Y-103725000D03*
X52425000Y-103725000D03*
X50725000Y-103725000D03*
X49025000Y-103725000D03*
%TD*%
D25*
%TO.C,U3*%
X37200000Y-99050000D03*
X41800000Y-99050000D03*
X39500000Y-99050000D03*
D26*
X39500000Y-92750000D03*
%TD*%
D27*
%TO.C,U2*%
X58322460Y-53877540D03*
X58322460Y-55147540D03*
X58322460Y-56417540D03*
X58322460Y-57687540D03*
X58322460Y-58957540D03*
X58322460Y-60227540D03*
X58322460Y-61497540D03*
X58322460Y-62767540D03*
X58322460Y-64035000D03*
X58322460Y-65305000D03*
X58322460Y-66575000D03*
X58322460Y-67845000D03*
X58322460Y-69115000D03*
X58322460Y-70385000D03*
X58322460Y-71655000D03*
X58322460Y-72925000D03*
X57052460Y-53877540D03*
X57052460Y-55147540D03*
X57052460Y-56417540D03*
X57052460Y-57687540D03*
X57052460Y-58957540D03*
X57052460Y-60227540D03*
X57052460Y-61497540D03*
X57052460Y-62767540D03*
X57052460Y-64035000D03*
X57052460Y-65305000D03*
X57052460Y-66575000D03*
X57052460Y-67845000D03*
X57052460Y-69115000D03*
X57052460Y-70385000D03*
X57052460Y-71655000D03*
X57052460Y-72925000D03*
X55782460Y-53877540D03*
X55782460Y-55147540D03*
X55782460Y-56417540D03*
X55782460Y-57687540D03*
X55782460Y-58957540D03*
X55782460Y-60227540D03*
X55782460Y-61497540D03*
X55782460Y-62767540D03*
X55782460Y-64035000D03*
X55782460Y-65305000D03*
X55782460Y-66575000D03*
X55782460Y-67845000D03*
X55782460Y-69115000D03*
X55782460Y-70385000D03*
X55782460Y-71655000D03*
X55782460Y-72925000D03*
X54512460Y-53877540D03*
X54512460Y-55147540D03*
X54512460Y-56417540D03*
X54512460Y-57687540D03*
X54512460Y-58957540D03*
X54512460Y-60227540D03*
X54512460Y-61497540D03*
X54512460Y-62767540D03*
X54512460Y-64035000D03*
X54512460Y-65305000D03*
X54512460Y-66575000D03*
X54512460Y-67845000D03*
X54512460Y-69115000D03*
X54512460Y-70385000D03*
X54512460Y-71655000D03*
X54512460Y-72925000D03*
X53242460Y-53877540D03*
X53242460Y-55147540D03*
X53242460Y-56417540D03*
X53242460Y-57687540D03*
X53242460Y-58957540D03*
X53242460Y-60227540D03*
X53242460Y-61497540D03*
X53242460Y-62767540D03*
X53242460Y-64035000D03*
X53242460Y-65305000D03*
X53242460Y-66575000D03*
X53242460Y-67845000D03*
X53242460Y-69115000D03*
X53242460Y-70385000D03*
X53242460Y-71655000D03*
X53242460Y-72925000D03*
X51972460Y-53877540D03*
X51972460Y-55147540D03*
X51972460Y-56417540D03*
X51972460Y-57687540D03*
X51972460Y-58957540D03*
X51972460Y-60227540D03*
X51972460Y-61497540D03*
X51972460Y-62767540D03*
X51972460Y-64035000D03*
X51972460Y-65305000D03*
X51972460Y-66575000D03*
X51972460Y-67845000D03*
X51972460Y-69115000D03*
X51972460Y-70385000D03*
X51972460Y-71655000D03*
X51972460Y-72925000D03*
X50702460Y-53877540D03*
X50702460Y-55147540D03*
X50702460Y-56417540D03*
X50702460Y-57687540D03*
X50702460Y-58957540D03*
X50702460Y-60227540D03*
X50702460Y-61497540D03*
X50702460Y-62767540D03*
X50702460Y-64035000D03*
X50702460Y-65305000D03*
X50702460Y-66575000D03*
X50702460Y-67845000D03*
X50702460Y-69115000D03*
X50702460Y-70385000D03*
X50702460Y-71655000D03*
X50702460Y-72925000D03*
X49432460Y-53877540D03*
X49432460Y-55147540D03*
X49432460Y-56417540D03*
X49432460Y-57687540D03*
X49432460Y-58957540D03*
X49432460Y-60227540D03*
X49432460Y-61497540D03*
X49432460Y-62767540D03*
X49432460Y-64035000D03*
X49432460Y-65305000D03*
X49432460Y-66575000D03*
X49432460Y-67845000D03*
X49432460Y-69115000D03*
X49432460Y-70385000D03*
X49432460Y-71655000D03*
X49432460Y-72925000D03*
X48165000Y-53877540D03*
X48165000Y-55147540D03*
X48165000Y-56417540D03*
X48165000Y-57687540D03*
X48165000Y-58957540D03*
X48165000Y-60227540D03*
X48165000Y-61497540D03*
X48165000Y-62767540D03*
X48165000Y-64035000D03*
X48165000Y-65305000D03*
X48165000Y-66575000D03*
X48165000Y-67845000D03*
X48165000Y-69115000D03*
X48165000Y-70385000D03*
X48165000Y-71655000D03*
X48165000Y-72925000D03*
X46895000Y-53877540D03*
X46895000Y-55147540D03*
X46895000Y-56417540D03*
X46895000Y-57687540D03*
X46895000Y-58957540D03*
X46895000Y-60227540D03*
X46895000Y-61497540D03*
X46895000Y-62767540D03*
X46895000Y-64035000D03*
X46895000Y-65305000D03*
X46895000Y-66575000D03*
X46895000Y-67845000D03*
X46895000Y-69115000D03*
X46895000Y-70385000D03*
X46895000Y-71655000D03*
X46895000Y-72925000D03*
X45625000Y-53877540D03*
X45625000Y-55147540D03*
X45625000Y-56417540D03*
X45625000Y-57687540D03*
X45625000Y-58957540D03*
X45625000Y-60227540D03*
X45625000Y-61497540D03*
X45625000Y-62767540D03*
X45625000Y-64035000D03*
X45625000Y-65305000D03*
X45625000Y-66575000D03*
X45625000Y-67845000D03*
X45625000Y-69115000D03*
X45625000Y-70385000D03*
X45625000Y-71655000D03*
X45625000Y-72925000D03*
X44355000Y-53877540D03*
X44355000Y-55147540D03*
X44355000Y-56417540D03*
X44355000Y-57687540D03*
X44355000Y-58957540D03*
X44355000Y-60227540D03*
X44355000Y-61497540D03*
X44355000Y-62767540D03*
X44355000Y-64035000D03*
X44355000Y-65305000D03*
X44355000Y-66575000D03*
X44355000Y-67845000D03*
X44355000Y-69115000D03*
X44355000Y-70385000D03*
X44355000Y-71655000D03*
X44355000Y-72925000D03*
X43085000Y-53877540D03*
X43085000Y-55147540D03*
X43085000Y-56417540D03*
X43085000Y-57687540D03*
X43085000Y-58957540D03*
X43085000Y-60227540D03*
X43085000Y-61497540D03*
X43085000Y-62767540D03*
X43085000Y-64035000D03*
X43085000Y-65305000D03*
X43085000Y-66575000D03*
X43085000Y-67845000D03*
X43085000Y-69115000D03*
X43085000Y-70385000D03*
X43085000Y-71655000D03*
X43085000Y-72925000D03*
X41815000Y-53877540D03*
X41815000Y-55147540D03*
X41815000Y-56417540D03*
X41815000Y-57687540D03*
X41815000Y-58957540D03*
X41815000Y-60227540D03*
X41815000Y-61497540D03*
X41815000Y-62767540D03*
X41815000Y-64035000D03*
X41815000Y-65305000D03*
X41815000Y-66575000D03*
X41815000Y-67845000D03*
X41815000Y-69115000D03*
X41815000Y-70385000D03*
X41815000Y-71655000D03*
X41815000Y-72925000D03*
X40545000Y-53877540D03*
X40545000Y-55147540D03*
X40545000Y-56417540D03*
X40545000Y-57687540D03*
X40545000Y-58957540D03*
X40545000Y-60227540D03*
X40545000Y-61497540D03*
X40545000Y-62767540D03*
X40545000Y-64035000D03*
X40545000Y-65305000D03*
X40545000Y-66575000D03*
X40545000Y-67845000D03*
X40545000Y-69115000D03*
X40545000Y-70385000D03*
X40545000Y-71655000D03*
X40545000Y-72925000D03*
X39275000Y-53877540D03*
X39275000Y-55147540D03*
X39275000Y-56417540D03*
X39275000Y-57687540D03*
X39275000Y-58957540D03*
X39275000Y-60227540D03*
X39275000Y-61497540D03*
X39275000Y-62767540D03*
X39275000Y-64035000D03*
X39275000Y-65305000D03*
X39275000Y-66575000D03*
X39275000Y-67845000D03*
X39275000Y-69115000D03*
X39275000Y-70385000D03*
X39275000Y-71655000D03*
X39275000Y-72925000D03*
%TD*%
D28*
%TO.C,U1*%
X57200000Y-31200000D03*
X55200000Y-32150000D03*
X55200000Y-30250000D03*
%TD*%
%TO.C,R23*%
G36*
G01*
X47781500Y-26743750D02*
X47781500Y-27256250D01*
G75*
G02*
X47562750Y-27475000I-218750J0D01*
G01*
X47125250Y-27475000D01*
G75*
G02*
X46906500Y-27256250I0J218750D01*
G01*
X46906500Y-26743750D01*
G75*
G02*
X47125250Y-26525000I218750J0D01*
G01*
X47562750Y-26525000D01*
G75*
G02*
X47781500Y-26743750I0J-218750D01*
G01*
G37*
G36*
G01*
X49356500Y-26743750D02*
X49356500Y-27256250D01*
G75*
G02*
X49137750Y-27475000I-218750J0D01*
G01*
X48700250Y-27475000D01*
G75*
G02*
X48481500Y-27256250I0J218750D01*
G01*
X48481500Y-26743750D01*
G75*
G02*
X48700250Y-26525000I218750J0D01*
G01*
X49137750Y-26525000D01*
G75*
G02*
X49356500Y-26743750I0J-218750D01*
G01*
G37*
%TD*%
D29*
%TO.C,Q2*%
X44205000Y-31530000D03*
X40505000Y-31530000D03*
%TD*%
%TO.C,C3*%
G36*
G01*
X47934000Y-30884999D02*
X47934000Y-31435001D01*
G75*
G02*
X47684001Y-31685000I-249999J0D01*
G01*
X47108999Y-31685000D01*
G75*
G02*
X46859000Y-31435001I0J249999D01*
G01*
X46859000Y-30884999D01*
G75*
G02*
X47108999Y-30635000I249999J0D01*
G01*
X47684001Y-30635000D01*
G75*
G02*
X47934000Y-30884999I0J-249999D01*
G01*
G37*
G36*
G01*
X49359000Y-30884999D02*
X49359000Y-31435001D01*
G75*
G02*
X49109001Y-31685000I-249999J0D01*
G01*
X48533999Y-31685000D01*
G75*
G02*
X48284000Y-31435001I0J249999D01*
G01*
X48284000Y-30884999D01*
G75*
G02*
X48533999Y-30635000I249999J0D01*
G01*
X49109001Y-30635000D01*
G75*
G02*
X49359000Y-30884999I0J-249999D01*
G01*
G37*
%TD*%
%TO.C,C2*%
G36*
G01*
X47979000Y-34242999D02*
X47979000Y-34793001D01*
G75*
G02*
X47729001Y-35043000I-249999J0D01*
G01*
X47153999Y-35043000D01*
G75*
G02*
X46904000Y-34793001I0J249999D01*
G01*
X46904000Y-34242999D01*
G75*
G02*
X47153999Y-33993000I249999J0D01*
G01*
X47729001Y-33993000D01*
G75*
G02*
X47979000Y-34242999I0J-249999D01*
G01*
G37*
G36*
G01*
X49404000Y-34242999D02*
X49404000Y-34793001D01*
G75*
G02*
X49154001Y-35043000I-249999J0D01*
G01*
X48578999Y-35043000D01*
G75*
G02*
X48329000Y-34793001I0J249999D01*
G01*
X48329000Y-34242999D01*
G75*
G02*
X48578999Y-33993000I249999J0D01*
G01*
X49154001Y-33993000D01*
G75*
G02*
X49404000Y-34242999I0J-249999D01*
G01*
G37*
%TD*%
%TO.C,R3*%
G36*
G01*
X63050000Y-30656250D02*
X63050000Y-30143750D01*
G75*
G02*
X63268750Y-29925000I218750J0D01*
G01*
X63706250Y-29925000D01*
G75*
G02*
X63925000Y-30143750I0J-218750D01*
G01*
X63925000Y-30656250D01*
G75*
G02*
X63706250Y-30875000I-218750J0D01*
G01*
X63268750Y-30875000D01*
G75*
G02*
X63050000Y-30656250I0J218750D01*
G01*
G37*
G36*
G01*
X61475000Y-30656250D02*
X61475000Y-30143750D01*
G75*
G02*
X61693750Y-29925000I218750J0D01*
G01*
X62131250Y-29925000D01*
G75*
G02*
X62350000Y-30143750I0J-218750D01*
G01*
X62350000Y-30656250D01*
G75*
G02*
X62131250Y-30875000I-218750J0D01*
G01*
X61693750Y-30875000D01*
G75*
G02*
X61475000Y-30656250I0J218750D01*
G01*
G37*
%TD*%
%TO.C,R4*%
G36*
G01*
X63030000Y-27236250D02*
X63030000Y-26723750D01*
G75*
G02*
X63248750Y-26505000I218750J0D01*
G01*
X63686250Y-26505000D01*
G75*
G02*
X63905000Y-26723750I0J-218750D01*
G01*
X63905000Y-27236250D01*
G75*
G02*
X63686250Y-27455000I-218750J0D01*
G01*
X63248750Y-27455000D01*
G75*
G02*
X63030000Y-27236250I0J218750D01*
G01*
G37*
G36*
G01*
X61455000Y-27236250D02*
X61455000Y-26723750D01*
G75*
G02*
X61673750Y-26505000I218750J0D01*
G01*
X62111250Y-26505000D01*
G75*
G02*
X62330000Y-26723750I0J-218750D01*
G01*
X62330000Y-27236250D01*
G75*
G02*
X62111250Y-27455000I-218750J0D01*
G01*
X61673750Y-27455000D01*
G75*
G02*
X61455000Y-27236250I0J218750D01*
G01*
G37*
%TD*%
%TO.C,R2*%
G36*
G01*
X62350000Y-33456250D02*
X62350000Y-33968750D01*
G75*
G02*
X62131250Y-34187500I-218750J0D01*
G01*
X61693750Y-34187500D01*
G75*
G02*
X61475000Y-33968750I0J218750D01*
G01*
X61475000Y-33456250D01*
G75*
G02*
X61693750Y-33237500I218750J0D01*
G01*
X62131250Y-33237500D01*
G75*
G02*
X62350000Y-33456250I0J-218750D01*
G01*
G37*
G36*
G01*
X63925000Y-33456250D02*
X63925000Y-33968750D01*
G75*
G02*
X63706250Y-34187500I-218750J0D01*
G01*
X63268750Y-34187500D01*
G75*
G02*
X63050000Y-33968750I0J218750D01*
G01*
X63050000Y-33456250D01*
G75*
G02*
X63268750Y-33237500I218750J0D01*
G01*
X63706250Y-33237500D01*
G75*
G02*
X63925000Y-33456250I0J-218750D01*
G01*
G37*
%TD*%
D28*
%TO.C,Q1*%
X68500000Y-26100000D03*
X66500000Y-27050000D03*
X66500000Y-25150000D03*
%TD*%
%TO.C,R1*%
G36*
G01*
X82171250Y-111892500D02*
X81658750Y-111892500D01*
G75*
G02*
X81440000Y-111673750I0J218750D01*
G01*
X81440000Y-111236250D01*
G75*
G02*
X81658750Y-111017500I218750J0D01*
G01*
X82171250Y-111017500D01*
G75*
G02*
X82390000Y-111236250I0J-218750D01*
G01*
X82390000Y-111673750D01*
G75*
G02*
X82171250Y-111892500I-218750J0D01*
G01*
G37*
G36*
G01*
X82171250Y-113467500D02*
X81658750Y-113467500D01*
G75*
G02*
X81440000Y-113248750I0J218750D01*
G01*
X81440000Y-112811250D01*
G75*
G02*
X81658750Y-112592500I218750J0D01*
G01*
X82171250Y-112592500D01*
G75*
G02*
X82390000Y-112811250I0J-218750D01*
G01*
X82390000Y-113248750D01*
G75*
G02*
X82171250Y-113467500I-218750J0D01*
G01*
G37*
%TD*%
%TO.C,R22*%
G36*
G01*
X70219650Y-34475700D02*
X69707150Y-34475700D01*
G75*
G02*
X69488400Y-34256950I0J218750D01*
G01*
X69488400Y-33819450D01*
G75*
G02*
X69707150Y-33600700I218750J0D01*
G01*
X70219650Y-33600700D01*
G75*
G02*
X70438400Y-33819450I0J-218750D01*
G01*
X70438400Y-34256950D01*
G75*
G02*
X70219650Y-34475700I-218750J0D01*
G01*
G37*
G36*
G01*
X70219650Y-36050700D02*
X69707150Y-36050700D01*
G75*
G02*
X69488400Y-35831950I0J218750D01*
G01*
X69488400Y-35394450D01*
G75*
G02*
X69707150Y-35175700I218750J0D01*
G01*
X70219650Y-35175700D01*
G75*
G02*
X70438400Y-35394450I0J-218750D01*
G01*
X70438400Y-35831950D01*
G75*
G02*
X70219650Y-36050700I-218750J0D01*
G01*
G37*
%TD*%
%TO.C,LED1*%
G36*
G01*
X69718750Y-39025000D02*
X70231250Y-39025000D01*
G75*
G02*
X70450000Y-39243750I0J-218750D01*
G01*
X70450000Y-39681250D01*
G75*
G02*
X70231250Y-39900000I-218750J0D01*
G01*
X69718750Y-39900000D01*
G75*
G02*
X69500000Y-39681250I0J218750D01*
G01*
X69500000Y-39243750D01*
G75*
G02*
X69718750Y-39025000I218750J0D01*
G01*
G37*
G36*
G01*
X69718750Y-37450000D02*
X70231250Y-37450000D01*
G75*
G02*
X70450000Y-37668750I0J-218750D01*
G01*
X70450000Y-38106250D01*
G75*
G02*
X70231250Y-38325000I-218750J0D01*
G01*
X69718750Y-38325000D01*
G75*
G02*
X69500000Y-38106250I0J218750D01*
G01*
X69500000Y-37668750D01*
G75*
G02*
X69718750Y-37450000I218750J0D01*
G01*
G37*
%TD*%
D10*
%TO.C,PWR1*%
X79323280Y-32826720D03*
X79323280Y-36824680D03*
X77824680Y-32826720D03*
X77824680Y-36824680D03*
%TD*%
D30*
%TO.C,D1*%
X53100000Y-117400000D03*
X53100000Y-110600000D03*
%TD*%
D31*
%TO.C,F1*%
X63100000Y-90800000D03*
X63100000Y-95710000D03*
%TD*%
D32*
%TO.C,L1*%
X64800000Y-111050000D03*
X64800000Y-120950000D03*
%TD*%
M02*
