%TF.GenerationSoftware,KiCad,Pcbnew,5.1.6-c6e7f7d~86~ubuntu18.04.1*%
%TF.CreationDate,2020-08-04T21:49:05-03:00*%
%TF.ProjectId,pcbproyecto,70636270-726f-4796-9563-746f2e6b6963,rev?*%
%TF.SameCoordinates,Original*%
%TF.FileFunction,Legend,Top*%
%TF.FilePolarity,Positive*%
%FSLAX46Y46*%
G04 Gerber Fmt 4.6, Leading zero omitted, Abs format (unit mm)*
G04 Created by KiCad (PCBNEW 5.1.6-c6e7f7d~86~ubuntu18.04.1) date 2020-08-04 21:49:05*
%MOMM*%
%LPD*%
G01*
G04 APERTURE LIST*
%ADD10C,0.100000*%
%ADD11C,0.150000*%
%ADD12C,0.120000*%
%ADD13C,0.125000*%
%ADD14C,0.203200*%
%ADD15C,0.254000*%
%ADD16C,0.127000*%
%ADD17C,0.066040*%
%ADD18C,0.101600*%
%ADD19C,0.076200*%
G04 APERTURE END LIST*
D10*
X39500000Y-88704761D02*
X39480952Y-88742857D01*
X39480952Y-88800000D01*
X39500000Y-88857142D01*
X39538095Y-88895238D01*
X39576190Y-88914285D01*
X39652380Y-88933333D01*
X39709523Y-88933333D01*
X39785714Y-88914285D01*
X39823809Y-88895238D01*
X39861904Y-88857142D01*
X39880952Y-88800000D01*
X39880952Y-88761904D01*
X39861904Y-88704761D01*
X39842857Y-88685714D01*
X39709523Y-88685714D01*
X39709523Y-88761904D01*
X39880952Y-88514285D02*
X39480952Y-88514285D01*
X39880952Y-88285714D01*
X39480952Y-88285714D01*
X39880952Y-88095238D02*
X39480952Y-88095238D01*
X39480952Y-88000000D01*
X39500000Y-87942857D01*
X39538095Y-87904761D01*
X39576190Y-87885714D01*
X39652380Y-87866666D01*
X39709523Y-87866666D01*
X39785714Y-87885714D01*
X39823809Y-87904761D01*
X39861904Y-87942857D01*
X39880952Y-88000000D01*
X39880952Y-88095238D01*
X39500000Y-84004761D02*
X39480952Y-84042857D01*
X39480952Y-84100000D01*
X39500000Y-84157142D01*
X39538095Y-84195238D01*
X39576190Y-84214285D01*
X39652380Y-84233333D01*
X39709523Y-84233333D01*
X39785714Y-84214285D01*
X39823809Y-84195238D01*
X39861904Y-84157142D01*
X39880952Y-84100000D01*
X39880952Y-84061904D01*
X39861904Y-84004761D01*
X39842857Y-83985714D01*
X39709523Y-83985714D01*
X39709523Y-84061904D01*
X39880952Y-83814285D02*
X39480952Y-83814285D01*
X39880952Y-83585714D01*
X39480952Y-83585714D01*
X39880952Y-83395238D02*
X39480952Y-83395238D01*
X39480952Y-83300000D01*
X39500000Y-83242857D01*
X39538095Y-83204761D01*
X39576190Y-83185714D01*
X39652380Y-83166666D01*
X39709523Y-83166666D01*
X39785714Y-83185714D01*
X39823809Y-83204761D01*
X39861904Y-83242857D01*
X39880952Y-83300000D01*
X39880952Y-83395238D01*
X37480952Y-84023809D02*
X37804761Y-84023809D01*
X37842857Y-84004761D01*
X37861904Y-83985714D01*
X37880952Y-83947619D01*
X37880952Y-83871428D01*
X37861904Y-83833333D01*
X37842857Y-83814285D01*
X37804761Y-83795238D01*
X37480952Y-83795238D01*
X37766666Y-83623809D02*
X37766666Y-83433333D01*
X37880952Y-83661904D02*
X37480952Y-83528571D01*
X37880952Y-83395238D01*
X37880952Y-83033333D02*
X37690476Y-83166666D01*
X37880952Y-83261904D02*
X37480952Y-83261904D01*
X37480952Y-83109523D01*
X37500000Y-83071428D01*
X37519047Y-83052380D01*
X37557142Y-83033333D01*
X37614285Y-83033333D01*
X37652380Y-83052380D01*
X37671428Y-83071428D01*
X37690476Y-83109523D01*
X37690476Y-83261904D01*
X37480952Y-82919047D02*
X37480952Y-82690476D01*
X37880952Y-82804761D02*
X37480952Y-82804761D01*
X37480952Y-82480952D02*
X37480952Y-82442857D01*
X37500000Y-82404761D01*
X37519047Y-82385714D01*
X37557142Y-82366666D01*
X37633333Y-82347619D01*
X37728571Y-82347619D01*
X37804761Y-82366666D01*
X37842857Y-82385714D01*
X37861904Y-82404761D01*
X37880952Y-82442857D01*
X37880952Y-82480952D01*
X37861904Y-82519047D01*
X37842857Y-82538095D01*
X37804761Y-82557142D01*
X37728571Y-82576190D01*
X37633333Y-82576190D01*
X37557142Y-82557142D01*
X37519047Y-82538095D01*
X37500000Y-82519047D01*
X37480952Y-82480952D01*
X37919047Y-82271428D02*
X37919047Y-81966666D01*
X37480952Y-81928571D02*
X37480952Y-81700000D01*
X37880952Y-81814285D02*
X37480952Y-81814285D01*
X37480952Y-81604761D02*
X37880952Y-81338095D01*
X37480952Y-81338095D02*
X37880952Y-81604761D01*
X36480952Y-84071428D02*
X36804761Y-84071428D01*
X36842857Y-84052380D01*
X36861904Y-84033333D01*
X36880952Y-83995238D01*
X36880952Y-83919047D01*
X36861904Y-83880952D01*
X36842857Y-83861904D01*
X36804761Y-83842857D01*
X36480952Y-83842857D01*
X36766666Y-83671428D02*
X36766666Y-83480952D01*
X36880952Y-83709523D02*
X36480952Y-83576190D01*
X36880952Y-83442857D01*
X36880952Y-83080952D02*
X36690476Y-83214285D01*
X36880952Y-83309523D02*
X36480952Y-83309523D01*
X36480952Y-83157142D01*
X36500000Y-83119047D01*
X36519047Y-83100000D01*
X36557142Y-83080952D01*
X36614285Y-83080952D01*
X36652380Y-83100000D01*
X36671428Y-83119047D01*
X36690476Y-83157142D01*
X36690476Y-83309523D01*
X36480952Y-82966666D02*
X36480952Y-82738095D01*
X36880952Y-82852380D02*
X36480952Y-82852380D01*
X36480952Y-82528571D02*
X36480952Y-82490476D01*
X36500000Y-82452380D01*
X36519047Y-82433333D01*
X36557142Y-82414285D01*
X36633333Y-82395238D01*
X36728571Y-82395238D01*
X36804761Y-82414285D01*
X36842857Y-82433333D01*
X36861904Y-82452380D01*
X36880952Y-82490476D01*
X36880952Y-82528571D01*
X36861904Y-82566666D01*
X36842857Y-82585714D01*
X36804761Y-82604761D01*
X36728571Y-82623809D01*
X36633333Y-82623809D01*
X36557142Y-82604761D01*
X36519047Y-82585714D01*
X36500000Y-82566666D01*
X36480952Y-82528571D01*
X36919047Y-82319047D02*
X36919047Y-82014285D01*
X36880952Y-81690476D02*
X36690476Y-81823809D01*
X36880952Y-81919047D02*
X36480952Y-81919047D01*
X36480952Y-81766666D01*
X36500000Y-81728571D01*
X36519047Y-81709523D01*
X36557142Y-81690476D01*
X36614285Y-81690476D01*
X36652380Y-81709523D01*
X36671428Y-81728571D01*
X36690476Y-81766666D01*
X36690476Y-81919047D01*
X36480952Y-81557142D02*
X36880952Y-81290476D01*
X36480952Y-81290476D02*
X36880952Y-81557142D01*
X35861904Y-84042857D02*
X35880952Y-83985714D01*
X35880952Y-83890476D01*
X35861904Y-83852380D01*
X35842857Y-83833333D01*
X35804761Y-83814285D01*
X35766666Y-83814285D01*
X35728571Y-83833333D01*
X35709523Y-83852380D01*
X35690476Y-83890476D01*
X35671428Y-83966666D01*
X35652380Y-84004761D01*
X35633333Y-84023809D01*
X35595238Y-84042857D01*
X35557142Y-84042857D01*
X35519047Y-84023809D01*
X35500000Y-84004761D01*
X35480952Y-83966666D01*
X35480952Y-83871428D01*
X35500000Y-83814285D01*
X35880952Y-83642857D02*
X35480952Y-83642857D01*
X35480952Y-83490476D01*
X35500000Y-83452380D01*
X35519047Y-83433333D01*
X35557142Y-83414285D01*
X35614285Y-83414285D01*
X35652380Y-83433333D01*
X35671428Y-83452380D01*
X35690476Y-83490476D01*
X35690476Y-83642857D01*
X35880952Y-83242857D02*
X35480952Y-83242857D01*
X35480952Y-82976190D02*
X35480952Y-82938095D01*
X35500000Y-82900000D01*
X35519047Y-82880952D01*
X35557142Y-82861904D01*
X35633333Y-82842857D01*
X35728571Y-82842857D01*
X35804761Y-82861904D01*
X35842857Y-82880952D01*
X35861904Y-82900000D01*
X35880952Y-82938095D01*
X35880952Y-82976190D01*
X35861904Y-83014285D01*
X35842857Y-83033333D01*
X35804761Y-83052380D01*
X35728571Y-83071428D01*
X35633333Y-83071428D01*
X35557142Y-83052380D01*
X35519047Y-83033333D01*
X35500000Y-83014285D01*
X35480952Y-82976190D01*
X35919047Y-82766666D02*
X35919047Y-82461904D01*
X35880952Y-82366666D02*
X35480952Y-82366666D01*
X35480952Y-82271428D01*
X35500000Y-82214285D01*
X35538095Y-82176190D01*
X35576190Y-82157142D01*
X35652380Y-82138095D01*
X35709523Y-82138095D01*
X35785714Y-82157142D01*
X35823809Y-82176190D01*
X35861904Y-82214285D01*
X35880952Y-82271428D01*
X35880952Y-82366666D01*
X35480952Y-81890476D02*
X35480952Y-81852380D01*
X35500000Y-81814285D01*
X35519047Y-81795238D01*
X35557142Y-81776190D01*
X35633333Y-81757142D01*
X35728571Y-81757142D01*
X35804761Y-81776190D01*
X35842857Y-81795238D01*
X35861904Y-81814285D01*
X35880952Y-81852380D01*
X35880952Y-81890476D01*
X35861904Y-81928571D01*
X35842857Y-81947619D01*
X35804761Y-81966666D01*
X35728571Y-81985714D01*
X35633333Y-81985714D01*
X35557142Y-81966666D01*
X35519047Y-81947619D01*
X35500000Y-81928571D01*
X35480952Y-81890476D01*
X34961904Y-84104761D02*
X34980952Y-84047619D01*
X34980952Y-83952380D01*
X34961904Y-83914285D01*
X34942857Y-83895238D01*
X34904761Y-83876190D01*
X34866666Y-83876190D01*
X34828571Y-83895238D01*
X34809523Y-83914285D01*
X34790476Y-83952380D01*
X34771428Y-84028571D01*
X34752380Y-84066666D01*
X34733333Y-84085714D01*
X34695238Y-84104761D01*
X34657142Y-84104761D01*
X34619047Y-84085714D01*
X34600000Y-84066666D01*
X34580952Y-84028571D01*
X34580952Y-83933333D01*
X34600000Y-83876190D01*
X34980952Y-83704761D02*
X34580952Y-83704761D01*
X34580952Y-83552380D01*
X34600000Y-83514285D01*
X34619047Y-83495238D01*
X34657142Y-83476190D01*
X34714285Y-83476190D01*
X34752380Y-83495238D01*
X34771428Y-83514285D01*
X34790476Y-83552380D01*
X34790476Y-83704761D01*
X34980952Y-83304761D02*
X34580952Y-83304761D01*
X34580952Y-83038095D02*
X34580952Y-83000000D01*
X34600000Y-82961904D01*
X34619047Y-82942857D01*
X34657142Y-82923809D01*
X34733333Y-82904761D01*
X34828571Y-82904761D01*
X34904761Y-82923809D01*
X34942857Y-82942857D01*
X34961904Y-82961904D01*
X34980952Y-83000000D01*
X34980952Y-83038095D01*
X34961904Y-83076190D01*
X34942857Y-83095238D01*
X34904761Y-83114285D01*
X34828571Y-83133333D01*
X34733333Y-83133333D01*
X34657142Y-83114285D01*
X34619047Y-83095238D01*
X34600000Y-83076190D01*
X34580952Y-83038095D01*
X35019047Y-82828571D02*
X35019047Y-82523809D01*
X34961904Y-82447619D02*
X34980952Y-82390476D01*
X34980952Y-82295238D01*
X34961904Y-82257142D01*
X34942857Y-82238095D01*
X34904761Y-82219047D01*
X34866666Y-82219047D01*
X34828571Y-82238095D01*
X34809523Y-82257142D01*
X34790476Y-82295238D01*
X34771428Y-82371428D01*
X34752380Y-82409523D01*
X34733333Y-82428571D01*
X34695238Y-82447619D01*
X34657142Y-82447619D01*
X34619047Y-82428571D01*
X34600000Y-82409523D01*
X34580952Y-82371428D01*
X34580952Y-82276190D01*
X34600000Y-82219047D01*
X34942857Y-81819047D02*
X34961904Y-81838095D01*
X34980952Y-81895238D01*
X34980952Y-81933333D01*
X34961904Y-81990476D01*
X34923809Y-82028571D01*
X34885714Y-82047619D01*
X34809523Y-82066666D01*
X34752380Y-82066666D01*
X34676190Y-82047619D01*
X34638095Y-82028571D01*
X34600000Y-81990476D01*
X34580952Y-81933333D01*
X34580952Y-81895238D01*
X34600000Y-81838095D01*
X34619047Y-81819047D01*
X34980952Y-81457142D02*
X34980952Y-81647619D01*
X34580952Y-81647619D01*
X34980952Y-81323809D02*
X34580952Y-81323809D01*
X34980952Y-81095238D02*
X34752380Y-81266666D01*
X34580952Y-81095238D02*
X34809523Y-81323809D01*
X33961904Y-84042857D02*
X33980952Y-83985714D01*
X33980952Y-83890476D01*
X33961904Y-83852380D01*
X33942857Y-83833333D01*
X33904761Y-83814285D01*
X33866666Y-83814285D01*
X33828571Y-83833333D01*
X33809523Y-83852380D01*
X33790476Y-83890476D01*
X33771428Y-83966666D01*
X33752380Y-84004761D01*
X33733333Y-84023809D01*
X33695238Y-84042857D01*
X33657142Y-84042857D01*
X33619047Y-84023809D01*
X33600000Y-84004761D01*
X33580952Y-83966666D01*
X33580952Y-83871428D01*
X33600000Y-83814285D01*
X33980952Y-83642857D02*
X33580952Y-83642857D01*
X33580952Y-83490476D01*
X33600000Y-83452380D01*
X33619047Y-83433333D01*
X33657142Y-83414285D01*
X33714285Y-83414285D01*
X33752380Y-83433333D01*
X33771428Y-83452380D01*
X33790476Y-83490476D01*
X33790476Y-83642857D01*
X33980952Y-83242857D02*
X33580952Y-83242857D01*
X33580952Y-82976190D02*
X33580952Y-82938095D01*
X33600000Y-82900000D01*
X33619047Y-82880952D01*
X33657142Y-82861904D01*
X33733333Y-82842857D01*
X33828571Y-82842857D01*
X33904761Y-82861904D01*
X33942857Y-82880952D01*
X33961904Y-82900000D01*
X33980952Y-82938095D01*
X33980952Y-82976190D01*
X33961904Y-83014285D01*
X33942857Y-83033333D01*
X33904761Y-83052380D01*
X33828571Y-83071428D01*
X33733333Y-83071428D01*
X33657142Y-83052380D01*
X33619047Y-83033333D01*
X33600000Y-83014285D01*
X33580952Y-82976190D01*
X34019047Y-82766666D02*
X34019047Y-82461904D01*
X33980952Y-82366666D02*
X33580952Y-82366666D01*
X33580952Y-82271428D01*
X33600000Y-82214285D01*
X33638095Y-82176190D01*
X33676190Y-82157142D01*
X33752380Y-82138095D01*
X33809523Y-82138095D01*
X33885714Y-82157142D01*
X33923809Y-82176190D01*
X33961904Y-82214285D01*
X33980952Y-82271428D01*
X33980952Y-82366666D01*
X33980952Y-81757142D02*
X33980952Y-81985714D01*
X33980952Y-81871428D02*
X33580952Y-81871428D01*
X33638095Y-81909523D01*
X33676190Y-81947619D01*
X33695238Y-81985714D01*
X32961904Y-84033333D02*
X32980952Y-83976190D01*
X32980952Y-83880952D01*
X32961904Y-83842857D01*
X32942857Y-83823809D01*
X32904761Y-83804761D01*
X32866666Y-83804761D01*
X32828571Y-83823809D01*
X32809523Y-83842857D01*
X32790476Y-83880952D01*
X32771428Y-83957142D01*
X32752380Y-83995238D01*
X32733333Y-84014285D01*
X32695238Y-84033333D01*
X32657142Y-84033333D01*
X32619047Y-84014285D01*
X32600000Y-83995238D01*
X32580952Y-83957142D01*
X32580952Y-83861904D01*
X32600000Y-83804761D01*
X32980952Y-83633333D02*
X32580952Y-83633333D01*
X32580952Y-83480952D01*
X32600000Y-83442857D01*
X32619047Y-83423809D01*
X32657142Y-83404761D01*
X32714285Y-83404761D01*
X32752380Y-83423809D01*
X32771428Y-83442857D01*
X32790476Y-83480952D01*
X32790476Y-83633333D01*
X32980952Y-83233333D02*
X32580952Y-83233333D01*
X32580952Y-82966666D02*
X32580952Y-82928571D01*
X32600000Y-82890476D01*
X32619047Y-82871428D01*
X32657142Y-82852380D01*
X32733333Y-82833333D01*
X32828571Y-82833333D01*
X32904761Y-82852380D01*
X32942857Y-82871428D01*
X32961904Y-82890476D01*
X32980952Y-82928571D01*
X32980952Y-82966666D01*
X32961904Y-83004761D01*
X32942857Y-83023809D01*
X32904761Y-83042857D01*
X32828571Y-83061904D01*
X32733333Y-83061904D01*
X32657142Y-83042857D01*
X32619047Y-83023809D01*
X32600000Y-83004761D01*
X32580952Y-82966666D01*
X33019047Y-82757142D02*
X33019047Y-82452380D01*
X32942857Y-82128571D02*
X32961904Y-82147619D01*
X32980952Y-82204761D01*
X32980952Y-82242857D01*
X32961904Y-82300000D01*
X32923809Y-82338095D01*
X32885714Y-82357142D01*
X32809523Y-82376190D01*
X32752380Y-82376190D01*
X32676190Y-82357142D01*
X32638095Y-82338095D01*
X32600000Y-82300000D01*
X32580952Y-82242857D01*
X32580952Y-82204761D01*
X32600000Y-82147619D01*
X32619047Y-82128571D01*
X32961904Y-81976190D02*
X32980952Y-81919047D01*
X32980952Y-81823809D01*
X32961904Y-81785714D01*
X32942857Y-81766666D01*
X32904761Y-81747619D01*
X32866666Y-81747619D01*
X32828571Y-81766666D01*
X32809523Y-81785714D01*
X32790476Y-81823809D01*
X32771428Y-81900000D01*
X32752380Y-81938095D01*
X32733333Y-81957142D01*
X32695238Y-81976190D01*
X32657142Y-81976190D01*
X32619047Y-81957142D01*
X32600000Y-81938095D01*
X32580952Y-81900000D01*
X32580952Y-81804761D01*
X32600000Y-81747619D01*
X32580952Y-81500000D02*
X32580952Y-81461904D01*
X32600000Y-81423809D01*
X32619047Y-81404761D01*
X32657142Y-81385714D01*
X32733333Y-81366666D01*
X32828571Y-81366666D01*
X32904761Y-81385714D01*
X32942857Y-81404761D01*
X32961904Y-81423809D01*
X32980952Y-81461904D01*
X32980952Y-81500000D01*
X32961904Y-81538095D01*
X32942857Y-81557142D01*
X32904761Y-81576190D01*
X32828571Y-81595238D01*
X32733333Y-81595238D01*
X32657142Y-81576190D01*
X32619047Y-81557142D01*
X32600000Y-81538095D01*
X32580952Y-81500000D01*
X38680952Y-88895238D02*
X38680952Y-88647619D01*
X38833333Y-88780952D01*
X38833333Y-88723809D01*
X38852380Y-88685714D01*
X38871428Y-88666666D01*
X38909523Y-88647619D01*
X39004761Y-88647619D01*
X39042857Y-88666666D01*
X39061904Y-88685714D01*
X39080952Y-88723809D01*
X39080952Y-88838095D01*
X39061904Y-88876190D01*
X39042857Y-88895238D01*
X38680952Y-88533333D02*
X39080952Y-88400000D01*
X38680952Y-88266666D01*
X38680952Y-88171428D02*
X38680952Y-87923809D01*
X38833333Y-88057142D01*
X38833333Y-88000000D01*
X38852380Y-87961904D01*
X38871428Y-87942857D01*
X38909523Y-87923809D01*
X39004761Y-87923809D01*
X39042857Y-87942857D01*
X39061904Y-87961904D01*
X39080952Y-88000000D01*
X39080952Y-88114285D01*
X39061904Y-88152380D01*
X39042857Y-88171428D01*
X33580952Y-88276190D02*
X33580952Y-88466666D01*
X33771428Y-88485714D01*
X33752380Y-88466666D01*
X33733333Y-88428571D01*
X33733333Y-88333333D01*
X33752380Y-88295238D01*
X33771428Y-88276190D01*
X33809523Y-88257142D01*
X33904761Y-88257142D01*
X33942857Y-88276190D01*
X33961904Y-88295238D01*
X33980952Y-88333333D01*
X33980952Y-88428571D01*
X33961904Y-88466666D01*
X33942857Y-88485714D01*
X33580952Y-88142857D02*
X33980952Y-88009523D01*
X33580952Y-87876190D01*
D11*
X24190476Y-92452380D02*
X24190476Y-91452380D01*
X24571428Y-91452380D01*
X24666666Y-91500000D01*
X24714285Y-91547619D01*
X24761904Y-91642857D01*
X24761904Y-91785714D01*
X24714285Y-91880952D01*
X24666666Y-91928571D01*
X24571428Y-91976190D01*
X24190476Y-91976190D01*
X25333333Y-92452380D02*
X25238095Y-92404761D01*
X25190476Y-92357142D01*
X25142857Y-92261904D01*
X25142857Y-91976190D01*
X25190476Y-91880952D01*
X25238095Y-91833333D01*
X25333333Y-91785714D01*
X25476190Y-91785714D01*
X25571428Y-91833333D01*
X25619047Y-91880952D01*
X25666666Y-91976190D01*
X25666666Y-92261904D01*
X25619047Y-92357142D01*
X25571428Y-92404761D01*
X25476190Y-92452380D01*
X25333333Y-92452380D01*
X26000000Y-91785714D02*
X26190476Y-92452380D01*
X26380952Y-91976190D01*
X26571428Y-92452380D01*
X26761904Y-91785714D01*
X27523809Y-92404761D02*
X27428571Y-92452380D01*
X27238095Y-92452380D01*
X27142857Y-92404761D01*
X27095238Y-92309523D01*
X27095238Y-91928571D01*
X27142857Y-91833333D01*
X27238095Y-91785714D01*
X27428571Y-91785714D01*
X27523809Y-91833333D01*
X27571428Y-91928571D01*
X27571428Y-92023809D01*
X27095238Y-92119047D01*
X28000000Y-92452380D02*
X28000000Y-91785714D01*
X28000000Y-91976190D02*
X28047619Y-91880952D01*
X28095238Y-91833333D01*
X28190476Y-91785714D01*
X28285714Y-91785714D01*
X29952380Y-92357142D02*
X29904761Y-92404761D01*
X29761904Y-92452380D01*
X29666666Y-92452380D01*
X29523809Y-92404761D01*
X29428571Y-92309523D01*
X29380952Y-92214285D01*
X29333333Y-92023809D01*
X29333333Y-91880952D01*
X29380952Y-91690476D01*
X29428571Y-91595238D01*
X29523809Y-91500000D01*
X29666666Y-91452380D01*
X29761904Y-91452380D01*
X29904761Y-91500000D01*
X29952380Y-91547619D01*
X30380952Y-92452380D02*
X30380952Y-91785714D01*
X30380952Y-91452380D02*
X30333333Y-91500000D01*
X30380952Y-91547619D01*
X30428571Y-91500000D01*
X30380952Y-91452380D01*
X30380952Y-91547619D01*
X30857142Y-92452380D02*
X30857142Y-91785714D01*
X30857142Y-91976190D02*
X30904761Y-91880952D01*
X30952380Y-91833333D01*
X31047619Y-91785714D01*
X31142857Y-91785714D01*
X31904761Y-92404761D02*
X31809523Y-92452380D01*
X31619047Y-92452380D01*
X31523809Y-92404761D01*
X31476190Y-92357142D01*
X31428571Y-92261904D01*
X31428571Y-91976190D01*
X31476190Y-91880952D01*
X31523809Y-91833333D01*
X31619047Y-91785714D01*
X31809523Y-91785714D01*
X31904761Y-91833333D01*
X32761904Y-91785714D02*
X32761904Y-92452380D01*
X32333333Y-91785714D02*
X32333333Y-92309523D01*
X32380952Y-92404761D01*
X32476190Y-92452380D01*
X32619047Y-92452380D01*
X32714285Y-92404761D01*
X32761904Y-92357142D01*
X33238095Y-92452380D02*
X33238095Y-91785714D01*
X33238095Y-91452380D02*
X33190476Y-91500000D01*
X33238095Y-91547619D01*
X33285714Y-91500000D01*
X33238095Y-91452380D01*
X33238095Y-91547619D01*
X33571428Y-91785714D02*
X33952380Y-91785714D01*
X33714285Y-91452380D02*
X33714285Y-92309523D01*
X33761904Y-92404761D01*
X33857142Y-92452380D01*
X33952380Y-92452380D01*
D12*
X73000000Y-86000000D02*
X73000000Y-106000000D01*
X43000000Y-86000000D02*
X73000000Y-86000000D01*
X39000000Y-90000000D02*
X43000000Y-86000000D01*
X23000000Y-90000000D02*
X39000000Y-90000000D01*
X23000000Y-106000000D02*
X23000000Y-90000000D01*
X83460000Y-30350000D02*
X83470000Y-39510000D01*
X71910000Y-30350000D02*
X83460000Y-30350000D01*
X65810000Y-35250000D02*
X65810000Y-31830000D01*
X51190000Y-35210000D02*
X65810000Y-35250000D01*
X51190000Y-32210000D02*
X51190000Y-35210000D01*
D13*
X39280952Y-36678571D02*
X39257142Y-36702380D01*
X39185714Y-36726190D01*
X39138095Y-36726190D01*
X39066666Y-36702380D01*
X39019047Y-36654761D01*
X38995238Y-36607142D01*
X38971428Y-36511904D01*
X38971428Y-36440476D01*
X38995238Y-36345238D01*
X39019047Y-36297619D01*
X39066666Y-36250000D01*
X39138095Y-36226190D01*
X39185714Y-36226190D01*
X39257142Y-36250000D01*
X39280952Y-36273809D01*
X39566666Y-36726190D02*
X39519047Y-36702380D01*
X39495238Y-36654761D01*
X39495238Y-36226190D01*
X39828571Y-36726190D02*
X39780952Y-36702380D01*
X39757142Y-36678571D01*
X39733333Y-36630952D01*
X39733333Y-36488095D01*
X39757142Y-36440476D01*
X39780952Y-36416666D01*
X39828571Y-36392857D01*
X39900000Y-36392857D01*
X39947619Y-36416666D01*
X39971428Y-36440476D01*
X39995238Y-36488095D01*
X39995238Y-36630952D01*
X39971428Y-36678571D01*
X39947619Y-36702380D01*
X39900000Y-36726190D01*
X39828571Y-36726190D01*
X40423809Y-36702380D02*
X40376190Y-36726190D01*
X40280952Y-36726190D01*
X40233333Y-36702380D01*
X40209523Y-36678571D01*
X40185714Y-36630952D01*
X40185714Y-36488095D01*
X40209523Y-36440476D01*
X40233333Y-36416666D01*
X40280952Y-36392857D01*
X40376190Y-36392857D01*
X40423809Y-36416666D01*
X40638095Y-36726190D02*
X40638095Y-36226190D01*
X40685714Y-36535714D02*
X40828571Y-36726190D01*
X40828571Y-36392857D02*
X40638095Y-36583333D01*
D11*
X40407023Y-119802380D02*
X40073690Y-119326190D01*
X39835595Y-119802380D02*
X39835595Y-118802380D01*
X40216547Y-118802380D01*
X40311785Y-118850000D01*
X40359404Y-118897619D01*
X40407023Y-118992857D01*
X40407023Y-119135714D01*
X40359404Y-119230952D01*
X40311785Y-119278571D01*
X40216547Y-119326190D01*
X39835595Y-119326190D01*
X41216547Y-119754761D02*
X41121309Y-119802380D01*
X40930833Y-119802380D01*
X40835595Y-119754761D01*
X40787976Y-119659523D01*
X40787976Y-119278571D01*
X40835595Y-119183333D01*
X40930833Y-119135714D01*
X41121309Y-119135714D01*
X41216547Y-119183333D01*
X41264166Y-119278571D01*
X41264166Y-119373809D01*
X40787976Y-119469047D01*
X41597500Y-119135714D02*
X41835595Y-119802380D01*
X42073690Y-119135714D01*
X43740357Y-119802380D02*
X43168928Y-119802380D01*
X43454642Y-119802380D02*
X43454642Y-118802380D01*
X43359404Y-118945238D01*
X43264166Y-119040476D01*
X43168928Y-119088095D01*
X39787976Y-121166666D02*
X40264166Y-121166666D01*
X39692738Y-121452380D02*
X40026071Y-120452380D01*
X40359404Y-121452380D01*
X40835595Y-121452380D02*
X40740357Y-121404761D01*
X40692738Y-121309523D01*
X40692738Y-120452380D01*
X41597500Y-121404761D02*
X41502261Y-121452380D01*
X41311785Y-121452380D01*
X41216547Y-121404761D01*
X41168928Y-121309523D01*
X41168928Y-120928571D01*
X41216547Y-120833333D01*
X41311785Y-120785714D01*
X41502261Y-120785714D01*
X41597500Y-120833333D01*
X41645119Y-120928571D01*
X41645119Y-121023809D01*
X41168928Y-121119047D01*
X42026071Y-121404761D02*
X42121309Y-121452380D01*
X42311785Y-121452380D01*
X42407023Y-121404761D01*
X42454642Y-121309523D01*
X42454642Y-121261904D01*
X42407023Y-121166666D01*
X42311785Y-121119047D01*
X42168928Y-121119047D01*
X42073690Y-121071428D01*
X42026071Y-120976190D01*
X42026071Y-120928571D01*
X42073690Y-120833333D01*
X42168928Y-120785714D01*
X42311785Y-120785714D01*
X42407023Y-120833333D01*
X42835595Y-121404761D02*
X42930833Y-121452380D01*
X43121309Y-121452380D01*
X43216547Y-121404761D01*
X43264166Y-121309523D01*
X43264166Y-121261904D01*
X43216547Y-121166666D01*
X43121309Y-121119047D01*
X42978452Y-121119047D01*
X42883214Y-121071428D01*
X42835595Y-120976190D01*
X42835595Y-120928571D01*
X42883214Y-120833333D01*
X42978452Y-120785714D01*
X43121309Y-120785714D01*
X43216547Y-120833333D01*
X44121309Y-121452380D02*
X44121309Y-120928571D01*
X44073690Y-120833333D01*
X43978452Y-120785714D01*
X43787976Y-120785714D01*
X43692738Y-120833333D01*
X44121309Y-121404761D02*
X44026071Y-121452380D01*
X43787976Y-121452380D01*
X43692738Y-121404761D01*
X43645119Y-121309523D01*
X43645119Y-121214285D01*
X43692738Y-121119047D01*
X43787976Y-121071428D01*
X44026071Y-121071428D01*
X44121309Y-121023809D01*
X44597500Y-120785714D02*
X44597500Y-121452380D01*
X44597500Y-120880952D02*
X44645119Y-120833333D01*
X44740357Y-120785714D01*
X44883214Y-120785714D01*
X44978452Y-120833333D01*
X45026071Y-120928571D01*
X45026071Y-121452380D01*
X45930833Y-121452380D02*
X45930833Y-120452380D01*
X45930833Y-121404761D02*
X45835595Y-121452380D01*
X45645119Y-121452380D01*
X45549880Y-121404761D01*
X45502261Y-121357142D01*
X45454642Y-121261904D01*
X45454642Y-120976190D01*
X45502261Y-120880952D01*
X45549880Y-120833333D01*
X45645119Y-120785714D01*
X45835595Y-120785714D01*
X45930833Y-120833333D01*
X46407023Y-121452380D02*
X46407023Y-120785714D01*
X46407023Y-120976190D02*
X46454642Y-120880952D01*
X46502261Y-120833333D01*
X46597500Y-120785714D01*
X46692738Y-120785714D01*
X47168928Y-121452380D02*
X47073690Y-121404761D01*
X47026071Y-121357142D01*
X46978452Y-121261904D01*
X46978452Y-120976190D01*
X47026071Y-120880952D01*
X47073690Y-120833333D01*
X47168928Y-120785714D01*
X47311785Y-120785714D01*
X47407023Y-120833333D01*
X47454642Y-120880952D01*
X47502261Y-120976190D01*
X47502261Y-121261904D01*
X47454642Y-121357142D01*
X47407023Y-121404761D01*
X47311785Y-121452380D01*
X47168928Y-121452380D01*
X49216547Y-120500000D02*
X49121309Y-120452380D01*
X48978452Y-120452380D01*
X48835595Y-120500000D01*
X48740357Y-120595238D01*
X48692738Y-120690476D01*
X48645119Y-120880952D01*
X48645119Y-121023809D01*
X48692738Y-121214285D01*
X48740357Y-121309523D01*
X48835595Y-121404761D01*
X48978452Y-121452380D01*
X49073690Y-121452380D01*
X49216547Y-121404761D01*
X49264166Y-121357142D01*
X49264166Y-121023809D01*
X49073690Y-121023809D01*
X49692738Y-121452380D02*
X49692738Y-120452380D01*
X50121309Y-121452380D02*
X50121309Y-120928571D01*
X50073690Y-120833333D01*
X49978452Y-120785714D01*
X49835595Y-120785714D01*
X49740357Y-120833333D01*
X49692738Y-120880952D01*
X50978452Y-121404761D02*
X50883214Y-121452380D01*
X50692738Y-121452380D01*
X50597500Y-121404761D01*
X50549880Y-121309523D01*
X50549880Y-120928571D01*
X50597500Y-120833333D01*
X50692738Y-120785714D01*
X50883214Y-120785714D01*
X50978452Y-120833333D01*
X51026071Y-120928571D01*
X51026071Y-121023809D01*
X50549880Y-121119047D01*
X51359404Y-120785714D02*
X51883214Y-120785714D01*
X51359404Y-121452380D01*
X51883214Y-121452380D01*
X52168928Y-120785714D02*
X52692738Y-120785714D01*
X52168928Y-121452380D01*
X52692738Y-121452380D01*
X53216547Y-121452380D02*
X53121309Y-121404761D01*
X53073690Y-121357142D01*
X53026071Y-121261904D01*
X53026071Y-120976190D01*
X53073690Y-120880952D01*
X53121309Y-120833333D01*
X53216547Y-120785714D01*
X53359404Y-120785714D01*
X53454642Y-120833333D01*
X53502261Y-120880952D01*
X53549880Y-120976190D01*
X53549880Y-121261904D01*
X53502261Y-121357142D01*
X53454642Y-121404761D01*
X53359404Y-121452380D01*
X53216547Y-121452380D01*
X39835595Y-122102380D02*
X39835595Y-122911904D01*
X39883214Y-123007142D01*
X39930833Y-123054761D01*
X40026071Y-123102380D01*
X40216547Y-123102380D01*
X40311785Y-123054761D01*
X40359404Y-123007142D01*
X40407023Y-122911904D01*
X40407023Y-122102380D01*
X40740357Y-122102380D02*
X41311785Y-122102380D01*
X41026071Y-123102380D02*
X41026071Y-122102380D01*
X41645119Y-123102380D02*
X41645119Y-122102380D01*
X42216547Y-123102380D01*
X42216547Y-122102380D01*
X43787976Y-122578571D02*
X43454642Y-122578571D01*
X43454642Y-123102380D02*
X43454642Y-122102380D01*
X43930833Y-122102380D01*
X44883214Y-123102380D02*
X44549880Y-122626190D01*
X44311785Y-123102380D02*
X44311785Y-122102380D01*
X44692738Y-122102380D01*
X44787976Y-122150000D01*
X44835595Y-122197619D01*
X44883214Y-122292857D01*
X44883214Y-122435714D01*
X44835595Y-122530952D01*
X44787976Y-122578571D01*
X44692738Y-122626190D01*
X44311785Y-122626190D01*
X45645119Y-122578571D02*
X45787976Y-122626190D01*
X45835595Y-122673809D01*
X45883214Y-122769047D01*
X45883214Y-122911904D01*
X45835595Y-123007142D01*
X45787976Y-123054761D01*
X45692738Y-123102380D01*
X45311785Y-123102380D01*
X45311785Y-122102380D01*
X45645119Y-122102380D01*
X45740357Y-122150000D01*
X45787976Y-122197619D01*
X45835595Y-122292857D01*
X45835595Y-122388095D01*
X45787976Y-122483333D01*
X45740357Y-122530952D01*
X45645119Y-122578571D01*
X45311785Y-122578571D01*
X46264166Y-122816666D02*
X46740357Y-122816666D01*
X46168928Y-123102380D02*
X46502261Y-122102380D01*
X46835595Y-123102380D01*
X47930833Y-122721428D02*
X48692738Y-122721428D01*
X49787976Y-122102380D02*
X50359404Y-122102380D01*
X50073690Y-123102380D02*
X50073690Y-122102380D01*
X50692738Y-123102380D02*
X50692738Y-122102380D01*
X50930833Y-122102380D01*
X51073690Y-122150000D01*
X51168928Y-122245238D01*
X51216547Y-122340476D01*
X51264166Y-122530952D01*
X51264166Y-122673809D01*
X51216547Y-122864285D01*
X51168928Y-122959523D01*
X51073690Y-123054761D01*
X50930833Y-123102380D01*
X50692738Y-123102380D01*
X52407023Y-122197619D02*
X52454642Y-122150000D01*
X52549880Y-122102380D01*
X52787976Y-122102380D01*
X52883214Y-122150000D01*
X52930833Y-122197619D01*
X52978452Y-122292857D01*
X52978452Y-122388095D01*
X52930833Y-122530952D01*
X52359404Y-123102380D01*
X52978452Y-123102380D01*
D12*
X38524000Y-37204000D02*
X38524000Y-32378000D01*
X49954000Y-37204000D02*
X38524000Y-37204000D01*
X49954000Y-32378000D02*
X49954000Y-37204000D01*
D13*
X51942857Y-34526190D02*
X51942857Y-34026190D01*
X52133333Y-34026190D01*
X52180952Y-34050000D01*
X52204761Y-34073809D01*
X52228571Y-34121428D01*
X52228571Y-34192857D01*
X52204761Y-34240476D01*
X52180952Y-34264285D01*
X52133333Y-34288095D01*
X51942857Y-34288095D01*
X52514285Y-34526190D02*
X52466666Y-34502380D01*
X52442857Y-34478571D01*
X52419047Y-34430952D01*
X52419047Y-34288095D01*
X52442857Y-34240476D01*
X52466666Y-34216666D01*
X52514285Y-34192857D01*
X52585714Y-34192857D01*
X52633333Y-34216666D01*
X52657142Y-34240476D01*
X52680952Y-34288095D01*
X52680952Y-34430952D01*
X52657142Y-34478571D01*
X52633333Y-34502380D01*
X52585714Y-34526190D01*
X52514285Y-34526190D01*
X52847619Y-34192857D02*
X52942857Y-34526190D01*
X53038095Y-34288095D01*
X53133333Y-34526190D01*
X53228571Y-34192857D01*
X53609523Y-34502380D02*
X53561904Y-34526190D01*
X53466666Y-34526190D01*
X53419047Y-34502380D01*
X53395238Y-34454761D01*
X53395238Y-34264285D01*
X53419047Y-34216666D01*
X53466666Y-34192857D01*
X53561904Y-34192857D01*
X53609523Y-34216666D01*
X53633333Y-34264285D01*
X53633333Y-34311904D01*
X53395238Y-34359523D01*
X53847619Y-34526190D02*
X53847619Y-34192857D01*
X53847619Y-34288095D02*
X53871428Y-34240476D01*
X53895238Y-34216666D01*
X53942857Y-34192857D01*
X53990476Y-34192857D01*
X54371428Y-34526190D02*
X54371428Y-34026190D01*
X54371428Y-34502380D02*
X54323809Y-34526190D01*
X54228571Y-34526190D01*
X54180952Y-34502380D01*
X54157142Y-34478571D01*
X54133333Y-34430952D01*
X54133333Y-34288095D01*
X54157142Y-34240476D01*
X54180952Y-34216666D01*
X54228571Y-34192857D01*
X54323809Y-34192857D01*
X54371428Y-34216666D01*
X54680952Y-34526190D02*
X54633333Y-34502380D01*
X54609523Y-34478571D01*
X54585714Y-34430952D01*
X54585714Y-34288095D01*
X54609523Y-34240476D01*
X54633333Y-34216666D01*
X54680952Y-34192857D01*
X54752380Y-34192857D01*
X54800000Y-34216666D01*
X54823809Y-34240476D01*
X54847619Y-34288095D01*
X54847619Y-34430952D01*
X54823809Y-34478571D01*
X54800000Y-34502380D01*
X54752380Y-34526190D01*
X54680952Y-34526190D01*
X55014285Y-34192857D02*
X55109523Y-34526190D01*
X55204761Y-34288095D01*
X55300000Y-34526190D01*
X55395238Y-34192857D01*
X55585714Y-34192857D02*
X55585714Y-34526190D01*
X55585714Y-34240476D02*
X55609523Y-34216666D01*
X55657142Y-34192857D01*
X55728571Y-34192857D01*
X55776190Y-34216666D01*
X55800000Y-34264285D01*
X55800000Y-34526190D01*
X56419047Y-34335714D02*
X56800000Y-34335714D01*
X57704761Y-34478571D02*
X57680952Y-34502380D01*
X57609523Y-34526190D01*
X57561904Y-34526190D01*
X57490476Y-34502380D01*
X57442857Y-34454761D01*
X57419047Y-34407142D01*
X57395238Y-34311904D01*
X57395238Y-34240476D01*
X57419047Y-34145238D01*
X57442857Y-34097619D01*
X57490476Y-34050000D01*
X57561904Y-34026190D01*
X57609523Y-34026190D01*
X57680952Y-34050000D01*
X57704761Y-34073809D01*
X57990476Y-34526190D02*
X57942857Y-34502380D01*
X57919047Y-34454761D01*
X57919047Y-34026190D01*
X58395238Y-34526190D02*
X58395238Y-34264285D01*
X58371428Y-34216666D01*
X58323809Y-34192857D01*
X58228571Y-34192857D01*
X58180952Y-34216666D01*
X58395238Y-34502380D02*
X58347619Y-34526190D01*
X58228571Y-34526190D01*
X58180952Y-34502380D01*
X58157142Y-34454761D01*
X58157142Y-34407142D01*
X58180952Y-34359523D01*
X58228571Y-34335714D01*
X58347619Y-34335714D01*
X58395238Y-34311904D01*
X58633333Y-34526190D02*
X58633333Y-34192857D01*
X58633333Y-34240476D02*
X58657142Y-34216666D01*
X58704761Y-34192857D01*
X58776190Y-34192857D01*
X58823809Y-34216666D01*
X58847619Y-34264285D01*
X58847619Y-34526190D01*
X58847619Y-34264285D02*
X58871428Y-34216666D01*
X58919047Y-34192857D01*
X58990476Y-34192857D01*
X59038095Y-34216666D01*
X59061904Y-34264285D01*
X59061904Y-34526190D01*
X59300000Y-34192857D02*
X59300000Y-34692857D01*
X59300000Y-34216666D02*
X59347619Y-34192857D01*
X59442857Y-34192857D01*
X59490476Y-34216666D01*
X59514285Y-34240476D01*
X59538095Y-34288095D01*
X59538095Y-34430952D01*
X59514285Y-34478571D01*
X59490476Y-34502380D01*
X59442857Y-34526190D01*
X59347619Y-34526190D01*
X59300000Y-34502380D01*
X59752380Y-34526190D02*
X59752380Y-34192857D01*
X59752380Y-34026190D02*
X59728571Y-34050000D01*
X59752380Y-34073809D01*
X59776190Y-34050000D01*
X59752380Y-34026190D01*
X59752380Y-34073809D01*
X59990476Y-34192857D02*
X59990476Y-34526190D01*
X59990476Y-34240476D02*
X60014285Y-34216666D01*
X60061904Y-34192857D01*
X60133333Y-34192857D01*
X60180952Y-34216666D01*
X60204761Y-34264285D01*
X60204761Y-34526190D01*
X60657142Y-34192857D02*
X60657142Y-34597619D01*
X60633333Y-34645238D01*
X60609523Y-34669047D01*
X60561904Y-34692857D01*
X60490476Y-34692857D01*
X60442857Y-34669047D01*
X60657142Y-34502380D02*
X60609523Y-34526190D01*
X60514285Y-34526190D01*
X60466666Y-34502380D01*
X60442857Y-34478571D01*
X60419047Y-34430952D01*
X60419047Y-34288095D01*
X60442857Y-34240476D01*
X60466666Y-34216666D01*
X60514285Y-34192857D01*
X60609523Y-34192857D01*
X60657142Y-34216666D01*
D12*
%TO.C,TP9*%
X70950000Y-83300000D02*
X70950000Y-84700000D01*
X70950000Y-84700000D02*
X69550000Y-84700000D01*
X69550000Y-84700000D02*
X69550000Y-83300000D01*
X69550000Y-83300000D02*
X70950000Y-83300000D01*
%TO.C,TP8*%
X70950000Y-80050000D02*
X70950000Y-81450000D01*
X70950000Y-81450000D02*
X69550000Y-81450000D01*
X69550000Y-81450000D02*
X69550000Y-80050000D01*
X69550000Y-80050000D02*
X70950000Y-80050000D01*
D14*
%TO.C,RST1*%
X74627740Y-47180500D02*
X74724260Y-47180500D01*
X74627740Y-51879500D02*
X74724260Y-51879500D01*
X76174600Y-47180500D02*
X76174600Y-51879500D01*
X73177400Y-47180500D02*
X73177400Y-51879500D01*
X75369420Y-49530000D02*
G75*
G03*
X75369420Y-49530000I-693420J0D01*
G01*
D12*
%TO.C,R16*%
X77332721Y-44448000D02*
X77658279Y-44448000D01*
X77332721Y-45468000D02*
X77658279Y-45468000D01*
%TO.C,R15*%
X77332721Y-42416000D02*
X77658279Y-42416000D01*
X77332721Y-43436000D02*
X77658279Y-43436000D01*
%TO.C,R14*%
X77307221Y-40384000D02*
X77632779Y-40384000D01*
X77307221Y-41404000D02*
X77632779Y-41404000D01*
%TO.C,R13*%
X77332721Y-38352000D02*
X77658279Y-38352000D01*
X77332721Y-39372000D02*
X77658279Y-39372000D01*
D10*
%TO.C,D5*%
X75398000Y-44958000D02*
G75*
G03*
X75398000Y-44958000I-50000J0D01*
G01*
%TO.C,D4*%
X75266000Y-42926000D02*
G75*
G03*
X75266000Y-42926000I-50000J0D01*
G01*
%TO.C,D3*%
X75332000Y-40640000D02*
G75*
G03*
X75332000Y-40640000I-50000J0D01*
G01*
%TO.C,D2*%
X75266000Y-38862000D02*
G75*
G03*
X75266000Y-38862000I-50000J0D01*
G01*
D12*
%TO.C,U7*%
X65462000Y-43627000D02*
X66462000Y-43627000D01*
X65302000Y-42367000D02*
X66462000Y-42367000D01*
%TO.C,R12*%
X66550000Y-47889279D02*
X66550000Y-47563721D01*
X65530000Y-47889279D02*
X65530000Y-47563721D01*
%TO.C,R11*%
X63248000Y-47940279D02*
X63248000Y-47614721D01*
X62228000Y-47940279D02*
X62228000Y-47614721D01*
D15*
%TO.C,IC1*%
X68171060Y-48641000D02*
G75*
G03*
X68171060Y-48641000I-99060J0D01*
G01*
D16*
X69621400Y-46873160D02*
X69062600Y-46873160D01*
X68343780Y-47995840D02*
X68343780Y-47000160D01*
X70340220Y-47995840D02*
X70340220Y-46873160D01*
D12*
%TO.C,U6*%
X73590000Y-63670000D02*
X76465000Y-63670000D01*
X73590000Y-63670000D02*
X72090000Y-63670000D01*
X73590000Y-60450000D02*
X75090000Y-60450000D01*
X73590000Y-60450000D02*
X72090000Y-60450000D01*
%TO.C,TP7*%
X82420000Y-57600000D02*
X81020000Y-57600000D01*
X82420000Y-56200000D02*
X82420000Y-57600000D01*
X81020000Y-56200000D02*
X82420000Y-56200000D01*
X81020000Y-57600000D02*
X81020000Y-56200000D01*
%TO.C,TP6*%
X28380000Y-26608000D02*
X28380000Y-25208000D01*
X29780000Y-26608000D02*
X28380000Y-26608000D01*
X29780000Y-25208000D02*
X29780000Y-26608000D01*
X28380000Y-25208000D02*
X29780000Y-25208000D01*
%TO.C,TP5*%
X32574000Y-26608000D02*
X32574000Y-25208000D01*
X33974000Y-26608000D02*
X32574000Y-26608000D01*
X33974000Y-25208000D02*
X33974000Y-26608000D01*
X32574000Y-25208000D02*
X33974000Y-25208000D01*
%TO.C,TP4*%
X82400000Y-100200000D02*
X81000000Y-100200000D01*
X82400000Y-98800000D02*
X82400000Y-100200000D01*
X81000000Y-98800000D02*
X82400000Y-98800000D01*
X81000000Y-100200000D02*
X81000000Y-98800000D01*
%TO.C,TP3*%
X82200000Y-95900000D02*
X80800000Y-95900000D01*
X82200000Y-94500000D02*
X82200000Y-95900000D01*
X80800000Y-94500000D02*
X82200000Y-94500000D01*
X80800000Y-95900000D02*
X80800000Y-94500000D01*
%TO.C,TP2*%
X77300000Y-91950000D02*
X75900000Y-91950000D01*
X77300000Y-90550000D02*
X77300000Y-91950000D01*
X75900000Y-90550000D02*
X77300000Y-90550000D01*
X75900000Y-91950000D02*
X75900000Y-90550000D01*
%TO.C,TP1*%
X37654000Y-26608000D02*
X37654000Y-25208000D01*
X39054000Y-26608000D02*
X37654000Y-26608000D01*
X39054000Y-25208000D02*
X39054000Y-26608000D01*
X37654000Y-25208000D02*
X39054000Y-25208000D01*
%TO.C,J2*%
X32065000Y-87210000D02*
X32065000Y-86500000D01*
X32750000Y-87210000D02*
X32065000Y-87210000D01*
X32190000Y-85105507D02*
X32190000Y-84790000D01*
X33435000Y-87210000D02*
X33435000Y-87108276D01*
X32190000Y-84790000D02*
X40310000Y-84790000D01*
X33435000Y-87210000D02*
X40310000Y-87210000D01*
X40310000Y-86105507D02*
X40310000Y-85894493D01*
X40310000Y-85105507D02*
X40310000Y-84790000D01*
X40310000Y-87210000D02*
X40310000Y-86894493D01*
%TO.C,R10*%
X72950000Y-67257221D02*
X72950000Y-67582779D01*
X73970000Y-67257221D02*
X73970000Y-67582779D01*
%TO.C,J6*%
X79685000Y-77630000D02*
X79685000Y-78325000D01*
X79000000Y-77630000D02*
X79685000Y-77630000D01*
X78315000Y-78933276D02*
X78315000Y-79020000D01*
X78315000Y-77630000D02*
X78315000Y-77716724D01*
X78315000Y-79020000D02*
X78440000Y-79020000D01*
X78315000Y-77630000D02*
X78440000Y-77630000D01*
X78315000Y-77630000D02*
X78315000Y-79020000D01*
%TO.C,J4*%
X76635000Y-77550000D02*
X76635000Y-78245000D01*
X75950000Y-77550000D02*
X76635000Y-77550000D01*
X75265000Y-78853276D02*
X75265000Y-78940000D01*
X75265000Y-77550000D02*
X75265000Y-77636724D01*
X75265000Y-78940000D02*
X75390000Y-78940000D01*
X75265000Y-77550000D02*
X75390000Y-77550000D01*
X75265000Y-77550000D02*
X75265000Y-78940000D01*
%TO.C,C10*%
X77245000Y-65890000D02*
X77245000Y-68200000D01*
X78815000Y-65890000D02*
X77245000Y-65890000D01*
X78815000Y-68200000D02*
X78815000Y-65890000D01*
D16*
%TO.C,U5*%
X28523391Y-85080140D02*
X28523391Y-86477140D01*
X29666391Y-85080140D02*
X28523391Y-85080140D01*
X29666391Y-71491140D02*
X29666391Y-85080140D01*
X15696391Y-71491140D02*
X29666391Y-71491140D01*
X15696391Y-78422800D02*
X15696391Y-71491140D01*
X14680391Y-86477140D02*
X14680391Y-83944760D01*
X28523391Y-86477140D02*
X14680391Y-86477140D01*
D17*
X27868071Y-70899320D02*
X27868071Y-71900080D01*
X27868071Y-71900080D02*
X23867571Y-71900080D01*
X23867571Y-70899320D02*
X23867571Y-71900080D01*
X27868071Y-70899320D02*
X23867571Y-70899320D01*
X25267111Y-72799240D02*
X25267111Y-81795920D01*
X25267111Y-81795920D02*
X23268131Y-81795920D01*
X23268131Y-72799240D02*
X23268131Y-81795920D01*
X25267111Y-72799240D02*
X23268131Y-72799240D01*
D16*
X14868677Y-82932658D02*
G75*
G03*
X15696391Y-78422800I-11872286J4509858D01*
G01*
X14863481Y-82947179D02*
G75*
G03*
X14680391Y-83944760I2626150J-997581D01*
G01*
D15*
%TO.C,RN2*%
X34480060Y-73301880D02*
X34515620Y-73301880D01*
X34480060Y-75298320D02*
X34515620Y-75298320D01*
%TO.C,RN1*%
X34480060Y-75801880D02*
X34515620Y-75801880D01*
X34480060Y-77798320D02*
X34515620Y-77798320D01*
D12*
%TO.C,C9*%
X61215000Y-74080000D02*
X61215000Y-76390000D01*
X62785000Y-74080000D02*
X61215000Y-74080000D01*
X62785000Y-76390000D02*
X62785000Y-74080000D01*
%TO.C,C8*%
X61215000Y-69990000D02*
X61215000Y-72300000D01*
X62785000Y-69990000D02*
X61215000Y-69990000D01*
X62785000Y-72300000D02*
X62785000Y-69990000D01*
%TO.C,J5*%
X15140000Y-52640000D02*
X16750000Y-52640000D01*
X20960000Y-60360000D02*
X20960000Y-58300000D01*
X19250000Y-60360000D02*
X20960000Y-60360000D01*
X20960000Y-52640000D02*
X20960000Y-54700000D01*
X19250000Y-52640000D02*
X20960000Y-52640000D01*
X15140000Y-52640000D02*
X15140000Y-60360000D01*
X15140000Y-60360000D02*
X16750000Y-60360000D01*
X20960000Y-54700000D02*
X21550000Y-54700000D01*
%TO.C,C5*%
X31500000Y-102127500D02*
X29190000Y-102127500D01*
X29190000Y-102127500D02*
X29190000Y-103697500D01*
X29190000Y-103697500D02*
X31500000Y-103697500D01*
%TO.C,C6*%
X29177500Y-100985000D02*
X31487500Y-100985000D01*
X29177500Y-99415000D02*
X29177500Y-100985000D01*
X31487500Y-99415000D02*
X29177500Y-99415000D01*
%TO.C,C7*%
X31500000Y-96715000D02*
X29190000Y-96715000D01*
X29190000Y-96715000D02*
X29190000Y-98285000D01*
X29190000Y-98285000D02*
X31500000Y-98285000D01*
%TO.C,J1*%
X28550000Y-108000000D02*
X27500000Y-108000000D01*
X27500000Y-109050000D02*
X27500000Y-108000000D01*
X36900000Y-114100000D02*
X36900000Y-122900000D01*
X36900000Y-122900000D02*
X27700000Y-122900000D01*
X34200000Y-108200000D02*
X36900000Y-108200000D01*
X36900000Y-108200000D02*
X36900000Y-110100000D01*
X27700000Y-122900000D02*
X27700000Y-108200000D01*
X27700000Y-108200000D02*
X30300000Y-108200000D01*
D15*
%TO.C,R9*%
X43601680Y-77180060D02*
X43601680Y-77215620D01*
X45598120Y-77180060D02*
X45598120Y-77215620D01*
%TO.C,R8*%
X46401780Y-77180060D02*
X46401780Y-77215620D01*
X48398220Y-77180060D02*
X48398220Y-77215620D01*
%TO.C,R7*%
X52001680Y-76884380D02*
X52001680Y-76919940D01*
X53998120Y-76884380D02*
X53998120Y-76919940D01*
%TO.C,R6*%
X55001680Y-76880060D02*
X55001680Y-76915620D01*
X56998120Y-76880060D02*
X56998120Y-76915620D01*
D12*
%TO.C,R5*%
X48338779Y-39746000D02*
X48013221Y-39746000D01*
X48338779Y-38726000D02*
X48013221Y-38726000D01*
%TO.C,C4*%
X33365000Y-63687500D02*
X33365000Y-65997500D01*
X33365000Y-65997500D02*
X34935000Y-65997500D01*
X34935000Y-65997500D02*
X34935000Y-63687500D01*
%TO.C,J3*%
X30200000Y-38500000D02*
X30200000Y-37500000D01*
X29700000Y-38000000D02*
X30200000Y-38500000D01*
X30200000Y-37500000D02*
X29700000Y-38000000D01*
X27340000Y-48860000D02*
X29320000Y-48860000D01*
X29320000Y-34140000D02*
X27340000Y-34140000D01*
X29320000Y-34140000D02*
X29320000Y-48860000D01*
X23640000Y-48860000D02*
X15100000Y-48860000D01*
X15100000Y-34140000D02*
X15100000Y-48860000D01*
X23640000Y-34140000D02*
X15100000Y-34140000D01*
%TO.C,U4*%
X47225000Y-99400000D02*
X47225000Y-100900000D01*
X47225000Y-100900000D02*
X48175000Y-100900000D01*
X48175000Y-100900000D02*
X48175000Y-106025000D01*
X57625000Y-99400000D02*
X57625000Y-100900000D01*
X57625000Y-100900000D02*
X56675000Y-100900000D01*
X56675000Y-100900000D02*
X56675000Y-102000000D01*
%TO.C,U3*%
X36090000Y-100000000D02*
X36090000Y-93990000D01*
X42910000Y-97750000D02*
X42910000Y-93990000D01*
X36090000Y-93990000D02*
X37350000Y-93990000D01*
X42910000Y-93990000D02*
X41650000Y-93990000D01*
D16*
%TO.C,U2*%
X59338460Y-73859720D02*
X59338460Y-52861540D01*
X38340280Y-73859720D02*
X59338460Y-73859720D01*
X38340280Y-52861540D02*
X38340280Y-73859720D01*
X59338460Y-52861540D02*
X38340280Y-52861540D01*
D12*
%TO.C,U1*%
X56960000Y-32780000D02*
X55500000Y-32780000D01*
X56960000Y-29620000D02*
X54800000Y-29620000D01*
X56960000Y-29620000D02*
X56960000Y-30550000D01*
X56960000Y-32780000D02*
X56960000Y-31850000D01*
%TO.C,R23*%
X48294279Y-26490000D02*
X47968721Y-26490000D01*
X48294279Y-27510000D02*
X47968721Y-27510000D01*
%TO.C,Q2*%
X39855000Y-33240000D02*
X44855000Y-33240000D01*
X39855000Y-29820000D02*
X44855000Y-29820000D01*
%TO.C,C3*%
X49619000Y-30375000D02*
X47309000Y-30375000D01*
X49619000Y-31945000D02*
X49619000Y-30375000D01*
X47309000Y-31945000D02*
X49619000Y-31945000D01*
%TO.C,C2*%
X49664000Y-33733000D02*
X47354000Y-33733000D01*
X49664000Y-35303000D02*
X49664000Y-33733000D01*
X47354000Y-35303000D02*
X49664000Y-35303000D01*
%TO.C,R3*%
X62537221Y-30910000D02*
X62862779Y-30910000D01*
X62537221Y-29890000D02*
X62862779Y-29890000D01*
%TO.C,R4*%
X62517221Y-27490000D02*
X62842779Y-27490000D01*
X62517221Y-26470000D02*
X62842779Y-26470000D01*
%TO.C,R2*%
X62862779Y-33202500D02*
X62537221Y-33202500D01*
X62862779Y-34222500D02*
X62537221Y-34222500D01*
%TO.C,Q1*%
X68260000Y-27680000D02*
X66800000Y-27680000D01*
X68260000Y-24520000D02*
X66100000Y-24520000D01*
X68260000Y-24520000D02*
X68260000Y-25450000D01*
X68260000Y-27680000D02*
X68260000Y-26750000D01*
%TO.C,R1*%
X82425000Y-112405279D02*
X82425000Y-112079721D01*
X81405000Y-112405279D02*
X81405000Y-112079721D01*
%TO.C,R22*%
X69453400Y-34988479D02*
X69453400Y-34662921D01*
X70473400Y-34988479D02*
X70473400Y-34662921D01*
%TO.C,LED1*%
X70710000Y-39475000D02*
X70710000Y-37190000D01*
X70710000Y-37190000D02*
X69240000Y-37190000D01*
X69240000Y-37190000D02*
X69240000Y-39475000D01*
D14*
%TO.C,PWR1*%
X78622240Y-37175200D02*
X78525720Y-37175200D01*
X78622240Y-32476200D02*
X78525720Y-32476200D01*
X77075380Y-37175200D02*
X77075380Y-32476200D01*
X80072580Y-37175200D02*
X80072580Y-32476200D01*
X79267400Y-34825700D02*
G75*
G03*
X79267400Y-34825700I-693420J0D01*
G01*
D12*
%TO.C,D1*%
X49850000Y-109200000D02*
X56350000Y-109200000D01*
X49850000Y-109200000D02*
X49850000Y-117600000D01*
X56350000Y-109200000D02*
X56350000Y-117600000D01*
%TO.C,F1*%
X64555000Y-94470000D02*
X64555000Y-92040000D01*
X61645000Y-94470000D02*
X61645000Y-92040000D01*
%TO.C,L1*%
X68100000Y-109700000D02*
X71100000Y-109700000D01*
X71100000Y-109700000D02*
X71100000Y-122300000D01*
X71100000Y-122300000D02*
X68100000Y-122300000D01*
X61500000Y-122300000D02*
X58500000Y-122300000D01*
X58500000Y-122300000D02*
X58500000Y-109700000D01*
X58500000Y-109700000D02*
X61500000Y-109700000D01*
%TO.C,TP9*%
D11*
X71150380Y-85261904D02*
X71150380Y-84690476D01*
X72150380Y-84976190D02*
X71150380Y-84976190D01*
X72150380Y-84357142D02*
X71150380Y-84357142D01*
X71150380Y-83976190D01*
X71198000Y-83880952D01*
X71245619Y-83833333D01*
X71340857Y-83785714D01*
X71483714Y-83785714D01*
X71578952Y-83833333D01*
X71626571Y-83880952D01*
X71674190Y-83976190D01*
X71674190Y-84357142D01*
X72150380Y-83309523D02*
X72150380Y-83119047D01*
X72102761Y-83023809D01*
X72055142Y-82976190D01*
X71912285Y-82880952D01*
X71721809Y-82833333D01*
X71340857Y-82833333D01*
X71245619Y-82880952D01*
X71198000Y-82928571D01*
X71150380Y-83023809D01*
X71150380Y-83214285D01*
X71198000Y-83309523D01*
X71245619Y-83357142D01*
X71340857Y-83404761D01*
X71578952Y-83404761D01*
X71674190Y-83357142D01*
X71721809Y-83309523D01*
X71769428Y-83214285D01*
X71769428Y-83023809D01*
X71721809Y-82928571D01*
X71674190Y-82880952D01*
X71578952Y-82833333D01*
%TO.C,TP8*%
X71150380Y-82011904D02*
X71150380Y-81440476D01*
X72150380Y-81726190D02*
X71150380Y-81726190D01*
X72150380Y-81107142D02*
X71150380Y-81107142D01*
X71150380Y-80726190D01*
X71198000Y-80630952D01*
X71245619Y-80583333D01*
X71340857Y-80535714D01*
X71483714Y-80535714D01*
X71578952Y-80583333D01*
X71626571Y-80630952D01*
X71674190Y-80726190D01*
X71674190Y-81107142D01*
X71578952Y-79964285D02*
X71531333Y-80059523D01*
X71483714Y-80107142D01*
X71388476Y-80154761D01*
X71340857Y-80154761D01*
X71245619Y-80107142D01*
X71198000Y-80059523D01*
X71150380Y-79964285D01*
X71150380Y-79773809D01*
X71198000Y-79678571D01*
X71245619Y-79630952D01*
X71340857Y-79583333D01*
X71388476Y-79583333D01*
X71483714Y-79630952D01*
X71531333Y-79678571D01*
X71578952Y-79773809D01*
X71578952Y-79964285D01*
X71626571Y-80059523D01*
X71674190Y-80107142D01*
X71769428Y-80154761D01*
X71959904Y-80154761D01*
X72055142Y-80107142D01*
X72102761Y-80059523D01*
X72150380Y-79964285D01*
X72150380Y-79773809D01*
X72102761Y-79678571D01*
X72055142Y-79630952D01*
X71959904Y-79583333D01*
X71769428Y-79583333D01*
X71674190Y-79630952D01*
X71626571Y-79678571D01*
X71578952Y-79773809D01*
%TO.C,RST1*%
D18*
X77786666Y-51008666D02*
X77453333Y-51242000D01*
X77786666Y-51408666D02*
X77086666Y-51408666D01*
X77086666Y-51142000D01*
X77120000Y-51075333D01*
X77153333Y-51042000D01*
X77220000Y-51008666D01*
X77320000Y-51008666D01*
X77386666Y-51042000D01*
X77420000Y-51075333D01*
X77453333Y-51142000D01*
X77453333Y-51408666D01*
X77753333Y-50742000D02*
X77786666Y-50642000D01*
X77786666Y-50475333D01*
X77753333Y-50408666D01*
X77720000Y-50375333D01*
X77653333Y-50342000D01*
X77586666Y-50342000D01*
X77520000Y-50375333D01*
X77486666Y-50408666D01*
X77453333Y-50475333D01*
X77420000Y-50608666D01*
X77386666Y-50675333D01*
X77353333Y-50708666D01*
X77286666Y-50742000D01*
X77220000Y-50742000D01*
X77153333Y-50708666D01*
X77120000Y-50675333D01*
X77086666Y-50608666D01*
X77086666Y-50442000D01*
X77120000Y-50342000D01*
X77086666Y-50142000D02*
X77086666Y-49742000D01*
X77786666Y-49942000D02*
X77086666Y-49942000D01*
X77786666Y-49142000D02*
X77786666Y-49542000D01*
X77786666Y-49342000D02*
X77086666Y-49342000D01*
X77186666Y-49408666D01*
X77253333Y-49475333D01*
X77286666Y-49542000D01*
X79056666Y-51409333D02*
X78356666Y-51409333D01*
X78356666Y-51142666D01*
X78390000Y-51076000D01*
X78423333Y-51042666D01*
X78490000Y-51009333D01*
X78590000Y-51009333D01*
X78656666Y-51042666D01*
X78690000Y-51076000D01*
X78723333Y-51142666D01*
X78723333Y-51409333D01*
X79023333Y-50742666D02*
X79056666Y-50642666D01*
X79056666Y-50476000D01*
X79023333Y-50409333D01*
X78990000Y-50376000D01*
X78923333Y-50342666D01*
X78856666Y-50342666D01*
X78790000Y-50376000D01*
X78756666Y-50409333D01*
X78723333Y-50476000D01*
X78690000Y-50609333D01*
X78656666Y-50676000D01*
X78623333Y-50709333D01*
X78556666Y-50742666D01*
X78490000Y-50742666D01*
X78423333Y-50709333D01*
X78390000Y-50676000D01*
X78356666Y-50609333D01*
X78356666Y-50442666D01*
X78390000Y-50342666D01*
X79056666Y-50042666D02*
X78356666Y-50042666D01*
X78690000Y-50042666D02*
X78690000Y-49642666D01*
X79056666Y-49642666D02*
X78356666Y-49642666D01*
X79123333Y-49476000D02*
X79123333Y-48942666D01*
X78690000Y-48542666D02*
X78723333Y-48442666D01*
X78756666Y-48409333D01*
X78823333Y-48376000D01*
X78923333Y-48376000D01*
X78990000Y-48409333D01*
X79023333Y-48442666D01*
X79056666Y-48509333D01*
X79056666Y-48776000D01*
X78356666Y-48776000D01*
X78356666Y-48542666D01*
X78390000Y-48476000D01*
X78423333Y-48442666D01*
X78490000Y-48409333D01*
X78556666Y-48409333D01*
X78623333Y-48442666D01*
X78656666Y-48476000D01*
X78690000Y-48542666D01*
X78690000Y-48776000D01*
X78356666Y-48176000D02*
X78356666Y-47776000D01*
X79056666Y-47976000D02*
X78356666Y-47976000D01*
X79056666Y-47542666D02*
X78356666Y-47542666D01*
X79056666Y-47142666D01*
X78356666Y-47142666D01*
%TO.C,R16*%
D13*
X79814000Y-46036666D02*
X79580666Y-45703333D01*
X79414000Y-46036666D02*
X79414000Y-45336666D01*
X79680666Y-45336666D01*
X79747333Y-45370000D01*
X79780666Y-45403333D01*
X79814000Y-45470000D01*
X79814000Y-45570000D01*
X79780666Y-45636666D01*
X79747333Y-45670000D01*
X79680666Y-45703333D01*
X79414000Y-45703333D01*
X80480666Y-46036666D02*
X80080666Y-46036666D01*
X80280666Y-46036666D02*
X80280666Y-45336666D01*
X80214000Y-45436666D01*
X80147333Y-45503333D01*
X80080666Y-45536666D01*
X81080666Y-45336666D02*
X80947333Y-45336666D01*
X80880666Y-45370000D01*
X80847333Y-45403333D01*
X80780666Y-45503333D01*
X80747333Y-45636666D01*
X80747333Y-45903333D01*
X80780666Y-45970000D01*
X80814000Y-46003333D01*
X80880666Y-46036666D01*
X81014000Y-46036666D01*
X81080666Y-46003333D01*
X81114000Y-45970000D01*
X81147333Y-45903333D01*
X81147333Y-45736666D01*
X81114000Y-45670000D01*
X81080666Y-45636666D01*
X81014000Y-45603333D01*
X80880666Y-45603333D01*
X80814000Y-45636666D01*
X80780666Y-45670000D01*
X80747333Y-45736666D01*
%TO.C,R15*%
D11*
X79814000Y-44004666D02*
X79580666Y-43671333D01*
X79414000Y-44004666D02*
X79414000Y-43304666D01*
X79680666Y-43304666D01*
X79747333Y-43338000D01*
X79780666Y-43371333D01*
X79814000Y-43438000D01*
X79814000Y-43538000D01*
X79780666Y-43604666D01*
X79747333Y-43638000D01*
X79680666Y-43671333D01*
X79414000Y-43671333D01*
X80480666Y-44004666D02*
X80080666Y-44004666D01*
X80280666Y-44004666D02*
X80280666Y-43304666D01*
X80214000Y-43404666D01*
X80147333Y-43471333D01*
X80080666Y-43504666D01*
X81114000Y-43304666D02*
X80780666Y-43304666D01*
X80747333Y-43638000D01*
X80780666Y-43604666D01*
X80847333Y-43571333D01*
X81014000Y-43571333D01*
X81080666Y-43604666D01*
X81114000Y-43638000D01*
X81147333Y-43704666D01*
X81147333Y-43871333D01*
X81114000Y-43938000D01*
X81080666Y-43971333D01*
X81014000Y-44004666D01*
X80847333Y-44004666D01*
X80780666Y-43971333D01*
X80747333Y-43938000D01*
%TO.C,R14*%
X79814000Y-41972666D02*
X79580666Y-41639333D01*
X79414000Y-41972666D02*
X79414000Y-41272666D01*
X79680666Y-41272666D01*
X79747333Y-41306000D01*
X79780666Y-41339333D01*
X79814000Y-41406000D01*
X79814000Y-41506000D01*
X79780666Y-41572666D01*
X79747333Y-41606000D01*
X79680666Y-41639333D01*
X79414000Y-41639333D01*
X80480666Y-41972666D02*
X80080666Y-41972666D01*
X80280666Y-41972666D02*
X80280666Y-41272666D01*
X80214000Y-41372666D01*
X80147333Y-41439333D01*
X80080666Y-41472666D01*
X81080666Y-41506000D02*
X81080666Y-41972666D01*
X80914000Y-41239333D02*
X80747333Y-41739333D01*
X81180666Y-41739333D01*
%TO.C,R13*%
X79814000Y-39940666D02*
X79580666Y-39607333D01*
X79414000Y-39940666D02*
X79414000Y-39240666D01*
X79680666Y-39240666D01*
X79747333Y-39274000D01*
X79780666Y-39307333D01*
X79814000Y-39374000D01*
X79814000Y-39474000D01*
X79780666Y-39540666D01*
X79747333Y-39574000D01*
X79680666Y-39607333D01*
X79414000Y-39607333D01*
X80480666Y-39940666D02*
X80080666Y-39940666D01*
X80280666Y-39940666D02*
X80280666Y-39240666D01*
X80214000Y-39340666D01*
X80147333Y-39407333D01*
X80080666Y-39440666D01*
X80714000Y-39240666D02*
X81147333Y-39240666D01*
X80914000Y-39507333D01*
X81014000Y-39507333D01*
X81080666Y-39540666D01*
X81114000Y-39574000D01*
X81147333Y-39640666D01*
X81147333Y-39807333D01*
X81114000Y-39874000D01*
X81080666Y-39907333D01*
X81014000Y-39940666D01*
X80814000Y-39940666D01*
X80747333Y-39907333D01*
X80714000Y-39874000D01*
%TO.C,D5*%
D13*
X74118952Y-46234190D02*
X74118952Y-45734190D01*
X74238000Y-45734190D01*
X74309428Y-45758000D01*
X74357047Y-45805619D01*
X74380857Y-45853238D01*
X74404666Y-45948476D01*
X74404666Y-46019904D01*
X74380857Y-46115142D01*
X74357047Y-46162761D01*
X74309428Y-46210380D01*
X74238000Y-46234190D01*
X74118952Y-46234190D01*
X74857047Y-45734190D02*
X74618952Y-45734190D01*
X74595142Y-45972285D01*
X74618952Y-45948476D01*
X74666571Y-45924666D01*
X74785619Y-45924666D01*
X74833238Y-45948476D01*
X74857047Y-45972285D01*
X74880857Y-46019904D01*
X74880857Y-46138952D01*
X74857047Y-46186571D01*
X74833238Y-46210380D01*
X74785619Y-46234190D01*
X74666571Y-46234190D01*
X74618952Y-46210380D01*
X74595142Y-46186571D01*
%TO.C,D4*%
X73986952Y-44202190D02*
X73986952Y-43702190D01*
X74106000Y-43702190D01*
X74177428Y-43726000D01*
X74225047Y-43773619D01*
X74248857Y-43821238D01*
X74272666Y-43916476D01*
X74272666Y-43987904D01*
X74248857Y-44083142D01*
X74225047Y-44130761D01*
X74177428Y-44178380D01*
X74106000Y-44202190D01*
X73986952Y-44202190D01*
X74701238Y-43868857D02*
X74701238Y-44202190D01*
X74582190Y-43678380D02*
X74463142Y-44035523D01*
X74772666Y-44035523D01*
%TO.C,D3*%
X74052952Y-41628190D02*
X74052952Y-41128190D01*
X74172000Y-41128190D01*
X74243428Y-41152000D01*
X74291047Y-41199619D01*
X74314857Y-41247238D01*
X74338666Y-41342476D01*
X74338666Y-41413904D01*
X74314857Y-41509142D01*
X74291047Y-41556761D01*
X74243428Y-41604380D01*
X74172000Y-41628190D01*
X74052952Y-41628190D01*
X74505333Y-41128190D02*
X74814857Y-41128190D01*
X74648190Y-41318666D01*
X74719619Y-41318666D01*
X74767238Y-41342476D01*
X74791047Y-41366285D01*
X74814857Y-41413904D01*
X74814857Y-41532952D01*
X74791047Y-41580571D01*
X74767238Y-41604380D01*
X74719619Y-41628190D01*
X74576761Y-41628190D01*
X74529142Y-41604380D01*
X74505333Y-41580571D01*
%TO.C,D2*%
X74052952Y-39850190D02*
X74052952Y-39350190D01*
X74172000Y-39350190D01*
X74243428Y-39374000D01*
X74291047Y-39421619D01*
X74314857Y-39469238D01*
X74338666Y-39564476D01*
X74338666Y-39635904D01*
X74314857Y-39731142D01*
X74291047Y-39778761D01*
X74243428Y-39826380D01*
X74172000Y-39850190D01*
X74052952Y-39850190D01*
X74529142Y-39397809D02*
X74552952Y-39374000D01*
X74600571Y-39350190D01*
X74719619Y-39350190D01*
X74767238Y-39374000D01*
X74791047Y-39397809D01*
X74814857Y-39445428D01*
X74814857Y-39493047D01*
X74791047Y-39564476D01*
X74505333Y-39850190D01*
X74814857Y-39850190D01*
%TO.C,U7*%
D11*
X65200095Y-40949380D02*
X65200095Y-41758904D01*
X65247714Y-41854142D01*
X65295333Y-41901761D01*
X65390571Y-41949380D01*
X65581047Y-41949380D01*
X65676285Y-41901761D01*
X65723904Y-41854142D01*
X65771523Y-41758904D01*
X65771523Y-40949380D01*
X66152476Y-40949380D02*
X66819142Y-40949380D01*
X66390571Y-41949380D01*
%TO.C,R12*%
X65476380Y-51950857D02*
X65000190Y-52284190D01*
X65476380Y-52522285D02*
X64476380Y-52522285D01*
X64476380Y-52141333D01*
X64524000Y-52046095D01*
X64571619Y-51998476D01*
X64666857Y-51950857D01*
X64809714Y-51950857D01*
X64904952Y-51998476D01*
X64952571Y-52046095D01*
X65000190Y-52141333D01*
X65000190Y-52522285D01*
X65476380Y-50998476D02*
X65476380Y-51569904D01*
X65476380Y-51284190D02*
X64476380Y-51284190D01*
X64619238Y-51379428D01*
X64714476Y-51474666D01*
X64762095Y-51569904D01*
X64571619Y-50617523D02*
X64524000Y-50569904D01*
X64476380Y-50474666D01*
X64476380Y-50236571D01*
X64524000Y-50141333D01*
X64571619Y-50093714D01*
X64666857Y-50046095D01*
X64762095Y-50046095D01*
X64904952Y-50093714D01*
X65476380Y-50665142D01*
X65476380Y-50046095D01*
%TO.C,R11*%
X62936380Y-51696857D02*
X62460190Y-52030190D01*
X62936380Y-52268285D02*
X61936380Y-52268285D01*
X61936380Y-51887333D01*
X61984000Y-51792095D01*
X62031619Y-51744476D01*
X62126857Y-51696857D01*
X62269714Y-51696857D01*
X62364952Y-51744476D01*
X62412571Y-51792095D01*
X62460190Y-51887333D01*
X62460190Y-52268285D01*
X62936380Y-50744476D02*
X62936380Y-51315904D01*
X62936380Y-51030190D02*
X61936380Y-51030190D01*
X62079238Y-51125428D01*
X62174476Y-51220666D01*
X62222095Y-51315904D01*
X62936380Y-49792095D02*
X62936380Y-50363523D01*
X62936380Y-50077809D02*
X61936380Y-50077809D01*
X62079238Y-50173047D01*
X62174476Y-50268285D01*
X62222095Y-50363523D01*
%TO.C,IC1*%
D16*
X69547619Y-45187809D02*
X68531619Y-45187809D01*
X69450857Y-44123428D02*
X69499238Y-44171809D01*
X69547619Y-44316952D01*
X69547619Y-44413714D01*
X69499238Y-44558857D01*
X69402476Y-44655619D01*
X69305714Y-44704000D01*
X69112190Y-44752380D01*
X68967047Y-44752380D01*
X68773523Y-44704000D01*
X68676761Y-44655619D01*
X68580000Y-44558857D01*
X68531619Y-44413714D01*
X68531619Y-44316952D01*
X68580000Y-44171809D01*
X68628380Y-44123428D01*
X69547619Y-43155809D02*
X69547619Y-43736380D01*
X69547619Y-43446095D02*
X68531619Y-43446095D01*
X68676761Y-43542857D01*
X68773523Y-43639619D01*
X68821904Y-43736380D01*
D13*
X71068380Y-49235904D02*
X71092190Y-49164476D01*
X71092190Y-49045428D01*
X71068380Y-48997809D01*
X71044571Y-48974000D01*
X70996952Y-48950190D01*
X70949333Y-48950190D01*
X70901714Y-48974000D01*
X70877904Y-48997809D01*
X70854095Y-49045428D01*
X70830285Y-49140666D01*
X70806476Y-49188285D01*
X70782666Y-49212095D01*
X70735047Y-49235904D01*
X70687428Y-49235904D01*
X70639809Y-49212095D01*
X70616000Y-49188285D01*
X70592190Y-49140666D01*
X70592190Y-49021619D01*
X70616000Y-48950190D01*
X71092190Y-48735904D02*
X70592190Y-48735904D01*
X71092190Y-48450190D01*
X70592190Y-48450190D01*
X70592190Y-48259714D02*
X70592190Y-47926380D01*
X71092190Y-48140666D01*
X70758857Y-47521619D02*
X71092190Y-47521619D01*
X70568380Y-47640666D02*
X70925523Y-47759714D01*
X70925523Y-47450190D01*
X71092190Y-47021619D02*
X71092190Y-47259714D01*
X70592190Y-47259714D01*
X70592190Y-46926380D02*
X71092190Y-46759714D01*
X70592190Y-46593047D01*
X71044571Y-46140666D02*
X71068380Y-46164476D01*
X71092190Y-46235904D01*
X71092190Y-46283523D01*
X71068380Y-46354952D01*
X71020761Y-46402571D01*
X70973142Y-46426380D01*
X70877904Y-46450190D01*
X70806476Y-46450190D01*
X70711238Y-46426380D01*
X70663619Y-46402571D01*
X70616000Y-46354952D01*
X70592190Y-46283523D01*
X70592190Y-46235904D01*
X70616000Y-46164476D01*
X70639809Y-46140666D01*
X71092190Y-45664476D02*
X71092190Y-45950190D01*
X71092190Y-45807333D02*
X70592190Y-45807333D01*
X70663619Y-45854952D01*
X70711238Y-45902571D01*
X70735047Y-45950190D01*
X70616000Y-45188285D02*
X70592190Y-45235904D01*
X70592190Y-45307333D01*
X70616000Y-45378761D01*
X70663619Y-45426380D01*
X70711238Y-45450190D01*
X70806476Y-45474000D01*
X70877904Y-45474000D01*
X70973142Y-45450190D01*
X71020761Y-45426380D01*
X71068380Y-45378761D01*
X71092190Y-45307333D01*
X71092190Y-45259714D01*
X71068380Y-45188285D01*
X71044571Y-45164476D01*
X70877904Y-45164476D01*
X70877904Y-45259714D01*
X70592190Y-44854952D02*
X70592190Y-44807333D01*
X70616000Y-44759714D01*
X70639809Y-44735904D01*
X70687428Y-44712095D01*
X70782666Y-44688285D01*
X70901714Y-44688285D01*
X70996952Y-44712095D01*
X71044571Y-44735904D01*
X71068380Y-44759714D01*
X71092190Y-44807333D01*
X71092190Y-44854952D01*
X71068380Y-44902571D01*
X71044571Y-44926380D01*
X70996952Y-44950190D01*
X70901714Y-44974000D01*
X70782666Y-44974000D01*
X70687428Y-44950190D01*
X70639809Y-44926380D01*
X70616000Y-44902571D01*
X70592190Y-44854952D01*
X70592190Y-44521619D02*
X70592190Y-44188285D01*
X71092190Y-44402571D01*
X71092190Y-43997809D02*
X70592190Y-43997809D01*
X70592190Y-43878761D01*
X70616000Y-43807333D01*
X70663619Y-43759714D01*
X70711238Y-43735904D01*
X70806476Y-43712095D01*
X70877904Y-43712095D01*
X70973142Y-43735904D01*
X71020761Y-43759714D01*
X71068380Y-43807333D01*
X71092190Y-43878761D01*
X71092190Y-43997809D01*
X71044571Y-43212095D02*
X71068380Y-43235904D01*
X71092190Y-43307333D01*
X71092190Y-43354952D01*
X71068380Y-43426380D01*
X71020761Y-43474000D01*
X70973142Y-43497809D01*
X70877904Y-43521619D01*
X70806476Y-43521619D01*
X70711238Y-43497809D01*
X70663619Y-43474000D01*
X70616000Y-43426380D01*
X70592190Y-43354952D01*
X70592190Y-43307333D01*
X70616000Y-43235904D01*
X70639809Y-43212095D01*
X71092190Y-42997809D02*
X70592190Y-42997809D01*
X71092190Y-42712095D02*
X70806476Y-42926380D01*
X70592190Y-42712095D02*
X70877904Y-42997809D01*
%TO.C,U6*%
D11*
X72828095Y-63962380D02*
X72828095Y-64771904D01*
X72875714Y-64867142D01*
X72923333Y-64914761D01*
X73018571Y-64962380D01*
X73209047Y-64962380D01*
X73304285Y-64914761D01*
X73351904Y-64867142D01*
X73399523Y-64771904D01*
X73399523Y-63962380D01*
X74304285Y-63962380D02*
X74113809Y-63962380D01*
X74018571Y-64010000D01*
X73970952Y-64057619D01*
X73875714Y-64200476D01*
X73828095Y-64390952D01*
X73828095Y-64771904D01*
X73875714Y-64867142D01*
X73923333Y-64914761D01*
X74018571Y-64962380D01*
X74209047Y-64962380D01*
X74304285Y-64914761D01*
X74351904Y-64867142D01*
X74399523Y-64771904D01*
X74399523Y-64533809D01*
X74351904Y-64438571D01*
X74304285Y-64390952D01*
X74209047Y-64343333D01*
X74018571Y-64343333D01*
X73923333Y-64390952D01*
X73875714Y-64438571D01*
X73828095Y-64533809D01*
%TO.C,TP7*%
X79724380Y-58161904D02*
X79724380Y-57590476D01*
X80724380Y-57876190D02*
X79724380Y-57876190D01*
X80724380Y-57257142D02*
X79724380Y-57257142D01*
X79724380Y-56876190D01*
X79772000Y-56780952D01*
X79819619Y-56733333D01*
X79914857Y-56685714D01*
X80057714Y-56685714D01*
X80152952Y-56733333D01*
X80200571Y-56780952D01*
X80248190Y-56876190D01*
X80248190Y-57257142D01*
X79724380Y-56352380D02*
X79724380Y-55685714D01*
X80724380Y-56114285D01*
%TO.C,TP6*%
X27818095Y-23912380D02*
X28389523Y-23912380D01*
X28103809Y-24912380D02*
X28103809Y-23912380D01*
X28722857Y-24912380D02*
X28722857Y-23912380D01*
X29103809Y-23912380D01*
X29199047Y-23960000D01*
X29246666Y-24007619D01*
X29294285Y-24102857D01*
X29294285Y-24245714D01*
X29246666Y-24340952D01*
X29199047Y-24388571D01*
X29103809Y-24436190D01*
X28722857Y-24436190D01*
X30151428Y-23912380D02*
X29960952Y-23912380D01*
X29865714Y-23960000D01*
X29818095Y-24007619D01*
X29722857Y-24150476D01*
X29675238Y-24340952D01*
X29675238Y-24721904D01*
X29722857Y-24817142D01*
X29770476Y-24864761D01*
X29865714Y-24912380D01*
X30056190Y-24912380D01*
X30151428Y-24864761D01*
X30199047Y-24817142D01*
X30246666Y-24721904D01*
X30246666Y-24483809D01*
X30199047Y-24388571D01*
X30151428Y-24340952D01*
X30056190Y-24293333D01*
X29865714Y-24293333D01*
X29770476Y-24340952D01*
X29722857Y-24388571D01*
X29675238Y-24483809D01*
%TO.C,TP5*%
X32012095Y-23912380D02*
X32583523Y-23912380D01*
X32297809Y-24912380D02*
X32297809Y-23912380D01*
X32916857Y-24912380D02*
X32916857Y-23912380D01*
X33297809Y-23912380D01*
X33393047Y-23960000D01*
X33440666Y-24007619D01*
X33488285Y-24102857D01*
X33488285Y-24245714D01*
X33440666Y-24340952D01*
X33393047Y-24388571D01*
X33297809Y-24436190D01*
X32916857Y-24436190D01*
X34393047Y-23912380D02*
X33916857Y-23912380D01*
X33869238Y-24388571D01*
X33916857Y-24340952D01*
X34012095Y-24293333D01*
X34250190Y-24293333D01*
X34345428Y-24340952D01*
X34393047Y-24388571D01*
X34440666Y-24483809D01*
X34440666Y-24721904D01*
X34393047Y-24817142D01*
X34345428Y-24864761D01*
X34250190Y-24912380D01*
X34012095Y-24912380D01*
X33916857Y-24864761D01*
X33869238Y-24817142D01*
%TO.C,TP4*%
X79704380Y-100761904D02*
X79704380Y-100190476D01*
X80704380Y-100476190D02*
X79704380Y-100476190D01*
X80704380Y-99857142D02*
X79704380Y-99857142D01*
X79704380Y-99476190D01*
X79752000Y-99380952D01*
X79799619Y-99333333D01*
X79894857Y-99285714D01*
X80037714Y-99285714D01*
X80132952Y-99333333D01*
X80180571Y-99380952D01*
X80228190Y-99476190D01*
X80228190Y-99857142D01*
X80037714Y-98428571D02*
X80704380Y-98428571D01*
X79656761Y-98666666D02*
X80371047Y-98904761D01*
X80371047Y-98285714D01*
%TO.C,TP3*%
X79504380Y-96461904D02*
X79504380Y-95890476D01*
X80504380Y-96176190D02*
X79504380Y-96176190D01*
X80504380Y-95557142D02*
X79504380Y-95557142D01*
X79504380Y-95176190D01*
X79552000Y-95080952D01*
X79599619Y-95033333D01*
X79694857Y-94985714D01*
X79837714Y-94985714D01*
X79932952Y-95033333D01*
X79980571Y-95080952D01*
X80028190Y-95176190D01*
X80028190Y-95557142D01*
X79504380Y-94652380D02*
X79504380Y-94033333D01*
X79885333Y-94366666D01*
X79885333Y-94223809D01*
X79932952Y-94128571D01*
X79980571Y-94080952D01*
X80075809Y-94033333D01*
X80313904Y-94033333D01*
X80409142Y-94080952D01*
X80456761Y-94128571D01*
X80504380Y-94223809D01*
X80504380Y-94509523D01*
X80456761Y-94604761D01*
X80409142Y-94652380D01*
%TO.C,TP2*%
X74604380Y-92511904D02*
X74604380Y-91940476D01*
X75604380Y-92226190D02*
X74604380Y-92226190D01*
X75604380Y-91607142D02*
X74604380Y-91607142D01*
X74604380Y-91226190D01*
X74652000Y-91130952D01*
X74699619Y-91083333D01*
X74794857Y-91035714D01*
X74937714Y-91035714D01*
X75032952Y-91083333D01*
X75080571Y-91130952D01*
X75128190Y-91226190D01*
X75128190Y-91607142D01*
X74699619Y-90654761D02*
X74652000Y-90607142D01*
X74604380Y-90511904D01*
X74604380Y-90273809D01*
X74652000Y-90178571D01*
X74699619Y-90130952D01*
X74794857Y-90083333D01*
X74890095Y-90083333D01*
X75032952Y-90130952D01*
X75604380Y-90702380D01*
X75604380Y-90083333D01*
%TO.C,TP1*%
X37092095Y-23912380D02*
X37663523Y-23912380D01*
X37377809Y-24912380D02*
X37377809Y-23912380D01*
X37996857Y-24912380D02*
X37996857Y-23912380D01*
X38377809Y-23912380D01*
X38473047Y-23960000D01*
X38520666Y-24007619D01*
X38568285Y-24102857D01*
X38568285Y-24245714D01*
X38520666Y-24340952D01*
X38473047Y-24388571D01*
X38377809Y-24436190D01*
X37996857Y-24436190D01*
X39520666Y-24912380D02*
X38949238Y-24912380D01*
X39234952Y-24912380D02*
X39234952Y-23912380D01*
X39139714Y-24055238D01*
X39044476Y-24150476D01*
X38949238Y-24198095D01*
%TO.C,J2*%
X30642380Y-86333333D02*
X31356666Y-86333333D01*
X31499523Y-86380952D01*
X31594761Y-86476190D01*
X31642380Y-86619047D01*
X31642380Y-86714285D01*
X30737619Y-85904761D02*
X30690000Y-85857142D01*
X30642380Y-85761904D01*
X30642380Y-85523809D01*
X30690000Y-85428571D01*
X30737619Y-85380952D01*
X30832857Y-85333333D01*
X30928095Y-85333333D01*
X31070952Y-85380952D01*
X31642380Y-85952380D01*
X31642380Y-85333333D01*
%TO.C,R10*%
X72202380Y-68142857D02*
X71726190Y-68476190D01*
X72202380Y-68714285D02*
X71202380Y-68714285D01*
X71202380Y-68333333D01*
X71250000Y-68238095D01*
X71297619Y-68190476D01*
X71392857Y-68142857D01*
X71535714Y-68142857D01*
X71630952Y-68190476D01*
X71678571Y-68238095D01*
X71726190Y-68333333D01*
X71726190Y-68714285D01*
X72202380Y-67190476D02*
X72202380Y-67761904D01*
X72202380Y-67476190D02*
X71202380Y-67476190D01*
X71345238Y-67571428D01*
X71440476Y-67666666D01*
X71488095Y-67761904D01*
X71202380Y-66571428D02*
X71202380Y-66476190D01*
X71250000Y-66380952D01*
X71297619Y-66333333D01*
X71392857Y-66285714D01*
X71583333Y-66238095D01*
X71821428Y-66238095D01*
X72011904Y-66285714D01*
X72107142Y-66333333D01*
X72154761Y-66380952D01*
X72202380Y-66476190D01*
X72202380Y-66571428D01*
X72154761Y-66666666D01*
X72107142Y-66714285D01*
X72011904Y-66761904D01*
X71821428Y-66809523D01*
X71583333Y-66809523D01*
X71392857Y-66761904D01*
X71297619Y-66714285D01*
X71250000Y-66666666D01*
X71202380Y-66571428D01*
%TO.C,J6*%
X80342380Y-78553333D02*
X81056666Y-78553333D01*
X81199523Y-78600952D01*
X81294761Y-78696190D01*
X81342380Y-78839047D01*
X81342380Y-78934285D01*
X80342380Y-77648571D02*
X80342380Y-77839047D01*
X80390000Y-77934285D01*
X80437619Y-77981904D01*
X80580476Y-78077142D01*
X80770952Y-78124761D01*
X81151904Y-78124761D01*
X81247142Y-78077142D01*
X81294761Y-78029523D01*
X81342380Y-77934285D01*
X81342380Y-77743809D01*
X81294761Y-77648571D01*
X81247142Y-77600952D01*
X81151904Y-77553333D01*
X80913809Y-77553333D01*
X80818571Y-77600952D01*
X80770952Y-77648571D01*
X80723333Y-77743809D01*
X80723333Y-77934285D01*
X80770952Y-78029523D01*
X80818571Y-78077142D01*
X80913809Y-78124761D01*
%TO.C,J4*%
X73442380Y-78613333D02*
X74156666Y-78613333D01*
X74299523Y-78660952D01*
X74394761Y-78756190D01*
X74442380Y-78899047D01*
X74442380Y-78994285D01*
X73775714Y-77708571D02*
X74442380Y-77708571D01*
X73394761Y-77946666D02*
X74109047Y-78184761D01*
X74109047Y-77565714D01*
%TO.C,FID4*%
X16888571Y-107748571D02*
X16555238Y-107748571D01*
X16555238Y-108272380D02*
X16555238Y-107272380D01*
X17031428Y-107272380D01*
X17412380Y-108272380D02*
X17412380Y-107272380D01*
X17888571Y-108272380D02*
X17888571Y-107272380D01*
X18126666Y-107272380D01*
X18269523Y-107320000D01*
X18364761Y-107415238D01*
X18412380Y-107510476D01*
X18460000Y-107700952D01*
X18460000Y-107843809D01*
X18412380Y-108034285D01*
X18364761Y-108129523D01*
X18269523Y-108224761D01*
X18126666Y-108272380D01*
X17888571Y-108272380D01*
X19317142Y-107605714D02*
X19317142Y-108272380D01*
X19079047Y-107224761D02*
X18840952Y-107939047D01*
X19460000Y-107939047D01*
%TO.C,FID3*%
X70148571Y-21198571D02*
X69815238Y-21198571D01*
X69815238Y-21722380D02*
X69815238Y-20722380D01*
X70291428Y-20722380D01*
X70672380Y-21722380D02*
X70672380Y-20722380D01*
X71148571Y-21722380D02*
X71148571Y-20722380D01*
X71386666Y-20722380D01*
X71529523Y-20770000D01*
X71624761Y-20865238D01*
X71672380Y-20960476D01*
X71720000Y-21150952D01*
X71720000Y-21293809D01*
X71672380Y-21484285D01*
X71624761Y-21579523D01*
X71529523Y-21674761D01*
X71386666Y-21722380D01*
X71148571Y-21722380D01*
X72053333Y-20722380D02*
X72672380Y-20722380D01*
X72339047Y-21103333D01*
X72481904Y-21103333D01*
X72577142Y-21150952D01*
X72624761Y-21198571D01*
X72672380Y-21293809D01*
X72672380Y-21531904D01*
X72624761Y-21627142D01*
X72577142Y-21674761D01*
X72481904Y-21722380D01*
X72196190Y-21722380D01*
X72100952Y-21674761D01*
X72053333Y-21627142D01*
%TO.C,FID2*%
X73548571Y-107748571D02*
X73215238Y-107748571D01*
X73215238Y-108272380D02*
X73215238Y-107272380D01*
X73691428Y-107272380D01*
X74072380Y-108272380D02*
X74072380Y-107272380D01*
X74548571Y-108272380D02*
X74548571Y-107272380D01*
X74786666Y-107272380D01*
X74929523Y-107320000D01*
X75024761Y-107415238D01*
X75072380Y-107510476D01*
X75120000Y-107700952D01*
X75120000Y-107843809D01*
X75072380Y-108034285D01*
X75024761Y-108129523D01*
X74929523Y-108224761D01*
X74786666Y-108272380D01*
X74548571Y-108272380D01*
X75500952Y-107367619D02*
X75548571Y-107320000D01*
X75643809Y-107272380D01*
X75881904Y-107272380D01*
X75977142Y-107320000D01*
X76024761Y-107367619D01*
X76072380Y-107462857D01*
X76072380Y-107558095D01*
X76024761Y-107700952D01*
X75453333Y-108272380D01*
X76072380Y-108272380D01*
%TO.C,FID1*%
X29388571Y-20898571D02*
X29055238Y-20898571D01*
X29055238Y-21422380D02*
X29055238Y-20422380D01*
X29531428Y-20422380D01*
X29912380Y-21422380D02*
X29912380Y-20422380D01*
X30388571Y-21422380D02*
X30388571Y-20422380D01*
X30626666Y-20422380D01*
X30769523Y-20470000D01*
X30864761Y-20565238D01*
X30912380Y-20660476D01*
X30960000Y-20850952D01*
X30960000Y-20993809D01*
X30912380Y-21184285D01*
X30864761Y-21279523D01*
X30769523Y-21374761D01*
X30626666Y-21422380D01*
X30388571Y-21422380D01*
X31912380Y-21422380D02*
X31340952Y-21422380D01*
X31626666Y-21422380D02*
X31626666Y-20422380D01*
X31531428Y-20565238D01*
X31436190Y-20660476D01*
X31340952Y-20708095D01*
%TO.C,C10*%
X78357142Y-65025357D02*
X78404761Y-65072976D01*
X78452380Y-65215833D01*
X78452380Y-65311071D01*
X78404761Y-65453928D01*
X78309523Y-65549166D01*
X78214285Y-65596785D01*
X78023809Y-65644404D01*
X77880952Y-65644404D01*
X77690476Y-65596785D01*
X77595238Y-65549166D01*
X77500000Y-65453928D01*
X77452380Y-65311071D01*
X77452380Y-65215833D01*
X77500000Y-65072976D01*
X77547619Y-65025357D01*
X78452380Y-64072976D02*
X78452380Y-64644404D01*
X78452380Y-64358690D02*
X77452380Y-64358690D01*
X77595238Y-64453928D01*
X77690476Y-64549166D01*
X77738095Y-64644404D01*
X77452380Y-63453928D02*
X77452380Y-63358690D01*
X77500000Y-63263452D01*
X77547619Y-63215833D01*
X77642857Y-63168214D01*
X77833333Y-63120595D01*
X78071428Y-63120595D01*
X78261904Y-63168214D01*
X78357142Y-63215833D01*
X78404761Y-63263452D01*
X78452380Y-63358690D01*
X78452380Y-63453928D01*
X78404761Y-63549166D01*
X78357142Y-63596785D01*
X78261904Y-63644404D01*
X78071428Y-63692023D01*
X77833333Y-63692023D01*
X77642857Y-63644404D01*
X77547619Y-63596785D01*
X77500000Y-63549166D01*
X77452380Y-63453928D01*
%TO.C,U5*%
D16*
X22983771Y-79177663D02*
X22983771Y-80205759D01*
X23044248Y-80326711D01*
X23104724Y-80387187D01*
X23225676Y-80447663D01*
X23467581Y-80447663D01*
X23588533Y-80387187D01*
X23649010Y-80326711D01*
X23709486Y-80205759D01*
X23709486Y-79177663D01*
X24919010Y-79177663D02*
X24314248Y-79177663D01*
X24253771Y-79782425D01*
X24314248Y-79721949D01*
X24435200Y-79661473D01*
X24737581Y-79661473D01*
X24858533Y-79721949D01*
X24919010Y-79782425D01*
X24979486Y-79903378D01*
X24979486Y-80205759D01*
X24919010Y-80326711D01*
X24858533Y-80387187D01*
X24737581Y-80447663D01*
X24435200Y-80447663D01*
X24314248Y-80387187D01*
X24253771Y-80326711D01*
X19415676Y-77907663D02*
X19415676Y-76637663D01*
X19839010Y-77544806D01*
X20262343Y-76637663D01*
X20262343Y-77907663D01*
X20867105Y-77907663D02*
X20867105Y-76637663D01*
X22197581Y-77786711D02*
X22137105Y-77847187D01*
X21955676Y-77907663D01*
X21834724Y-77907663D01*
X21653295Y-77847187D01*
X21532343Y-77726235D01*
X21471867Y-77605282D01*
X21411391Y-77363378D01*
X21411391Y-77181949D01*
X21471867Y-76940044D01*
X21532343Y-76819092D01*
X21653295Y-76698140D01*
X21834724Y-76637663D01*
X21955676Y-76637663D01*
X22137105Y-76698140D01*
X22197581Y-76758616D01*
X23467581Y-77907663D02*
X23044248Y-77302901D01*
X22741867Y-77907663D02*
X22741867Y-76637663D01*
X23225676Y-76637663D01*
X23346629Y-76698140D01*
X23407105Y-76758616D01*
X23467581Y-76879568D01*
X23467581Y-77060997D01*
X23407105Y-77181949D01*
X23346629Y-77242425D01*
X23225676Y-77302901D01*
X22741867Y-77302901D01*
X24253771Y-76637663D02*
X24495676Y-76637663D01*
X24616629Y-76698140D01*
X24737581Y-76819092D01*
X24798057Y-77060997D01*
X24798057Y-77484330D01*
X24737581Y-77726235D01*
X24616629Y-77847187D01*
X24495676Y-77907663D01*
X24253771Y-77907663D01*
X24132819Y-77847187D01*
X24011867Y-77726235D01*
X23951391Y-77484330D01*
X23951391Y-77060997D01*
X24011867Y-76819092D01*
X24132819Y-76698140D01*
X24253771Y-76637663D01*
X25281867Y-77847187D02*
X25463295Y-77907663D01*
X25765676Y-77907663D01*
X25886629Y-77847187D01*
X25947105Y-77786711D01*
X26007581Y-77665759D01*
X26007581Y-77544806D01*
X25947105Y-77423854D01*
X25886629Y-77363378D01*
X25765676Y-77302901D01*
X25523771Y-77242425D01*
X25402819Y-77181949D01*
X25342343Y-77121473D01*
X25281867Y-77000520D01*
X25281867Y-76879568D01*
X25342343Y-76758616D01*
X25402819Y-76698140D01*
X25523771Y-76637663D01*
X25826152Y-76637663D01*
X26007581Y-76698140D01*
X26551867Y-77907663D02*
X26551867Y-76637663D01*
X26854248Y-76637663D01*
X27035676Y-76698140D01*
X27156629Y-76819092D01*
X27217105Y-76940044D01*
X27277581Y-77181949D01*
X27277581Y-77363378D01*
X27217105Y-77605282D01*
X27156629Y-77726235D01*
X27035676Y-77847187D01*
X26854248Y-77907663D01*
X26551867Y-77907663D01*
%TO.C,RN2*%
X37316666Y-77083533D02*
X36983333Y-77316866D01*
X37316666Y-77483533D02*
X36616666Y-77483533D01*
X36616666Y-77216866D01*
X36650000Y-77150200D01*
X36683333Y-77116866D01*
X36750000Y-77083533D01*
X36850000Y-77083533D01*
X36916666Y-77116866D01*
X36950000Y-77150200D01*
X36983333Y-77216866D01*
X36983333Y-77483533D01*
X37316666Y-76783533D02*
X36616666Y-76783533D01*
X37316666Y-76383533D01*
X36616666Y-76383533D01*
X36683333Y-76083533D02*
X36650000Y-76050200D01*
X36616666Y-75983533D01*
X36616666Y-75816866D01*
X36650000Y-75750200D01*
X36683333Y-75716866D01*
X36750000Y-75683533D01*
X36816666Y-75683533D01*
X36916666Y-75716866D01*
X37316666Y-76116866D01*
X37316666Y-75683533D01*
D11*
X36316666Y-77083533D02*
X36316666Y-77483533D01*
X36316666Y-77283533D02*
X35616666Y-77283533D01*
X35716666Y-77350200D01*
X35783333Y-77416866D01*
X35816666Y-77483533D01*
X35616666Y-76650200D02*
X35616666Y-76583533D01*
X35650000Y-76516866D01*
X35683333Y-76483533D01*
X35750000Y-76450200D01*
X35883333Y-76416866D01*
X36050000Y-76416866D01*
X36183333Y-76450200D01*
X36250000Y-76483533D01*
X36283333Y-76516866D01*
X36316666Y-76583533D01*
X36316666Y-76650200D01*
X36283333Y-76716866D01*
X36250000Y-76750200D01*
X36183333Y-76783533D01*
X36050000Y-76816866D01*
X35883333Y-76816866D01*
X35750000Y-76783533D01*
X35683333Y-76750200D01*
X35650000Y-76716866D01*
X35616666Y-76650200D01*
X36316666Y-76116866D02*
X35616666Y-76116866D01*
X36316666Y-75716866D02*
X35916666Y-76016866D01*
X35616666Y-75716866D02*
X36016666Y-76116866D01*
%TO.C,RN1*%
D16*
X37316666Y-74532353D02*
X36983333Y-74765686D01*
X37316666Y-74932353D02*
X36616666Y-74932353D01*
X36616666Y-74665686D01*
X36650000Y-74599020D01*
X36683333Y-74565686D01*
X36750000Y-74532353D01*
X36850000Y-74532353D01*
X36916666Y-74565686D01*
X36950000Y-74599020D01*
X36983333Y-74665686D01*
X36983333Y-74932353D01*
X37316666Y-74232353D02*
X36616666Y-74232353D01*
X37316666Y-73832353D01*
X36616666Y-73832353D01*
X37316666Y-73132353D02*
X37316666Y-73532353D01*
X37316666Y-73332353D02*
X36616666Y-73332353D01*
X36716666Y-73399020D01*
X36783333Y-73465686D01*
X36816666Y-73532353D01*
D11*
X36316666Y-74532353D02*
X36316666Y-74932353D01*
X36316666Y-74732353D02*
X35616666Y-74732353D01*
X35716666Y-74799020D01*
X35783333Y-74865686D01*
X35816666Y-74932353D01*
X35616666Y-74099020D02*
X35616666Y-74032353D01*
X35650000Y-73965686D01*
X35683333Y-73932353D01*
X35750000Y-73899020D01*
X35883333Y-73865686D01*
X36050000Y-73865686D01*
X36183333Y-73899020D01*
X36250000Y-73932353D01*
X36283333Y-73965686D01*
X36316666Y-74032353D01*
X36316666Y-74099020D01*
X36283333Y-74165686D01*
X36250000Y-74199020D01*
X36183333Y-74232353D01*
X36050000Y-74265686D01*
X35883333Y-74265686D01*
X35750000Y-74232353D01*
X35683333Y-74199020D01*
X35650000Y-74165686D01*
X35616666Y-74099020D01*
X36316666Y-73565686D02*
X35616666Y-73565686D01*
X36316666Y-73165686D02*
X35916666Y-73465686D01*
X35616666Y-73165686D02*
X36016666Y-73565686D01*
%TO.C,C9*%
X63837142Y-75756666D02*
X63884761Y-75804285D01*
X63932380Y-75947142D01*
X63932380Y-76042380D01*
X63884761Y-76185238D01*
X63789523Y-76280476D01*
X63694285Y-76328095D01*
X63503809Y-76375714D01*
X63360952Y-76375714D01*
X63170476Y-76328095D01*
X63075238Y-76280476D01*
X62980000Y-76185238D01*
X62932380Y-76042380D01*
X62932380Y-75947142D01*
X62980000Y-75804285D01*
X63027619Y-75756666D01*
X63932380Y-75280476D02*
X63932380Y-75090000D01*
X63884761Y-74994761D01*
X63837142Y-74947142D01*
X63694285Y-74851904D01*
X63503809Y-74804285D01*
X63122857Y-74804285D01*
X63027619Y-74851904D01*
X62980000Y-74899523D01*
X62932380Y-74994761D01*
X62932380Y-75185238D01*
X62980000Y-75280476D01*
X63027619Y-75328095D01*
X63122857Y-75375714D01*
X63360952Y-75375714D01*
X63456190Y-75328095D01*
X63503809Y-75280476D01*
X63551428Y-75185238D01*
X63551428Y-74994761D01*
X63503809Y-74899523D01*
X63456190Y-74851904D01*
X63360952Y-74804285D01*
%TO.C,C8*%
X63837142Y-71666666D02*
X63884761Y-71714285D01*
X63932380Y-71857142D01*
X63932380Y-71952380D01*
X63884761Y-72095238D01*
X63789523Y-72190476D01*
X63694285Y-72238095D01*
X63503809Y-72285714D01*
X63360952Y-72285714D01*
X63170476Y-72238095D01*
X63075238Y-72190476D01*
X62980000Y-72095238D01*
X62932380Y-71952380D01*
X62932380Y-71857142D01*
X62980000Y-71714285D01*
X63027619Y-71666666D01*
X63360952Y-71095238D02*
X63313333Y-71190476D01*
X63265714Y-71238095D01*
X63170476Y-71285714D01*
X63122857Y-71285714D01*
X63027619Y-71238095D01*
X62980000Y-71190476D01*
X62932380Y-71095238D01*
X62932380Y-70904761D01*
X62980000Y-70809523D01*
X63027619Y-70761904D01*
X63122857Y-70714285D01*
X63170476Y-70714285D01*
X63265714Y-70761904D01*
X63313333Y-70809523D01*
X63360952Y-70904761D01*
X63360952Y-71095238D01*
X63408571Y-71190476D01*
X63456190Y-71238095D01*
X63551428Y-71285714D01*
X63741904Y-71285714D01*
X63837142Y-71238095D01*
X63884761Y-71190476D01*
X63932380Y-71095238D01*
X63932380Y-70904761D01*
X63884761Y-70809523D01*
X63837142Y-70761904D01*
X63741904Y-70714285D01*
X63551428Y-70714285D01*
X63456190Y-70761904D01*
X63408571Y-70809523D01*
X63360952Y-70904761D01*
%TO.C,J5*%
X22302380Y-56833333D02*
X23016666Y-56833333D01*
X23159523Y-56880952D01*
X23254761Y-56976190D01*
X23302380Y-57119047D01*
X23302380Y-57214285D01*
X22302380Y-55880952D02*
X22302380Y-56357142D01*
X22778571Y-56404761D01*
X22730952Y-56357142D01*
X22683333Y-56261904D01*
X22683333Y-56023809D01*
X22730952Y-55928571D01*
X22778571Y-55880952D01*
X22873809Y-55833333D01*
X23111904Y-55833333D01*
X23207142Y-55880952D01*
X23254761Y-55928571D01*
X23302380Y-56023809D01*
X23302380Y-56261904D01*
X23254761Y-56357142D01*
X23207142Y-56404761D01*
%TO.C,C5*%
X33333333Y-105057142D02*
X33285714Y-105104761D01*
X33142857Y-105152380D01*
X33047619Y-105152380D01*
X32904761Y-105104761D01*
X32809523Y-105009523D01*
X32761904Y-104914285D01*
X32714285Y-104723809D01*
X32714285Y-104580952D01*
X32761904Y-104390476D01*
X32809523Y-104295238D01*
X32904761Y-104200000D01*
X33047619Y-104152380D01*
X33142857Y-104152380D01*
X33285714Y-104200000D01*
X33333333Y-104247619D01*
X34238095Y-104152380D02*
X33761904Y-104152380D01*
X33714285Y-104628571D01*
X33761904Y-104580952D01*
X33857142Y-104533333D01*
X34095238Y-104533333D01*
X34190476Y-104580952D01*
X34238095Y-104628571D01*
X34285714Y-104723809D01*
X34285714Y-104961904D01*
X34238095Y-105057142D01*
X34190476Y-105104761D01*
X34095238Y-105152380D01*
X33857142Y-105152380D01*
X33761904Y-105104761D01*
X33714285Y-105057142D01*
%TO.C,C6*%
X33333333Y-102257142D02*
X33285714Y-102304761D01*
X33142857Y-102352380D01*
X33047619Y-102352380D01*
X32904761Y-102304761D01*
X32809523Y-102209523D01*
X32761904Y-102114285D01*
X32714285Y-101923809D01*
X32714285Y-101780952D01*
X32761904Y-101590476D01*
X32809523Y-101495238D01*
X32904761Y-101400000D01*
X33047619Y-101352380D01*
X33142857Y-101352380D01*
X33285714Y-101400000D01*
X33333333Y-101447619D01*
X34190476Y-101352380D02*
X34000000Y-101352380D01*
X33904761Y-101400000D01*
X33857142Y-101447619D01*
X33761904Y-101590476D01*
X33714285Y-101780952D01*
X33714285Y-102161904D01*
X33761904Y-102257142D01*
X33809523Y-102304761D01*
X33904761Y-102352380D01*
X34095238Y-102352380D01*
X34190476Y-102304761D01*
X34238095Y-102257142D01*
X34285714Y-102161904D01*
X34285714Y-101923809D01*
X34238095Y-101828571D01*
X34190476Y-101780952D01*
X34095238Y-101733333D01*
X33904761Y-101733333D01*
X33809523Y-101780952D01*
X33761904Y-101828571D01*
X33714285Y-101923809D01*
%TO.C,C7*%
X33333333Y-98957142D02*
X33285714Y-99004761D01*
X33142857Y-99052380D01*
X33047619Y-99052380D01*
X32904761Y-99004761D01*
X32809523Y-98909523D01*
X32761904Y-98814285D01*
X32714285Y-98623809D01*
X32714285Y-98480952D01*
X32761904Y-98290476D01*
X32809523Y-98195238D01*
X32904761Y-98100000D01*
X33047619Y-98052380D01*
X33142857Y-98052380D01*
X33285714Y-98100000D01*
X33333333Y-98147619D01*
X33666666Y-98052380D02*
X34333333Y-98052380D01*
X33904761Y-99052380D01*
%TO.C,J1*%
X37502380Y-117883333D02*
X38216666Y-117883333D01*
X38359523Y-117930952D01*
X38454761Y-118026190D01*
X38502380Y-118169047D01*
X38502380Y-118264285D01*
X38502380Y-116883333D02*
X38502380Y-117454761D01*
X38502380Y-117169047D02*
X37502380Y-117169047D01*
X37645238Y-117264285D01*
X37740476Y-117359523D01*
X37788095Y-117454761D01*
%TO.C,R9*%
D16*
X44233333Y-80252380D02*
X43900000Y-79776190D01*
X43661904Y-80252380D02*
X43661904Y-79252380D01*
X44042857Y-79252380D01*
X44138095Y-79300000D01*
X44185714Y-79347619D01*
X44233333Y-79442857D01*
X44233333Y-79585714D01*
X44185714Y-79680952D01*
X44138095Y-79728571D01*
X44042857Y-79776190D01*
X43661904Y-79776190D01*
X44709523Y-80252380D02*
X44900000Y-80252380D01*
X44995238Y-80204761D01*
X45042857Y-80157142D01*
X45138095Y-80014285D01*
X45185714Y-79823809D01*
X45185714Y-79442857D01*
X45138095Y-79347619D01*
X45090476Y-79300000D01*
X44995238Y-79252380D01*
X44804761Y-79252380D01*
X44709523Y-79300000D01*
X44661904Y-79347619D01*
X44614285Y-79442857D01*
X44614285Y-79680952D01*
X44661904Y-79776190D01*
X44709523Y-79823809D01*
X44804761Y-79871428D01*
X44995238Y-79871428D01*
X45090476Y-79823809D01*
X45138095Y-79776190D01*
X45185714Y-79680952D01*
D13*
X43816666Y-78926190D02*
X43530952Y-78926190D01*
X43673809Y-78926190D02*
X43673809Y-78426190D01*
X43626190Y-78497619D01*
X43578571Y-78545238D01*
X43530952Y-78569047D01*
X44126190Y-78426190D02*
X44173809Y-78426190D01*
X44221428Y-78450000D01*
X44245238Y-78473809D01*
X44269047Y-78521428D01*
X44292857Y-78616666D01*
X44292857Y-78735714D01*
X44269047Y-78830952D01*
X44245238Y-78878571D01*
X44221428Y-78902380D01*
X44173809Y-78926190D01*
X44126190Y-78926190D01*
X44078571Y-78902380D01*
X44054761Y-78878571D01*
X44030952Y-78830952D01*
X44007142Y-78735714D01*
X44007142Y-78616666D01*
X44030952Y-78521428D01*
X44054761Y-78473809D01*
X44078571Y-78450000D01*
X44126190Y-78426190D01*
X44602380Y-78426190D02*
X44650000Y-78426190D01*
X44697619Y-78450000D01*
X44721428Y-78473809D01*
X44745238Y-78521428D01*
X44769047Y-78616666D01*
X44769047Y-78735714D01*
X44745238Y-78830952D01*
X44721428Y-78878571D01*
X44697619Y-78902380D01*
X44650000Y-78926190D01*
X44602380Y-78926190D01*
X44554761Y-78902380D01*
X44530952Y-78878571D01*
X44507142Y-78830952D01*
X44483333Y-78735714D01*
X44483333Y-78616666D01*
X44507142Y-78521428D01*
X44530952Y-78473809D01*
X44554761Y-78450000D01*
X44602380Y-78426190D01*
X44983333Y-78926190D02*
X44983333Y-78426190D01*
X45269047Y-78926190D02*
X45054761Y-78640476D01*
X45269047Y-78426190D02*
X44983333Y-78711904D01*
%TO.C,R8*%
D16*
X47130666Y-80259619D02*
X46792000Y-79775809D01*
X46550095Y-80259619D02*
X46550095Y-79243619D01*
X46937142Y-79243619D01*
X47033904Y-79292000D01*
X47082285Y-79340380D01*
X47130666Y-79437142D01*
X47130666Y-79582285D01*
X47082285Y-79679047D01*
X47033904Y-79727428D01*
X46937142Y-79775809D01*
X46550095Y-79775809D01*
X47711238Y-79679047D02*
X47614476Y-79630666D01*
X47566095Y-79582285D01*
X47517714Y-79485523D01*
X47517714Y-79437142D01*
X47566095Y-79340380D01*
X47614476Y-79292000D01*
X47711238Y-79243619D01*
X47904761Y-79243619D01*
X48001523Y-79292000D01*
X48049904Y-79340380D01*
X48098285Y-79437142D01*
X48098285Y-79485523D01*
X48049904Y-79582285D01*
X48001523Y-79630666D01*
X47904761Y-79679047D01*
X47711238Y-79679047D01*
X47614476Y-79727428D01*
X47566095Y-79775809D01*
X47517714Y-79872571D01*
X47517714Y-80066095D01*
X47566095Y-80162857D01*
X47614476Y-80211238D01*
X47711238Y-80259619D01*
X47904761Y-80259619D01*
X48001523Y-80211238D01*
X48049904Y-80162857D01*
X48098285Y-80066095D01*
X48098285Y-79872571D01*
X48049904Y-79775809D01*
X48001523Y-79727428D01*
X47904761Y-79679047D01*
D13*
X46816666Y-78926190D02*
X46530952Y-78926190D01*
X46673809Y-78926190D02*
X46673809Y-78426190D01*
X46626190Y-78497619D01*
X46578571Y-78545238D01*
X46530952Y-78569047D01*
X47126190Y-78426190D02*
X47173809Y-78426190D01*
X47221428Y-78450000D01*
X47245238Y-78473809D01*
X47269047Y-78521428D01*
X47292857Y-78616666D01*
X47292857Y-78735714D01*
X47269047Y-78830952D01*
X47245238Y-78878571D01*
X47221428Y-78902380D01*
X47173809Y-78926190D01*
X47126190Y-78926190D01*
X47078571Y-78902380D01*
X47054761Y-78878571D01*
X47030952Y-78830952D01*
X47007142Y-78735714D01*
X47007142Y-78616666D01*
X47030952Y-78521428D01*
X47054761Y-78473809D01*
X47078571Y-78450000D01*
X47126190Y-78426190D01*
X47602380Y-78426190D02*
X47650000Y-78426190D01*
X47697619Y-78450000D01*
X47721428Y-78473809D01*
X47745238Y-78521428D01*
X47769047Y-78616666D01*
X47769047Y-78735714D01*
X47745238Y-78830952D01*
X47721428Y-78878571D01*
X47697619Y-78902380D01*
X47650000Y-78926190D01*
X47602380Y-78926190D01*
X47554761Y-78902380D01*
X47530952Y-78878571D01*
X47507142Y-78830952D01*
X47483333Y-78735714D01*
X47483333Y-78616666D01*
X47507142Y-78521428D01*
X47530952Y-78473809D01*
X47554761Y-78450000D01*
X47602380Y-78426190D01*
X47983333Y-78926190D02*
X47983333Y-78426190D01*
X48269047Y-78926190D02*
X48054761Y-78640476D01*
X48269047Y-78426190D02*
X47983333Y-78711904D01*
%TO.C,R7*%
D16*
X52530666Y-79959619D02*
X52192000Y-79475809D01*
X51950095Y-79959619D02*
X51950095Y-78943619D01*
X52337142Y-78943619D01*
X52433904Y-78992000D01*
X52482285Y-79040380D01*
X52530666Y-79137142D01*
X52530666Y-79282285D01*
X52482285Y-79379047D01*
X52433904Y-79427428D01*
X52337142Y-79475809D01*
X51950095Y-79475809D01*
X52869333Y-78943619D02*
X53546666Y-78943619D01*
X53111238Y-79959619D01*
D13*
X52216666Y-78626190D02*
X51930952Y-78626190D01*
X52073809Y-78626190D02*
X52073809Y-78126190D01*
X52026190Y-78197619D01*
X51978571Y-78245238D01*
X51930952Y-78269047D01*
X52526190Y-78126190D02*
X52573809Y-78126190D01*
X52621428Y-78150000D01*
X52645238Y-78173809D01*
X52669047Y-78221428D01*
X52692857Y-78316666D01*
X52692857Y-78435714D01*
X52669047Y-78530952D01*
X52645238Y-78578571D01*
X52621428Y-78602380D01*
X52573809Y-78626190D01*
X52526190Y-78626190D01*
X52478571Y-78602380D01*
X52454761Y-78578571D01*
X52430952Y-78530952D01*
X52407142Y-78435714D01*
X52407142Y-78316666D01*
X52430952Y-78221428D01*
X52454761Y-78173809D01*
X52478571Y-78150000D01*
X52526190Y-78126190D01*
X53002380Y-78126190D02*
X53050000Y-78126190D01*
X53097619Y-78150000D01*
X53121428Y-78173809D01*
X53145238Y-78221428D01*
X53169047Y-78316666D01*
X53169047Y-78435714D01*
X53145238Y-78530952D01*
X53121428Y-78578571D01*
X53097619Y-78602380D01*
X53050000Y-78626190D01*
X53002380Y-78626190D01*
X52954761Y-78602380D01*
X52930952Y-78578571D01*
X52907142Y-78530952D01*
X52883333Y-78435714D01*
X52883333Y-78316666D01*
X52907142Y-78221428D01*
X52930952Y-78173809D01*
X52954761Y-78150000D01*
X53002380Y-78126190D01*
X53383333Y-78626190D02*
X53383333Y-78126190D01*
X53669047Y-78626190D02*
X53454761Y-78340476D01*
X53669047Y-78126190D02*
X53383333Y-78411904D01*
%TO.C,R6*%
D16*
X55530666Y-79959619D02*
X55192000Y-79475809D01*
X54950095Y-79959619D02*
X54950095Y-78943619D01*
X55337142Y-78943619D01*
X55433904Y-78992000D01*
X55482285Y-79040380D01*
X55530666Y-79137142D01*
X55530666Y-79282285D01*
X55482285Y-79379047D01*
X55433904Y-79427428D01*
X55337142Y-79475809D01*
X54950095Y-79475809D01*
X56401523Y-78943619D02*
X56208000Y-78943619D01*
X56111238Y-78992000D01*
X56062857Y-79040380D01*
X55966095Y-79185523D01*
X55917714Y-79379047D01*
X55917714Y-79766095D01*
X55966095Y-79862857D01*
X56014476Y-79911238D01*
X56111238Y-79959619D01*
X56304761Y-79959619D01*
X56401523Y-79911238D01*
X56449904Y-79862857D01*
X56498285Y-79766095D01*
X56498285Y-79524190D01*
X56449904Y-79427428D01*
X56401523Y-79379047D01*
X56304761Y-79330666D01*
X56111238Y-79330666D01*
X56014476Y-79379047D01*
X55966095Y-79427428D01*
X55917714Y-79524190D01*
D13*
X55216666Y-78626190D02*
X54930952Y-78626190D01*
X55073809Y-78626190D02*
X55073809Y-78126190D01*
X55026190Y-78197619D01*
X54978571Y-78245238D01*
X54930952Y-78269047D01*
X55526190Y-78126190D02*
X55573809Y-78126190D01*
X55621428Y-78150000D01*
X55645238Y-78173809D01*
X55669047Y-78221428D01*
X55692857Y-78316666D01*
X55692857Y-78435714D01*
X55669047Y-78530952D01*
X55645238Y-78578571D01*
X55621428Y-78602380D01*
X55573809Y-78626190D01*
X55526190Y-78626190D01*
X55478571Y-78602380D01*
X55454761Y-78578571D01*
X55430952Y-78530952D01*
X55407142Y-78435714D01*
X55407142Y-78316666D01*
X55430952Y-78221428D01*
X55454761Y-78173809D01*
X55478571Y-78150000D01*
X55526190Y-78126190D01*
X56002380Y-78126190D02*
X56050000Y-78126190D01*
X56097619Y-78150000D01*
X56121428Y-78173809D01*
X56145238Y-78221428D01*
X56169047Y-78316666D01*
X56169047Y-78435714D01*
X56145238Y-78530952D01*
X56121428Y-78578571D01*
X56097619Y-78602380D01*
X56050000Y-78626190D01*
X56002380Y-78626190D01*
X55954761Y-78602380D01*
X55930952Y-78578571D01*
X55907142Y-78530952D01*
X55883333Y-78435714D01*
X55883333Y-78316666D01*
X55907142Y-78221428D01*
X55930952Y-78173809D01*
X55954761Y-78150000D01*
X56002380Y-78126190D01*
X56383333Y-78626190D02*
X56383333Y-78126190D01*
X56669047Y-78626190D02*
X56454761Y-78340476D01*
X56669047Y-78126190D02*
X56383333Y-78411904D01*
%TO.C,R5*%
D11*
X48009333Y-41118380D02*
X47676000Y-40642190D01*
X47437904Y-41118380D02*
X47437904Y-40118380D01*
X47818857Y-40118380D01*
X47914095Y-40166000D01*
X47961714Y-40213619D01*
X48009333Y-40308857D01*
X48009333Y-40451714D01*
X47961714Y-40546952D01*
X47914095Y-40594571D01*
X47818857Y-40642190D01*
X47437904Y-40642190D01*
X48914095Y-40118380D02*
X48437904Y-40118380D01*
X48390285Y-40594571D01*
X48437904Y-40546952D01*
X48533142Y-40499333D01*
X48771238Y-40499333D01*
X48866476Y-40546952D01*
X48914095Y-40594571D01*
X48961714Y-40689809D01*
X48961714Y-40927904D01*
X48914095Y-41023142D01*
X48866476Y-41070761D01*
X48771238Y-41118380D01*
X48533142Y-41118380D01*
X48437904Y-41070761D01*
X48390285Y-41023142D01*
%TO.C,C4*%
X33027142Y-64654166D02*
X33074761Y-64701785D01*
X33122380Y-64844642D01*
X33122380Y-64939880D01*
X33074761Y-65082738D01*
X32979523Y-65177976D01*
X32884285Y-65225595D01*
X32693809Y-65273214D01*
X32550952Y-65273214D01*
X32360476Y-65225595D01*
X32265238Y-65177976D01*
X32170000Y-65082738D01*
X32122380Y-64939880D01*
X32122380Y-64844642D01*
X32170000Y-64701785D01*
X32217619Y-64654166D01*
X32455714Y-63797023D02*
X33122380Y-63797023D01*
X32074761Y-64035119D02*
X32789047Y-64273214D01*
X32789047Y-63654166D01*
%TO.C,J3*%
X30002380Y-36383333D02*
X30716666Y-36383333D01*
X30859523Y-36430952D01*
X30954761Y-36526190D01*
X31002380Y-36669047D01*
X31002380Y-36764285D01*
X30002380Y-36002380D02*
X30002380Y-35383333D01*
X30383333Y-35716666D01*
X30383333Y-35573809D01*
X30430952Y-35478571D01*
X30478571Y-35430952D01*
X30573809Y-35383333D01*
X30811904Y-35383333D01*
X30907142Y-35430952D01*
X30954761Y-35478571D01*
X31002380Y-35573809D01*
X31002380Y-35859523D01*
X30954761Y-35954761D01*
X30907142Y-36002380D01*
%TO.C,U4*%
X45227380Y-98711904D02*
X46036904Y-98711904D01*
X46132142Y-98664285D01*
X46179761Y-98616666D01*
X46227380Y-98521428D01*
X46227380Y-98330952D01*
X46179761Y-98235714D01*
X46132142Y-98188095D01*
X46036904Y-98140476D01*
X45227380Y-98140476D01*
X45560714Y-97235714D02*
X46227380Y-97235714D01*
X45179761Y-97473809D02*
X45894047Y-97711904D01*
X45894047Y-97092857D01*
%TO.C,U3*%
X34452380Y-96661904D02*
X35261904Y-96661904D01*
X35357142Y-96614285D01*
X35404761Y-96566666D01*
X35452380Y-96471428D01*
X35452380Y-96280952D01*
X35404761Y-96185714D01*
X35357142Y-96138095D01*
X35261904Y-96090476D01*
X34452380Y-96090476D01*
X34452380Y-95709523D02*
X34452380Y-95090476D01*
X34833333Y-95423809D01*
X34833333Y-95280952D01*
X34880952Y-95185714D01*
X34928571Y-95138095D01*
X35023809Y-95090476D01*
X35261904Y-95090476D01*
X35357142Y-95138095D01*
X35404761Y-95185714D01*
X35452380Y-95280952D01*
X35452380Y-95566666D01*
X35404761Y-95661904D01*
X35357142Y-95709523D01*
%TO.C,U2*%
X38338857Y-74265428D02*
X38338857Y-75499142D01*
X38411428Y-75644285D01*
X38484000Y-75716857D01*
X38629142Y-75789428D01*
X38919428Y-75789428D01*
X39064571Y-75716857D01*
X39137142Y-75644285D01*
X39209714Y-75499142D01*
X39209714Y-74265428D01*
X39862857Y-74410571D02*
X39935428Y-74338000D01*
X40080571Y-74265428D01*
X40443428Y-74265428D01*
X40588571Y-74338000D01*
X40661142Y-74410571D01*
X40733714Y-74555714D01*
X40733714Y-74700857D01*
X40661142Y-74918571D01*
X39790285Y-75789428D01*
X40733714Y-75789428D01*
D13*
X37118190Y-72380952D02*
X37118190Y-72285714D01*
X37142000Y-72238095D01*
X37189619Y-72190476D01*
X37284857Y-72166666D01*
X37451523Y-72166666D01*
X37546761Y-72190476D01*
X37594380Y-72238095D01*
X37618190Y-72285714D01*
X37618190Y-72380952D01*
X37594380Y-72428571D01*
X37546761Y-72476190D01*
X37451523Y-72500000D01*
X37284857Y-72500000D01*
X37189619Y-72476190D01*
X37142000Y-72428571D01*
X37118190Y-72380952D01*
X37594380Y-71976190D02*
X37618190Y-71904761D01*
X37618190Y-71785714D01*
X37594380Y-71738095D01*
X37570571Y-71714285D01*
X37522952Y-71690476D01*
X37475333Y-71690476D01*
X37427714Y-71714285D01*
X37403904Y-71738095D01*
X37380095Y-71785714D01*
X37356285Y-71880952D01*
X37332476Y-71928571D01*
X37308666Y-71952380D01*
X37261047Y-71976190D01*
X37213428Y-71976190D01*
X37165809Y-71952380D01*
X37142000Y-71928571D01*
X37118190Y-71880952D01*
X37118190Y-71761904D01*
X37142000Y-71690476D01*
X37618190Y-71476190D02*
X37118190Y-71476190D01*
X37118190Y-71357142D01*
X37142000Y-71285714D01*
X37189619Y-71238095D01*
X37237238Y-71214285D01*
X37332476Y-71190476D01*
X37403904Y-71190476D01*
X37499142Y-71214285D01*
X37546761Y-71238095D01*
X37594380Y-71285714D01*
X37618190Y-71357142D01*
X37618190Y-71476190D01*
X37118190Y-71023809D02*
X37118190Y-70714285D01*
X37308666Y-70880952D01*
X37308666Y-70809523D01*
X37332476Y-70761904D01*
X37356285Y-70738095D01*
X37403904Y-70714285D01*
X37522952Y-70714285D01*
X37570571Y-70738095D01*
X37594380Y-70761904D01*
X37618190Y-70809523D01*
X37618190Y-70952380D01*
X37594380Y-71000000D01*
X37570571Y-71023809D01*
X37118190Y-70547619D02*
X37118190Y-70238095D01*
X37308666Y-70404761D01*
X37308666Y-70333333D01*
X37332476Y-70285714D01*
X37356285Y-70261904D01*
X37403904Y-70238095D01*
X37522952Y-70238095D01*
X37570571Y-70261904D01*
X37594380Y-70285714D01*
X37618190Y-70333333D01*
X37618190Y-70476190D01*
X37594380Y-70523809D01*
X37570571Y-70547619D01*
X37118190Y-69785714D02*
X37118190Y-70023809D01*
X37356285Y-70047619D01*
X37332476Y-70023809D01*
X37308666Y-69976190D01*
X37308666Y-69857142D01*
X37332476Y-69809523D01*
X37356285Y-69785714D01*
X37403904Y-69761904D01*
X37522952Y-69761904D01*
X37570571Y-69785714D01*
X37594380Y-69809523D01*
X37618190Y-69857142D01*
X37618190Y-69976190D01*
X37594380Y-70023809D01*
X37570571Y-70047619D01*
X37332476Y-69476190D02*
X37308666Y-69523809D01*
X37284857Y-69547619D01*
X37237238Y-69571428D01*
X37213428Y-69571428D01*
X37165809Y-69547619D01*
X37142000Y-69523809D01*
X37118190Y-69476190D01*
X37118190Y-69380952D01*
X37142000Y-69333333D01*
X37165809Y-69309523D01*
X37213428Y-69285714D01*
X37237238Y-69285714D01*
X37284857Y-69309523D01*
X37308666Y-69333333D01*
X37332476Y-69380952D01*
X37332476Y-69476190D01*
X37356285Y-69523809D01*
X37380095Y-69547619D01*
X37427714Y-69571428D01*
X37522952Y-69571428D01*
X37570571Y-69547619D01*
X37594380Y-69523809D01*
X37618190Y-69476190D01*
X37618190Y-69380952D01*
X37594380Y-69333333D01*
X37570571Y-69309523D01*
X37522952Y-69285714D01*
X37427714Y-69285714D01*
X37380095Y-69309523D01*
X37356285Y-69333333D01*
X37332476Y-69380952D01*
X37427714Y-69071428D02*
X37427714Y-68690476D01*
X37118190Y-68214285D02*
X37118190Y-68452380D01*
X37356285Y-68476190D01*
X37332476Y-68452380D01*
X37308666Y-68404761D01*
X37308666Y-68285714D01*
X37332476Y-68238095D01*
X37356285Y-68214285D01*
X37403904Y-68190476D01*
X37522952Y-68190476D01*
X37570571Y-68214285D01*
X37594380Y-68238095D01*
X37618190Y-68285714D01*
X37618190Y-68404761D01*
X37594380Y-68452380D01*
X37570571Y-68476190D01*
X37618190Y-67714285D02*
X37618190Y-68000000D01*
X37618190Y-67857142D02*
X37118190Y-67857142D01*
X37189619Y-67904761D01*
X37237238Y-67952380D01*
X37261047Y-68000000D01*
X37165809Y-67523809D02*
X37142000Y-67500000D01*
X37118190Y-67452380D01*
X37118190Y-67333333D01*
X37142000Y-67285714D01*
X37165809Y-67261904D01*
X37213428Y-67238095D01*
X37261047Y-67238095D01*
X37332476Y-67261904D01*
X37618190Y-67547619D01*
X37618190Y-67238095D01*
X37618190Y-67023809D02*
X37118190Y-67023809D01*
X37475333Y-66857142D01*
X37118190Y-66690476D01*
X37618190Y-66690476D01*
X37427714Y-66452380D02*
X37427714Y-66071428D01*
X37356285Y-65666666D02*
X37380095Y-65595238D01*
X37403904Y-65571428D01*
X37451523Y-65547619D01*
X37522952Y-65547619D01*
X37570571Y-65571428D01*
X37594380Y-65595238D01*
X37618190Y-65642857D01*
X37618190Y-65833333D01*
X37118190Y-65833333D01*
X37118190Y-65666666D01*
X37142000Y-65619047D01*
X37165809Y-65595238D01*
X37213428Y-65571428D01*
X37261047Y-65571428D01*
X37308666Y-65595238D01*
X37332476Y-65619047D01*
X37356285Y-65666666D01*
X37356285Y-65833333D01*
X37594380Y-65357142D02*
X37618190Y-65285714D01*
X37618190Y-65166666D01*
X37594380Y-65119047D01*
X37570571Y-65095238D01*
X37522952Y-65071428D01*
X37475333Y-65071428D01*
X37427714Y-65095238D01*
X37403904Y-65119047D01*
X37380095Y-65166666D01*
X37356285Y-65261904D01*
X37332476Y-65309523D01*
X37308666Y-65333333D01*
X37261047Y-65357142D01*
X37213428Y-65357142D01*
X37165809Y-65333333D01*
X37142000Y-65309523D01*
X37118190Y-65261904D01*
X37118190Y-65142857D01*
X37142000Y-65071428D01*
X37618190Y-64857142D02*
X37118190Y-64857142D01*
X37475333Y-64690476D01*
X37118190Y-64523809D01*
X37618190Y-64523809D01*
D19*
X38752485Y-53845971D02*
X38404142Y-53845971D01*
X38578314Y-53845971D02*
X38578314Y-53236371D01*
X38520257Y-53323457D01*
X38462200Y-53381514D01*
X38404142Y-53410542D01*
X39275000Y-53236371D02*
X39158885Y-53236371D01*
X39100828Y-53265400D01*
X39071800Y-53294428D01*
X39013742Y-53381514D01*
X38984714Y-53497628D01*
X38984714Y-53729857D01*
X39013742Y-53787914D01*
X39042771Y-53816942D01*
X39100828Y-53845971D01*
X39216942Y-53845971D01*
X39275000Y-53816942D01*
X39304028Y-53787914D01*
X39333057Y-53729857D01*
X39333057Y-53584714D01*
X39304028Y-53526657D01*
X39275000Y-53497628D01*
X39216942Y-53468600D01*
X39100828Y-53468600D01*
X39042771Y-53497628D01*
X39013742Y-53526657D01*
X38984714Y-53584714D01*
X38737971Y-72895971D02*
X38389628Y-72895971D01*
X38563800Y-72895971D02*
X38563800Y-72286371D01*
X38505742Y-72373457D01*
X38447685Y-72431514D01*
X38389628Y-72460542D01*
X58455628Y-74066171D02*
X58803971Y-74066171D01*
X58629800Y-74675771D02*
X58629800Y-74066171D01*
X39434657Y-73862260D02*
X39724942Y-73862260D01*
X39376600Y-74036431D02*
X39579800Y-73426831D01*
X39783000Y-74036431D01*
%TO.C,U1*%
D11*
X52638095Y-31452380D02*
X52638095Y-32261904D01*
X52685714Y-32357142D01*
X52733333Y-32404761D01*
X52828571Y-32452380D01*
X53019047Y-32452380D01*
X53114285Y-32404761D01*
X53161904Y-32357142D01*
X53209523Y-32261904D01*
X53209523Y-31452380D01*
X54209523Y-32452380D02*
X53638095Y-32452380D01*
X53923809Y-32452380D02*
X53923809Y-31452380D01*
X53828571Y-31595238D01*
X53733333Y-31690476D01*
X53638095Y-31738095D01*
%TO.C,R23*%
X50066142Y-25952380D02*
X49732809Y-25476190D01*
X49494714Y-25952380D02*
X49494714Y-24952380D01*
X49875666Y-24952380D01*
X49970904Y-25000000D01*
X50018523Y-25047619D01*
X50066142Y-25142857D01*
X50066142Y-25285714D01*
X50018523Y-25380952D01*
X49970904Y-25428571D01*
X49875666Y-25476190D01*
X49494714Y-25476190D01*
X50447095Y-25047619D02*
X50494714Y-25000000D01*
X50589952Y-24952380D01*
X50828047Y-24952380D01*
X50923285Y-25000000D01*
X50970904Y-25047619D01*
X51018523Y-25142857D01*
X51018523Y-25238095D01*
X50970904Y-25380952D01*
X50399476Y-25952380D01*
X51018523Y-25952380D01*
X51351857Y-24952380D02*
X51970904Y-24952380D01*
X51637571Y-25333333D01*
X51780428Y-25333333D01*
X51875666Y-25380952D01*
X51923285Y-25428571D01*
X51970904Y-25523809D01*
X51970904Y-25761904D01*
X51923285Y-25857142D01*
X51875666Y-25904761D01*
X51780428Y-25952380D01*
X51494714Y-25952380D01*
X51399476Y-25904761D01*
X51351857Y-25857142D01*
%TO.C,Q2*%
X42204761Y-34647619D02*
X42109523Y-34600000D01*
X42014285Y-34504761D01*
X41871428Y-34361904D01*
X41776190Y-34314285D01*
X41680952Y-34314285D01*
X41728571Y-34552380D02*
X41633333Y-34504761D01*
X41538095Y-34409523D01*
X41490476Y-34219047D01*
X41490476Y-33885714D01*
X41538095Y-33695238D01*
X41633333Y-33600000D01*
X41728571Y-33552380D01*
X41919047Y-33552380D01*
X42014285Y-33600000D01*
X42109523Y-33695238D01*
X42157142Y-33885714D01*
X42157142Y-34219047D01*
X42109523Y-34409523D01*
X42014285Y-34504761D01*
X41919047Y-34552380D01*
X41728571Y-34552380D01*
X42538095Y-33647619D02*
X42585714Y-33600000D01*
X42680952Y-33552380D01*
X42919047Y-33552380D01*
X43014285Y-33600000D01*
X43061904Y-33647619D01*
X43109523Y-33742857D01*
X43109523Y-33838095D01*
X43061904Y-33980952D01*
X42490476Y-34552380D01*
X43109523Y-34552380D01*
%TO.C,C3*%
X50549333Y-29941142D02*
X50501714Y-29988761D01*
X50358857Y-30036380D01*
X50263619Y-30036380D01*
X50120761Y-29988761D01*
X50025523Y-29893523D01*
X49977904Y-29798285D01*
X49930285Y-29607809D01*
X49930285Y-29464952D01*
X49977904Y-29274476D01*
X50025523Y-29179238D01*
X50120761Y-29084000D01*
X50263619Y-29036380D01*
X50358857Y-29036380D01*
X50501714Y-29084000D01*
X50549333Y-29131619D01*
X50882666Y-29036380D02*
X51501714Y-29036380D01*
X51168380Y-29417333D01*
X51311238Y-29417333D01*
X51406476Y-29464952D01*
X51454095Y-29512571D01*
X51501714Y-29607809D01*
X51501714Y-29845904D01*
X51454095Y-29941142D01*
X51406476Y-29988761D01*
X51311238Y-30036380D01*
X51025523Y-30036380D01*
X50930285Y-29988761D01*
X50882666Y-29941142D01*
%TO.C,C2*%
X47247333Y-36545142D02*
X47199714Y-36592761D01*
X47056857Y-36640380D01*
X46961619Y-36640380D01*
X46818761Y-36592761D01*
X46723523Y-36497523D01*
X46675904Y-36402285D01*
X46628285Y-36211809D01*
X46628285Y-36068952D01*
X46675904Y-35878476D01*
X46723523Y-35783238D01*
X46818761Y-35688000D01*
X46961619Y-35640380D01*
X47056857Y-35640380D01*
X47199714Y-35688000D01*
X47247333Y-35735619D01*
X47628285Y-35735619D02*
X47675904Y-35688000D01*
X47771142Y-35640380D01*
X48009238Y-35640380D01*
X48104476Y-35688000D01*
X48152095Y-35735619D01*
X48199714Y-35830857D01*
X48199714Y-35926095D01*
X48152095Y-36068952D01*
X47580666Y-36640380D01*
X48199714Y-36640380D01*
%TO.C,R3*%
X60033333Y-29422380D02*
X59700000Y-28946190D01*
X59461904Y-29422380D02*
X59461904Y-28422380D01*
X59842857Y-28422380D01*
X59938095Y-28470000D01*
X59985714Y-28517619D01*
X60033333Y-28612857D01*
X60033333Y-28755714D01*
X59985714Y-28850952D01*
X59938095Y-28898571D01*
X59842857Y-28946190D01*
X59461904Y-28946190D01*
X60366666Y-28422380D02*
X60985714Y-28422380D01*
X60652380Y-28803333D01*
X60795238Y-28803333D01*
X60890476Y-28850952D01*
X60938095Y-28898571D01*
X60985714Y-28993809D01*
X60985714Y-29231904D01*
X60938095Y-29327142D01*
X60890476Y-29374761D01*
X60795238Y-29422380D01*
X60509523Y-29422380D01*
X60414285Y-29374761D01*
X60366666Y-29327142D01*
%TO.C,R4*%
X60033333Y-26152380D02*
X59700000Y-25676190D01*
X59461904Y-26152380D02*
X59461904Y-25152380D01*
X59842857Y-25152380D01*
X59938095Y-25200000D01*
X59985714Y-25247619D01*
X60033333Y-25342857D01*
X60033333Y-25485714D01*
X59985714Y-25580952D01*
X59938095Y-25628571D01*
X59842857Y-25676190D01*
X59461904Y-25676190D01*
X60890476Y-25485714D02*
X60890476Y-26152380D01*
X60652380Y-25104761D02*
X60414285Y-25819047D01*
X61033333Y-25819047D01*
%TO.C,R2*%
X59933333Y-33052380D02*
X59600000Y-32576190D01*
X59361904Y-33052380D02*
X59361904Y-32052380D01*
X59742857Y-32052380D01*
X59838095Y-32100000D01*
X59885714Y-32147619D01*
X59933333Y-32242857D01*
X59933333Y-32385714D01*
X59885714Y-32480952D01*
X59838095Y-32528571D01*
X59742857Y-32576190D01*
X59361904Y-32576190D01*
X60314285Y-32147619D02*
X60361904Y-32100000D01*
X60457142Y-32052380D01*
X60695238Y-32052380D01*
X60790476Y-32100000D01*
X60838095Y-32147619D01*
X60885714Y-32242857D01*
X60885714Y-32338095D01*
X60838095Y-32480952D01*
X60266666Y-33052380D01*
X60885714Y-33052380D01*
%TO.C,Q1*%
X70404761Y-25247619D02*
X70309523Y-25200000D01*
X70214285Y-25104761D01*
X70071428Y-24961904D01*
X69976190Y-24914285D01*
X69880952Y-24914285D01*
X69928571Y-25152380D02*
X69833333Y-25104761D01*
X69738095Y-25009523D01*
X69690476Y-24819047D01*
X69690476Y-24485714D01*
X69738095Y-24295238D01*
X69833333Y-24200000D01*
X69928571Y-24152380D01*
X70119047Y-24152380D01*
X70214285Y-24200000D01*
X70309523Y-24295238D01*
X70357142Y-24485714D01*
X70357142Y-24819047D01*
X70309523Y-25009523D01*
X70214285Y-25104761D01*
X70119047Y-25152380D01*
X69928571Y-25152380D01*
X71309523Y-25152380D02*
X70738095Y-25152380D01*
X71023809Y-25152380D02*
X71023809Y-24152380D01*
X70928571Y-24295238D01*
X70833333Y-24390476D01*
X70738095Y-24438095D01*
%TO.C,R1*%
X80937380Y-112409166D02*
X80461190Y-112742500D01*
X80937380Y-112980595D02*
X79937380Y-112980595D01*
X79937380Y-112599642D01*
X79985000Y-112504404D01*
X80032619Y-112456785D01*
X80127857Y-112409166D01*
X80270714Y-112409166D01*
X80365952Y-112456785D01*
X80413571Y-112504404D01*
X80461190Y-112599642D01*
X80461190Y-112980595D01*
X80937380Y-111456785D02*
X80937380Y-112028214D01*
X80937380Y-111742500D02*
X79937380Y-111742500D01*
X80080238Y-111837738D01*
X80175476Y-111932976D01*
X80223095Y-112028214D01*
%TO.C,H4*%
X80670495Y-20128380D02*
X80670495Y-19128380D01*
X80670495Y-19604571D02*
X81241923Y-19604571D01*
X81241923Y-20128380D02*
X81241923Y-19128380D01*
X82146685Y-19461714D02*
X82146685Y-20128380D01*
X81908590Y-19080761D02*
X81670495Y-19795047D01*
X82289542Y-19795047D01*
%TO.C,H3*%
X17170495Y-20026780D02*
X17170495Y-19026780D01*
X17170495Y-19502971D02*
X17741923Y-19502971D01*
X17741923Y-20026780D02*
X17741923Y-19026780D01*
X18122876Y-19026780D02*
X18741923Y-19026780D01*
X18408590Y-19407733D01*
X18551447Y-19407733D01*
X18646685Y-19455352D01*
X18694304Y-19502971D01*
X18741923Y-19598209D01*
X18741923Y-19836304D01*
X18694304Y-19931542D01*
X18646685Y-19979161D01*
X18551447Y-20026780D01*
X18265733Y-20026780D01*
X18170495Y-19979161D01*
X18122876Y-19931542D01*
%TO.C,H2*%
X18338895Y-115225980D02*
X18338895Y-114225980D01*
X18338895Y-114702171D02*
X18910323Y-114702171D01*
X18910323Y-115225980D02*
X18910323Y-114225980D01*
X19338895Y-114321219D02*
X19386514Y-114273600D01*
X19481752Y-114225980D01*
X19719847Y-114225980D01*
X19815085Y-114273600D01*
X19862704Y-114321219D01*
X19910323Y-114416457D01*
X19910323Y-114511695D01*
X19862704Y-114654552D01*
X19291276Y-115225980D01*
X19910323Y-115225980D01*
%TO.C,H1*%
X83058095Y-116276380D02*
X83058095Y-115276380D01*
X83058095Y-115752571D02*
X83629523Y-115752571D01*
X83629523Y-116276380D02*
X83629523Y-115276380D01*
X84629523Y-116276380D02*
X84058095Y-116276380D01*
X84343809Y-116276380D02*
X84343809Y-115276380D01*
X84248571Y-115419238D01*
X84153333Y-115514476D01*
X84058095Y-115562095D01*
%TO.C,R22*%
X72220180Y-34952857D02*
X71743990Y-35286190D01*
X72220180Y-35524285D02*
X71220180Y-35524285D01*
X71220180Y-35143333D01*
X71267800Y-35048095D01*
X71315419Y-35000476D01*
X71410657Y-34952857D01*
X71553514Y-34952857D01*
X71648752Y-35000476D01*
X71696371Y-35048095D01*
X71743990Y-35143333D01*
X71743990Y-35524285D01*
X71315419Y-34571904D02*
X71267800Y-34524285D01*
X71220180Y-34429047D01*
X71220180Y-34190952D01*
X71267800Y-34095714D01*
X71315419Y-34048095D01*
X71410657Y-34000476D01*
X71505895Y-34000476D01*
X71648752Y-34048095D01*
X72220180Y-34619523D01*
X72220180Y-34000476D01*
X71315419Y-33619523D02*
X71267800Y-33571904D01*
X71220180Y-33476666D01*
X71220180Y-33238571D01*
X71267800Y-33143333D01*
X71315419Y-33095714D01*
X71410657Y-33048095D01*
X71505895Y-33048095D01*
X71648752Y-33095714D01*
X72220180Y-33667142D01*
X72220180Y-33048095D01*
%TO.C,LED1*%
X72027380Y-39894047D02*
X72027380Y-40370238D01*
X71027380Y-40370238D01*
X71503571Y-39560714D02*
X71503571Y-39227380D01*
X72027380Y-39084523D02*
X72027380Y-39560714D01*
X71027380Y-39560714D01*
X71027380Y-39084523D01*
X72027380Y-38655952D02*
X71027380Y-38655952D01*
X71027380Y-38417857D01*
X71075000Y-38275000D01*
X71170238Y-38179761D01*
X71265476Y-38132142D01*
X71455952Y-38084523D01*
X71598809Y-38084523D01*
X71789285Y-38132142D01*
X71884523Y-38179761D01*
X71979761Y-38275000D01*
X72027380Y-38417857D01*
X72027380Y-38655952D01*
X72027380Y-37132142D02*
X72027380Y-37703571D01*
X72027380Y-37417857D02*
X71027380Y-37417857D01*
X71170238Y-37513095D01*
X71265476Y-37608333D01*
X71313095Y-37703571D01*
%TO.C,PWR1*%
D18*
X81816666Y-35048666D02*
X81116666Y-35048666D01*
X81116666Y-34782000D01*
X81150000Y-34715333D01*
X81183333Y-34682000D01*
X81250000Y-34648666D01*
X81350000Y-34648666D01*
X81416666Y-34682000D01*
X81450000Y-34715333D01*
X81483333Y-34782000D01*
X81483333Y-35048666D01*
X81116666Y-34415333D02*
X81816666Y-34248666D01*
X81316666Y-34115333D01*
X81816666Y-33982000D01*
X81116666Y-33815333D01*
X81816666Y-33148666D02*
X81483333Y-33382000D01*
X81816666Y-33548666D02*
X81116666Y-33548666D01*
X81116666Y-33282000D01*
X81150000Y-33215333D01*
X81183333Y-33182000D01*
X81250000Y-33148666D01*
X81350000Y-33148666D01*
X81416666Y-33182000D01*
X81450000Y-33215333D01*
X81483333Y-33282000D01*
X81483333Y-33548666D01*
X81816666Y-32482000D02*
X81816666Y-32882000D01*
X81816666Y-32682000D02*
X81116666Y-32682000D01*
X81216666Y-32748666D01*
X81283333Y-32815333D01*
X81316666Y-32882000D01*
%TO.C,D1*%
D11*
X57652380Y-114738095D02*
X56652380Y-114738095D01*
X56652380Y-114500000D01*
X56700000Y-114357142D01*
X56795238Y-114261904D01*
X56890476Y-114214285D01*
X57080952Y-114166666D01*
X57223809Y-114166666D01*
X57414285Y-114214285D01*
X57509523Y-114261904D01*
X57604761Y-114357142D01*
X57652380Y-114500000D01*
X57652380Y-114738095D01*
X57652380Y-113214285D02*
X57652380Y-113785714D01*
X57652380Y-113500000D02*
X56652380Y-113500000D01*
X56795238Y-113595238D01*
X56890476Y-113690476D01*
X56938095Y-113785714D01*
%TO.C,F1*%
X65728571Y-96333333D02*
X65728571Y-96666666D01*
X66252380Y-96666666D02*
X65252380Y-96666666D01*
X65252380Y-96190476D01*
X66252380Y-95285714D02*
X66252380Y-95857142D01*
X66252380Y-95571428D02*
X65252380Y-95571428D01*
X65395238Y-95666666D01*
X65490476Y-95761904D01*
X65538095Y-95857142D01*
%TO.C,L1*%
X58152380Y-116166666D02*
X58152380Y-116642857D01*
X57152380Y-116642857D01*
X58152380Y-115309523D02*
X58152380Y-115880952D01*
X58152380Y-115595238D02*
X57152380Y-115595238D01*
X57295238Y-115690476D01*
X57390476Y-115785714D01*
X57438095Y-115880952D01*
%TD*%
M02*
